<?xml version="1.0" encoding="UTF-8"?>
<svg xmlns="http://www.w3.org/2000/svg" xmlns:xlink="http://www.w3.org/1999/xlink" width="1000" height="500">
<rect height="500" width="1000" fill="#eea400"/>
<rect height="500" width="350.81" fill="#00005b"/>
<g transform="matrix(1.0079366,0,0,1.0079366,-67.648329,-2.8258594e-5)">
<g transform="matrix(0.09842519,0,0,0.09842519,-496.06809,5.9548184e-5)">
<path id="s" d="m7560,480,69.421,215.84,212.04-80.301-125.47,188.85,194.99,115.71-225.88,19.651,31.105,224.59-156.1-164.3-156.2,164.35,31.105-224.59-225.88-19.651,194.99-115.71-125.47-188.85,212.04,80.301z" fill="#fff"/>
<path d="m8064,2520,54.86,134.49,144.86,10.615-110.96,93.735,34.67,141.05-123.43-76.56-123.43,76.56,34.67-141.05-110.96-93.735,144.86-10.615z" fill="#fff"/>
<use xlink:href="#s" y="1364.9497" x="-1260.0016"/>
<use xlink:href="#s" y="1028.9471" x="1119.9966"/>
<use xlink:href="#s" y="3359.947"/>
</g>
</g>
<g transform="matrix(1.0058018,0,0,0.86432982,54.483756,20.258348)">
<g transform="matrix(0.334581,0,0,0.314286,404.5364,400.8999)">
<path d="m496.06-407.48,0,177.16c0,88.582,92.126,132.87,109.84,132.87,17.717,0,102.76-44.292,102.76-132.87v-177.16h-212.6z" fill-rule="evenodd" transform="matrix(2.000004,0,0,2.000003,-531.4981,159.4497)" fill="#00005b"/>
<g fill-rule="evenodd" transform="matrix(0.140955,0.339507,-0.345096,0.152884,441.8813,-453.3421)" stroke-width="3.75">
<path d="M35.433-17.716,70.866,0c17.717,0,17.717,17.717,0,17.717l-35.433-17.717c-17.69-1.5683-17.717-17.716,0-17.716z" transform="translate(-17.71654,-301.1811)" stroke="#fff" fill="#00005b"/>
<path d="M35.433-17.716,70.866,0.000076294c17.717,0,17.717,17.717,0,17.717l-35.433-17.717c-17.69-1.5684-17.717-17.716,0-17.716z" transform="translate(-17.7165,-318.8976)" stroke="#fff" fill="#00005b"/>
<path d="M35.433-17.716,70.866,0c17.717,0,17.717,17.717,0,17.717l-35.433-17.717c-17.69-1.5683-17.717-17.716,0-17.716z" transform="translate(-17.7165,-283.4646)" stroke="#fff" fill="#00005b"/>
<path d="M35.433-17.716,70.866,0c17.717,0,17.717,17.717,0,17.717l-35.433-17.717c-17.69-1.5683-17.717-17.716,0-17.716z" transform="translate(-17.7165,-265.7481)" stroke="#fff" fill="#00005b"/>
<path d="M35.433-17.716,70.866,0c17.717,0,17.717,17.717,0,17.717l-35.433-17.717c-17.69-1.5683-17.717-17.716,0-17.716z" transform="translate(-17.7165,-248.0316)" stroke="#fff" fill="#00005b"/>
<path d="M35.433-17.716,70.866,0c17.717,0,17.717,17.717,0,17.717l-35.433-17.717c-17.69-1.5683-17.717-17.716,0-17.716z" transform="translate(-17.71654,-212.5985)" stroke="#fff" fill="#00005b"/>
<path d="M35.433-17.716,70.866,0.000076294c17.717,0,17.717,17.717,0,17.717l-35.433-17.717c-17.69-1.5684-17.717-17.716,0-17.716z" transform="translate(-17.7165,-230.315)" stroke="#fff" fill="#00005b"/>
<path d="M35.433-17.716,70.866,0c17.717,0,17.717,17.717,0,17.717l-35.433-17.717c-17.69-1.5683-17.717-17.716,0-17.716z" transform="translate(-17.7165,-194.882)" stroke="#fff" fill="#00005b"/>
<path d="M35.433-17.716,70.866,0c17.717,0,17.717,17.717,0,17.717l-35.433-17.717c-17.69-1.5683-17.717-17.716,0-17.716z" transform="translate(-17.7165,-177.1655)" stroke="#fff" fill="#00005b"/>
<path d="M35.433-17.716,70.866,0c17.717,0,17.717,17.717,0,17.717l-35.433-17.717c-17.69-1.5683-17.717-17.716,0-17.716z" transform="translate(-17.7165,-159.4489)" stroke="#fff" fill="#00005b"/>
<path d="m35.433,0.00011444s35.433,17.716,35.433,17.716h-35.433c-17.69-1.568-17.717-17.716,0-17.716z" transform="translate(-17.7165,-159.4489)" stroke="#fff" fill="#00005b"/>
<path d="m35.433-53.15,7.0866-602.36,10.63-53.149,14.173,53.149,3.5433,602.36-35.433,0z" transform="matrix(1,0,0,1.243244,-17.71654,-288.2528)" stroke="#00005b" fill="#fffffe"/>
<path d="m-17.716-124.02,141.73,0,35.433-35.433,17.716,17.717-53.149,53.149-141.73,0-53.15-53.149,17.716-21.26,35.433,38.976z" transform="translate(-17.71658,-230.315)" stroke="#00005b" fill="#fffffe"/>
<path d="m17.716-17.716,70.866,0c17.716,0,17.716,35.433,0,35.433l-70.866-0.0002c-17.69-1.5684-17.717-35.433,0-35.433z" transform="translate(-17.71646,-124.0158)" stroke="#00005b" fill="#fffffe"/>
</g>
<g fill="#fff" stroke-width="1pt">
<rect fill-rule="evenodd" height="3.5433" width="124.02" y="-194.88" x="612.99"/>
<rect fill-rule="evenodd" height="3.5433" width="124.02" y="-205.51" x="612.99"/>
<rect fill-rule="evenodd" height="3.5433" width="124.02" y="-216.14" x="612.99"/>
<rect fill-rule="evenodd" height="3.5433" width="124.02" y="-226.77" x="612.99"/>
<rect fill-rule="evenodd" height="3.5433" width="124.02" y="-269.29" x="616.54"/>
<rect fill-rule="evenodd" height="3.5433" width="124.02" y="-237.4" x="612.99"/>
<rect fill-rule="evenodd" height="3.5433" width="124.02" y="-248.03" x="612.99"/>
<rect fill-rule="evenodd" height="3.5433" width="124.02" y="-279.92" x="616.54"/>
<rect fill-rule="evenodd" height="3.5433" width="124.02" y="-258.66" x="612.99"/>
<rect fill-rule="evenodd" height="3.5433" width="124.02" y="-290.55" x="616.54"/>
<rect fill-rule="evenodd" height="106.3" width="3.5432" y="-294.09" x="673.23"/>
<rect fill-rule="evenodd" height="106.3" width="3.5432" y="-294.09" x="683.86"/>
<rect fill-rule="evenodd" height="106.3" width="3.5432" y="-294.09" x="662.6"/>
<rect fill-rule="evenodd" height="106.3" width="3.5432" y="-294.09" x="651.97"/>
<rect fill-rule="evenodd" height="106.3" width="3.5432" y="-294.09" x="641.34"/>
<rect fill-rule="evenodd" height="106.3" width="3.5432" y="-294.09" x="630.71"/>
<rect fill-rule="evenodd" height="106.3" width="3.5432" y="-294.09" x="620.08"/>
<rect fill-rule="evenodd" height="106.3" width="3.5432" y="-294.09" x="705.12"/>
<rect fill-rule="evenodd" height="106.3" width="3.5432" y="-294.09" x="694.49"/>
<rect fill-rule="evenodd" height="106.3" width="3.5432" y="-294.09" x="715.75"/>
<rect fill-rule="evenodd" height="106.3" width="3.5432" y="-294.09" x="726.38"/>
</g>
<g fill-rule="evenodd" stroke="#00005b" fill="#fff">
<g>
<rect height="88.583" width="63.78" y="-411.02" x="641.34" stroke-width="1.1339pt"/>
<path d="m627.16-187.8c0-60.236,35.036-82.106,46.063-81.496,10.233-0.61,46.063,21.26,46.906,81.827,9.787-0.331,34.59-0.331,34.59-0.331v-102.76h-166.54v102.76h38.976z" transform="matrix(1.255322,0,0,1.274978,-171.4377,51.54841)" stroke-width="1pt"/>
<path d="m600.82-464.17,0-7.087-7.702,0,0-7.087-3.082,0,0,7.087-9.243,0,0-7.087-3.081,0,0,7.087-10.784,0,0-7.087-3.081,0,0,7.087-10.784,0,0-7.087-3.081,0,0,7.087-9.244,0,0-7.087-3.081,0,0,7.087-7.703,0,0,7.087,70.866,0z" transform="matrix(3.049993,0,0,-1.222217,-1049.429,-889.3676)" stroke-width="1pt"/>
<path d="m599.28-481.89,1.541-7.086-6.162,0,0-7.087-6.162,0,0,7.087-6.162,0,0-7.087-6.163,0,0,7.087-7.702,0,0-7.087-6.163,0,0,7.087-7.703,0,0-7.087-6.162,0,0,7.087-6.162,0,0-7.087-6.162,0,0,7.087-6.163,0-1.541,7.086,70.866,0z" transform="matrix(3.03403,0,0,1.222217,-1039.838,262.5958)" stroke-width="1pt"/>
<path d="m746.93-460.63,5.67,17.716,51.024,0,5.669-17.716-62.363,0z" transform="matrix(1.249982,0,0,1,-299.3946,31.89001)" stroke-width="1pt"/>
<path d="m531.5-496.06,0,35.433,70.866,0,0-35.433-3.543,0,0,7.087-7.087,0,0-7.087-7.086,0,0,7.087-14.174,0,0-7.087-7.086,0,0,7.087-14.173,0,0-7.087-7.087,0,0,7.087-7.087,0,0-7.087-3.543,0z" transform="matrix(1.100006,0,0,0.600002,49.60335,-152.3612)" stroke-width="1pt"/>
</g>
<g transform="matrix(0.37741,0.194885,-0.226679,0.486911,578.4083,-351.3613)" stroke-width="3.75">
<rect height="35.433" width="673.23" y="-407.48" x="-265.75"/>
<rect height="35.433" width="17.717" y="-407.48" x="194.88"/>
<rect height="35.433" width="17.717" y="-407.48" x="283.46"/>
<rect height="35.433" width="17.717" y="-407.48" x="17.717"/>
<rect height="35.433" width="17.717" y="-407.48" x="106.3"/>
<rect height="35.433" width="17.717" y="-407.48" x="-177.17"/>
<rect height="35.433" width="17.717" y="-407.48" x="-70.866"/>
<rect height="35.433" width="17.717" y="-407.48" x="-265.75"/>
<path d="m-266.49-406.94-52.409-35.968-70.866,53.149-35.433,0,106.3-70.866,52.409,53.685z"/>
<path d="m-266.49-405.33-53.15-35.433-70.866,53.15-35.433,0,106.3-70.866,53.15,53.149z" transform="matrix(1,0,0,-1,0.740986,-777.3751)"/>
<path d="m-442.91-407.48-17.717,17.716,17.717,17.717,70.866-17.717-70.866-17.716z"/>
</g>
<g transform="matrix(0.372806,0,0,0.351688,686.7491,-41.06569)" stroke-width="5">
<path d="m-159.45-265.75,35.433-70.866,70.866,0,17.716,70.866,17.717-70.866,70.866,0,35.433,70.866-70.866,35.433,70.866-17.716,17.716,70.866-35.433,53.149l-70.857-54.45,53.15,72.168-71.153,38.253-70.579-38.253,35.772-67.367-85.217,120.02-19.203-15.603,88.817-108.02-55.603,53.251-54.818-37.648,19.385-86.367,70.866,17.716-70.866-35.433z"/>
<path d="m17.717-212.6c0,29.354-23.796,53.15-53.15,53.15s-53.15-23.796-53.15-53.15,23.796-53.15,53.15-53.15,53.15,23.796,53.15,53.15z"/>
</g>
<path d="m17.716-354.33,35.433,53.15,230.32,0,35.433-53.15-141.73-88.582-10.058-17.717-7.658,17.717-141.73,88.582zm35.433,0,230.32,0-115.43-70.866-114.88,70.866zm-1.5396,17.433,16.803,26.405,37.886-1.2-10.28-24.921-44.408-0.284zm231.85,0.284-16.803,26.405-36.347,0,8.742-26.405,44.408,0zm-168.24,0c8.794-0.917,44.227,0,44.227,0v24.921h-35.433l-8.794-24.921zm106.17,0.407c-8.794-0.917-44.227,0-44.227,0v24.921h35.433l8.794-24.921z" transform="matrix(0.470589,0,0,0.555556,594.025,-328.7402)" stroke-width="3.75000000000000000"/>
</g>
<g id="c" fill-rule="evenodd">
<rect height="53.15" width="106.3" stroke="#00005b" y="-230.31" x="496.06" stroke-width="1pt" fill="#fff"/>
<path d="m744.09-265.75-17.716,35.433,106.3,0-17.716-35.433-70.867,0z" transform="translate(-230.3149,6.103516e-5)" stroke="#00005b" stroke-width="1pt" fill="#fff"/>
<path d="m744.09-265.75,10.63-177.16,49.606,0,10.631,177.16-70.867,0z" transform="matrix(1,0,0,0.700002,-230.3146,-79.72387)" stroke="#00005b" stroke-width="1pt" fill="#fff"/>
<path d="m744.09-460.63,10.63,17.716,49.606,0,10.631-17.716-70.867,0z" transform="translate(-230.3154,53.14986)" stroke="#00005b" stroke-width="1pt" fill="#fff"/>
<path d="m531.5-496.06,0,35.433,70.866,0,0-35.433-3.543,0,0,7.087-7.087,0,0-7.087-7.086,0,0,7.087-14.174,0,0-7.087-7.086,0,0,7.087-14.173,0,0-7.087-7.087,0,0,7.087-7.087,0,0-7.087-3.543,0z" transform="matrix(1,0,0,0.6,-17.71732,-131.1025)" stroke="#00005b" stroke-width="1pt" fill="#fff"/>
<path d="m545.67-361.42,3.544,0,0,10.63,7.086,0,0,3.543-7.086,0,0,14.173-3.544,0,0-14.173-7.086,0,0-3.543,7.086,0,0-10.63z" transform="translate(-14.17324,-3.543259)" fill="#00005b"/>
<path d="m545.67-361.42,3.544,0,0,10.63,7.086,0,0,3.543-7.086,0,0,14.173-3.544,0,0-14.173-7.086,0,0-3.543,7.086,0,0-10.63z" transform="translate(17.71671,53.1494)" fill="#00005b"/>
</g>
<rect fill-rule="evenodd" height="4.3307" width="194.88" y="-326.38" x="577.56" stroke-width="1pt" fill="#00005b"/>
<path d="m545.67-361.42,3.544,0,0,10.63,7.086,0,0,3.543-7.086,0,0,14.173-3.544,0,0-14.173-7.086,0,0-3.543,7.086,0,0-10.63z" fill-rule="evenodd" transform="matrix(-1,0,0,1,1222.441,-21.25963)" fill="#00005b"/>
<use xlink:href="#c" transform="matrix(-1,0,0,1,1350.0002,0)"/>
</g>
<g transform="matrix(1.190319,0,0,1.432018,-192.8326,-124.6715)">
<path d="m691.32,467.26-2.4,62.411s-26.405-2.4-43.208,7.201c-16.803,9.602-28.805,16.803-26.405,16.803,2.401,0,28.805-14.402,40.807-14.402,12.003,0,19.204,14.402,21.604,12.002,2.401-2.401,14.403-16.803,31.206-16.803s40.807,9.602,38.407,7.201c-2.401-2.4-36.007-16.803-40.808-21.604-4.8-4.801,0-48.008-4.8-48.008-4.801,0-9.602,0-14.403-4.801z" fill-rule="evenodd" transform="matrix(0.35173,0,0,0.386744,566.402,145.1083)" stroke="#00005b" stroke-width="3.60143995" fill="#fff"/>
<path d="m713.67,479.88-24.745,49.784s-26.405-2.4-43.208,7.201c-16.803,9.602-28.805,16.803-26.405,16.803,2.401,0,28.805-14.402,40.807-14.402,12.003,0,19.204,14.402,21.604,12.002,2.401-2.401,14.403-16.803,31.206-16.803s40.807,9.602,38.407,7.201c-2.401-2.4-36.007-16.803-40.808-21.604-4.8-4.801,22.345-35.381,17.545-35.381-4.801,0-9.602,0-14.403-4.801z" fill-rule="evenodd" transform="matrix(-0.05895177,0.303707,-0.435316,-0.06482012,1025.065,118.5627)" stroke="#00005b" stroke-width="3.60143995" fill="#fff"/>
<use xlink:href="#g4137" transform="matrix(-1,0,0,1,1321.489,-4.801079)" fill="#fff" stroke="#00005b" stroke-width="1.3283366"/>
<path d="m595.42,213.65s6.232-6.078,6.884-7.578c-1.749-0.3-4.898-1.547-7.235-3.79-4.832-5.255-6.996-16.373-6.996-15.525,0,0.849-9.275,17.36-9.275,17.36l16.622,9.533z" fill-rule="evenodd" transform="matrix(0.567723,0,0,0.497243,420.4363,98.25114)" fill="#01015c"/>
<path d="m600.11,184.91c3.001-3.001,9.902-9.602,9.902-9.602" transform="matrix(0.722554,0,0,0.652627,326.8396,70.41479)" stroke="#01015c" stroke-width="1.93430996" fill="none"/>
<path d="m612.41,181.91c0,4.3086-1.4106,7.8014-3.1506,7.8014s-3.1506-3.4928-3.1506-7.8014,1.4106-7.8014,3.1506-7.8014,3.1506,3.4928,3.1506,7.8014z" transform="matrix(0.293931,0.213672,-0.247764,0.253487,630.9539,12.41003)" stroke="#01015c" stroke-width="2.5" fill="none"/>
</g>
<g transform="matrix(1.190319,0,0,1.432018,-121.4218,-131.5464)">
<path d="m691.32,467.26-2.4,62.411s-26.405-2.4-43.208,7.201c-16.803,9.602-28.805,16.803-26.405,16.803,2.401,0,28.805-14.402,40.807-14.402,12.003,0,19.204,14.402,21.604,12.002,2.401-2.401,14.403-16.803,31.206-16.803s40.807,9.602,38.407,7.201c-2.401-2.4-36.007-16.803-40.808-21.604-4.8-4.801,0-48.008-4.8-48.008-4.801,0-9.602,0-14.403-4.801z" fill-rule="evenodd" transform="matrix(-0.35173,0,0,0.386744,755.087,149.9092)" stroke="#00005b" stroke-width="3.60143995" fill="#fff"/>
<path d="m713.67,479.88-24.745,49.784s-26.405-2.4-43.208,7.201c-16.803,9.602-28.805,16.803-26.405,16.803,2.401,0,28.805-14.402,40.807-14.402,12.003,0,19.204,14.402,21.604,12.002,2.401-2.401,14.403-16.803,31.206-16.803s40.807,9.602,38.407,7.201c-2.401-2.4-36.007-16.803-40.808-21.604-4.8-4.801,22.345-35.381,17.545-35.381-4.801,0-9.602,0-14.403-4.801z" fill-rule="evenodd" transform="matrix(0.05895177,0.303707,0.435316,-0.06482012,298.2245,125.1639)" stroke="#00005b" stroke-width="3.60143995" fill="#fff"/>
<g fill="#00005b" stroke="#eea400" stroke-width="1.32833662">
<g id="g4137" fill-rule="evenodd">
<path d="m698.52,275.22c4.801-4.8-36.006-19.203-19.203-45.608s55.21-7.201,64.811,31.206c9.602,38.407-16.803,88.816-14.402,134.42,2.4,45.609-7.202,40.807,4.801,79.214-9.602-4.8-26.405-33.605-28.805-74.413-2.401-40.807,9.601-88.816,4.8-93.617" transform="matrix(-0.688531,-0.253223,-0.219797,0.458466,1069.253,280.6867)" stroke-width="2.17987021"/>
<path d="m700.93,354.44c9.601,4.8,55.21,48.008,67.212,74.413,4.801,19.203,12.001,40.807-14.403,38.406-16.803-2.4-7.201-24.003-16.803-31.205-9.601-7.201-45.608-33.606-45.608-36.006,0-2.401,7.201-38.407,9.602-45.608z" transform="matrix(-0.567723,0,0,0.497243,901.0527,103.052)" stroke-width="2.50008954"/>
<path d="m648.12,407.25c-7.201,0-45.608-4.801-50.409,9.602-4.801,14.402,57.611,24.004,57.611,21.604,0-2.401-4.801-26.405-7.202-31.206z" transform="matrix(-0.567723,0,0,0.497243,901.0527,103.052)" stroke-width="2.50008954"/>
<path d="m612.11,196.01c20.055-22.61,48.189-38.554,60.011-24.004,19.384,23.856-62.412,69.612-69.613,112.82s26.405,74.413,31.206,103.22c4.8,28.805,4.801,48.008,19.203,55.21,14.403,7.201,28.805,2.4,28.805,2.4s-4.8,28.805,14.403,26.405c12.002,0-2.401-117.62,2.4-165.63,4.801-48.008-36.006-60.01-36.006-60.01s50.956-48.27,38.407-74.414c-16.256-33.867-40.808-24.004-57.611-19.203-16.802,4.8-32.169,9.149-49.415,25.846-16.657,16.948-31.787,67.77-24.998,66.073l43.208-48.712z" transform="matrix(-0.567723,0,0,0.497243,901.0527,103.052)" stroke-width="2.50008954"/>
<path d="m655.32,371.24s0,31.205,2.4,28.805c2.4-2.401,12.002-21.604,12.002-21.604s7.201,33.606,7.201,31.205c0-2.4,7.202-24.004,7.202-24.004s2.4,36.007,4.801,36.007c2.4,0,9.601-21.604,9.601-21.604s7.202,45.608,7.202,40.807,7.201-26.405,7.201-24.004c0,2.4,12.002,52.809,12.002,50.409,0-2.401-2.4-172.83-2.4-172.83l-40.808,4.801" transform="matrix(-0.567723,0,0,0.497243,899.6899,100.6648)" stroke-width="2.50008954"/>
<path d="m662.52,280.02c2.4,0,31.205,0,36.006-4.801,4.801-4.8-36.006-19.203-19.203-45.608s55.21-7.201,64.811,31.206c9.602,38.407-16.803,88.816-14.402,134.42,2.4,45.609-7.202,40.807,4.801,79.214-9.602-4.8-26.405-33.605-28.805-74.413-2.401-40.807,9.601-88.816,4.8-93.617-4.8-4.801-26.404,0-26.404,0" transform="matrix(-0.746768,0,0,0.497243,1029.213,104.2456)" stroke-width="2.17987182"/>
</g>
</g>
<path d="m595.42,213.65s6.232-6.078,6.884-7.578c-1.749-0.3-4.898-1.547-7.235-3.79-4.832-5.255-6.996-16.373-6.996-15.525,0,0.849-9.275,17.36-9.275,17.36l16.622,9.533z" fill-rule="evenodd" transform="matrix(-0.567723,0,0,0.497243,901.0527,103.052)" fill="#fff"/>
<path d="m600.11,184.91c3.001-3.001,9.902-9.602,9.902-9.602" transform="matrix(-0.722554,0,0,0.652627,994.6494,75.21564)" stroke="#fff" stroke-width="1.93430996" fill="none"/>
<path d="m612.41,181.91c0,4.3086-1.4106,7.8014-3.1506,7.8014s-3.1506-3.4928-3.1506-7.8014,1.4106-7.8014,3.1506-7.8014,3.1506,3.4928,3.1506,7.8014z" transform="matrix(-0.293931,0.213672,0.247764,0.253487,690.5351,17.21089)" stroke="#fff" stroke-width="2.5" fill="none"/>
</g>
</g>
</svg>
