<?xml version="1.0" encoding="UTF-8" standalone="no"?>
<!-- Created with Inkscape (http://www.inkscape.org/) -->

<svg
   xmlns:dc="http://purl.org/dc/elements/1.1/"
   xmlns:cc="http://creativecommons.org/ns#"
   xmlns:rdf="http://www.w3.org/1999/02/22-rdf-syntax-ns#"
   xmlns:svg="http://www.w3.org/2000/svg"
   xmlns="http://www.w3.org/2000/svg"
   xmlns:xlink="http://www.w3.org/1999/xlink"
   version="1.0"
   width="1000"
   height="500"
   id="svg1">
  <defs
     id="defs3" />
  <g
     id="g3513">
    <path
       d="m 0,0 1000,0 0,500 -1000,0 z"
       id="rect1356"
       style="fill:#002b7f" />
    <path
       d="M 2.6318359e-5,2.43606e-4 499.99954,2.43606e-4 499.99954,250 2.6318359e-5,250 z"
       id="rect1359"
       style="fill:#002b7f" />
    <g
       transform="matrix(0.333333,0,0,0.333333,2.631836e-5,2.43606e-4)"
       id="upper_half">
      <path
         d="M 625,228.64745 625,0 675,0 750,325 0,300 0,250 332.2949,250 0,83.852549 0,0 0,0 167.7051,0 z"
         id="upper_left_white"
         style="fill:#ffffff" />
      <use
         transform="matrix(-1,0,0,1,1500,0)"
         id="use1363"
         x="0"
         y="0"
         width="1000"
         height="500"
         xlink:href="#upper_left_white" />
      <path
         d="M 0,0 500,250 388.1966,250 0,55.901699 0,0 z m 1500,0 -500,250 -111.8034,0 500,-250 L 1500,0 z"
         id="upper_red_diagonals"
         style="fill:#ce1126" />
    </g>
    <use
       transform="matrix(-1,0,0,-1,499.99955,250.00024)"
       id="use1366"
       x="0"
       y="0"
       width="1000"
       height="500"
       xlink:href="#upper_half" />
    <path
       d="m 224.9998,2.43606e-4 49.99995,0 0,99.999896394 224.99978,0 0,49.99995 -224.99978,0 0,99.9999 -49.99995,0 0,-99.9999 -224.99977368164,0 0,-49.99995 224.99977368164,0 0,-99.999896394 z"
       id="path1368"
       style="fill:#ce1126" />
    <path
       d="m 750,126.96064 c 68.16381,0 123.03937,54.87556 123.03937,123.03937 l 0,1e-5 c 0,68.16381 -54.87556,123.03937 -123.03937,123.03937 -68.16381,0 -123.03937,-54.87556 -123.03937,-123.03937 l 0,-1e-5 c 0,-68.16381 54.87556,-123.03937 123.03937,-123.03937 z"
       id="rect578"
       style="font-size:12px;fill:#ffe300;fill-rule:evenodd;stroke-width:1pt" />
    <g
       transform="matrix(0.156762,0,0,0.16024,700.3027,255.89593)"
       id="g962">
      <g
         transform="translate(9.834595,-53.14962)"
         id="g958">
        <path
           d="m -8.9641514,496.06296 645.7831414,0 c 14.72244,0 26.5748,11.85236 26.5748,26.5748 l 0,0 c 0,14.72244 -11.85236,26.5748 -26.5748,26.5748 l -645.7831414,0 c -14.7224396,0 -26.5748006,-11.85236 -26.5748006,-26.5748 l 0,0 c 0,-14.72244 11.852361,-26.5748 26.5748006,-26.5748 z"
           id="rect955"
           style="font-size:12px;fill:#007501;fill-opacity:1;fill-rule:evenodd;stroke:#000000;stroke-width:3.75;stroke-opacity:1" />
        <path
           d="m 20.731056,496.06302 62.193169,0 0,53.14957 -62.193169,0 z"
           id="rect956"
           style="font-size:12px;fill:#cc0000;fill-opacity:1;fill-rule:evenodd;stroke:#000000;stroke-width:3.75;stroke-opacity:1" />
        <path
           d="m 549.21265,496.06296 62.19317,0 0,53.14957 -62.19317,0 z"
           id="rect957"
           style="font-size:12px;fill:#cc0000;fill-opacity:1;fill-rule:evenodd;stroke:#000000;stroke-width:3.75;stroke-opacity:1" />
      </g>
      <g
         transform="matrix(0.907115,0,0,0.688055,30.99951,83.57497)"
         id="g921">
        <g
           transform="matrix(0.810676,-0.585495,0.585495,0.810676,-198.4939,275.5458)"
           id="g888">
          <path
             d="m 272.24,835.316 c 0,120.221 -15.949,217.794 -35.601,217.794 -19.651,0 -35.6,-97.573 -35.6,-217.794 17.769,-31.374 12.987,-40.097 32.638,-40.097 19.652,0 20.794,11.685 38.563,40.097 z"
             transform="matrix(1.124784,0,0,1,54.87619,-159.9253)"
             id="path882"
             style="font-size:12px;fill-rule:evenodd;stroke-width:1pt" />
          <path
             d="m 248.845,853.439 c 0,95.946 -20.934,103.337 -39.43,103.337 -18.495,0 -36.468,-7.391 -36.468,-103.337 0,-95.946 17.973,-244.292 36.468,-244.292 18.496,0 39.43,148.346 39.43,244.292 z"
             transform="matrix(1,0,0,1.008519,109.5784,-162.1533)"
             id="path881"
             style="font-size:12px;fill:#ffffff;fill-opacity:1;fill-rule:evenodd;stroke:#000000;stroke-width:5.3522501;stroke-opacity:1;stroke-dasharray:none" />
        </g>
        <g
           transform="matrix(0.810676,-0.585495,0.585495,0.810676,-199.561,269.0101)"
           id="g891">
          <path
             d="m 272.24,835.316 c 0,120.221 -15.949,217.794 -35.601,217.794 -19.651,0 -35.6,-97.573 -35.6,-217.794 17.769,-31.374 12.987,-40.097 32.638,-40.097 19.652,0 20.794,11.685 38.563,40.097 z"
             transform="matrix(1.113602,0.158204,-0.140653,0.990058,142.0534,-186.5226)"
             id="path883"
             style="font-size:12px;fill-rule:evenodd;stroke-width:1pt" />
          <path
             d="m 248.845,853.439 c 0,95.946 -20.934,103.337 -39.43,103.337 -18.495,0 -36.468,-7.391 -36.468,-103.337 0,-95.946 17.973,-244.292 36.468,-244.292 18.496,0 39.43,148.346 39.43,244.292 z"
             transform="matrix(0.990058,0.140653,-0.141852,0.998494,196.5252,-181.0345)"
             id="path884"
             style="font-size:12px;fill:#ffffff;fill-opacity:1;fill-rule:evenodd;stroke:#000000;stroke-width:5.3522501;stroke-opacity:1;stroke-dasharray:none" />
        </g>
        <g
           transform="matrix(0.934457,-0.356076,0.356076,0.934457,-140.02,143.5871)"
           id="g894">
          <path
             d="m 272.24,835.316 c 0,120.221 -15.949,217.794 -35.601,217.794 -19.651,0 -35.6,-97.573 -35.6,-217.794 17.769,-31.374 12.987,-40.097 32.638,-40.097 19.652,0 20.794,11.685 38.563,40.097 z"
             transform="matrix(1.124784,0,0,1,54.87619,-159.9253)"
             id="path895"
             style="font-size:12px;fill-rule:evenodd;stroke-width:1pt" />
          <path
             d="m 248.845,853.439 c 0,95.946 -20.934,103.337 -39.43,103.337 -18.495,0 -36.468,-7.391 -36.468,-103.337 0,-95.946 17.973,-244.292 36.468,-244.292 18.496,0 39.43,148.346 39.43,244.292 z"
             transform="matrix(1,0,0,1.008519,109.5784,-162.1533)"
             id="path896"
             style="font-size:12px;fill:#ffffff;fill-opacity:1;fill-rule:evenodd;stroke:#000000;stroke-width:5.3522501;stroke-opacity:1;stroke-dasharray:none" />
        </g>
        <g
           transform="matrix(0.934457,-0.356076,0.356076,0.934457,-139.3617,136.9977)"
           id="g897">
          <path
             d="m 272.24,835.316 c 0,120.221 -15.949,217.794 -35.601,217.794 -19.651,0 -35.6,-97.573 -35.6,-217.794 17.769,-31.374 12.987,-40.097 32.638,-40.097 19.652,0 20.794,11.685 38.563,40.097 z"
             transform="matrix(1.113602,0.158204,-0.140653,0.990058,142.0534,-186.5226)"
             id="path898"
             style="font-size:12px;fill-rule:evenodd;stroke-width:1pt" />
          <path
             d="m 248.845,853.439 c 0,95.946 -20.934,103.337 -39.43,103.337 -18.495,0 -36.468,-7.391 -36.468,-103.337 0,-95.946 17.973,-244.292 36.468,-244.292 18.496,0 39.43,148.346 39.43,244.292 z"
             transform="matrix(0.990058,0.140653,-0.141852,0.998494,196.5252,-181.0345)"
             id="path899"
             style="font-size:12px;fill:#ffffff;fill-opacity:1;fill-rule:evenodd;stroke:#000000;stroke-width:5.3522501;stroke-opacity:1;stroke-dasharray:none" />
        </g>
        <g
           transform="matrix(0.96342,-0.267993,0.267993,0.96342,-116.005,94.32997)"
           id="g900">
          <path
             d="m 272.24,835.316 c 0,120.221 -15.949,217.794 -35.601,217.794 -19.651,0 -35.6,-97.573 -35.6,-217.794 17.769,-31.374 12.987,-40.097 32.638,-40.097 19.652,0 20.794,11.685 38.563,40.097 z"
             transform="matrix(1.113602,0.158204,-0.140653,0.990058,142.0534,-186.5226)"
             id="path901"
             style="font-size:12px;fill-rule:evenodd;stroke-width:1pt" />
          <path
             d="m 248.845,853.439 c 0,95.946 -20.934,103.337 -39.43,103.337 -18.495,0 -36.468,-7.391 -36.468,-103.337 0,-95.946 17.973,-244.292 36.468,-244.292 18.496,0 39.43,148.346 39.43,244.292 z"
             transform="matrix(0.990058,0.140653,-0.141852,0.998494,196.5252,-181.0345)"
             id="path902"
             style="font-size:12px;fill:#ffffff;fill-opacity:1;fill-rule:evenodd;stroke:#000000;stroke-width:5.3522501;stroke-opacity:1;stroke-dasharray:none" />
        </g>
        <g
           transform="matrix(-0.810676,-0.585495,-0.585495,0.810676,834.0929,275.5458)"
           id="g903">
          <path
             d="m 272.24,835.316 c 0,120.221 -15.949,217.794 -35.601,217.794 -19.651,0 -35.6,-97.573 -35.6,-217.794 17.769,-31.374 12.987,-40.097 32.638,-40.097 19.652,0 20.794,11.685 38.563,40.097 z"
             transform="matrix(1.124784,0,0,1,54.87619,-159.9253)"
             id="path904"
             style="font-size:12px;fill-rule:evenodd;stroke-width:1pt" />
          <path
             d="m 248.845,853.439 c 0,95.946 -20.934,103.337 -39.43,103.337 -18.495,0 -36.468,-7.391 -36.468,-103.337 0,-95.946 17.973,-244.292 36.468,-244.292 18.496,0 39.43,148.346 39.43,244.292 z"
             transform="matrix(1,0,0,1.008519,109.5784,-162.1533)"
             id="path905"
             style="font-size:12px;fill:#ffffff;fill-opacity:1;fill-rule:evenodd;stroke:#000000;stroke-width:5.3522501;stroke-opacity:1;stroke-dasharray:none" />
        </g>
        <g
           transform="matrix(-0.810676,-0.585495,-0.585495,0.810676,835.1599,269.0101)"
           id="g906">
          <path
             d="m 272.24,835.316 c 0,120.221 -15.949,217.794 -35.601,217.794 -19.651,0 -35.6,-97.573 -35.6,-217.794 17.769,-31.374 12.987,-40.097 32.638,-40.097 19.652,0 20.794,11.685 38.563,40.097 z"
             transform="matrix(1.113602,0.158204,-0.140653,0.990058,142.0534,-186.5226)"
             id="path907"
             style="font-size:12px;fill-rule:evenodd;stroke-width:1pt" />
          <path
             d="m 248.845,853.439 c 0,95.946 -20.934,103.337 -39.43,103.337 -18.495,0 -36.468,-7.391 -36.468,-103.337 0,-95.946 17.973,-244.292 36.468,-244.292 18.496,0 39.43,148.346 39.43,244.292 z"
             transform="matrix(0.990058,0.140653,-0.141852,0.998494,196.5252,-181.0345)"
             id="path908"
             style="font-size:12px;fill:#ffffff;fill-opacity:1;fill-rule:evenodd;stroke:#000000;stroke-width:5.3522501;stroke-opacity:1;stroke-dasharray:none" />
        </g>
        <g
           transform="matrix(-0.934457,-0.356076,-0.356076,0.934457,775.6189,143.5871)"
           id="g909">
          <path
             d="m 272.24,835.316 c 0,120.221 -15.949,217.794 -35.601,217.794 -19.651,0 -35.6,-97.573 -35.6,-217.794 17.769,-31.374 12.987,-40.097 32.638,-40.097 19.652,0 20.794,11.685 38.563,40.097 z"
             transform="matrix(1.124784,0,0,1,54.87619,-159.9253)"
             id="path910"
             style="font-size:12px;fill-rule:evenodd;stroke-width:1pt" />
          <path
             d="m 248.845,853.439 c 0,95.946 -20.934,103.337 -39.43,103.337 -18.495,0 -36.468,-7.391 -36.468,-103.337 0,-95.946 17.973,-244.292 36.468,-244.292 18.496,0 39.43,148.346 39.43,244.292 z"
             transform="matrix(1,0,0,1.008519,109.5784,-162.1533)"
             id="path911"
             style="font-size:12px;fill:#ffffff;fill-opacity:1;fill-rule:evenodd;stroke:#000000;stroke-width:5.3522501;stroke-opacity:1;stroke-dasharray:none" />
        </g>
        <g
           transform="matrix(-0.934457,-0.356076,-0.356076,0.934457,774.9608,136.9977)"
           id="g912">
          <path
             d="m 272.24,835.316 c 0,120.221 -15.949,217.794 -35.601,217.794 -19.651,0 -35.6,-97.573 -35.6,-217.794 17.769,-31.374 12.987,-40.097 32.638,-40.097 19.652,0 20.794,11.685 38.563,40.097 z"
             transform="matrix(1.113602,0.158204,-0.140653,0.990058,142.0534,-186.5226)"
             id="path913"
             style="font-size:12px;fill-rule:evenodd;stroke-width:1pt" />
          <path
             d="m 248.845,853.439 c 0,95.946 -20.934,103.337 -39.43,103.337 -18.495,0 -36.468,-7.391 -36.468,-103.337 0,-95.946 17.973,-244.292 36.468,-244.292 18.496,0 39.43,148.346 39.43,244.292 z"
             transform="matrix(0.990058,0.140653,-0.141852,0.998494,196.5252,-181.0345)"
             id="path914"
             style="font-size:12px;fill:#ffffff;fill-opacity:1;fill-rule:evenodd;stroke:#000000;stroke-width:5.3522501;stroke-opacity:1;stroke-dasharray:none" />
        </g>
        <g
           transform="matrix(-0.96342,-0.267993,-0.267993,0.96342,751.6039,94.32997)"
           id="g915">
          <path
             d="m 272.24,835.316 c 0,120.221 -15.949,217.794 -35.601,217.794 -19.651,0 -35.6,-97.573 -35.6,-217.794 17.769,-31.374 12.987,-40.097 32.638,-40.097 19.652,0 20.794,11.685 38.563,40.097 z"
             transform="matrix(1.113602,0.158204,-0.140653,0.990058,142.0534,-186.5226)"
             id="path916"
             style="font-size:12px;fill-rule:evenodd;stroke-width:1pt" />
          <path
             d="m 248.845,853.439 c 0,95.946 -20.934,103.337 -39.43,103.337 -18.495,0 -36.468,-7.391 -36.468,-103.337 0,-95.946 17.973,-244.292 36.468,-244.292 18.496,0 39.43,148.346 39.43,244.292 z"
             transform="matrix(0.990058,0.140653,-0.141852,0.998494,196.5252,-181.0345)"
             id="path917"
             style="font-size:12px;fill:#ffffff;fill-opacity:1;fill-rule:evenodd;stroke:#000000;stroke-width:5.3522501;stroke-opacity:1;stroke-dasharray:none" />
        </g>
        <g
           transform="matrix(0.988478,-0.151359,0.151359,0.988478,-62.17507,52.1638)"
           id="g918">
          <path
             d="m 272.24,835.316 c 0,120.221 -15.949,217.794 -35.601,217.794 -19.651,0 -35.6,-97.573 -35.6,-217.794 17.769,-31.374 12.987,-40.097 32.638,-40.097 19.652,0 20.794,11.685 38.563,40.097 z"
             transform="matrix(1.113602,0.158204,-0.140653,0.990058,142.0534,-186.5226)"
             id="path919"
             style="font-size:12px;fill-rule:evenodd;stroke-width:1pt" />
          <path
             d="m 248.845,853.439 c 0,95.946 -20.934,103.337 -39.43,103.337 -18.495,0 -36.468,-7.391 -36.468,-103.337 0,-95.946 17.973,-244.292 36.468,-244.292 18.496,0 39.43,148.346 39.43,244.292 z"
             transform="matrix(0.990058,0.140653,-0.141852,0.998494,196.5252,-181.0345)"
             id="path920"
             style="font-size:12px;fill:#ffffff;fill-opacity:1;fill-rule:evenodd;stroke:#000000;stroke-width:5.3522501;stroke-opacity:1;stroke-dasharray:none" />
        </g>
      </g>
      <path
         d="m 690.94489,180.39116 c 0,1.78156 -1.8585,3.2258 -4.15107,3.2258 -2.29257,0 -4.15106,-1.44424 -4.15106,-3.2258 0,-1.78156 1.85849,-3.2258 4.15106,-3.2258 2.29257,0 4.15107,1.44424 4.15107,3.2258 z"
         transform="matrix(0.734385,-0.67857,0.334032,0.349981,118.4645,582.7393)"
         id="path1082"
         style="font-size:12px;fill:#ffffff;fill-rule:evenodd;stroke-width:1pt" />
      <path
         d="m 690.94489,180.39116 c 0,1.78156 -1.8585,3.2258 -4.15107,3.2258 -2.29257,0 -4.15106,-1.44424 -4.15106,-3.2258 0,-1.78156 1.85849,-3.2258 4.15106,-3.2258 2.29257,0 4.15107,1.44424 4.15107,3.2258 z"
         transform="matrix(-0.151765,-0.302539,0.174103,-0.06746526,755.8265,400.0584)"
         id="path1083"
         style="font-size:12px;fill-rule:evenodd;stroke-width:1pt" />
      <path
         d="m 321.944,435.271 c -50.347,-2.962 -36.765,-64.734 -51.573,-64.734 -14.808,0 -65.155,56.27 -79.963,71.078 -14.808,14.808 -17.769,38.5 -17.769,38.5 0,0 -2.962,-38.5 -23.693,-41.462 -20.731,-2.961 -44.423,29.616 -44.423,29.616 0,0 2.961,-32.577 20.731,-44.423 17.769,-11.847 50.346,0 50.346,0 0,0 71.078,-68.117 85.886,-94.771 14.808,-26.654 -33.445,-28.476 -45.291,-49.207 -11.846,-20.731 5.923,-79.962 -11.846,-91.808 -14.808,29.615 -29.616,97.732 -47.386,94.77 -17.769,-2.962 -35.538,-50.347 -35.538,-50.347 0,0 8.884,56.27 -17.77,56.27 -26.6538,0 -32.5768,-56.27 -32.5768,-56.27 0,0 -2.962,59.232 -29.616,59.232 -26.654,0 -26.654,-71.078 -26.654,-71.078 0,0 -20.73101,59.231 -35.539,68.116 -14.808,8.885 -8.884,-65.154 -8.884,-65.154 0,0 -20.731,59.231 -44.424,56.269 -23.693,-2.961 -20.731,-50.346 -20.731,-50.346 0,0 -17.7692,41.462 -50.3472,32.577 -32.577,-8.885 -23.692,-56.27 -23.692,-56.27 0,0 -11.846,35.539 -38.501,14.808 -26.654,-20.731 8.885,-53.308 8.885,-53.308 0,0 -23.693,32.577 -50.347,17.769 -26.654,-14.808 11.847,-65.154 11.847,-65.154 0,0 -44.423,14.807 -65.154,-11.847 -20.731,-26.6539 29.615,-41.4616 29.615,-41.4616 0,0 -32.577,-5.9233 -38.5,-29.6158 -5.923,-23.6926 41.462,-29.61584 41.462,-29.61584 0,0 -38.501,-8.8847 -41.462,-32.57716 -2.962,-23.6925 44.423,-5.9232 47.385,-5.9232 2.961,0 -59.232,-41.4619 -59.232,-59.2313 0,-17.7691 59.232,8.8847 59.232,8.8847 0,0 -59.232,-38.5008 -59.232,-65.1548 0,-26.654 38.5,-5.923 53.308,-2.962 -11.846,-17.769 -53.308,-35.538 -50.346,-56.269 2.962,-20.731 56.27,2.961 56.27,2.961 0,0 -50.347,-53.308 -41.462,-71.078 8.884,-17.769 62.193,23.693 62.193,23.693 0,0 -62.193,-53.308 -56.27,-68.116 5.923,-14.808 65.155,26.654 65.155,26.654 0,0 -59.232,-56.27 -50.347,-77.001 8.885,-20.731 59.231,26.655 71.077,35.54 -11.846,-5.923 -68.115,-79.963 -56.269,-97.733 11.846,-17.769 74.039,56.27 74.039,56.27 0,0 -56.27,-88.847 -47.385,-100.693 8.885,-11.847 77.001,71.077 77.001,71.077 0,0 -53.308,-91.808 -32.577,-106.616 20.73,-14.808 56.269,77.001 59.231,77.001 2.961,0 -29.616,-100.694 -5.923,-109.579 23.692,-8.884 59.2312,94.771 62.1922,94.771 2.962,0 -23.6922,-136.232 5.923,-133.271 29.616,2.962 23.693,65.155 23.693,68.117 0,2.961 2.962,-35.539 20.731,-35.539 -2.962,8.884 53.308,325.772 71.078,399.812 17.769,74.0392 38.5,53.3077 53.308,77.0007 14.8078,23.6923 35.5378,26.654 59.2308,29.6156 23.692,2.9615 74.474,3.4666 88.847,-23.6926 10.542,-25.087 -2.962,-127.3477 81.443,-130.3087 84.406,2.961 70.902,105.2217 81.444,130.3087 14.373,27.1592 65.155,26.6541 88.847,23.6926 23.693,-2.9616 44.423,-5.9233 59.231,-29.6156 14.808,-23.693 35.539,-2.9615 53.308,-77.0007 17.77,-74.04 74.04,-390.928 71.078,-399.812 17.769,0 20.731,38.5 20.731,35.539 0,-2.962 -5.923,-65.155 23.693,-68.117 29.615,-2.961 2.961,133.271 5.923,133.271 2.961,0 38.5,-103.655 62.192,-94.771 23.693,8.885 -8.884,109.579 -5.923,109.579 2.962,0 38.501,-91.809 59.231,-77.001 20.731,14.808 -32.577,106.616 -32.577,106.616 0,0 68.116,-82.924 77.001,-71.077 8.885,11.846 -47.385,100.693 -47.385,100.693 0,0 62.193,-74.039 74.039,-56.27 11.846,17.77 -44.423,91.81 -56.269,97.733 11.846,-8.885 62.192,-56.271 71.077,-35.54 8.885,20.731 -50.347,77.001 -50.347,77.001 0,0 59.232,-41.462 65.155,-26.654 5.923,14.808 -56.27,68.116 -56.27,68.116 0,0 53.309,-41.462 62.193,-23.693 8.885,17.77 -41.462,71.078 -41.462,71.078 0,0 53.308,-23.692 56.27,-2.961 2.962,20.731 -38.5,38.5 -50.346,56.269 14.808,-2.961 53.308,-23.692 53.308,2.962 0,26.654 -59.232,65.1548 -59.232,65.1548 0,0 59.232,-26.6538 59.232,-8.8847 0,17.7694 -62.193,59.2313 -59.232,59.2313 2.962,0 50.347,-17.7693 47.385,5.9232 -2.961,23.69246 -41.462,32.57716 -41.462,32.57716 0,0 47.385,5.92324 41.462,29.61584 -5.923,23.6925 -38.5,29.6158 -38.5,29.6158 0,0 50.346,14.8077 29.615,41.4616 -20.731,26.654 -65.154,11.847 -65.154,11.847 0,0 38.501,50.346 11.847,65.154 -26.654,14.808 -50.347,-17.769 -50.347,-17.769 0,0 35.539,32.577 8.885,53.308 -26.655,20.731 -38.501,-14.808 -38.501,-14.808 0,0 8.885,47.385 -23.692,56.27 -32.578,8.885 -50.347,-32.577 -50.347,-32.577 0,0 2.962,47.385 -20.731,50.346 -23.693,2.962 -44.424,-56.269 -44.424,-56.269 0,0 5.924,74.039 -8.884,65.154 -14.808,-8.885 -35.539,-68.116 -35.539,-68.116 0,0 0,71.078 -26.654,71.078 -26.654,0 -29.616,-59.232 -29.616,-59.232 0,0 -5.923,56.27 -32.577,56.27 -26.654,0 -17.77,-56.27 -17.77,-56.27 0,0 -17.769,47.385 -35.538,50.347 -17.77,2.962 -32.578,-65.155 -47.386,-94.77 -17.769,11.846 0,71.077 -11.846,91.808 -11.846,20.731 -64.287,22.553 -49.479,49.207 14.808,26.654 85.886,94.771 85.886,94.771 0,0 32.577,-11.847 50.346,0 17.77,11.846 20.731,44.423 20.731,44.423 0,0 -23.692,-32.577 -44.423,-29.616 -20.731,2.962 -23.693,41.462 -23.693,41.462 0,0 -2.961,-23.692 -17.769,-38.5 -14.808,-14.808 -65.155,-71.078 -79.963,-71.078 -14.808,0 7.15,61.772 -46.158,64.734 z"
         id="path866"
         style="font-size:12px;fill:#000000;fill-opacity:1;fill-rule:evenodd;stroke:#000000;stroke-width:1pt" />
      <path
         d="m 379.081,-78.4815 c 1.596,0.4555 -22.161,45.4571 -55.854,68.7562 -33.694,23.299 -61.722,13.48281 -68.374,11.03866 0.534,7.22653 2.19,46.68504 3.671,67.41624 6.117,91.7484 -20.731,122.4714 -20.731,122.4714 0,0 17.77,29.616 17.77,44.424 0,14.808 -0.806,34.164 13.94,69.789 26.263,47.603 29.616,53.308 29.616,71.077 0,17.77 4.547,43.433 23.259,39.514 20.806,5.833 23.258,-21.924 23.258,-39.694 0,-17.769 3.353,-23.474 29.616,-71.077 21.029,-33.531 9.752,-54.981 9.752,-69.789 0,-14.808 17.77,-44.424 17.77,-44.424 0,0 -26.848,-29.676 -20.731,-121.424 2.961,-41.4622 26.654,-85.8855 -2.962,-148.0785 z"
         id="path871"
         style="font-size:12px;fill:#ffffff;fill-opacity:1;fill-rule:evenodd;stroke:none" />
      <path
         d="m 199.991,-198.148 c 0,0 21.989,4.188 35.601,14.659 13.612,10.471 20.941,21.989 14.659,28.271 -6.282,6.283 -19.894,3.141 -30.365,-2.094 -10.471,-5.235 -29.318,-28.271 -28.271,-28.271 1.047,0 0,28.271 21.988,39.789 21.989,11.518 24.725,14.133 33.101,13.086 8.377,-1.047 30.085,-29.776 29.038,-42.341 -1.047,-12.565 -12.926,-23.099 -30.726,-29.381 -17.801,-6.283 -45.025,8.376 -45.025,6.282 z"
         transform="matrix(1.325804,0.105982,0.176761,1.235809,-49.82467,16.05418)"
         id="path872"
         style="fill:#ffe300;fill-opacity:1;fill-rule:evenodd;stroke:#000000;stroke-width:1pt;stroke-linecap:butt;stroke-linejoin:miter;stroke-opacity:1" />
      <path
         d="m 337.61964,-155.48372 c 0,5.72472 -4.97228,10.36553 -11.10591,10.36553 -6.13362,0 -11.10591,-4.64081 -11.10591,-10.36553 0,-5.72472 4.97229,-10.36552 11.10591,-10.36552 6.13363,0 11.10591,4.6408 11.10591,10.36552 z"
         transform="translate(1.480789,-2.961594)"
         id="path873"
         style="fill:#ffffff;fill-opacity:1;fill-rule:evenodd;stroke:none" />
      <path
         d="m 528.641,-38.5015 c 7.549,0.1507 39.818,-13.9538 49.606,-29.6158 16.126,-25.8 37.761,-75.5197 37.761,-75.5197 0,0 -4.443,38.5 4.442,41.462 8.885,2.9611 17.77,-1.482 32.577,-8.886 -2.961,9.626 -32.827,25.527 -30.355,33.3186 2.326,5.6446 43.683,-2.9616 54.789,-3.702 -9.626,6.6635 -57.891,14.4895 -59.973,27.3946 -1.621,10.0471 31.097,10.3655 41.463,15.5482 -13.327,1.4808 -45.067,-1.9883 -54.049,8.8848 -5.085,6.156 33.317,44.4236 27.394,44.4236 -5.923,0 -31.761,-36.4172 -42.942,-28.1349 -8.81,6.52558 -2.221,30.3561 -3.702,42.2025 C 578.988,20.73 569.423,-9.30668 560.478,-9.62616 548.692,-10.0471 529.382,23.6915 520.497,30.355 c 5.183,-10.3654 16.711,-45.4475 12.587,-50.3467 -5.88,-8.0399 -46.645,-1.4807 -59.973,8.8848 10.367,-17.0291 46.707,-27.556 55.53,-27.3946 z"
         transform="matrix(0.977117,-0.06833983,0.05633391,0.805457,22.63732,19.91927)"
         id="path874"
         style="fill:#ffffff;fill-opacity:1;fill-rule:evenodd;stroke:#000000;stroke-width:1pt;stroke-linecap:butt;stroke-linejoin:miter;stroke-opacity:1" />
      <path
         d="m 528.641,-38.5015 c 7.549,0.1507 39.818,-13.9538 49.606,-29.6158 16.126,-25.8 37.761,-75.5197 37.761,-75.5197 0,0 -4.443,38.5 4.442,41.462 8.885,2.9611 17.77,-1.482 32.577,-8.886 -2.961,9.626 -32.827,25.527 -30.355,33.3186 2.326,5.6446 43.683,-2.9616 54.789,-3.702 -9.626,6.6635 -57.891,14.4895 -59.973,27.3946 -1.621,10.0471 31.097,10.3655 41.463,15.5482 -13.327,1.4808 -45.067,-1.9883 -54.049,8.8848 -5.085,6.156 33.317,44.4236 27.394,44.4236 -5.923,0 -31.761,-36.4172 -42.942,-28.1349 -8.81,6.52558 -2.221,30.3561 -3.702,42.2025 C 578.988,20.73 569.423,-9.30668 560.478,-9.62616 548.692,-10.0471 529.382,23.6915 520.497,30.355 c 5.183,-10.3654 16.711,-45.4475 12.587,-50.3467 -5.88,-8.0399 -46.645,-1.4807 -59.973,8.8848 10.367,-17.0291 46.707,-27.556 55.53,-27.3946 z"
         transform="matrix(-0.977117,-0.06833983,-0.05633391,0.805457,626.5057,24.10754)"
         id="path875"
         style="fill:#ffffff;fill-opacity:1;fill-rule:evenodd;stroke:#000000;stroke-width:1pt;stroke-linecap:butt;stroke-linejoin:miter;stroke-opacity:1" />
      <path
         d="m 546.541,-30.3388 c 7.606,-1.682 38.078,-6.6925 47.866,-22.3546 16.126,-25.7999 8.658,-64.0086 14.717,-88.5066 6.868,22.339 2.441,36.063 11.326,39.025 8.885,2.9611 11.842,-5.425 26.649,-12.829 -2.961,9.626 -26.899,29.47 -24.427,37.2616 2.326,5.6446 43.683,-2.9616 54.789,-3.702 -9.626,6.6635 -57.891,14.4895 -59.973,27.3946 -1.621,10.0471 31.097,10.3655 41.463,15.5482 -13.327,1.4808 -45.067,-1.9883 -54.049,8.8848 -5.085,6.156 33.317,44.4236 27.394,44.4236 -5.923,0 -31.761,-36.4172 -42.942,-28.1349 -8.81,6.5256 -2.221,30.3561 -3.702,42.2025 C 578.988,20.73 569.423,-9.30663 560.478,-9.62616 548.692,-10.0471 529.382,23.6915 520.497,30.355 c 5.183,-10.3654 16.711,-45.4475 12.587,-50.3467 -5.88,-8.0399 -18.554,-4.7794 -32.821,-12.8098 23.563,-3.5764 37.863,5.6836 46.278,2.4627 z"
         transform="matrix(0.522091,0.718307,0.46422,-0.548939,417.8989,-685.7787)"
         id="path876"
         style="fill:#ffffff;fill-opacity:1;fill-rule:evenodd;stroke:#000000;stroke-width:1pt;stroke-linecap:butt;stroke-linejoin:miter;stroke-opacity:1" />
      <path
         d="m 546.541,-30.3388 c 7.606,-1.682 38.078,-6.6925 47.866,-22.3546 16.126,-25.7999 8.658,-64.0086 14.717,-88.5066 6.868,22.339 2.441,36.063 11.326,39.025 8.885,2.9611 11.842,-5.425 26.649,-12.829 -2.961,9.626 -26.899,29.47 -24.427,37.2616 2.326,5.6446 43.683,-2.9616 54.789,-3.702 -9.626,6.6635 -57.891,14.4895 -59.973,27.3946 -1.621,10.0471 31.097,10.3655 41.463,15.5482 -13.327,1.4808 -45.067,-1.9883 -54.049,8.8848 -5.085,6.156 33.317,44.4236 27.394,44.4236 -5.923,0 -31.761,-36.4172 -42.942,-28.1349 -8.81,6.5256 -2.221,30.3561 -3.702,42.2025 C 578.988,20.73 569.423,-9.30663 560.478,-9.62616 548.692,-10.0471 529.382,23.6915 520.497,30.355 c 5.183,-10.3654 16.711,-45.4475 12.587,-50.3467 -5.88,-8.0399 -18.554,-4.7794 -32.821,-12.8098 23.563,-3.5764 37.863,5.6836 46.278,2.4627 z"
         transform="matrix(-0.522091,0.718307,-0.46422,-0.548939,242.9409,-664.8372)"
         id="path877"
         style="fill:#ffffff;fill-opacity:1;fill-rule:evenodd;stroke:#000000;stroke-width:1pt;stroke-linecap:butt;stroke-linejoin:miter;stroke-opacity:1" />
    </g>
  </g>
  <metadata
     id="metadata9086">
    <rdf:RDF>
      <cc:Work
         rdf:about="">
        <dc:title></dc:title>
        <dc:description />
        <dc:subject>
          <rdf:Bag>
            <rdf:li>oceania</rdf:li>
            <rdf:li>flags</rdf:li>
            <rdf:li>sign</rdf:li>
            <rdf:li>signs_and_symbols</rdf:li>
            <rdf:li />
            <rdf:li>australia</rdf:li>
          </rdf:Bag>
        </dc:subject>
        <dc:publisher>
          <cc:Agent
             rdf:about="http://www.openclipart.org">
            <dc:title>Caleb Moore</dc:title>
          </cc:Agent>
        </dc:publisher>
        <dc:creator>
          <cc:Agent
             rdf:about="">
            <dc:title>Caleb Moore</dc:title>
          </cc:Agent>
        </dc:creator>
        <dc:rights>
          <cc:Agent
             rdf:about="">
            <dc:title>Caleb Moore</dc:title>
          </cc:Agent>
        </dc:rights>
        <dc:date />
        <dc:format>image/svg+xml</dc:format>
        <dc:type
           rdf:resource="http://purl.org/dc/dcmitype/StillImage" />
        <cc:license
           rdf:resource="http://web.resource.org/cc/PublicDomain">
          <dc:date />
        </cc:license>
        <dc:language>en</dc:language>
      </cc:Work>
      <cc:License
         rdf:about="http://web.resource.org/cc/PublicDomain">
        <cc:permits
           rdf:resource="http://web.resource.org/cc/Reproduction" />
        <cc:permits
           rdf:resource="http://web.resource.org/cc/Distribution" />
        <cc:permits
           rdf:resource="http://web.resource.org/cc/DerivativeWorks" />
      </cc:License>
    </rdf:RDF>
  </metadata>
</svg>
