<?xml version="1.0" encoding="UTF-8"?>
<svg xmlns="http://www.w3.org/2000/svg" width="1200" height="600">
<clipPath id="c">
<path d="M0,0V150H700V300H600zM600,0H300V350H0V300z"/>
</clipPath>
<rect width="1200" height="600" fill="#002b7f"/>
<path d="M0,0 600,300M600,0 0,300" stroke="#fff" stroke-width="60"/>
<path d="M0,0 600,300M600,0 0,300" stroke="#ce1126" stroke-width="40" clip-path="url(#c)"/>
<path d="M300,0V350M0,150H700" stroke="#fff" stroke-width="100"/>
<path d="M300,0V350M0,150H700" stroke="#ce1126" stroke-width="60"/>
<path d="M0,300H600V0H800V400H0z" fill="#002b7f"/>
<circle cx="900" cy="300" r="128.572" fill="#fff"/>
<path fill="#000" d="m947.428,358.455c-2.05585,1.32665-4.14451,2.79864-3.95822,5.51325-2.14173-2.20405-2.75209-5.36187-1.55502-8.19918-2.67239,0.35897-3.99228,2.67744-4.52368,5.08914-0.64871-2.80019-1.87676-7.37374,1.83774-8.4819-0.49362-2.39349-2.82768,1.23363-2.98178,2.50998-1.12864,4.59117-1.03109-0.84309-1.25917-2.79271-0.17366-1.85457,1.04449-3.47961,2.54457-4.24096,1.82398-3.62047,6.52929-2.36428,9.7542-2.12048,2.34444,0.28815,5.7304-0.51482,5.29173-3.53854,0.28442-4.07994,0.0922-10.059-4.72626-11.3048-3.23962-1.17927-3.47735,1.18646-2.88767,3.84063,0.66629,2.84892-0.57591,1.91157-2.34285,1.53125-1.68338,0.0802,0.49888,2.97924-1.37103,4.03565-0.73325,1.18598-3.73512-2.40479-3.85948-0.50153-0.32438,2.0902-1.38374,5.13935-4.09959,4.24096-0.84801,1.70682-1.08252,3.78102-2.40321,5.37188-2.29481,3.42857-6.14897,5.19007-9.7542,6.64416-3.23053,0.13421-3.98215,3.83332-3.81685,6.5028-1.32505-2.60899-3.69416-6.2296-1.13093-8.76464-2.44182,0.65564-3.79177,3.21234-2.86704,5.65796,1.09871,3.46921-1.93977-1.17144-2.6462-2.40656-1.51805-1.29808,0.61256-4.97352-0.70683-4.66505-1.90809,1.24373-1.79566,3.67292-1.97911,5.79596-0.84747-2.52885-2.98303-6.23369-0.14136-8.19918,0.0794-4.4819,5.44487-5.09988,8.90601-4.94778,3.0687,0.77836,3.81018-2.94512,5.79597-4.52369,1.58735-2.70927,4.34537-4.72147,5.65461-7.49234,0.51109-4.13232-5.0369-4.87009-6.78554-7.91645-1.59306-1.04-1.02572-4.34396-2.96866-4.24095-5.10438-0.11448-10.1529,1.24038-14.8433,2.96866-3.21132,1.36181-6.9525-0.53455-10.0369,0.4241,1.10034,1.70241-1.92501,5.51397-2.4032,2.12048-1.01358-1.09164-0.8789,5.11218-2.54458,2.26183-2.24821-0.1982,0.4926,2.73409-1.02398,4.07106-0.25774,2.13617-2.99389-2.49795-3.49969-0.39555,0.55386,1.90082-0.61417,5.71354-2.40322,2.82729-2.5611-1.52773-0.92579,1.36014-1.69189,2.81386-1.5271,3.88544-1.08409,0.41467-2.83178-0.97611,0.71246,1.13685,0.0978,5.18933-1.27229,3.53412-2.31945-0.2955-2.10279,0.71025-1.27229,2.40322,0.0373,3.92464-1.46875,0.80076-3.11004,1.83774,1.60716,2.10168-0.5013,3.53566-2.26184,2.12048-3.36226,0.56606-5.16072,4.24181-5.51324,7.49236-2.27796,3.35444-6.72445,5.03401-10.6024,3.67549-1.73657,1.51573-1.58014,4.69119-4.24095,5.37187-3.06196,1.6533-1.71808-0.39246-1.69639-2.54457,0.35477-2.5962-1.87262-2.04477-2.99201-0.40074-1.50939,1.26815-2.1405,5.11656-2.94084,1.26239-0.82496-1.70616-0.004-3.66334,0.41962-5.1026-0.68318-1.91606-2.39758,2.04299-2.66801,3.19761-0.46265,1.8647-1.53071-3.38458-1.14885-4.46989,1.69076-2.84823,2.47903-7.38848,6.36142-8.34056,3.58596-0.17856,7.25344,0.1205,10.8851,0,1.39627-3.55665,2.71528-7.13474,3.44498-10.8482,0.58674-3.18886,3.29528-5.65839,2.63373-9.0843-0.0896-1.81417-3.08052,2.93675-2.12047-1.55502-0.15639-1.12939-4.79133,4.88126-2.90658,0.93087,0.79461-1.48719,0.93373-4.91038-0.46318-1.85686-1.83198,2.41053-4.9972,2.84557-7.79809,3.18784,2.12879-1.22173,5.1974-3.15791,4.94778-5.51325-1.28395,1.20164-4.11103,5.29121-3.88525,1.26896-0.35135-2.36392-0.95991-5.45452-1.34526-7.34765-2.56814,0.73665-5.17719,0.19425-7.77509-0.28273,1.38321-0.66747,3.65046-3.86567,0.84819-3.81687-2.59436,0.84234-3.34344-1.13847-5.63883-0.32763-1.39073-1.42073-3.97678-0.81195-5.95312-0.37919,0.94939-2.91892-2.66726-1.80165-2.68593,0.28273-1.53332,1.31657-1.41868,4.0489-3.81686,4.52369-1.03399,0.51363-5.42845,2.2037-4.24302,0.89771,1.82046-0.75954,2.63548-5.13958,0.18519-4.01898-1.78919,1.39257-2.53653,3.2705-2.16223,5.52447-2.02234-1.93542-3.86639-4.97307-2.12049-7.63371-1.92299,0.84115-3.26306,2.39751-4.24095,4.24095-0.64761-3.19079-1.86609-7.22207,0.70682-9.7542-2.33725,0.72771-2.77908,3.8404-3.67549,5.93734-0.0218-3.25361-1.48191-8.1247,1.97911-10.0369,2.07841-0.79511,2.83093-3.59751,5.08915-4.52368,3.06247-2.53092,7.64836-1.94182,10.7438,0.28272,1.85418,0.76564,3.61947,0.90682,5.65461,0.70684,4.18669-0.20603,8.57819,0.21783,12.4401,1.97911,0.26724-1.37339,3.68361-3.71626,0.98955-3.81687-3.09721-0.63013,0.51426-2.52622,0.84819-4.24095,1.47951-2.43738-0.30053-4.95966,0.28273-7.49236,0.77682-2.59877,4.2063-2.90619,5.51324-5.08914,0.90317-2.41542-2.21716-0.32658-3.39277-0.42409-1.97935,1.18692-5.12389-0.82082-3.25139-2.96867,0.063-2.11503-1.3504-5.68679-3.95823-4.52369-3.67171,0.37259-8.23089-0.44356-9.3301-4.52368-0.62469-2.12192,1.08006-5.65252,3.53413-3.6755,2.32911,1.44185,3.76977,4.4449,6.9269,3.6755,1.96825-0.11604,3.87498-0.52618,5.79597-0.98956-1.46994-1.44574-3.23943-3.01208-5.37188-1.83775-3.28561,0.79826-5.44632-2.62215-4.52369-5.51323-0.0662-1.83668,0.16967-5.46672,2.96867-4.38233,2.45004-0.27587-2.61395-1.15305-2.40321-2.68594,0.50248-2.74767,4.36871-1.84249,6.22007-3.2514,3.58781-1.61719,6.28029-5.77055,10.7438-5.23051,2.21958-2.1491,5.80503-2.08372,8.76463-2.26184-0.46388-2.3082,0.44178-4.69391,1.69639-6.64416,1.27689,1.21207,2.39561,4.99096,4.09959,3.95822,1.88006-1.36103-1.86192-2.84146,1.55502-3.2514,2.66276-0.72119,4.55935,2.01284,4.66504,4.38233,1.82676-0.0866,3.69545,1.19924,3.81687,3.11003,2.33663-2.62766,6.17373-1.99985,9.04736-0.70683-0.76123,0.81475-2.2359,5.32146-0.56546,2.96867,1.1822-1.82045,5.68028-1.29089,4.52369,1.27229-0.52164,3.34455,1.61594-0.76091,3.37932,0.70235,2.87839-0.13302-0.75968,1.84838,0.5789,3.25587,1.7958,1.15119,1.88131,3.91563,4.24096,4.66505,1.90393,0.78576,4.29489,1.41634,1.55502,3.2514-2.10128,1.23424-3.08853,1.42469-0.56547,3.11004,2.69377,2.48135,0.13966,7.1196,3.81687,8.906,1.23373,1.3979,4.81621,1.04692,2.12047,3.11003-1.62498,1.24043-2.77284,1.72495-1.5595,3.94479,0.1285,1.55524,3.70919,3.21988,2.04067,4.04053-1.67598,0.60951-3.69871,1.49958-5.28758,0.35522-1.6421,2.95103,2.13598,4.64039,4.52656,4.73622,12.2001-2.08724,24.526-4.74957,36.7479-7.38577,6.05443-1.47899,12.8594-0.31314,17.4473,4.19225,3.1902,2.83454,8.3193,0.15293,8.37017-3.94626,0.89775-4.94593-4.5527-7.94907-8.872-7.45023-10.026-0.9679-20.1305-0.88461-30.0883-2.44497-5.92495-1.24473-11.1837-5.83491-11.9596-12.0164-1.3226-6.50087,1.71959-14.1708,8.42543-16.2566,6.60053-2.6625,14.1431-2.08912,20.498,0.98955,4.36706,0.72751,8.26492-1.67321,12.1574-3.2514,4.41171-1.50423,9.2747,0.51697,11.7333,4.38233,2.5031-1.5459,5.63861-0.79318,8.19918,0.28272-2.09002,0.95753-4.67232,1.73914-5.93734,3.6755,1.56605,1.74686,3.23363,3.6411-0.28273,3.39276-2.06005,0.43403-4.43768,0.71931-5.79596,2.54458-5.93477,0.0566-12.6036-0.13004-17.2466-4.24096-3.51546,0.12404-6.68852-1.48996-9.89556-2.54457-4.93831-0.75504-12.1132-0.47451-13.8538,5.23051-1.42306,3.68078-0.5075,8.29224,3.2514,10.1783,7.44212,3.658,16.1045,2.65948,24.1734,3.2514,7.61299,0.49738,16.3249,0.77535,22.1943,6.36143,4.33887,4.24014,3.89067,11.4114,0.0623,15.8305-1.95103,2.3694-4.33085,4.38938-6.98917,5.93969,1.80056,4.92871,5.46081,9.89113,3.53413,15.2674-0.0613,2.62532-3.51749,3.8082-2.96867,6.5028-0.26041,3.79736-1.7986,7.77244-5.08915,9.89556,3.13418,1.56379,1.6488,1.97139-0.24011,3.61155-0.80659,1.17225,3.08426,0.94864,3.7103,2.56589,2.99189,2.06053-1.00513,0.91528-2.1979,2.02174,0.80889,0.31074,2.95144,5.38654-0.14136,4.24094-2.86798-0.15046-0.47795,2.58046-1.41366,4.0996-0.89766,2.98474-3.95387,5.33546-3.95823,8.76464-0.65253,3.57136-3.08526,8.12765-7.35975,7.20962-2.00282-0.52168-3.53882,2.07156-5.78721,1.83774z"/>
<g fill="#ce1126">
<path d="m968.491,292.296c14.1365-8.34054,12.8642-20.7807,1.13093-25.0216-8.76465-2.82731-17.3879-2.12048-26.1526-2.82731-11.7333-0.42409-16.5397-3.11003-17.9534-7.91645-0.8482-10.461,5.79596-12.8642,16.1156-11.4506,2.68593,1.55502,5.6546,2.40322,9.04736,2.54458,2.96867,2.68594,7.77509,4.38232,16.6811,4.09958,1.83774-2.12047,4.80642-2.26183,7.49236-2.68593-0.70682-0.84819-1.27229-1.69638-1.97911-2.54457,0.56545-1.27228,2.26184-2.40321,4.94778-3.6755-3.11004-1.13092-4.94778-0.42409-6.64416,0.56546-3.67551-5.6546-8.76465-6.64416-15.4088-2.68593-2.8273,1.13091-5.65461,1.69638-8.34055,1.41365-4.80641-2.54458-9.61283-3.11003-14.4192-2.54458-9.89556,1.41366-14.4192,6.5028-13.8538,15.2674,0.56546,7.91645,5.51324,12.5815,14.9847,13.8538,9.61283,0.56546,19.2257,1.27229,28.8385,1.97911,12.8642,1.41365,6.64416,18.9429-2.54458,12.1574-5.51324-5.08914-10.8851-4.80642-16.3984-3.95822-6.92689,1.55502-13.8538,2.96867-20.7807,4.52369-5.23052,0.98955-10.461,1.97911-15.8329,2.96867-5.37188-0.56547-7.20962-2.68594-5.23051-6.36144,0.98955,1.13092,2.82729,1.13092,5.23051,0-2.40322-2.40321-3.2514-4.80641-2.68595-7.20962,0.8482,1.41365,1.83775-0.28273,2.68595-1.41366-2.82731-0.84818-4.52369-2.54457-5.23051-4.94778,0.42409-4.09958-1.27229-6.64416-5.23051-7.77507,2.54457-0.14137,4.38231-1.13093,5.51324-2.68595-2.68595-1.13092-5.08915-2.26184-5.51324-4.80641-1.83776-1.27229-2.26185-2.68593-1.13093-4.09959-2.54457-0.84819-3.53412,0.14137-3.11003,2.96866-0.98956-1.83774-1.41365-3.67549-0.98956-5.51323-2.26184-1.55502-3.95822,0-5.37187,2.8273-0.4241-1.83774-0.14137-3.67549,0.84819-5.51325-4.80642-2.12047-6.9269-0.28273-8.90601,2.12049,0.70683-2.96867-0.42409-4.38233-3.53413-4.38233-0.56545-3.81685-2.26184-5.2305-4.94778-3.81685,1.27229,1.13091,0.70682,2.4032-1.69638,3.53413-0.98956-1.41366-1.97911-2.82731-3.11003-4.0996-1.27229,1.97912-1.27229,3.95823-0.98955,6.07871-4.94778,0-8.05782,0.70683-9.18874,2.12047-2.12048,0-4.24096,0.4241-6.36144,2.26185-1.41365,1.41365-3.11003,2.4032-5.08914,3.39276-1.55502,0.4241-3.11004,0.84819-4.66505,1.27229-1.13093,0.98955-0.14137,1.69638,2.96867,3.11004,0.56545,0.84818-0.70684,1.555-2.40322,1.13091-1.41364-0.56546-1.555,1.69638-1.69638,3.81687-0.28273,2.96866,0.14138,5.51323,4.66505,4.8064,3.2514-1.69638,4.24096,3.39278,7.63373,2.40322-5.08915,1.41365-9.89557,2.54456-12.5815,1.13092-4.66505-5.23052-6.07869-4.24096-6.07869-0.56547,0.84818,3.11004,2.96866,5.37189,10.8851,4.24096,1.97911,1.83775,2.82731,3.81686,2.40321,5.79597-0.98956,1.41365-0.56546,2.12048,1.69638,2.12048,1.41366-0.28274,2.8273-0.70683,4.09959-0.98956,1.13092,0,1.41365,0.8482,0.56547,2.68594-1.27229,0.98955-2.54458,1.83775-3.81687,2.8273-2.12047,0.8482-1.69638,3.39276-0.84819,6.07871-0.4241,2.54457-1.41365,4.52368-2.8273,6.0787,1.13092,0.70682,2.12047,0.84819,3.11003,0.56546-1.13092,1.69638-2.26185,3.39276-3.39276,4.94778-5.23051-2.40321-10.6024-2.26184-15.9743-1.83775-0.98956-0.42409-1.83774-0.84818-2.8273-1.13092-5.37188-3.39277-9.47146-1.41366-13.0056,2.68594-1.13091,1.55502-1.13091,2.96867,0,4.52369,0.14138,1.97911,0.28274,4.09958,4.0996,4.66505,0.28273,1.83774,0.98956,3.39276,5.08914,1.97911,0.28273,1.69638,1.55502,2.26184,3.81686,1.69638,1.27229-1.13092,2.12048-2.40321,2.54457-3.95823,2.40321-0.42409,3.39277,0,2.96868,1.41365,2.96867-0.56545,4.66505-0.28273,5.37187,0.56547,1.55502-0.56547,2.54458-0.4241,2.68594,0.56546,4.24095-0.56546,4.09958,0.14136,4.80642,0.56545,0.42409,1.13093,0,2.12049-1.41366,3.2514,2.54457,0.56547,4.80642,0.70684,6.92689-0.28272,0.56546,3.11003,1.13093,6.0787,1.69639,9.18873,1.13092-0.98956,2.4032-2.12048,3.53412-4.09959,0.4241,3.39276-0.56545,5.23051-2.54456,6.36143,3.11002-0.42409,4.94778-2.68594,6.22006-5.93734,0.28272,1.97912,0.56546,3.81687,0,5.37189,1.13092-0.98956,1.69638-2.12049,1.55501-3.39277,0.70683,1.27228,1.13093,2.68593,1.13093,3.95822,1.55501-1.27229,1.27229-2.4032,1.41365-3.67549,0.56546,2.68593,1.13091,5.37188,0.28273,8.05782-1.83775,3.11003-2.68594,6.07869-3.11004,8.906-0.84818,2.54458-1.83774,5.08914-2.68594,7.77508h-8.906c-3.53413-0.70683-5.51324,1.41366-6.64416,4.66506-1.13093,1.55501-0.56546,2.54456,1.97911,2.82729,0,0.70683,0.14136,1.27229,0.56547,1.55502,0.42409,1.83776,2.26184,1.69638,4.09958,1.41365,2.4032,1.69638,4.38232,1.41366,6.07871-0.84818,4.24095,1.27229,7.63371,0.14136,10.3196-3.2514,0.70682-3.53413,1.69638-5.65461,2.96867-6.07871,1.69638-2.26184,3.39276-1.97911,5.08915-1.13092,0.42409-0.70682,0.28272-1.27228-0.56546-1.97911,0.98955-1.69638,1.97911-1.83775,2.96866-0.56546,0.70683-1.55502,0.14136-2.68594-1.13092-3.53413,1.97911-1.13092,3.2514-1.27229,3.95822-0.56546,0.56546-0.98955,0.4241-2.54457-0.28272-4.52368,1.27228,0.42409,2.4032,1.13091,2.68594,2.82729,0.98955-1.55501,0.98955-2.96867,0-4.09958,1.41364-0.70683,2.82729-0.28273,4.24095,0.98955,0.70683-1.41364,0.70683-2.96866,0-4.38231,1.55501,0.14136,2.96867,0.28273,3.81685,1.41365,0.8482-1.83776,0.28274-3.11003-0.56545-4.24096,2.12047-0.28273,3.11003-0.28273,3.11003,0,1.13092-1.41365,0-1.97911-0.56546-2.68594,1.97911-0.28273,3.11004,0.28274,3.39277,1.41365,1.41365-1.55502,1.27227-2.54457-0.56547-3.39276,1.69638-0.14137,3.39276-0.14137,5.23052-0.28273,3.95822,0.8482,6.07869,0.28273,8.0578-0.56546,4.52369-1.69638,9.33011-2.8273,14.9847-2.40321,0.56546,2.82731,2.12047,5.23051,4.94778,7.20963,4.66504,2.68593,5.23051,5.51324,1.97911,8.48191-2.68594,3.2514-5.23051,6.5028-7.77509,9.75419-6.5028-0.4241-10.0369,0.70683-10.6024,3.2514-0.4241,1.55502,0.42409,2.40321,2.54457,2.54457-0.14137,2.54458,3.95823,3.39276,5.23051,1.13092,0.56546,1.55502,1.41365,2.96868,3.39276,2.54457,1.27229,0.70683,2.26185,0,3.2514-0.84818,3.81686-0.98956,6.9269-3.6755,9.18874-8.62328-0.14137-2.12048,0.70682-2.8273,2.68594-2.26184,1.69638-1.13092,1.83775-3.2514,1.97911-5.23051,1.69638,0.56545,3.11003,1.13092,3.95822,1.69638,1.27229-1.69638,0.70683-2.82731,0-3.95822,1.97911-0.56547,2.82731-0.28273,3.53413,0,0-1.83775-0.14137-3.81687-0.28273-5.79598,5.65461-0.70682,9.89556,1.27229,9.18874,12.4401,0,3.81686-3.53413,3.95822-7.49236,3.67549-2.82729-0.56546-5.6546-0.70682-7.49235,1.41365-0.14136,1.27229-0.14136,2.54457,1.69638,3.81686,0,2.54458,0.14137,2.40321,2.40321,3.67549,1.13092,2.68594,1.41365,2.26185,4.24096,2.68594,2.54456-0.14136,3.95822-1.13092,5.23051-2.12047,7.20962,1.97911,7.63372-5.08915,8.906-9.7542,0.98956-1.55501,1.97912-3.11003,2.96867-4.66505,0.42409-1.41365,0.70683-2.82731-0.28273-4.24096,1.13092-1.13091,2.26184-1.55502,3.39276-1.13091,0.42409-2.26185-0.84818-2.96867-2.54458-3.2514,1.27229-1.13093,2.68595-1.69638,3.95823-1.69638-1.55501-1.69638-3.39276-2.26185-5.2305-1.97911,0.84818-1.55502,1.69638-2.96867,2.96867-3.2514-0.98956-1.13093-1.97912-1.41366-3.2514-1.13093,5.23051-2.68594,6.64416-7.20963,6.64416-12.4401,2.8273-2.68593,4.09958-6.22005,2.96866-11.1678-1.27228-2.96868-2.54457-5.93735-3.81686-8.76465z"/>
<path d="m942.48,356.475c-0.84818,2.12049-0.70682,4.0996,0.56547,5.79598,0.14136-1.27229,1.41364-2.54458,3.39276-3.81687-1.97912,0.14138-3.39276-0.56546-3.95823-1.97911z"/>
<path d="m939.229,353.083c-1.83774,0.56545-2.26184,2.40321-1.69638,5.37187,0.42409-1.41364,1.55502-2.54457,3.53413-3.11002-1.69638-0.28274-2.4032-0.98956-1.83775-2.26185z"/>
<path d="m937.532,348.7c-1.97911,0.70684-1.97911,3.11004-1.69638,5.65462,0.42409-1.41366,1.13092-2.82731,2.68594-3.53413-0.84819-0.56547-1.13092-1.27229-0.98956-2.12049z"/>
<path d="m916.469,354.638c-1.27228,0.98956-1.13091,2.8273,0.4241,5.51323,0-1.83774,0.84819-3.2514,2.26184-4.09958-1.13092-0.14137-2.12047-0.42409-2.68594-1.41365z"/>
<path d="m910.956,353.365c-0.70682,1.41365-0.14136,3.2514,1.55502,5.23052-0.42409-1.41366,0-2.82731,1.27229-4.38233-0.98956,0.28273-1.83775,0-2.82731-0.84819z"/>
<path d="m907.987,350.679c-1.13091,0.84819-1.13091,2.40321-0.42409,4.52368,0.14136-1.13091,0.70682-2.4032,2.12047-3.53413-0.56545-0.14136-1.13091,0-1.69638-0.98955z"/>
<path d="m847.483,359.161c0.42411,1.27229,0.56547,2.54457,0,4.09959,2.12049-0.4241,3.2514-1.83775,3.81687-3.81686-1.27229,0.42409-2.54458,0.56546-3.81687-0.28273z"/>
<path d="m842.394,357.182c-0.98955,1.27228-1.13092,2.96866-0.14137,5.08915,0.42411-1.13093,1.41366-2.26185,2.82731-3.39277-1.41365,0-2.4032-0.4241-2.68594-1.69638z"/>
<path d="m839.142,354.355c-0.98955,0.56545-0.84819,2.26184-0.28273,4.24096,0.42409-1.6964,1.27229-2.68595,2.26185-3.39278-0.56547-0.14136-1.27229-0.28273-1.97912-0.84818z"/>
<path d="m820.482,313.076c0.98956,1.13093,0.14137,2.4032-0.84818,3.53413,2.96866-0.70682,4.52367-1.69638,4.8064-2.96867-1.27228,0.42409-2.54457,0.28273-3.95822-0.56546z"/>
<path d="m815.11,310.956c-1.41366,1.69638-1.13093,3.67549,0.56546,5.79596,0-1.27229,0.84819-2.68594,2.54457-4.24096-1.41365,0-2.54457-0.42409-3.11003-1.555z"/>
<path d="m810.869,306.432c0.56547,1.55502,1.27229,2.96867,3.39276,3.81685-1.83774,0.8482-3.11003,1.97911-3.95822,3.2514-0.70683-3.39276-0.84819-5.93734,0.56546-7.06825z"/>
<path d="m809.738,301.767c-2.12047,0.56545-2.54456,3.11003-2.26183,6.50279,0.56545-1.83774,1.69638-2.96867,3.11003-3.53412-0.70682-0.98956-0.8482-1.97911-0.8482-2.96867z"/>
</g>
<g fill="#000">
<path d="m869.394,263.033c2.12047,2.96867,3.39276,5.93734,3.81686,8.90601,0-4.24096-1.27229-7.20963-3.81686-8.90601z"/>
<path d="m877.876,253.986c3.2514,3.11004,5.93734,6.07871,7.63372,9.04737-1.41365-4.66504-4.24096-7.35098-7.63372-9.04737z"/>
<path d="m873.635,259.216c3.53414,4.52369,5.79597,9.61283,5.93734,15.5502,1.13092-8.19918-1.83775-12.4401-5.93734-15.5502z"/>
<path d="m871.656,262.044c3.67549,4.52369,5.37187,9.47147,4.38232,14.8433,1.55502-7.35099,0-12.2988-4.38232-14.8433z"/>
<path d="m855.921,245.997c-0.66814,0.0485-1.10027,0.25224-1.81594,0.49079-0.98957,4.09959,4.70741,4.52535,6.96925,2.40488,0.46385-0.41969,0.73385-0.78626,0.88342-1.07975,0.034-0.072,0.0806-0.18032,0.0982-0.24538,0.008-0.0383,0.046-0.11136,0.0491-0.14724,0.001-0.0352-0.0452-0.11436-0.0491-0.14724-0.002-0.0108,0.002-0.0386,0-0.0491-0.012-0.041-0.0293-0.10992-0.0491-0.14724-0.0108-0.0182-0.0362-0.0809-0.0491-0.0982-0.007-0.008-0.0418-0.0408-0.0491-0.0491-0.007-0.008-0.0409-0.0413-0.0491-0.0491-0.0344-0.0305-0.10644-0.0707-0.14724-0.0982-0.0108-0.007-0.0382-0.0426-0.0491-0.0491-0.0338-0.019-0.11028-0.0317-0.14724-0.0491-0.85852-0.38182-2.46221-0.4157-3.2883-0.4908-1.11324-0.18554-1.78707-0.234-2.30673-0.19631zm0.19632,0.49079c1.11636-0.097,2.66497,0.0905,4.31896,0.44171-1.48142,0.52124-4.38738,1.06564-5.20239,1.47237-0.0252,0.0137-0.0779,0.0356-0.0982,0.0491-0.2982-0.29819-0.49986-0.55778-0.58895-0.78527-0.0131-0.0372-0.0413-0.11184-0.0491-0.14722-0.004-0.0232,0.001-0.0758,0-0.0982-0.00061-0.022-0.001-0.077,0-0.0982,0.002-0.0206-0.005-0.0782,0-0.0982,0.008-0.0292,0.0354-0.0708,0.0491-0.0982,0.01-0.0179,0.037-0.0811,0.0491-0.0982,0.006-0.008,0.042-0.0409,0.0491-0.0491,0.0604-0.0635,0.15524-0.14526,0.24539-0.19631,0.0352-0.0186,0.10824-0.0323,0.14724-0.0491,0.2687-0.10872,0.66264-0.20919,1.07975-0.2454zm5.34962,0.83435c-0.14135,1.41364-1.54451,2.13598-5.6441,1.57053,2.12048-0.56546,4.08908-1.00508,5.6441-1.57053z"/>
<path d="m943.187,355.203c0.4241-1.41364,1.27228-2.26184,2.96866-1.83774,4.52369,0.70683,6.9269-0.4241,7.351-3.39277-0.98956,2.26185-3.2514,3.67549-7.91645,2.82731-2.68593-0.42409-2.68593,0.98956-2.40321,2.4032z"/>
<path d="m940.501,351.104c0.14137-1.69638,1.69638-1.97911,3.95822-1.69638,3.95823,0.56545,6.5028-0.28273,8.05782-1.55502-0.70682,1.55502-2.12048,2.8273-7.77508,1.97911-1.83774-0.14137-3.2514,0.14136-4.24096,1.27229z"/>
<path d="m916.61,352.093c0.28272-1.13093,1.555-1.55502,3.53412-1.13093,2.96866,0,4.24095-1.55501,5.08915-3.67549-0.8482,2.12048-2.40322,3.53413-5.65461,3.2514-1.97911-0.8482-3.11004-0.28274-2.96866,1.55502z"/>
<path d="m920.145,346.297c-0.14136,1.13093-0.56546,1.97911-3.11003,1.69638-2.82731,0.4241-5.08915,1.27229-5.79598,3.2514,0.14137-2.68594,1.55502-3.67549,3.95823-3.2514,2.26184-0.14136,3.81686-0.70682,4.94778-1.69638z"/>
<path d="m853.137,356.758c-0.56545-2.4032,0.70683-3.39276,2.82731-3.67549-2.26185-0.14137-4.24096,0.14136-2.82731,3.67549z"/>
<path d="m842.252,354.779c0.56547-1.69638,1.55502-2.82731,3.11004-3.39276,3.11003-0.98955,6.78552-0.98955,10.461-0.56546-3.95823-0.98956-7.49236-1.13093-10.6024-0.14137-1.69638,0.56546-2.68594,1.97911-2.96867,4.09959z"/>
<path d="m856.106,352.234c-3.11003-0.14136-6.22006-0.14136-8.19917,1.27228-2.26185,0.14136-2.12049,1.97912-1.55502,4.24096,0-1.83775,0.14136-3.53413,1.83774-3.67549,1.69639-1.27229,4.66506-1.69638,7.91645-1.83775z"/>
<path d="m946.58,245.221c4.80641-0.56547,8.4819-2.40322,11.8747-4.66506-2.82731,3.11004-6.5028,4.94779-11.8747,4.66506z"/>
<path d="m961.282,243.383c-2.8273-0.28273,4.94778,1.83776,4.94778,1.83776-0.56546-1.13093-2.26184-1.41366-4.94778-1.83776z"/>
<path d="m954.779,248.614c4.52367,1.41364,8.906,2.12047,13.4297,0.56546-4.09959,2.26184-8.4819,2.4032-13.4297-0.56546z"/>
<path d="m958.313,244.09c5.08915,2.12048,10.1783,2.96867,14.8434,0.4241-4.66506,4.52368-9.7542,3.25139-14.8434-0.4241z"/>
<path d="m955.769,243.807c5.08914-2.54457,9.89556-2.68594,14.4192,0.84819-4.24095-4.38231-9.04737-5.23051-14.4192-0.84819z"/>
<path d="m953.648,245.362c5.37188,2.68593,11.4506,3.53413,18.0947,2.12048-6.5028,2.26183-12.5815,1.41365-18.0947-2.12048z"/>
<path d="m899.223,318.024c-0.70684,2.96867-1.97911,3.81686-3.2514,4.38231,2.54456,0.14138,4.09958-0.84818,3.2514-4.38231z"/>
<path d="m937.532,316.328c-5.37187,3.95822-11.1678,4.52369-17.1052,3.81686,7.77509,1.97911,13.7124,1.27228,17.1052-3.81686z"/>
<path d="m941.208,308.977c-2.68593,7.06826-2.96866,13.9952,2.12049,20.6393-6.5028-5.79597-5.93734-12.8642-2.12049-20.6393z"/>
<path d="m865.295,237.446c0.98956,2.4032,0.56547,4.66505-0.42409,7.06826,1.83775-2.96868,2.4032-5.51324,0.42409-7.06826z"/>
<path d="m843.525,257.661c3.39277,1.41365,5.23051,1.41365,5.6546,0-0.28272,1.69638-0.98955,2.96867-5.6546,0z"/>
<path d="m846.776,263.599c3.95822,0.84818,8.19918,1.69638,6.36143,3.11003,3.81686-1.55502,0.28273-2.40321-6.36143-3.11003z"/>
<path d="m811.717,304.312c3.2514-3.53412,7.20962-4.52367,11.592-3.95822-5.37189-1.83774-9.33011-0.56545-11.592,3.95822z"/>
<path d="m815.676,308.553c2.40321-3.67549,5.93734-5.37187,9.75419-6.0787-4.66505-0.14137-8.34054,0.98956-9.75419,6.0787z"/>
<path d="m820.058,310.956c1.41365-3.2514,4.09958-5.08916,7.77507-5.65462-4.09958-1.13092-6.50278,1.13093-7.77507,5.65462z"/>
<path d="m856.106,280.421c-3.6755,4.52369-6.36143,9.3301-8.76464,14.2779,0.84819-5.51325,2.40321-10.8851,8.76464-14.2779z"/>
<path d="m862.892,272.505c-1.13092,2.68594-1.55502,5.23051,0,7.91645-1.97911-2.68594-1.55502-5.23051,0-7.91645z"/>
<path d="m859.64,274.342c0,1.41366-0.70683,2.68594-2.12047,4.0996,2.26184-1.55502,2.96866-2.96867,2.12047-4.0996z"/>
<path d="m855.823,273.777c0.42409,1.55501,0.70682,3.11003-0.14138,4.66505,1.83776-1.55502,1.13093-3.11004,0.14138-4.66505z"/>
<path d="m853.279,273.353c0.42409,1.83775,0.14136,3.67549-0.70682,5.37188,1.97911-1.69639,2.12047-3.53413,0.70682-5.37188z"/>
<path d="m848.897,261.761c-5.08915-1.97912-7.49235-1.69638-7.06826,0.56546-0.98956-3.11004,0.42409-4.24096,7.06826-0.56546z"/>
<path d="m844.373,253.844c2.4032,0.84818,3.67549,1.83775,4.94778,3.11003-0.4241-2.54457-2.12049-3.53412-4.94778-3.11003z"/>
<path d="m843.383,269.819c4.38232-0.56547,8.76463-1.83776,13.0056-3.67551-4.09959,2.40322-8.4819,3.81687-13.0056,3.67551z"/>
<path d="m853.562,260.488c6.78552,3.11004,10.0369,7.06826,5.37187,12.8642,7.06827-6.36143,4.24096-10.461-5.37187-12.8642z"/>
<path d="m880.28,244.514c1.55502-0.98955,3.6755-1.69639,6.22007-1.83775-3.2514-1.13093-5.23051-0.42409-6.22007,1.83775z"/>
<path d="m874.06,249.038c1.27228,2.68593,3.81686,3.53413,7.77508,2.26184-4.09959,2.68594-6.78553,1.97911-7.77508-2.26184z"/>
<path d="m881.835,250.027c-2.40321-2.54456-4.94778-3.81685-7.77508-1.69638,3.11004-3.67549,5.51324-1.41364,7.77508,1.69638z"/>
<path d="m872.222,247.483c3.53412-3.39277,7.63371-2.96867,12.016,1.27228-4.24096-4.66505-8.19918-6.36143-12.016-1.27228z"/>
<path d="m874.342,240.273c-0.70683,2.12047-2.12047,4.38231-5.23051,6.50278,4.52368-1.97911,5.6546-4.09958,5.23051-6.50278z"/>
<path d="m871.232,237.022c-0.98957,2.68593-2.82731,5.37187-5.51324,8.0578,4.8064-2.4032,7.06825-5.08914,5.51324-8.0578z"/>
<path d="m890.741,254.41c2.54457-2.54457,5.37187-0.84819,8.34054,1.41365-3.81685-4.80642-6.64416-5.23051-8.34054-1.41365z"/>
<path d="m890.741,247.766c-2.12049,2.40322-3.39276,4.80642-3.81687,7.06826-1.13091-2.54457,0.14138-4.80642,3.81687-7.06826z"/>
<path d="m890.034,246.352c-3.39277,2.54458-5.65461,4.94778-6.92689,7.35099,0.14136-3.53412,2.54457-5.93734,6.92689-7.35099z"/>
<path d="m890.034,257.52c3.53412,0.70682,6.9269,0.14137,10.461-0.84818-0.98956,1.69638-10.6024,2.96866-10.461,0.84818z"/>
<path d="m891.872,259.499c5.37189,2.54458,8.19918,6.5028,8.48192,12.1574-0.14136-7.91645-2.96867-12.016-8.48192-12.1574z"/>
<path d="m895.264,265.86c1.69638,4.66506,4.52367,9.33011,9.61282,13.5711-6.78553-3.2514-9.61282-7.91644-9.61282-13.5711z"/>
<path d="m882.117,270.95c3.11002,4.09959,4.66504,8.48191,5.6546,13.147,0.28273-7.06826-1.27229-11.7333-5.6546-13.147z"/>
<path d="m881.552,267.274c2.68594,0.84818,4.66505,2.8273,5.65461,6.22007,0-4.80642-1.83774-6.92689-5.65461-6.22007z"/>
<path d="m883.814,255.823c4.8064,4.24096,8.34054,8.76464,10.1783,13.571-1.55502-8.62327-5.23051-12.2988-10.1783-13.571z"/>
<path d="m875.473,257.52c6.36144,4.24096,11.1678,8.48191,14.5606,12.8642-2.54457-4.80641-7.35099-9.04737-14.5606-12.8642z"/>
<path d="m864.164,272.646c4.94778,4.0996,7.91644,9.61283,7.91644,17.1052,1.69638-9.3301-1.55502-14.5606-7.91644-17.1052z"/>
<path d="m894.557,308.27c2.40322,4.94779,2.54458,9.7542-2.4032,14.4192,7.20962-4.09959,6.64416-9.04737,2.4032-14.4192z"/>
<path d="m859.216,314.773c0.56546,2.68593-0.98956,4.09959-2.96867,5.51324,2.68593-0.98955,4.52369-2.4032,2.96867-5.51324z"/>
<path d="m843.525,301.484c-0.56545,2.68593-0.14136,5.51324,2.26184,8.19918-3.81686-1.83775-3.95822-4.80642-2.26184-8.19918z"/>
<path d="m849.745,302.191c-1.55502,3.95823-1.97911,7.91645-1.69638,11.8747-1.13092-4.94778-0.98956-9.04736,1.69638-11.8747z"/>
<path d="m858.651,300.919c-3.2514,6.07871-5.6546,12.016-5.51324,18.0947-1.27228-7.91644,1.27229-13.571,5.51324-18.0947z"/>
<path d="m859.923,312.794c1.83775,4.38232,3.53413,8.76464,9.61283,9.18873,0.28273-3.11003-1.27229-6.22007-3.2514-9.33009,3.2514,2.54457,5.79597,5.51324,5.08915,11.5919-7.63372,0.28273-10.6024-4.52369-11.4506-11.4506z"/>
<path d="m868.688,306.715c0.84819,3.67549,1.97912,7.20962,5.37188,10.461-5.37188-3.53413-5.51325-6.9269-5.37188-10.461z"/>
<path d="m861.054,285.934c-0.98956,7.20962-4.0996,12.5815-8.62329,16.8225,5.79598-2.96867,9.33011-7.91645,8.62329-16.8225z"/>
<path d="m856.813,281.693c-0.56546,3.39276-2.26184,6.92689-5.37188,10.461-1.83774,1.97911-1.83774,5.79598,0,11.4506-0.28273-4.38232-0.42409-8.48191,1.83775-10.7437,3.53413-4.66506,4.66505-8.34056,3.53413-11.1678z"/>
<path d="m861.761,281.835c1.55501,5.51324,2.68594,11.3092,0.42409,17.6706-1.41364,4.09958-1.41364,8.34054,1.97912,13.2883-4.52369-4.09959-4.80642-8.34054-3.2514-12.8642,2.12048-5.93734,1.97911-12.016,0.84819-18.0947z"/>
<path d="m874.342,296.678c-0.70683,3.67549-2.12047,7.63371-0.28273,11.7333-0.4241-3.95822,2.54457-6.92689,5.23051-9.7542-1.83775,4.52369-3.81687,8.906-5.65461,13.2883-2.68593-4.66506-1.83775-9.89556,0.70683-15.2674z"/>
<path d="m864.871,281.835c12.7229,12.7229,1.13093,17.5293-0.14136,30.1108-2.68594-11.1678,10.0369-15.4088,0.14136-30.1108z"/>
<path d="m869.536,269.253c4.80642,7.35099,6.22007,15.8329,4.09959,25.4457,4.24096-12.016,1.13092-19.367-4.09959-25.4457z"/>
<path d="m892.013,270.95c4.09958,4.94778,6.50278,10.0369,6.64416,14.9847,1.13091-5.65461-1.83776-10.6024-6.64416-14.9847z"/>
<path d="m889.186,272.08c1.83775,7.49235,4.80642,13.5711,9.7542,15.9743-5.65461-1.27229-8.48191-7.49236-9.7542-15.9743z"/>
<path d="m888.337,274.908c1.55501,6.5028,2.12048,12.8642-0.14137,19.367,4.80642-6.5028,3.39276-12.8642,0.14137-19.367z"/>
<path d="m876.604,276.887c2.12047,3.39276,3.39276,6.78553,3.81685,10.1783,0.8482-3.67549-0.42409-7.06826-3.81685-10.1783z"/>
<path d="m876.321,287.913c3.39276,5.37187,5.37187,11.1678,6.0787,16.9638,0.84819-7.06825-1.27228-12.8642-6.0787-16.9638z"/>
<path d="m879.431,275.897c6.36144,9.7542,9.18873,19.5084,3.6755,29.404,6.50279-10.461,6.36143-20.3566-3.6755-29.404z"/>
</g>
</svg>