<?xml version="1.0" encoding="UTF-8" standalone="no"?>
<!-- Created with Inkscape (http://www.inkscape.org/) -->

<svg
   xmlns:svg="http://www.w3.org/2000/svg"
   xmlns="http://www.w3.org/2000/svg"
   xmlns:xlink="http://www.w3.org/1999/xlink"
   version="1.0"
   width="1800"
   height="900"
   id="svg1">
  <defs
     id="defs3">
    <linearGradient
       id="linearGradient1108">
      <stop
         id="stop1109"
         style="stop-color:#000000;stop-opacity:1"
         offset="0" />
      <stop
         id="stop1110"
         style="stop-color:#ffffff;stop-opacity:1"
         offset="1" />
    </linearGradient>
    <linearGradient
       id="linearGradient1111"
       xlink:href="#linearGradient1108" />
    <linearGradient
       id="linearGradient1112"
       xlink:href="#linearGradient1108" />
    <linearGradient
       id="linearGradient1113"
       xlink:href="#linearGradient1108" />
    <linearGradient
       id="linearGradient1114"
       xlink:href="#linearGradient1108" />
    <linearGradient
       id="linearGradient1115"
       xlink:href="#linearGradient1108" />
    <linearGradient
       id="linearGradient1116"
       xlink:href="#linearGradient1108" />
    <linearGradient
       id="linearGradient1117"
       xlink:href="#linearGradient1108" />
    <linearGradient
       id="linearGradient1118"
       xlink:href="#linearGradient1108" />
    <linearGradient
       id="linearGradient1119"
       xlink:href="#linearGradient1108" />
    <linearGradient
       id="linearGradient1120"
       xlink:href="#linearGradient1108" />
    <linearGradient
       id="linearGradient1121"
       xlink:href="#linearGradient1108" />
    <linearGradient
       id="linearGradient1122"
       xlink:href="#linearGradient1108" />
    <linearGradient
       id="linearGradient1123"
       xlink:href="#linearGradient1108" />
    <linearGradient
       id="linearGradient1124"
       xlink:href="#linearGradient1108" />
    <linearGradient
       id="linearGradient1125"
       xlink:href="#linearGradient1108" />
    <linearGradient
       id="linearGradient1126"
       xlink:href="#linearGradient1108" />
    <linearGradient
       id="linearGradient1127"
       xlink:href="#linearGradient1108" />
    <linearGradient
       id="linearGradient1128"
       xlink:href="#linearGradient1108" />
    <linearGradient
       id="linearGradient1129"
       xlink:href="#linearGradient1108" />
    <linearGradient
       id="linearGradient1130"
       xlink:href="#linearGradient1108" />
    <linearGradient
       id="linearGradient1131"
       xlink:href="#linearGradient1108" />
    <linearGradient
       id="linearGradient1132"
       xlink:href="#linearGradient1108" />
    <linearGradient
       id="linearGradient1133"
       xlink:href="#linearGradient1108" />
    <linearGradient
       id="linearGradient1134"
       xlink:href="#linearGradient1108" />
    <linearGradient
       id="linearGradient1135"
       xlink:href="#linearGradient1108" />
    <linearGradient
       id="linearGradient1136"
       xlink:href="#linearGradient1108" />
    <linearGradient
       id="linearGradient1137"
       xlink:href="#linearGradient1108" />
    <linearGradient
       id="linearGradient1138"
       xlink:href="#linearGradient1108" />
    <linearGradient
       id="linearGradient1139"
       xlink:href="#linearGradient1108" />
    <linearGradient
       id="linearGradient1140"
       xlink:href="#linearGradient1108" />
    <linearGradient
       id="linearGradient1141"
       xlink:href="#linearGradient1108" />
    <linearGradient
       id="linearGradient1142"
       xlink:href="#linearGradient1108" />
    <linearGradient
       id="linearGradient1143"
       xlink:href="#linearGradient1108" />
    <linearGradient
       id="linearGradient1144"
       xlink:href="#linearGradient1108" />
    <linearGradient
       id="linearGradient1145"
       xlink:href="#linearGradient1108" />
    <linearGradient
       id="linearGradient1146"
       xlink:href="#linearGradient1108" />
    <linearGradient
       id="linearGradient1147"
       xlink:href="#linearGradient1108" />
    <linearGradient
       id="linearGradient1148"
       xlink:href="#linearGradient1108" />
    <linearGradient
       id="linearGradient1149"
       xlink:href="#linearGradient1108" />
    <linearGradient
       id="linearGradient1150"
       xlink:href="#linearGradient1108" />
    <linearGradient
       id="linearGradient1151"
       xlink:href="#linearGradient1108" />
    <linearGradient
       id="linearGradient1152"
       xlink:href="#linearGradient1108" />
    <linearGradient
       id="linearGradient1153"
       xlink:href="#linearGradient1108" />
    <linearGradient
       id="linearGradient1154"
       xlink:href="#linearGradient1108" />
    <linearGradient
       id="linearGradient1155"
       xlink:href="#linearGradient1108" />
    <linearGradient
       id="linearGradient1156"
       xlink:href="#linearGradient1108" />
    <linearGradient
       id="linearGradient1157"
       xlink:href="#linearGradient1108" />
    <linearGradient
       id="linearGradient1158"
       xlink:href="#linearGradient1108" />
    <linearGradient
       id="linearGradient1159"
       xlink:href="#linearGradient1108" />
    <linearGradient
       id="linearGradient1160"
       xlink:href="#linearGradient1108" />
    <linearGradient
       id="linearGradient1161"
       xlink:href="#linearGradient1108" />
    <linearGradient
       id="linearGradient1162"
       xlink:href="#linearGradient1108" />
    <linearGradient
       id="linearGradient1163"
       xlink:href="#linearGradient1108" />
    <linearGradient
       id="linearGradient1164"
       xlink:href="#linearGradient1108" />
    <linearGradient
       id="linearGradient1165"
       xlink:href="#linearGradient1108" />
    <linearGradient
       id="linearGradient1166"
       xlink:href="#linearGradient1108" />
    <linearGradient
       id="linearGradient1167"
       xlink:href="#linearGradient1108" />
    <linearGradient
       id="linearGradient1168"
       xlink:href="#linearGradient1108" />
    <linearGradient
       id="linearGradient1169"
       xlink:href="#linearGradient1108" />
    <linearGradient
       id="linearGradient1170"
       xlink:href="#linearGradient1108" />
    <linearGradient
       id="linearGradient1171"
       xlink:href="#linearGradient1108" />
    <linearGradient
       id="linearGradient1172"
       xlink:href="#linearGradient1108" />
  </defs>
  <rect
     width="1800"
     height="900"
     x="0"
     y="0"
     id="rect1356"
     style="fill:#002664;fill-opacity:1" />
  <path
     d="m 1114.9293,-213.36781 a 65.584076,57.776451 0 1 1 -131.16816,0 65.584076,57.776451 0 1 1 131.16816,0 z"
     transform="matrix(3.0495207,0,0,3.4616179,-1850,1188.5978)"
     id="path3682"
     style="fill:#fed100;fill-opacity:1;fill-rule:nonzero;stroke:none" />
  <rect
     width="900"
     height="449.99954"
     x="6.7741703e-06"
     y="0.00044999999"
     id="rect1359"
     style="fill:#002664;fill-opacity:1" />
  <g
     transform="matrix(0.6,0,0,0.5999994,6.7741704e-6,4.5e-4)"
     id="upper_half">
    <polygon
       points="167.7051,0 625,228.64745 625,0 675,0 750,325 0,300 0,250 332.2949,250 0,83.852549 0,0 0,0 "
       id="upper_left_white"
       style="fill:#ffffff" />
    <use
       transform="matrix(-1,0,0,1,1500,0)"
       id="use1363"
       x="0"
       y="0"
       width="1000"
       height="500"
       xlink:href="#upper_left_white" />
    <path
       d="M 0,0 500,250 388.1966,250 0,55.901699 0,0 z m 1500,0 -500,250 -111.8034,0 500,-250 L 1500,0 z"
       id="upper_red_diagonals"
       style="fill:#ed2939;fill-opacity:1" />
  </g>
  <use
     transform="matrix(-1,0,0,-1,900.00001,450.00045)"
     id="use1366"
     x="0"
     y="0"
     width="1000"
     height="500"
     xlink:href="#upper_half" />
  <path
     d="m 405.00001,4.5e-4 90,0 0,179.99982 405,0 0,89.99991 -405,0 0,179.99982 -90,0 0,-179.99982 -405.0000032258296,0 0,-89.99991 405.0000032258296,0 0,-179.99982 z"
     id="path1368"
     style="fill:#ed2939" />
  <path
     d="m 1372.9458,356.24693 c -1.5225,2.97153 -7.2064,12.19061 -8.4139,13.66062 -4.823,5.90456 -6.02,7.12957 -8.7605,10.8256 -1.505,2.01952 -4.7145,6.24056 -6.6954,9.83509 -4.3295,7.87507 -4.3295,10.7381 -4.3295,10.7381 0,0 -6.1075,3.58753 -6.692,3.83953 -0.5915,0.245 -3.325,2.00202 -7.0909,4.71804 -4.921,3.53854 -2.7545,1.78152 -8.0745,6.30706 -4.5605,3.89554 -8.5365,11.0391 -11.0214,14.36413 -2.954,3.93754 -5.229,9.90159 -5.712,14.75963 -0.588,5.91506 0.1995,7.39207 0.1995,12.31312 0,3.79053 -0.9835,6.98956 -3.1535,6.98956 -1.6695,0 -2.163,0.1995 -3.346,-4.13004 -0.686,-2.52352 -0.7245,-1.93552 -1.176,-7.87507 -0.1015,-1.28101 -0.5915,-5.21855 1.176,-12.21511 2.205,-8.76058 4.753,-12.11361 9.1595,-18.88967 4.4274,-6.76906 19.9814,-25.30873 22.1479,-35.24882 2.1384,-9.87359 3.7379,-20.08668 -3.2515,-30.71628 -5.747,-8.73257 -16.1664,-9.97509 -18.4064,-10.23409 -2.8035,-0.329 -6.4505,-0.87851 -12.145,0.68601 -3.2095,0.88901 -5.3794,1.57501 -9.2154,4.03553 -5.1835,3.31803 -7.679,7.13657 -9.254,10.9271 -1.477,3.54554 -2.3135,6.38406 -1.477,9.06508 0.5635,1.81302 1.477,2.16652 1.477,2.16652 0,0 -3.0135,12.01211 -1.967,14.37463 1.0815,2.40803 3.36,2.56553 4.4275,2.75453 1.155,0.203 0.1715,-7.21007 6.559,-11.78811 0,0 3.605,-0.3535 7.2239,-1.44201 1.5365,-0.469 5.054,-2.62502 5.768,-3.28303 1.932,-1.76752 4.998,-5.40055 7.224,-4.94554 1.2565,0.252 2.373,0.609 3.6435,1.86901 2.6319,3.02053 1.9914,6.62206 1.6729,10.8186 -0.21,2.67402 -2.4884,8.62408 -12.3024,19.00867 -11.8124,12.50211 -16.2434,16.72665 -24.3179,27.15675 -5.8309,7.54256 -7.9344,10.60859 -13.4854,20.87769 -1.834,3.39503 -6.7935,17.32515 -4.921,29.03976 2.842,17.75566 11.382,26.17323 16.4989,30.70927 5.131,4.54305 17.857,9.96809 17.857,9.96809 0,0 5.8064,3.31103 16.7334,4.90005 17.7204,2.55852 20.0444,1.73601 27.8948,0.6125 7.616,-1.08151 25.0634,-4.84404 30.9714,-6.81456 1.267,-0.4305 2.0299,2.95403 8.2669,6.59406 5.9045,3.44403 6.5975,3.81504 14.5704,3.64354 8.9565,-0.19951 10.507,-1.30552 14.469,-2.56203 2.044,-0.651 3.2514,-1.08151 5.1204,-1.47351 0.9205,-0.196 3.2445,-0.3955 4.529,-0.78751 1.9285,-0.6055 -0.238,-1.42801 -1.2845,-1.57501 -3.9375,-0.59151 -5.1905,-2.06852 -5.607,-2.66003 0,0 -0.6894,-0.588 0.392,-0.8855 0,0 2.4255,0 8.6625,-1.96702 3.7415,-1.17951 6.951,-2.52352 9.6494,-3.83954 5.6315,-2.75452 11.2315,-6.51006 13.482,-8.16907 2.66,-1.97052 5.4144,-3.93754 11.3224,-8.85858 5.9185,-4.93855 7.1855,-7.48307 8.6625,-9.55159 0.9835,-1.38951 1.4035,-3.11502 0.294,-2.55852 -0.5915,0.2975 -1.477,0.68951 -2.261,1.08151 0,0 -1.6765,0.0875 -0.693,-1.27751 0.2345,-0.336 1.2565,-1.10601 1.8725,-1.50502 0,0 4.144,-3.75203 7.0874,-7.16106 3.2375,-3.76253 5.215,-6.49606 6.692,-8.95658 0,0 0.7,-1.47701 -1.1795,-0.49351 -2.0685,1.08501 -2.4605,1.67652 -2.4605,1.67652 0,0 -1.477,0.196 -0.4935,-2.95403 1.12,-3.55603 1.1795,-2.75452 2.1665,-4.82304 0.945,-1.99152 3.248,-5.71205 4.921,-7.97307 1.7745,-2.40102 3.444,-4.33304 5.5125,-8.07108 2.0544,-3.72053 0.161,-2.74052 -2.1665,-1.78501 -1.869,0.77701 -3.4335,1.27051 -4.1335,1.49101 -1.2075,0.38151 -6.5205,2.80003 -7.875,3.34603 -3.6189,1.46302 -4.1334,1.69752 -7.5809,3.44403 -4.291,2.17702 -7.0735,3.48253 -8.0675,3.93754 -1.085,0.49 -1.477,1.08151 -4.431,1.28101 -4.0284,0.2695 -3.6434,0.0945 -6.3034,0.0945 -2.555,0 -4.3295,0.336 -6.1005,0 -1.7605,-0.3325 -2.968,0.40601 -0.8855,-2.65652 2.065,-3.05203 1.771,-2.65653 3.248,-4.54304 0.9205,-1.16551 3.9235,-5.40755 3.836,-5.30955 -0.5005,0.567 4.3329,-5.99206 4.039,-6.68156 -0.294,-0.68951 -2.2645,1.18301 -4.529,1.08151 -1.379,0 -3.248,-0.49001 -3.9375,-0.59151 -0.3815,-0.0525 -0.4935,-1.07801 1.0815,-2.55502 1.1235,-1.04651 0.2485,-0.2765 2.66,-2.16652 1.463,-1.14101 2.863,-2.57602 3.8395,-3.54553 1.9669,-1.96702 2.6564,-2.55853 4.8229,-5.31655 3.2235,-4.10204 4.4275,-5.91505 4.4275,-5.91505 0,0 1.393,-1.92502 -0.9835,-1.08501 0,0 -0.392,0.2975 -4.0355,2.17002 -1.687,0.861 -4.4554,1.33701 -6.0059,1.37551 -1.5365,0.0245 -1.106,-0.81551 -0.094,-1.57502 0.994,-0.7455 0.5635,-0.763 -0.399,-0.7875 -1.561,-0.0385 -5.152,0.8155 -4.2315,-0.59151 1.0465,-1.60651 4.0985,-2.22952 3.346,-2.65302 0,0 -4.13,0.392 -6.0025,0.588 0,0 -1.281,-0.196 -0.7875,-1.47701 0.1715,-0.441 2.548,-2.48152 2.8525,-3.15003 0,0 2.66,-3.54203 4.9245,-6.79006 0,0 5.0189,-4.82654 1.477,-4.62704 -1.477,0.098 -4.529,2.85252 -6.993,3.73803 -2.4605,0.88901 -10.038,4.23504 -5.509,-0.686 0,0 0.987,-0.88551 1.771,-2.06852 0,0 3.346,-4.22454 4.0355,-5.40405 0,0 0.7875,-1.47701 -2.1665,-0.1995 0,0 -4.858,2.19802 -5.7085,1.77451 -0.9835,-0.4935 -0.6895,-0.0105 -0.2975,-2.17702 0.1995,-1.08501 1.6765,-4.43104 2.7615,-6.30005 1.575,-2.72653 3.4825,-5.11355 4.0355,-5.70856 0.924,-1.015 1.512,-1.69751 -0.6895,-1.18301 0,0 -4.48,3.00303 -7.581,4.03904 -2.3624,0.78401 -3.5419,0.88551 -5.0189,0.98351 -1.2215,0.0805 -4.627,0.196 -4.627,0.196 0,0 -2.3625,0.196 -3.6435,0.2975 -1.673,0.12951 -0.098,-1.47701 1.477,-3.64353 0,0 0.567,-1.12351 2.2645,-3.82903 l 6.3,-10.6331 c 0,0 1.9915,-2.60752 -0.9835,-1.08151 -0.21,0.1085 -1.5155,1.19351 -1.6765,1.36851 -2.065,2.26102 -2.31,2.15252 -4.6235,4.13704 0,0 -2.4605,1.57151 -4.235,2.06152 0,0 -3.7415,2.06852 -3.64,0.399 0.133,-2.36252 0.5915,-3.15353 0.9835,-3.84303 0.553,-0.97301 0.392,-0.78751 1.477,-3.14653 0,0 0.7875,-2.36252 1.3755,-5.61405 l 0.4935,-3.24803 c 0,0 0.392,-3.75203 -1.575,-0.098 -1.9565,3.61553 -4.2559,6.10055 -6.2999,7.67557 -1.1445,0.87851 -1.771,1.38251 -5.8065,2.85952 0,0 -3.374,1.64852 -5.712,2.06502 -1.6695,0.29751 -0.9835,-2.65652 -0.4935,-4.92454 0,0 0.693,-1.77102 1.876,-8.56108 0,0 0.392,-3.34603 -1.6765,-0.79101 0,0 -1.0465,2.60053 -3.052,5.41455 -2.4219,3.41953 -3.9374,4.72855 -4.8229,5.81355 0,0 -2.7545,3.83604 -3.738,5.90456 -0.175,0.343 -0.693,-0.0945 -0.9835,0.0945 -0.8155,0.5285 -0.987,-8.56108 -0.987,-8.56108 0,0 -0.49,-1.08501 -1.379,-0.098 0,0 -0.987,1.77102 -1.5715,3.15003 0,0 -1.085,3.15703 -1.876,3.74853 -0.784,0.59151 -1.6695,-9.55858 -1.477,-12.31311 0,0 -0.294,-2.85602 -1.1305,-1.24601 z"
     id="path3128"
     style="fill:#000000;stroke:#000000;stroke-width:3.15000582;stroke-linecap:butt;stroke-linejoin:miter;stroke-miterlimit:4;stroke-opacity:1;stroke-dasharray:none" />
  <path
     d="m 1296.8037,356.25043 c 0.2485,0.448 -1.561,3.78003 -3.8359,5.58255 -2.779,2.20502 -6.006,3.08353 -7.0875,1.90052 -0.9345,-1.01151 1.869,-5.21505 4.0705,-6.40506 3.101,-1.66951 6.4854,-1.73252 6.8529,-1.07801 z"
     id="path3130"
     style="fill:#fed100;fill-opacity:1;stroke:#000000;stroke-width:1.57500291;stroke-linecap:butt;stroke-linejoin:miter;stroke-miterlimit:4;stroke-opacity:1;stroke-dasharray:none" />
  <path
     d="m 1288.2428,359.00846 c 0.686,0.3955 2.4465,2.57602 3.444,3.44753 0.7875,0.686 0.8855,0.532 0.4935,-0.39201 -0.2975,-0.693 -1.085,-2.85952 -1.575,-5.12054 0,0 -3.052,1.67301 -2.3625,2.06502"
     id="path3132"
     style="fill:#000000;fill-opacity:1;fill-rule:nonzero;stroke:none" />
</svg>
