<?xml version="1.0" encoding="UTF-8" standalone="no"?>
<!-- Created with Inkscape (http://www.inkscape.org/) -->
<svg
   xmlns:dc="http://purl.org/dc/elements/1.1/"
   xmlns:cc="http://web.resource.org/cc/"
   xmlns:rdf="http://www.w3.org/1999/02/22-rdf-syntax-ns#"
   xmlns:svg="http://www.w3.org/2000/svg"
   xmlns="http://www.w3.org/2000/svg"
   xmlns:sodipodi="http://inkscape.sourceforge.net/DTD/sodipodi-0.dtd"
   xmlns:inkscape="http://www.inkscape.org/namespaces/inkscape"
   width="1000.0000"
   height="500.00000"
   id="svg2"
   sodipodi:version="0.32"
   inkscape:version="0.42"
   version="1.0"
   x="0.00000000"
   y="0.00000000"
   sodipodi:docbase="H:\"
   sodipodi:docname="BANDER~1.SVG">
  <defs
     id="defs4" />
  <sodipodi:namedview
     id="base"
     pagecolor="#ffffff"
     bordercolor="#666666"
     borderopacity="1.0"
     inkscape:pageopacity="0.0"
     inkscape:pageshadow="2"
     inkscape:zoom="0.93300000"
     inkscape:cx="500.00000"
     inkscape:cy="250.00000"
     inkscape:document-units="px"
     inkscape:current-layer="layer1"
     inkscape:window-width="1024"
     inkscape:window-height="712"
     inkscape:window-x="-4"
     inkscape:window-y="-4"
     showguides="true"
     inkscape:guide-bbox="true" />
  <metadata
     id="metadata7">
    <rdf:RDF>
      <cc:Work
         rdf:about="">
        <dc:format>image/svg+xml</dc:format>
        <dc:type
           rdf:resource="http://purl.org/dc/dcmitype/StillImage" />
        <dc:title>Bandera de Castilla-La Mancha</dc:title>
        <dc:date>10 de febrero de 2006</dc:date>
        <dc:creator>
          <cc:Agent>
            <dc:title>Valadrem</dc:title>
          </cc:Agent>
        </dc:creator>
        <dc:rights>
          <cc:Agent>
            <dc:title>Dominio público</dc:title>
          </cc:Agent>
        </dc:rights>
        <cc:license
           rdf:resource="http://web.resource.org/cc/PublicDomain" />
        <dc:language>Español</dc:language>
      </cc:Work>
      <cc:License
         rdf:about="http://web.resource.org/cc/PublicDomain">
        <cc:permits
           rdf:resource="http://web.resource.org/cc/Reproduction" />
        <cc:permits
           rdf:resource="http://web.resource.org/cc/Distribution" />
        <cc:permits
           rdf:resource="http://web.resource.org/cc/DerivativeWorks" />
      </cc:License>
    </rdf:RDF>
  </metadata>
  <g
     inkscape:label="Layer 1"
     inkscape:groupmode="layer"
     id="layer1">
    <g
       id="g6926">
      <g
         id="g3951">
        <rect
           style="opacity:1.0000000;fill:#a21c1c;fill-opacity:1.0000000;fill-rule:nonzero;stroke:none;stroke-width:0.38800001;stroke-linejoin:miter;stroke-miterlimit:4.0000000;stroke-dasharray:none;stroke-dashoffset:0.00000000;stroke-opacity:1.0000000"
           id="rect1316"
           width="500.00000"
           height="499.99982"
           x="0.00000000"
           y="0.00017949729" />
        <rect
           y="0.00017949729"
           x="500.00000"
           height="499.99982"
           width="500.00000"
           id="rect2044"
           style="opacity:1.0000000;fill:#ffffff;fill-opacity:1.0000000;fill-rule:nonzero;stroke:none;stroke-width:0.38800001;stroke-linejoin:miter;stroke-miterlimit:4.0000000;stroke-dasharray:none;stroke-dashoffset:0.00000000;stroke-opacity:1.0000000" />
      </g>
      <g
         id="g6909">
        <g
           id="g6892">
          <path
             d="M 145.32880,128.34408 L 158.18593,128.34408 L 158.18593,140.12979 L 172.61450,140.12979 L 172.61450,128.34408 L 185.80498,128.34408 L 185.80498,140.12979 L 199.90021,140.12979 L 199.90021,128.34408 L 213.18594,128.34408 L 213.18594,154.05837 L 145.32880,154.05837 L 145.32880,128.34408 z M 154.07880,154.05837 L 154.07880,266.20122 L 204.43595,266.20122 L 204.43595,154.05837 M 178.90022,231.51046 L 178.90022,153.58837 M 153.90022,180.30836 L 204.07879,180.30836 M 153.90022,205.20122 L 204.07879,205.20122 M 153.90022,231.20122 L 204.07879,231.20122"
             style="fill:#ffcc00;fill-opacity:1.0000000;fill-rule:evenodd;stroke:#000000;stroke-width:1.0000000px;stroke-linecap:butt;stroke-linejoin:miter;stroke-opacity:1.0000000"
             id="path3452" />
          <path
             d="M 212.01457,62.740790 L 226.47495,62.740790 L 226.47495,75.996150 L 242.70272,75.996150 L 242.70272,62.740790 L 257.53801,62.740790 L 257.53801,75.996150 L 273.39087,75.996150 L 273.39087,62.740790 L 288.33330,62.740790 L 288.33330,91.661580 L 212.01457,91.661580 L 212.01457,62.740790 z M 224.99543,92.326420 L 224.99543,264.60318 L 275.35258,264.60318 L 275.35258,92.326420 M 249.81685,193.17520 L 249.81685,117.80864 M 224.81685,118.30836 L 274.99542,118.30836 M 224.81685,143.20122 L 274.99542,143.20122 M 224.81685,169.20122 L 274.99542,169.20122 M 224.81685,193.20122 L 274.99542,193.20122 M 224.81685,219.20122 L 274.99542,219.20122 M 249.81685,265.25240 L 249.81685,219.11104 M 241.81685,219.38844 L 241.81685,192.89799 M 260.32193,219.38844 L 260.32193,192.89799 M 241.81685,118.39859 L 241.81685,91.908140 M 259.96479,118.39859 L 260.32193,91.908140"
             style="fill:#ffcc00;fill-opacity:1.0000000;fill-rule:evenodd;stroke:#000000;stroke-width:0.99999976px;stroke-linecap:butt;stroke-linejoin:miter;stroke-opacity:1.0000000"
             id="path3482" />
          <path
             d="M 287.11807,128.34408 L 299.97520,128.34408 L 299.97520,140.12979 L 314.40377,140.12979 L 314.40377,128.34408 L 327.59425,128.34408 L 327.59425,140.12979 L 341.68948,140.12979 L 341.68948,128.34408 L 354.97521,128.34408 L 354.97521,154.05837 L 287.11807,154.05837 L 287.11807,128.34408 z M 295.86807,154.05837 L 295.86807,266.20122 L 346.22522,266.20122 L 346.22522,154.05837 M 320.68949,231.51046 L 320.68949,153.58837 M 295.68949,180.30836 L 345.86806,180.30836 M 295.68949,205.20122 L 345.86806,205.20122 M 295.68949,231.20122 L 345.86806,231.20122"
             style="fill:#ffcc00;fill-opacity:1.0000000;fill-rule:evenodd;stroke:#000000;stroke-width:1.0000000px;stroke-linecap:butt;stroke-linejoin:miter;stroke-opacity:1.0000000"
             id="path3470" />
          <path
             d="M 146.21958,247.82550 L 146.21958,283.18084 L 193.69675,268.02855 L 193.69675,231.91560 L 179.55462,236.96636 L 179.55462,253.88642 L 159.09903,260.95748 L 159.09903,243.02728 L 146.21958,247.82550 z M 170.58951,257.04314 L 170.58951,265.75571 M 146.21958,273.93845 L 193.69675,258.78616 L 146.21958,273.93845 z M 158.65264,270.22239 L 158.65264,278.93496 M 179.55017,263.59326 L 179.55017,272.30583 M 157.07872,279.89784 L 153.03811,377.88264 L 122.48100,392.78239 L 167.43278,436.97657 L 185.11045,409.70245 L 193.82302,268.15482 M 153.08560,378.32898 L 184.57985,410.23468 M 153.81354,362.07732 L 186.12507,387.22529 M 154.39999,344.96333 L 187.87445,363.61728 M 155.16665,327.78597 L 189.25434,339.06273 M 155.93590,311.77361 L 190.82093,315.04748 M 156.26471,294.53957 L 192.07036,291.74933 M 173.61997,293.28237 L 173.61997,313.10661 M 171.47339,333.56220 L 171.47339,354.27033 M 169.20553,374.00863 L 169.20553,394.71676 M 162.62173,388.08719 L 138.02056,407.42209 M 174.67754,400.16418 L 152.82191,422.47041"
             style="fill:#ffcc00;fill-opacity:1.0000000;fill-rule:evenodd;stroke:#000000;stroke-width:1.0000000px;stroke-linecap:butt;stroke-linejoin:miter;stroke-opacity:1.0000000"
             id="path3508" />
          <path
             id="path4142"
             style="fill:#ffcc00;fill-opacity:1.0000000;fill-rule:evenodd;stroke:#000000;stroke-width:1.0000000px;stroke-linecap:butt;stroke-linejoin:miter;stroke-opacity:1.0000000"
             d="M 354.08444,247.82550 L 354.08444,283.18084 L 306.60727,268.02855 L 306.60727,231.91560 L 320.74940,236.96636 L 320.74940,253.88642 L 341.20499,260.95748 L 341.20499,243.02728 L 354.08444,247.82550 z M 329.71451,257.04314 L 329.71451,265.75571 M 354.08444,273.93845 L 306.60727,258.78616 L 354.08444,273.93845 z M 341.65138,270.22239 L 341.65138,278.93496 M 320.75385,263.59326 L 320.75385,272.30583 M 343.22530,279.89784 L 347.26591,377.88264 L 377.82302,392.78239 L 332.87124,436.97657 L 315.19357,409.70245 L 306.48100,268.15482 M 347.21842,378.32898 L 315.72417,410.23468 M 346.49048,362.07732 L 314.17895,387.22529 M 345.90403,344.96333 L 312.42957,363.61728 M 345.13737,327.78597 L 311.04968,339.06273 M 344.36812,311.77361 L 309.48309,315.04748 M 344.03931,294.53957 L 308.23366,291.74933 M 326.68405,293.28237 L 326.68405,313.10661 M 328.83063,333.56220 L 328.83063,354.27033 M 331.09849,374.00863 L 331.09849,394.71676 M 337.68229,388.08719 L 362.28346,407.42209 M 325.62648,400.16418 L 347.48211,422.47041" />
          <path
             d="M 223.53653,250.53806 L 223.53653,259.25063 M 276.77892,250.53806 L 276.77892,259.25063 M 193.12854,258.93718 L 306.57507,258.93718 M 193.12854,267.88420 L 306.57507,267.88420 M 237.53653,259.45058 L 237.53653,267.53768 M 209.53653,259.45058 L 209.53653,267.53768 M 262.89392,259.45058 L 262.89392,267.53768 M 290.89392,259.45058 L 290.89392,267.53768 M 192.32880,291.79491 L 307.86623,291.79491 M 190.73553,315.16991 L 309.45971,315.16991 M 189.67300,339.16991 L 310.52210,339.16991 M 188.25611,363.61634 L 311.93888,363.61634 M 186.83894,387.61634 L 313.35590,387.61634 M 184.35841,410.36634 L 315.83653,410.36634 M 223.75000,267.80837 L 223.75000,291.55837 M 276.73214,267.80837 L 276.73214,291.55837 M 223.75000,315.62980 L 223.75000,339.37980 M 276.73214,315.62980 L 276.73214,339.37980 M 204.01785,291.61194 L 204.01785,315.36194 M 296.55356,291.61194 L 296.55356,315.36194 M 250.28570,291.61194 L 250.28570,315.36194 M 204.01785,339.61194 L 204.01785,363.36194 M 296.55356,339.61194 L 296.55356,363.36194 M 204.01785,387.59031 L 204.01785,410.31217 M 296.55356,387.59031 L 296.55356,410.31217 M 288.59075,410.26380 L 299.51785,437.01367 M 263.18237,410.61774 L 266.74749,437.19547 M 211.93090,410.26380 L 201.00380,437.01367 M 237.33928,410.61774 L 233.77416,437.19547 M 332.87124,436.97657 L 167.52048,437.25920 L 167.47663,437.11789 L 185.11045,409.70245 L 193.75989,268.09168 L 193.69675,231.91560 L 213.89980,231.91560 L 213.89980,250.35088 L 234.86047,250.35088 L 234.86047,231.91560 L 264.91251,231.91560 L 264.91251,250.35088 L 286.12571,250.35088 L 286.12571,231.91560 L 306.74192,231.91560 L 306.48100,268.15482 L 315.19357,409.70245 L 332.87124,436.97657 z "
             style="fill:#ffcc00;fill-opacity:1.0000000;fill-rule:evenodd;stroke:#000000;stroke-width:1.0000000px;stroke-linecap:butt;stroke-linejoin:miter;stroke-opacity:1.0000000"
             id="path6765"
             sodipodi:nodetypes="cccccccccccccccccccccccccccccccccccccccccccccccccccccccccccccccccccccccccccc" />
          <path
             d="M 222.41653,410.27296 C 222.41653,410.27296 222.03737,384.16469 222.41653,363.91142 C 222.79538,343.66758 235.98319,337.45784 250.10166,337.75133 C 264.22013,338.04484 277.20978,342.95149 277.82603,364.40489 C 278.44214,385.85078 277.82603,410.29444 277.82603,410.29444 L 222.41653,410.27296 z M 222.69634,390.57143 L 277.30335,390.57143 M 222.69634,366.57143 L 277.30335,366.57143 M 229.30286,344.48649 L 250.17394,368.72797 L 271.04502,344.48649"
             style="fill:#ffcc00;fill-opacity:1.0000000;fill-rule:evenodd;stroke:#000000;stroke-width:1.0000004;stroke-linecap:butt;stroke-linejoin:round;stroke-miterlimit:4.0000000;stroke-opacity:1.0000000"
             id="path6091" />
        </g>
        <g
           id="g6901"
           style="fill:#1d4bba;fill-opacity:1.0000000">
          <path
             style="fill:#1d4bba;fill-opacity:1.0000000;fill-rule:evenodd;stroke:#000000;stroke-width:0.99999988;stroke-linecap:butt;stroke-linejoin:round;stroke-miterlimit:4.0000000;stroke-dasharray:none;stroke-opacity:1.0000000"
             d="M 213.88442,324.10827 C 213.88442,324.10827 213.55182,307.64728 213.68565,294.87781 C 213.81937,282.11429 218.67307,278.19912 223.65650,278.38416 C 228.63992,278.56922 233.28636,281.66280 233.50389,295.18893 C 233.72135,308.71034 233.44244,324.12181 233.44244,324.12181 L 213.88442,324.10827 z "
             id="path10753"
             sodipodi:nodetypes="czszcc" />
          <path
             sodipodi:nodetypes="czszcc"
             id="path6075"
             d="M 266.99156,324.10827 C 266.99156,324.10827 266.65896,307.64728 266.79279,294.87781 C 266.92651,282.11429 271.78021,278.19912 276.76364,278.38416 C 281.74706,278.56922 286.39350,281.66280 286.61103,295.18893 C 286.82849,308.71034 286.54958,324.12181 286.54958,324.12181 L 266.99156,324.10827 z "
             style="fill:#1d4bba;fill-opacity:1.0000000;fill-rule:evenodd;stroke:#000000;stroke-width:0.99999988;stroke-linecap:butt;stroke-linejoin:round;stroke-miterlimit:4.0000000;stroke-dasharray:none;stroke-opacity:1.0000000" />
          <path
             sodipodi:nodetypes="czszcc"
             id="path6077"
             d="M 172.84359,211.26496 C 172.84359,211.26496 172.62448,195.24416 172.71264,182.81616 C 172.80074,170.39395 175.99823,166.58347 179.28118,166.76356 C 182.56413,166.94367 185.62508,169.95453 185.76838,183.11896 C 185.91164,196.27879 185.72790,211.27814 185.72790,211.27814 L 172.84359,211.26496 z "
             style="fill:#1d4bba;fill-opacity:1.0000000;fill-rule:evenodd;stroke:#000000;stroke-width:1.0000001;stroke-linecap:butt;stroke-linejoin:round;stroke-miterlimit:4.0000000;stroke-dasharray:none;stroke-opacity:1.0000000" />
          <path
             style="fill:#1d4bba;fill-opacity:1.0000000;fill-rule:evenodd;stroke:#000000;stroke-width:1.0000001;stroke-linecap:butt;stroke-linejoin:round;stroke-miterlimit:4.0000000;stroke-dasharray:none;stroke-opacity:1.0000000"
             d="M 242.30128,183.65626 C 242.30128,183.65626 242.03233,164.24170 242.14055,149.18101 C 242.24868,134.12734 246.17347,129.50967 250.20316,129.72791 C 254.23285,129.94617 257.99004,133.59484 258.16593,149.54796 C 258.34178,165.49550 258.11624,183.67223 258.11624,183.67223 L 242.30128,183.65626 z "
             id="path6079"
             sodipodi:nodetypes="czszcc" />
          <path
             style="fill:#1d4bba;fill-opacity:1.0000000;fill-rule:evenodd;stroke:#000000;stroke-width:1.0000001;stroke-linecap:butt;stroke-linejoin:round;stroke-miterlimit:4.0000000;stroke-dasharray:none;stroke-opacity:1.0000000"
             d="M 314.63286,211.26496 C 314.63286,211.26496 314.41375,195.24416 314.50191,182.81616 C 314.59001,170.39395 317.78750,166.58347 321.07045,166.76356 C 324.35340,166.94367 327.41435,169.95453 327.55765,183.11896 C 327.70091,196.27879 327.51717,211.27814 327.51717,211.27814 L 314.63286,211.26496 z "
             id="path6081"
             sodipodi:nodetypes="czszcc" />
          <path
             sodipodi:nodetypes="czszcc"
             id="path6089"
             d="M 238.35926,410.28126 C 238.35926,410.28126 237.95564,390.86670 238.11805,375.80601 C 238.28032,360.75234 244.17034,356.13467 250.21779,356.35291 C 256.26524,356.57117 261.90374,360.21984 262.16770,376.17296 C 262.43160,392.12050 262.09313,410.29723 262.09313,410.29723 L 238.35926,410.28126 z "
             style="fill:#1d4bba;fill-opacity:1.0000000;fill-rule:evenodd;stroke:#000000;stroke-width:1.0000002;stroke-linecap:butt;stroke-linejoin:round;stroke-miterlimit:4.0000000;stroke-dasharray:none;stroke-opacity:1.0000000" />
        </g>
      </g>
    </g>
  </g>
</svg>
