<?xml version="1.0" encoding="utf-8"?>
<!DOCTYPE svg PUBLIC "-//W3C//DTD SVG 1.1//EN" "http://www.w3.org/Graphics/SVG/1.1/DTD/svg11.dtd">
<svg version="1.1"
	 xmlns="http://www.w3.org/2000/svg"
	 id="senyera_coronada" 
	 x="0px" y="0px" width="900px" height="450px"
	 viewBox="0 0 900 450" enable-background="new 0 0 900 450" xml:space="preserve">
<rect id="tafatà" x="0" y="0" fill="#0072BC" width="225" height="450"/>
<g id="senyera">
	<rect id="or" x="225" fill="#FCDD09" width="675" height="450"/>
	<rect id="barra_3" x="220" y="250" fill="#DA121A" width="680" height="50"/>
	<rect id="barra_2" x="220" y="350" fill="#DA121A" width="680" height="50"/>
	<rect id="barra_1" x="220" y="150" fill="#DA121A" width="680" height="50"/>
	<rect id="barra_0" x="220" y="50" fill="#DA121A" width="680" height="50"/>
</g>
<g id="corona">
	<rect id="rect3959" x="175.542" fill="#DA121A" width="49.766" height="450"/>
	<g id="florons">
		<g id="g3981">
			<g>
				<g>
					<path id="path3989"  fill="#FCDD09" stroke="#000000" stroke-width="0.5" d="M102.723,410.292
						c0,0-20.386,45.264-29.51,23.565c0,0,2.643,1.025,4.621-1.001c1.774-1.826,1.587-3.53-0.504-6.065
						c-2.231-2.719-8.645-1.518-9.919,1.71c-2.935,7.422,3.951,17.231,10.272,16.796c16.557-1.127,18.413-18.955,29.432-34.164
						C107.779,410.214,102.723,410.292,102.723,410.292L102.723,410.292z"/>
				</g>
			</g>
		</g>
		<path id="path3993"  fill="#FCDD09" stroke="#000000" stroke-width="0.5" d="M103.056,358.139
			c0,0-20.386-45.263-29.51-23.564c0,0,2.647-1.025,4.62,1.007c1.774,1.821,1.588,3.525-0.498,6.064
			c-2.238,2.715-8.65,1.519-9.926-1.713c-2.929-7.422,3.952-17.226,10.272-16.796c16.557,1.127,18.414,18.955,29.432,34.164
			C108.111,358.216,103.056,358.139,103.056,358.139L103.056,358.139L103.056,358.139z"/>
		<path id="path3997"  fill="#FCDD09" stroke="#000000" stroke-width="0.5" d="M171.576,368.788
			c-2.944,5.668-26.906,14.828-26.906,14.828s23.449,8.896,26.614,14.897l0.293,8.766c-11.937-16.284-23.766-17.784-32.997-18.282
			c-6.55-0.351-5.935,3.486-4.733,5.02c10.706,13.686-3.107,17.567-5.237,28.891c-0.108,0.567-1.715-1.924-2.226-5.196
			c-0.343-2.159,0.331-5.342,0.331-5.342c-4.761,7.963-10.809,1.597-14.506,9.498c0,0-0.767-1.255-1.153-1.626
			c-1.061-1.007-4.474-0.498-4.968-9.492c-0.019-0.312-3.907,0.718-3.907,0.718c2.16-7.443,21.076-15.719,16.152-20.542
			c-5.558-5.454-5.993,11.66-14.697,12.823c-0.498,0.068,1.296-4.951,1.296-4.951c-4.06,0.226-5.867,4.951-6.341,7.734l-0.952-2.577
			c-3.942-2.226,0.952-13.378-0.84-15.289c-1.398-1.489-6.052,4.644-8.078,5.641c-2.014,0.986-13.408,0.986-7.829,7.939
			c0.444,0.556-1.138-3.106,1.495-3.589c2.91-0.533,2.808,2.891,2.804,3.228c-0.025,1.43-2.608,4.901-6.663,2.934
			c-0.229-0.113-7.819-5.644,2.077-13.51c0,0-6.057,3.715-12.436-2.951c-1.363-1.425-3.198-3.228-5.402-4.609
			c2.199-1.388,3.815-3.061,5.173-4.492c6.355-6.68,12.425-2.993,12.425-2.993c-9.929-7.827-2.354-13.387-2.124-13.5
			c4.043-1.983,6.641,1.479,6.671,2.911c0.01,0.336,0.123,3.76-2.794,3.233c-2.631-0.474-1.064-4.141-1.51-3.58
			c-5.553,6.974,5.847,6.934,7.859,7.912c2.032,0.986,6.71,7.128,8.102,5.634c1.784-1.914-3.149-13.076,0.782-15.312l0.948-2.582
			c0.479,2.779,2.306,7.505,6.365,7.715c0,0-1.812-5.02-1.315-4.951c8.709,1.133,9.206,18.248,14.746,12.769
			c4.904-4.843-14.043-13.047-16.23-20.479c0,0,3.893,1.015,3.907,0.702c0.465-8.999,3.878-8.5,4.934-9.511
			c0.39-0.376,1.148-1.631,1.148-1.631c3.726,7.887,9.754,1.5,14.541,9.444c0,0-0.684-3.184-0.353-5.341
			c0.504-3.273,2.096-5.772,2.209-5.204c2.172,11.313,15.995,15.151,5.343,28.871c-1.192,1.539-1.797,5.376,4.753,5
			c9.226-0.528,21.051-2.069,32.93-18.397L171.576,368.788L171.576,368.788z"/>
		<path id="path3999"  fill="none" stroke="#000000" stroke-width="0.5" d="M97.639,403.954
			c1.294-11.069,10.608-14.669,10.398-20.079c-0.215-5.415-9.627-11.073-10.687-20.321 M110.606,420.038
			c-7.35-15.287,16.239-20.381,15.464-36.152c-0.743-14.98-22.975-21.606-15.606-36.368 M144.385,383.714l-81.62,0.03"/>
		<path id="path4001"  fill="#FCDD09" stroke="#000000" stroke-width="0.5" d="M136.951,299.203
			c-2.583-7.167-10.139-9.106-14.423-9.252c-4.816-0.167-12.332,6.391-16.918,9.252c-4.084,2.538-11.503-0.796-12.675-3.668
			c-2.618-6.43,1.51-7.665,3.467-7.294c0,0-2.426,4.638,1.617,4.042c2.549-0.376,3.169-4.146,2.754-5.664
			c-0.83-3.003-5.055-2.671-6.754-2.168c-5.496,1.626-4.576,9.307-2.749,12.251c2.715,4.375,9.509,5.049,13.837,4.413
			c6.55-0.956,11.932-7.749,15.844-7.582c1.036,0.044,2.096,3.648,1.079,3.833c-6.624,1.211-5.748,5.919-5.748,5.919v0.083
			c0,0-0.876,4.668,5.748,5.879c1.017,0.187-0.303,3.872-1.333,3.916c-3.917,0.167-9.041-6.709-15.591-7.666
			c-4.327-0.635-11.12,0.039-13.837,4.413c-1.827,2.944-2.745,10.626,2.749,12.251c1.7,0.504,5.925,0.835,6.754-2.167
			c0.415-1.514-0.205-5.288-2.754-5.664c-4.043-0.597-1.617,4.042-1.617,4.042c-1.957,0.371-6.086-0.86-3.467-7.295
			c1.172-2.872,8.591-6.206,12.675-3.668c4.586,2.863,12.102,9.42,16.918,9.253c4.284-0.152,11.839-2.084,14.423-9.253v-8.207
			H136.951z"/>
		<path id="path4005"  fill="#FCDD09" stroke="#000000" stroke-width="0.5" d="M170.125,294.495
			c-0.913,4.752-12.752,8.833-12.752,8.833s11.668,6.083,13.339,11.083l-0.293,5.752c-3.751-12.94-18.317-13.941-18.317-13.941
			c3.062,4.375,5.813,10.44-1.627,16.442c0,0,2.179-5.587,1.061-6.939c0,0-1.002,3.501-5.187,6.747
			c-1.745,1.352-6.38,1.128-8.504,2.379l1.812-5.688c-2.188,4.624-8.44,5.248-8.44,5.248c-0.361-1.578-0.176-5.42,1.748-8.374
			c3.63-5.562,2.75-9.503,2.75-9.503c-3.126,6.939-15.376,7.563-17.691,5.811c-0.313-0.236,2.749-3.248,2.749-3.248
			c-1.123,0.185-4.19-2.003-4.126-2.627c0.088-0.879,2.13-2.813,2.5-3.374c0,0-2.325-1.909-2.413-2.793
			c-0.064-0.626,2.998-2.808,4.122-2.622c0,0-3.062-3.012-2.749-3.251c2.315-1.749,14.564-1.124,17.695,5.815
			c0,0,0.874-3.94-2.749-9.503c-1.93-2.954-2.116-6.796-1.755-8.374c0,0,6.252,0.626,8.44,5.248l-1.812-5.687
			c2.124,1.25,6.759,1.02,8.504,2.373c4.191,3.253,5.187,6.752,5.187,6.752c1.119-1.352-1.059-6.938-1.059-6.938
			c7.438,6,4.689,12.06,1.627,16.435c0,0,14.564-0.997,18.315-13.935L170.125,294.495L170.125,294.495z"/>
		<path id="path4009"  fill="#FCDD09" stroke="#000000" stroke-width="0.5" d="M101.199,304.871
			c-4,0.123-9.514,2.953-14.462,2.207c-3.585-0.543-10.047-4.791-10.047-4.791s6.506-3.378,9.753-4.126
			c5.29-1.221,10.628,3.412,14.63,3.501C101.873,301.679,102,304.848,101.199,304.871L101.199,304.871L101.199,304.871z"/>
		<path id="path4013"  fill="#FCDD09" stroke="#000000" stroke-width="0.5" d="M101.301,296.785
			c2.228-0.498,1.774,6.378,1.774,6.378c0,0.953,0.289,6.002-1.774,6.417c-2.354-0.293-1.73-6.46-1.73-6.46
			S99.324,296.703,101.301,296.785L101.301,296.785L101.301,296.785z"/>
		<path id="path4015"  fill="#FCDD09" stroke="#000000" stroke-width="0.5" d="M116.242,303.075
			l41.385,0.292 M139.37,319.828l5.92-16.582 M145.288,303.246l-5.793-16.294"/>
		<path id="path4017"  fill="#FCDD09" stroke="#000000" stroke-width="0.5" d="M103.056,249.622
			c0,0-20.386,45.269-29.51,23.569c0,0,2.647,1.022,4.62-1.005c1.774-1.821,1.588-3.526-0.498-6.065
			c-2.238-2.715-8.65-1.519-9.926,1.713c-2.929,7.423,3.952,17.228,10.272,16.798c16.557-1.128,18.414-18.955,29.432-34.164
			C108.111,249.55,103.056,249.622,103.056,249.622L103.056,249.622L103.056,249.622z"/>
		<path id="path4021"  fill="#FCDD09" stroke="#000000" stroke-width="0.5" d="M103.392,197.475
			c0,0-20.39-45.269-29.509-23.569c0,0,2.641-1.022,4.615,1.005c1.774,1.826,1.592,3.526-0.498,6.066
			c-2.238,2.715-8.65,1.519-9.926-1.713c-2.93-7.423,3.951-17.226,10.272-16.798c16.557,1.129,18.413,18.955,29.432,34.164
			C108.443,197.549,103.392,197.475,103.392,197.475L103.392,197.475L103.392,197.475z"/>
		<path id="path4025"  fill="#FCDD09" stroke="#000000" stroke-width="0.5" d="M171.907,208.119
			c-2.944,5.668-26.903,14.829-26.903,14.829s23.444,8.896,26.61,14.897l0.293,8.771c-11.937-16.285-23.767-17.789-32.999-18.282
			c-6.55-0.352-5.93,3.486-4.733,5.019c10.707,13.683-3.105,17.569-5.235,28.892c-0.108,0.567-1.71-1.924-2.228-5.202
			c-0.341-2.152,0.333-5.336,0.333-5.336c-4.763,7.958-10.809,1.591-14.506,9.498c0,0-0.763-1.255-1.153-1.626
			c-1.056-1.007-4.474-0.499-4.968-9.492c-0.02-0.312-3.902,0.712-3.902,0.712c2.155-7.442,21.069-15.712,16.152-20.542
			c-5.563-5.454-5.998,11.66-14.702,12.828c-0.498,0.068,1.294-4.951,1.294-4.951c-4.059,0.219-5.861,4.951-6.335,7.729
			l-0.958-2.572c-3.941-2.227,0.953-13.38-0.84-15.294c-1.397-1.484-6.052,4.649-8.078,5.641c-2.012,0.986-13.406,0.986-7.828,7.943
			c0.444,0.558-1.134-3.105,1.495-3.589c2.91-0.536,2.813,2.892,2.803,3.228c-0.024,1.426-2.608,4.897-6.663,2.929
			c-0.23-0.108-7.819-5.644,2.076-13.511c0,0-6.057,3.717-12.435-2.943c-1.363-1.426-3.199-3.233-5.402-4.609
			c2.198-1.393,3.813-3.062,5.172-4.492c6.355-6.685,12.426-2.993,12.426-2.993c-9.931-7.827-2.355-13.388-2.125-13.501
			c4.043-1.982,6.642,1.48,6.671,2.907c0.01,0.336,0.123,3.764-2.793,3.238c-2.631-0.474-1.061-4.141-1.51-3.585
			c-5.553,6.978,5.847,6.934,7.858,7.916c2.032,0.986,6.71,7.128,8.103,5.636c1.782-1.914-3.151-13.081,0.782-15.317l0.948-2.577
			c0.483,2.774,2.309,7.499,6.364,7.71c0,0-1.812-5.02-1.309-4.951c8.704,1.137,9.203,18.247,14.742,12.774
			c4.903-4.848-14.043-13.052-16.225-20.484c0,0,3.892,1.015,3.907,0.702c0.459-8.999,3.878-8.5,4.933-9.511
			c0.386-0.371,1.143-1.631,1.143-1.631c3.727,7.887,9.754,1.499,14.541,9.444c0,0-0.684-3.184-0.351-5.337
			c0.503-3.277,2.101-5.771,2.208-5.206c2.172,11.309,15.995,15.148,5.343,28.872c-1.192,1.534-1.797,5.371,4.753,5
			c9.231-0.528,21.051-2.075,32.93-18.403L171.907,208.119L171.907,208.119z"/>
		<path id="path4027"  fill="none" stroke="#000000" stroke-width="0.5" d="M97.97,243.286
			c1.294-11.066,10.614-14.664,10.4-20.079c-0.215-5.415-9.628-11.069-10.687-20.322 M110.938,259.374
			c-7.35-15.289,16.24-20.381,15.464-36.152c-0.737-14.98-22.975-21.606-15.605-36.368 M144.723,223.05l-81.625,0.03"/>
		<path id="path4029"  fill="#FCDD09" stroke="#000000" stroke-width="0.5" d="M102.39,90.624
			c0,0-20.385,45.269-29.509,23.569c0,0,2.641,1.022,4.62-1.005c1.774-1.821,1.588-3.526-0.503-6.066
			c-2.236-2.715-8.65-1.519-9.926,1.713c-2.93,7.423,3.956,17.226,10.277,16.798c16.557-1.129,18.409-18.955,29.427-34.164
			C107.441,90.55,102.39,90.624,102.39,90.624L102.39,90.624L102.39,90.624z"/>
		<g id="g4033">
			<g>
				<g>
					<path id="path4041"  fill="#FCDD09" stroke="#000000" stroke-width="0.5" d="M102.723,38.475
						c0,0-20.386-45.269-29.51-23.569c0,0,2.643-1.022,4.621,1.005c1.774,1.821,1.587,3.526-0.504,6.066
						c-2.231,2.715-8.645,1.519-9.919-1.713c-2.935-7.423,3.951-17.228,10.272-16.798C94.24,4.595,96.096,22.421,107.114,37.63
						C107.779,38.549,102.723,38.475,102.723,38.475L102.723,38.475L102.723,38.475z"/>
				</g>
			</g>
		</g>
		<path id="path4045"  fill="#FCDD09" stroke="#000000" stroke-width="0.5" d="M171.239,49.121
			c-2.94,5.668-26.903,14.829-26.903,14.829s23.444,8.896,26.614,14.897l0.294,8.771c-11.942-16.29-23.767-17.789-32.997-18.282
			c-6.555-0.352-5.935,3.486-4.733,5.014c10.706,13.687-3.105,17.574-5.24,28.896c-0.103,0.563-1.711-1.924-2.228-5.199
			c-0.336-2.152,0.333-5.336,0.333-5.336c-4.758,7.958-10.805,1.591-14.502,9.491c0,0-0.767-1.25-1.153-1.625
			c-1.059-1.007-4.474-0.499-4.967-9.492c-0.02-0.307-3.907,0.717-3.907,0.717c2.159-7.442,21.074-15.712,16.152-20.542
			c-5.559-5.455-5.993,11.66-14.697,12.827c-0.499,0.064,1.294-4.956,1.294-4.956c-4.059,0.226-5.866,4.956-6.34,7.735l-0.953-2.578
			c-3.941-2.221,0.948-13.378-0.84-15.287c-1.397-1.489-6.052,4.644-8.083,5.641c-2.006,0.986-13.406,0.986-7.824,7.938
			c0.445,0.558-1.138-3.105,1.491-3.589c2.915-0.533,2.813,2.892,2.808,3.228c-0.025,1.431-2.608,4.902-6.661,2.936
			c-0.235-0.113-7.824-5.646,2.075-13.511c0,0-6.062,3.717-12.435-2.948c-1.363-1.426-3.199-3.228-5.408-4.61
			c2.204-1.386,3.815-3.061,5.178-4.491c6.355-6.68,12.421-2.993,12.421-2.993c-9.926-7.828-2.354-13.388-2.126-13.501
			c4.05-1.983,6.647,1.48,6.678,2.911c0.01,0.337,0.123,3.76-2.793,3.233c-2.633-0.474-1.066-4.135-1.51-3.579
			c-5.554,6.973,5.842,6.934,7.858,7.909c2.032,0.986,6.71,7.128,8.098,5.636c1.787-1.914-3.146-13.076,0.785-15.317l0.948-2.577
			c0.479,2.778,2.305,7.504,6.365,7.71c0,0-1.812-5.015-1.315-4.946c8.709,1.133,9.208,18.242,14.746,12.768
			c4.904-4.847-14.042-13.051-16.229-20.483c0,0,3.892,1.015,3.907,0.702c0.464-8.999,3.877-8.501,4.933-9.511
			c0.391-0.371,1.148-1.631,1.148-1.631c3.727,7.887,9.754,1.499,14.541,9.444c0,0-0.684-3.184-0.351-5.337
			c0.503-3.277,2.096-5.771,2.208-5.204c2.175,11.309,15.995,15.146,5.344,28.872c-1.192,1.533-1.798,5.376,4.753,5
			c9.226-0.528,21.051-2.075,32.93-18.403L171.239,49.121L171.239,49.121z"/>
		<path id="path4047"  fill="none" stroke="#000000" stroke-width="0.5" d="M97.306,84.285
			c1.289-11.064,10.608-14.668,10.398-20.078c-0.219-5.415-9.627-11.074-10.691-20.322 M110.274,100.371
			c-7.35-15.283,16.239-20.376,15.464-36.152c-0.743-14.981-22.98-21.601-15.604-36.363 M144.054,64.052l-81.626,0.029"/>
		<path id="path4049"  fill="#FCDD09" stroke="#000000" stroke-width="0.5" d="M136.614,139.536
			c-2.583-7.169-10.139-9.103-14.418-9.254c-4.815-0.165-12.332,6.393-16.923,9.254c-4.079,2.538-11.497-0.791-12.67-3.668
			c-2.618-6.43,1.505-7.666,3.463-7.29c0,0-2.423,4.634,1.622,4.039c2.549-0.371,3.169-4.146,2.749-5.664
			c-0.825-3.002-5.05-2.67-6.75-2.167c-5.494,1.626-4.576,9.306-2.749,12.251c2.715,4.375,9.51,5.049,13.838,4.413
			c6.544-0.958,11.932-7.744,15.843-7.578c1.037,0.045,2.096,3.643,1.076,3.829c-6.624,1.211-5.745,5.918-5.745,5.918v0.089
			c0,0-0.879,4.663,5.745,5.874c1.021,0.186-0.298,3.871-1.335,3.916c-3.911,0.165-9.04-6.71-15.584-7.666
			c-4.327-0.636-11.123,0.044-13.838,4.419c-1.827,2.943-2.744,10.626,2.749,12.246c1.701,0.503,5.926,0.835,6.75-2.163
			c0.42-1.518-0.2-5.292-2.749-5.668c-4.045-0.59-1.622,4.044-1.622,4.044c-1.96,0.375-6.082-0.86-3.463-7.29
			c1.173-2.877,8.591-6.211,12.67-3.668c4.591,2.857,12.108,9.419,16.923,9.248c4.279-0.152,11.834-2.085,14.418-9.248
			L136.614,139.536L136.614,139.536z"/>
		<path id="path4053"  fill="#FCDD09" stroke="#000000" stroke-width="0.5" d="M169.793,134.833
			c-0.919,4.746-12.753,8.832-12.753,8.832s11.668,6.081,13.339,11.079l-0.293,5.751c-3.751-12.938-18.32-13.94-18.32-13.94
			c3.062,4.375,5.817,10.439-1.622,16.44c0,0,2.179-5.582,1.059-6.939c0,0-1.001,3.501-5.187,6.749
			c-1.745,1.358-6.38,1.127-8.504,2.378l1.812-5.688c-2.189,4.625-8.44,5.249-8.44,5.249c-0.361-1.578-0.175-5.42,1.75-8.376
			c3.623-5.562,2.749-9.501,2.749-9.501c-3.126,6.939-15.381,7.563-17.69,5.815c-0.318-0.238,2.749-3.251,2.749-3.251
			c-1.124,0.191-4.191-2.003-4.127-2.627c0.088-0.879,2.124-2.808,2.5-3.374c0,0-2.329-1.909-2.418-2.794
			c-0.058-0.626,3.004-2.808,4.127-2.621c0,0-3.062-3.012-2.749-3.253c2.311-1.747,14.564-1.123,17.695,5.816
			c0,0,0.876-3.941-2.754-9.503c-1.925-2.953-2.11-6.796-1.748-8.373c0,0,6.252,0.626,8.44,5.248l-1.812-5.688
			c2.124,1.25,6.759,1.022,8.502,2.374c4.186,3.251,5.188,6.752,5.188,6.752c1.118-1.352-1.061-6.939-1.061-6.939
			c7.438,6.002,4.689,12.061,1.627,16.437c0,0,14.564-0.996,18.315-13.936L169.793,134.833L169.793,134.833z"/>
		<path id="path4057"  fill="#FCDD09" stroke="#000000" stroke-width="0.5" d="M100.868,145.204
			c-4.001,0.122-9.515,2.953-14.463,2.206c-3.585-0.542-10.047-4.789-10.047-4.789s6.501-3.373,9.754-4.125
			c5.289-1.221,10.628,3.417,14.628,3.5C101.541,142.011,101.668,145.18,100.868,145.204L100.868,145.204L100.868,145.204z"/>
		<path id="path4061"  fill="#FCDD09" stroke="#000000" stroke-width="0.5" d="M100.971,137.123
			c2.226-0.503,1.769,6.373,1.769,6.373c0,0.956,0.293,6-1.769,6.415c-2.355-0.287-1.73-6.455-1.73-6.455
			S98.987,137.041,100.971,137.123L100.971,137.123L100.971,137.123z"/>
		<path id="path4063"  fill="#FCDD09" stroke="#000000" stroke-width="0.5" d="M115.911,143.411
			l41.383,0.288 M139.037,160.16l5.92-16.582 M144.957,143.578l-5.793-16.294"/>
		<path id="path4065"  fill="#FCDD09" stroke="#000000" stroke-width="0.5" d="M171.044,351.25
			c-4.064-11.002-18.947-9.815-18.947-9.815s14.82,0.128,18.57-12.813L171.044,351.25z"/>
		<path id="path4069"  fill="#FCDD09" stroke="#000000" stroke-width="0.5" d="M171.044,417.246
			c-4.064,11-18.947,9.813-18.947,9.813s14.82-0.127,18.57,12.813L171.044,417.246z"/>
		<path id="path4073"  fill="#FCDD09" stroke="#000000" stroke-width="0.5" d="M136.897,427.371
			c0,0,6.096,4.873,10.154,3.936c0,0-4.689,4.565-0.81,8.125c0,0,1.192-4.688,6.813-5.563c4.728-0.732,6.641-4.629,6.565-6.499
			v0.064c0.078-1.87-1.837-5.766-6.565-6.499c-5.627-0.879-6.813-5.562-6.813-5.562c-3.873,3.559,0.81,8.125,0.81,8.125
			C142.993,422.558,136.897,427.373,136.897,427.371L136.897,427.371L136.897,427.371z"/>
		<path id="path4077"  fill="#FCDD09" stroke="#000000" stroke-width="0.5" d="M170.54,255.746
			c-4.064,11.002-18.941,9.815-18.941,9.815s14.813-0.128,18.564,12.813L170.54,255.746z"/>
		<path id="path4081"  fill="#FCDD09" stroke="#000000" stroke-width="0.5" d="M171.044,191.746
			c-4.064-11.002-18.947-9.813-18.947-9.813s14.82,0.127,18.57-12.808L171.044,191.746z"/>
		<path id="path4085"  fill="#FCDD09" stroke="#000000" stroke-width="0.5" d="M171.044,95.248
			c-4.064,11.002-18.947,9.81-18.947,9.81s14.82-0.123,18.57,12.813L171.044,95.248z"/>
		<path id="path4089"  fill="#FCDD09" stroke="#000000" stroke-width="0.5" d="M171.044,31.747
			c-4.064-11.002-18.947-9.813-18.947-9.813s14.82,0.127,18.57-12.808L171.044,31.747z"/>
		<g id="rect4093">
			<rect x="170.041" y="-0.75" fill="#FCDD09" width="5.502" height="451.5"/>
			<g>
				<path d="M175.293-0.5v451h-5.002v-451H175.293 M175.793-1h-0.5h-5.002h-0.5v0.5v451v0.5h0.5h5.002h0.5v-0.5v-451V-1L175.793-1z"
					/>
			</g>
		</g>
		<path id="path4105"  fill="#FCDD09" stroke="#000000" stroke-width="0.5" d="M137.23,340.707
			c0,0,6.096,4.873,10.159,3.936c0,0-4.689,4.565-0.812,8.125c0,0,1.187-4.688,6.813-5.563c4.724-0.732,6.637-4.629,6.564-6.499
			v0.064c0.074-1.87-1.841-5.766-6.564-6.504c-5.627-0.874-6.813-5.562-6.813-5.562c-3.877,3.564,0.812,8.125,0.812,8.125
			C143.326,335.893,137.23,340.707,137.23,340.707L137.23,340.707L137.23,340.707z"/>
		<path id="path4109"  fill="#FCDD09" stroke="#000000" stroke-width="0.5" d="M136.897,265.707
			c0,0,6.096,4.873,10.159,3.936c0,0-4.689,4.565-0.815,8.125c0,0,1.192-4.688,6.818-5.563c4.723-0.732,6.636-4.629,6.56-6.499
			v0.064c0.078-1.87-1.837-5.766-6.56-6.499c-5.627-0.879-6.818-5.567-6.818-5.567c-3.873,3.564,0.815,8.125,0.815,8.125
			C142.993,260.894,136.897,265.707,136.897,265.707L136.897,265.707L136.897,265.707z"/>
		<path id="path4113"  fill="#FCDD09" stroke="#000000" stroke-width="0.5" d="M137.23,182.041
			c0,0,6.096,4.872,10.159,3.935c0,0-4.689,4.565-0.812,8.125c0,0,1.187-4.688,6.813-5.562c4.724-0.732,6.637-4.629,6.564-6.499
			v0.063c0.074-1.87-1.841-5.766-6.564-6.504c-5.627-0.874-6.813-5.562-6.813-5.562c-3.877,3.565,0.812,8.125,0.812,8.125
			C143.326,177.226,137.23,182.041,137.23,182.041L137.23,182.041L137.23,182.041z"/>
		<path id="path4117"  fill="#FCDD09" stroke="#000000" stroke-width="0.5" d="M137.23,105.038
			c0,0,6.096,4.872,10.159,3.935c0,0-4.689,4.566-0.812,8.125c0,0,1.187-4.688,6.813-5.562c4.724-0.732,6.637-4.629,6.564-6.499
			v0.064c0.074-1.87-1.841-5.766-6.564-6.499c-5.627-0.88-6.813-5.563-6.813-5.563c-3.877,3.56,0.812,8.125,0.812,8.125
			C143.326,100.223,137.23,105.038,137.23,105.038L137.23,105.038L137.23,105.038z"/>
		<path id="path4121"  fill="#FCDD09" stroke="#000000" stroke-width="0.5" d="M137.562,21.704
			c0,0,6.096,4.877,10.159,3.94c0,0-4.689,4.561-0.81,8.125c0,0,1.187-4.688,6.813-5.562c4.723-0.737,6.644-4.629,6.565-6.499v0.059
			c0.074-1.87-1.842-5.766-6.565-6.499c-5.627-0.875-6.813-5.563-6.813-5.563c-3.878,3.56,0.81,8.125,0.81,8.125
			C143.657,16.893,137.562,21.704,137.562,21.704L137.562,21.704L137.562,21.704z"/>
	</g>
	<g id="perles">
		
			<path id="path3961"  fill="#FFFFFF" stroke="#000000" stroke-width="0.25" stroke-miterlimit="10" d="
			M206.41,425.165c0,4.14-3.356,7.5-7.502,7.5c-4.142,0-7.502-3.361-7.502-7.5c0-4.146,3.359-7.5,7.502-7.5
			C203.054,417.666,206.41,421.019,206.41,425.165L206.41,425.165z"/>
		
			<path id="path3965"  fill="#FFFFFF" stroke="#000000" stroke-width="0.25" stroke-miterlimit="10" d="
			M206.41,325.165c0,4.14-3.356,7.5-7.502,7.5c-4.142,0-7.502-3.361-7.502-7.5c0-4.141,3.359-7.5,7.502-7.5
			C203.054,317.666,206.41,321.025,206.41,325.165L206.41,325.165z"/>
		
			<path id="path3969"  fill="#FFFFFF" stroke="#000000" stroke-width="0.25" stroke-miterlimit="10" d="
			M206.41,225.166c0,4.14-3.356,7.499-7.502,7.499c-4.142,0-7.502-3.361-7.502-7.499c0-4.141,3.359-7.499,7.502-7.499
			C203.054,217.665,206.41,221.025,206.41,225.166L206.41,225.166z"/>
		
			<path id="path3973"  fill="#FFFFFF" stroke="#000000" stroke-width="0.25" stroke-miterlimit="10" d="
			M206.41,125.166c0,4.14-3.356,7.499-7.502,7.499c-4.142,0-7.502-3.361-7.502-7.499c0-4.141,3.359-7.499,7.502-7.499
			C203.054,117.665,206.41,121.025,206.41,125.166L206.41,125.166z"/>
		
			<path id="path3977"  fill="#FFFFFF" stroke="#000000" stroke-width="0.25" stroke-miterlimit="10" d="
			M206.41,25.166c0,4.145-3.356,7.499-7.502,7.499c-4.142,0-7.502-3.356-7.502-7.499c0-4.141,3.359-7.499,7.502-7.499
			C203.054,17.665,206.41,21.024,206.41,25.166L206.41,25.166z"/>
		<g>
			<polygon id="polygon4165" fill="#FCDD09" stroke="#000000" stroke-width="0.25" stroke-miterlimit="10" points="186.463,75.589 
				198.882,63.168 211.299,75.589 198.882,88.007 			"/>
			<polygon id="polygon4169" fill="#DA121A" stroke="#000000" stroke-width="0.25" stroke-miterlimit="10" points="187.376,75.678 
				191.122,79.423 195.044,79.423 195.044,83.344 198.795,87.089 198.966,87.089 202.717,83.344 202.717,79.423 206.639,79.423 
				210.385,75.678 210.385,75.502 206.639,71.757 202.717,71.757 202.717,67.836 198.966,64.086 198.795,64.086 195.044,67.836 
				195.044,71.757 191.122,71.757 187.376,75.502 			"/>
			
				<path id="path4173"  fill="#FCDD09" stroke="#000000" stroke-width="0.25" stroke-miterlimit="10" d="
				M193.667,65.692c0.563,0.563-0.029,2.061-1.318,3.35c-1.291,1.284-2.784,1.875-3.346,1.314c-0.562-0.562,0.034-2.057,1.32-3.346
				C191.611,65.727,193.105,65.135,193.667,65.692L193.667,65.692L193.667,65.692z"/>
			
				<path id="path4177"  fill="#FCDD09" stroke="#000000" stroke-width="0.25" stroke-miterlimit="10" d="
				M204.114,65.692c-0.562,0.563,0.029,2.061,1.318,3.35c1.291,1.284,2.784,1.875,3.346,1.314c0.562-0.562-0.029-2.057-1.318-3.346
				C206.17,65.727,204.671,65.135,204.114,65.692L204.114,65.692z"/>
			
				<path id="path4181"  fill="#FCDD09" stroke="#000000" stroke-width="0.25" stroke-miterlimit="10" d="
				M204.114,85.459c-0.562-0.557,0.029-2.057,1.318-3.346c1.291-1.289,2.789-1.88,3.346-1.322c0.562,0.562-0.029,2.059-1.318,3.349
				C206.17,85.43,204.671,86.019,204.114,85.459L204.114,85.459z"/>
			
				<path id="path4185"  fill="#FCDD09" stroke="#000000" stroke-width="0.25" stroke-miterlimit="10" d="
				M193.672,85.464c-0.562,0.562-2.06-0.03-3.349-1.324c-1.286-1.289-1.876-2.788-1.32-3.346c0.562-0.557,2.061,0.035,3.346,1.324
				C193.638,83.407,194.229,84.907,193.672,85.464L193.672,85.464z"/>
			
				<path id="path4189"  fill="#FCDD09" stroke="#000000" stroke-width="0.25" stroke-miterlimit="10" d="
				M194.956,61.435c0-0.644,1.446-1.235,3.111-1.396c0.336-0.034,0.815-0.449,0.815-0.449s0.484,0.424,0.743,0.449
				c1.797,0.132,3.233,0.722,3.233,1.396c0,0.776-1.768,1.401-3.951,1.401C196.73,62.836,194.956,62.211,194.956,61.435
				L194.956,61.435z"/>
			
				<path id="path4193"  fill="#FCDD09" stroke="#000000" stroke-width="0.25" stroke-miterlimit="10" d="
				M202.86,89.746c0,0.639-1.441,1.235-3.111,1.401c-0.338,0.029-0.817,0.444-0.817,0.444s-0.483-0.425-0.738-0.444
				c-1.802-0.138-3.237-0.727-3.237-1.401c0-0.776,1.773-1.401,3.956-1.401C201.091,88.344,202.86,88.97,202.86,89.746
				L202.86,89.746z"/>
			
				<path id="path4197"  fill="#FCDD09" stroke="#000000" stroke-width="0.25" stroke-miterlimit="10" d="
				M184.749,79.545c-0.645,0-1.237-1.45-1.398-3.115c-0.034-0.336-0.444-0.815-0.444-0.815s0.425-0.479,0.444-0.737
				c0.128-1.801,0.719-3.238,1.398-3.238c0.777,0,1.402,1.772,1.402,3.95C186.15,77.772,185.525,79.545,184.749,79.545
				L184.749,79.545L184.749,79.545z"/>
			
				<path id="path4201"  fill="#FCDD09" stroke="#000000" stroke-width="0.25" stroke-miterlimit="10" d="
				M213.067,71.639c0.645,0,1.236,1.446,1.402,3.111c0.034,0.336,0.445,0.815,0.445,0.815s-0.425,0.479-0.445,0.737
				c-0.131,1.801-0.723,3.238-1.402,3.238c-0.772,0-1.397-1.767-1.397-3.951C211.671,73.407,212.295,71.639,213.067,71.639
				L213.067,71.639L213.067,71.639z"/>
		</g>
		<g>
			
				<path id="path4205"  fill="#FCDD09" stroke="#000000" stroke-width="0.25" stroke-miterlimit="10" d="
				M196.661,192.333c0,1.24,1.007,2.246,2.248,2.246s2.253-1.007,2.253-2.246c0-1.245-1.012-2.246-2.253-2.246
				C197.668,190.087,196.661,191.088,196.661,192.333L196.661,192.333z"/>
			
				<path id="path4209"  fill="#FCDD09" stroke="#000000" stroke-width="0.25" stroke-miterlimit="10" d="
				M196.661,157.079c0,1.24,1.007,2.246,2.248,2.246s2.253-1.007,2.253-2.246s-1.012-2.246-2.253-2.246
				C197.668,154.833,196.661,155.84,196.661,157.079L196.661,157.079z"/>
			
				<path id="path4213"  fill="#FCDD09" stroke="#000000" stroke-width="0.25" stroke-miterlimit="10" d="
				M207.236,174.754c0,8.184-3.741,14.815-8.357,14.815c-4.615,0-8.361-6.631-8.361-14.815c0-8.183,3.746-14.818,8.361-14.818
				C203.494,159.936,207.236,166.572,207.236,174.754L207.236,174.754z"/>
			
				<path id="path4217"  fill="#078930" stroke="#000000" stroke-width="0.25" stroke-miterlimit="10" d="
				M205.926,174.613c0-6.993-2.754-12.739-6.286-13.427c-0.235-0.049-0.733,0.879-0.733,0.879s-0.469-0.923-0.709-0.879
				c-3.526,0.702-6.276,6.445-6.276,13.427c0,0.02,0,0.044,0,0.069c0,0.029,0,0.049,0,0.073c0,6.993,2.754,12.74,6.286,13.428
				c0.24,0.044,0.738-0.879,0.738-0.879s0.469,0.923,0.708,0.874c3.527-0.698,6.272-6.442,6.272-13.423c0-0.024,0-0.044,0-0.073
				C205.926,174.656,205.926,174.633,205.926,174.613L205.926,174.613L205.926,174.613z"/>
			
				<path id="path4221"  fill="#FCDD09" stroke="#000000" stroke-width="0.25" stroke-miterlimit="10" d="
				M209.867,174.754c0-0.62-0.503-1.127-1.123-1.127s-1.124,0.503-1.124,1.127c0,0.622,0.504,1.123,1.124,1.123
				C209.365,175.879,209.867,175.376,209.867,174.754L209.867,174.754z"/>
			
				<path id="path4225"  fill="#FCDD09" stroke="#000000" stroke-width="0.25" stroke-miterlimit="10" d="
				M190.13,174.754c0-0.62-0.503-1.127-1.128-1.127c-0.62,0-1.124,0.503-1.124,1.127c0,0.622,0.504,1.123,1.124,1.123
				C189.627,175.879,190.13,175.376,190.13,174.754L190.13,174.754z"/>
			
				<path id="path4229"  fill="#FCDD09" stroke="#000000" stroke-width="0.25" stroke-miterlimit="10" d="
				M206.073,187.84c0-0.626-0.503-1.127-1.123-1.127s-1.124,0.503-1.124,1.127c0,0.62,0.504,1.123,1.124,1.123
				C205.57,188.965,206.073,188.461,206.073,187.84L206.073,187.84z"/>
			
				<path id="path4233"  fill="#FCDD09" stroke="#000000" stroke-width="0.25" stroke-miterlimit="10" d="
				M193.92,187.84c0-0.626-0.503-1.127-1.123-1.127s-1.123,0.503-1.123,1.127c0,0.62,0.503,1.123,1.123,1.123
				C193.418,188.965,193.92,188.461,193.92,187.84L193.92,187.84z"/>
			
				<path id="path4237"  fill="#FCDD09" stroke="#000000" stroke-width="0.25" stroke-miterlimit="10" d="
				M190.902,181.591c0-1.245-1.006-2.251-2.246-2.251c-1.247,0-2.253,1.007-2.253,2.251c0,1.24,1.006,2.246,2.253,2.246
				C189.896,183.837,190.902,182.83,190.902,181.591L190.902,181.591z"/>
			
				<path id="path4241"  fill="#FCDD09" stroke="#000000" stroke-width="0.25" stroke-miterlimit="10" d="
				M211.412,181.518c0-1.241-1.007-2.246-2.248-2.246s-2.248,1.005-2.248,2.246c0,1.24,1.007,2.245,2.248,2.245
				S211.412,182.758,211.412,181.518L211.412,181.518z"/>
			
				<path id="path4245"  fill="#FCDD09" stroke="#000000" stroke-width="0.25" stroke-miterlimit="10" d="
				M191.742,161.572c0,0.626,0.504,1.127,1.129,1.127c0.62,0,1.123-0.503,1.123-1.127c0-0.622-0.503-1.124-1.123-1.124
				C192.246,160.449,191.742,160.951,191.742,161.572L191.742,161.572z"/>
			
				<path id="path4249"  fill="#FCDD09" stroke="#000000" stroke-width="0.25" stroke-miterlimit="10" d="
				M203.894,161.572c0,0.626,0.503,1.127,1.123,1.127c0.625,0,1.129-0.503,1.129-1.127c0-0.622-0.504-1.124-1.129-1.124
				C204.397,160.449,203.894,160.951,203.894,161.572L203.894,161.572z"/>
			
				<path id="path4253"  fill="#FCDD09" stroke="#000000" stroke-width="0.25" stroke-miterlimit="10" d="
				M206.918,167.821c0,1.245,1.007,2.25,2.248,2.25s2.248-1.005,2.248-2.25c0-1.241-1.007-2.246-2.248-2.246
				S206.918,166.58,206.918,167.821L206.918,167.821z"/>
			
				<path id="path4257"  fill="#FCDD09" stroke="#000000" stroke-width="0.25" stroke-miterlimit="10" d="
				M186.404,167.894c0,1.24,1.006,2.246,2.253,2.246c1.241,0,2.246-1.007,2.246-2.246c0-1.24-1.006-2.246-2.246-2.246
				C187.41,165.648,186.404,166.654,186.404,167.894L186.404,167.894z"/>
		</g>
		<g>
			<path id="path4261"  fill="#FCDD09" stroke="#000000" stroke-width="0.25" d="M196.661,390.733
				c0,1.245,1.007,2.251,2.248,2.251s2.253-1.007,2.253-2.251c0-1.24-1.012-2.246-2.253-2.246
				C197.668,388.487,196.661,389.493,196.661,390.733L196.661,390.733z"/>
			<path id="path4265"  fill="#FCDD09" stroke="#000000" stroke-width="0.25" d="M196.661,355.484
				c0,1.24,1.007,2.246,2.248,2.246s2.253-1.007,2.253-2.246c0-1.245-1.012-2.246-2.253-2.246
				C197.668,353.238,196.661,354.24,196.661,355.484L196.661,355.484z"/>
			<path id="path4269"  fill="#FCDD09" stroke="#000000" stroke-width="0.25" d="M207.236,373.156
				c0,8.184-3.741,14.818-8.357,14.818c-4.615,0-8.361-6.635-8.361-14.818s3.746-14.815,8.361-14.815
				C203.494,358.341,207.236,364.972,207.236,373.156L207.236,373.156z"/>
			<path id="path4273"  fill="#078930" stroke="#000000" stroke-width="0.25" d="M205.926,373.013
				c0-6.987-2.754-12.734-6.286-13.422c-0.235-0.049-0.733,0.879-0.733,0.879s-0.469-0.922-0.709-0.879
				c-3.526,0.703-6.276,6.445-6.276,13.422c0,0.025,0,0.05,0,0.074c0,0.025,0,0.049,0,0.074c0,6.988,2.754,12.734,6.286,13.427
				c0.235,0.044,0.738-0.879,0.738-0.879s0.469,0.923,0.708,0.874c3.522-0.698,6.272-6.445,6.272-13.422c0-0.025,0-0.049,0-0.074
				C205.926,373.063,205.926,373.038,205.926,373.013L205.926,373.013L205.926,373.013z"/>
			<path id="path4277"  fill="#FCDD09" stroke="#000000" stroke-width="0.25" d="M209.867,373.161
				c0-0.62-0.503-1.128-1.123-1.128s-1.124,0.509-1.124,1.128s0.504,1.123,1.124,1.123
				C209.365,374.283,209.867,373.781,209.867,373.161L209.867,373.161z"/>
			<path id="path4281"  fill="#FCDD09" stroke="#000000" stroke-width="0.25" d="M190.13,373.161
				c0-0.62-0.503-1.128-1.128-1.128c-0.62,0-1.124,0.509-1.124,1.128s0.504,1.123,1.124,1.123
				C189.627,374.283,190.13,373.781,190.13,373.161L190.13,373.161z"/>
			<path id="path4285"  fill="#FCDD09" stroke="#000000" stroke-width="0.25" d="M206.073,386.242
				c0-0.622-0.503-1.123-1.123-1.123s-1.124,0.503-1.124,1.123c0,0.62,0.504,1.123,1.124,1.123
				C205.57,387.364,206.073,386.862,206.073,386.242L206.073,386.242z"/>
			<path id="path4289"  fill="#FCDD09" stroke="#000000" stroke-width="0.25" d="M193.92,386.242
				c0-0.622-0.503-1.123-1.123-1.123s-1.123,0.503-1.123,1.123c0,0.62,0.503,1.123,1.123,1.123
				C193.418,387.364,193.92,386.862,193.92,386.242L193.92,386.242z"/>
			<path id="path4293"  fill="#FCDD09" stroke="#000000" stroke-width="0.25" d="M190.902,379.992
				c0-1.241-1.006-2.246-2.246-2.246c-1.247,0-2.253,1.005-2.253,2.246c0,1.245,1.006,2.245,2.253,2.245
				C189.896,382.237,190.902,381.237,190.902,379.992L190.902,379.992z"/>
			<path id="path4297"  fill="#FCDD09" stroke="#000000" stroke-width="0.25" d="M211.412,379.923
				c0-1.24-1.007-2.246-2.248-2.246s-2.248,1.007-2.248,2.246s1.007,2.246,2.248,2.246S211.412,381.163,211.412,379.923
				L211.412,379.923z"/>
			<path id="path4301"  fill="#FCDD09" stroke="#000000" stroke-width="0.25" d="M191.742,359.977
				c0,0.62,0.504,1.123,1.129,1.123c0.62,0,1.123-0.503,1.123-1.123c0-0.62-0.503-1.124-1.123-1.124
				C192.246,358.852,191.742,359.356,191.742,359.977L191.742,359.977z"/>
			<path id="path4305"  fill="#FCDD09" stroke="#000000" stroke-width="0.25" d="M203.894,359.977
				c0,0.62,0.503,1.123,1.123,1.123c0.625,0,1.129-0.503,1.129-1.123c0-0.62-0.504-1.124-1.129-1.124
				C204.397,358.852,203.894,359.356,203.894,359.977L203.894,359.977z"/>
			<path id="path4309"  fill="#FCDD09" stroke="#000000" stroke-width="0.25" d="M206.918,366.227
				c0,1.24,1.007,2.246,2.248,2.246s2.248-1.007,2.248-2.246c0-1.24-1.007-2.246-2.248-2.246S206.918,364.987,206.918,366.227
				L206.918,366.227z"/>
			<path id="path4313"  fill="#FCDD09" stroke="#000000" stroke-width="0.25" d="M186.404,366.299
				c0,1.241,1.006,2.246,2.253,2.246c1.241,0,2.246-1.005,2.246-2.246c0-1.245-1.006-2.245-2.246-2.245
				C187.41,364.054,186.404,365.055,186.404,366.299L186.404,366.299z"/>
		</g>
		<g>
			<polygon id="rect4125" fill="#FCDD09" stroke="#000000" stroke-width="0.25" points="211.316,275.314 198.895,287.73 
				186.477,275.316 198.896,262.899 			"/>
			<polygon id="polygon4129" fill="#DA121A" stroke="#000000" stroke-width="0.25" stroke-miterlimit="10" points="187.376,275.512 
				191.122,279.257 195.049,279.257 195.049,283.178 198.795,286.923 198.971,286.923 202.717,283.178 202.717,279.257 
				206.639,279.257 210.385,275.512 210.385,275.331 206.639,271.591 202.717,271.591 202.717,267.67 198.971,263.919 
				198.795,263.919 195.049,267.67 195.049,271.591 191.122,271.591 187.376,275.336 			"/>
			<path id="path4133"  fill="#FCDD09" stroke="#000000" stroke-width="0.25" d="M193.662,265.532
				c0.563,0.562-0.029,2.056-1.318,3.344c-1.286,1.29-2.784,1.88-3.346,1.319c-0.562-0.557,0.029-2.057,1.32-3.345
				C191.606,265.56,193.105,264.97,193.662,265.532L193.662,265.532L193.662,265.532z"/>
			<path id="path4137"  fill="#FCDD09" stroke="#000000" stroke-width="0.25" d="M204.099,265.526
				c0.562-0.563,2.057,0.029,3.346,1.317c1.289,1.29,1.881,2.789,1.323,3.345c-0.562,0.562-2.06-0.029-3.349-1.319
				C204.129,267.582,203.537,266.088,204.099,265.526L204.099,265.526L204.099,265.526z"/>
			<path id="path4141"  fill="#FCDD09" stroke="#000000" stroke-width="0.25" d="M204.089,285.296
				c-0.556-0.562,0.035-2.059,1.324-3.35c1.284-1.289,2.783-1.88,3.346-1.317c0.556,0.556-0.035,2.056-1.324,3.344
				C206.147,285.263,204.651,285.853,204.089,285.296L204.089,285.296z"/>
			<path id="path4145"  fill="#FCDD09" stroke="#000000" stroke-width="0.25" d="M193.687,285.302
				c-0.562,0.556-2.06-0.034-3.351-1.324c-1.284-1.289-1.876-2.788-1.318-3.344c0.562-0.563,2.061,0.029,3.349,1.317
				C193.653,283.242,194.242,284.741,193.687,285.302L193.687,285.302z"/>
			<path id="path4149"  fill="#FCDD09" stroke="#000000" stroke-width="0.25" d="M194.956,261.268
				c0-0.644,1.446-1.235,3.111-1.401c0.336-0.029,0.815-0.444,0.815-0.444s0.484,0.425,0.743,0.444
				c1.797,0.133,3.233,0.722,3.233,1.401c0,0.772-1.768,1.401-3.951,1.401C196.73,262.67,194.956,262.041,194.956,261.268
				L194.956,261.268z"/>
			<path id="path4153"  fill="#FCDD09" stroke="#000000" stroke-width="0.25" d="M202.86,289.579
				c0,0.639-1.441,1.235-3.111,1.396c-0.338,0.034-0.817,0.444-0.817,0.444s-0.483-0.424-0.738-0.444
				c-1.802-0.132-3.237-0.722-3.237-1.396c0-0.776,1.773-1.401,3.956-1.401C201.091,288.178,202.86,288.803,202.86,289.579
				L202.86,289.579z"/>
			<path id="path4157"  fill="#FCDD09" stroke="#000000" stroke-width="0.25" d="M184.749,279.375
				c-0.645,0-1.237-1.445-1.398-3.111c-0.034-0.336-0.444-0.815-0.444-0.815s0.425-0.484,0.444-0.737
				c0.128-1.801,0.719-3.238,1.398-3.238c0.777,0,1.402,1.772,1.402,3.951C186.15,277.607,185.525,279.375,184.749,279.375
				L184.749,279.375L184.749,279.375z"/>
			<path id="path4161"  fill="#FCDD09" stroke="#000000" stroke-width="0.25" d="M213.067,271.473
				c0.645,0,1.236,1.442,1.402,3.111c0.034,0.336,0.445,0.815,0.445,0.815s-0.425,0.479-0.445,0.737
				c-0.131,1.801-0.723,3.238-1.402,3.238c-0.772,0-1.397-1.772-1.397-3.95C211.671,273.242,212.295,271.473,213.067,271.473
				L213.067,271.473L213.067,271.473z"/>
		</g>
	</g>
</g>
</svg>
