<?xml version="1.0" encoding="ISO-8859-1" standalone="no"?>
<!DOCTYPE svg PUBLIC "-//W3C//DTD SVG 20010904//EN"
    "http://www.w3.org/TR/2001/REC-SVG-20010904/DTD/svg10.dtd">
<svg xmlns="http://www.w3.org/2000/svg"
     xmlns:xlink="http://www.w3.org/1999/xlink" xml:space="preserve"
	 width="600px" height="300px"
	 viewBox="0 0 600 300">
<defs>
<g id="star" fill="yellow">
<path d="M 15,-4.88 L -9.27,14.26 L 0,-15.76 L 9.27,14.26 L -15,-4.88 z"/>
</g>
<g id="arrow" fill="yellow">
<path d="M -6,-50 L 0,-85 L 6,-50 L 3,-50 L 3,50 L 6,56 L 6,81 L 0,71 L -6,81 L -6,56 L -3,50 L -3,-50 Z" />
</g>
</defs>
<rect fill="#2a6b11" width="600" height="300" x="0" y="0" />
<use x="50" y="210" xlink:href="#star" />
<use x="110" y="120" xlink:href="#star" />
<use x="170" y="70" xlink:href="#star" />
<use x="235" y="40" xlink:href="#star" />
<use x="300" y="30" xlink:href="#star" />
<use x="365" y="40" xlink:href="#star" />
<use x="430" y="70" xlink:href="#star" />
<use x="490" y="120" xlink:href="#star" />
<use x="550" y="210" xlink:href="#star" />
<use x="225" y="95" xlink:href="#star" />
<use x="300" y="95" xlink:href="#star" />
<use x="375" y="95" xlink:href="#star" />

<use x="300" y="200" xlink:href="#arrow" />
<use xlink:href="#arrow" transform="translate (300,200) rotate(45)" />
<use xlink:href="#arrow" transform="translate (300,200) rotate(-45)" />

</svg>
