<?xml version="1.0" encoding="utf-8"?>
<!-- Generator: Adobe Illustrator 16.0.2, SVG Export Plug-In . SVG Version: 6.00 Build 0)  -->
<!DOCTYPE svg PUBLIC "-//W3C//DTD SVG 1.1//EN" "http://www.w3.org/Graphics/SVG/1.1/DTD/svg11.dtd">
<svg version="1.1" id="Layer_1" xmlns:odm="http://product.corel.com/CGS/11/cddns/"
	 xmlns="http://www.w3.org/2000/svg" xmlns:xlink="http://www.w3.org/1999/xlink" x="0px" y="0px" width="1023px" height="682px"
	 viewBox="0 0 1023 682" enable-background="new 0 0 1023 682" xml:space="preserve">
<path fill="#FF0000" d="M0,0.333h1023v681.334H0V0.333z"/>
<g id="Layer1">
	<rect x="-13.986" y="449.894" fill="#FFE626" width="1065.958" height="115.887"/>
	<path fill="#FCF8FE" stroke="#000000" stroke-width="2" d="M313.693,186.151c16.983-6.993,25.975-17.982,22.978-31.969
		c8.991,5.994,9.99,13.986,8.991,21.979c0-5.994,1.998-11.988-2.997-18.981c-1.998-2.997-0.999-4.995,0-7.992
		c1.998,3.996,4.995,6.993,6.993,10.989c0-2.997,0.999-5.994,0.999-9.99c8.991,9.99,4.995,18.981,2.997,28.972
		c1.998-9.99,3.996-18.981,6.993-23.977c2.997,4.995,2.997,6.993,2.997,19.98c2.997-5.994,2.997-11.988,6.993-18.981
		c2.997,6.993,1.998,12.987,1.998,19.98c0-5.994,0.999-11.988,4.995-16.983c1.998,4.995,0.999,10.989-0.999,16.983
		c1.998-4.995,2.997-8.991,7.992-11.988c0.999,1.998,0.999,3.996-0.999,5.994c2.997-1.998,2.997,0,4.995-1.998
		c0,5.994-1.998,7.992-4.995,14.985c1.998-3.996,1.998-7.992,6.993-9.99c1.998,7.992-4.995,12.987-10.989,18.981
		c3.996-3.996,7.992-8.991,12.987-11.988c0.999,2.997,0,5.994-0.999,8.991c11.988-0.999,17.982,15.984,20.979,43.957
		c0.999,3.996,1.998,8.991,0.999,12.987c-0.999,1.998-2.997,1.998-4.995,0.999c3.996,14.985,0,29.971-3.996,43.957
		c10.989-58.942,35.965-81.92,62.938-99.902c7.992-26.974,19.98-31.969,31.969-32.968c35.965,0,71.93-0.999,106.896-0.999
		c9.99,0,20.979,3.996,34.966,16.983c2.997,3.996,2.997,6.993-0.999,6.993c4.995,1.998,6.993,6.993,7.992,12.987
		c0,2.997-1.998,1.998-3.996,1.998c1.998,0.999,4.995,0.999,6.993,5.994c-0.999,4.995-2.997,3.996-4.995,2.997
		c2.997,3.996,7.992,6.993,5.994,14.985c12.987,14.985,26.974,28.972,34.966,47.953c26.974,25.975,42.958,59.941,48.952,100.901
		c0.999,4.995,1.998,9.99,1.998,14.985c-8.991-8.991-11.988-19.98-12.987-32.968c-0.999,2.997-2.997,5.994-4.995,7.992
		c-1.998-4.995-2.997-9.99-2.997-14.985c-0.999,2.997-1.998,2.997-3.996,1.998c-0.999-5.994-0.999-11.988,0-18.981
		c-0.999,11.988-2.997,10.989-6.993,5.994c-0.999-22.978-4.995-41.959-13.986-46.954c5.994,13.986,8.991,28.972,8.991,42.958
		c-1.998-0.999-3.996-2.997-5.994-4.995c3.996,4.995,3.996,10.989,3.996,17.982c-0.999-1.998-2.997-2.997-4.995-4.995
		c7.992,8.991,5.994,19.98,6.993,29.971c5.994,11.988,11.988,24.976,14.985,37.963c2.997,2.997,5.994,4.995,8.991,4.995
		c-0.999,19.98-2.997,38.962-4.995,58.942c0.999,9.99,0.999,18.981,0.999,28.972c-7.992,2.997-14.985,7.992-15.984,15.984
		c-14.985,0-28.972,0-42.958,0c4.995-8.991,11.988-15.984,24.976-15.984c4.995-14.985,9.99-10.989,15.984-31.969
		c0-8.991,0-17.982,0-26.974c-1.998-10.989-5.994-18.981-10.989-25.975c-4.995-13.986-11.988-24.976-20.979-32.968
		c0,11.988-0.999,24.976-0.999,36.964c4.995,4.995,4.995,9.99,0,15.984c-11.988,19.98-23.977,39.961-27.973,57.943
		c-1.998,8.991-5.994,11.988-10.989,11.988c-7.992,3.996-12.987,6.993-17.982,10.989c-12.987,0-24.976,0-37.963,0
		c3.996-13.986,15.984-17.982,31.969-16.983c1.998-4.995,3.996-8.991,9.99-12.987c10.989-9.99,20.979-22.978,27.973-48.952
		c0-12.987-2.997-21.979-4.995-31.969c-4.995-11.988-9.99-23.977-14.985-35.965c-4.995-6.993-9.99-12.987-15.984-19.98
		c-9.99,3.996-18.981,9.99-30.97,6.993c2.997,6.993-6.993,3.996-11.988,1.998c9.99,8.991-19.98,2.997-21.979,1.998
		c5.994,7.992-4.995,5.994-14.985,3.996c2.997,16.983,6.993,33.967,2.997,50.95c-1.998-4.995-3.996-8.991-5.994-12.987
		c9.99,20.979,6.993,42.958,7.992,64.937c2.997,11.988,3.996,22.978,1.998,35.965c-2.997,0-5.994,0-8.991,0
		c-4.995,4.995-9.99,9.99-14.985,14.985c-12.987,0-24.976-0.999-37.963-0.999c2.997-8.991,10.989-14.985,24.976-17.982
		c4.995-6.993,10.989-12.987,18.981-17.982c0-5.994,0-11.988,0-16.983c-1.998-16.983-5.994-30.97-15.984-41.959
		c-0.999-11.988-4.995-22.978-10.989-33.967c-2.997,5.994-6.993,11.988-10.989,18.981c0,10.989-11.988,24.976-11.988,33.967
		c-1.998,17.982-2.997,36.964-2.997,54.946c-5.994,4.995-12.987,10.989-20.979,19.98c-12.987,0-25.975,0.999-39.961,0.999
		c1.998-9.99,7.992-15.984,21.979-18.981c2.997-0.999,5.994-2.997,7.992-8.991c3.996-4.995,8.991-9.99,14.985-14.985
		c1.998-13.986,2.997-27.973,2.997-40.96c0-3.996-1.998-8.991-5.994-13.986c0.999-8.991,0.999-16.983,1.998-25.975
		c-3.996,0.999-5.994-0.999,2.997-14.985c-8.991,16.983-10.989,15.984-5.994-2.997c-14.985,23.977-6.993-1.998-3.996-16.983
		c-1.998,6.993-0.999,14.985-8.991,19.98c0.999-8.991,0.999-17.982-1.998-24.976c0.999-12.987,0.999-17.982-0.999-24.976
		c3.996,10.989,0.999,20.979-4.995,31.969c-7.992,10.989-12.987,22.978-17.982,34.966c-2.997,0-3.996-4.995-2.997-12.987
		c-0.999,5.994-2.997,11.988-2.997,18.981c-2.997-2.997-3.996-5.994-4.995-9.99c-0.999,9.99-4.995,14.985-10.989,16.983
		c1.998-4.995,2.997-8.991,2.997-13.986c-0.999-4.995-1.998-8.991-1.998-12.987c1.998,12.987-1.998,19.98-5.994,23.977
		c-8.991-19.98-31.969-25.975-32.968-51.949c-1.998,5.994-2.997,12.987-0.999,21.979c-11.988-11.988-12.987-25.975-10.989-40.96
		c-1.998,5.994-3.996,12.987-3.996,20.979c-6.993-13.986-4.995-26.974,0-39.961c-0.999,6.993-3.996,12.987-8.991,17.982
		c1.998-8.991,2.997-16.983,2.997-24.976c-1.998,3.996-4.995,6.993-7.992,7.992c5.994-15.984,0.999-34.966,7.992-46.954
		c-1.998,0-3.996,0-5.994,0c-1.998,0.999-2.997,2.997-3.996,3.996c-0.999-1.998-0.999-2.997-0.999-4.995
		c-0.999,1.998-2.997,3.996-5.994,4.995c0-2.997,0.999-5.994,1.998-9.99c-0.999-18.981,0-34.966,8.991-38.962
		c-4.995,0.999-10.989,3.996-16.983,7.992c-3.996,1.998-6.993,0.999-9.99-5.994c-7.992,0-10.989-2.997-7.992-11.988
		c0.999-1.998,1.998-4.995,3.996-7.992C291.715,196.142,301.705,191.146,313.693,186.151z"/>
	<path fill="none" stroke="#000000" stroke-width="2" d="M609.404,346.994c-14.985-27.973-16.983-57.943-11.988-91.91"/>
	<path fill="#FFE626" stroke="#000000" stroke-width="2" d="M486.524,177.16c-17.982,55.945-9.99,84.917,21.979,90.911
		c10.989,0.999,27.973-8.991,43.957-7.992c46.954,9.99,65.936-8.991,68.933-42.958c1.998-27.973-2.997-45.955-11.988-50.95
		C568.444,170.167,527.484,174.163,486.524,177.16z"/>
	<path fill="#FFE626" stroke="#000000" stroke-width="2" d="M485.525,124.212c4.995-15.984,25.975-23.977,67.934-14.985
		c22.978-7.992,51.949-2.997,54.946,12.987c0.999,5.994,0.999,10.989,0.999,16.983c8.991,28.972,4.995,57.943-27.973,65.936
		c-8.991,0-17.982,0-27.973-2.997c-32.968,13.986-67.934,10.989-67.934-28.972c0-8.991,0.999-18.981,1.998-27.973
		C486.524,138.198,485.525,131.205,485.525,124.212z"/>
	<path fill="none" stroke="#000000" stroke-width="2" d="M529.482,361.979c-9.99,0-18.981-1.998-27.973-3.996"/>
	<path fill="none" stroke="#000000" stroke-width="2" d="M501.51,357.983c-2.997,8.991-5.994,17.982-9.99,26.974"/>
	<path fill="none" stroke="#000000" stroke-width="2" d="M501.51,292.048c13.986,37.963,3.996,27.973,3.996,31.969
		c0.999,12.987-0.999,19.98-2.997,22.978c-1.998,3.996-1.998,6.993-0.999,10.989"/>
	<path fill="none" stroke="#000000" stroke-width="2" d="M617.396,328.013c0,9.99,6.993,21.979,7.992,38.962"/>
	<path fill="none" stroke="#000000" stroke-width="2" d="M692.323,286.054c-2.997-3.996-5.994-5.994-8.991-7.992
		c5.994,11.988,5.994,23.977,5.994,35.965c-0.999,0.999-1.998,0-2.997-0.999c0.999,5.994,0.999,10.989,0,16.983
		c0-0.999-0.999-1.998-1.998-2.997c0.999,5.994,0,11.988-0.999,17.982c-0.999,0-1.998-0.999-2.997-1.998
		c0.999,4.995,0,8.991-1.998,13.986c0-0.999-0.999-1.998-1.998-1.998c0.999,2.997,0.999,6.993,0.999,9.99
		c-0.999-0.999-1.998-0.999-2.997-1.998c0.999,1.998,0.999,4.995,0,7.992c0-0.999-0.999-0.999-0.999-1.998
		c-0.999,3.996-0.999,6.993-1.998,9.99"/>
	<path fill="none" stroke="#000000" stroke-width="2" d="M285.721,207.131c4.995-2.997,8.991-4.995,12.987-6.993
		c1.998,0,1.998,0.999-1.998,1.998"/>
	<path fill="none" stroke="#000000" stroke-width="2" d="M291.715,225.113c4.995-5.994,10.989-9.99,19.98-12.987
		c1.998-0.999,2.997,0.999,2.997,1.998"/>
	<circle fill="none" stroke="#000000" stroke-width="2" cx="330.677" cy="190.147" r="3.996"/>
	<path fill="none" stroke="#000000" stroke-width="2" d="M322.685,191.146c2.997-8.991,7.992-10.989,16.983-5.994
		C333.674,186.151,327.68,188.149,322.685,191.146z"/>
	<path fill="none" stroke="#000000" stroke-width="2" d="M352.655,183.154c3.996-3.996,12.987-5.994,27.973-3.996
		c-1.998,3.996-5.994,8.991-11.988,13.986"/>
	<path fill="none" stroke="#000000" stroke-width="2" d="M355.652,187.15c4.995-2.997,10.989-4.995,16.983-4.995
		c-1.998,2.997-3.996,4.995-5.994,7.992"/>
	<path fill="none" stroke="#FB9849" stroke-width="5" stroke-linecap="round" d="M490.521,134.202
		c-3.996-27.973,29.971-26.974,62.938-19.98c17.982-7.992,33.967-3.996,43.957,0"/>
	<path fill="none" stroke="#FB9849" stroke-width="5" d="M613.4,186.151c11.988,55.945-15.984,79.922-63.938,66.935
		c-53.947,19.98-75.926,1.998-63.938-56.944c13.986,25.975,39.961,21.979,67.934,12.987
		C585.428,215.123,605.408,211.127,613.4,186.151z"/>
	<path fill="none" stroke="#000000" stroke-width="2" d="M550.462,203.135c0.999-30.97,1.998-62.938,0-94.907"/>
	<path fill="none" stroke="#000000" stroke-width="2" d="M555.457,202.136c0-30.97,0.999-61.939,0-93.908"/>
	<path fill="none" stroke="#000000" stroke-width="2" d="M486.524,144.192c37.963-12.987,75.926-16.983,122.88-3.996v-4.995
		c-40.96-10.989-81.92-7.992-122.88,4.995"/>
	<path fill="none" stroke="#000000" stroke-width="2" d="M313.693,266.073c6.993-14.985,1.998-34.966,10.989-43.957"/>
	<path fill="none" stroke="#000000" stroke-width="2" d="M392.616,189.148c-5.994,7.992-12.987,11.988-20.979,11.988
		c14.985-2.997,8.991,2.997,0,9.99c-2.997-0.999-5.994-0.999-8.991-0.999c4.995,0.999,8.991,0.999,7.992,4.995
		c-5.994-0.999-10.989-0.999-15.984-1.998c3.996,0.999,8.991,1.998,8.991,6.993c-2.997,0-6.993,0-9.99,0
		c3.996,0,6.993,0.999,5.994,4.995c-3.996,0-6.993,0-10.989-0.999c2.997,0.999,5.994,0.999,5.994,4.995
		c-3.996-0.999-8.991-0.999-13.986-1.998c1.998,5.994-1.998,12.987-4.995,18.981c0-5.994,0-10.989,0-15.984
		c0,11.988-2.997,24.976-11.988,36.964c-1.998,0-2.997,0.999-4.995,0c3.996-6.993,6.993-17.982,9.99-34.966"/>
	<path fill="none" stroke="#FB9849" stroke-width="5" d="M492.519,149.188c14.985-8.991,32.968-9.99,54.946-11.988
		c0,20.979-0.999,39.961-0.999,60.94C515.496,207.131,487.523,215.123,492.519,149.188z"/>
	<path fill="none" stroke="#FB9849" stroke-width="5" d="M560.452,137.199c0,18.981-1.998,39.961-0.999,59.941
		c36.964,5.994,51.949-13.986,47.953-51.949C591.422,139.197,576.437,136.2,560.452,137.199z"/>
	<path fill="#FFEE00" stroke="#000000" stroke-width="2" d="M554.458,133.203c-9.99,8.991-10.989,4.995-2.997-3.996
		C560.452,120.216,563.449,123.213,554.458,133.203z"/>
	<path fill="#FFEE00" stroke="#000000" stroke-width="2" d="M551.461,133.203c-8.991-9.99-5.994-11.988,2.997-3.996
		C563.449,138.198,561.451,141.195,551.461,133.203z"/>
	<path fill="none" stroke="#B3AEC5" stroke-width="2" d="M590.423,268.071c-9.99,12.987-27.973,24.976-20.979,6.993
		c-6.993,6.993-12.987,11.988-20.979,12.987c0.999-3.996,4.995-7.992,8.991-11.988c-17.982,11.988-30.97,14.985-42.958,13.986"/>
	<path fill="none" stroke="#B3AEC5" stroke-width="2" d="M368.64,319.021c-10.989-14.985-6.993-28.972,4.995-40.96
		c-5.994,1.998-11.988,4.995-16.983,11.988c0.999-10.989,8.991-19.98,17.982-27.973c-5.994-0.999-10.989,0.999-15.984,3.996
		c3.996-8.991,10.989-13.986,18.981-17.982c-6.993,0-13.986,0.999-20.979,7.992c4.995-11.988,13.986-21.979,22.978-28.972
		c-5.994-1.998-12.987,0-18.981,6.993c7.992-9.99,15.984-17.982,21.979-23.977"/>
	<path fill="none" stroke="#B3AEC5" stroke-width="2" d="M500.511,291.049c-0.999-1.998-1.998-4.995-2.997-6.993
		c0,5.994,0,10.989-1.998,16.983c-5.994,21.979-10.989,18.981-14.985,11.988c-2.997,12.987-11.988,15.984-14.985-1.998
		c-4.995,24.976-35.965,18.981-24.976-10.989c-3.996,3.996-7.992,6.993-8.991,11.988c-4.995-13.986,0-26.974,4.995-40.96
		c-1.998,3.996-5.994,6.993-8.991,6.993c1.998-15.984,6.993-23.977,12.987-30.97c-3.996,0-7.992,1.998-10.989,2.997
		c12.987-27.973,26.974-45.955,40.96-51.949"/>
	<path fill="none" stroke="#B3AEC5" stroke-width="2" d="M415.594,275.064c6.993,18.981,6.993,37.963,3.996,57.943
		c-2.997-4.995-4.995-9.99-6.993-14.985c-0.999,20.979-2.997,24.976-5.994,12.987c0.999,10.989-2.997,20.979-8.991,30.97
		c-0.999-4.995-1.998-8.991-1.998-13.986c0,6.993-0.999,12.987-2.997,18.981c-0.999-4.995-2.997-9.99-5.994-14.985
		c5.994,14.985-7.992,20.979-2.997,30.97"/>
	<path fill="#B3AEC5" d="M618.396,164.173c18.981,40.96,15.984,78.923-16.983,99.902
		C624.39,240.099,631.383,206.132,618.396,164.173z"/>
	<path fill="none" stroke="#B3AEC5" stroke-width="2" d="M347.66,224.114c-3.996-2.997-7.992-4.995-11.988-6.993"/>
	<path fill="none" stroke="#B3AEC5" stroke-width="2" d="M352.655,219.119c-3.996-1.998-6.993-3.996-10.989-4.995"/>
	<path fill="none" stroke="#B3AEC5" stroke-width="2" d="M377.631,195.143c-8.991-0.999-16.983-0.999-24.976,0.999"/>
	<path fill="none" stroke="#B3AEC5" stroke-width="2" d="M370.638,199.139c-4.995-0.999-11.988-0.999-17.982-0.999"/>
	<path fill="none" stroke="#B3AEC5" stroke-width="2" d="M360.647,210.128c-2.997-1.998-6.993-2.997-10.989-3.996"/>
	<path fill="none" stroke="#B3AEC5" stroke-width="2" d="M353.654,213.125l-7.992-2.997"/>
	<path fill="none" stroke="#B3AEC5" stroke-width="2" d="M335.672,228.11c0.999-2.997,0.999-4.995,0-7.992"/>
	<path fill="none" stroke="#B3AEC5" stroke-width="2" d="M329.678,231.107c1.998-2.997,0.999-5.994-0.999-8.991"/>
	<path fill="none" stroke="#B3AEC5" stroke-width="2" d="M449.561,327.014c-2.997,21.979,11.988,39.961,19.98,57.943
		c2.997-9.99-2.997-20.979-6.993-30.97c8.991,6.993,13.986,17.982,17.982,28.972c0.999-9.99,1.998-18.981-3.996-27.973
		c2.997,4.995,6.993,10.989,9.99,15.984c0.999-12.987-0.999-25.975-4.995-38.962c4.995,8.991,8.991,19.98,10.989,32.968
		c3.996-15.984,1.998-31.969-5.994-45.955"/>
	<path fill="none" stroke="#B3AEC5" stroke-width="2" d="M505.506,341.999c8.991,6.993,37.963,14.985,13.986,0.999
		c14.985,4.995,18.981,1.998,26.974,2.997c-3.996-1.998-7.992-3.996-10.989-5.994c8.991,5.994,18.981,4.995,27.973,2.997
		c-5.994-1.998-10.989-3.996-16.983-5.994c12.987,3.996,22.978,2.997,30.97,0c-5.994-0.999-11.988-1.998-17.982-2.997
		c10.989,1.998,20.979,3.996,33.967-0.999c-7.992-0.999-15.984-2.997-23.977-4.995c8.991,1.998,18.981,2.997,28.972,2.997
		c-3.996-8.991-10.989-10.989-18.981-8.991c4.995,0,9.99,0,14.985,0c0.999-4.995-0.999-6.993-7.992-5.994
		c4.995-0.999,8.991-1.998,6.993-7.992c-1.998-0.999-3.996-0.999-5.994,0c5.994-12.987,2.997-25.975,2.997-38.962"/>
	<path fill="none" stroke="#B3AEC5" stroke-width="2" d="M480.53,174.163c-4.995,6.993-8.991,13.986-9.99,22.978
		c-36.964,17.982-49.951,50.95-58.942,86.915c0,7.992-3.996,9.99-7.992,11.988"/>
	<path fill="none" stroke="#B3AEC5" stroke-width="2" d="M393.615,192.146c12.987,12.987,15.984,27.973,14.985,46.954
		c3.996,4.995,3.996,7.992-0.999,6.993c-1.998,32.968-3.996,32.968-5.994,39.961c-1.998,2.997-0.999,5.994,1.998,9.99
		c-8.991-1.998-9.99-11.988-9.99-22.978c0.999-3.996,1.998-6.993,0.999-10.989c1.998-0.999,2.997-2.997,0.999-4.995
		c2.997-0.999,0-3.996-0.999-6.993c6.993,2.997,1.998-4.995-2.997-14.985c4.995,3.996,6.993,3.996,5.994,0.999
		c3.996,0,2.997-1.998-2.997-6.993c6.993,2.997,3.996-3.996-1.998-14.985c13.986,6.993,3.996-1.998,3.996-3.996
		s-0.999-4.995-3.996-7.992c4.995,0.999,13.986,4.995-1.998-5.994C392.616,195.143,393.615,194.144,393.615,192.146z"/>
	<path fill="#B3AEC5" d="M588.425,266.073c-14.985,0-35.965,1.998-60.94,6.993c-27.973,4.995-45.955-5.994-53.947-33.967
		c11.988,26.974,30.97,39.961,64.937,25.975C546.466,262.077,570.442,266.073,588.425,266.073z"/>
	<path fill="#B3AEC5" d="M649.365,240.099c9.99,10.989,13.986,21.979,18.981,36.964c-1.998,0.999-6.993-0.999-14.985-4.995
		c8.991,6.993,11.988,13.986,12.987,20.979c-3.996,0-7.992-3.996-11.988-6.993c4.995,7.992,8.991,16.983,11.988,24.976
		c-3.996-1.998-7.992-5.994-11.988-8.991c4.995,6.993,8.991,14.985,9.99,21.979c-1.998-1.998-3.996-4.995-6.993-7.992
		c1.998,6.993,3.996,13.986,4.995,19.98c-2.997-0.999-4.995-4.995-6.993-7.992c4.995,14.985,1.998,26.974-2.997,38.962
		c-1.998,0-4.995-1.998-6.993-2.997c7.992,8.991,9.99,15.984,15.984,43.957c-0.999-11.988-0.999-23.977-4.995-35.965
		c3.996-6.993,5.994-16.983,5.994-27.973c1.998-0.999,4.995-0.999,6.993-0.999c-0.999-3.996-1.998-7.992-2.997-11.988
		c2.997,0,4.995,0,6.993,0c-0.999-1.998-1.998-4.995-0.999-6.993c1.998-4.995,1.998-10.989-0.999-17.982
		c0.999-0.999,0.999-1.998,1.998-2.997c-1.998-5.994-2.997-11.988-4.995-17.982c1.998-0.999,4.995,1.998,5.994,2.997
		C674.341,273.066,667.348,255.084,649.365,240.099z"/>
	<path fill="none" stroke="#B3AEC5" stroke-width="2" d="M641.373,187.15c-0.999,9.99-1.998,5.994,4.995,13.986
		c-6.993-2.997-7.992,0,1.998,14.985c-2.997,0-1.998,2.997,0.999,6.993c14.985,16.983,25.975,33.967,37.963,51.949
		c21.979,18.981,36.964,50.95,44.956,89.912"/>
	<path fill="none" stroke="#B3AEC5" stroke-width="2" d="M713.303,327.014c0-2.997,0.999-4.995,0.999-5.994"/>
	<path fill="none" stroke="#B3AEC5" stroke-width="2" d="M717.299,342.998c0.999-3.996,1.998-5.994,3.996-7.992"/>
	<path fill="none" stroke="#B3AEC5" stroke-width="2" d="M302.704,201.137c3.996,0,13.986-6.993,17.982-7.992"/>
	<path fill="none" stroke="#B3AEC5" stroke-width="2" d="M337.67,179.158c2.997-2.997,3.996-6.993,4.995-9.99"/>
	<path fill="none" stroke="#B3AEC5" stroke-width="2" d="M347.66,185.152c0.999-0.999,2.997-2.997,4.995-4.995"/>
	<path fill="none" stroke="#B3AEC5" stroke-width="2" d="M350.657,162.175c1.998,3.996,1.998,7.992,0.999,11.988"/>
	<path fill="none" stroke="#B3AEC5" stroke-width="2" d="M345.662,177.16c0,1.998-0.999,3.996-2.997,4.995"/>
	<path fill="none" stroke="#B3AEC5" stroke-width="2" d="M351.656,202.136c5.994,0,11.988,0.999,18.981,2.997"/>
	<path fill="none" stroke="#B3AEC5" stroke-width="2" d="M352.655,231.107c-17.982,18.981-30.97,40.96-27.973,73.928"/>
	<path fill="none" stroke="#B3AEC5" stroke-width="2" d="M330.677,311.029c0-3.996,0-7.992,1.998-10.989"/>
	<path fill="none" stroke="#B3AEC5" stroke-width="2" d="M334.673,331.01c0.999-5.994,2.997-9.99,5.994-11.988"/>
	<path fill="none" stroke="#B3AEC5" stroke-width="2" d="M346.661,347.993c0-3.996,0.999-6.993,3.996-9.99"/>
	<path fill="none" stroke="#B3AEC5" stroke-width="2" d="M380.628,394.947c-16.983-18.981-25.975-23.977-31.969-47.953"/>
	<path fill="none" stroke="#B3AEC5" stroke-width="2" d="M395.613,385.956c0-11.988,3.996-16.983,6.993-23.977"/>
	<path fill="none" stroke="#B3AEC5" stroke-width="2" d="M405.604,376.965c5.994-19.98,19.98-33.967,21.979-47.953"/>
	<path fill="none" stroke="#B3AEC5" stroke-width="2" d="M505.506,351.989c10.989,1.998,23.977,5.994,35.965,4.995"/>
	<path fill="none" stroke="#B3AEC5" stroke-width="2" d="M533.479,353.987c9.99,0,19.98,0,29.971,0.999"/>
	<path fill="none" stroke="#B3AEC5" stroke-width="2" d="M555.457,351.989c6.993,0,13.986-0.999,20.979,0.999"/>
	<path fill="none" stroke="#B3AEC5" stroke-width="2" d="M570.442,349.991l20.979,1.998"/>
	<path fill="none" stroke="#B3AEC5" stroke-width="2" d="M584.429,345.995c3.996,1.998,9.99,1.998,15.984,2.997"/>
	<path fill="none" stroke="#B3AEC5" stroke-width="2" d="M595.418,342.998c4.995,3.996,9.99,6.993,4.995-8.991"/>
	<path fill="none" stroke="#B3AEC5" stroke-width="2" d="M500.511,346.994c-0.999-8.991-3.996-15.984-7.992-23.977
		c2.997,2.997,4.995,5.994,7.992,9.99c0-6.993-0.999-13.986-2.997-19.98c1.998,2.997,3.996,6.993,4.995,9.99
		c3.996-5.994,2.997-11.988-0.999-17.982"/>
	<path fill="none" stroke="#B3AEC5" stroke-width="2" d="M419.59,508.836c7.992-10.989,19.98-12.987,33.967-9.99"/>
	<path fill="none" stroke="#B3AEC5" stroke-width="2" d="M445.564,485.858c-3.996,1.998-5.994,6.993-5.994,11.988"/>
	<path fill="none" stroke="#B3AEC5" stroke-width="2" d="M451.559,488.855c-2.997,0.999-4.995,3.996-6.993,8.991"/>
	<path fill="none" stroke="#B3AEC5" stroke-width="2" d="M499.512,499.845h22.978"/>
	<path fill="none" stroke="#B3AEC5" stroke-width="2" d="M505.506,499.845c4.995-8.991,10.989-14.985,17.982-15.984
		c2.997-23.977-3.996-41.959-8.991-60.94c-12.987-22.978-15.984-41.959-8.991-56.944c0-1.998,7.992-0.999,19.98,0.999"/>
	<path fill="none" stroke="#B3AEC5" stroke-width="2" d="M531.48,388.953c-2.997-5.994-6.993-10.989-11.988-15.984"/>
	<path fill="none" stroke="#B3AEC5" stroke-width="2" d="M526.485,398.943c-1.998-4.995-4.995-9.99-8.991-12.987"/>
	<path fill="none" stroke="#B3AEC5" stroke-width="2" d="M513.498,498.846c1.998-2.997,4.995-6.993,8.991-8.991"/>
	<path fill="none" stroke="#B3AEC5" stroke-width="2" d="M527.484,407.935c0,17.982,0.999,36.964,1.998,55.945
		c5.994,15.984,3.996,20.979,3.996,28.972c-6.993,1.998-7.992,3.996-8.991,5.994"/>
	<path fill="none" stroke="#B3AEC5" stroke-width="2" d="M468.542,402.939c0,17.982-4.995,23.977-7.992,53.947
		c-1.998,12.987,6.993,35.965-4.995,40.96"/>
	<path fill="none" stroke="#B3AEC5" stroke-width="2" d="M613.4,511.833c-0.999-3.996,3.996-7.992,12.987-10.989
		c-14.985-1.998-28.972-1.998-36.964,8.991"/>
	<path fill="none" stroke="#B3AEC5" stroke-width="2" d="M619.395,488.855c7.992-6.993,17.982-21.979,28.972-44.956"/>
	<path fill="none" stroke="#B3AEC5" stroke-width="2" d="M630.384,488.855c9.99-23.977,28.972-39.961,38.962-66.935
		c-6.993-53.947,0-47.953,1.998-59.941c1.998-7.992,1.998-15.984,0.999-23.977"/>
	<path fill="none" stroke="#B3AEC5" stroke-width="2" d="M635.379,496.848c0.999-11.988,3.996-23.977,11.988-33.967"/>
	<path fill="#B3AEC5" d="M619.395,488.855c1.998,3.996,5.994,6.993,11.988,9.99c-1.998,0.999-2.997,0.999-4.995,1.998
		c-5.994-0.999-11.988-0.999-16.983-0.999C612.401,496.848,615.398,492.852,619.395,488.855z"/>
	<path fill="#B3AEC5" d="M648.366,443.899c0-6.993-0.999-13.986,1.998-20.979c1.998,4.995,3.996,6.993,5.994,3.996
		C657.357,440.902,654.36,444.898,648.366,443.899z"/>
	<path fill="none" stroke="#B3AEC5" stroke-width="2" d="M651.363,416.926c2.997-7.992,6.993-10.989,13.986-9.99"/>
	<path fill="none" stroke="#B3AEC5" stroke-width="2" d="M651.363,421.921c2.997-4.995,8.991-7.992,14.985-5.994"/>
	<path fill="none" stroke="#B3AEC5" stroke-width="2" d="M647.367,406.936c-9.99-21.979-16.983-42.958-22.978-62.938"/>
	<path fill="none" stroke="#B3AEC5" stroke-width="2" d="M601.412,272.067c-2.997,31.969,1.998,58.942,17.982,80.921"/>
	<path fill="none" stroke="#B3AEC5" stroke-width="2" d="M676.339,508.836c3.996-1.998,8.991-2.997,12.987-3.996"/>
	<path fill="none" stroke="#B3AEC5" stroke-width="2" d="M701.314,509.835c3.996-6.993,8.991-11.988,15.984-14.985
		c0.999-29.971-0.999-49.951-3.996-62.938"/>
	<path fill="none" stroke="#B3AEC5" stroke-width="2" d="M707.309,472.871c-2.997,8.991-7.992,17.982-13.986,25.975h16.983"/>
	<path fill="none" stroke="#B3AEC5" stroke-width="2" d="M674.341,265.074c5.994,13.986,8.991,27.973,8.991,40.96
		c-1.998,0-3.996-0.999-5.994-2.997c1.998,8.991,2.997,18.981,1.998,29.971c-0.999-2.997-1.998-3.996-2.997-0.999
		c0.999,2.997,1.998,5.994,0.999,8.991"/>
	<path fill="#B3AEC5" d="M712.304,424.918c0.999-9.99,0-19.98-2.997-28.972c-0.999,7.992-1.998,14.985-4.995,22.978
		C707.309,420.922,709.307,422.92,712.304,424.918z"/>
	<path fill="#B3AEC5" d="M713.303,431.911c1.998,1.998,3.996,2.997,5.994,4.995c0,5.994-0.999,11.988-1.998,17.982
		C716.3,447.896,715.301,439.903,713.303,431.911z"/>
	<path fill="none" stroke="#B3AEC5" stroke-width="2" d="M704.312,418.924c-6.993-7.992-12.987-23.977-20.979-33.967"/>
	<path fill="none" stroke="#B3AEC5" stroke-width="2" d="M709.307,394.947c-8.991-17.982-13.986-34.966-15.984-51.949"/>
	<path fill="#B3AEC5" d="M683.332,384.957c0-18.981,2.997-34.966,7.992-47.953c-3.996,6.993-8.991,18.981-15.984,39.961
		C678.337,379.962,680.335,381.96,683.332,384.957z"/>
	<path fill="#B3AEC5" d="M692.323,294.046c1.998,8.991,4.995,17.982,5.994,27.973c-0.999-0.999-2.997-0.999-4.995-0.999
		c0,3.996,0.999,8.991,1.998,15.984c-0.999-0.999-1.998-1.998-3.996-3.996c0.999,3.996,0.999,7.992,0.999,10.989
		c-1.998,1.998-2.997,0.999-4.995,0C691.324,327.014,691.324,310.03,692.323,294.046z"/>
	<path fill="none" stroke="#B3AEC5" stroke-width="2" d="M470.54,419.923c3.996-6.993,5.994-13.986,4.995-20.979
		c5.994-4.995,8.991-10.989,9.99-15.984"/>
	<path fill="#B3AEC5" d="M485.525,383.958c8.991-8.991,10.989-18.981,11.988-29.971c-2.997,0-2.997,7.992-4.995,11.988
		c-0.999-8.991-3.996-15.984-6.993-21.979C487.523,356.984,487.523,370.971,485.525,383.958z"/>
	<path fill="none" stroke="#B3AEC5" stroke-width="2" d="M456.554,427.915c-4.995-10.989-5.994-23.977-3.996-41.959"/>
	<path fill="none" stroke="#000000" stroke-width="2" d="M485.525,515.829c-0.999-5.994,2.997-12.987,9.99-17.982"/>
	<path fill="none" stroke="#000000" stroke-width="2" d="M413.596,513.831c-0.999-5.994,2.997-12.987,10.989-16.983"/>
	<path fill="none" stroke="#000000" stroke-width="2" d="M583.43,514.83c0.999-6.993,7.992-12.987,16.983-17.982"/>
	<path fill="none" stroke="#000000" stroke-width="2" d="M668.347,513.831c2.997-4.995,7.992-10.989,15.984-15.984"/>
	<path fill="none" stroke="#B3AEC5" stroke-width="2" d="M721.295,434.908c-0.999-6.993-0.999-13.986,0-20.979
		c-2.997-1.998-4.995-2.997-5.994-4.995"/>
	<path fill="#B3AEC5" d="M406.603,374.967c-0.999,2.997,0,3.996,1.998,2.997c4.995-9.99,6.993-15.984,17.982-31.969
		c0-2.997,0-5.994,0-8.991C417.592,352.988,409.6,365.976,406.603,374.967z"/>
</g>
</svg>
