<?xml version="1.0" encoding="UTF-8" standalone="no"?>
<svg xmlns="http://www.w3.org/2000/svg"
   version="1.0" width="480" height="300">
  <rect width="480" height="300" style="fill:#fffe00"/>
  <g style="fill:#cb0000;fill-opacity:1"
     transform="matrix(0.24,0,0,0.24,240,47.43308)">
    <g transform="matrix(0.976896,0,0,1,-9.945414e-2,-364)">
      <path
         d="M 229.4387,345.06799 L 230.37419,402.56449 L 172.94375,401.62172 L 229.96159,458.71324 L 172.98056,515.66478 L 230.38867,514.81769 L 229.49011,572.33654 L 286.53743,515.27448 L 343.5995,572.27764 L 342.64192,514.80324 L 400.09445,515.67972 L 343.09868,458.69864 L 400.146,401.63661 L 342.64951,402.5721 L 343.63644,345.00906 L 286.52284,402.1374 L 229.4387,345.06799 z M 250.23839,394.14293 L 286.52649,430.42167 L 322.78313,394.15567 L 322.30071,422.88195 L 351.09314,422.4142 L 314.79231,458.72439 L 351.0583,494.93684 L 322.28784,494.49861 L 322.77771,523.1806 L 286.53378,486.99021 L 250.25504,523.27831 L 250.71537,494.52994 L 222.03341,494.93139 L 258.22377,458.73169 L 222.00196,422.43085 L 250.68404,422.91328 L 250.23839,394.14293 z "/>
      <path
         d="M -242.71875,572.5625 L -327.4375,658.5 L -256.21875,728.6875 L -199.65625,728.28125 L -150.5625,678.5 L -207.53125,622.28125 L -242.59375,657.84375 L -221.1875,678.9375 L -207.125,664.6875 L -192.875,678.71875 L -221,707.21875 L -270.875,658.0625 L -207.71875,593.96875 L -35.90625,763.4375 L -35.90625,721.1875 L -186.71875,572.5625 L -242.71875,572.5625 z M 186.71875,572.5625 L 35.90625,721.1875 L 35.90625,763.4375 L 207.71875,593.96875 L 270.875,658.0625 L 221,707.21875 L 192.875,678.71875 L 207.125,664.6875 L 221.1875,678.9375 L 242.59375,657.84375 L 207.53125,622.28125 L 150.5625,678.5 L 199.65625,728.28125 L 256.21875,728.6875 L 327.4375,658.5 L 242.71875,572.5625 L 186.71875,572.5625 z M -136.3125,692.53125 L -206.46875,763.6875 L -206.09375,820.21875 L -163.34375,862.40625 L -100.1875,798.3125 L -135.8125,763.1875 L -156.8125,784.5625 L -142.5625,798.65625 L -156.625,812.875 L -185.09375,784.75 L -136,734.90625 L -65.90625,804 L -65.930688,1108.9977 L -35.75619,1111.2943 L -35.90625,791.5625 L -136.3125,692.53125 z M 136.3125,692.53125 L 35.90625,791.5625 L 35.906093,1111.1479 L 65.987565,1110.7179 L 65.90625,804 L 136,734.90625 L 185.09375,784.75 L 156.625,812.875 L 142.5625,798.65625 L 156.8125,784.5625 L 135.8125,763.1875 L 100.1875,798.3125 L 163.34375,862.40625 L 206.09375,820.21875 L 206.46875,763.6875 L 136.3125,692.53125 z M 0,686.375 L 151.5,537 L 88.34375,472.9375 L 38.5,522.0625 L 66.5625,550.59375 L 80.84375,536.59375 L 66.78125,522.28125 L 88.15625,501.21875 L 123.21875,536.8125 L 66.21875,592.9375 L 17.125,543.125 L 17.53125,486.5625 L 88.75,416.375 L 172.625,501.46875 L 172.625,558.34375 L 15.9375,712.8125 L 15.9375,718.375 L 15.90625,718.375 C 15.90625,718.375 15.644022,1167.1972 15.644022,1167.1972 C 15.644022,1167.1972 -15.497283,1167.6273 -15.497283,1167.6273 C -15.497283,1167.6273 -15.90625,718.375 -15.90625,718.375 L -15.9375,718.375 L -15.9375,712.8125 L -172.625,558.34375 L -172.625,501.46875 L -88.75,416.375 L -17.53125,486.5625 L -17.125,543.125 L -66.21875,592.9375 L -123.21875,536.8125 L -88.15625,501.21875 L -66.78125,522.28125 L -80.84375,536.59375 L -66.5625,550.59375 L -38.5,522.0625 L -88.34375,472.9375 L -151.5,537"/>
      <path
         d="M -229.4387,345.06799 L -230.37419,402.56449 L -172.94375,401.62172 L -229.96159,458.71324 L -172.98056,515.66478 L -230.38867,514.81769 L -229.49011,572.33654 L -286.53743,515.27448 L -343.5995,572.27764 L -342.64192,514.80324 L -400.09445,515.67972 L -343.09868,458.69864 L -400.146,401.63661 L -342.64951,402.5721 L -343.63644,345.00906 L -286.52284,402.1374 L -229.4387,345.06799 z M -250.23839,394.14293 L -286.52649,430.42167 L -322.78313,394.15567 L -322.30071,422.88195 L -351.09314,422.4142 L -314.79231,458.72439 L -351.0583,494.93684 L -322.28784,494.49861 L -322.77771,523.1806 L -286.53378,486.99021 L -250.25504,523.27831 L -250.71537,494.52994 L -222.03341,494.93139 L -258.22377,458.73169 L -222.00196,422.43085 L -250.68404,422.91328 L -250.23839,394.14293 z"/>
      <path
         d="M -57.10505,219.92063 L -56.16956,277.41713 L -113.6,276.47436 L -56.58216,333.56588 L -113.56319,390.51742 L -56.15508,389.67033 L -57.05364,447.18918 L -0.00632,390.12712 L 57.05575,447.13028 L 56.09817,389.65588 L 113.5507,390.53236 L 56.55493,333.55128 L 113.60225,276.48925 L 56.10576,277.42474 L 57.09269,219.8617 L -0.02091,276.99004 L -57.10505,219.92063 z M -36.30536,268.99557 L -0.01726,305.27431 L 36.23938,269.00831 L 35.75696,297.73459 L 64.54939,297.26684 L 28.24856,333.57703 L 64.51455,369.78948 L 35.74409,369.35125 L 36.23396,398.03324 L -0.00997,361.84285 L -36.28871,398.13095 L -35.82838,369.38258 L -64.51034,369.78403 L -28.31998,333.58433 L -64.54179,297.28349 L -35.85971,297.76592 L -36.30536,268.99557 z "/>
    </g>
    <path
       d="M 34.99094,742.38041 L 1000,742.36218 L 1000,772.36218 L 34.990942,772.38041 M -34.99094,772.36218 L -1000,772.36218 L -1000,742.36218 L -34.99094,742.34394"/>
  </g>
  <rect y="240" width="480" height="60" style="fill:#cb0000"/>
</svg>