<?xml version="1.0" encoding="utf-8"?>
<!-- Generator: Adobe Illustrator 15.1.0, SVG Export Plug-In . SVG Version: 6.00 Build 0)  -->
<!DOCTYPE svg PUBLIC "-//W3C//DTD SVG 1.1//EN" "http://www.w3.org/Graphics/SVG/1.1/DTD/svg11.dtd">
<svg version="1.1" id="Layer_1" xmlns="http://www.w3.org/2000/svg" xmlns:xlink="http://www.w3.org/1999/xlink" x="0px" y="0px"
	 width="600px" height="400px" viewBox="300 200 600 400" enable-background="new 300 200 600 400" xml:space="preserve">
<rect id="rect8" x="300" y="200" fill="#00923F" width="600" height="400"/>
<rect id="rect10" x="300" y="267" fill="#fff" width="600" height="267"/>
<g>
	<circle id="circle12" fill="none" stroke="#D81E05" stroke-width="30" cx="596" cy="420" r="55"/>
	<g id="_x31_">
		<path id="path15" fill="none" stroke="#D81E05" stroke-width="20" stroke-linecap="round" d="M575.4,324c5-6.3,12.5-10,20.5-10
			c14.3,0,26,11.6,26,26c0,14.3-11.7,25.9-26,26"/>
	</g>
	<g id="use19" transform="matrix(-0.5,0.8660254,-0.8660254,-0.5,5214.2835,575.53199)">
		<path id="path2993" fill="none" stroke="#D81E05" stroke-width="20" stroke-linecap="round" d="M2150.7,3981.4
			c4.9-6.3,12.5-9.9,20.5-10c14.3,0,26,11.6,26,26c0,14.3-11.7,25.9-25.9,26"/>
	</g>
	<g id="use21" transform="matrix(-0.5,-0.8660254,0.8660254,-0.5,2108.7165,4803.468)">
		<path id="path2999" fill="none" stroke="#D81E05" stroke-width="20" stroke-linecap="round" d="M4532.4,784.7
			c4.9-6.3,12.5-10,20.5-9.9c14.3,0,26,11.7,26,26c0,14.3-11.6,26-25.9,26"/>
	</g>
</g>
</svg>
