<?xml version="1.0" encoding="UTF-8" ?>
<!DOCTYPE svg PUBLIC "-//W3C//DTD SVG 1.1//EN" "http://www.w3.org/Graphics/SVG/1.1/DTD/svg11.dtd">
<svg width="800pt" height="526pt" viewBox="0 0 800 526" version="1.1" xmlns="http://www.w3.org/2000/svg">
<g id="#0099ffff">
<path fill="#0099ff" opacity="1.00" d=" M 0.00 0.00 L 194.00 0.00 C 194.00 175.33 194.00 350.67 194.00 526.00 L 0.00 526.00 L 0.00 0.00 Z" />
<path fill="#0099ff" opacity="1.00" d=" M 600.00 0.00 L 800.00 0.00 L 800.00 526.00 L 600.00 526.00 C 600.00 350.67 600.00 175.33 600.00 0.00 Z" />
</g>
<g id="#ffffffff">
<path fill="#ffffff" opacity="1.00" d=" M 194.00 0.00 L 600.00 0.00 C 600.00 175.33 600.00 350.67 600.00 526.00 L 194.00 526.00 C 194.00 350.67 194.00 175.33 194.00 0.00 M 302.96 128.94 C 296.83 134.97 292.36 142.51 285.97 148.28 C 288.53 139.78 295.96 133.97 299.14 125.83 C 293.19 128.63 290.82 135.17 286.05 139.27 C 287.18 134.95 290.49 131.71 292.02 127.57 C 289.25 128.78 286.65 130.68 285.51 133.59 C 282.74 140.22 280.43 147.09 279.08 154.16 C 278.23 158.34 275.06 161.46 273.17 165.17 C 270.43 169.44 269.21 174.72 265.34 178.21 C 267.03 168.98 268.81 159.66 272.54 151.00 C 272.12 150.78 271.29 150.35 270.87 150.13 C 267.80 154.80 266.05 160.11 264.86 165.53 C 264.51 164.92 263.81 163.69 263.47 163.07 C 264.42 158.64 267.40 154.37 266.32 149.71 C 263.67 152.32 262.22 155.87 262.07 159.56 C 259.44 168.81 260.93 178.54 259.42 187.95 C 258.19 188.30 256.96 188.66 255.73 189.02 C 255.72 186.92 255.60 184.81 255.09 182.76 C 252.07 189.58 252.70 197.31 253.00 204.60 C 248.92 200.41 251.89 193.96 248.64 189.55 C 246.07 200.62 252.83 210.46 257.32 219.97 C 256.64 227.88 256.21 235.81 255.51 243.72 C 255.23 243.72 254.68 243.70 254.41 243.70 C 253.96 233.95 253.82 223.85 249.96 214.72 C 248.97 215.98 247.40 217.14 247.67 218.96 C 248.02 227.50 250.89 235.72 251.50 244.22 C 248.11 240.35 247.77 234.97 245.89 230.36 C 244.17 226.01 244.06 220.80 240.79 217.23 C 239.26 223.93 244.06 229.83 243.86 236.46 C 239.22 232.18 240.52 224.87 236.44 220.47 C 235.33 227.50 238.88 233.99 242.22 239.88 C 243.68 242.61 245.75 245.09 246.44 248.17 C 249.10 260.18 254.87 271.23 257.77 283.16 C 255.33 281.08 253.96 278.18 252.51 275.40 C 249.06 269.58 246.06 263.47 241.91 258.09 C 241.10 256.93 239.80 256.31 238.67 255.56 C 237.70 260.57 241.70 264.28 243.76 268.39 C 246.60 273.97 251.16 278.51 253.51 284.35 C 244.77 278.37 239.64 268.54 231.59 261.77 C 232.24 268.71 238.85 272.77 241.53 278.80 C 236.06 276.28 233.54 270.44 228.93 266.86 C 229.27 269.48 230.04 272.14 231.95 274.07 C 237.87 280.66 245.41 285.56 252.93 290.09 C 252.34 290.06 251.15 290.00 250.55 289.97 L 251.17 290.74 C 249.95 289.76 248.44 289.28 246.99 288.78 C 248.61 293.20 252.31 296.32 254.88 300.16 C 258.77 305.70 263.78 310.52 266.71 316.68 C 258.01 311.23 251.92 302.25 242.56 297.73 C 242.51 299.09 242.85 300.33 243.57 301.45 C 248.94 307.82 256.92 311.41 262.04 318.04 C 257.99 316.24 254.18 313.98 250.30 311.85 C 246.05 309.57 242.31 306.32 237.64 304.87 C 240.73 311.67 248.57 313.64 253.60 318.53 C 247.19 316.78 242.27 311.88 235.90 310.13 C 237.37 312.54 239.25 314.79 241.77 316.15 C 249.26 320.37 257.86 321.79 266.11 323.77 C 268.89 324.33 270.30 327.02 272.03 328.98 C 275.17 333.23 279.34 336.91 281.06 342.05 C 272.70 336.90 267.03 327.88 257.54 324.55 C 258.02 325.96 258.17 327.64 259.45 328.62 C 264.88 333.99 271.85 337.54 277.09 343.11 C 268.03 341.28 261.27 334.15 252.73 331.04 C 253.21 332.03 253.81 332.94 254.53 333.77 C 254.21 334.78 253.88 335.79 253.56 336.80 C 253.15 336.58 252.32 336.13 251.91 335.90 C 252.25 339.96 256.34 341.70 259.50 343.31 C 268.33 347.27 277.97 348.92 287.39 350.88 C 290.31 352.35 292.63 354.73 295.19 356.73 C 298.36 359.42 302.02 361.68 304.36 365.22 C 294.97 362.10 287.18 355.23 277.43 353.11 C 277.76 354.42 278.08 355.91 279.43 356.57 C 284.67 359.95 290.42 362.47 296.22 364.75 C 297.87 365.31 299.19 366.45 300.36 367.71 C 291.21 366.89 282.91 362.29 273.83 361.15 C 278.24 366.38 285.47 366.80 291.33 369.50 C 285.36 370.50 280.02 367.00 274.22 366.43 C 275.17 367.90 276.30 369.36 278.04 369.93 C 287.21 373.64 297.28 372.12 306.86 372.88 C 314.02 376.51 319.76 382.29 326.75 386.19 C 327.90 386.83 328.76 387.84 329.60 388.83 C 320.79 387.66 314.52 380.01 305.95 378.29 C 306.35 375.70 302.06 377.95 304.49 378.95 C 308.13 381.71 312.38 383.60 315.73 386.75 C 312.70 386.41 309.74 385.59 306.71 385.32 C 307.69 386.66 308.72 388.14 310.36 388.74 C 317.22 392.14 325.04 392.54 332.56 392.56 C 336.01 397.12 342.04 397.13 347.07 398.64 C 351.60 399.94 356.66 399.50 360.76 402.12 C 351.32 403.55 341.93 400.52 332.46 401.43 C 333.24 402.29 333.93 403.43 335.24 403.47 C 341.91 404.66 348.68 405.27 355.27 406.86 C 348.44 408.65 341.53 405.63 334.71 407.06 C 345.25 412.20 356.99 407.55 367.75 405.63 C 373.20 405.29 378.83 404.89 384.18 406.24 C 377.57 407.95 370.65 408.14 364.11 410.25 C 362.34 410.96 359.29 410.93 358.96 413.30 C 361.89 413.86 364.86 413.24 367.75 412.66 C 374.17 411.31 380.53 409.67 386.93 408.22 C 383.11 413.85 375.54 413.15 370.67 417.22 C 374.19 418.01 377.71 417.00 381.17 416.35 C 381.30 416.92 381.58 418.07 381.72 418.65 C 388.73 419.23 393.78 413.08 397.70 408.10 C 400.29 410.01 403.30 411.09 406.55 410.73 C 406.95 408.98 407.64 407.25 407.53 405.44 C 405.94 401.68 401.35 402.81 398.14 402.73 C 395.85 394.48 392.11 385.94 384.77 381.00 C 387.92 386.72 393.47 391.41 393.98 398.33 C 387.52 394.02 384.92 385.74 378.08 381.81 C 380.46 387.24 384.95 391.32 387.83 396.46 C 383.40 394.37 380.49 390.29 376.78 387.24 C 375.35 385.97 373.71 384.94 372.43 383.51 C 370.98 380.83 370.01 377.93 368.68 375.19 C 368.34 375.40 367.67 375.82 367.33 376.03 C 368.78 379.86 370.18 383.74 371.01 387.77 C 370.30 387.72 368.89 387.63 368.18 387.58 C 365.39 382.80 363.94 377.36 360.84 372.76 C 360.09 378.56 364.56 383.42 364.97 389.14 C 360.38 384.64 358.76 377.86 353.61 373.87 C 354.59 381.65 362.04 386.45 364.10 393.90 C 359.12 389.63 357.19 383.03 352.66 378.40 C 351.64 376.90 349.75 377.43 348.23 377.28 L 347.66 376.53 C 347.97 373.45 347.80 370.34 347.72 367.25 C 347.37 367.25 346.66 367.25 346.31 367.25 C 346.36 372.44 347.47 378.96 342.63 382.48 C 340.95 376.19 342.69 369.81 342.19 363.47 C 341.79 363.75 340.99 364.31 340.59 364.59 C 338.66 369.89 339.84 375.68 338.95 381.17 C 337.83 375.88 337.29 370.50 336.45 365.17 C 336.29 363.38 334.97 362.07 333.95 360.73 L 333.97 361.87 C 333.24 362.94 332.52 364.01 331.81 365.09 C 331.66 363.15 329.89 362.05 328.70 360.75 C 328.17 366.02 330.53 371.00 330.66 376.24 C 326.73 370.81 323.16 365.11 319.10 359.77 C 318.68 354.73 320.81 349.44 318.47 344.61 C 317.60 350.97 318.64 358.03 314.81 363.63 C 314.52 363.54 313.94 363.37 313.66 363.28 C 312.43 356.29 313.98 349.26 313.80 342.24 C 313.27 342.29 312.19 342.39 311.65 342.44 C 311.44 348.06 311.73 353.72 310.90 359.30 C 309.47 353.87 309.35 348.23 308.10 342.78 C 307.93 341.33 307.11 340.16 305.78 339.56 C 305.12 341.15 304.43 342.72 303.93 344.37 C 303.63 343.00 303.22 341.66 302.82 340.33 C 302.16 340.35 300.84 340.39 300.18 340.41 C 301.07 345.46 302.74 350.33 303.59 355.39 C 300.35 351.87 298.21 347.55 295.33 343.78 C 297.65 338.28 300.20 332.68 300.61 326.65 C 298.77 328.49 298.57 331.17 297.74 333.51 C 296.91 336.60 294.98 339.27 292.71 341.49 C 292.46 341.39 291.94 341.20 291.68 341.10 C 291.39 334.48 296.50 328.56 295.24 321.94 C 293.96 324.00 292.82 326.18 292.27 328.56 C 291.79 325.60 290.85 322.75 289.89 319.93 C 289.84 319.37 289.75 318.26 289.71 317.70 C 288.81 318.63 287.84 319.59 287.82 320.99 C 287.07 325.63 286.67 330.33 286.65 335.04 C 286.71 336.31 286.17 337.47 285.61 338.58 C 285.07 332.73 285.71 326.87 285.63 321.02 C 285.68 319.32 285.10 317.85 283.89 316.62 C 281.82 321.61 283.08 327.09 282.42 332.32 C 280.82 328.62 279.09 324.90 278.36 320.92 C 281.77 314.36 285.54 307.23 285.01 299.63 C 283.20 303.83 282.07 308.28 280.31 312.50 C 279.00 311.41 276.66 313.43 277.56 314.89 L 276.32 315.04 C 276.84 308.35 280.03 302.25 280.87 295.63 C 279.76 296.32 278.38 296.89 278.21 298.37 C 277.76 298.33 276.86 298.26 276.41 298.22 C 275.91 297.12 275.41 296.02 274.90 294.92 C 274.83 294.08 274.68 292.39 274.60 291.54 C 273.83 292.19 273.27 292.98 272.93 293.89 C 272.31 294.13 271.06 294.59 270.44 294.83 C 270.63 292.94 269.63 290.62 271.25 289.16 C 275.66 284.34 280.29 279.23 282.05 272.76 C 276.65 277.96 273.40 285.77 265.74 288.24 C 268.01 279.47 276.73 274.37 279.23 265.76 C 274.42 268.92 272.22 274.49 268.35 278.55 C 268.24 271.74 274.59 266.73 273.89 259.81 C 268.99 265.72 266.58 273.16 264.20 280.33 C 263.70 280.50 262.68 280.84 262.18 281.01 C 264.59 273.09 269.60 265.71 269.36 257.17 C 263.57 260.73 265.75 268.90 261.50 273.62 C 261.07 267.75 261.44 261.85 261.16 255.96 C 268.19 253.42 275.86 250.70 280.40 244.38 C 274.31 246.96 269.08 252.06 262.10 252.01 C 262.57 250.99 263.07 249.98 263.54 248.97 C 268.41 247.51 272.44 244.31 276.69 241.65 C 278.27 240.76 279.44 239.37 280.34 237.82 C 275.10 238.19 271.76 243.37 266.55 243.47 C 270.23 239.20 275.60 236.32 277.96 231.00 C 269.71 233.12 266.81 242.08 259.95 246.18 C 260.46 243.95 261.87 242.13 263.65 240.75 C 268.13 237.06 272.92 233.24 275.02 227.62 C 274.11 227.55 273.20 227.53 272.30 227.57 C 269.27 230.22 267.00 233.63 263.86 236.17 C 265.26 231.39 266.80 226.53 269.16 222.16 C 275.11 219.93 282.40 218.86 286.10 213.05 C 281.71 214.41 277.92 217.24 273.47 218.43 C 271.48 218.96 269.48 218.54 267.83 217.35 C 273.16 214.93 278.54 212.57 283.57 209.55 C 284.86 208.88 285.75 207.74 286.39 206.47 C 282.87 207.47 279.59 209.21 275.97 209.83 C 277.92 205.51 282.95 204.06 285.26 200.02 C 278.16 201.81 273.45 207.85 267.66 211.88 C 271.70 205.34 279.96 202.66 283.19 195.42 C 277.63 196.07 274.78 201.68 270.13 204.18 C 271.48 200.23 273.79 196.75 276.01 193.25 C 280.30 194.08 284.68 194.57 288.99 193.59 C 288.41 193.01 287.84 192.43 287.27 191.85 C 282.29 191.83 277.24 192.06 272.33 191.07 C 271.89 190.48 271.01 189.29 270.57 188.70 C 278.17 187.93 285.81 188.92 293.41 188.35 C 292.37 187.90 291.36 187.30 290.21 187.21 C 286.99 185.75 283.40 185.82 279.95 185.86 C 281.29 185.36 282.68 184.96 283.94 184.27 L 284.78 184.08 C 285.83 185.11 288.66 184.69 288.71 183.00 C 290.78 183.17 292.68 182.36 294.31 181.15 L 293.13 181.14 C 292.71 180.77 291.86 180.03 291.44 179.66 C 291.76 179.03 292.09 178.40 292.42 177.77 C 292.90 177.28 293.87 176.31 294.35 175.82 C 289.29 174.73 284.61 177.53 279.62 177.69 C 282.80 174.40 287.13 172.60 290.59 169.65 C 294.82 165.78 300.56 171.47 305.28 168.61 C 300.07 166.86 294.47 166.08 289.68 163.23 C 288.48 162.51 287.92 161.17 287.16 160.07 C 294.74 160.82 301.82 164.91 309.60 164.00 C 303.94 160.32 296.45 161.35 290.98 157.44 C 297.98 157.97 305.03 158.83 312.06 158.26 L 312.40 157.02 C 305.79 154.36 298.47 156.65 291.75 154.53 C 297.79 154.27 303.90 154.71 309.90 153.76 C 311.46 153.71 312.58 152.59 313.74 151.69 C 309.03 150.58 304.23 151.71 299.50 151.42 C 298.35 150.44 297.31 149.35 296.23 148.31 C 299.47 145.59 302.22 142.17 306.05 140.23 C 307.23 140.59 309.11 140.84 308.69 142.52 C 304.85 144.52 300.83 146.40 297.90 149.69 C 302.99 149.50 307.51 146.80 312.14 144.95 C 315.98 145.90 319.69 147.37 323.64 147.91 C 322.12 145.16 318.97 144.30 316.19 143.44 C 313.32 141.61 310.07 140.00 308.78 136.61 C 315.36 139.20 321.35 143.30 328.28 144.94 C 327.59 143.93 327.02 142.72 325.78 142.30 C 321.67 140.30 317.26 138.94 313.35 136.53 C 319.82 136.80 325.76 140.15 332.29 139.77 C 329.76 137.89 326.80 136.63 323.68 136.12 C 320.57 135.28 316.95 135.72 314.38 133.45 C 320.61 134.20 326.75 136.69 333.11 135.33 C 330.08 131.99 325.17 133.13 321.57 130.96 C 326.79 129.62 332.29 129.23 337.21 126.85 C 336.66 126.52 335.57 125.87 335.02 125.55 C 330.65 125.87 326.52 128.05 322.08 127.50 C 327.51 123.30 334.76 121.65 339.16 116.11 C 329.10 118.05 321.53 126.27 311.74 129.02 C 317.22 121.81 326.29 118.09 331.11 110.25 C 330.43 110.36 329.09 110.60 328.42 110.71 C 321.38 114.27 317.00 121.40 310.20 125.32 C 313.56 117.59 320.43 112.36 325.09 105.53 C 320.31 106.63 317.72 111.09 313.77 113.53 C 315.40 109.70 318.83 106.98 320.27 103.06 C 310.05 107.88 308.35 120.21 302.96 128.94 M 495.71 102.91 C 497.66 108.44 503.27 111.66 505.01 117.28 C 499.93 113.54 497.23 106.72 490.75 104.92 C 494.92 112.06 502.45 117.04 505.23 125.00 C 501.50 122.01 498.23 118.51 494.54 115.48 C 491.58 113.09 488.71 109.90 484.59 109.94 C 486.94 113.65 490.36 116.49 493.70 119.28 C 497.37 122.35 501.87 124.69 504.33 128.96 C 494.67 125.39 486.56 118.33 476.65 115.43 C 477.37 116.62 478.02 117.97 479.28 118.71 C 484.31 122.18 490.10 124.35 495.17 127.77 C 489.54 127.76 484.35 125.06 478.71 125.13 C 479.02 125.66 479.63 126.72 479.94 127.25 C 485.15 129.08 490.70 129.68 496.07 130.94 C 492.40 131.71 488.72 132.46 484.97 132.68 C 484.37 132.97 483.16 133.57 482.55 133.87 C 483.61 135.24 484.70 136.61 485.74 138.01 C 485.22 138.43 484.18 139.28 483.66 139.70 C 490.10 139.61 495.99 136.21 502.47 136.30 C 498.01 138.86 493.01 140.23 488.41 142.51 C 488.29 143.06 488.06 144.14 487.94 144.68 C 493.52 142.98 498.40 139.56 503.94 137.78 C 504.42 138.02 505.40 138.48 505.89 138.72 C 501.64 141.70 497.17 144.28 492.67 146.83 C 496.84 147.29 500.50 143.16 504.54 144.99 C 508.67 146.61 513.11 147.78 516.66 150.57 C 511.96 150.88 507.24 150.24 502.55 150.81 C 503.29 153.84 506.66 153.47 509.08 153.66 C 513.92 153.71 518.77 154.06 523.57 154.72 C 517.50 156.26 511.12 154.84 504.97 156.03 C 504.13 156.37 503.37 156.86 502.69 157.48 C 507.27 158.00 512.06 158.20 516.50 156.74 C 519.46 156.78 522.44 156.61 525.40 156.91 C 519.70 161.22 511.35 159.13 505.67 163.58 C 513.58 164.04 521.13 161.14 528.65 159.13 C 528.51 159.89 528.34 160.64 528.15 161.38 C 523.16 165.62 516.16 165.45 510.60 168.50 C 514.80 169.22 518.90 168.05 523.00 167.31 C 527.23 169.84 530.81 173.61 535.46 175.65 C 535.55 176.15 535.73 177.16 535.82 177.66 C 531.16 176.52 526.60 174.36 521.70 174.85 C 524.90 181.03 533.04 179.05 538.59 181.11 C 532.87 182.99 527.31 177.82 521.66 180.60 C 527.27 183.99 534.15 183.20 540.24 185.16 C 535.28 186.27 530.23 185.54 525.22 185.73 C 524.79 186.34 523.91 187.55 523.48 188.15 C 531.08 189.26 538.97 186.12 546.33 188.92 C 543.17 190.45 539.76 191.39 536.33 192.04 C 533.32 191.55 529.69 190.63 527.26 193.08 C 529.51 193.36 531.78 193.50 534.05 193.66 C 534.13 196.90 536.30 199.39 538.62 201.41 C 542.41 204.57 546.33 207.60 549.78 211.15 C 542.89 208.01 538.54 200.75 530.94 199.06 C 534.61 204.50 541.18 206.90 545.20 212.02 C 539.91 210.35 535.38 206.50 529.71 206.07 C 534.75 211.40 542.43 212.95 548.35 217.09 C 546.94 219.00 544.62 217.84 542.75 217.52 C 538.53 216.49 534.89 213.90 530.66 212.91 C 534.77 218.59 542.19 219.14 548.04 221.93 C 550.10 226.64 552.15 231.39 553.87 236.25 C 550.01 233.32 547.23 229.29 543.70 226.01 C 543.38 226.53 542.74 227.55 542.42 228.06 L 542.87 228.89 C 542.59 229.51 542.03 230.75 541.75 231.37 C 541.51 231.13 541.03 230.66 540.79 230.43 C 540.39 230.57 539.57 230.86 539.16 231.00 C 542.37 236.20 547.81 239.38 551.25 244.39 C 546.13 242.52 541.94 238.79 536.77 237.06 C 537.93 239.91 541.02 240.91 543.36 242.57 C 547.44 245.41 552.31 247.37 555.38 251.46 C 548.37 251.30 543.11 246.25 536.79 244.08 C 540.91 249.15 547.00 252.08 553.06 254.17 C 554.31 254.71 556.40 255.16 556.18 256.97 C 556.19 262.39 556.31 267.82 556.29 273.24 C 551.46 268.74 553.54 260.03 547.86 256.32 C 547.32 265.27 553.78 272.65 554.70 281.39 C 553.37 279.95 552.27 278.29 551.84 276.35 C 550.18 270.03 547.23 264.04 543.22 258.88 C 543.24 261.19 543.31 263.58 544.44 265.67 C 547.01 271.09 550.03 276.32 551.86 282.07 C 546.73 276.66 543.99 269.14 537.70 264.85 C 540.86 273.18 548.15 279.15 551.76 287.28 C 543.97 285.12 540.06 277.34 535.13 271.65 C 536.73 279.16 542.34 284.72 547.57 289.95 C 545.69 297.43 547.86 305.03 547.65 312.60 C 547.42 312.62 546.95 312.66 546.71 312.67 C 545.69 305.63 546.20 298.41 544.46 291.49 C 543.98 291.41 543.01 291.25 542.53 291.17 C 542.15 297.96 544.04 304.63 543.69 311.43 C 541.00 306.04 541.55 298.97 536.85 294.76 C 537.43 302.29 541.73 309.04 541.75 316.67 C 535.37 312.78 535.38 304.79 532.33 298.77 C 531.81 306.25 535.86 312.86 538.60 319.52 C 539.18 323.61 536.99 327.50 535.64 331.26 C 534.79 326.26 536.06 320.42 533.11 316.07 C 532.87 316.84 532.38 318.38 532.13 319.14 C 531.39 319.76 530.66 320.39 529.93 321.02 C 529.68 319.56 529.40 318.10 529.10 316.66 C 527.77 318.36 526.85 320.44 527.36 322.65 C 526.51 323.83 525.66 325.01 524.82 326.20 C 524.50 324.13 523.09 322.59 521.43 321.44 C 522.67 327.90 525.55 333.93 526.29 340.50 C 519.97 338.03 520.30 330.52 517.13 325.60 C 517.11 331.80 519.92 337.51 522.44 343.02 C 520.07 346.75 517.85 350.58 515.24 354.15 C 515.13 348.91 517.65 343.97 517.14 338.72 C 515.90 339.94 514.56 341.20 514.07 342.94 C 512.08 348.86 512.51 355.28 510.57 361.22 C 509.22 353.54 513.66 346.27 511.98 338.61 C 511.21 339.59 510.37 340.55 509.82 341.69 C 508.31 347.41 508.70 353.40 507.62 359.19 C 506.61 354.24 506.57 349.20 506.28 344.19 C 506.31 342.76 505.30 341.70 504.56 340.60 C 503.62 348.19 505.41 355.83 504.30 363.42 C 498.83 358.46 500.61 350.26 499.36 343.72 C 497.18 348.61 498.99 353.92 498.70 359.01 C 497.83 360.92 496.39 362.47 495.21 364.19 C 492.51 367.77 490.72 371.96 487.81 375.39 C 488.14 370.48 489.10 365.64 489.39 360.74 C 488.33 361.47 486.54 361.75 486.37 363.30 C 485.33 367.94 485.24 372.77 483.70 377.31 C 482.56 371.81 485.61 366.33 483.89 360.81 C 483.16 361.51 482.46 362.25 481.80 363.02 C 481.05 365.19 480.41 367.39 479.82 369.60 C 479.27 369.10 478.74 368.60 478.20 368.10 C 477.95 366.25 477.41 364.46 476.87 362.68 C 476.59 363.24 476.03 364.36 475.75 364.92 C 475.33 370.74 477.04 376.54 476.08 382.36 C 470.25 378.88 472.27 371.23 471.48 365.63 C 468.90 371.00 471.17 377.11 470.78 382.80 C 467.87 385.00 465.11 387.40 462.03 389.35 C 463.74 384.51 468.74 381.26 468.98 375.91 C 466.70 377.27 464.55 378.83 462.39 380.36 C 463.47 378.29 464.73 376.14 464.36 373.70 C 459.13 377.80 457.72 384.78 453.03 389.35 C 454.26 384.27 456.22 379.42 457.76 374.43 C 457.44 374.12 456.80 373.49 456.48 373.17 C 454.40 378.04 452.75 383.13 449.91 387.63 C 449.18 387.64 447.72 387.65 446.99 387.65 C 447.96 383.21 450.03 379.08 450.87 374.61 C 447.10 377.31 447.36 382.94 443.37 385.41 C 439.14 388.50 435.84 392.60 431.83 395.93 C 433.51 390.35 438.66 386.60 440.02 380.94 C 433.63 385.78 430.68 393.78 424.33 398.62 C 424.68 391.57 430.59 386.99 433.07 380.83 C 431.49 381.92 429.91 383.07 428.79 384.66 C 424.89 390.07 421.64 396.10 420.30 402.68 C 417.31 402.57 414.27 402.49 411.38 403.39 C 411.28 405.88 411.54 408.36 412.19 410.77 C 415.47 411.11 418.42 409.75 421.16 408.12 C 424.31 412.15 427.59 416.74 432.85 418.06 C 434.47 418.68 436.12 419.21 437.79 419.71 C 438.11 418.89 438.43 418.07 438.74 417.25 C 441.91 417.60 445.43 418.76 448.27 416.69 L 447.09 416.66 C 443.24 413.70 438.14 413.46 434.03 411.00 C 433.56 410.11 433.15 409.20 432.81 408.27 C 441.69 410.16 450.41 413.42 459.61 413.35 C 457.76 410.14 453.69 410.04 450.51 409.13 C 445.27 407.75 439.66 407.91 434.64 405.74 C 442.98 404.78 451.37 405.25 459.58 406.92 L 458.69 407.02 C 466.40 409.33 474.88 409.59 482.67 407.52 L 483.70 407.62 C 481.21 405.36 477.56 405.38 474.63 406.69 C 470.98 406.71 467.31 406.93 463.67 406.49 C 470.00 404.79 476.60 404.57 483.00 403.20 C 484.43 403.14 485.31 402.01 486.21 401.06 C 481.48 401.09 476.75 401.19 472.03 401.47 C 467.15 401.68 462.29 402.93 457.40 402.07 C 458.59 401.33 459.78 400.47 461.22 400.28 C 467.67 399.15 474.11 397.87 480.41 396.06 C 482.99 395.42 484.41 392.62 487.07 392.26 C 492.48 391.43 498.13 392.04 503.36 390.10 C 506.70 388.82 510.55 387.65 512.33 384.26 C 509.06 384.95 505.90 386.06 502.65 386.80 C 505.47 382.39 511.35 381.50 514.17 377.12 C 506.08 378.38 500.00 384.49 492.57 387.44 C 491.06 388.34 489.88 386.82 488.67 386.15 L 487.98 386.24 C 490.62 385.94 492.67 384.11 494.67 382.53 C 495.77 382.47 497.00 382.60 497.89 381.77 C 502.29 378.62 506.16 374.54 511.26 372.52 C 517.16 371.92 523.11 372.63 529.00 371.75 C 534.36 371.00 540.51 370.48 544.26 366.05 C 537.88 366.25 532.15 369.84 525.71 369.59 C 531.70 366.22 539.26 365.95 544.28 360.81 C 535.14 361.18 526.95 366.79 517.69 366.78 C 522.62 363.62 528.22 361.74 533.41 359.08 C 536.37 357.52 540.27 356.19 540.81 352.37 C 530.85 354.39 522.97 361.38 513.64 364.98 C 517.20 359.81 522.84 356.59 527.47 352.47 C 531.30 348.65 537.05 349.79 541.73 347.91 C 548.31 346.83 554.83 344.91 560.73 341.75 C 563.35 340.42 565.25 338.12 566.88 335.73 C 564.74 335.60 562.61 335.49 560.48 335.52 C 562.59 334.25 564.11 332.25 565.24 330.10 C 556.89 333.06 550.37 339.96 541.71 342.10 C 546.41 336.30 553.58 333.20 558.44 327.53 C 559.57 326.52 559.62 324.94 560.00 323.58 C 559.65 323.04 558.95 321.96 558.60 321.42 C 566.00 319.66 573.67 317.63 579.57 312.58 C 580.57 311.71 580.66 310.25 581.19 309.11 C 575.30 311.78 570.07 315.76 563.93 317.91 C 568.97 312.83 576.82 310.73 580.08 303.93 C 571.37 307.05 564.59 314.11 555.75 316.96 C 560.91 310.72 568.37 306.84 573.70 300.75 C 574.52 299.63 574.60 298.19 574.97 296.90 C 569.79 299.02 565.97 303.21 561.65 306.59 C 558.05 309.35 555.53 313.53 551.19 315.27 C 556.48 306.18 563.78 298.47 569.99 290.02 L 570.75 290.71 C 569.91 289.40 569.05 288.13 568.13 286.90 C 575.94 281.42 585.62 276.47 588.86 266.83 C 583.76 267.94 582.87 274.58 577.96 276.02 C 578.04 275.60 578.21 274.75 578.29 274.32 C 581.21 270.04 584.85 265.98 586.00 260.78 C 582.92 262.58 580.73 265.47 578.52 268.20 C 574.92 270.14 572.63 273.63 570.00 276.63 C 569.61 276.25 568.85 275.50 568.47 275.12 C 572.11 270.47 575.23 265.43 577.94 260.20 C 579.06 258.35 578.42 256.17 578.08 254.20 C 573.48 259.69 569.26 265.58 566.20 272.08 C 565.17 272.88 564.17 273.69 563.16 274.51 C 563.04 273.87 562.79 272.60 562.66 271.96 C 565.80 263.19 569.74 254.62 571.26 245.37 C 575.29 237.25 582.13 229.31 580.53 219.61 C 579.61 220.68 578.67 221.80 578.39 223.23 C 577.01 228.46 575.59 233.89 572.15 238.20 C 573.00 230.62 577.64 223.40 575.77 215.62 C 573.77 218.21 573.33 221.50 572.54 224.57 C 571.12 230.57 568.92 236.34 567.07 242.22 C 566.64 242.39 565.77 242.73 565.33 242.91 C 566.68 234.96 568.90 227.11 568.75 218.99 C 569.08 217.06 567.91 215.44 566.99 213.89 C 561.66 222.82 564.89 233.68 562.00 243.21 C 560.00 237.24 561.15 230.90 560.16 224.79 C 559.74 222.12 559.33 219.22 560.77 216.76 C 564.77 207.98 570.86 198.63 567.68 188.58 C 565.92 191.99 566.67 195.94 565.89 199.58 C 564.16 196.28 563.92 192.52 563.33 188.91 C 562.91 186.64 562.74 184.02 560.72 182.54 C 560.35 188.34 560.77 194.16 560.53 199.97 C 560.36 203.21 560.44 206.67 558.62 209.51 C 557.66 203.38 557.70 197.17 557.44 190.99 C 557.34 186.95 555.76 183.10 555.76 179.05 C 555.72 170.93 555.74 162.61 553.19 154.81 C 552.52 152.51 551.06 150.58 549.59 148.75 C 548.81 151.86 550.48 154.73 551.24 157.66 C 552.45 161.38 552.89 165.29 552.92 169.19 C 551.18 163.91 549.73 158.52 547.57 153.39 C 546.88 151.65 545.37 150.46 543.99 149.28 C 545.69 158.73 549.64 167.70 550.75 177.28 C 547.23 173.81 545.69 168.98 543.11 164.87 C 540.97 160.98 537.90 157.50 536.83 153.10 C 535.25 146.89 533.71 140.64 531.29 134.69 C 529.88 131.41 527.56 127.96 523.79 127.28 C 525.77 131.31 529.24 134.62 530.06 139.18 C 525.49 134.50 522.79 127.95 516.61 124.94 C 519.77 133.04 526.86 138.93 529.85 147.15 C 523.79 142.53 520.09 135.63 514.59 130.43 C 511.94 128.18 510.94 124.79 509.61 121.71 C 506.40 114.66 503.36 106.24 495.71 102.91 M 491.36 179.41 C 487.75 180.90 484.97 183.99 483.59 187.60 C 481.36 194.48 477.89 200.87 475.62 207.74 C 472.28 215.36 471.13 223.66 468.75 231.58 C 468.24 234.26 465.23 234.85 462.99 235.37 C 455.03 234.50 446.99 233.30 438.97 234.19 C 429.99 234.23 421.43 237.23 412.67 238.77 C 407.20 240.04 401.94 237.25 397.20 234.86 C 391.61 231.68 385.09 230.65 379.44 227.59 C 374.85 219.88 370.66 211.92 365.11 204.84 C 365.46 202.94 366.65 201.10 366.38 199.15 C 364.67 196.48 361.22 197.14 358.52 196.71 C 357.52 194.33 355.37 191.09 352.37 192.38 C 346.49 196.11 339.03 193.81 332.80 196.63 C 330.18 197.56 328.27 199.64 326.09 201.26 C 323.07 202.58 319.73 202.84 316.57 203.66 C 316.63 205.91 316.73 208.17 316.87 210.43 C 315.15 210.38 313.43 210.33 311.72 210.28 C 310.78 211.84 309.42 213.02 307.97 214.08 C 308.85 213.81 310.60 213.26 311.48 212.99 C 311.43 213.67 311.34 215.02 311.29 215.69 C 313.73 216.72 316.22 216.54 318.43 215.07 C 319.12 216.28 319.82 217.50 320.53 218.71 C 316.79 219.75 313.18 221.93 311.21 225.38 C 305.78 234.13 306.27 245.07 301.39 254.07 C 303.44 257.20 307.16 259.69 307.74 263.50 C 303.97 264.45 298.83 265.12 297.38 269.39 C 296.58 273.12 296.20 276.94 295.10 280.61 C 296.17 280.46 297.25 280.31 298.33 280.15 C 298.35 280.83 298.38 282.20 298.40 282.88 C 303.82 279.63 310.29 279.30 316.05 276.85 C 316.69 276.94 317.97 277.12 318.61 277.21 L 318.47 276.35 C 318.81 275.92 319.49 275.07 319.83 274.64 C 320.34 274.96 321.36 275.60 321.88 275.93 C 324.50 275.55 327.14 275.30 329.74 274.78 C 331.52 274.76 333.30 274.78 335.09 274.82 C 335.20 277.07 335.35 279.32 335.57 281.57 C 334.70 282.04 333.83 282.51 332.96 283.00 C 330.74 283.29 328.50 283.39 326.30 283.75 C 318.67 285.20 310.88 283.96 303.20 284.49 C 299.18 285.21 297.02 288.92 296.07 292.57 C 297.92 292.15 299.80 291.81 301.68 291.55 C 300.80 295.08 299.20 298.47 299.22 302.19 C 301.43 300.45 303.58 298.59 306.20 297.47 C 306.23 299.81 306.10 302.15 306.17 304.50 C 308.13 303.26 309.50 300.80 312.02 300.72 C 317.21 300.39 321.33 296.97 325.80 294.79 C 330.70 294.64 335.60 294.63 340.49 295.00 C 340.72 298.18 341.02 301.45 342.71 304.25 C 343.95 308.22 345.68 312.72 349.81 314.48 C 355.66 306.41 352.75 296.01 353.61 286.80 C 354.27 288.90 353.65 291.55 354.99 293.32 C 360.60 293.15 366.19 292.69 371.79 292.42 C 373.97 292.60 375.37 290.70 376.94 289.54 C 380.83 290.80 384.94 291.02 389.00 291.17 C 400.88 290.93 412.79 288.86 423.90 284.63 C 423.11 287.68 420.90 290.65 421.77 293.92 C 423.23 298.63 429.35 301.77 427.40 307.33 C 422.62 309.10 418.04 305.88 413.29 306.40 C 409.38 308.26 403.76 308.72 402.67 313.77 C 404.73 313.52 407.28 310.97 408.98 313.08 C 408.36 317.17 406.10 320.76 404.98 324.72 C 409.37 322.60 414.37 318.62 419.21 322.15 C 418.80 324.02 418.33 325.87 417.91 327.74 C 422.01 325.40 426.71 324.75 431.35 324.55 C 434.45 321.09 438.32 318.20 442.78 316.75 C 446.41 315.41 450.48 315.87 453.92 313.93 C 452.73 308.79 447.93 305.73 446.30 300.81 C 450.81 300.32 455.86 301.69 459.87 298.90 C 461.97 297.82 462.22 295.27 463.12 293.33 C 469.60 297.16 476.97 298.99 484.34 300.14 C 482.19 304.02 477.33 304.39 474.15 307.08 C 470.90 310.14 464.95 309.93 463.73 314.95 C 467.08 314.48 470.37 313.28 473.80 313.81 C 474.08 317.67 473.18 321.48 473.07 325.33 C 476.75 321.82 481.41 319.77 486.20 318.24 C 489.07 321.59 492.12 324.87 495.92 327.19 C 497.11 319.96 499.11 312.64 503.59 306.71 C 503.93 303.69 503.78 300.61 503.35 297.62 C 501.10 294.71 497.11 294.01 494.54 291.46 C 492.18 289.09 489.38 286.85 488.37 283.53 C 484.78 274.09 487.33 263.54 483.89 254.10 C 483.19 251.78 480.74 249.74 481.70 247.17 C 484.36 244.95 487.76 243.71 490.08 241.07 C 494.19 237.29 496.81 232.24 499.33 227.33 C 503.39 218.86 501.02 209.22 502.57 200.26 C 503.42 192.10 505.77 184.21 508.68 176.57 C 502.78 175.97 496.79 177.09 491.36 179.41 Z" />
</g>
<g id="#359435ff">
<path fill="#359435" opacity="1.00" d=" M 302.96 128.94 C 308.35 120.21 310.05 107.88 320.27 103.06 C 318.83 106.98 315.40 109.70 313.77 113.53 C 317.72 111.09 320.31 106.63 325.09 105.53 C 320.43 112.36 313.56 117.59 310.20 125.32 C 317.00 121.40 321.38 114.27 328.42 110.71 C 329.09 110.60 330.43 110.36 331.11 110.25 C 326.29 118.09 317.22 121.81 311.74 129.02 C 321.53 126.27 329.10 118.05 339.16 116.11 C 334.76 121.65 327.51 123.30 322.08 127.50 C 326.52 128.05 330.65 125.87 335.02 125.55 C 335.57 125.87 336.66 126.52 337.21 126.85 C 332.29 129.23 326.79 129.62 321.57 130.96 C 325.17 133.13 330.08 131.99 333.11 135.33 C 326.75 136.69 320.61 134.20 314.38 133.45 C 316.95 135.72 320.57 135.28 323.68 136.12 C 326.80 136.63 329.76 137.89 332.29 139.77 C 325.76 140.15 319.82 136.80 313.35 136.53 C 317.26 138.94 321.67 140.30 325.78 142.30 C 327.02 142.72 327.59 143.93 328.28 144.94 C 321.35 143.30 315.36 139.20 308.78 136.61 C 310.07 140.00 313.32 141.61 316.19 143.44 C 314.81 143.89 313.46 144.39 312.14 144.95 C 307.51 146.80 302.99 149.50 297.90 149.69 C 300.83 146.40 304.85 144.52 308.69 142.52 C 309.11 140.84 307.23 140.59 306.05 140.23 C 302.22 142.17 299.47 145.59 296.23 148.31 C 297.31 149.35 298.35 150.44 299.50 151.42 C 304.23 151.71 309.03 150.58 313.74 151.69 C 312.58 152.59 311.46 153.71 309.90 153.76 C 303.90 154.71 297.79 154.27 291.75 154.53 C 298.47 156.65 305.79 154.36 312.40 157.02 C 304.99 158.27 297.57 156.32 290.14 156.88 L 290.98 157.44 C 296.45 161.35 303.94 160.32 309.60 164.00 C 301.82 164.91 294.74 160.82 287.16 160.07 C 287.92 161.17 288.48 162.51 289.68 163.23 C 294.47 166.08 300.07 166.86 305.28 168.61 C 300.56 171.47 294.82 165.78 290.59 169.65 C 287.13 172.60 282.80 174.40 279.62 177.69 C 284.61 177.53 289.29 174.73 294.35 175.82 C 293.87 176.31 292.90 177.28 292.42 177.77 C 286.02 180.10 278.77 179.54 272.81 183.14 C 275.10 184.57 277.29 186.42 280.03 186.88 C 283.40 187.45 286.82 187.19 290.21 187.21 C 291.36 187.30 292.37 187.90 293.41 188.35 C 285.81 188.92 278.17 187.93 270.57 188.70 C 271.01 189.29 271.89 190.48 272.33 191.07 C 277.24 192.06 282.29 191.83 287.27 191.85 C 287.84 192.43 288.41 193.01 288.99 193.59 C 284.68 194.57 280.30 194.08 276.01 193.25 C 273.79 196.75 271.48 200.23 270.13 204.18 C 274.78 201.68 277.63 196.07 283.19 195.42 C 279.96 202.66 271.70 205.34 267.66 211.88 C 273.45 207.85 278.16 201.81 285.26 200.02 C 282.95 204.06 277.92 205.51 275.97 209.83 C 279.59 209.21 282.87 207.47 286.39 206.47 C 285.75 207.74 284.86 208.88 283.57 209.55 C 278.54 212.57 273.16 214.93 267.83 217.35 C 269.48 218.54 271.48 218.96 273.47 218.43 C 277.92 217.24 281.71 214.41 286.10 213.05 C 282.40 218.86 275.11 219.93 269.16 222.16 C 266.80 226.53 265.26 231.39 263.86 236.17 C 267.00 233.63 269.27 230.22 272.30 227.57 C 273.20 227.53 274.11 227.55 275.02 227.62 C 272.92 233.24 268.13 237.06 263.65 240.75 C 261.87 242.13 260.46 243.95 259.95 246.18 C 266.81 242.08 269.71 233.12 277.96 231.00 C 275.60 236.32 270.23 239.20 266.55 243.47 C 265.25 245.13 264.40 247.07 263.54 248.97 C 263.07 249.98 262.57 250.99 262.10 252.01 C 269.08 252.06 274.31 246.96 280.40 244.38 C 275.86 250.70 268.19 253.42 261.16 255.96 C 261.44 261.85 261.07 267.75 261.50 273.62 C 265.75 268.90 263.57 260.73 269.36 257.17 C 269.60 265.71 264.59 273.09 262.18 281.01 C 262.68 280.84 263.70 280.50 264.20 280.33 C 266.58 273.16 268.99 265.72 273.89 259.81 C 274.59 266.73 268.24 271.74 268.35 278.55 C 272.22 274.49 274.42 268.92 279.23 265.76 C 276.73 274.37 268.01 279.47 265.74 288.24 C 273.40 285.77 276.65 277.96 282.05 272.76 C 280.29 279.23 275.66 284.34 271.25 289.16 C 269.63 290.62 270.63 292.94 270.44 294.83 C 270.85 301.37 268.51 308.14 270.83 314.49 C 272.31 307.71 271.42 300.67 272.93 293.89 C 273.27 292.98 273.83 292.19 274.60 291.54 C 274.68 292.39 274.83 294.08 274.90 294.92 C 274.83 298.56 274.19 302.14 273.63 305.73 C 273.30 308.36 272.51 311.27 273.91 313.74 C 274.95 315.38 276.48 316.62 277.89 317.95 C 278.04 318.94 278.19 319.92 278.36 320.92 C 279.09 324.90 280.82 328.62 282.42 332.32 C 283.08 327.09 281.82 321.61 283.89 316.62 C 285.10 317.85 285.68 319.32 285.63 321.02 C 285.71 326.87 285.07 332.73 285.61 338.58 C 286.17 337.47 286.71 336.31 286.65 335.04 C 286.67 330.33 287.07 325.63 287.82 320.99 C 287.84 319.59 288.81 318.63 289.71 317.70 C 289.75 318.26 289.84 319.37 289.89 319.93 C 290.13 325.85 288.85 331.73 289.34 337.65 C 290.62 334.73 291.54 331.66 292.27 328.56 C 292.82 326.18 293.96 324.00 295.24 321.94 C 296.50 328.56 291.39 334.48 291.68 341.10 C 291.94 341.20 292.46 341.39 292.71 341.49 C 294.98 339.27 296.91 336.60 297.74 333.51 C 298.57 331.17 298.77 328.49 300.61 326.65 C 300.20 332.68 297.65 338.28 295.33 343.78 C 298.21 347.55 300.35 351.87 303.59 355.39 C 302.74 350.33 301.07 345.46 300.18 340.41 C 300.84 340.39 302.16 340.35 302.82 340.33 C 303.22 341.66 303.63 343.00 303.93 344.37 C 305.11 350.50 305.85 356.72 307.50 362.75 C 309.28 354.99 305.55 347.37 305.78 339.56 C 307.11 340.16 307.93 341.33 308.10 342.78 C 309.35 348.23 309.47 353.87 310.90 359.30 C 311.73 353.72 311.44 348.06 311.65 342.44 C 312.19 342.39 313.27 342.29 313.80 342.24 C 313.98 349.26 312.43 356.29 313.66 363.28 C 313.94 363.37 314.52 363.54 314.81 363.63 C 318.64 358.03 317.60 350.97 318.47 344.61 C 320.81 349.44 318.68 354.73 319.10 359.77 C 323.16 365.11 326.73 370.81 330.66 376.24 C 330.53 371.00 328.17 366.02 328.70 360.75 C 329.89 362.05 331.66 363.15 331.81 365.09 C 333.03 371.13 333.52 377.38 335.95 383.12 C 336.98 375.94 333.41 369.09 333.97 361.87 L 333.95 360.73 C 334.97 362.07 336.29 363.38 336.45 365.17 C 337.29 370.50 337.83 375.88 338.95 381.17 C 339.84 375.68 338.66 369.89 340.59 364.59 C 340.99 364.31 341.79 363.75 342.19 363.47 C 342.69 369.81 340.95 376.19 342.63 382.48 C 347.47 378.96 346.36 372.44 346.31 367.25 C 346.66 367.25 347.37 367.25 347.72 367.25 C 347.80 370.34 347.97 373.45 347.66 376.53 C 347.39 378.67 347.01 380.79 346.65 382.91 C 350.02 385.41 353.39 387.92 357.03 390.00 C 354.50 385.50 351.22 381.48 348.23 377.28 C 349.75 377.43 351.64 376.90 352.66 378.40 C 357.19 383.03 359.12 389.63 364.10 393.90 C 362.04 386.45 354.59 381.65 353.61 373.87 C 358.76 377.86 360.38 384.64 364.97 389.14 C 364.56 383.42 360.09 378.56 360.84 372.76 C 363.94 377.36 365.39 382.80 368.18 387.58 C 368.89 387.63 370.30 387.72 371.01 387.77 C 370.18 383.74 368.78 379.86 367.33 376.03 C 367.67 375.82 368.34 375.40 368.68 375.19 C 370.01 377.93 370.98 380.83 372.43 383.51 C 373.71 384.94 375.35 385.97 376.78 387.24 C 380.49 390.29 383.40 394.37 387.83 396.46 C 384.95 391.32 380.46 387.24 378.08 381.81 C 384.92 385.74 387.52 394.02 393.98 398.33 C 393.47 391.41 387.92 386.72 384.77 381.00 C 392.11 385.94 395.85 394.48 398.14 402.73 C 401.35 402.81 405.94 401.68 407.53 405.44 C 407.64 407.25 406.95 408.98 406.55 410.73 C 403.30 411.09 400.29 410.01 397.70 408.10 C 393.78 413.08 388.73 419.23 381.72 418.65 C 381.58 418.07 381.30 416.92 381.17 416.35 C 377.71 417.00 374.19 418.01 370.67 417.22 C 375.54 413.15 383.11 413.85 386.93 408.22 C 380.53 409.67 374.17 411.31 367.75 412.66 C 364.86 413.24 361.89 413.86 358.96 413.30 C 359.29 410.93 362.34 410.96 364.11 410.25 C 370.65 408.14 377.57 407.95 384.18 406.24 C 378.83 404.89 373.20 405.29 367.75 405.63 C 356.99 407.55 345.25 412.20 334.71 407.06 C 341.53 405.63 348.44 408.65 355.27 406.86 C 348.68 405.27 341.91 404.66 335.24 403.47 C 333.93 403.43 333.24 402.29 332.46 401.43 C 341.93 400.52 351.32 403.55 360.76 402.12 C 356.66 399.50 351.60 399.94 347.07 398.64 C 342.04 397.13 336.01 397.12 332.56 392.56 C 325.04 392.54 317.22 392.14 310.36 388.74 C 308.72 388.14 307.69 386.66 306.71 385.32 C 309.74 385.59 312.70 386.41 315.73 386.75 C 312.38 383.60 308.13 381.71 304.49 378.95 C 304.86 378.79 305.59 378.46 305.95 378.29 C 314.52 380.01 320.79 387.66 329.60 388.83 C 328.76 387.84 327.90 386.83 326.75 386.19 C 319.76 382.29 314.02 376.51 306.86 372.88 C 297.28 372.12 287.21 373.64 278.04 369.93 C 276.30 369.36 275.17 367.90 274.22 366.43 C 280.02 367.00 285.36 370.50 291.33 369.50 C 285.47 366.80 278.24 366.38 273.83 361.15 C 282.91 362.29 291.21 366.89 300.36 367.71 C 299.19 366.45 297.87 365.31 296.22 364.75 C 290.42 362.47 284.67 359.95 279.43 356.57 C 278.08 355.91 277.76 354.42 277.43 353.11 C 287.18 355.23 294.97 362.10 304.36 365.22 C 302.02 361.68 298.36 359.42 295.19 356.73 C 292.63 354.73 290.31 352.35 287.39 350.88 C 277.97 348.92 268.33 347.27 259.50 343.31 C 256.34 341.70 252.25 339.96 251.91 335.90 C 252.32 336.13 253.15 336.58 253.56 336.80 C 258.49 339.72 263.38 342.95 269.04 344.26 C 264.28 340.66 258.87 337.92 254.53 333.77 C 253.81 332.94 253.21 332.03 252.73 331.04 C 261.27 334.15 268.03 341.28 277.09 343.11 C 271.85 337.54 264.88 333.99 259.45 328.62 C 258.17 327.64 258.02 325.96 257.54 324.55 C 267.03 327.88 272.70 336.90 281.06 342.05 C 279.34 336.91 275.17 333.23 272.03 328.98 C 270.30 327.02 268.89 324.33 266.11 323.77 C 257.86 321.79 249.26 320.37 241.77 316.15 C 239.25 314.79 237.37 312.54 235.90 310.13 C 242.27 311.88 247.19 316.78 253.60 318.53 C 248.57 313.64 240.73 311.67 237.64 304.87 C 242.31 306.32 246.05 309.57 250.30 311.85 C 254.18 313.98 257.99 316.24 262.04 318.04 C 256.92 311.41 248.94 307.82 243.57 301.45 C 242.85 300.33 242.51 299.09 242.56 297.73 C 251.92 302.25 258.01 311.23 266.71 316.68 C 263.78 310.52 258.77 305.70 254.88 300.16 C 252.31 296.32 248.61 293.20 246.99 288.78 C 248.44 289.28 249.95 289.76 251.17 290.74 C 255.74 296.01 259.49 301.91 264.06 307.17 C 262.97 303.03 261.80 298.86 259.92 295.00 C 258.66 292.21 255.45 291.37 252.93 290.09 C 245.41 285.56 237.87 280.66 231.95 274.07 C 230.04 272.14 229.27 269.48 228.93 266.86 C 233.54 270.44 236.06 276.28 241.53 278.80 C 238.85 272.77 232.24 268.71 231.59 261.77 C 239.64 268.54 244.77 278.37 253.51 284.35 C 251.16 278.51 246.60 273.97 243.76 268.39 C 241.70 264.28 237.70 260.57 238.67 255.56 C 239.80 256.31 241.10 256.93 241.91 258.09 C 246.06 263.47 249.06 269.58 252.51 275.40 C 253.96 278.18 255.33 281.08 257.77 283.16 C 254.87 271.23 249.10 260.18 246.44 248.17 C 245.75 245.09 243.68 242.61 242.22 239.88 C 238.88 233.99 235.33 227.50 236.44 220.47 C 240.52 224.87 239.22 232.18 243.86 236.46 C 244.06 229.83 239.26 223.93 240.79 217.23 C 244.06 220.80 244.17 226.01 245.89 230.36 C 247.77 234.97 248.11 240.35 251.50 244.22 C 250.89 235.72 248.02 227.50 247.67 218.96 C 247.40 217.14 248.97 215.98 249.96 214.72 C 253.82 223.85 253.96 233.95 254.41 243.70 C 254.68 243.70 255.23 243.72 255.51 243.72 C 256.21 235.81 256.64 227.88 257.32 219.97 C 252.83 210.46 246.07 200.62 248.64 189.55 C 251.89 193.96 248.92 200.41 253.00 204.60 C 252.70 197.31 252.07 189.58 255.09 182.76 C 255.60 184.81 255.72 186.92 255.73 189.02 C 255.84 193.99 256.31 198.94 256.42 203.91 C 256.39 206.29 257.24 208.54 258.28 210.63 C 259.15 203.11 258.86 195.50 259.42 187.95 C 260.93 178.54 259.44 168.81 262.07 159.56 C 262.34 163.16 262.82 166.73 263.29 170.31 C 263.83 168.72 264.37 167.13 264.86 165.53 C 266.05 160.11 267.80 154.80 270.87 150.13 C 271.29 150.35 272.12 150.78 272.54 151.00 C 268.81 159.66 267.03 168.98 265.34 178.21 C 269.21 174.72 270.43 169.44 273.17 165.17 C 275.06 161.46 278.23 158.34 279.08 154.16 C 280.43 147.09 282.74 140.22 285.51 133.59 C 286.65 130.68 289.25 128.78 292.02 127.57 C 290.49 131.71 287.18 134.95 286.05 139.27 C 290.82 135.17 293.19 128.63 299.14 125.83 C 295.96 133.97 288.53 139.78 285.97 148.28 C 292.36 142.51 296.83 134.97 302.96 128.94 M 302.21 135.37 C 298.65 137.71 296.38 141.42 293.24 144.23 C 291.05 146.21 288.93 148.32 287.47 150.93 C 293.45 147.50 298.27 142.48 303.84 138.48 C 303.44 137.37 303.66 135.69 302.21 135.37 M 280.44 160.41 C 278.16 163.27 276.68 166.65 274.60 169.65 C 272.74 172.36 270.73 175.06 269.90 178.31 C 272.97 176.62 274.72 173.50 276.61 170.70 C 278.60 167.53 281.01 164.67 283.18 161.62 C 282.28 161.19 281.43 160.61 280.44 160.41 M 284.56 164.51 C 282.17 166.74 280.48 169.65 279.55 172.77 C 283.64 171.60 286.85 168.59 289.27 165.21 C 287.73 164.94 286.13 164.00 284.56 164.51 M 262.91 188.90 C 263.09 195.84 260.91 202.62 261.50 209.56 C 264.38 204.79 264.06 198.82 265.47 193.53 C 266.47 191.31 264.34 190.12 262.91 188.90 M 268.86 191.77 C 268.60 192.84 268.38 193.91 268.20 194.99 C 266.69 197.56 266.11 200.51 266.01 203.46 C 266.95 202.52 269.04 202.02 268.53 200.33 C 269.87 198.38 271.47 196.43 271.84 194.02 C 271.45 192.74 269.79 192.54 268.86 191.77 M 259.79 221.57 C 259.81 227.10 259.53 232.62 259.25 238.13 C 261.48 233.20 262.84 227.93 264.53 222.79 C 263.41 221.23 261.44 221.59 259.79 221.57 M 251.09 254.37 C 252.63 259.60 254.65 264.67 255.98 269.96 C 256.33 271.55 257.07 272.99 258.25 274.13 C 258.61 268.26 258.42 262.36 257.81 256.51 C 255.54 255.87 253.31 255.15 251.09 254.37 M 262.92 293.50 C 263.76 296.91 264.96 300.22 266.32 303.47 C 266.22 304.01 266.04 305.09 265.95 305.63 C 266.45 305.69 267.44 305.81 267.93 305.87 C 268.08 302.15 267.98 298.43 267.70 294.73 C 267.75 294.34 267.85 293.56 267.90 293.18 C 266.23 293.27 264.57 293.39 262.92 293.50 M 272.25 324.78 C 274.43 327.88 276.67 330.95 279.10 333.87 C 279.18 329.97 277.13 326.48 275.64 323.00 C 274.50 323.58 273.37 324.17 272.25 324.78 M 291.55 349.56 C 294.07 352.75 297.34 355.33 300.81 357.45 C 298.89 353.81 296.54 350.44 294.45 346.90 C 293.30 347.60 290.21 347.62 291.55 349.56 M 318.08 363.77 C 317.45 365.17 316.78 366.57 316.28 368.04 C 320.01 372.21 324.53 375.61 328.75 379.28 C 326.17 373.51 322.22 368.49 318.08 363.77 M 310.07 372.64 C 316.88 378.10 324.17 383.36 332.39 386.48 C 328.44 381.76 323.16 378.50 318.53 374.52 C 317.05 373.30 315.61 372.00 313.90 371.12 C 312.55 371.44 311.31 372.07 310.07 372.64 M 345.06 386.17 C 344.62 387.42 344.19 388.67 343.77 389.94 C 348.17 391.37 352.61 392.72 357.14 393.66 C 353.56 390.50 349.34 388.21 345.06 386.17 M 372.95 387.93 C 373.64 389.78 374.67 391.51 376.26 392.73 C 379.76 395.69 382.83 399.38 387.22 401.07 C 385.67 397.68 382.51 395.57 379.82 393.16 C 377.66 391.25 375.51 389.30 372.95 387.93 M 336.60 392.44 C 339.49 394.33 342.95 394.81 346.22 395.68 C 351.15 396.89 356.09 398.22 361.18 398.59 C 355.81 395.33 349.62 393.97 343.60 392.48 C 341.31 391.84 338.92 392.16 336.60 392.44 M 369.51 392.22 C 368.37 393.42 370.31 395.62 371.62 394.52 C 372.78 393.31 370.81 391.10 369.51 392.22 M 374.07 398.54 C 375.78 398.51 377.50 398.49 379.22 398.47 C 377.84 396.92 376.36 395.46 374.79 394.12 C 374.50 395.58 374.27 397.05 374.07 398.54 M 374.18 400.14 C 373.77 400.97 373.36 401.80 372.96 402.64 C 375.38 402.68 377.80 402.68 380.22 402.63 C 378.23 401.74 376.21 400.93 374.18 400.14 Z" />
</g>
<g id="#359336ff">
<path fill="#359336" opacity="1.00" d=" M 495.71 102.91 C 503.36 106.24 506.40 114.66 509.61 121.71 C 510.94 124.79 511.94 128.18 514.59 130.43 C 520.09 135.63 523.79 142.53 529.85 147.15 C 526.86 138.93 519.77 133.04 516.61 124.94 C 522.79 127.95 525.49 134.50 530.06 139.18 C 529.24 134.62 525.77 131.31 523.79 127.28 C 527.56 127.96 529.88 131.41 531.29 134.69 C 533.71 140.64 535.25 146.89 536.83 153.10 C 537.90 157.50 540.97 160.98 543.11 164.87 C 545.69 168.98 547.23 173.81 550.75 177.28 C 549.64 167.70 545.69 158.73 543.99 149.28 C 545.37 150.46 546.88 151.65 547.57 153.39 C 549.73 158.52 551.18 163.91 552.92 169.19 C 552.89 165.29 552.45 161.38 551.24 157.66 C 550.48 154.73 548.81 151.86 549.59 148.75 C 551.06 150.58 552.52 152.51 553.19 154.81 C 555.74 162.61 555.72 170.93 555.76 179.05 C 555.76 183.10 557.34 186.95 557.44 190.99 C 557.70 197.17 557.66 203.38 558.62 209.51 C 560.44 206.67 560.36 203.21 560.53 199.97 C 560.77 194.16 560.35 188.34 560.72 182.54 C 562.74 184.02 562.91 186.64 563.33 188.91 C 563.86 194.36 563.42 199.84 563.67 205.30 C 564.53 203.44 565.36 201.56 565.89 199.58 C 566.67 195.94 565.92 191.99 567.68 188.58 C 570.86 198.63 564.77 207.98 560.77 216.76 C 559.33 219.22 559.74 222.12 560.16 224.79 C 561.15 230.90 560.00 237.24 562.00 243.21 C 564.89 233.68 561.66 222.82 566.99 213.89 C 567.91 215.44 569.08 217.06 568.75 218.99 C 568.90 227.11 566.68 234.96 565.33 242.91 C 565.77 242.73 566.64 242.39 567.07 242.22 C 568.92 236.34 571.12 230.57 572.54 224.57 C 573.33 221.50 573.77 218.21 575.77 215.62 C 577.64 223.40 573.00 230.62 572.15 238.20 C 575.59 233.89 577.01 228.46 578.39 223.23 C 578.67 221.80 579.61 220.68 580.53 219.61 C 582.13 229.31 575.29 237.25 571.26 245.37 C 569.74 254.62 565.80 263.19 562.66 271.96 C 561.26 275.27 560.23 278.73 559.77 282.30 C 562.63 279.40 564.57 275.78 566.20 272.08 C 569.26 265.58 573.48 259.69 578.08 254.20 C 578.42 256.17 579.06 258.35 577.94 260.20 C 575.23 265.43 572.11 270.47 568.47 275.12 C 566.58 277.62 565.07 280.39 563.98 283.34 C 569.83 279.38 574.36 273.82 578.52 268.20 C 580.73 265.47 582.92 262.58 586.00 260.78 C 584.85 265.98 581.21 270.04 578.29 274.32 C 575.88 271.59 574.86 277.49 577.96 276.02 C 582.87 274.58 583.76 267.94 588.86 266.83 C 585.62 276.47 575.94 281.42 568.13 286.90 C 564.93 289.18 561.10 290.53 558.20 293.20 C 555.96 296.92 554.93 301.26 554.00 305.48 C 559.07 300.05 562.86 293.58 567.98 288.19 C 568.48 288.65 569.49 289.56 569.99 290.02 C 563.78 298.47 556.48 306.18 551.19 315.27 C 555.53 313.53 558.05 309.35 561.65 306.59 C 565.97 303.21 569.79 299.02 574.97 296.90 C 574.60 298.19 574.52 299.63 573.70 300.75 C 568.37 306.84 560.91 310.72 555.75 316.96 C 564.59 314.11 571.37 307.05 580.08 303.93 C 576.82 310.73 568.97 312.83 563.93 317.91 C 570.07 315.76 575.30 311.78 581.19 309.11 C 580.66 310.25 580.57 311.71 579.57 312.58 C 573.67 317.63 566.00 319.66 558.60 321.42 C 554.88 322.43 550.48 322.60 547.81 325.77 C 543.64 330.59 539.68 335.68 536.53 341.23 C 545.04 336.27 550.86 327.62 560.00 323.58 C 559.62 324.94 559.57 326.52 558.44 327.53 C 553.58 333.20 546.41 336.30 541.71 342.10 C 550.37 339.96 556.89 333.06 565.24 330.10 C 564.11 332.25 562.59 334.25 560.48 335.52 C 556.38 337.68 551.86 339.60 549.17 343.58 C 547.51 346.15 544.50 347.07 541.73 347.91 C 537.05 349.79 531.30 348.65 527.47 352.47 C 522.84 356.59 517.20 359.81 513.64 364.98 C 522.97 361.38 530.85 354.39 540.81 352.37 C 540.27 356.19 536.37 357.52 533.41 359.08 C 528.22 361.74 522.62 363.62 517.69 366.78 C 526.95 366.79 535.14 361.18 544.28 360.81 C 539.26 365.95 531.70 366.22 525.71 369.59 C 532.15 369.84 537.88 366.25 544.26 366.05 C 540.51 370.48 534.36 371.00 529.00 371.75 C 523.11 372.63 517.16 371.92 511.26 372.52 C 506.16 374.54 502.29 378.62 497.89 381.77 C 497.00 382.60 495.77 382.47 494.67 382.53 C 498.67 379.17 503.14 376.43 507.13 373.05 C 506.86 372.46 506.32 371.28 506.05 370.70 C 505.79 369.02 503.76 369.51 503.29 370.76 C 502.53 371.49 501.76 372.19 500.97 372.87 C 499.29 374.26 497.57 375.61 495.88 376.99 C 492.20 379.95 488.49 382.93 485.41 386.54 C 486.05 386.47 487.34 386.31 487.98 386.24 L 488.67 386.15 C 489.88 386.82 491.06 388.34 492.57 387.44 C 500.00 384.49 506.08 378.38 514.17 377.12 C 511.35 381.50 505.47 382.39 502.65 386.80 C 505.90 386.06 509.06 384.95 512.33 384.26 C 510.55 387.65 506.70 388.82 503.36 390.10 C 498.13 392.04 492.48 391.43 487.07 392.26 C 484.41 392.62 482.99 395.42 480.41 396.06 C 474.11 397.87 467.67 399.15 461.22 400.28 C 459.78 400.47 458.59 401.33 457.40 402.07 C 462.29 402.93 467.15 401.68 472.03 401.47 C 476.75 401.19 481.48 401.09 486.21 401.06 C 485.31 402.01 484.43 403.14 483.00 403.20 C 476.60 404.57 470.00 404.79 463.67 406.49 C 462.30 406.64 460.94 406.79 459.58 406.92 C 451.37 405.25 442.98 404.78 434.64 405.74 C 439.66 407.91 445.27 407.75 450.51 409.13 C 453.69 410.04 457.76 410.14 459.61 413.35 C 450.41 413.42 441.69 410.16 432.81 408.27 C 433.15 409.20 433.56 410.11 434.03 411.00 C 438.14 413.46 443.24 413.70 447.09 416.66 C 442.34 416.84 437.69 415.79 433.13 414.58 C 433.61 415.91 434.09 417.24 434.56 418.58 C 434.14 418.45 433.28 418.19 432.85 418.06 C 427.59 416.74 424.31 412.15 421.16 408.12 C 418.42 409.75 415.47 411.11 412.19 410.77 C 411.54 408.36 411.28 405.88 411.38 403.39 C 414.27 402.49 417.31 402.57 420.30 402.68 C 421.64 396.10 424.89 390.07 428.79 384.66 C 429.91 383.07 431.49 381.92 433.07 380.83 C 430.59 386.99 424.68 391.57 424.33 398.62 C 430.68 393.78 433.63 385.78 440.02 380.94 C 438.66 386.60 433.51 390.35 431.83 395.93 C 435.84 392.60 439.14 388.50 443.37 385.41 C 447.36 382.94 447.10 377.31 450.87 374.61 C 450.03 379.08 447.96 383.21 446.99 387.65 C 447.72 387.65 449.18 387.64 449.91 387.63 C 452.75 383.13 454.40 378.04 456.48 373.17 C 456.80 373.49 457.44 374.12 457.76 374.43 C 456.22 379.42 454.26 384.27 453.03 389.35 C 457.72 384.78 459.13 377.80 464.36 373.70 C 464.73 376.14 463.47 378.29 462.39 380.36 C 464.55 378.83 466.70 377.27 468.98 375.91 C 468.74 381.26 463.74 384.51 462.03 389.35 C 465.11 387.40 467.87 385.00 470.78 382.80 C 471.17 377.11 468.90 371.00 471.48 365.63 C 472.27 371.23 470.25 378.88 476.08 382.36 C 477.04 376.54 475.33 370.74 475.75 364.92 C 476.03 364.36 476.59 363.24 476.87 362.68 C 477.41 364.46 477.95 366.25 478.20 368.10 C 478.53 371.66 478.70 375.27 479.76 378.71 C 481.04 373.57 481.16 368.25 481.80 363.02 C 482.46 362.25 483.16 361.51 483.89 360.81 C 485.61 366.33 482.56 371.81 483.70 377.31 C 485.24 372.77 485.33 367.94 486.37 363.30 C 486.54 361.75 488.33 361.47 489.39 360.74 C 489.10 365.64 488.14 370.48 487.81 375.39 C 490.72 371.96 492.51 367.77 495.21 364.19 C 496.39 362.47 497.83 360.92 498.70 359.01 C 498.99 353.92 497.18 348.61 499.36 343.72 C 500.61 350.26 498.83 358.46 504.30 363.42 C 505.41 355.83 503.62 348.19 504.56 340.60 C 505.30 341.70 506.31 342.76 506.28 344.19 C 506.57 349.20 506.61 354.24 507.62 359.19 C 508.70 353.40 508.31 347.41 509.82 341.69 C 510.37 340.55 511.21 339.59 511.98 338.61 C 513.66 346.27 509.22 353.54 510.57 361.22 C 512.51 355.28 512.08 348.86 514.07 342.94 C 514.56 341.20 515.90 339.94 517.14 338.72 C 517.65 343.97 515.13 348.91 515.24 354.15 C 517.85 350.58 520.07 346.75 522.44 343.02 C 519.92 337.51 517.11 331.80 517.13 325.60 C 520.30 330.52 519.97 338.03 526.29 340.50 C 525.55 333.93 522.67 327.90 521.43 321.44 C 523.09 322.59 524.50 324.13 524.82 326.20 C 526.04 330.49 527.39 334.74 528.72 339.00 C 529.08 337.25 529.43 335.50 529.82 333.76 C 530.81 335.25 531.78 336.76 532.79 338.25 C 532.71 331.87 531.90 325.52 532.13 319.14 C 532.38 318.38 532.87 316.84 533.11 316.07 C 536.06 320.42 534.79 326.26 535.64 331.26 C 536.99 327.50 539.18 323.61 538.60 319.52 C 535.86 312.86 531.81 306.25 532.33 298.77 C 535.38 304.79 535.37 312.78 541.75 316.67 C 541.73 309.04 537.43 302.29 536.85 294.76 C 541.55 298.97 541.00 306.04 543.69 311.43 C 544.04 304.63 542.15 297.96 542.53 291.17 C 543.01 291.25 543.98 291.41 544.46 291.49 C 546.20 298.41 545.69 305.63 546.71 312.67 C 546.95 312.66 547.42 312.62 547.65 312.60 C 547.86 305.03 545.69 297.43 547.57 289.95 C 542.34 284.72 536.73 279.16 535.13 271.65 C 540.06 277.34 543.97 285.12 551.76 287.28 C 548.15 279.15 540.86 273.18 537.70 264.85 C 543.99 269.14 546.73 276.66 551.86 282.07 C 550.03 276.32 547.01 271.09 544.44 265.67 C 543.31 263.58 543.24 261.19 543.22 258.88 C 547.23 264.04 550.18 270.03 551.84 276.35 C 552.27 278.29 553.37 279.95 554.70 281.39 C 553.78 272.65 547.32 265.27 547.86 256.32 C 553.54 260.03 551.46 268.74 556.29 273.24 C 556.31 267.82 556.19 262.39 556.18 256.97 C 556.40 255.16 554.31 254.71 553.06 254.17 C 547.00 252.08 540.91 249.15 536.79 244.08 C 543.11 246.25 548.37 251.30 555.38 251.46 C 552.31 247.37 547.44 245.41 543.36 242.57 C 541.02 240.91 537.93 239.91 536.77 237.06 C 541.94 238.79 546.13 242.52 551.25 244.39 C 547.81 239.38 542.37 236.20 539.16 231.00 C 539.57 230.86 540.39 230.57 540.79 230.43 C 541.03 230.66 541.51 231.13 541.75 231.37 C 546.88 235.98 551.04 241.78 557.19 245.15 C 553.84 238.53 546.35 235.45 542.87 228.89 L 542.42 228.06 C 542.74 227.55 543.38 226.53 543.70 226.01 C 547.23 229.29 550.01 233.32 553.87 236.25 C 552.15 231.39 550.10 226.64 548.04 221.93 C 542.19 219.14 534.77 218.59 530.66 212.91 C 534.89 213.90 538.53 216.49 542.75 217.52 C 544.62 217.84 546.94 219.00 548.35 217.09 C 542.43 212.95 534.75 211.40 529.71 206.07 C 535.38 206.50 539.91 210.35 545.20 212.02 C 541.18 206.90 534.61 204.50 530.94 199.06 C 538.54 200.75 542.89 208.01 549.78 211.15 C 546.33 207.60 542.41 204.57 538.62 201.41 C 536.30 199.39 534.13 196.90 534.05 193.66 C 531.78 193.50 529.51 193.36 527.26 193.08 C 530.29 192.91 533.34 192.66 536.33 192.04 C 539.76 191.39 543.17 190.45 546.33 188.92 C 538.97 186.12 531.08 189.26 523.48 188.15 C 523.91 187.55 524.79 186.34 525.22 185.73 C 530.23 185.54 535.28 186.27 540.24 185.16 C 534.15 183.20 527.27 183.99 521.66 180.60 C 527.31 177.82 532.87 182.99 538.59 181.11 C 533.04 179.05 524.90 181.03 521.70 174.85 C 526.60 174.36 531.16 176.52 535.82 177.66 C 535.73 177.16 535.55 176.15 535.46 175.65 C 530.81 173.61 527.23 169.84 523.00 167.31 C 518.90 168.05 514.80 169.22 510.60 168.50 C 516.16 165.45 523.16 165.62 528.15 161.38 C 528.34 160.64 528.51 159.89 528.65 159.13 C 521.13 161.14 513.58 164.04 505.67 163.58 C 511.35 159.13 519.70 161.22 525.40 156.91 C 522.44 156.61 519.46 156.78 516.50 156.74 C 512.65 156.58 508.82 156.19 504.97 156.03 C 511.12 154.84 517.50 156.26 523.57 154.72 C 518.77 154.06 513.92 153.71 509.08 153.66 C 506.66 153.47 503.29 153.84 502.55 150.81 C 507.24 150.24 511.96 150.88 516.66 150.57 C 513.11 147.78 508.67 146.61 504.54 144.99 C 500.50 143.16 496.84 147.29 492.67 146.83 C 497.17 144.28 501.64 141.70 505.89 138.72 C 505.40 138.48 504.42 138.02 503.94 137.78 C 498.40 139.56 493.52 142.98 487.94 144.68 C 488.06 144.14 488.29 143.06 488.41 142.51 C 493.01 140.23 498.01 138.86 502.47 136.30 C 495.99 136.21 490.10 139.61 483.66 139.70 C 484.18 139.28 485.22 138.43 485.74 138.01 C 491.56 136.06 497.79 135.65 503.51 133.35 C 501.77 132.88 499.95 132.50 498.17 132.94 C 493.49 133.88 488.81 134.83 484.07 135.46 C 484.30 134.76 484.75 133.37 484.97 132.68 C 488.72 132.46 492.40 131.71 496.07 130.94 C 490.70 129.68 485.15 129.08 479.94 127.25 C 479.63 126.72 479.02 125.66 478.71 125.13 C 484.35 125.06 489.54 127.76 495.17 127.77 C 490.10 124.35 484.31 122.18 479.28 118.71 C 478.02 117.97 477.37 116.62 476.65 115.43 C 486.56 118.33 494.67 125.39 504.33 128.96 C 501.87 124.69 497.37 122.35 493.70 119.28 C 490.36 116.49 486.94 113.65 484.59 109.94 C 488.71 109.90 491.58 113.09 494.54 115.48 C 498.23 118.51 501.50 122.01 505.23 125.00 C 502.45 117.04 494.92 112.06 490.75 104.92 C 497.23 106.72 499.93 113.54 505.01 117.28 C 503.27 111.66 497.66 108.44 495.71 102.91 M 512.43 135.49 C 512.30 136.64 512.26 137.91 513.38 138.60 C 517.94 142.85 522.52 147.30 528.18 150.07 C 525.07 145.21 520.38 141.70 516.56 137.44 C 515.35 136.46 514.20 134.34 512.43 135.49 M 506.76 141.30 C 510.82 144.18 515.09 147.02 519.99 148.23 C 516.91 145.01 513.45 142.19 510.09 139.29 C 508.97 139.96 507.86 140.62 506.76 141.30 M 533.03 161.26 C 537.81 166.62 540.97 173.31 546.24 178.22 C 545.72 176.11 545.09 173.98 543.73 172.26 C 540.53 168.13 537.99 163.57 535.20 159.17 C 534.66 159.69 533.57 160.74 533.03 161.26 M 527.60 166.42 C 531.57 169.48 535.66 172.42 539.98 174.97 C 537.13 170.83 533.93 166.93 530.88 162.93 C 529.82 164.04 526.99 164.50 527.60 166.42 M 551.08 189.26 C 550.30 192.13 551.86 194.95 552.25 197.78 C 553.32 201.67 552.66 206.28 555.55 209.47 C 555.60 202.81 554.57 196.17 553.35 189.65 C 552.78 189.55 551.65 189.35 551.08 189.26 M 544.08 193.04 C 546.21 196.45 548.38 199.84 550.86 203.02 C 550.06 198.96 548.85 194.99 547.27 191.17 C 546.19 191.79 545.13 192.41 544.08 193.04 M 534.82 193.70 C 539.04 197.26 543.25 200.84 547.11 204.80 C 545.56 200.68 543.96 196.29 540.71 193.21 C 538.73 193.06 536.76 193.41 534.82 193.70 M 551.95 221.22 C 553.51 226.25 555.68 231.07 556.96 236.19 C 557.35 236.36 558.12 236.71 558.51 236.88 C 557.25 231.49 557.18 225.94 557.05 220.44 C 555.34 220.65 553.64 220.92 551.95 221.22 M 559.63 255.58 C 558.79 261.50 558.51 267.54 558.95 273.51 C 561.36 270.81 561.80 267.14 562.80 263.80 C 563.69 260.50 565.02 257.33 566.07 254.07 C 563.89 254.44 561.69 254.77 559.63 255.58 M 549.80 291.73 C 549.22 296.52 550.08 301.29 550.48 306.05 C 551.68 301.82 553.08 297.65 554.84 293.62 C 553.17 292.93 551.49 292.31 549.80 291.73 M 542.23 321.86 C 540.72 325.14 539.45 328.55 538.98 332.15 C 541.12 329.96 543.36 327.72 544.63 324.90 C 544.76 323.36 543.12 322.77 542.23 321.86 M 517.19 356.95 C 520.78 354.43 524.45 351.90 527.20 348.43 C 526.60 347.87 525.41 346.75 524.81 346.19 C 521.48 349.16 519.33 353.09 517.19 356.95 M 499.16 364.20 C 496.54 366.73 494.92 370.07 492.61 372.86 C 491.45 374.55 490.45 376.34 489.63 378.22 C 491.32 377.58 492.89 376.65 494.22 375.42 C 495.29 374.02 496.45 372.71 497.55 371.33 C 498.99 372.69 501.98 370.43 500.83 368.71 L 501.77 368.45 C 501.06 366.96 501.72 363.42 499.16 364.20 M 454.00 393.22 C 458.84 390.79 461.16 385.43 463.03 380.64 C 458.53 383.48 456.07 388.50 454.00 393.22 M 470.24 387.49 C 469.22 386.04 466.46 387.68 467.34 389.26 C 465.91 389.81 464.83 390.95 463.66 391.89 C 467.65 391.94 471.56 390.94 475.09 389.09 C 474.05 388.00 473.00 386.92 471.96 385.85 C 471.53 386.26 470.67 387.08 470.24 387.49 M 434.53 396.56 C 433.10 397.67 432.29 399.31 431.61 400.96 C 434.80 399.14 437.51 396.64 440.32 394.32 C 442.31 392.52 445.32 390.88 444.47 387.72 C 441.15 390.66 437.89 393.66 434.53 396.56 M 446.63 392.08 C 445.34 393.21 447.19 395.57 448.49 394.23 C 449.84 393.08 447.95 390.72 446.63 392.08 M 457.53 398.38 C 465.42 396.87 473.38 395.42 480.96 392.69 C 479.54 391.58 477.80 391.26 476.11 391.86 C 469.75 393.47 463.25 395.06 457.53 398.38 M 442.45 395.32 C 440.65 395.70 440.80 399.06 442.92 398.16 C 444.77 397.78 444.58 394.39 442.45 395.32 M 436.84 402.74 C 439.52 402.68 442.20 402.62 444.88 402.61 C 444.82 401.98 444.68 400.70 444.62 400.07 C 442.00 400.90 439.41 401.78 436.84 402.74 Z" />
</g>
<g id="#9fd692ff">
<path fill="#9fd692" opacity="1.00" d=" M 498.17 132.94 C 499.95 132.50 501.77 132.88 503.51 133.35 C 497.79 135.65 491.56 136.06 485.74 138.01 C 484.70 136.61 483.61 135.24 482.55 133.87 C 483.16 133.57 484.37 132.97 484.97 132.68 C 484.75 133.37 484.30 134.76 484.07 135.46 C 488.81 134.83 493.49 133.88 498.17 132.94 Z" />
</g>
<g id="#dbfeeaff">
<path fill="#dbfeea" opacity="1.00" d=" M 302.21 135.37 C 303.66 135.69 303.44 137.37 303.84 138.48 C 298.27 142.48 293.45 147.50 287.47 150.93 C 288.93 148.32 291.05 146.21 293.24 144.23 C 296.38 141.42 298.65 137.71 302.21 135.37 Z" />
</g>
<g id="#defee3ff">
<path fill="#defee3" opacity="1.00" d=" M 512.43 135.49 C 514.20 134.34 515.35 136.46 516.56 137.44 C 520.38 141.70 525.07 145.21 528.18 150.07 C 522.52 147.30 517.94 142.85 513.38 138.60 C 512.26 137.91 512.30 136.64 512.43 135.49 Z" />
</g>
<g id="#e6fff8ff">
<path fill="#e6fff8" opacity="1.00" d=" M 506.76 141.30 C 507.86 140.62 508.97 139.96 510.09 139.29 C 513.45 142.19 516.91 145.01 519.99 148.23 C 515.09 147.02 510.82 144.18 506.76 141.30 Z" />
</g>
<g id="#86b0a8ff">
<path fill="#86b0a8" opacity="1.00" d=" M 312.14 144.95 C 313.46 144.39 314.81 143.89 316.19 143.44 C 318.97 144.30 322.12 145.16 323.64 147.91 C 319.69 147.37 315.98 145.90 312.14 144.95 Z" />
</g>
<g id="#4e8151ff">
<path fill="#4e8151" opacity="1.00" d=" M 262.07 159.56 C 262.22 155.87 263.67 152.32 266.32 149.71 C 267.40 154.37 264.42 158.64 263.47 163.07 C 263.81 163.69 264.51 164.92 264.86 165.53 C 264.37 167.13 263.83 168.72 263.29 170.31 C 262.82 166.73 262.34 163.16 262.07 159.56 Z" />
<path fill="#4e8151" opacity="1.00" d=" M 502.69 157.48 C 503.37 156.86 504.13 156.37 504.97 156.03 C 508.82 156.19 512.65 156.58 516.50 156.74 C 512.06 158.20 507.27 158.00 502.69 157.48 Z" />
<path fill="#4e8151" opacity="1.00" d=" M 278.21 298.37 C 278.38 296.89 279.76 296.32 280.87 295.63 C 280.03 302.25 276.84 308.35 276.32 315.04 L 277.56 314.89 C 278.99 315.02 280.02 313.78 280.31 312.50 C 282.07 308.28 283.20 303.83 285.01 299.63 C 285.54 307.23 281.77 314.36 278.36 320.92 C 278.19 319.92 278.04 318.94 277.89 317.95 C 276.48 316.62 274.95 315.38 273.91 313.74 C 272.51 311.27 273.30 308.36 273.63 305.73 C 273.72 307.42 273.86 309.11 274.05 310.80 C 275.99 306.85 276.88 302.53 278.21 298.37 Z" />
<path fill="#4e8151" opacity="1.00" d=" M 527.36 322.65 C 526.85 320.44 527.77 318.36 529.10 316.66 C 529.40 318.10 529.68 319.56 529.93 321.02 C 530.60 325.13 531.25 329.48 529.57 333.45 C 528.44 329.93 527.78 326.30 527.36 322.65 Z" />
<path fill="#4e8151" opacity="1.00" d=" M 459.58 406.92 C 460.94 406.79 462.30 406.64 463.67 406.49 C 467.31 406.93 470.98 406.71 474.63 406.69 C 477.31 406.90 479.99 407.24 482.67 407.52 C 474.88 409.59 466.40 409.33 458.69 407.02 L 459.58 406.92 Z" />
</g>
<g id="#789d9bff">
<path fill="#789d9b" opacity="1.00" d=" M 290.14 156.88 C 297.57 156.32 304.99 158.27 312.40 157.02 L 312.06 158.26 C 305.03 158.83 297.98 157.97 290.98 157.44 L 290.14 156.88 Z" />
</g>
<g id="#d1ffc3ff">
<path fill="#d1ffc3" opacity="1.00" d=" M 280.44 160.41 C 281.43 160.61 282.28 161.19 283.18 161.62 C 281.01 164.67 278.60 167.53 276.61 170.70 C 274.72 173.50 272.97 176.62 269.90 178.31 C 270.73 175.06 272.74 172.36 274.60 169.65 C 276.68 166.65 278.16 163.27 280.44 160.41 Z" />
<path fill="#d1ffc3" opacity="1.00" d=" M 270.44 294.83 C 271.06 294.59 272.31 294.13 272.93 293.89 C 271.42 300.67 272.31 307.71 270.83 314.49 C 268.51 308.14 270.85 301.37 270.44 294.83 Z" />
<path fill="#d1ffc3" opacity="1.00" d=" M 372.95 387.93 C 375.51 389.30 377.66 391.25 379.82 393.16 C 382.51 395.57 385.67 397.68 387.22 401.07 C 382.83 399.38 379.76 395.69 376.26 392.73 C 374.67 391.51 373.64 389.78 372.95 387.93 Z" />
<path fill="#d1ffc3" opacity="1.00" d=" M 434.53 396.56 C 437.89 393.66 441.15 390.66 444.47 387.72 C 445.32 390.88 442.31 392.52 440.32 394.32 C 437.51 396.64 434.80 399.14 431.61 400.96 C 432.29 399.31 433.10 397.67 434.53 396.56 Z" />
<path fill="#d1ffc3" opacity="1.00" d=" M 374.07 398.54 C 374.27 397.05 374.50 395.58 374.79 394.12 C 376.36 395.46 377.84 396.92 379.22 398.47 C 377.50 398.49 375.78 398.51 374.07 398.54 Z" />
<path fill="#d1ffc3" opacity="1.00" d=" M 374.18 400.14 C 376.21 400.93 378.23 401.74 380.22 402.63 C 377.80 402.68 375.38 402.68 372.96 402.64 C 373.36 401.80 373.77 400.97 374.18 400.14 Z" />
<path fill="#d1ffc3" opacity="1.00" d=" M 436.84 402.74 C 439.41 401.78 442.00 400.90 444.62 400.07 C 444.68 400.70 444.82 401.98 444.88 402.61 C 442.20 402.62 439.52 402.68 436.84 402.74 Z" />
</g>
<g id="#d3fdd5ff">
<path fill="#d3fdd5" opacity="1.00" d=" M 533.03 161.26 C 533.57 160.74 534.66 159.69 535.20 159.17 C 537.99 163.57 540.53 168.13 543.73 172.26 C 545.09 173.98 545.72 176.11 546.24 178.22 C 540.97 173.31 537.81 166.62 533.03 161.26 Z" />
<path fill="#d3fdd5" opacity="1.00" d=" M 563.33 188.91 C 563.92 192.52 564.16 196.28 565.89 199.58 C 565.36 201.56 564.53 203.44 563.67 205.30 C 563.42 199.84 563.86 194.36 563.33 188.91 Z" />
<path fill="#d3fdd5" opacity="1.00" d=" M 336.60 392.44 C 338.92 392.16 341.31 391.84 343.60 392.48 C 349.62 393.97 355.81 395.33 361.18 398.59 C 356.09 398.22 351.15 396.89 346.22 395.68 C 342.95 394.81 339.49 394.33 336.60 392.44 Z" />
</g>
<g id="#f6fef2ff">
<path fill="#f6fef2" opacity="1.00" d=" M 527.60 166.42 C 526.99 164.50 529.82 164.04 530.88 162.93 C 533.93 166.93 537.13 170.83 539.98 174.97 C 535.66 172.42 531.57 169.48 527.60 166.42 Z" />
</g>
<g id="#eefef7ff">
<path fill="#eefef7" opacity="1.00" d=" M 284.56 164.51 C 286.13 164.00 287.73 164.94 289.27 165.21 C 286.85 168.59 283.64 171.60 279.55 172.77 C 280.48 169.65 282.17 166.74 284.56 164.51 Z" />
</g>
<g id="#110a0bff">
<path fill="#110a0b" opacity="1.00" d=" M 491.36 179.41 C 496.79 177.09 502.78 175.97 508.68 176.57 C 505.77 184.21 503.42 192.10 502.57 200.26 C 501.02 209.22 503.39 218.86 499.33 227.33 C 496.81 232.24 494.19 237.29 490.08 241.07 C 487.76 243.71 484.36 244.95 481.70 247.17 C 480.74 249.74 483.19 251.78 483.89 254.10 C 487.33 263.54 484.78 274.09 488.37 283.53 C 489.38 286.85 492.18 289.09 494.54 291.46 C 497.11 294.01 501.10 294.71 503.35 297.62 C 503.78 300.61 503.93 303.69 503.59 306.71 C 499.11 312.64 497.11 319.96 495.92 327.19 C 492.12 324.87 489.07 321.59 486.20 318.24 C 481.41 319.77 476.75 321.82 473.07 325.33 C 473.18 321.48 474.08 317.67 473.80 313.81 C 470.37 313.28 467.08 314.48 463.73 314.95 C 464.95 309.93 470.90 310.14 474.15 307.08 C 477.33 304.39 482.19 304.02 484.34 300.14 C 476.97 298.99 469.60 297.16 463.12 293.33 C 462.22 295.27 461.97 297.82 459.87 298.90 C 455.86 301.69 450.81 300.32 446.30 300.81 C 447.93 305.73 452.73 308.79 453.92 313.93 C 450.48 315.87 446.41 315.41 442.78 316.75 C 438.32 318.20 434.45 321.09 431.35 324.55 C 426.71 324.75 422.01 325.40 417.91 327.74 C 418.33 325.87 418.80 324.02 419.21 322.15 C 414.37 318.62 409.37 322.60 404.98 324.72 C 406.10 320.76 408.36 317.17 408.98 313.08 C 407.28 310.97 404.73 313.52 402.67 313.77 C 403.76 308.72 409.38 308.26 413.29 306.40 C 418.04 305.88 422.62 309.10 427.40 307.33 C 429.35 301.77 423.23 298.63 421.77 293.92 C 420.90 290.65 423.11 287.68 423.90 284.63 C 412.79 288.86 400.88 290.93 389.00 291.17 C 384.94 291.02 380.83 290.80 376.94 289.54 C 375.37 290.70 373.97 292.60 371.79 292.42 C 366.19 292.69 360.60 293.15 354.99 293.32 C 353.65 291.55 354.27 288.90 353.61 286.80 C 353.51 284.63 353.52 282.44 353.84 280.29 C 357.25 277.50 355.36 273.09 354.44 269.59 C 352.89 264.95 353.13 259.95 351.64 255.31 C 349.95 251.43 346.75 248.23 346.09 243.91 C 345.11 238.54 343.26 233.31 340.15 228.80 C 338.02 225.47 334.32 222.68 334.66 218.32 C 336.41 217.92 338.19 217.65 339.97 217.37 C 338.21 216.62 336.48 215.84 334.74 215.06 C 336.05 214.48 337.35 213.89 338.64 213.27 C 336.34 213.14 334.04 213.08 331.74 213.00 C 332.83 212.01 333.91 211.01 334.98 209.99 C 331.97 210.39 329.03 211.11 326.09 211.85 C 326.40 213.88 326.90 215.93 328.39 217.46 C 325.77 217.92 323.13 218.23 320.53 218.71 C 319.82 217.50 319.12 216.28 318.43 215.07 C 316.22 216.54 313.73 216.72 311.29 215.69 C 311.34 215.02 311.43 213.67 311.48 212.99 C 310.60 213.26 308.85 213.81 307.97 214.08 C 309.42 213.02 310.78 211.84 311.72 210.28 C 313.43 210.33 315.15 210.38 316.87 210.43 C 316.73 208.17 316.63 205.91 316.57 203.66 C 319.73 202.84 323.07 202.58 326.09 201.26 C 328.27 199.64 330.18 197.56 332.80 196.63 C 339.03 193.81 346.49 196.11 352.37 192.38 C 355.37 191.09 357.52 194.33 358.52 196.71 C 361.22 197.14 364.67 196.48 366.38 199.15 C 366.65 201.10 365.46 202.94 365.11 204.84 C 370.66 211.92 374.85 219.88 379.44 227.59 C 385.09 230.65 391.61 231.68 397.20 234.86 C 401.94 237.25 407.20 240.04 412.67 238.77 C 421.43 237.23 429.99 234.23 438.97 234.19 C 446.99 233.30 455.03 234.50 462.99 235.37 C 465.23 234.85 468.24 234.26 468.75 231.58 C 471.13 223.66 472.28 215.36 475.62 207.74 C 477.89 200.87 481.36 194.48 483.59 187.60 C 484.97 183.99 487.75 180.90 491.36 179.41 M 490.38 183.19 C 489.03 185.54 486.04 186.63 485.47 189.46 C 484.18 194.27 482.43 199.06 479.37 203.07 C 480.46 203.23 482.62 203.56 483.70 203.73 C 483.64 203.05 483.50 201.69 483.43 201.02 C 484.17 201.86 484.96 202.69 485.65 203.59 C 484.82 204.39 484.00 205.17 483.17 205.95 C 484.25 206.72 485.35 207.49 486.43 208.28 C 487.03 207.07 487.72 205.89 488.47 204.77 C 488.25 204.56 487.82 204.13 487.61 203.92 C 489.05 201.52 490.65 199.22 492.36 197.00 C 491.56 196.18 490.77 195.35 489.98 194.53 C 491.18 194.17 492.46 194.38 493.70 194.28 C 493.43 194.03 492.88 193.53 492.60 193.28 C 493.92 191.77 495.10 190.15 496.08 188.39 L 495.13 188.72 C 494.86 188.33 494.33 187.57 494.06 187.18 C 494.34 185.74 494.65 184.30 494.96 182.86 C 493.85 183.31 492.75 183.78 491.67 184.26 C 491.23 183.90 490.80 183.54 490.38 183.19 M 333.50 201.54 C 333.41 202.68 333.33 203.82 333.26 204.96 C 333.81 204.89 334.93 204.75 335.49 204.68 C 335.54 203.57 335.60 202.45 335.65 201.34 C 335.11 201.39 334.04 201.49 333.50 201.54 M 476.53 210.87 C 477.43 211.61 478.34 212.35 479.25 213.10 C 477.90 214.25 476.56 215.43 475.45 216.81 C 477.44 216.18 479.37 215.35 481.38 214.74 C 480.77 217.36 477.76 217.69 475.76 218.85 C 475.62 219.37 475.35 220.40 475.21 220.92 C 477.90 219.71 480.54 218.36 483.30 217.29 C 484.03 215.00 485.12 212.85 486.38 210.81 C 485.00 208.70 483.92 206.07 481.33 205.23 C 479.79 207.16 478.21 209.06 476.53 210.87 M 368.09 244.11 C 368.12 244.74 368.18 246.01 368.22 246.64 C 370.62 245.86 373.05 245.16 375.52 244.57 C 375.56 244.01 375.64 242.88 375.69 242.32 C 373.14 242.86 370.57 243.32 368.09 244.11 M 365.32 251.17 C 368.74 249.89 372.35 248.93 375.48 246.99 C 371.86 247.49 367.76 248.15 365.32 251.17 M 365.22 254.19 C 367.94 253.77 370.59 252.66 372.55 250.68 C 369.66 250.52 367.29 252.42 365.22 254.19 M 367.19 255.98 C 366.97 256.27 366.54 256.85 366.32 257.14 C 367.18 260.19 370.56 255.26 367.19 255.98 M 451.69 256.60 C 452.97 259.21 454.98 261.38 457.28 263.14 C 456.26 260.40 454.55 257.67 451.69 256.60 M 450.53 259.50 C 451.09 262.09 454.69 263.45 454.16 266.20 C 451.50 266.14 450.58 262.61 448.19 261.61 C 449.86 264.02 452.04 266.01 453.92 268.25 C 450.73 270.36 449.66 265.16 446.97 264.34 C 449.20 267.49 451.64 270.49 453.88 273.64 C 454.11 273.41 454.56 272.94 454.78 272.70 C 454.51 272.20 453.97 271.20 453.70 270.70 C 454.92 269.08 455.06 266.94 456.26 265.31 C 454.38 263.34 452.66 261.20 450.53 259.50 Z" />
<path fill="#110a0b" opacity="1.00" d=" M 488.39 188.30 C 491.60 187.57 487.82 191.94 486.34 190.49 C 485.46 189.23 487.42 188.43 488.39 188.30 Z" />
<path fill="#110a0b" opacity="1.00" d=" M 478.88 210.92 C 480.17 210.06 481.54 209.31 482.84 208.45 C 483.35 209.45 483.87 210.45 484.39 211.46 C 483.76 211.28 482.49 210.92 481.85 210.74 C 481.68 211.40 481.35 212.71 481.18 213.36 C 480.16 212.72 479.40 211.91 478.88 210.92 Z" />
<path fill="#110a0b" opacity="1.00" d=" M 340.01 281.48 L 340.81 281.16 C 340.29 285.38 340.39 289.67 340.91 293.89 C 335.88 294.39 330.83 294.31 325.80 294.79 C 321.33 296.97 317.21 300.39 312.02 300.72 C 309.50 300.80 308.13 303.26 306.17 304.50 C 306.10 302.15 306.23 299.81 306.20 297.47 C 303.58 298.59 301.43 300.45 299.22 302.19 C 299.20 298.47 300.80 295.08 301.68 291.55 C 299.80 291.81 297.92 292.15 296.07 292.57 C 297.02 288.92 299.18 285.21 303.20 284.49 C 310.88 283.96 318.67 285.20 326.30 283.75 C 328.50 283.39 330.74 283.29 332.96 283.00 C 335.34 282.68 337.72 282.24 340.01 281.48 Z" />
</g>
<g id="#9cd490ff">
<path fill="#9cd490" opacity="1.00" d=" M 272.81 183.14 C 278.77 179.54 286.02 180.10 292.42 177.77 C 292.09 178.40 291.76 179.03 291.44 179.66 C 291.86 180.03 292.71 180.77 293.13 181.14 C 287.79 180.97 282.48 181.98 277.52 183.94 C 279.66 184.08 281.80 184.21 283.94 184.27 C 282.68 184.96 281.29 185.36 279.95 185.86 C 283.40 185.82 286.99 185.75 290.21 187.21 C 286.82 187.19 283.40 187.45 280.03 186.88 C 277.29 186.42 275.10 184.57 272.81 183.14 Z" />
</g>
<g id="#4c8b51ff">
<path fill="#4c8b51" opacity="1.00" d=" M 277.52 183.94 C 282.48 181.98 287.79 180.97 293.13 181.14 L 294.31 181.15 C 292.68 182.36 290.78 183.17 288.71 183.00 C 287.30 182.87 285.96 183.34 284.78 184.08 L 283.94 184.27 C 281.80 184.21 279.66 184.08 277.52 183.94 Z" />
</g>
<g id="#72aebdff">
<path fill="#72aebd" opacity="1.00" d=" M 284.78 184.08 C 285.96 183.34 287.30 182.87 288.71 183.00 C 288.66 184.69 285.83 185.11 284.78 184.08 Z" />
</g>
<g id="#fbf9faff">
<path fill="#fbf9fa" opacity="1.00" d=" M 490.38 183.19 C 490.80 183.54 491.23 183.90 491.67 184.26 C 491.89 184.46 492.33 184.85 492.55 185.04 C 491.87 186.19 491.15 187.32 490.48 188.48 C 491.67 188.06 492.87 187.62 494.06 187.18 C 494.33 187.57 494.86 188.33 495.13 188.72 C 492.38 189.63 489.76 190.90 487.27 192.37 C 489.04 192.66 490.84 192.86 492.60 193.28 C 492.88 193.53 493.43 194.03 493.70 194.28 C 492.46 194.38 491.18 194.17 489.98 194.53 C 489.17 194.77 488.37 195.02 487.57 195.28 C 488.17 196.35 488.80 197.42 489.43 198.49 C 488.15 199.63 486.87 200.77 485.59 201.91 C 486.26 202.58 486.93 203.25 487.61 203.92 C 487.82 204.13 488.25 204.56 488.47 204.77 C 487.72 205.89 487.03 207.07 486.43 208.28 C 485.35 207.49 484.25 206.72 483.17 205.95 C 484.00 205.17 484.82 204.39 485.65 203.59 C 484.96 202.69 484.17 201.86 483.43 201.02 C 483.50 201.69 483.64 203.05 483.70 203.73 C 482.62 203.56 480.46 203.23 479.37 203.07 C 482.43 199.06 484.18 194.27 485.47 189.46 C 486.04 186.63 489.03 185.54 490.38 183.19 M 488.39 188.30 C 487.42 188.43 485.46 189.23 486.34 190.49 C 487.82 191.94 491.60 187.57 488.39 188.30 M 486.19 193.16 C 486.82 193.79 486.82 193.79 486.19 193.16 M 486.14 196.41 C 484.60 199.39 489.58 196.56 486.14 196.41 M 483.27 198.24 C 483.53 201.65 486.23 196.62 483.27 198.24 Z" />
<path fill="#fbf9fa" opacity="1.00" d=" M 333.50 201.54 C 334.04 201.49 335.11 201.39 335.65 201.34 C 335.60 202.45 335.54 203.57 335.49 204.68 C 334.93 204.75 333.81 204.89 333.26 204.96 C 333.33 203.82 333.41 202.68 333.50 201.54 Z" />
<path fill="#fbf9fa" opacity="1.00" d=" M 365.22 254.19 C 367.29 252.42 369.66 250.52 372.55 250.68 C 370.59 252.66 367.94 253.77 365.22 254.19 Z" />
<path fill="#fbf9fa" opacity="1.00" d=" M 451.69 256.60 C 454.55 257.67 456.26 260.40 457.28 263.14 C 454.98 261.38 452.97 259.21 451.69 256.60 Z" />
<path fill="#fbf9fa" opacity="1.00" d=" M 450.53 259.50 C 452.66 261.20 454.38 263.34 456.26 265.31 C 455.06 266.94 454.92 269.08 453.70 270.70 C 453.97 271.20 454.51 272.20 454.78 272.70 C 454.56 272.94 454.11 273.41 453.88 273.64 C 451.64 270.49 449.20 267.49 446.97 264.34 C 449.66 265.16 450.73 270.36 453.92 268.25 C 452.04 266.01 449.86 264.02 448.19 261.61 C 450.58 262.61 451.50 266.14 454.16 266.20 C 454.69 263.45 451.09 262.09 450.53 259.50 Z" />
</g>
<g id="#868188ff">
<path fill="#868188" opacity="1.00" d=" M 491.67 184.26 C 492.75 183.78 493.85 183.31 494.96 182.86 C 494.65 184.30 494.34 185.74 494.06 187.18 C 492.87 187.62 491.67 188.06 490.48 188.48 C 491.15 187.32 491.87 186.19 492.55 185.04 C 492.33 184.85 491.89 184.46 491.67 184.26 Z" />
</g>
<g id="#f7fff1ff">
<path fill="#f7fff1" opacity="1.00" d=" M 255.73 189.02 C 256.96 188.66 258.19 188.30 259.42 187.95 C 258.86 195.50 259.15 203.11 258.28 210.63 C 257.24 208.54 256.39 206.29 256.42 203.91 C 256.31 198.94 255.84 193.99 255.73 189.02 Z" />
</g>
<g id="#ebfdeeff">
<path fill="#ebfdee" opacity="1.00" d=" M 262.91 188.90 C 264.34 190.12 266.47 191.31 265.47 193.53 C 264.06 198.82 264.38 204.79 261.50 209.56 C 260.91 202.62 263.09 195.84 262.91 188.90 Z" />
</g>
<g id="#827e7fff">
<path fill="#827e7f" opacity="1.00" d=" M 487.27 192.37 C 489.76 190.90 492.38 189.63 495.13 188.72 L 496.08 188.39 C 495.10 190.15 493.92 191.77 492.60 193.28 C 490.84 192.86 489.04 192.66 487.27 192.37 Z" />
</g>
<g id="#d6ffe4ff">
<path fill="#d6ffe4" opacity="1.00" d=" M 551.08 189.26 C 551.65 189.35 552.78 189.55 553.35 189.65 C 554.57 196.17 555.60 202.81 555.55 209.47 C 552.66 206.28 553.32 201.67 552.25 197.78 C 551.86 194.95 550.30 192.13 551.08 189.26 Z" />
</g>
<g id="#fbfcf4ff">
<path fill="#fbfcf4" opacity="1.00" d=" M 268.86 191.77 C 269.79 192.54 271.45 192.74 271.84 194.02 C 271.47 196.43 269.87 198.38 268.53 200.33 C 268.41 198.55 268.25 196.77 268.20 194.99 C 268.38 193.91 268.60 192.84 268.86 191.77 Z" />
<path fill="#fbfcf4" opacity="1.00" d=" M 337.99 276.27 C 338.76 275.30 339.55 274.34 340.36 273.39 C 340.25 276.09 340.14 278.78 340.01 281.48 C 339.40 281.27 338.19 280.85 337.58 280.64 C 337.46 280.32 337.22 279.68 337.10 279.36 C 337.38 278.32 337.68 277.29 337.99 276.27 Z" />
</g>
<g id="#8fbd38ff">
<path fill="#8fbd38" opacity="1.00" d=" M 527.26 193.08 C 529.69 190.63 533.32 191.55 536.33 192.04 C 533.34 192.66 530.29 192.91 527.26 193.08 Z" />
</g>
<g id="#eefff7ff">
<path fill="#eefff7" opacity="1.00" d=" M 544.08 193.04 C 545.13 192.41 546.19 191.79 547.27 191.17 C 548.85 194.99 550.06 198.96 550.86 203.02 C 548.38 199.84 546.21 196.45 544.08 193.04 Z" />
</g>
<g id="#292627ff">
<path fill="#292627" opacity="1.00" d=" M 486.19 193.16 C 486.82 193.79 486.82 193.79 486.19 193.16 Z" />
</g>
<g id="#ecfdf9ff">
<path fill="#ecfdf9" opacity="1.00" d=" M 534.82 193.70 C 536.76 193.41 538.73 193.06 540.71 193.21 C 543.96 196.29 545.56 200.68 547.11 204.80 C 543.25 200.84 539.04 197.26 534.82 193.70 Z" />
</g>
<g id="#95c977ff">
<path fill="#95c977" opacity="1.00" d=" M 266.01 203.46 C 266.11 200.51 266.69 197.56 268.20 194.99 C 268.25 196.77 268.41 198.55 268.53 200.33 C 269.04 202.02 266.95 202.52 266.01 203.46 Z" />
</g>
<g id="#797675ff">
<path fill="#797675" opacity="1.00" d=" M 487.57 195.28 C 488.37 195.02 489.17 194.77 489.98 194.53 C 490.77 195.35 491.56 196.18 492.36 197.00 C 490.65 199.22 489.05 201.52 487.61 203.92 C 486.93 203.25 486.26 202.58 485.59 201.91 C 486.87 200.77 488.15 199.63 489.43 198.49 C 488.80 197.42 488.17 196.35 487.57 195.28 Z" />
</g>
<g id="#444041ff">
<path fill="#444041" opacity="1.00" d=" M 486.14 196.41 C 489.58 196.56 484.60 199.39 486.14 196.41 Z" />
</g>
<g id="#312b2dff">
<path fill="#312b2d" opacity="1.00" d=" M 483.27 198.24 C 486.23 196.62 483.53 201.65 483.27 198.24 Z" />
</g>
<g id="#c9c4c2ff">
<path fill="#c9c4c2" opacity="1.00" d=" M 476.53 210.87 C 478.21 209.06 479.79 207.16 481.33 205.23 C 483.92 206.07 485.00 208.70 486.38 210.81 C 485.12 212.85 484.03 215.00 483.30 217.29 C 480.54 218.36 477.90 219.71 475.21 220.92 C 475.35 220.40 475.62 219.37 475.76 218.85 C 477.76 217.69 480.77 217.36 481.38 214.74 C 479.37 215.35 477.44 216.18 475.45 216.81 C 476.56 215.43 477.90 214.25 479.25 213.10 C 478.34 212.35 477.43 211.61 476.53 210.87 M 478.88 210.92 C 479.40 211.91 480.16 212.72 481.18 213.36 C 481.35 212.71 481.68 211.40 481.85 210.74 C 482.49 210.92 483.76 211.28 484.39 211.46 C 483.87 210.45 483.35 209.45 482.84 208.45 C 481.54 209.31 480.17 210.06 478.88 210.92 Z" />
<path fill="#c9c4c2" opacity="1.00" d=" M 325.80 294.79 C 330.83 294.31 335.88 294.39 340.91 293.89 C 341.43 297.35 341.96 300.82 342.71 304.25 C 341.02 301.45 340.72 298.18 340.49 295.00 C 335.60 294.63 330.70 294.64 325.80 294.79 Z" />
</g>
<g id="#fcfcfdff">
<path fill="#fcfcfd" opacity="1.00" d=" M 326.09 211.85 C 329.03 211.11 331.97 210.39 334.98 209.99 C 333.91 211.01 332.83 212.01 331.74 213.00 C 334.04 213.08 336.34 213.14 338.64 213.27 C 337.35 213.89 336.05 214.48 334.74 215.06 C 336.48 215.84 338.21 216.62 339.97 217.37 C 338.19 217.65 336.41 217.92 334.66 218.32 C 333.31 218.64 331.98 218.97 330.63 219.26 C 329.88 218.66 329.12 218.07 328.39 217.46 C 326.90 215.93 326.40 213.88 326.09 211.85 Z" />
<path fill="#fcfcfd" opacity="1.00" d=" M 368.09 244.11 C 370.57 243.32 373.14 242.86 375.69 242.32 C 375.64 242.88 375.56 244.01 375.52 244.57 C 373.05 245.16 370.62 245.86 368.22 246.64 C 368.18 246.01 368.12 244.74 368.09 244.11 Z" />
</g>
<g id="#fc0812ff">
<path fill="#fc0812" opacity="1.00" d=" M 328.39 217.46 C 329.12 218.07 329.88 218.66 330.63 219.26 C 334.09 223.90 337.66 228.51 340.47 233.60 C 343.47 238.88 343.32 245.33 346.57 250.50 C 348.48 253.58 350.07 256.91 350.50 260.55 C 351.42 267.17 353.93 273.54 353.84 280.29 C 353.52 282.44 353.51 284.63 353.61 286.80 C 352.75 296.01 355.66 306.41 349.81 314.48 C 345.68 312.72 343.95 308.22 342.71 304.25 C 341.96 300.82 341.43 297.35 340.91 293.89 C 340.39 289.67 340.29 285.38 340.81 281.16 C 341.28 279.16 341.74 277.17 342.08 275.14 C 342.78 267.98 342.71 260.76 342.43 253.58 C 341.74 253.58 341.05 253.58 340.37 253.59 C 340.00 253.60 339.28 253.62 338.92 253.63 C 337.20 261.10 339.56 268.77 337.99 276.27 C 337.68 277.29 337.38 278.32 337.10 279.36 C 336.42 277.51 335.79 275.64 335.26 273.75 C 334.20 269.59 333.28 265.38 332.58 261.15 C 332.46 257.75 333.06 254.39 333.18 251.01 C 331.91 246.69 327.98 243.42 327.63 238.76 C 327.45 235.05 327.94 231.35 327.87 227.65 C 326.02 228.32 323.65 228.51 322.57 230.40 C 321.55 235.89 323.00 241.32 324.67 246.51 C 326.22 250.39 324.37 254.32 322.86 257.88 C 319.94 262.99 320.22 268.97 319.83 274.64 C 319.49 275.07 318.81 275.92 318.47 276.35 C 317.48 271.64 317.45 266.81 317.92 262.05 C 318.22 258.69 318.39 255.18 317.03 252.01 C 315.36 252.47 315.29 254.33 314.78 255.70 C 314.27 257.50 313.68 259.29 312.77 260.93 C 310.49 264.15 309.32 267.93 310.17 271.88 C 309.46 272.18 308.05 272.77 307.34 273.07 C 307.42 269.87 307.74 266.69 307.74 263.50 C 307.16 259.69 303.44 257.20 301.39 254.07 C 306.27 245.07 305.78 234.13 311.21 225.38 C 313.18 221.93 316.79 219.75 320.53 218.71 C 323.13 218.23 325.77 217.92 328.39 217.46 Z" />
</g>
<g id="#d6685fff">
<path fill="#d6685f" opacity="1.00" d=" M 330.63 219.26 C 331.98 218.97 333.31 218.64 334.66 218.32 C 334.32 222.68 338.02 225.47 340.15 228.80 C 343.26 233.31 345.11 238.54 346.09 243.91 C 346.75 248.23 349.95 251.43 351.64 255.31 C 353.13 259.95 352.89 264.95 354.44 269.59 C 355.36 273.09 357.25 277.50 353.84 280.29 C 353.93 273.54 351.42 267.17 350.50 260.55 C 350.07 256.91 348.48 253.58 346.57 250.50 C 343.32 245.33 343.47 238.88 340.47 233.60 C 337.66 228.51 334.09 223.90 330.63 219.26 Z" />
</g>
<g id="#edfdeeff">
<path fill="#edfdee" opacity="1.00" d=" M 551.95 221.22 C 553.64 220.92 555.34 220.65 557.05 220.44 C 557.18 225.94 557.25 231.49 558.51 236.88 C 558.12 236.71 557.35 236.36 556.96 236.19 C 555.68 231.07 553.51 226.25 551.95 221.22 Z" />
</g>
<g id="#f9fef3ff">
<path fill="#f9fef3" opacity="1.00" d=" M 259.79 221.57 C 261.44 221.59 263.41 221.23 264.53 222.79 C 262.84 227.93 261.48 233.20 259.25 238.13 C 259.53 232.62 259.81 227.10 259.79 221.57 Z" />
</g>
<g id="#fcfdfbff">
<path fill="#fcfdfb" opacity="1.00" d=" M 322.57 230.40 C 323.65 228.51 326.02 228.32 327.87 227.65 C 327.94 231.35 327.45 235.05 327.63 238.76 C 327.98 243.42 331.91 246.69 333.18 251.01 C 333.06 254.39 332.46 257.75 332.58 261.15 C 329.30 261.54 326.01 261.81 322.74 262.27 C 322.73 260.80 322.75 259.34 322.86 257.88 C 324.37 254.32 326.22 250.39 324.67 246.51 C 323.00 241.32 321.55 235.89 322.57 230.40 Z" />
</g>
<g id="#e3ffd8ff">
<path fill="#e3ffd8" opacity="1.00" d=" M 542.87 228.89 C 546.35 235.45 553.84 238.53 557.19 245.15 C 551.04 241.78 546.88 235.98 541.75 231.37 C 542.03 230.75 542.59 229.51 542.87 228.89 Z" />
<path fill="#e3ffd8" opacity="1.00" d=" M 274.90 294.92 C 275.41 296.02 275.91 297.12 276.41 298.22 C 276.86 298.26 277.76 298.33 278.21 298.37 C 276.88 302.53 275.99 306.85 274.05 310.80 C 273.86 309.11 273.72 307.42 273.63 305.73 C 274.19 302.14 274.83 298.56 274.90 294.92 Z" />
<path fill="#e3ffd8" opacity="1.00" d=" M 254.53 333.77 C 258.87 337.92 264.28 340.66 269.04 344.26 C 263.38 342.95 258.49 339.72 253.56 336.80 C 253.88 335.79 254.21 334.78 254.53 333.77 Z" />
<path fill="#e3ffd8" opacity="1.00" d=" M 457.53 398.38 C 463.25 395.06 469.75 393.47 476.11 391.86 C 477.80 391.26 479.54 391.58 480.96 392.69 C 473.38 395.42 465.42 396.87 457.53 398.38 Z" />
</g>
<g id="#76ab7cff">
<path fill="#76ab7c" opacity="1.00" d=" M 266.55 243.47 C 271.76 243.37 275.10 238.19 280.34 237.82 C 279.44 239.37 278.27 240.76 276.69 241.65 C 272.44 244.31 268.41 247.51 263.54 248.97 C 264.40 247.07 265.25 245.13 266.55 243.47 Z" />
<path fill="#76ab7c" opacity="1.00" d=" M 549.17 343.58 C 551.86 339.60 556.38 337.68 560.48 335.52 C 562.61 335.49 564.74 335.60 566.88 335.73 C 565.25 338.12 563.35 340.42 560.73 341.75 C 554.83 344.91 548.31 346.83 541.73 347.91 C 544.50 347.07 547.51 346.15 549.17 343.58 Z" />
</g>
<g id="#f8fdf4ff">
<path fill="#f8fdf4" opacity="1.00" d=" M 365.32 251.17 C 367.76 248.15 371.86 247.49 375.48 246.99 C 372.35 248.93 368.74 249.89 365.32 251.17 Z" />
<path fill="#f8fdf4" opacity="1.00" d=" M 547.81 325.77 C 550.48 322.60 554.88 322.43 558.60 321.42 C 558.95 321.96 559.65 323.04 560.00 323.58 C 550.86 327.62 545.04 336.27 536.53 341.23 C 539.68 335.68 543.64 330.59 547.81 325.77 Z" />
</g>
<g id="#ea816cff">
<path fill="#ea816c" opacity="1.00" d=" M 314.78 255.70 C 315.29 254.33 315.36 252.47 317.03 252.01 C 318.39 255.18 318.22 258.69 317.92 262.05 L 316.96 262.29 C 316.87 259.59 316.82 256.91 316.80 254.22 C 316.12 254.71 315.45 255.20 314.78 255.70 Z" />
</g>
<g id="#e67466ff">
<path fill="#e67466" opacity="1.00" d=" M 338.92 253.63 C 339.28 253.62 340.00 253.60 340.37 253.59 C 339.39 260.18 340.73 266.78 340.36 273.39 C 339.55 274.34 338.76 275.30 337.99 276.27 C 339.56 268.77 337.20 261.10 338.92 253.63 Z" />
</g>
<g id="#3e0200ff">
<path fill="#3e0200" opacity="1.00" d=" M 340.37 253.59 C 341.05 253.58 341.74 253.58 342.43 253.58 C 342.71 260.76 342.78 267.98 342.08 275.14 C 341.65 274.71 340.79 273.83 340.36 273.39 C 340.73 266.78 339.39 260.18 340.37 253.59 Z" />
</g>
<g id="#f9fdf8ff">
<path fill="#f9fdf8" opacity="1.00" d=" M 251.09 254.37 C 253.31 255.15 255.54 255.87 257.81 256.51 C 258.42 262.36 258.61 268.26 258.25 274.13 C 257.07 272.99 256.33 271.55 255.98 269.96 C 254.65 264.67 252.63 259.60 251.09 254.37 Z" />
</g>
<g id="#ffe6f8ff">
<path fill="#ffe6f8" opacity="1.00" d=" M 314.78 255.70 C 315.45 255.20 316.12 254.71 316.80 254.22 C 316.82 256.91 316.87 259.59 316.96 262.29 C 315.90 262.50 314.85 262.69 313.80 262.86 C 313.54 262.38 313.03 261.41 312.77 260.93 C 313.68 259.29 314.27 257.50 314.78 255.70 Z" />
</g>
<g id="#fcfef6ff">
<path fill="#fcfef6" opacity="1.00" d=" M 559.63 255.58 C 561.69 254.77 563.89 254.44 566.07 254.07 C 565.02 257.33 563.69 260.50 562.80 263.80 C 561.80 267.14 561.36 270.81 558.95 273.51 C 558.51 267.54 558.79 261.50 559.63 255.58 Z" />
</g>
<g id="#868083ff">
<path fill="#868083" opacity="1.00" d=" M 367.19 255.98 C 370.56 255.26 367.18 260.19 366.32 257.14 C 366.54 256.85 366.97 256.27 367.19 255.98 Z" />
</g>
<g id="#df7167ff">
<path fill="#df7167" opacity="1.00" d=" M 319.83 274.64 C 320.22 268.97 319.94 262.99 322.86 257.88 C 322.75 259.34 322.73 260.80 322.74 262.27 C 322.82 266.84 322.51 271.40 321.88 275.93 C 321.36 275.60 320.34 274.96 319.83 274.64 Z" />
</g>
<g id="#d76e63ff">
<path fill="#d76e63" opacity="1.00" d=" M 310.17 271.88 C 309.32 267.93 310.49 264.15 312.77 260.93 C 313.03 261.41 313.54 262.38 313.80 262.86 L 314.07 263.27 C 312.61 266.07 311.66 269.10 310.17 271.88 Z" />
</g>
<g id="#120a0bff">
<path fill="#120a0b" opacity="1.00" d=" M 322.74 262.27 C 326.01 261.81 329.30 261.54 332.58 261.15 C 333.28 265.38 334.20 269.59 335.26 273.75 C 333.42 274.08 331.58 274.42 329.74 274.78 C 327.14 275.30 324.50 275.55 321.88 275.93 C 322.51 271.40 322.82 266.84 322.74 262.27 Z" />
<path fill="#120a0b" opacity="1.00" d=" M 297.38 269.39 C 298.83 265.12 303.97 264.45 307.74 263.50 C 307.74 266.69 307.42 269.87 307.34 273.07 C 308.05 272.77 309.46 272.18 310.17 271.88 C 311.66 269.10 312.61 266.07 314.07 263.27 C 314.61 263.76 315.68 264.73 316.22 265.21 C 316.37 269.09 316.26 272.98 316.05 276.85 C 310.29 279.30 303.82 279.63 298.40 282.88 C 298.38 282.20 298.35 280.83 298.33 280.15 C 297.25 280.31 296.17 280.46 295.10 280.61 C 296.20 276.94 296.58 273.12 297.38 269.39 Z" />
</g>
<g id="#871419ff">
<path fill="#871419" opacity="1.00" d=" M 313.80 262.86 C 314.85 262.69 315.90 262.50 316.96 262.29 L 317.92 262.05 C 317.45 266.81 317.48 271.64 318.47 276.35 L 318.61 277.21 C 317.97 277.12 316.69 276.94 316.05 276.85 C 316.26 272.98 316.37 269.09 316.22 265.21 C 315.68 264.73 314.61 263.76 314.07 263.27 L 313.80 262.86 Z" />
</g>
<g id="#f0ffd1ff">
<path fill="#f0ffd1" opacity="1.00" d=" M 570.00 276.63 C 572.63 273.63 574.92 270.14 578.52 268.20 C 574.36 273.82 569.83 279.38 563.98 283.34 C 565.07 280.39 566.58 277.62 568.47 275.12 C 568.85 275.50 569.61 276.25 570.00 276.63 Z" />
<path fill="#f0ffd1" opacity="1.00" d=" M 277.56 314.89 C 276.66 313.43 279.00 311.41 280.31 312.50 C 280.02 313.78 278.99 315.02 277.56 314.89 Z" />
<path fill="#f0ffd1" opacity="1.00" d=" M 289.89 319.93 C 290.85 322.75 291.79 325.60 292.27 328.56 C 291.54 331.66 290.62 334.73 289.34 337.65 C 288.85 331.73 290.13 325.85 289.89 319.93 Z" />
<path fill="#f0ffd1" opacity="1.00" d=" M 470.24 387.49 C 470.67 387.08 471.53 386.26 471.96 385.85 C 473.00 386.92 474.05 388.00 475.09 389.09 C 471.56 390.94 467.65 391.94 463.66 391.89 C 464.83 390.95 465.91 389.81 467.34 389.26 C 468.44 388.93 469.51 388.41 470.24 387.49 Z" />
</g>
<g id="#defec7ff">
<path fill="#defec7" opacity="1.00" d=" M 559.77 282.30 C 560.23 278.73 561.26 275.27 562.66 271.96 C 562.79 272.60 563.04 273.87 563.16 274.51 C 564.17 273.69 565.17 272.88 566.20 272.08 C 564.57 275.78 562.63 279.40 559.77 282.30 Z" />
<path fill="#defec7" opacity="1.00" d=" M 479.82 369.60 C 480.41 367.39 481.05 365.19 481.80 363.02 C 481.16 368.25 481.04 373.57 479.76 378.71 C 478.70 375.27 478.53 371.66 478.20 368.10 C 478.74 368.60 479.27 369.10 479.82 369.60 Z" />
</g>
<g id="#7ba6c7ff">
<path fill="#7ba6c7" opacity="1.00" d=" M 577.96 276.02 C 574.86 277.49 575.88 271.59 578.29 274.32 C 578.21 274.75 578.04 275.60 577.96 276.02 Z" />
</g>
<g id="#ad7e7aff">
<path fill="#ad7e7a" opacity="1.00" d=" M 329.74 274.78 C 331.58 274.42 333.42 274.08 335.26 273.75 C 335.79 275.64 336.42 277.51 337.10 279.36 C 337.22 279.68 337.46 280.32 337.58 280.64 C 338.19 280.85 339.40 281.27 340.01 281.48 C 337.72 282.24 335.34 282.68 332.96 283.00 C 333.83 282.51 334.70 282.04 335.57 281.57 C 335.35 279.32 335.20 277.07 335.09 274.82 C 333.30 274.78 331.52 274.76 329.74 274.78 Z" />
</g>
<g id="#fb818bff">
<path fill="#fb818b" opacity="1.00" d=" M 340.36 273.39 C 340.79 273.83 341.65 274.71 342.08 275.14 C 341.74 277.17 341.28 279.16 340.81 281.16 L 340.01 281.48 C 340.14 278.78 340.25 276.09 340.36 273.39 Z" />
</g>
<g id="#effeefff">
<path fill="#effeef" opacity="1.00" d=" M 558.20 293.20 C 561.10 290.53 564.93 289.18 568.13 286.90 C 569.05 288.13 569.91 289.40 570.75 290.71 L 569.99 290.02 C 569.49 289.56 568.48 288.65 567.98 288.19 C 562.86 293.58 559.07 300.05 554.00 305.48 C 554.93 301.26 555.96 296.92 558.20 293.20 Z" />
</g>
<g id="#f2fef1ff">
<path fill="#f2fef1" opacity="1.00" d=" M 250.55 289.97 C 251.15 290.00 252.34 290.06 252.93 290.09 C 255.45 291.37 258.66 292.21 259.92 295.00 C 261.80 298.86 262.97 303.03 264.06 307.17 C 259.49 301.91 255.74 296.01 251.17 290.74 L 250.55 289.97 Z" />
</g>
<g id="#e1ffeeff">
<path fill="#e1ffee" opacity="1.00" d=" M 549.80 291.73 C 551.49 292.31 553.17 292.93 554.84 293.62 C 553.08 297.65 551.68 301.82 550.48 306.05 C 550.08 301.29 549.22 296.52 549.80 291.73 Z" />
</g>
<g id="#f4fdf8ff">
<path fill="#f4fdf8" opacity="1.00" d=" M 262.92 293.50 C 264.57 293.39 266.23 293.27 267.90 293.18 C 267.85 293.56 267.75 294.34 267.70 294.73 C 267.30 297.65 266.84 300.56 266.32 303.47 C 264.96 300.22 263.76 296.91 262.92 293.50 Z" />
</g>
<g id="#bfd59aff">
<path fill="#bfd59a" opacity="1.00" d=" M 266.32 303.47 C 266.84 300.56 267.30 297.65 267.70 294.73 C 267.98 298.43 268.08 302.15 267.93 305.87 C 267.44 305.81 266.45 305.69 265.95 305.63 C 266.04 305.09 266.22 304.01 266.32 303.47 Z" />
</g>
<g id="#c2fec8ff">
<path fill="#c2fec8" opacity="1.00" d=" M 529.93 321.02 C 530.66 320.39 531.39 319.76 532.13 319.14 C 531.90 325.52 532.71 331.87 532.79 338.25 C 531.78 336.76 530.81 335.25 529.82 333.76 C 529.43 335.50 529.08 337.25 528.72 339.00 C 527.39 334.74 526.04 330.49 524.82 326.20 C 525.66 325.01 526.51 323.83 527.36 322.65 C 527.78 326.30 528.44 329.93 529.57 333.45 C 531.25 329.48 530.60 325.13 529.93 321.02 Z" />
<path fill="#c2fec8" opacity="1.00" d=" M 303.93 344.37 C 304.43 342.72 305.12 341.15 305.78 339.56 C 305.55 347.37 309.28 354.99 307.50 362.75 C 305.85 356.72 305.11 350.50 303.93 344.37 Z" />
<path fill="#c2fec8" opacity="1.00" d=" M 331.81 365.09 C 332.52 364.01 333.24 362.94 333.97 361.87 C 333.41 369.09 336.98 375.94 335.95 383.12 C 333.52 377.38 333.03 371.13 331.81 365.09 Z" />
<path fill="#c2fec8" opacity="1.00" d=" M 454.00 393.22 C 456.07 388.50 458.53 383.48 463.03 380.64 C 461.16 385.43 458.84 390.79 454.00 393.22 Z" />
</g>
<g id="#edfee4ff">
<path fill="#edfee4" opacity="1.00" d=" M 542.23 321.86 C 543.12 322.77 544.76 323.36 544.63 324.90 C 543.36 327.72 541.12 329.96 538.98 332.15 C 539.45 328.55 540.72 325.14 542.23 321.86 Z" />
<path fill="#edfee4" opacity="1.00" d=" M 517.19 356.95 C 519.33 353.09 521.48 349.16 524.81 346.19 C 525.41 346.75 526.60 347.87 527.20 348.43 C 524.45 351.90 520.78 354.43 517.19 356.95 Z" />
</g>
<g id="#e2fedfff">
<path fill="#e2fedf" opacity="1.00" d=" M 272.25 324.78 C 273.37 324.17 274.50 323.58 275.64 323.00 C 277.13 326.48 279.18 329.97 279.10 333.87 C 276.67 330.95 274.43 327.88 272.25 324.78 Z" />
<path fill="#e2fedf" opacity="1.00" d=" M 291.55 349.56 C 290.21 347.62 293.30 347.60 294.45 346.90 C 296.54 350.44 298.89 353.81 300.81 357.45 C 297.34 355.33 294.07 352.75 291.55 349.56 Z" />
</g>
<g id="#f7fdf5ff">
<path fill="#f7fdf5" opacity="1.00" d=" M 318.08 363.77 C 322.22 368.49 326.17 373.51 328.75 379.28 C 324.53 375.61 320.01 372.21 316.28 368.04 C 316.78 366.57 317.45 365.17 318.08 363.77 Z" />
</g>
<g id="#f5fdfaff">
<path fill="#f5fdfa" opacity="1.00" d=" M 499.16 364.20 C 501.72 363.42 501.06 366.96 501.77 368.45 L 500.83 368.71 C 499.31 368.90 498.35 370.16 497.55 371.33 C 496.45 372.71 495.29 374.02 494.22 375.42 C 493.82 374.78 493.01 373.50 492.61 372.86 C 494.92 370.07 496.54 366.73 499.16 364.20 Z" />
</g>
<g id="#95bb37ff">
<path fill="#95bb37" opacity="1.00" d=" M 497.55 371.33 C 498.35 370.16 499.31 368.90 500.83 368.71 C 501.98 370.43 498.99 372.69 497.55 371.33 Z" />
</g>
<g id="#64aca7ff">
<path fill="#64aca7" opacity="1.00" d=" M 503.29 370.76 C 503.76 369.51 505.79 369.02 506.05 370.70 C 505.36 370.71 503.98 370.75 503.29 370.76 Z" />
</g>
<g id="#f3fef1ff">
<path fill="#f3fef1" opacity="1.00" d=" M 310.07 372.64 C 311.31 372.07 312.55 371.44 313.90 371.12 C 315.61 372.00 317.05 373.30 318.53 374.52 C 323.16 378.50 328.44 381.76 332.39 386.48 C 324.17 383.36 316.88 378.10 310.07 372.64 Z" />
</g>
<g id="#ccedcdff">
<path fill="#ccedcd" opacity="1.00" d=" M 503.29 370.76 C 503.98 370.75 505.36 370.71 506.05 370.70 C 506.32 371.28 506.86 372.46 507.13 373.05 C 503.14 376.43 498.67 379.17 494.67 382.53 C 492.67 384.11 490.62 385.94 487.98 386.24 C 487.34 386.31 486.05 386.47 485.41 386.54 C 488.49 382.93 492.20 379.95 495.88 376.99 C 497.59 375.62 499.30 374.28 500.97 372.87 C 501.76 372.19 502.53 371.49 503.29 370.76 Z" />
</g>
<g id="#9bdc89ff">
<path fill="#9bdc89" opacity="1.00" d=" M 489.63 378.22 C 490.45 376.34 491.45 374.55 492.61 372.86 C 493.01 373.50 493.82 374.78 494.22 375.42 C 492.89 376.65 491.32 377.58 489.63 378.22 Z" />
</g>
<g id="#6fa1a4ff">
<path fill="#6fa1a4" opacity="1.00" d=" M 495.88 376.99 C 497.57 375.61 499.29 374.26 500.97 372.87 C 499.30 374.28 497.59 375.62 495.88 376.99 Z" />
</g>
<g id="#d3da78ff">
<path fill="#d3da78" opacity="1.00" d=" M 304.49 378.95 C 302.06 377.95 306.35 375.70 305.95 378.29 C 305.59 378.46 304.86 378.79 304.49 378.95 Z" />
</g>
<g id="#e9feedff">
<path fill="#e9feed" opacity="1.00" d=" M 347.66 376.53 L 348.23 377.28 C 351.22 381.48 354.50 385.50 357.03 390.00 C 353.39 387.92 350.02 385.41 346.65 382.91 C 347.01 380.79 347.39 378.67 347.66 376.53 Z" />
</g>
<g id="#e5ffedff">
<path fill="#e5ffed" opacity="1.00" d=" M 345.06 386.17 C 349.34 388.21 353.56 390.50 357.14 393.66 C 352.61 392.72 348.17 391.37 343.77 389.94 C 344.19 388.67 344.62 387.42 345.06 386.17 Z" />
</g>
<g id="#5fb5a4ff">
<path fill="#5fb5a4" opacity="1.00" d=" M 467.34 389.26 C 466.46 387.68 469.22 386.04 470.24 387.49 C 469.51 388.41 468.44 388.93 467.34 389.26 Z" />
</g>
<g id="#7cdd73ff">
<path fill="#7cdd73" opacity="1.00" d=" M 369.51 392.22 C 370.81 391.10 372.78 393.31 371.62 394.52 C 370.31 395.62 368.37 393.42 369.51 392.22 Z" />
</g>
<g id="#76d66fff">
<path fill="#76d66f" opacity="1.00" d=" M 446.63 392.08 C 447.95 390.72 449.84 393.08 448.49 394.23 C 447.19 395.57 445.34 393.21 446.63 392.08 Z" />
</g>
<g id="#bcf2a5ff">
<path fill="#bcf2a5" opacity="1.00" d=" M 442.45 395.32 C 444.58 394.39 444.77 397.78 442.92 398.16 C 440.80 399.06 440.65 395.70 442.45 395.32 Z" />
</g>
<g id="#b1c95aff">
<path fill="#b1c95a" opacity="1.00" d=" M 474.63 406.69 C 477.56 405.38 481.21 405.36 483.70 407.62 L 482.67 407.52 C 479.99 407.24 477.31 406.90 474.63 406.69 Z" />
</g>
<g id="#92c8acff">
<path fill="#92c8ac" opacity="1.00" d=" M 433.13 414.58 C 437.69 415.79 442.34 416.84 447.09 416.66 L 448.27 416.69 C 445.43 418.76 441.91 417.60 438.74 417.25 C 438.43 418.07 438.11 418.89 437.79 419.71 C 436.12 419.21 434.47 418.68 432.85 418.06 C 433.28 418.19 434.14 418.45 434.56 418.58 C 434.09 417.24 433.61 415.91 433.13 414.58 Z" />
</g>
</svg>
