<?xml version="1.0" encoding="UTF-8" standalone="no"?>
<!-- Created with Inkscape (http://www.inkscape.org/) -->

<svg
   xmlns:svg="http://www.w3.org/2000/svg"
   xmlns="http://www.w3.org/2000/svg"
   version="1.1"
   width="686"
   height="460"
   id="svg3763">
  <defs
     id="defs3765" />
  <g
     transform="translate(-199.92858,-244.50505)"
     id="layer1">
    <g
       transform="matrix(2,0,0,2,165.78658,193.63773)"
       id="g3724">
      <rect
         width="343"
         height="98"
         x="17.070999"
         y="25.433661"
         id="rect3658"
         style="fill:#ec1a23;fill-opacity:1;fill-rule:nonzero;stroke:none" />
      <rect
         width="343"
         height="35"
         x="17.070999"
         y="123.43366"
         id="rect3660"
         style="fill:#fdf100;fill-opacity:1;fill-rule:nonzero;stroke:none" />
      <rect
         width="342.89679"
         height="97"
         x="17.070999"
         y="158.43365"
         id="rect3662"
         style="fill:#283595;fill-opacity:1;fill-rule:nonzero;stroke:none" />
    </g>
    <g
       transform="matrix(2,0,0,2,165.78658,193.63773)"
       id="g3705">
      <g
         transform="matrix(0.49257578,0,0,0.49257578,-190.17439,-283.91068)"
         id="g5036">
        <g
           id="g3675">
          <path
             d="m 84.375,253.48214 0.08929,-52.94643 -2.142857,0 0.08928,-4.19642 1.964285,0 0.08929,-19.82143 L 86.875,176.42856 87.053572,154.9107 80,145.53571 l -0.08929,-20.08928 9.642858,0 -0.08929,10.08928 4.910714,0.0893 0.08929,-10.26786 9.017858,0.0893 0,9.91071 4.01786,0 -0.17857,-10.08928 10.35714,0.0893 0,19.73215 -7.32143,10.44642 0.17857,20.89286 16.98661,0.0223 0.067,12.94643 5.49107,0.0223 -0.17857,-12.8125 17.56696,0 0.0223,12.85715 6.04911,0.067 -0.0893,-13.01339 18.14732,0.0446 0,12.94643 5.84822,0 0,-12.96875 16.94196,-0.067 -0.13392,-21.13839 -7.32143,-10.35714 0.0446,-19.41965 9.62054,0 0.0893,9.95536 4.91072,0.0223 -0.0223,-10.02232 8.92858,0.0223 0.067,9.93304 4.12946,0.0446 -0.0223,-9.97768 9.77679,0.0447 0.0223,19.88839 -6.89732,9.97768 0.13393,20.95982 2.83482,0.0223 0.0893,20.08929 1.38393,0.0223 0.067,3.83928 -1.5625,0.0447 0.0893,0.0223 -0.0223,53.8393 -53.95078,-0.31138 0.0196,-37.7553 -0.25692,-3.61754 -1.34513,-4.08923 -3.48244,-3.17116 -3.93858,-2.93969 -5.15105,-1.11575 -4.7643,0.0591 -4.93346,1.18827 -3.53697,3.08545 -3.04429,3.70396 -1.53158,3.93566 -0.0876,2.53472 -2.9e-4,37.99655 -53.21509,-0.30714 2e-5,0 -3e-5,-4e-5 z"
             transform="translate(379.28571,547.7193)"
             id="path3669"
             style="fill:#ffffff;fill-opacity:1;stroke:#000000;stroke-width:1px;stroke-linecap:butt;stroke-linejoin:miter;stroke-opacity:1" />
          <path
             d="m 110.4223,176.31562 -1.07329,0.0631 0.0631,13.32138 -6.06092,-0.0631 0,-13.38452 -16.478111,0.12627 0,0 0,0"
             transform="translate(379.28571,547.7193)"
             id="path3671"
             style="fill:none;stroke:#000000;stroke-width:1px;stroke-linecap:butt;stroke-linejoin:miter;stroke-opacity:1" />
          <path
             d="m 197.27963,176.48112 1.05751,-0.0238 -0.0315,13.05306 5.61898,0 -0.0631,-12.94258 16.85692,-0.0631"
             transform="translate(379.28571,547.7193)"
             id="path3673"
             style="fill:none;stroke:#000000;stroke-width:1px;stroke-linecap:butt;stroke-linejoin:miter;stroke-opacity:1" />
        </g>
        <path
           d="m 556.32142,801.55858 -0.0893,-3.39285 -7.41072,0 8.21429,-0.0893 0,-4.73214 -8.30357,0.0893 7.23214,-0.0893 0,-4.91071 -6.96428,-0.0893 7.85714,-0.13393 -0.0223,-4.08482 -8.03572,0 7.12054,0 0,-4.91071 -7.07589,-0.0447 8.16964,0.0447 0.0223,-5 -8.30357,0.0223 7.16518,-0.0223 -0.0223,-5.06697 -7.16518,0 8.2366,-0.0223 -0.067,-4.82143 -8.125,-0.0223 6.07143,-0.0223 0.067,-6.07143 -6.22768,2.36607 7.54465,-2.87946 -3.125,-5.53572 -6.25,4.44197 4.86607,-3.52679 -3.68304,-4.48661 -4.59821,4.2634 6.02678,-5.625 -5.66964,-4.01786 -3.52678,6.98661 2.96875,-5.89286 -6.74108,-1.54018 -1.60714,6.27232 2.09822,-7.99107 -4.30804,0.0223 m -23.28571,60.15623 0.0893,-3.03571 7.41072,0 -8.21429,-0.0893 0,-4.73214 8.30357,0.0893 -7.23214,-0.0893 0,-4.91071 6.96428,-0.0893 -7.85714,-0.13393 0.0223,-4.08482 8.03572,0 -7.12054,0 0,-4.91071 7.07589,-0.0447 -8.16964,0.0447 -0.0223,-5 8.30357,0.0223 -7.16518,-0.0223 0.0223,-5.06697 7.16518,0 -8.2366,-0.0223 0.067,-4.82143 8.125,-0.0223 -6.07143,-0.0223 -0.067,-6.07143 6.22768,2.36607 -7.54465,-2.87946 3.125,-5.53572 6.25,4.44197 -4.86607,-3.52679 3.68304,-4.48661 4.59821,4.2634 -6.02678,-5.625 5.66964,-4.01786 3.52678,6.98661 -2.96875,-5.89286 6.74108,-1.54018 1.60714,6.27232 -2.09822,-7.99107 4.30804,0.0223 m 70.06072,7.12052 -54.46429,0.13397 m 54.19643,-4.0625 -57.1875,0.17857 m -81.98036,3.83929 53.70536,0 m -53.52678,-4.19643 56.25,0.26786"
           id="path4910"
           style="fill:none;stroke:#000000;stroke-width:1px;stroke-linecap:butt;stroke-linejoin:miter;stroke-opacity:1" />
        <path
           d="m 526.07157,737.54073 0.0893,5.80357 m -13.66073,-5.625 0,6.33929 m -13.57143,-6.42858 0.0893,7.05358 m -13.92859,-6.96429 -0.0893,6.60714 m -12.94641,-6.60714 0,6.25 m 67.58914,-6.42857 -0.0893,5.80357 m 13.66073,-5.625 0,6.33929 m 13.57143,-6.42858 -0.0893,7.05358 m 13.92859,-6.96429 0.0893,6.60714 m 12.94641,-6.60714 0,6.25 m -87.43241,53.92857 0.0893,3.92857 m -14.64287,-3.92857 0,3.75 m 7.5,-10.625 0.17857,6.875 m 6.60714,-13.48214 0,6.78571 m -14.01786,-6.60714 -0.0893,6.51786 m -6.7857,0.26785 0.0893,6.60715 m -6.69644,-0.0893 0.0893,3.75 m -6.60716,-10.44643 -0.0893,6.51786 m 6.60714,-13.30357 -0.0893,6.875 m -6.51784,-12.94643 -0.17857,6.25 m 13.30357,-6.42857 0,6.42857 m 13.92859,-6.42856 0.17857,6.51786 m 6.96429,-13.66072 0,6.96429 m -7.14286,-13.30357 0,6.25 m 6.96429,-12.94643 0.0893,6.78571 m -14.10716,-6.78571 0.0893,6.875 m -13.57144,-6.69643 0,6.33928 m -6.51786,-13.30357 -0.0893,6.96429 m 13.2143,-6.875 -0.0893,6.69643 m 14.10716,-6.78572 0,6.875 m 6.96428,-9.82143 0.0893,2.76786 m -14.01787,-2.67857 0.0893,2.67857 m -13.75001,-2.67857 0.0893,2.85714 m 13.39284,19.91072 0,6.875 m -13.57143,-6.96429 0,7.14286 m -6.16071,-13.66072 0,6.42858 m 12.85714,-6.25 0.0893,6.51785 m 74.39668,26.69643 -0.0893,3.92857 m 14.64287,-3.92857 0,3.75 m -7.5,-10.625 -0.17857,6.875 m -6.60714,-13.48214 0,6.78571 m 14.01786,-6.60714 0.0893,6.51786 m 6.7857,0.26785 -0.0893,6.60715 m 6.69644,-0.0893 -0.0893,3.75 m 6.60716,-10.44643 0.0893,6.51786 m -6.60714,-13.30357 0.0893,6.875 m 6.51784,-12.94643 0.17857,6.25 m -13.30357,-6.42857 0,6.42857 m -13.92859,-6.42856 -0.17857,6.51786 m -6.96429,-13.66072 0,6.96429 m 7.14286,-13.30357 0,6.25 m -6.96429,-12.94643 -0.0893,6.78571 m 14.10716,-6.78571 -0.0893,6.875 m 13.57144,-6.69643 0,6.33928 m 6.51786,-13.30357 0.0893,6.96429 m -13.2143,-6.875 0.0893,6.69643 m -14.10716,-6.78572 0,6.875 m -6.96428,-9.82143 -0.0893,2.76786 m 14.01787,-2.67857 -0.0893,2.67857 m 13.75001,-2.67857 -0.0893,2.85714 m -13.39284,19.91072 0,6.875 m 13.57143,-6.96429 0,7.14286 m 6.16071,-13.66072 0,6.42858 m -12.85714,-6.25 -0.0893,6.51785 m -61.29286,-40.08928 0.0447,6.62946 m -26.83036,-6.62946 0,6.56249 m -13.66071,-6.65178 -0.067,6.74107 m 68.05625,-6.65178 -0.0447,6.58482 m 26.83036,-6.58482 0,6.65178 m 13.66071,-6.74107 0,6.83036 m 15.18541,59.95367 -45.25887,0.26783 m 45.4399,-6.8745 -46.52611,0 m 46.4356,-6.51737 -45.80198,0 m 45.71146,-6.42812 -45.16835,0 m 45.16835,-7.05305 -46.52611,-0.0893 m 46.52611,-6.51736 -45.53041,0.17856 m 45.43988,-6.51739 -47.15972,-0.17856 m 47.42635,-6.78521 -52.22379,-0.17856 m -86.70913,46.69472 44.64285,0.26785 m -44.82143,-6.875 45.89286,0 m -45.80357,-6.51785 45.17857,0 m -45.08928,-6.42858 44.55357,0 m -44.55357,-7.05357 45.89285,-0.0893 M 463.75,764.5943 l 44.91071,0.17857 m -44.82143,-6.51786 46.51786,-0.17857 m -46.42857,-6.78571 51.16071,-0.17857 m 24.78573,-27.05357 -0.0893,7.14285 m 27.2893,-7.14285 -0.0893,7.14285 m 27.1893,-7.14285 -0.0893,7.14285 m -68,-7.14285 0.0893,7.14285 m -27.2893,-7.14285 0.0893,7.14285 m -27.1893,-7.14285 0.0893,7.14285 m -8.16966,6.51786 139.22992,0.0112 m -19.50172,-6.55414 19.31801,-0.0145 m -42.81879,0.0153 17.35524,-0.016 m -41.06226,0.1107 17.35524,-0.016 m -40.96756,-0.0471 17.35524,-0.016 m -41.34286,0.0485 18.51623,-0.27034 m -43.45437,0.39661 18.51623,-0.27034 m 0.42452,4.87869 6.20425,-0.0802 m -6.39365,-5.34937 6.20425,-0.0802 m -6.20425,-4.90743 6.20425,-0.0802 m -4.7766,-0.10391 0.13338,5.28878 m -6.22727,-10.26123 0.15754,3.55207 m -0.18754,-14.0285 0.12826,5.17458 m -0.0863,-15.48973 0.13356,4.82274 m 5.88521,10.58723 0.13338,5.28878 m -12.26002,-5.19086 0.13338,5.28878 m 11.90397,-15.92241 0.13338,5.28878 m -12.26002,-5.19086 0.13338,5.28878 m 12.08255,-15.65456 0.13338,5.28878 m -12.26002,-5.19086 0.13338,5.28878 m 17.84949,-10.03774 0.13356,4.82274 m -12.00856,-5.0906 0.13356,4.82274 m -12.27642,-4.64417 0.13356,4.82274 m 18.03609,-10.00132 0.13356,4.82274 m -12.27642,-4.73345 0.13356,4.82274 m 18.21465,-10.00131 0.13356,4.82274 m -12.32106,-4.82274 0.13356,4.82274 m -12.23177,-4.82274 0.13356,4.82274 m 0.48818,36.52632 23.35037,-0.24312 m -23.28724,-4.93391 23.35037,-0.24312 m -23.28723,-5.24959 23.35037,-0.24312 m -23.60291,-4.87077 23.35037,-0.24312 m -25.20238,-4.69183 28.0014,-0.2222 m -32.34475,-5.28344 35.29914,-0.19634 m -36.05329,-4.66848 37.62818,-0.1894 m -37.69131,-5.01921 37.62818,-0.1894 m -9.84898,-4.86135 6.4386,-0.0847 3.15784,-0.0416 m -23.26029,3e-5 9.59645,-0.12627 m -23.7118,0.31567 9.59645,-0.12627 m 114.62933,56.82039 -6.20425,-0.0802 m 6.39365,-5.34937 -6.20425,-0.0802 m 6.20425,-4.90743 -6.20425,-0.0802 m 4.7766,-0.10391 -0.13338,5.28878 m 6.22727,-10.26123 -0.15754,3.55207 m 0.18754,-14.0285 -0.12826,5.17458 m 0.0863,-15.48973 -0.13356,4.82274 m -5.88521,10.58723 -0.13338,5.28878 m 12.26002,-5.19086 -0.13338,5.28878 m -11.90397,-15.92241 -0.13338,5.28878 m 12.26002,-5.19086 -0.13338,5.28878 m -12.08255,-15.65456 -0.13338,5.28878 m 12.26002,-5.19086 -0.13338,5.28878 m -17.84949,-10.03774 -0.13356,4.82274 m 12.00856,-5.0906 -0.13356,4.82274 m 12.27642,-4.64417 -0.13356,4.82274 m -18.03609,-10.00132 -0.13356,4.82274 m 12.27642,-4.73345 -0.13356,4.82274 m -18.21465,-10.00131 -0.13356,4.82274 m 12.32106,-4.82274 -0.13356,4.82274 m 12.23177,-4.82274 -0.13356,4.82274 m -0.48818,36.52632 -23.03787,-0.24312 m 22.97474,-4.93391 -22.97091,-0.26544 m 22.90777,-5.22727 -22.92626,-0.17616 m 23.1788,-4.93773 -23.35037,-0.24312 m 25.20238,-4.69183 -27.48801,-0.19988 m 31.83136,-5.30576 -35.6786,-0.19634 m 36.43275,-4.66848 -37.62818,-0.1894 m 37.69131,-5.01921 -37.62818,-0.1894 m 9.84898,-4.86135 -6.4386,-0.0847 -3.15784,-0.0416 m 23.26029,3e-5 -9.08306,-0.037 m 23.19841,0.22638 -9.59645,-0.12627"
           id="path5019"
           style="fill:none;stroke:#000000;stroke-width:0.5;stroke-linecap:butt;stroke-linejoin:miter;stroke-miterlimit:4;stroke-opacity:1;stroke-dasharray:none" />
      </g>
      <path
         d="m 72.771539,42.982345 c 5.207952,0.01226 5.394164,5.211488 2.006006,5.997238 1.362032,-1.827466 1.431806,-3.029002 1.028989,-4.001624 0.08349,1.134078 -0.167645,1.966179 -1.216075,2.078764 0.807139,-3.001438 -1.860661,-2.66567 -2.099554,-2.96224 l 0.280634,-1.112138 z"
         id="path31627"
         style="fill:#ffd211;fill-opacity:1;stroke:#000000;stroke-width:0.09407418;stroke-linecap:butt;stroke-linejoin:miter;stroke-miterlimit:4;stroke-opacity:1;stroke-dasharray:none" />
      <g
         transform="matrix(0.49257578,0,0,0.49257578,-190.17439,-283.91068)"
         id="g31424">
        <path
           d="m 531.94501,652.32987 0.584,-1.1e-4 -2.6e-4,-1.38107 0.80519,-0.008 -0.004,-0.76128 -0.817,-0.008 -0.004,-0.89216 -0.58774,-0.004 0.008,0.89967 -0.88388,-0.008 0.0158,0.75761 0.87599,0.008 0.008,1.39685 -10e-5,1.1e-4 0,1.1e-4 0,2.7e-4 z"
           id="path30871"
           style="fill:#ffd211;fill-opacity:1;stroke:#000000;stroke-width:0.2;stroke-linecap:butt;stroke-linejoin:miter;stroke-miterlimit:4;stroke-opacity:1;stroke-dasharray:none" />
        <path
           d="m 535.71428,663.56747 2.45536,-3.70535 c 4.77465,-5.22243 -3.49653,-9.36435 -5.89286,-4.73215 -2.86336,-4.52617 -10.56813,-0.8197 -5.71428,4.82143 l 2.36607,3.58259 6.78571,0.0335 0,-2e-5 z"
           id="path30867"
           style="fill:#ffd211;fill-opacity:1;stroke:#000000;stroke-width:0.2;stroke-linecap:butt;stroke-linejoin:miter;stroke-miterlimit:4;stroke-opacity:1;stroke-dasharray:none" />
        <path
           d="m 533.34174,653.34711 c 0,0.61531 -0.49836,1.11411 -1.11313,1.11411 -0.61476,0 -1.11312,-0.4988 -1.11312,-1.11411 0,-0.61532 0.49836,-1.11412 1.11312,-1.11412 0.61477,0 1.11313,0.4988 1.11313,1.11412 z"
           id="path30873"
           style="fill:#ffd211;fill-opacity:1;stroke:#000000;stroke-width:0.22611795;stroke-linecap:butt;stroke-linejoin:miter;stroke-miterlimit:4;stroke-opacity:1;stroke-dasharray:none" />
        <path
           d="m 526.65178,660.04073 11.33929,-0.0893"
           id="path30869"
           style="fill:#ffd211;fill-opacity:1;stroke:#000000;stroke-width:0.2;stroke-linecap:butt;stroke-linejoin:miter;stroke-miterlimit:4;stroke-opacity:1;stroke-dasharray:none" />
        <path
           d="m 530.4029,663.57047 3.875,0 0.10175,38.50782 c -1.14275,0.14891 -2.96879,0.12233 -3.86719,-0.0938 0,-13.95833 -0.0602,-21.878 -0.10956,-38.41407 l 0,3e-5 0,2e-5 z"
           id="path30855"
           style="fill:#ffd211;fill-opacity:1;stroke:#000000;stroke-width:0.2;stroke-linecap:butt;stroke-linejoin:miter;stroke-miterlimit:4;stroke-opacity:1;stroke-dasharray:none" />
      </g>
      <path
         d="m 75.868902,55.215878 c -1.899503,0.204205 -1.454221,-2.620747 0.873073,-2.161914 1.767066,0.60606 2.87475,2.843257 2.592516,4.385014 -2.903237,15.859775 -25.393705,-3.106574 -8.225966,-7.128983 l 0.02076,0.789928 c -6.282288,1.400375 -5.693758,11.906748 3.242873,9.437595 l -0.08315,1.247259 c 1.481835,-0.03727 6.298709,-5.277076 1.288833,-7.733007 -0.181608,0.318381 0.03653,0.736703 0.291029,1.164108 z"
         id="path31619"
         style="fill:#ffd211;fill-opacity:1;stroke:#000000;stroke-width:0.09407418;stroke-linecap:butt;stroke-linejoin:miter;stroke-miterlimit:4;stroke-opacity:1;stroke-dasharray:none" />
      <path
         d="m 71.139706,56.572273 c -1.073055,1.669551 -3.956015,6.304013 -5.997235,3.050588 -0.410123,1.3854 1.386163,5.370661 5.997235,-2.29184 -0.02053,-0.01752 0.0078,-0.75844 0,-0.758748 z"
         id="path31617"
         style="fill:#ffd211;fill-opacity:1;stroke:#000000;stroke-width:0.09407418;stroke-linecap:butt;stroke-linejoin:miter;stroke-miterlimit:4;stroke-opacity:1;stroke-dasharray:none" />
      <path
         d="m 73.031389,50.850472 c 1.654349,-0.140745 1.07655,1.182533 0.01038,1.226471 -5.569014,0.953815 -4.733457,-4.753448 -2.93106,-5.903694 l -1.122536,-0.478115 c 0.700567,-0.507453 1.449849,-1.620349 2.099553,-1.5175 l 0.0054,-1.200486 c -0.691794,0.08482 -1.356046,0.679707 -1.938448,1.366787 l 0.06236,-1.538284 c -1.60852,2.281947 -2.280194,3.949306 -2.137476,5.138259 1.251938,10.429559 13.473892,2.267958 5.936428,2.241357 l 0.01562,0.665205 -8e-6,0 z"
         id="path31623"
         style="fill:#ffd211;fill-opacity:1;stroke:#000000;stroke-width:0.09407418;stroke-linecap:butt;stroke-linejoin:miter;stroke-miterlimit:4;stroke-opacity:1;stroke-dasharray:none" />
    </g>
  </g>
</svg>
