<?xml version="1.0" encoding="UTF-8" standalone="no"?>
<svg
   xmlns:dc="http://purl.org/dc/elements/1.1/"
   xmlns:cc="http://creativecommons.org/ns#"
   xmlns:rdf="http://www.w3.org/1999/02/22-rdf-syntax-ns#"
   xmlns:svg="http://www.w3.org/2000/svg"
   xmlns="http://www.w3.org/2000/svg"
   xmlns:sodipodi="http://sodipodi.sourceforge.net/DTD/sodipodi-0.dtd"
   xmlns:inkscape="http://www.inkscape.org/namespaces/inkscape"
   xml:space="preserve"
   width="600"
   height="300"
   viewBox="0 0 600 300"
   id="svg2"
   version="1.1"
   inkscape:version="0.48.1 "
   sodipodi:docname="ZZ1.svg"><metadata
   id="metadata32"><rdf:RDF><cc:Work
       rdf:about=""><dc:format>image/svg+xml</dc:format><dc:type
         rdf:resource="http://purl.org/dc/dcmitype/StillImage" /></cc:Work></rdf:RDF></metadata><defs
   id="defs30" /><sodipodi:namedview
   pagecolor="#ffffff"
   bordercolor="#666666"
   borderopacity="1"
   objecttolerance="10"
   gridtolerance="10"
   guidetolerance="10"
   inkscape:pageopacity="0"
   inkscape:pageshadow="2"
   inkscape:window-width="1280"
   inkscape:window-height="1004"
   id="namedview28"
   showgrid="false"
   fit-margin-top="0"
   fit-margin-left="0"
   fit-margin-right="0"
   fit-margin-bottom="0"
   inkscape:zoom="2.3168403"
   inkscape:cx="272.38165"
   inkscape:cy="50.885093"
   inkscape:window-x="-8"
   inkscape:window-y="-8"
   inkscape:window-maximized="1"
   inkscape:current-layer="svg2" />
<rect
   width="600"
   height="300"
   x="0"
   y="0"
   id="rect4"
   style="fill:#ffd000;stroke:none" />
<circle
   cx="300"
   cy="150"
   r="100"
   id="circle6"
   style="fill:#00b0e0;stroke:none"
   sodipodi:cx="300"
   sodipodi:cy="150"
   sodipodi:rx="100"
   sodipodi:ry="100" />
<g
   id="g8"
   style="fill:#ffffff;stroke:#00b0e0;stroke-width:1.5;stroke-opacity:1;stroke-miterlimit:4;stroke-dasharray:none">
<path
   d="m 246,198 c 16,2 31,-3 41,-9 14,-7 16,-26 16,-26 0,0 -25,-2 -38,12 -3,2 -13,10 -19,23 z"
   id="path10"
   style="stroke:#00b0e0;stroke-opacity:1;stroke-width:1.5;stroke-miterlimit:4;stroke-dasharray:none"
   inkscape:connector-curvature="0" />
<path
   d="m 354,198 c -16,2 -31,-3 -41,-9 -14,-7 -16,-26 -16,-26 0,0 25,-2 38,12 3,2 13,10 19,23 z"
   id="path12"
   style="stroke:#00b0e0;stroke-opacity:1;stroke-width:1.5;stroke-miterlimit:4;stroke-dasharray:none"
   inkscape:connector-curvature="0" />
<path
   d="m 248,152 c -3,0 -9,-1 -18,6 7,9 14,14 26,14 16,0 32,-4 32,-4 0,0 -22,-16 -30,-16 z"
   id="path14"
   style="stroke:#00b0e0;stroke-opacity:1;stroke-width:1.5;stroke-miterlimit:4;stroke-dasharray:none"
   inkscape:connector-curvature="0" />
<path
   d="m 352,152 c 3,0 9,-1 18,6 -7,9 -14,14 -26,14 -16,0 -32,-4 -32,-4 0,0 22,-16 40,-16 z"
   id="path16"
   style="stroke:#00b0e0;stroke-opacity:1;stroke-width:1.5;stroke-miterlimit:4;stroke-dasharray:none"
   inkscape:connector-curvature="0" />
<path
   d="m 281,99 c -9,0 -17,48 -17,48 l 33,0 c 0,0 -3,-48 -16,-48 z"
   id="path18"
   style="stroke:#00b0e0;stroke-opacity:1;stroke-width:1.5;stroke-miterlimit:4;stroke-dasharray:none"
   inkscape:connector-curvature="0" />
<path
   d="m 319,99 c 9,0 17,48 17,48 l -33,0 c 0,0 3,-48 16,-48 z"
   id="path20"
   style="stroke:#00b0e0;stroke-opacity:1;stroke-width:1.5;stroke-miterlimit:4;stroke-dasharray:none"
   inkscape:connector-curvature="0" />
<path
   d="m 262,108 c -3,0 -6,11 -6,22 0,13 14,45 41,40 -7,-15 -24,-62 -35,-62 z"
   id="path22"
   style="stroke:#00b0e0;stroke-opacity:1;stroke-width:1.5;stroke-miterlimit:4;stroke-dasharray:none"
   inkscape:connector-curvature="0" />
<path
   d="m 338,108 c 3,0 6,11 6,22 0,13 -14,45 -41,40 7,-15 24,-62 35,-62 z"
   id="path24"
   style="stroke:#00b0e0;stroke-opacity:1;stroke-width:1.5;stroke-miterlimit:4;stroke-dasharray:none"
   inkscape:connector-curvature="0" />
<path
   d="m 300,172 c 13,0 15,-14 15,-32 0,-12 -8,-41 -15,-41 -7,0 -15,29 -15,41 0,18 2,32 15,32 z"
   id="path26"
   style="stroke:#00b0e0;stroke-opacity:1;stroke-width:1.5;stroke-miterlimit:4;stroke-dasharray:none"
   inkscape:connector-curvature="0" />
</g>
</svg>