<?xml version="1.0" encoding="UTF-8"?>
<!DOCTYPE svg PUBLIC "-//W3C//DTD SVG 1.1//EN" "http://www.w3.org/Graphics/SVG/1.1/DTD/svg11.dtd">
<!-- Creator: CorelDRAW -->
<svg xmlns="http://www.w3.org/2000/svg" xml:space="preserve" width="215.163mm" height="142.57mm" style="shape-rendering:geometricPrecision; text-rendering:geometricPrecision; image-rendering:optimizeQuality; fill-rule:evenodd; clip-rule:evenodd"
viewBox="0 0 215.163 142.57"
 xmlns:xlink="http://www.w3.org/1999/xlink">
 <defs>
  <style type="text/css">
   <![CDATA[
    .fil0 {fill:#00A652}
    .fil3 {fill:#1F1A17}
    .fil2 {fill:#DA251D}
    .fil1 {fill:#E40102}
    .fil4 {fill:#F2C12E}
    .fil5 {fill:#FFCC00}
    .fil6 {fill:white}
   ]]>
  </style>
 </defs>
 <g id="Layer_x0020_1">
  <metadata id="CorelCorpID_0Corel-Layer"/>
  <g id="_127261056">
   <rect id="_41424872" class="fil0" x="0.0002" y="0.0018" width="215.167" height="142.568"/>
   <polygon id="_117414512" class="fil1" points="0.0046,59.4892 215.167,59.4892 215.167,-0.0076 0.0046,-0.0076 "/>
   <g>
    <polygon id="_40817096" class="fil2" points="97.8303,39.2148 115.774,39.2148 115.774,37.8867 97.8303,37.8867 "/>
    <path id="_40552704" class="fil3" d="M96.5324 50.4502c3.2863,-0.3761 7.3632,-0.5993 11.7709,-0.5993 3.5741,0 6.97,-0.1394 9.8237,0.4027 3.8146,0.7247 6.5188,1.7776 7.0364,-0.4211 -0.1756,-0.1338 0.0006,-0.2301 -0.1923,-0.3648l1.7119 -0.7372 -0.8407 -1.1058 -0.5031 -0.6615 0.1109 -0.5364c1.3925,0.2299 1.4779,-0.2486 1.3368,-1.1086 -0.0293,-0.1789 -0.0556,-0.3437 -0.1692,-0.538 -0.1699,-0.1055 -0.3394,-0.2066 -0.5088,-0.3036l1.5651 -3.5877c0.4059,-0.2057 0.7483,-0.511 1.0292,-0.9031 0.5825,0.2998 0.9733,0.2983 1.5936,0.1174 0.7609,-0.3127 1.4464,-1.0218 1.1308,-1.8924 1.1138,-1.0845 0.2183,-3.0539 -1.3421,-3.0931 1.9208,-3.1129 1.688,-7.409 1.1325,-9.8702 -1.3099,-4.7381 -5.5251,-8.4596 -13.3343,-8.8978l-0.0276 -0.1578 -1.1839 -0.134c-0.387,0.6968 -0.7673,1.4077 -1.1333,2.1139 -1.061,0.172 -1.8338,0.2234 -2.8408,0.1918l0.2365 -0.7547 -1.1824 -0.2476c-0.6352,0.7009 -2.4487,1.4816 -3.3346,1.0725 1.9654,-0.4299 2.8215,-2.2145 2.8215,-4.128l-0.2283 -0.0717c-0.1203,-0.7588 -0.3315,-1.3801 -0.8447,-1.9584l-1.2241 -2.8357 2.4113 1.0968 0 -4.8212 -2.4113 1.0971 1.0969 -2.4113 -4.8211 0 1.0969 2.4113 -2.4112 -1.0971 0 4.8212 2.4112 -1.0968 -1.1846 2.7281c-0.0028,0.0028 -0.0059,0.0057 -0.0087,0.0086 -0.5701,0.6108 -0.8062,1.2545 -0.9324,2.0622l-0.0979 0.0292c-0.0564,1.8939 0.7879,3.612 2.6522,4.1264 -0.1231,0.05 -0.2408,0.1117 -0.3513,0.1829 -1.1423,-0.1695 -2.1905,-0.4731 -2.8336,-1.457l-1.051 0.7948 0.2582 0.7112c-1.0916,0.0008 -1.9295,-0.0742 -3.0811,-0.2791 -0.2602,-0.6035 -0.5332,-1.21 -0.8147,-1.804l-0.9745 0.0086 -0.1785 0.1107c-8.2914,0.2583 -13.2363,3.8193 -14.3841,8.506 -0.6094,2.6509 -0.5166,7.5707 1.3563,10.5518 -2.5523,-0.0786 -2.4157,1.5474 -2.0155,2.9491 0.4178,-0.0491 0.8404,-0.0861 1.2529,-0.1663l-0.0394 0.1968 2.1094 1.1445c0.2623,1.0478 1.0446,1.8171 2.1119,2.0337 0.1345,0.0475 0.2577,0.0545 0.3626,0.0293l1.2768 2.4038c-0.2035,0.1142 -0.4038,0.2404 -0.6044,0.3779 -0.0798,0.0772 -0.1969,0.1934 -0.2109,0.2306 -0.0569,0.1503 -0.1102,0.2828 -0.1097,0.4276 0.0027,0.9374 0.523,1.3214 1.4953,0.9937l0.001 0.085 -1.6119 1.4584 1.6388 1.102 0.0123 0.1205c-0.5815,3.1553 1.1232,2.2947 6.1742,1.3432z"/>
    <polygon id="_40552008" class="fil4" points="90.3632,46.6862 91.0577,47.1531 91.7522,47.6201 91.1375,48.1763 90.5228,48.7323 89.8285,48.2652 89.1341,47.7982 89.7486,47.2422 "/>
    <polygon id="_40551312" class="fil4" points="125.029,47.184 125.536,47.85 126.041,48.5164 125.281,48.8442 124.518,49.1719 124.013,48.5057 123.506,47.8395 124.268,47.5117 "/>
    <polygon id="_40407024" class="fil4" points="107.707,44.1632 108.91,44.9373 110.112,45.7114 108.864,46.422 107.617,47.1325 106.415,46.3583 105.212,45.584 106.46,44.8737 "/>
    <path id="_40406328" class="fil5" d="M102.361 31.8159c-0.5969,-6.3421 -1.9647,-11.8346 -3.5998,-15.0862l-0.796 0c1.6661,3.7746 3.1225,9.1705 4.0102,15.3073l0.0278 -0.0228 0.3578 -0.1983z"/>
    <path id="_40405632" class="fil5" d="M111.063 18.122c-0.948,2.6277 -1.7449,6.0339 -2.2639,9.8654l-0.1372 -0.0807 -0.069 -0.029 -0.2036 -0.1197 -0.2451 -0.1027 -0.2159 -0.059c0.537,-0.1871 0.9242,-0.6987 0.9242,-1.2983 0,-0.5444 -0.3191,-1.0167 -0.7799,-1.2389 0.6413,-0.2416 1.0993,-0.8619 1.0993,-1.5858 0,-0.5659 -0.2802,-1.0688 -0.7087,-1.3766 0.6136,-0.346 1.0295,-1.0039 1.0295,-1.7562 0,-0.5181 -0.1973,-0.9918 -0.5206,-1.3493 0.8044,-0.1676 1.5207,-0.4708 2.0909,-0.8692zm-4.698 9.8495c-0.0587,-0.414 -0.1209,-0.8225 -0.1859,-1.2254 0.1441,0.4158 0.4831,0.7419 0.9065,0.8688 -0.1332,0.0381 -0.2639,0.0884 -0.3947,0.1431l-0.2232 0.1313 -0.1027 0.0822zm0.128 -5.8748c-0.4284,0.3078 -0.7089,0.8107 -0.7089,1.3766 0,0.7239 0.4584,1.3442 1.0996,1.5858 -0.4586,0.2213 -0.7772,0.6901 -0.78,1.2313 -0.5374,-3.176 -1.2667,-5.9813 -2.1039,-8.1853 0.5449,0.3918 1.2316,0.6924 2.0029,0.8659 -0.3342,0.3599 -0.5394,0.8416 -0.5394,1.3695 0,0.7523 0.416,1.4102 1.0297,1.7562z"/>
    <path id="_40404232" class="fil5" d="M107.561 14.1912c1.1856,0 2.2764,0.1653 3.133,0.4409 0.0003,0.0229 0.0008,0.0459 0.0008,0.069 0,0.5034 -0.1104,0.9805 -0.3068,1.4064 -0.8038,-0.2205 -1.7783,-0.3498 -2.827,-0.3498 -1.0128,0 -1.9563,0.1207 -2.744,0.3276 -0.1901,-0.4203 -0.2968,-0.8895 -0.2968,-1.3842 0,-0.0328 0.0007,-0.0658 0.0016,-0.0987 0.842,-0.2577 1.8966,-0.4112 3.0392,-0.4112z"/>
    <path id="_40403280" class="fil5" d="M110.086 16.709c-0.5738,0.7787 -1.4719,1.282 -2.4785,1.282 -1.1281,0 -2.1198,-0.6318 -2.6717,-1.5751 0.6056,-0.1041 1.2731,-0.1619 1.9738,-0.1619 1.2056,0 2.3133,0.1711 3.1764,0.455z"/>
    <path id="_40401800" class="fil5" d="M107.257 8.4094l-0.5031 1.1055 -0.7478 1.6438c0.4857,-0.2433 1.0286,-0.3796 1.6011,-0.3796 0.5412,0 1.056,0.1218 1.5212,0.3407l-0.7302 -1.6049 -0.503 -1.1055 1.1054 0.5029 1.807 0.822 0 -1.6441 0 -1.644 -1.807 0.8219 -1.1053 0.503 0.5029 -1.1055 0.822 -1.8069 -1.6441 0 -1.644 0 0.8218 1.8069 0.5031 1.1055 -1.1056 -0.503 -1.8068 -0.8219 0 1.644 0 1.6441 1.8068 -0.822 1.1056 -0.5029z"/>
    <path id="_40401104" class="fil5" d="M110.438 14.0681c-0.127,-0.8947 -0.6568,-1.6546 -1.3883,-2.0686l0 2.0686 1.3883 0z"/>
    <path id="_40400408" class="fil5" d="M106.76 11.7248l0 2.095 1.6629 0 0 -2.1046c-0.2583,-0.0859 -0.533,-0.1325 -0.8178,-0.1325 -0.295,0 -0.5788,0.0499 -0.8451,0.1421z"/>
    <path id="_40399712" class="fil5" d="M104.657 14.0681c0.1271,-0.8947 0.6568,-1.6546 1.3885,-2.0686l0 2.0686 -1.3885 0z"/>
    <path id="_40398712" class="fil5" d="M112.421 17.8623c-1.2354,2.6871 -2.2963,6.6576 -2.9526,11.2768 -0.0107,0.0002 -0.0212,0.0007 -0.0317,0.0015l-0.0356 -0.174 -0.0741 -0.2137 -0.1043 -0.2044 -0.1341 -0.1912 -0.0971 -0.1031c0.6593,-4.2974 1.6688,-7.9862 2.8346,-10.5324 0.1991,0.0563 0.3978,0.103 0.5949,0.1405z"/>
    <path id="_40398016" class="fil5" d="M103.39 17.7075c1.0856,2.7237 2.0673,6.3244 2.8018,10.4237l-0.0908 0.0964 -0.1393 0.1988 -0.1086 0.2127 -0.0772 0.2224 -0.0113 0.0554c-0.7694,-4.3077 -1.8124,-8.0663 -2.9617,-10.8386 0.2044,-0.1152 0.4005,-0.2391 0.5871,-0.3708z"/>
    <path id="_40397064" class="fil5" d="M107.478 19.2114c0.6219,0 1.1291,0.5072 1.1291,1.1291 0,0.6219 -0.5072,1.1293 -1.1291,1.1293 -0.622,0 -1.1291,-0.5074 -1.1291,-1.1293 0,-0.6219 0.5071,-1.1291 1.1291,-1.1291z"/>
    <path id="_40396112" class="fil5" d="M107.528 22.4439c0.5945,0 1.0794,0.4849 1.0794,1.0793 0,0.5944 -0.4849,1.0793 -1.0794,1.0793 -0.5944,0 -1.0793,-0.4849 -1.0793,-1.0793 0,-0.5944 0.4849,-1.0793 1.0793,-1.0793z"/>
    <path id="_40395160" class="fil5" d="M107.484 25.6763c0.3932,0 0.7142,0.3207 0.7142,0.7142 0,0.3932 -0.321,0.7142 -0.7142,0.7142 -0.3936,0 -0.7142,-0.321 -0.7142,-0.7142 0,-0.3935 0.3206,-0.7142 0.7142,-0.7142z"/>
    <path id="_40394464" class="fil5" d="M96.3283 38.0194c-1.3065,-0.3733 -2.5578,-2.6689 -0.913,-3.5306 -0.8509,1.1721 -0.2277,2.7727 0.913,3.5306z"/>
    <path id="_40392888" class="fil5" d="M100.581 33.53l-0.1255 -0.9349c-1.0634,0.1517 -2.0941,0.3733 -3.0851,0.6575 0.0511,0.1408 0.102,0.2819 0.1529,0.4235l0.1473 0.0622 0.3615 0.2479 0.3117 0.3133 0.2567 0.3693 0.196 0.418c0.0628,0.1929 0.1135,0.3769 0.1478,0.5775 0.0459,0.3592 0.0361,0.6825 -0.0386,1.0374l-0.0601 0.2162c-0.0043,0.0125 -0.0086,0.0247 -0.0131,0.0372 0.6189,-0.1544 1.2518,-0.284 1.8972,-0.3883l-0.1752 -0.1271 -0.1768 -0.1722 -0.1541 -0.1996 -0.1275 -0.2245c-0.1171,-0.2894 -0.2116,-0.5797 -0.2116,-0.8952l0.0424 -0.2921 0.0697 -0.2646 0.0995 -0.2458 0.1275 -0.2247 0.1541 -0.1995 0.1768 -0.1724 0.0265 -0.0191z"/>
    <path id="_40391936" class="fil5" d="M111.633 39.9247c-0.316,-0.0587 -0.618,-0.1457 -0.9018,-0.2575 0.0449,-0.5026 0.0956,-1.0125 0.1535,-1.5301l0.3996 0.0834 0.4611 0.0178 0.0534 -0.0068c-0.0631,0.5734 -0.1184,1.1382 -0.1658,1.6932z"/>
    <path id="_39904672" class="fil5" d="M103.002 39.9247c0.1953,-0.0587 0.382,-0.1457 0.5578,-0.2575 -0.0243,-0.4363 -0.0512,-0.8781 -0.0814,-1.3255l-0.024 0.0038 -0.4479 -0.0075 -0.1013 -0.0202c0.0368,0.5437 0.0689,1.0796 0.0968,1.6069z"/>
    <path id="_40390040" class="fil5" d="M98.5927 27.4186c-0.5094,-1.1957 -1.0317,-2.3312 -1.5606,-3.3973 -1.1206,0.2265 -2.1975,0.5339 -3.2195,0.9135 0.5471,1.0878 1.0869,2.2383 1.6134,3.443 1.0037,-0.3929 2.063,-0.7154 3.1667,-0.9592z"/>
    <path id="_40389088" class="fil5" d="M94.8644 29.6263c-1.2296,0.522 -2.3733,1.1463 -3.4125,1.8546 0.4055,0.964 0.8022,1.9654 1.1871,2.9999 1.0622,-0.6325 2.2171,-1.181 3.4465,-1.631 -0.3944,-1.1157 -0.8024,-2.1927 -1.2211,-3.2235z"/>
    <path id="_40387992" class="fil5" d="M101.825 39.8061l-0.5085 -2.4773c-0.8497,0.2108 -1.6649,0.4771 -2.4395,0.7923 0.8566,1.2653 1.5606,1.5166 2.948,1.685z"/>
    <path id="_40387296" class="fil5" d="M97.6763 19.1008l-0.4244 -1.3766 -0.3081 -0.8625 -2.9376 0.3266c0.4945,0.6474 0.9963,1.377 1.4993,2.1802 0.7086,-0.122 1.4332,-0.2121 2.1708,-0.2677z"/>
    <path id="_40386368" class="fil5" d="M99.9061 27.1694l-0.6212 -2.8529 -0.1891 -0.6138c-0.3827,0.0415 -0.7617,0.0916 -1.1363,0.151 0.5166,1.0666 1.0256,2.1987 1.5214,3.3875 0.1411,-0.0254 0.2828,-0.0493 0.4252,-0.0718z"/>
    <path id="_40385432" class="fil5" d="M98.8726 22.9793l-1.0095 -3.2728c-0.6772,0.0555 -1.3434,0.1397 -1.9959,0.2515 0.5839,0.9715 1.1681,2.0394 1.745,3.1908 0.4151,-0.0678 0.8352,-0.1242 1.2604,-0.1695z"/>
    <path id="_40384480" class="fil5" d="M96.6785 23.3213c-0.5921,-1.1519 -1.1908,-2.2141 -1.7875,-3.1736 -1.112,0.2418 -2.1792,0.564 -3.1905,0.9572 0.5892,0.9681 1.1792,2.0192 1.7626,3.1445 1.0199,-0.3845 2.0959,-0.6964 3.2154,-0.9281z"/>
    <path id="_40383528" class="fil5" d="M100.287 31.762c-0.4214,-1.1808 -0.859,-2.3226 -1.3081,-3.4187 -1.1031,0.2306 -2.1646,0.5377 -3.1759,0.9116 0.443,1.0484 0.875,2.1343 1.2924,3.2521 1.0215,-0.3185 2.0884,-0.569 3.1916,-0.745z"/>
    <path id="_40382832" class="fil5" d="M90.7586 21.4981c-1.2404,0.5567 -2.3833,1.2243 -3.4046,1.9841 0.5922,0.9228 1.1876,1.949 1.7779,3.0658 1.0332,-0.7438 2.1859,-1.3945 3.433,-1.9345 -0.5994,-1.149 -1.2047,-2.1932 -1.8063,-3.1154z"/>
    <path id="_40382136" class="fil5" d="M92.9133 25.2935c-1.2482,0.5328 -2.4028,1.1761 -3.4394,1.9124 0.5614,1.0998 1.1168,2.2789 1.6585,3.527 1.0133,-0.7531 2.1462,-1.4152 3.3751,-1.9685 -0.5203,-1.2324 -1.0538,-2.394 -1.5942,-3.4709z"/>
    <path id="_40380928" class="fil5" d="M88.7992 19.1047l-0.5124 0.2324c-0.9332,0.597 -1.776,1.3231 -2.5041,2.1524 0.3286,0.4256 0.6603,0.8879 0.9937,1.3839 1.0177,-0.761 2.1568,-1.4303 3.3933,-1.989 -0.4617,-0.6697 -0.92,-1.2657 -1.3705,-1.7797z"/>
    <path id="_40379976" class="fil5" d="M94.3551 19.3983c-0.4549,-0.6997 -0.9073,-1.3378 -1.3539,-1.9077 -1.1073,0.1526 -2.1662,0.461 -3.1532,0.903 0.4389,0.6021 0.8827,1.2576 1.3277,1.9632 1.0076,-0.3931 2.0712,-0.7156 3.1794,-0.9585z"/>
    <path id="_40379280" class="fil5" d="M86.9858 35.5345c0.1803,-0.3613 0.3812,-0.7153 0.6013,-1.0612 -0.6493,-1.1852 -1.3047,-2.2902 -1.9568,-3.3045 -0.5514,0.8684 -0.9813,1.788 -1.2728,2.7463 0.2017,0.4968 0.4353,0.9776 0.6983,1.4397 0.0009,-0.0008 0.0017,-0.0014 0.0027,-0.0022 0.1334,-0.0817 0.2498,-0.1372 0.3981,-0.189l0.2819 -0.052c0.3013,-0.0103 0.5302,0.0349 0.8094,0.1474l0.2438 0.131c0.0694,0.0471 0.1335,0.0949 0.1941,0.1445z"/>
    <path id="_40378328" class="fil5" d="M84.0971 33.2124c0.273,-0.9028 0.6689,-1.7712 1.1733,-2.595 -0.5873,-0.8845 -1.1707,-1.6919 -1.7436,-2.4141 -0.0364,0.3817 -0.0557,0.7681 -0.0557,1.1591 0,1.3446 0.2202,2.6391 0.626,3.85z"/>
    <path id="_40377376" class="fil5" d="M88.8093 27.7029c-1.0114,0.798 -1.8926,1.6903 -2.6184,2.6565 0.6421,1.0587 1.2868,2.1748 1.9297,3.3423 0.678,-0.9071 1.4927,-1.7496 2.4235,-2.5104 -0.569,-1.2562 -1.1501,-2.424 -1.7348,-3.4884z"/>
    <path id="_40376424" class="fil5" d="M86.5457 24.1251c-1.0014,0.8501 -1.8608,1.7964 -2.5503,2.8181 0.6061,0.8857 1.2206,1.8321 1.839,2.8334 0.7202,-0.9857 1.602,-1.8963 2.6174,-2.7111 -0.6373,-1.1122 -1.2766,-2.0991 -1.9061,-2.9404z"/>
    <path id="_39908912" class="fil5" d="M83.4813 26.2038c0.0466,0.0661 0.0935,0.1325 0.14,0.1993 0.6788,-1.0172 1.5255,-1.9608 2.513,-2.8096 -0.3156,-0.3922 -0.6279,-0.7465 -0.9357,-1.0602 -0.7724,1.1004 -1.3599,2.339 -1.7173,3.6705z"/>
    <path id="_40371856" class="fil5" d="M89.2628 33.2451c-0.3333,0.3366 -0.6493,0.6827 -0.9467,1.0369 0.2947,0.3972 0.5897,0.8028 0.8842,1.2168l0.0103 -0.0003c0.178,0.0234 0.3225,0.0577 0.4913,0.1165 0.2019,0.0962 0.3561,0.1922 0.5146,0.3507l0.3296 -0.2751 0.2157 -0.1256 0.2245 -0.0935 0.2299 -0.0593 0.0098 -0.001c0.2714,-0.1972 0.5509,-0.3884 0.8374,-0.5734 -0.3913,-1.0201 -0.7934,-2.0009 -1.2032,-2.9364 -0.5693,0.4225 -1.1025,0.8717 -1.5974,1.3437z"/>
    <path id="_40373424" class="fil5" d="M94.1398 34.5966c-0.405,0.2068 -0.7982,0.4256 -1.179,0.6557 0.3519,0.9849 0.693,2.0065 1.0207,3.0605 0.2248,-0.1177 0.4535,-0.2317 0.6855,-0.3419 -0.2856,-0.4279 -0.4982,-0.9342 -0.6053,-1.4926 -0.1266,-0.6606 -0.0896,-1.3077 0.0781,-1.8817z"/>
    <path id="_40373344" class="fil5" d="M93.5969 39.0074c-0.1206,-0.3232 -0.2425,-0.642 -0.3652,-0.9556 -0.1401,0.0958 -0.2785,0.1931 -0.4149,0.2919 -0.1015,0.1102 -0.2143,0.2072 -0.3525,0.2864l0.0493 0.0745 0.0985 0.1977 0.0703 0.2055 0.0402 0.2107 0.0073 0.2022c0.2819,-0.1775 0.5712,-0.3484 0.867,-0.5133z"/>
    <polygon id="_40372648" class="fil4" points="95.0383,40.4367 95.2223,39.1482 94.3632,39.5162 "/>
    <path id="_40370544" class="fil5" d="M89.6928 40.1634c0.6795,0.7243 1.6854,1.2355 2.8423,1.3528 2.0215,0.2048 3.8331,-0.8602 4.3213,-2.4407 0.0251,-0.0809 0.0466,-0.1631 0.0648,-0.2469 0.002,-0.0103 0.0044,-0.0207 0.0065,-0.0311 0.0026,-0.013 0.0051,-0.0259 0.0077,-0.039 0.0033,-0.0179 0.0065,-0.0359 0.0095,-0.0538 0.0013,-0.0074 0.0027,-0.0151 0.0038,-0.0226 0.004,-0.0238 0.0074,-0.0477 0.0107,-0.0719 0.0007,-0.0048 0.0011,-0.0094 0.0018,-0.0142 0.0032,-0.0234 0.0059,-0.0472 0.0084,-0.0708 0.0004,-0.0035 0.0008,-0.007 0.0013,-0.0105 0.0002,-0.0021 0.0003,-0.004 0.0005,-0.0061l0.353 -0.1427c0.2223,-0.0529 0.4063,-0.1253 0.6075,-0.2419 0.0042,-0.0027 0.0082,-0.0056 0.0123,-0.0083l0.1848 -0.0744c0.0507,0.113 0.1075,0.2234 0.1702,0.331 0.0008,0.0016 0.0017,0.003 0.0027,0.0046 0.0122,0.0214 0.025,0.0424 0.0379,0.0635 0.0003,0.0005 0.0005,0.0009 0.0008,0.0014 0.7657,1.2492 2.3231,2.1077 4.1128,2.1077 2.3424,0 4.2863,-1.47 4.5789,-3.362l1.2525 0c0.2924,1.892 2.2365,3.362 4.5787,3.362 1.7898,0 3.3472,-0.8585 4.1129,-2.1077 0.0003,-0.0005 0.0005,-0.0009 0.0008,-0.0014 0.0129,-0.0211 0.0257,-0.0421 0.0379,-0.0635 0.001,-0.0016 0.002,-0.003 0.0028,-0.0046 0.0626,-0.1076 0.1194,-0.218 0.1701,-0.331l1.1576 0.4673c0.0002,0.0021 0.0003,0.004 0.0005,0.0061 0.0005,0.0035 0.001,0.007 0.0013,0.0105 0.0025,0.0236 0.0052,0.0474 0.0084,0.0708 0.0007,0.0048 0.0011,0.0094 0.0018,0.0142 0.0033,0.0242 0.0067,0.0481 0.0107,0.0719 0.0011,0.0075 0.0024,0.0152 0.0038,0.0226 0.003,0.0179 0.0062,0.0359 0.0096,0.0538 0.0025,0.0131 0.0051,0.026 0.0076,0.039 0.0021,0.0104 0.0045,0.0208 0.0067,0.0311 0.018,0.0838 0.0396,0.166 0.0646,0.2469 0.4882,1.5805 2.2999,2.6455 4.3213,2.4407 1.1569,-0.1173 2.1629,-0.6285 2.8423,-1.3528l0.5704 0.7514c-0.6784,0.6325 -1.542,1.1346 -2.5357,1.4231 -2.5994,0.7548 -5.2297,-0.1995 -6.26,-2.1469 -1.0836,0.8462 -2.5643,1.3834 -4.2031,1.4164 -2.2426,0.0452 -4.2316,-0.8652 -5.3345,-2.2553l-0.4055 0c-1.103,1.3901 -3.092,2.3005 -5.3345,2.2553 -1.6389,-0.033 -3.1196,-0.5702 -4.2032,-1.4164 -1.0303,1.9474 -3.6606,2.9017 -6.26,2.1469 -0.9937,-0.2885 -1.8573,-0.7906 -2.5356,-1.4231l0.5703 -0.7514z"/>
    <path id="_40368968" class="fil5" d="M114.313 33.53l0.1256 -0.9349c1.0633,0.1517 2.0943,0.3733 3.0851,0.6575 -0.051,0.1408 -0.1022,0.2819 -0.1527,0.4235l-0.1475 0.0622 -0.3613 0.2479 -0.3119 0.3133 -0.2566 0.3693 -0.1963 0.418c-0.0625,0.1929 -0.1135,0.3769 -0.1478,0.5775 -0.0456,0.3592 -0.0359,0.6825 0.0386,1.0374l0.0603 0.2162c0.0044,0.0125 0.0086,0.0247 0.0131,0.0372 -0.6187,-0.1544 -1.2516,-0.284 -1.8972,-0.3883l0.1752 -0.1271 0.1767 -0.1722 0.154 -0.1996 0.1277 -0.2245c0.1169,-0.2894 0.2115,-0.5797 0.2115,-0.8952l-0.0421 -0.2921 -0.0699 -0.2646 -0.0995 -0.2458 -0.1277 -0.2247 -0.154 -0.1995 -0.1767 -0.1724 -0.0266 -0.0191z"/>
    <path id="_40368272" class="fil5" d="M113.605 39.7726l-0.5368 0.0335 0.5086 -2.4773c0.9183,0.2757 1.8006,0.6055 2.6409,0.9834l-0.5997 0.7558 -1.0569 0.5536 -0.9561 0.151z"/>
    <path id="_40367576" class="fil5" d="M117.535 18.7299l0.5167 -1.3445 0.3656 -0.8399 2.9087 0.5241c-0.537,0.6127 -1.0868,1.3068 -1.6431,2.0741 -0.6987,-0.1697 -1.4155,-0.3084 -2.1479,-0.4138z"/>
    <path id="_40366416" class="fil5" d="M114.766 26.6295l0.8126 -2.8045 0.2303 -0.5995c0.379,0.0671 0.7537,0.1427 1.1233,0.2274 -0.5874,1.0294 -1.1718,2.1245 -1.7466,3.2767 -0.1391,-0.0346 -0.2789,-0.0679 -0.4196,-0.1001z"/>
    <path id="_40365720" class="fil5" d="M116.08 22.5186l1.2281 -3.1968c0.6721,0.1011 1.331,0.2301 1.9745,0.3857 -0.6481,0.9299 -1.3032,1.9557 -1.9568,3.0656 -0.4093,-0.0956 -0.8247,-0.1805 -1.2458,-0.2545z"/>
    <path id="_40364768" class="fil5" d="M118.246 23.0082c0.6687,-1.1092 1.3376,-2.1287 1.9979,-3.0458 1.0931,0.3166 2.1362,0.7103 3.1184,1.1708 -0.6532,0.9259 -1.3127,1.9349 -1.971,3.0181 -0.9916,-0.4525 -2.044,-0.8363 -3.1453,-1.1431z"/>
    <path id="_40364072" class="fil5" d="M114.076 31.1859c0.5002,-1.1497 1.0136,-2.2593 1.5358,-3.3225 1.0853,0.3044 2.1236,0.6827 3.107,1.1241 -0.5125,1.016 -1.0169,2.07 -1.5088,3.1572 -0.9978,-0.3867 -2.0453,-0.7086 -3.134,-0.9588z"/>
    <path id="_40363376" class="fil5" d="M124.276 21.589c1.2001,0.6393 2.2952,1.3825 3.2631,2.2097 -0.6533,0.8805 -1.3165,1.8644 -1.9811,2.9386 -0.9805,-0.8119 -2.0866,-1.5389 -3.2945,-2.1619 0.6755,-1.1059 1.35,-2.107 2.0125,-2.9864z"/>
    <path id="_40362168" class="fil5" d="M126.392 19.3336l0.4955 0.2663c0.8907,0.6588 1.6826,1.4401 2.3531,2.3166 -0.3567,0.4027 -0.7188,0.8413 -1.0849,1.3136 -0.9639,-0.828 -2.0552,-1.5727 -3.2513,-2.2135 0.506,-0.637 1.0035,-1.2007 1.4876,-1.683z"/>
    <path id="_40361216" class="fil5" d="M120.829 19.2511c0.501,-0.6673 0.9957,-1.2734 1.4796,-1.812 1.0946,0.2271 2.1303,0.6064 3.0853,1.1141 -0.4789,0.571 -0.9657,1.1949 -1.4573,1.8691 -0.979,-0.4603 -2.0183,-0.8539 -3.1076,-1.1712z"/>
    <path id="_40360264" class="fil5" d="M115.899 27.2077c0.5888,-1.1584 1.1865,-2.2561 1.7863,-3.2841 1.1028,0.3018 2.1565,0.6813 3.1505,1.1288 -0.6193,1.0484 -1.2358,2.1598 -1.8425,3.3262 -0.9747,-0.4599 -2.0097,-0.853 -3.0943,-1.1709z"/>
    <path id="_40359312" class="fil5" d="M121.709 25.4711c1.2093,0.6159 2.3177,1.3357 3.3024,2.1405 -0.6346,1.0591 -1.2682,2.1982 -1.893,3.4067 -0.96,-0.8197 -2.0458,-1.5569 -3.2343,-2.1918 0.6022,-1.1945 1.2131,-2.3174 1.8249,-3.3554z"/>
    <path id="_40358360" class="fil5" d="M125.641 28.1521c0.9555,0.8646 1.7739,1.8143 2.433,2.8275 -0.712,1.0128 -1.4306,2.0829 -2.1511,3.2045 -0.6151,-0.951 -1.3709,-1.8468 -2.2482,-2.6688 0.6524,-1.2147 1.311,-2.3404 1.9663,-3.3632z"/>
    <path id="_40357408" class="fil5" d="M131.219 26.7756c-0.051,0.0626 -0.1022,0.1259 -0.1532,0.1892 -0.6085,-1.0603 -1.3897,-2.0591 -2.3174,-2.9726 0.3411,-0.3701 0.6769,-0.7026 1.0051,-0.9949 0.6965,1.1502 1.1989,2.4258 1.4655,3.7783z"/>
    <path id="_40356456" class="fil5" d="M119.706 29.4115c1.1429,0.6915 2.1866,1.4719 3.1144,2.3207 -0.5383,0.8966 -1.0733,1.8313 -1.6012,2.8006 -0.9615,-0.777 -2.0268,-1.4839 -3.1797,-2.1038 0.5487,-1.0486 1.1058,-2.0565 1.6665,-3.0175z"/>
    <path id="_40354984" class="fil5" d="M124.738 33.7893c0.2819,0.3808 0.5455,0.7682 0.7896,1.1611 -0.0639,0.0644 -0.1278,0.129 -0.1921,0.1941 -0.051,-0.0042 -0.1029,-0.0067 -0.1569,-0.0083 -0.1737,0.0105 -0.3202,0.0327 -0.4881,0.0751 -0.2124,0.078 -0.3722,0.1583 -0.5407,0.3109l-0.1703 -0.0797 -0.1966 -0.062 -0.2051 -0.0348 -0.2114 -0.0059 -0.2137 0.0244 -0.212 0.0558 -0.2051 0.0872 -0.191 0.114 -0.1376 -0.0441c-0.2158,-0.207 -0.4385,-0.4098 -0.6677,-0.609 0.5325,-0.9541 1.0698,-1.868 1.6083,-2.7359 0.5035,0.4993 0.9677,1.0197 1.3904,1.5571z"/>
    <path id="_40354288" class="fil5" d="M121.723 36.0004c0.0881,0.0797 0.175,0.1601 0.2607,0.2414l-0.0522 0.114c-0.1121,0.2488 -0.1468,0.4873 -0.1602,0.7576l0.0197 0.2212c0.0568,0.2361 0.1235,0.4499 0.2783,0.6429 -0.151,0.19 -0.1974,0.3957 -0.2259,0.6317l0.0074 0.1907 0.0906 0.3532c0.0785,0.17 0.1587,0.3051 0.2692,0.4565l0.2478 0.2609c0.1497,0.1236 0.2932,0.2239 0.4598,0.3235 0.0769,0.0383 0.1512,0.0724 0.2261,0.104 -0.077,0.1145 -0.154,0.2295 -0.2312,0.3452 -0.2709,0.0361 -0.5533,0.0464 -0.8424,0.0278 -0.4806,-0.0311 -0.9332,-0.1392 -1.3383,-0.3067 -0.3058,-0.3442 -0.6316,-0.6781 -0.9758,-1.0007 0.6525,-1.2145 1.3112,-2.3406 1.9664,-3.3632z"/>
    <path id="_40353592" class="fil5" d="M127.087 35.8379c-0.1545,-0.3691 -0.3296,-0.7325 -0.524,-1.089 0.7279,-1.1387 1.4565,-2.1968 2.1756,-3.1647 0.4914,0.9033 0.8582,1.85 1.0843,2.826 -0.1426,0.2926 -0.2965,0.5785 -0.461,0.8571 -0.2315,-0.1306 -0.5004,-0.1868 -0.7646,-0.2069 -0.1797,0.0034 -0.3305,0.0219 -0.5067,0.0605 -0.1815,0.0595 -0.3269,0.1247 -0.4926,0.22 -0.1652,0.1188 -0.2911,0.2322 -0.4289,0.3821 -0.029,0.0389 -0.0563,0.0771 -0.0821,0.1149z"/>
    <path id="_40352640" class="fil5" d="M130.131 33.7266c-0.2114,-0.9192 -0.5477,-1.8123 -0.9953,-2.6683 0.6457,-0.8428 1.2824,-1.609 1.9028,-2.291 0.0105,0.3835 0.0037,0.7703 -0.0228,1.1603 -0.0907,1.3415 -0.3982,2.6183 -0.8847,3.799z"/>
    <path id="_40351688" class="fil5" d="M128.302 24.4946c0.9417,0.9157 1.7352,1.9181 2.3542,2.984 -0.6646,0.8427 -1.3418,1.7455 -2.0262,2.7026 -0.6522,-1.0322 -1.4703,-2.0001 -2.4285,-2.8817 0.711,-1.0667 1.4155,-2.0081 2.1005,-2.8049z"/>
    <path id="_40351008" class="fil5" d="M116.628 16.3272l1.0039 0.1713c-2.1365,4.6844 -3.9653,9.9435 -5.2134,15.1316l-0.0259 -0.0292 -0.2778 -0.1977 -0.31 -0.1293c1.2201,-5.1207 2.8128,-10.2511 4.8232,-14.9467z"/>
    <path id="_40332192" class="fil5" d="M107.566 33.0794c0.8292,0 1.5054,0.8642 1.5054,1.9235 0,1.0594 -0.6762,1.9233 -1.5054,1.9233 -0.829,0 -1.5051,-0.8639 -1.5051,-1.9233 0,-1.0593 0.6761,-1.9235 1.5051,-1.9235z"/>
    <path id="_40331496" class="fil5" d="M100.501 34.9925l0.0003 0c0.1042,-1.1944 1.1634,-1.4912 1.8701,-0.9931l0.0611 -0.0768c-1.6248,-1.4662 1.8251,-2.9003 3.1006,0.0575l-0.009 0.0402c-1.459,0.6364 -2.3588,0.7203 -3.9514,0.8852 1.5357,-0.0405 2.2839,0.1052 3.9514,0.8849l0.0351 0.1564c-1.2539,3.0394 -4.7629,1.5957 -3.1267,0.1195l-0.0611 -0.0767c-0.7067,0.4981 -1.7659,0.2012 -1.8701,-0.9933l-0.0003 0c0,-0.0006 0.0002,-0.0012 0.0002,-0.0019 0,-0.0004 -0.0002,-0.0012 -0.0002,-0.0019z"/>
    <path id="_40330800" class="fil5" d="M107.409 28.0675l0 0.0004c1.1793,0.1062 1.4722,1.1894 0.9804,1.912l0.0759 0.0624c1.4476,-1.6615 2.8635,1.8662 -0.0567,3.1704l-0.0397 -0.0091c-0.6284,-1.4918 -0.7114,-2.412 -0.8738,-4.0402 0.0398,1.5701 -0.1042,2.3352 -0.8738,4.0402l-0.1545 0.0359c-3.0008,-1.2822 -1.5756,-4.8702 -0.118,-3.1972l0.076 -0.0624c-0.4919,-0.7226 -0.199,-1.8058 0.9803,-1.912l0 -0.0004c0.0007,0.0001 0.0013,0.0001 0.0019,0.0001 0.0005,0 0.0013,0 0.002,-0.0001z"/>
    <path id="_40330104" class="fil5" d="M114.515 34.89l-0.0003 0c-0.1046,-1.1109 -1.1693,-1.3868 -1.8792,-0.9236l-0.0613 -0.0714c1.6409,-1.5966 -2.0796,-2.9878 -3.3221,-0.2065 1.0569,0.6139 1.8348,0.7651 2.9974,1.0398 -1.3241,-0.0815 -1.7958,0.2535 -2.8609,1.2651 1.1798,2.8225 4.8703,1.44 3.1856,-0.1046l0.0613 -0.0716c0.7099,0.4634 1.7746,0.1874 1.8792,-0.9235l0.0003 0c0,-0.0007 -0.0001,-0.0013 -0.0001,-0.0018 0,-0.0006 0.0001,-0.0013 0.0001,-0.0019z"/>
    <path id="_40329152" class="fil5" d="M107.532 31.9624c0.0576,0.2968 0.125,0.497 0.2444,0.7761 -0.1012,-0.022 -0.2052,-0.0335 -0.3112,-0.0335 -0.0574,0 -0.1142,0.0035 -0.1701,0.01 0.0889,-0.2521 0.1667,-0.4952 0.2369,-0.7526z"/>
    <path id="_40328200" class="fil5" d="M104.602 34.8437c0.3734,0.0976 0.7429,0.2005 1.1139,0.3095 -0.0057,-0.0492 -0.0075,-0.0993 -0.0049,-0.1503 0,-0.1859 0.0169,-0.3668 0.0488,-0.5406 -0.3956,0.1577 -0.7461,0.2767 -1.1578,0.3814z"/>
    <path id="_40327272" class="fil5" d="M110.311 34.8425c-0.3374,0.1176 -0.5455,0.2112 -0.851,0.4378 0.0512,-0.3471 0.0485,-0.4936 -0.0368,-0.8363 0.3041,0.1646 0.5735,0.2856 0.8878,0.3985z"/>
    <path id="_40326320" class="fil5" d="M96.4841 34.127c0.8178,-0.1567 1.6416,0.5326 1.8337,1.5349 0.1923,1.002 -0.3178,1.9474 -1.1356,2.1041 -0.8178,0.1571 -1.6416,-0.5324 -1.8337,-1.5345 -0.1923,-1.0024 0.3178,-1.9476 1.1356,-2.1045z"/>
    <path id="_40325624" class="fil5" d="M119.135 34.09c-0.8666,-0.2609 -1.834,0.3924 -2.1537,1.4544 -0.3197,1.0619 0.1261,2.1408 0.9926,2.4017 0.8665,0.2608 1.834,-0.3924 2.1537,-1.4544 0.3197,-1.062 -0.1261,-2.1408 -0.9926,-2.4017z"/>
    <path id="_40324928" class="fil5" d="M86.7157 38.9572c0.3733,-0.4084 1.182,-0.2807 1.8004,0.2846 0.618,0.5651 0.8176,1.3592 0.4442,1.7677 -0.3734,0.4085 -1.182,0.2806 -1.8004,-0.2845 -0.6182,-0.5652 -0.8177,-1.3593 -0.4442,-1.7678z"/>
    <path id="_40341128" class="fil5" d="M90.4497 36.6269l-0.1865 0.4832 -0.303 0.0025c0.2862,-1.2935 -2.3125,-1.6843 -2.033,0.9896 0.9518,0.4527 2.0679,0.4008 2.9591,-0.237 -0.7899,0.7911 -0.8969,1.0213 -1.3327,1.9581 1.0676,1.4832 3.7711,0.0915 1.9375,-1.3394l-0.0559 -0.1414c2.5233,-0.3687 0.5502,-3.6901 -0.9855,-1.7156z"/>
    <path id="_40340632" class="fil5" d="M86.1906 38.3423l0.9129 0.074c0.1795,-0.7977 0.1742,-0.9741 -0.0123,-1.7762 -0.5554,-1.1557 -1.9882,-1.332 -2.1215,0.1357l-0.0987 0.0246c-0.9086,-1.3377 -2.463,-0.2483 -1.8009,1.1595 0.7135,-0.0822 1.1198,-0.1443 1.7514,-0.4688 0.2626,0.4161 0.4337,0.4303 0.9127,0.5058l0.2716 0.222 0.1848 0.1234z"/>
    <polygon id="_40339936" class="fil5" points="84.3899,38.404 85.9811,39.2673 85.9933,38.9344 85.6357,38.6013 85.0436,38.1079 84.4639,38.0339 "/>
    <path id="_40339008" class="fil4" d="M89.402 39.5416c0.242,-0.4266 0.4581,-0.7316 0.7609,-1.1151 -0.5512,0.2553 -0.7447,0.2731 -1.3275,0.3007 0.3115,0.2893 0.402,0.4176 0.5666,0.8144z"/>
    <path id="_40338312" class="fil5" d="M122.551 36.4852l0.0002 0.0001c0.5582,-0.8145 1.4379,-0.5984 1.7431,0.0448l0.1491 -0.0303c-0.3226,-1.1236 2.5232,-1.1917 2.1262,1.2965l-0.0228 0.0252c-0.2627,0.5852 -2.0189,-0.2307 -3.062,-0.5938 0.7633,0.5454 1.0753,0.8714 1.5285,1.7704l0.0362 0.7389c-2.0577,0.8082 -3.6582,-1.609 -1.6966,-1.6999l0.0244 -0.0984c-0.6716,0.0772 -1.2876,-0.5604 -0.8277,-1.4505l-0.0002 -0.0002c0.0002,-0.0005 0.0007,-0.0009 0.0008,-0.0012 0.0002,-0.0005 0.0005,-0.0012 0.0008,-0.0016z"/>
    <polygon id="_40337616" class="fil5" points="124.646,38.1159 125.7,38.6878 125.708,38.4673 125.47,38.2466 125.08,37.9199 124.695,37.8708 "/>
    <path id="_40336920" class="fil5" d="M107.613 43.1441l2.071 1.2343 2.0708 1.2343 -2.0708 1.2344 -2.071 1.2345 -2.071 -1.2345 -2.071 -1.2344 2.071 -1.2343 2.071 -1.2343zm0 0.6102l1.5591 0.9295 1.5592 0.9289 -1.5592 0.9292 -1.5591 0.9294 -1.559 -0.9294 -1.5593 -0.9292 1.5593 -0.9289 1.559 -0.9295z"/>
    <path id="_40335808" class="fil5" d="M105.687 47.5401c-5.8715,0.1616 -10.9153,0.9996 -13.7624,2.1826l0.4446 -0.3834 2.0829 -1.7969 -2.0931 -1.4802 -0.5369 -0.3795c2.891,-1.2324 8.1514,-2.0995 14.264,-2.235l-1.0527 0.6274 -2.5799 1.5376 2.5799 1.5376 0.6536 0.3898zm-9.3902 -2.6254l3.1966 -0.3722c0.8283,-0.0965 1.5849,0.5023 1.6814,1.3308l0 0c0.0965,0.8282 -0.5024,1.585 -1.3306,1.6813l-3.1966 0.3723c-0.8283,0.0965 -1.5849,-0.5025 -1.6814,-1.3308l0 0c-0.0963,-0.8282 0.5026,-1.585 1.3306,-1.6814z"/>
    <path id="_40334296" class="fil5" d="M109.129 43.4411c6.8034,0.1223 12.5926,1.1503 15.3056,2.5856l-1.2206 0.4819 -2.3131 0.9135 1.6532 1.912c-3.0052,-0.9941 -7.6753,-1.6757 -13.0024,-1.8014l0.6411 -0.3824 2.58 -1.5376 -2.58 -1.5376 -1.0638 -0.634zm9.2309 1.4294l-3.1966 -0.3723c-0.8282,-0.0963 -1.585,0.5024 -1.6814,1.3308l0 0c-0.0965,0.8283 0.5024,1.5851 1.3308,1.6812l3.1964 0.3725c0.8283,0.0963 1.5849,-0.5024 1.6814,-1.3309l0 0c0.0965,-0.8281 -0.5024,-1.585 -1.3306,-1.6813z"/>
    <polygon id="_40333600" class="fil5" points="124.737,46.5398 124.428,46.6621 122.114,47.5755 123.844,49.5761 124.059,49.8249 124.209,49.1027 123.047,47.7588 124.614,47.1398 "/>
    <polygon id="_40332904" class="fil5" points="90.8768,45.7717 91.5945,46.2793 93.4537,47.5938 91.6036,49.1896 90.9192,49.7799 90.9093,48.8437 92.3582,47.5938 90.8851,46.5521 "/>
    <path id="_40323336" class="fil5" d="M108.526 42.1988l-0.0001 0c0.0325,0.0611 0.0642,0.1203 0.0955,0.1723 0.1229,0.1844 0.2714,0.2744 0.4331,0.3122 -0.2818,0.0585 -0.6238,0.08 -0.8855,-0.0458 -0.1255,-0.0541 -0.2302,-0.1583 -0.3543,-0.4028 0.0002,0 0.0002,0 0.0003,0 -0.0268,-0.0548 -0.0528,-0.1079 -0.0787,-0.1545 -0.1483,-0.1768 -0.2998,-0.2691 -0.4698,-0.3125 0.5611,-0.0872 0.9637,-0.1183 1.2595,0.4311zm-0.2809 -0.4083c0.1787,-0.0301 0.3587,-0.0577 0.6179,-0.0415 0.2438,0.0536 0.4587,0.1789 0.636,0.4612l-0.0003 0c0.0314,0.061 0.062,0.1202 0.0923,0.1722 0.121,0.2151 0.277,0.309 0.4462,0.3444 -0.5492,0.0619 -1.0621,0.0462 -1.323,-0.5256 0,0 0.0001,0 0.0001,0 -0.0322,-0.0609 -0.0641,-0.1202 -0.0953,-0.172 -0.1113,-0.1218 -0.2352,-0.1976 -0.3739,-0.2387zm0.8813 0.0132c0.7287,-0.1519 1.126,-0.0386 1.5173,0.6496 0.1163,0.1628 0.2453,0.2448 0.3854,0.2812 -0.5729,0.139 -1.0686,0.0446 -1.3485,-0.5219 0,0 0,0 0.0002,0 -0.0313,-0.061 -0.0619,-0.1203 -0.0922,-0.1721 -0.1738,-0.1488 -0.2494,-0.2151 -0.4622,-0.2368zm1.0127 0.0192c0.201,-0.0316 0.3634,-0.0461 0.5679,-0.0275 0.2826,0.0475 0.5307,0.1735 0.7225,0.5144l-0.0001 0c0.0312,0.0611 0.0618,0.1203 0.0921,0.1722 0.0957,0.1714 0.2113,0.2705 0.3376,0.3263 -0.3127,0.0572 -0.5012,0.0218 -0.7772,-0.1006 -0.1255,-0.0536 -0.231,-0.1592 -0.3607,-0.4066 0.0002,0 0.0002,0 0.0003,0 -0.0258,-0.0559 -0.0507,-0.1102 -0.0755,-0.1577 -0.164,-0.1826 -0.3263,-0.2772 -0.5069,-0.3205zm1.0187 0.0237c0.6466,-0.0958 1.0782,0.0668 1.3748,0.7034 0.0812,0.1752 0.1813,0.2706 0.2907,0.3214 -0.2829,0.0418 -0.5232,0.007 -0.7869,-0.0974 -0.1486,-0.0754 -0.2698,-0.1968 -0.4253,-0.4618 0,0 0.0002,0 0.0004,0 -0.0315,-0.0609 -0.0621,-0.1202 -0.0924,-0.172 -0.1041,-0.1474 -0.2248,-0.2395 -0.3613,-0.2936zm0.9515 0.0525c0.6622,-0.0308 1.0857,-0.0255 1.404,0.7268 0.1221,0.1811 0.2214,0.2776 0.3174,0.327 -0.2891,0.0043 -0.6824,0.0313 -0.9277,-0.1513 -0.1177,-0.101 -0.1644,-0.1571 -0.2991,-0.4079 0,0 0,0 0.0001,0 -0.0234,-0.0574 -0.0465,-0.1131 -0.0693,-0.1618 -0.1379,-0.1774 -0.2754,-0.2781 -0.4254,-0.3328zm0.9994 0.0827c0.7225,-0.0663 1.0703,0.1268 1.3107,0.7332 0.104,0.1625 0.2295,0.2511 0.3712,0.2966 -0.7365,0.0512 -0.9294,0.006 -1.2089,-0.5452 0,0 0.0001,0 0.0001,0 -0.0225,-0.0584 -0.0446,-0.115 -0.0665,-0.1649 -0.1355,-0.1672 -0.2663,-0.2653 -0.4066,-0.3197zm0.8679 0.0605c0.6699,-0.0287 1.1149,0.0749 1.383,0.769 0.105,0.1784 0.2229,0.2746 0.3536,0.3264 -0.2997,0.0217 -0.6126,-0.0185 -0.8833,-0.1529 -0.1201,-0.0596 -0.2147,-0.1676 -0.3151,-0.4101 0.0001,0 0.0001,0 0.0003,0 -0.0211,-0.0569 -0.0418,-0.1126 -0.063,-0.1614 -0.1401,-0.2058 -0.2939,-0.3141 -0.4755,-0.371zm0.922 0.1022c0.6598,-0.0289 1.1205,0.073 1.3566,0.7717 0.1037,0.2009 0.2274,0.3014 0.3663,0.3526 -0.3089,0.0108 -0.6433,-0.0292 -0.914,-0.1875 -0.1019,-0.0597 -0.1818,-0.1675 -0.2669,-0.4102 0,0 0,0 0.0001,0 -0.0178,-0.0569 -0.0354,-0.1125 -0.0536,-0.1613 -0.1569,-0.199 -0.3114,-0.307 -0.4885,-0.3653zm0.9712 0.143c0.6613,-0.0668 1.1119,0.1087 1.3432,0.7812 0.078,0.1798 0.166,0.2734 0.2697,0.3284 -0.2323,0.0035 -0.4243,-0.0134 -0.6399,-0.0878 -0.093,-0.0458 -0.1655,-0.0753 -0.24,-0.1233 -0.1016,-0.0595 -0.1818,-0.1674 -0.2669,-0.4099 0,0 0.0002,0 0.0002,0 -0.0179,-0.057 -0.0354,-0.1126 -0.0533,-0.1616 -0.1287,-0.177 -0.2612,-0.2753 -0.413,-0.327zm0.9078 0.0918c0.6105,-0.0106 0.9597,0.1386 1.1334,0.7965 0.0894,0.1906 0.1872,0.284 0.3029,0.3368 -0.2171,0.0056 -0.4885,-0.0225 -0.6735,-0.1496 -0.0973,-0.0668 -0.1692,-0.1802 -0.2366,-0.4283 0,0 0.0001,0 0.0001,0 -0.0137,-0.058 -0.0272,-0.1148 -0.0416,-0.1649 -0.146,-0.213 -0.3004,-0.3271 -0.4847,-0.3905zm0.7411 0.0992c0.6372,0.0072 0.9738,0.1166 1.1468,0.8177 0.0864,0.2121 0.1877,0.2988 0.3119,0.343 -0.2424,0.0089 -0.5423,-0.0506 -0.7389,-0.169 -0.0971,-0.0668 -0.1692,-0.1804 -0.2366,-0.4285 0.0001,0 0.0001,0.0002 0.0001,0.0002 -0.0137,-0.0582 -0.0271,-0.115 -0.0414,-0.1651 -0.1246,-0.2221 -0.2671,-0.3366 -0.4419,-0.3983zm0.8112 0.1329c0.1755,0.0146 0.3233,0.0277 0.4936,0.0725 0.4211,0.0856 0.3885,0.539 0.4592,0.7086 0.1243,0.2232 0.3081,0.3382 0.5207,0.41 -0.2547,-0.0129 -0.6165,-0.0531 -0.8325,-0.2119 -0.0908,-0.0669 -0.1579,-0.1804 -0.2207,-0.4285 0,0 0,0.0002 0.0001,0.0002 -0.0127,-0.0582 -0.0253,-0.1148 -0.0387,-0.1649 -0.1089,-0.2084 -0.2325,-0.3219 -0.3817,-0.386zm-10.2239 0.0805c-0.2844,0.0371 -0.6003,0.1036 -0.9191,-0.068 -0.1253,-0.0473 -0.2302,-0.1452 -0.3541,-0.3764 0,0 0,0 0.0002,0 -0.0267,-0.0549 -0.0528,-0.108 -0.079,-0.1547 -0.1648,-0.1889 -0.3331,-0.2774 -0.5257,-0.3108 0.1996,-0.0215 0.3089,-0.0575 0.6016,-0.062 0.4594,0.0282 0.6528,0.243 0.904,0.6637 0.0971,0.1918 0.2283,0.276 0.3721,0.3082zm-1.0225 0.0022c-0.2902,0.0427 -0.514,0.0392 -0.7962,-0.0421 -0.1319,-0.0494 -0.2419,-0.1524 -0.3722,-0.3954 0,0 0.0002,0 0.0002,0 -0.0282,-0.0574 -0.0556,-0.1132 -0.0828,-0.1624 -0.1404,-0.1626 -0.2847,-0.2497 -0.4451,-0.2895 0.6153,-0.0636 1.0345,-0.051 1.3642,0.5917 0.0881,0.1737 0.2041,0.2591 0.3319,0.2977zm-0.9319 0.0145c-0.2883,0.0274 -0.4656,0.0475 -0.7496,-0.0408 -0.1331,-0.0482 -0.2443,-0.1483 -0.376,-0.3843 0,0 0.0002,0 0.0002,0 -0.0284,-0.056 -0.0561,-0.1102 -0.0837,-0.1577 -0.1464,-0.1598 -0.2958,-0.2454 -0.4616,-0.2851 0.2192,-0.0347 0.2489,-0.0437 0.4696,-0.0457 0.368,0.0366 0.6489,0.2007 0.8795,0.618 0.0866,0.166 0.1982,0.2532 0.3216,0.2956zm-0.8467 0.0241c-0.2773,0.0242 -0.5252,0.0651 -0.7995,-0.0171 -0.1373,-0.0497 -0.2519,-0.1526 -0.3878,-0.3956 0.0002,0 0.0002,0 0.0003,0 -0.0295,-0.0574 -0.058,-0.1133 -0.0864,-0.1621 -0.1398,-0.1518 -0.2838,-0.2336 -0.4431,-0.27 0.1585,-0.0121 0.2605,-0.0367 0.4777,-0.0349 0.4031,0.0185 0.6356,0.2039 0.8738,0.5825 0.0963,0.1789 0.2242,0.2624 0.365,0.2972zm-0.8987 0.0364c-0.2922,0.0333 -0.5252,0.0837 -0.8156,-0.0059 -0.1371,-0.0482 -0.2519,-0.1483 -0.3876,-0.3845 0,0 0,0 0.0002,0 -0.0292,-0.0558 -0.0581,-0.11 -0.0865,-0.1577 -0.1503,-0.1588 -0.3053,-0.2387 -0.4794,-0.2696 0.1808,-0.0357 0.2226,-0.0522 0.4495,-0.0678 0.4777,0.0329 0.6869,0.1921 0.9422,0.593 0.099,0.1804 0.2315,0.262 0.3772,0.2925zm-0.9009 0.0486c-0.364,0.0223 -0.5668,0.0805 -0.8494,-0.0148 -0.143,-0.0482 -0.2624,-0.1483 -0.4037,-0.3845 0,0 0,0 0.0001,0 -0.0304,-0.0558 -0.0601,-0.11 -0.0899,-0.1575 -0.1341,-0.1376 -0.2743,-0.2088 -0.43,-0.236 0.1591,-0.014 0.3192,-0.0276 0.4802,-0.0407 0.3786,0.0169 0.6677,0.1622 0.9016,0.5466 0.102,0.181 0.2398,0.2595 0.3911,0.2869zm-0.7786 0.0521c-0.3369,0.0442 -0.6325,0.1174 -0.9687,0.0133 -0.1349,-0.0482 -0.2478,-0.1483 -0.3811,-0.3843 0,0 0,0 0.0002,0 -0.0289,-0.0561 -0.0569,-0.1102 -0.0848,-0.1579 -0.126,-0.1368 -0.2577,-0.2079 -0.4041,-0.2355 0.5552,-0.0797 0.9976,-0.0976 1.2715,0.465 0.1413,0.2404 0.3482,0.3005 0.567,0.2994zm-0.9709 0.078c-0.3053,0.0518 -0.5315,0.1072 -0.8398,0.0289 -0.1418,-0.046 -0.2601,-0.141 -0.4001,-0.3653 0,0 0,0 0,0 -0.0301,-0.0533 -0.0596,-0.1046 -0.089,-0.1499 -0.1821,-0.1789 -0.3752,-0.2397 -0.6043,-0.2368 0.5997,-0.1022 1.0793,-0.2 1.467,0.426 0.1184,0.2134 0.2857,0.2845 0.4662,0.2971zm-0.8947 0.0855c-0.3031,0.0465 -0.5322,0.0816 -0.843,0.0395 -0.1418,-0.0459 -0.2602,-0.1409 -0.4002,-0.3655 0,0 0,0 0.0001,0 -0.0301,-0.0529 -0.0596,-0.1044 -0.0891,-0.1497 -0.152,-0.1357 -0.3114,-0.1934 -0.4927,-0.1999 0.472,-0.1376 1.0359,-0.2287 1.388,0.3981 0.1127,0.1839 0.2677,0.2566 0.4369,0.2775zm-0.8629 0.0778c-0.2592,0.052 -0.5983,0.1204 -0.856,0.0649 -0.1553,-0.0378 -0.2896,-0.1303 -0.4573,-0.3596 0,0 0,0 0.0002,0 -0.0366,-0.0545 -0.0721,-0.1075 -0.1072,-0.1534 -0.1467,-0.1244 -0.2945,-0.1859 -0.4543,-0.2044 0.5297,-0.1925 1.0744,-0.1478 1.4026,0.3934 0.124,0.1813 0.2907,0.2471 0.472,0.2591zm-0.8941 0.1306c-0.3186,0.073 -0.5731,0.1451 -0.8781,0.0807 -0.1619,-0.0396 -0.3017,-0.1359 -0.4763,-0.3749 0,0 0,0 0.0002,0 -0.0383,-0.0566 -0.0753,-0.1116 -0.1118,-0.1598 -0.1263,-0.103 -0.2539,-0.161 -0.3888,-0.1856 0.1156,-0.025 0.232,-0.0497 0.3492,-0.0741 0.414,-0.0388 0.7375,0.0712 0.9997,0.4504 0.1392,0.1934 0.3169,0.2574 0.5059,0.2633zm-0.9199 0.1277c-0.5094,0.1054 -0.9851,0.3007 -1.3826,-0.2465 0.0001,0 0.0001,0 0.0001,0 -0.0395,-0.0558 -0.0781,-0.1099 -0.1156,-0.1568 -0.0813,-0.0518 -0.1605,-0.1006 -0.2461,-0.1263 -0.1026,-0.0309 -0.2118,-0.0325 -0.3252,-0.0253 0.3436,-0.1 0.74,-0.2462 1.0963,-0.1088 0.1722,0.0669 0.3146,0.2123 0.4482,0.4108 0.1553,0.1697 0.3336,0.2381 0.5249,0.2529zm-0.9789 0.1614c-0.3202,0.0704 -0.5968,0.1516 -0.9133,0.1342 -0.1915,-0.0373 -0.3428,-0.1256 -0.5056,-0.3489 0,0 0,0 0.0001,0 -0.045,-0.0513 -0.0893,-0.1009 -0.1315,-0.1438 -0.1687,-0.1016 -0.3376,-0.1496 -0.5202,-0.1472 0.5372,-0.1814 0.9389,-0.367 1.4652,0.112l-0.0001 0c0.0394,0.0558 0.0781,0.1098 0.1157,0.1569 0.1482,0.1535 0.3135,0.2197 0.4897,0.2368zm-1.0184 0.1945c-0.4104,0.1043 -0.4973,0.1693 -0.8837,0.1268 -0.1974,-0.0303 -0.3557,-0.1129 -0.5326,-0.33 0.0002,0 0.0002,-0.0001 0.0004,-0.0001 -0.0472,-0.0494 -0.093,-0.0976 -0.1369,-0.1387 -0.1449,-0.0802 -0.2884,-0.1228 -0.4388,-0.1289 0.1319,-0.0343 0.2658,-0.0682 0.4012,-0.1015 -0.0182,0.0076 -0.0367,0.0156 -0.0552,0.0239 0.3869,-0.1242 0.709,-0.1156 1.0462,0.1747l-0.0001 0.0002c0.0451,0.051 0.0892,0.1009 0.1317,0.1437 0.1465,0.1527 0.305,0.216 0.4678,0.2299zm-0.899 0.1902c-0.1692,0.038 -0.3361,0.0767 -0.5005,0.1161 -0.1633,0.0096 -0.3004,0.0241 -0.4239,0.018 -0.1978,-0.0097 -0.3589,-0.0759 -0.5434,-0.2688 0.0002,0 0.0002,-0.0002 0.0004,-0.0002 -0.0492,-0.0475 -0.0967,-0.0937 -0.1423,-0.1333 -0.1647,-0.0829 -0.3259,-0.1193 -0.4949,-0.1102 0.282,-0.1181 0.4319,-0.1554 0.6772,-0.1945 0.2439,-0.0273 0.4721,0.0309 0.7127,0.2223l-0.0001 0c0.0467,0.0496 0.0928,0.0976 0.1366,0.1389 0.1839,0.1781 0.3803,0.225 0.5782,0.2117zm-1.0109 0.2432c-0.2328,0.0596 -0.4604,0.1212 -0.6823,0.1838 -0.3059,0.008 -0.4864,-0.0467 -0.7696,-0.2444l0.0004 -0.0002c-0.074,-0.0468 -0.1461,-0.0924 -0.2135,-0.1299 -0.1421,-0.086 -0.2853,-0.1143 -0.4275,-0.1069 0.4703,-0.2082 0.9623,-0.4244 1.44,-0.0299l-0.0002 0c0.049,0.0476 0.0967,0.094 0.1421,0.1334 0.1663,0.149 0.3384,0.1978 0.5106,0.1941zm-0.9963 0.2746c-0.8207,0.2717 -0.9028,0.19 -1.5553,-0.1314 -0.1968,-0.0518 -0.3637,-0.068 -0.5737,-0.0161 0.4273,-0.3244 0.8121,-0.4792 1.4413,-0.0734 -0.0002,0.0002 -0.0002,0.0002 -0.0003,0.0002 0.0784,0.0563 0.1459,0.0926 0.2132,0.1301 0.1643,0.0915 0.3182,0.1073 0.4748,0.0906zm-0.8146 0.2361c-0.0972,0.0502 -0.1936,0.1008 -0.2882,0.151 -0.785,0.3239 -1.1185,-0.3897 -1.8622,-0.1602 1.1511,-0.7769 1.2589,0.0752 2.1504,0.0092zm-0.7788 0.317c-0.1521,0.0541 -0.3025,0.1078 -0.4498,0.1619 -0.1019,0.0303 -0.1925,0.0574 -0.2788,0.0711 -0.2005,0.032 -0.3744,0.0075 -0.6001,-0.1373 0,0 0.0001,-0.0002 0.0001,-0.0002 -0.059,-0.0325 -0.1164,-0.0642 -0.1701,-0.0902 -0.1536,-0.0359 -0.3035,-0.042 -0.449,-0.0102 0.5852,-0.3658 0.7382,-0.2861 1.3834,-0.0313 0.2121,0.0655 0.3686,0.0743 0.5643,0.0362zm-0.7536 0.2759c-0.1685,0.12 -0.2822,0.1773 -0.4881,0.2452 -0.1259,0.0359 -0.2639,0.0472 -0.5262,-0.0225l0.0002 0c-0.2422,-0.1529 -0.3153,-0.2133 -0.4057,-0.2181l0 -0.1558c0.2858,-0.1867 0.584,0.0069 0.8297,0.1357 0.2085,0.0593 0.4004,0.0561 0.5901,0.0155zm-0.6073 0.3069c-0.1236,0.0641 -0.2437,0.1276 -0.3609,0.1918 -0.0553,0.0201 -0.1078,0.0375 -0.1591,0.0498 -0.0995,0.0241 -0.1934,0.033 -0.2925,0.0198l0 -0.483c0.137,0.1146 0.347,0.3418 0.8125,0.2216zm-0.6777 0.3792c-0.0458,0.0285 -0.0909,0.0572 -0.1348,0.0859l0 -0.0649c0.0456,-0.0028 0.0906,-0.01 0.1348,-0.021zm29.3912 -3.2076c0.2236,0.0428 0.4438,0.0869 0.6605,0.1322 0.2045,0.0735 0.3503,0.2158 0.4447,0.531 0.1346,0.3103 0.2645,0.4929 0.4799,0.5997 -0.2471,0.0054 -0.5638,-0.0997 -0.855,-0.2639 -0.1773,-0.1016 -0.2983,-0.2314 -0.3855,-0.4908 0,0 0,0 0.0001,0 -0.0226,-0.066 -0.0446,-0.1301 -0.0677,-0.187 -0.0562,-0.1537 -0.1504,-0.2658 -0.277,-0.3212zm0.9507 0.2124c0.7062,0.1067 0.8712,0.1638 1.1491,0.7072 0.1603,0.2943 0.3049,0.4712 0.5296,0.575 -0.4355,-0.045 -0.6243,-0.0325 -0.9416,-0.2684 -0.1575,-0.1145 -0.261,-0.2527 -0.3173,-0.52 0.0002,0 0.0002,0.0002 0.0003,0.0002 -0.0333,-0.0666 -0.066,-0.1315 -0.099,-0.1893 -0.0906,-0.1261 -0.1964,-0.2293 -0.3211,-0.3047zm0.8645 0.2306c0.8008,0.0186 1.0704,0.174 1.2683,0.7641 0.1096,0.2621 0.2159,0.4375 0.366,0.5578 -0.4432,-0.1113 -0.3693,-0.0657 -0.7436,-0.2703 -0.1649,-0.1185 -0.2746,-0.2596 -0.3407,-0.532 0,0 0.0001,0.0002 0.0001,0.0002 -0.0502,-0.0654 -0.0928,-0.1365 -0.132,-0.1905 -0.121,-0.1394 -0.2575,-0.251 -0.4181,-0.3293zm1.065 0.2366c0.5764,0.1335 1.1197,0.1808 1.2005,0.7947 0.0989,0.3119 0.2056,0.5044 0.3966,0.6326 -0.3329,-0.0569 -0.5412,-0.1121 -0.8172,-0.2952 -0.1556,-0.1275 -0.2578,-0.2761 -0.3111,-0.5616 0,0 0,0.0002 0.0002,0.0002 -0.0299,-0.0641 -0.0589,-0.1266 -0.0884,-0.1821 -0.1039,-0.1647 -0.2285,-0.2956 -0.3806,-0.3886zm1.1513 0.3465c0.5327,0.1105 0.9159,0.2314 1.0015,0.8446 0.0872,0.2646 0.1778,0.4459 0.3136,0.5768 -0.3699,-0.0954 -0.4941,-0.1218 -0.718,-0.3371 -0.1532,-0.1354 -0.2487,-0.2877 -0.2883,-0.5662 0,0 0,0 0.0002,0.0001 -0.0129,-0.0671 -0.0255,-0.1323 -0.0404,-0.1908 -0.0719,-0.1303 -0.1599,-0.2406 -0.2686,-0.3274zm0.8836 0.3621c0.218,0.0026 0.37,0.046 0.5449,0.1244 0.332,0.1826 0.4358,0.3497 0.5252,0.7773 0.1085,0.2668 0.2134,0.4562 0.3625,0.6036 -0.3049,-0.0825 -0.4205,-0.1139 -0.7105,-0.2705 -0.1695,-0.1727 -0.2792,-0.3554 -0.3429,-0.6888 0,0 0,0 0.0002,0 -0.0145,-0.0667 -0.0289,-0.1316 -0.0451,-0.1898 -0.0889,-0.1474 -0.1981,-0.2677 -0.3343,-0.3562zm0.9555 0.3846c0.328,0.1536 0.6989,0.2805 0.8138,0.7021 0.0519,0.2358 0.1184,0.3758 0.262,0.478l0 0.322c-0.0437,-0.0192 -0.088,-0.0384 -0.133,-0.0573 -0.1262,-0.083 -0.2257,-0.1302 -0.3238,-0.2178 -0.1446,-0.1602 -0.2301,-0.3281 -0.2511,-0.6226 0.0001,0 0.0001,0 0.0001,0 -0.0135,-0.0656 -0.0273,-0.1294 -0.0429,-0.1864 -0.0858,-0.1636 -0.1916,-0.3038 -0.3251,-0.418zm0.8532 0.4373c0.0764,0.0457 0.1507,0.092 0.2226,0.1382l0 0.4528c-0.0502,-0.0685 -0.0811,-0.1505 -0.0933,-0.2669 0,0 0,0 0,-0.0001 -0.0047,-0.0437 -0.0094,-0.0861 -0.0159,-0.1244 -0.0298,-0.0748 -0.0673,-0.1414 -0.1134,-0.1996z"/>
    <path id="_40322288" class="fil5" d="M106.116 48.1324c0.5384,-0.0709 1.1243,-0.1059 1.4559,0.2041 0.0908,0.1112 0.1627,0.2384 0.2298,0.3602l-0.0003 0c0.0488,0.0801 0.0963,0.158 0.1433,0.226 0.236,0.2034 0.4213,0.2907 0.6047,0.3249 -0.8303,0.1812 -1.1404,0.1121 -1.7084,-0.5434l0.0003 0c-0.0486,-0.08 -0.0963,-0.158 -0.1433,-0.2259 -0.192,-0.211 -0.3086,-0.3167 -0.582,-0.3459z"/>
    <path id="_134548024" class="fil5" d="M104.959 48.1739c0.5042,-0.0802 0.9607,-0.1944 1.3756,0.1701 0.0909,0.1112 0.1627,0.2384 0.23,0.3602l-0.0004 0c0.0487,0.0801 0.0963,0.158 0.1432,0.2261 0.2249,0.1925 0.4039,0.2834 0.5782,0.3242 -0.8065,0.1602 -1.1229,0.1186 -1.6888,-0.5421l0.0004 0c-0.0488,-0.0801 -0.0964,-0.1581 -0.1432,-0.226 -0.1735,-0.1744 -0.2872,-0.2743 -0.495,-0.3125z"/>
    <path id="_40275840" class="fil5" d="M103.691 48.2062c0.5147,-0.0845 0.9937,-0.2064 1.3987,0.1459 0.0907,0.1112 0.1626,0.2384 0.2299,0.3603l-0.0003 0c0.0486,0.08 0.0961,0.158 0.1432,0.2261 0.2387,0.1959 0.4264,0.2867 0.6094,0.3268 -0.852,0.2174 -1.2828,0.171 -1.7339,-0.5128l0.0003 0c-0.0486,-0.0802 -0.0961,-0.158 -0.1433,-0.2261 -0.1788,-0.1749 -0.2971,-0.2761 -0.504,-0.3202z"/>
    <path id="_40274736" class="fil5" d="M102.301 48.2724c0.3702,-0.0896 0.7715,-0.1746 1.2043,-0.0617 0.1292,0.0396 0.2097,0.0943 0.3255,0.1818 0.0908,0.1111 0.1628,0.2382 0.2299,0.36l-0.0003 0c0.0486,0.0801 0.0963,0.1581 0.1432,0.2261 0.2171,0.1743 0.3925,0.2658 0.5595,0.3127 -0.4243,0.1172 -0.6973,0.1059 -1.1168,0.0335 -0.2818,-0.1095 -0.4076,-0.3259 -0.5725,-0.5161l0.0003 0c-0.0451,-0.0743 -0.0892,-0.1464 -0.1326,-0.2094 -0.1998,-0.2196 -0.3114,-0.3157 -0.6405,-0.3269z"/>
    <path id="_40091600" class="fil5" d="M101.01 48.3579c0.4323,-0.106 0.7562,-0.1237 1.1792,-0.0789 0.1941,0.0384 0.2781,0.0921 0.4157,0.1961 0.084,0.103 0.1505,0.2207 0.2129,0.3336l-0.0004 0c0.045,0.074 0.0892,0.146 0.1327,0.2092 0.2153,0.1856 0.3851,0.2678 0.552,0.3026 -0.3409,0.0979 -0.7539,0.1531 -1.1868,0.0541 -0.2989,-0.0984 -0.4228,-0.3166 -0.5879,-0.5069l0.0003 0c-0.043,-0.0707 -0.0849,-0.1392 -0.1262,-0.1994 -0.1866,-0.205 -0.2923,-0.2969 -0.5915,-0.3104z"/>
    <path id="_40091400" class="fil5" d="M99.8344 48.4547c0.3426,-0.0783 0.6941,-0.1392 1.0642,-0.0885 0.1744,0.0363 0.2537,0.0875 0.3814,0.184 0.08,0.0981 0.1433,0.2101 0.2026,0.3175l-0.0003 0c0.0429,0.0704 0.0849,0.1393 0.1263,0.1993 0.2188,0.2152 0.3876,0.2899 0.5627,0.3138 -0.3272,0.0853 -0.6826,0.1175 -1.0935,0.054 -0.2899,-0.0942 -0.4096,-0.3052 -0.5693,-0.4895l0.0002 0c-0.0413,-0.0679 -0.0816,-0.1342 -0.1217,-0.192 -0.1762,-0.1935 -0.2774,-0.2828 -0.5526,-0.2986z"/>
    <path id="_40091200" class="fil5" d="M98.6437 48.5738c0.3467,-0.0767 0.7026,-0.148 1.08,-0.1089 0.1587,0.0351 0.2342,0.084 0.354,0.1746 0.0772,0.0944 0.1382,0.2025 0.1953,0.3058l-0.0001 0c0.0413,0.0683 0.0816,0.1344 0.1216,0.1923 0.2167,0.2134 0.3826,0.2834 0.5565,0.3044 -0.3468,0.0737 -0.6866,0.11 -1.0192,0.0625 -0.2835,-0.0867 -0.3977,-0.2892 -0.5506,-0.4657l0.0003 0c-0.039,-0.0641 -0.0773,-0.1267 -0.1148,-0.181 -0.1861,-0.2048 -0.2838,-0.2856 -0.623,-0.284z"/>
    <path id="_40090096" class="fil5" d="M97.6757 48.6881c0.3018,-0.0767 0.6113,-0.1483 0.9283,-0.11 0.1759,0.0336 0.2493,0.0802 0.3712,0.1724 0.0726,0.0889 0.1303,0.1907 0.1839,0.2883l-0.0002 0c0.0391,0.0642 0.0772,0.1266 0.1147,0.1811 0.2216,0.218 0.3865,0.2773 0.5662,0.2907 -0.3396,0.0582 -0.6711,0.1098 -0.9948,0.0735 -0.2655,-0.0858 -0.3749,-0.2786 -0.5208,-0.447l0.0003 0c-0.0378,-0.062 -0.0746,-0.1224 -0.1111,-0.175 -0.1676,-0.1844 -0.2611,-0.2649 -0.5377,-0.274z"/>
    <path id="_40088992" class="fil5" d="M96.6839 48.8241c0.2929,-0.0835 0.5938,-0.1733 0.9181,-0.1266 0.1493,0.0321 0.2185,0.077 0.3293,0.1608 0.0703,0.0859 0.126,0.1844 0.1781,0.2788l-0.0002 0c0.0377,0.0624 0.0745,0.1227 0.1109,0.1753 0.2053,0.202 0.3605,0.2632 0.5258,0.2797 -0.3141,0.0625 -0.6226,0.1144 -0.9471,0.0827 -0.25,-0.0819 -0.3537,-0.2644 -0.4918,-0.4235l0.0004 0c-0.0359,-0.0592 -0.0712,-0.1166 -0.1058,-0.1666 -0.1605,-0.1767 -0.2493,-0.2531 -0.5177,-0.2606z"/>
    <path id="_40087888" class="fil5" d="M95.7656 48.9705c0.2583,-0.0826 0.5225,-0.1706 0.8558,-0.1371 0.1411,0.0304 0.207,0.0732 0.3122,0.1526 0.0666,0.0818 0.1197,0.1755 0.1692,0.2653l-0.0002 0c0.0357,0.059 0.071,0.1164 0.1054,0.1665 0.1958,0.1926 0.3435,0.2503 0.5012,0.2658 -0.3183,0.0789 -0.6265,0.1548 -0.9378,0.0973 -0.2393,-0.0783 -0.3383,-0.2529 -0.4705,-0.4052l0.0003 0c-0.0344,-0.0565 -0.0679,-0.1113 -0.1009,-0.1593 -0.141,-0.155 -0.2241,-0.2291 -0.4347,-0.2459z"/>
    <path id="_40411104" class="fil5" d="M94.792 49.1521c0.272,-0.0982 0.5501,-0.2167 0.8902,-0.1672 0.1107,0.0285 0.1708,0.0684 0.2617,0.1371 0.0638,0.0784 0.1145,0.1677 0.1618,0.2537l-0.0001 0c0.0342,0.0563 0.0677,0.1113 0.1007,0.1591 0.1903,0.1874 0.3331,0.2413 0.487,0.2548 -0.3189,0.0825 -0.6235,0.1507 -0.9038,0.1112 -0.2098,-0.075 -0.3001,-0.232 -0.4193,-0.3697l0.0003 0c-0.0321,-0.0523 -0.063,-0.1033 -0.0936,-0.1476 -0.1475,-0.162 -0.2268,-0.2288 -0.4849,-0.2314z"/>
    <path id="_40765400" class="fil5" d="M94.0129 49.3229c0.2106,-0.0856 0.4071,-0.199 0.7432,-0.1634 0.1298,0.0271 0.1883,0.065 0.2832,0.1365 0.059,0.0727 0.106,0.1557 0.1497,0.2351l-0.0001 0c0.0317,0.0523 0.0629,0.1032 0.0936,0.1477 0.165,0.1623 0.2914,0.2165 0.4239,0.2331 -0.2772,0.0778 -0.5311,0.1906 -0.8377,0.1234 -0.1997,-0.0724 -0.2862,-0.2222 -0.4002,-0.3538l0.0003 0c-0.0306,-0.0502 -0.0605,-0.0992 -0.09,-0.1419 -0.1205,-0.1325 -0.1934,-0.1985 -0.3659,-0.2167z"/>
    <path id="_39960840" class="fil5" d="M93.2552 49.5185c0.3243,-0.1173 0.5919,-0.2919 0.8958,-0.0628 0.0566,0.0697 0.1016,0.1494 0.1438,0.2258l-0.0002 0c0.0305,0.0501 0.0603,0.0989 0.0898,0.1416 0.1596,0.1572 0.2819,0.2087 0.4101,0.2244 -0.2124,0.0822 -0.4426,0.154 -0.7116,0.1261 -0.1816,-0.0667 -0.2604,-0.2033 -0.3645,-0.3234l0.0003 0c-0.0281,-0.0458 -0.0556,-0.0907 -0.0823,-0.1296 -0.1207,-0.1325 -0.1891,-0.1926 -0.3812,-0.2021z"/>
    <path id="_41202648" class="fil5" d="M92.5724 49.7311c0.1934,-0.1033 0.3981,-0.232 0.6388,-0.2 0.0924,0.0233 0.1414,0.0562 0.2167,0.1126 0.0518,0.0638 0.0929,0.1367 0.1315,0.2065l-0.0002 0c0.028,0.0459 0.0554,0.0907 0.082,0.1296 0.1481,0.1456 0.2606,0.1923 0.3793,0.2057 -0.1841,0.0739 -0.3302,0.1648 -0.6325,0.1365 -0.1741,-0.0583 -0.248,-0.1833 -0.3457,-0.2929l0.0003 0c-0.0258,-0.041 -0.051,-0.0811 -0.0757,-0.1161 -0.1198,-0.1277 -0.1839,-0.1803 -0.3945,-0.1819z"/>
    <path id="_40173904" class="fil5" d="M91.9794 49.9598c0.14,-0.1062 0.2854,-0.2222 0.5723,-0.2217 0.1004,0.0212 0.1475,0.051 0.2227,0.1062 0.0479,0.0569 0.086,0.1223 0.1214,0.1848l0 0c0.0255,0.0413 0.051,0.0812 0.0755,0.1161 0.1472,0.1408 0.2566,0.1783 0.376,0.1867 -0.1695,0.0799 -0.306,0.1783 -0.5464,0.1474 -0.1781,-0.0431 -0.2574,-0.1613 -0.3596,-0.2623l0.0003 0c-0.0269,-0.0378 -0.0535,-0.0747 -0.079,-0.1064 -0.1209,-0.1143 -0.1852,-0.1607 -0.3832,-0.1508z"/>
    <path id="_39898736" class="fil5" d="M91.4296 50.2423c0.1464,-0.1218 0.3132,-0.2865 0.53,-0.2738 0.0947,0.0145 0.1411,0.0399 0.2151,0.0877 0.0493,0.0515 0.0893,0.1116 0.1269,0.1694l-0.0001 0c0.0268,0.0376 0.0534,0.0744 0.0789,0.1063 0.1587,0.134 0.2695,0.1585 0.3929,0.1558 -0.158,0.0749 -0.2664,0.1687 -0.4863,0.1748 -0.1735,-0.0257 -0.2642,-0.1308 -0.3747,-0.2174l0.0003 0c-0.0313,-0.0344 -0.0621,-0.0679 -0.0911,-0.0964 -0.132,-0.0984 -0.2012,-0.1375 -0.3919,-0.1064z"/>
    <path id="_39328672" class="fil5" d="M91.4101 50.2544c0.0924,0.004 0.1412,0.0241 0.2186,0.0621 0.0549,0.0454 0.1016,0.1006 0.1458,0.1533l-0.0002 0c0.0311,0.0345 0.0616,0.068 0.0908,0.0965 0.1618,0.1075 0.2712,0.1246 0.3847,0.1123 -0.1199,0.0767 -0.2089,0.1645 -0.3305,0.1803 -0.6796,0.0995 -1.1321,-0.4713 -0.5092,-0.6045z"/>
    <path id="_41153448" class="fil5" d="M91.7072 51.2445c0.0002,-0.0003 0.0002,-0.0007 0.0002,-0.001 0.0001,0.0003 0.0003,0.0005 0.0003,0.0008 -0.0002,0.0002 -0.0003,0.0002 -0.0005,0.0002z"/>
    <path id="_40270992" class="fil5" d="M122.969 49.7801c0.2338,0.0443 0.4544,0.0819 0.6437,0.1779 0.4412,0.4544 0.1389,0.8033 0.027,0.7643 -0.2214,-0.0814 -0.2451,-0.1479 -0.2258,-0.4318 0.0001,0 0.0001,0 0.0001,0 -0.0094,-0.0503 -0.0189,-0.0987 -0.0304,-0.1429 -0.0863,-0.1633 -0.2161,-0.2848 -0.4146,-0.3675z"/>
    <path id="_40269960" class="fil5" d="M122.103 49.5511c0.5512,0.089 0.9324,0.0929 1.0219,0.6558 0.0424,0.2164 0.1032,0.3556 0.2355,0.4575 -0.2296,-0.0284 -0.357,-0.0265 -0.6341,-0.1839 -0.1616,-0.1766 -0.1239,-0.3793 -0.2194,-0.581 -0.094,-0.1619 -0.223,-0.2816 -0.4039,-0.3484z"/>
    <path id="_40270464" class="fil5" d="M121.248 49.2982c0.4854,0.0741 0.9511,0.1035 1.1225,0.6879 0.0728,0.2442 0.1531,0.3938 0.3009,0.4975 -0.1787,-0.0145 -0.378,-0.041 -0.5968,-0.1603 -0.0673,-0.0383 -0.1269,-0.0733 -0.178,-0.1012 -0.1179,-0.1026 -0.1915,-0.2163 -0.2225,-0.4231 0.0001,0 0.0001,0 0.0001,0 -0.0089,-0.0494 -0.0178,-0.0971 -0.0284,-0.1401 -0.1012,-0.1569 -0.2288,-0.2789 -0.3978,-0.3607z"/>
    <path id="_41173848" class="fil5" d="M120.043 49.078c0.5659,-0.0675 1.2613,0.0322 1.4354,0.6675 0.1118,0.2667 0.2182,0.4238 0.4098,0.533 -0.752,-0.0572 -0.8979,0.0153 -1.4027,-0.7705l0.0005 0c-0.0485,-0.085 -0.096,-0.1677 -0.1422,-0.24 -0.1126,-0.0787 -0.2069,-0.1417 -0.3008,-0.19z"/>
    <path id="_40093016" class="fil5" d="M118.682 48.828c0.3475,0.0027 0.8129,-0.0707 1.2993,0.2978 0.0897,0.118 0.161,0.2529 0.2278,0.3822l-0.0001 0c0.0483,0.085 0.0955,0.1675 0.142,0.2397 0.1883,0.1621 0.3448,0.2561 0.4916,0.3096 -0.3198,0.0075 -0.6639,-0.0016 -1.0509,-0.1396 -0.2933,-0.1271 -0.4269,-0.3712 -0.6013,-0.586l0.0006 0c-0.0485,-0.085 -0.0961,-0.1679 -0.1424,-0.24 -0.1386,-0.1169 -0.2471,-0.2033 -0.3666,-0.2637z"/>
    <path id="_41174456" class="fil5" d="M117.329 48.6564c0.373,-0.0034 0.7346,-0.0128 1.087,0.1191 0.0997,0.0402 0.173,0.0942 0.2719,0.1738 0.0899,0.1182 0.1612,0.2531 0.228,0.3824l-0.0003 0c0.0483,0.085 0.0958,0.1676 0.1421,0.2398 0.1856,0.1524 0.341,0.2478 0.4852,0.3076 -0.3197,-0.0021 -0.6517,-0.0064 -0.9987,-0.1139 -0.3597,-0.1181 -0.5088,-0.3808 -0.7076,-0.61l0.0006 0c-0.052,-0.085 -0.1027,-0.1676 -0.1523,-0.2399 -0.1326,-0.118 -0.2356,-0.2031 -0.3559,-0.2589z"/>
    <path id="_39333616" class="fil5" d="M115.843 48.491c0.5849,-0.0787 1.0904,-0.1323 1.4555,0.2821 0.0963,0.118 0.1726,0.2527 0.2437,0.3821l-0.0002 0c0.0517,0.0851 0.1022,0.1677 0.152,0.2398 0.2109,0.1621 0.3839,0.2481 0.5485,0.29 -0.8912,0.0547 -1.145,0.1969 -1.7795,-0.6498l0.0006 0c-0.0518,-0.0849 -0.1027,-0.1675 -0.1521,-0.2398 -0.1739,-0.1494 -0.2994,-0.2481 -0.4685,-0.3044z"/>
    <path id="_40093488" class="fil5" d="M114.355 48.3533c0.5895,-0.0818 1.2052,-0.1263 1.5703,0.2999 0.0962,0.118 0.1722,0.2527 0.2437,0.382l-0.0002 0c0.0515,0.0852 0.1022,0.1678 0.1518,0.2399 0.2224,0.1765 0.4044,0.2774 0.5756,0.3359 -0.3868,0.0517 -0.7837,0.0102 -1.1925,-0.0945 -0.3546,-0.1193 -0.5029,-0.38 -0.7005,-0.6077l0.0006 0c-0.0518,-0.085 -0.1028,-0.1677 -0.1522,-0.24 -0.1659,-0.1929 -0.2802,-0.2546 -0.4966,-0.3155z"/>
    <path id="_41174280" class="fil5" d="M112.895 48.2681c0.5557,-0.0821 1.2102,-0.1079 1.5701,0.2585 0.096,0.118 0.1722,0.2529 0.2437,0.3822l-0.0003 0c0.0516,0.085 0.1022,0.1676 0.1518,0.2398 0.2269,0.2 0.4094,0.299 0.5863,0.347 -0.4213,0.0604 -0.8517,0.1055 -1.3155,-0.0432 -0.3282,-0.1287 -0.4548,-0.3991 -0.6281,-0.6369l0.0006 0c-0.052,-0.0848 -0.1027,-0.1677 -0.1523,-0.24 -0.1685,-0.1521 -0.2895,-0.2516 -0.4563,-0.3074z"/>
    <path id="_40092808" class="fil5" d="M111.345 48.186c0.5769,-0.0646 1.1546,-0.1536 1.6201,0.2473 0.0961,0.118 0.1723,0.2529 0.2436,0.3822l-0.0002 0c0.0517,0.085 0.1022,0.1678 0.1518,0.2397 0.2163,0.2128 0.3915,0.3114 0.5639,0.3557 -0.3907,0.0544 -0.7668,0.0364 -1.1352,-0.0306 -0.3332,-0.1239 -0.4721,-0.3795 -0.6577,-0.6046l0.0006 0c-0.0499,-0.082 -0.0992,-0.1619 -0.1468,-0.2317 -0.2065,-0.2269 -0.3282,-0.3347 -0.6401,-0.358z"/>
    <path id="_40270328" class="fil5" d="M110.038 48.1461c0.7051,-0.0842 1.0854,-0.1695 1.5751,0.2607 0.0928,0.1139 0.1662,0.244 0.235,0.3689l-0.0001 0c0.0497,0.0821 0.0987,0.1616 0.1465,0.2313 0.2081,0.2049 0.3766,0.3 0.5428,0.343 -0.3428,0.029 -0.6939,0.0557 -1.1377,-0.0375 -0.3505,-0.1132 -0.4948,-0.368 -0.6876,-0.5901l0.0007 0c-0.0499,-0.082 -0.099,-0.162 -0.1469,-0.2315 -0.1797,-0.1976 -0.295,-0.3051 -0.5278,-0.3448z"/>
    <path id="_41337272" class="fil5" d="M108.64 48.1303c0.5477,-0.0951 1.1775,-0.1851 1.5526,0.2231 0.0928,0.1139 0.1661,0.2441 0.235,0.369l-0.0001 0c0.0497,0.082 0.0987,0.1617 0.1465,0.2314 0.2245,0.2208 0.4032,0.3142 0.5822,0.352 -0.3665,0.0643 -0.6964,0.0975 -1.1513,0.0021 -0.3376,-0.1263 -0.4785,-0.3844 -0.6667,-0.6123l0.0007 0c-0.0501,-0.0818 -0.0992,-0.1618 -0.1469,-0.2315 -0.1932,-0.1883 -0.3175,-0.2934 -0.552,-0.3338z"/>
    <path id="_40556392" class="fil5" d="M108.4 48.1015c0.1824,0.0499 0.275,0.113 0.419,0.2253 0.0928,0.1138 0.1663,0.244 0.2352,0.3688l-0.0002 0c0.0498,0.0821 0.0986,0.1619 0.1466,0.2315 0.2207,0.2172 0.397,0.3113 0.5731,0.3502 -0.3441,0.0413 -0.6969,0.0898 -1.0462,-0.0118 -0.3261,-0.1142 -0.4647,-0.3565 -0.6485,-0.5688l0.0003 0c-0.0488,-0.08 -0.0963,-0.158 -0.1433,-0.2261 -0.2059,-0.2261 -0.325,-0.331 -0.6439,-0.3506 0.3591,-0.0118 0.6724,-0.0974 1.1079,-0.0185z"/>
    <path id="_39335680" class="fil4" d="M107.627 39.7305c0.5131,0.7652 0.7931,1.0669 1.5214,1.6275 -1.1336,-0.1156 -1.9341,-0.123 -3.07,0.0292 0.6499,-0.5541 1.0384,-0.9699 1.5486,-1.6567z"/>
    <path id="_40463392" class="fil4" d="M117.341 40.6501c-0.6536,0.5474 -1.1002,0.7437 -1.8846,1.0811 1.0814,0.1465 2.1346,0.3013 3.1555,0.4651 -0.5873,-0.5627 -0.8759,-0.8567 -1.2709,-1.5462z"/>
    <path id="_38600144" class="fil4" d="M97.9817 40.9175c0.4597,0.3501 0.8094,0.5432 1.3362,0.7867 -0.7761,0.114 -1.5317,0.2328 -2.2642,0.3564 0.4034,-0.3974 0.6367,-0.66 0.928,-1.1431z"/>
    <path id="_40423128" class="fil5" d="M128.261 38.2101c-0.3734,-0.4083 -1.1821,-0.2806 -1.8002,0.2845 -0.6183,0.5652 -0.818,1.3593 -0.4445,1.7678 0.3734,0.4086 1.1822,0.2805 1.8004,-0.2846 0.6182,-0.5651 0.8178,-1.3593 0.4443,-1.7677z"/>
    <path id="_40550328" class="fil5" d="M129.541 36.3334l-0.1664 0.4308 0.0082 -0.2019c0.1658,-1.0879 -2.1595,-1.4311 -2.0917,1.0869 0.8491,0.4037 1.8445,0.3575 2.6392,-0.2113 -0.7046,0.7054 -0.7999,0.9106 -1.1885,1.7463 0.6903,1.0811 2.9806,-0.2715 1.7281,-1.1944l-0.05 -0.1263c2.2505,-0.3288 0.4908,-3.2911 -0.8789,-1.5301z"/>
    <path id="_40164528" class="fil5" d="M128.717 38.562c0.1449,-0.2549 0.2741,-0.4375 0.4552,-0.667 -0.3297,0.153 -0.4453,0.1636 -0.7937,0.1802 0.1859,0.1727 0.2403,0.2497 0.3385,0.4868z"/>
    <path id="_39911456" class="fil4" d="M89.1099 41.8002l1.2238 2.0482c0.9784,-0.3347 0.9779,-0.3543 2.1864,-0.6774 -1.2516,-0.1479 -2.3934,-0.6222 -3.4102,-1.3708z"/>
    <path id="_40174784" class="fil4" d="M126.555 41.4867l-1.0868 2.5298c-1.083,-0.4671 -1.0835,-0.4875 -2.4167,-0.97 1.2767,-0.2121 2.4492,-0.7464 3.5035,-1.5598z"/>
    <path id="_40174496" class="fil4" d="M94.5035 40.5916l-0.6646 -0.8466c-0.3793,0.1716 -0.7333,0.3204 -1.1284,0.4506 -0.0606,0.2276 -0.1708,0.3679 -0.4425,0.4959l0.0305 0.2896c0.9084,0.0832 1.7104,0.0097 2.205,-0.3895z"/>
    <path id="_40993312" class="fil4" d="M112.342 18.5626c-1.1302,3.4107 -1.967,6.9388 -2.5356,10.4967l0.1334 0.0677 0.1823 0.1332 0.1572 0.1542 0.2451 0.3546 0.1629 0.3986 0.0879 0.4328 0.0123 0.4576 -0.0464 0.3258c0.2049,0.0449 0.4123,0.0963 0.629,0.1548 0.86,-4.4854 2.2005,-8.9437 4.0712,-13.139 -0.9811,0.1405 -2.0184,0.1982 -3.0993,0.163z"/>
    <path id="_41206224" class="fil4" d="M102.798 18.7817c1.1014,3.3241 1.9191,6.7441 2.4795,10.1809 -0.0728,0.0198 -0.1443,0.0439 -0.2072,0.0638l-0.2075 0.1078 -0.1821 0.1357 -0.1566 0.1569 -0.2431 0.3591 -0.1604 0.4034 -0.0842 0.4369 -0.0075 0.4627 0.0724 0.4699c-0.3767,0.0678 -0.7565,0.1458 -1.1593,0.2367 -0.5461,-4.5513 -1.634,-9.0358 -3.2267,-13.3297 0.9716,0.1946 2.0042,0.3027 3.0827,0.3159z"/>
    <path id="_40161520" class="fil4" d="M118.143 45.1852l-2.7646 -0.2941c-0.6626,-0.0707 -1.2615,0.404 -1.3308,1.0546l0 0c-0.0691,0.6509 0.4163,1.241 1.0788,1.3113l2.7648 0.2945c0.6627,0.0704 1.2616,-0.4043 1.3306,-1.0549l0 0c0.0694,-0.6506 -0.4161,-1.2407 -1.0788,-1.3114z"/>
    <path id="_41205280" class="fil4" d="M96.6247 45.2181l2.7654 -0.2878c0.6629,-0.0691 1.2607,0.4069 1.3283,1.0578l0 0c0.0677,0.6509 -0.4191,1.2399 -1.0819,1.3089l-2.7654 0.2879c-0.6627,0.0692 -1.2605,-0.407 -1.3283,-1.0579l0 0c-0.0677,-0.6508 0.4192,-1.2399 1.0819,-1.3089z"/>
    <path id="_40765256" class="fil4" d="M109.962 39.0047l0.1973 -1.2498c-0.3888,-0.2472 -0.6189,-0.4171 -0.9338,-0.752l-0.3691 0.2377c0.1782,0.864 0.5016,1.1896 1.1056,1.7641z"/>
    <path id="_41873384" class="fil4" d="M104.187 39.4618l-0.1982 -1.1356c0.8135,-0.1905 1.257,-0.4605 1.8543,-1.3332l0.4232 0.2704c-0.3473,1.1111 -0.9606,1.7496 -2.0793,2.1984z"/>
   </g>
   <rect id="_40347384" class="fil6" x="0.0048" y="58.6569" width="215.162" height="25.262"/>
  </g>
 </g>
</svg>
