<svg xmlns="http://www.w3.org/2000/svg" width="1200px" height="800px" viewBox="0 0 1800 1200">
 <defs>
  <style type="text/css">
   <![CDATA[
    .str2 {stroke:#ccc;stroke-width:1}
    .str1 {stroke:#fff;stroke-width:5}
    .str0 {stroke:#fff;stroke-width:8;stroke-linejoin:bevel}
    .fil0 {fill:#0051BA}
    .fil4 {fill:#000}
    .fil3 {fill:#D81E05}
    .fil2 {fill:#fff}
    .fil1 {fill:white}
   ]]>
  </style>
 </defs>
  <rect class="fil0" width="1800" height="1200"/>
  <rect class="fil1" width="1800" height="800"/>
  <path class="fil2 str2" d="M383.184 473.003c-38.8358,0.0685039 -67.0217,-29.6327 -105.193,-29.8902 -33.6803,-0.226772 -60.0992,28.702 -106.933,28.4728 0.887008,-30.7217 0.242126,-61.4433 -1.93346,-92.1638 -8.48386,-119.802 97.3984,-217.5 217.5,-217.5 120.102,0 221.546,97.4681 217.5,217.5 -1.99724,21.0425 -4.82008,37.7079 -3.07795,91.2803 -46.7646,0.0661417 -71.4295,-28.6547 -106.607,-28.2709 -36.2929,0.39685 -72.4193,30.5031 -111.255,30.5717z"/>
  <path class="fil0" d="M386.624 379.422l-207.054 56.0232 -1.94528 -56.0232c-4.00394,-115.337 93.5917,-209 209,-209 115.408,0 216.542,93.8457 209,209l-3.43228 52.3925 -205.567 -52.3925z"/>
  <polygon class="fil3 str0" points="385.533,164.545 414.587,199.298 451.987,174.724 468.881,216.755 512.042,204.941 515.122,250.135 559.822,252.237 548.785,296.171 590.648,311.983 566.574,350.355 600.651,378.331 560.133,421.794 592.501,436.983 385.285,397.805 179.717,439.672 211.825,415.881 171.748,380.513 206.5,351.459 181.926,314.06 223.957,297.165 212.144,254.004 257.337,250.924 259.44,206.224 303.373,217.261 319.186,175.398 357.557,199.473 "/>
  <path class="fil2" d="M386.624 379.422l-168.243 63.9921c-7.75748,-20.4366 -11.7567,-42.1276 -11.7567,-63.9921 0,-99.3945 80.6055,-180 180,-180 99.3945,0 180,80.6055 180,180 0,20.3268 -3.45,40.5224 -10.174,59.6846l-169.826 -59.6846z"/>
  <path class="fil3" d="M386.624 379.422l-158.896 60.437c-7.32756,-19.3016 -11.1047,-39.7854 -11.1047,-60.437 0,-93.8728 76.128,-170.001 170.001,-170.001 93.8728,0 170.001,76.128 170.001,170.001 0,20.028 -3.57047,39.9732 -10.4811,58.7563l-159.52 -58.7563z"/>
  <path class="fil2" d="M179.57 435.445c44.2299,-32.4791 97.4681,-70.9476 131.352,-114.736l17.0386 0 33.2551 50.8287 31.624 -29.4272 17.7992 0 37.7882 40.663 23.2264 -23.5075 18.385 0.672047c25.9512,34.4327 66.0378,54.5303 102.154,71.876l1.76575 29.5299 -90.9567 -47.5382 -256.284 5.88543 -67.3098 39.5504 0.162992 -23.7969z"/>
  <path class="fil4" d="M179.32 464.674l0.39685 -25.0016c35.7732,-22.6961 68.0031,-47.2819 98.8157,-76.5921l-8.73071 23.811 19.8425 -23.4142 -8.33386 30.5575 23.4142 -24.6047 3.1748 35.7165 15.4772 -36.1134 18.652 25.0016 -0.39685 -22.2236 57.1465 43.2567 -26.9858 -34.526 25.0016 16.6677 6.74646 -21.8268 32.5417 29.7638 -3.9685 -21.0331 58.337 32.1449 -32.9386 -26.9858 22.2236 7.54016 3.1748 -11.1118 23.4142 14.6835 -7.54016 -19.8425c27.4843,22.2567 59.2524,41.8772 93.6567,57.5433l1.98425 26.9858c-36.0945,-4.73976 -66.3602,-30.6543 -103.794,-29.6433 -34.5307,0.933071 -70.337,29.4484 -106.933,30.437 -36.1913,-0.210236 -69.6555,-30.4358 -105.848,-30.6449 -31.9311,-0.185433 -66.5965,29.6398 -98.5299,29.4543z"/>
  <path class="fil3 str1" d="M312.68 320.68l12.5043 0c6.22441,-14.7 11.8134,-29.8559 11.3539,-44.9185 -3.64961,1.50827 -6.57638,4.19764 -9.04961,8.0622 -0.934252,-6.97677 -3.1311,-13.0488 -7.40433,-18.7571 -4.67835,4.72677 -7.63937,10.5402 -8.88543,17.4413 -1.89094,-2.79094 -3.96142,-4.40197 -7.5685,-5.92323 -0.603543,14.6976 2.90669,29.3965 9.04961,44.0953z"/>
  <path class="fil3 str1" d="M395.528 342.351l12.5043 0c6.22441,-14.7 11.8134,-29.8559 11.3539,-44.9185 -3.64961,1.50827 -6.57638,4.19764 -9.04961,8.0622 -0.934252,-6.97677 -3.1311,-13.0488 -7.40433,-18.7571 -4.67835,4.72677 -7.63937,10.5402 -8.88543,17.4413 -1.89094,-2.79094 -3.96142,-4.40197 -7.5685,-5.92323 -0.603543,14.6976 2.90669,29.3965 9.04961,44.0953z"/>
  <path class="fil3 str1" d="M474.402 359.939l12.5043 0c6.22441,-14.7 11.8134,-29.8559 11.3539,-44.9185 -3.64961,1.50827 -6.57638,4.19764 -9.04961,8.0622 -0.934252,-6.97677 -3.1311,-13.0488 -7.40433,-18.7571 -4.67835,4.72677 -7.63937,10.5402 -8.88543,17.4413 -1.89094,-2.79094 -3.96142,-4.40197 -7.5685,-5.92323 -0.603543,14.6976 2.90669,29.3965 9.04961,44.0953z"/>
</svg>
