<?xml version="1.0" encoding="UTF-8"?>
<!DOCTYPE svg PUBLIC "-//W3C//DTD SVG 1.1//EN" "http://www.w3.org/Graphics/SVG/1.1/DTD/svg11.dtd">
<!-- Creator: CorelDRAW -->
<svg xmlns="http://www.w3.org/2000/svg" xml:space="preserve" width="347mm" height="220mm" style="shape-rendering:geometricPrecision; text-rendering:geometricPrecision; image-rendering:optimizeQuality; fill-rule:evenodd; clip-rule:evenodd"
viewBox="0 0 347 220"
 xmlns:xlink="http://www.w3.org/1999/xlink">
 <defs>
  <style type="text/css">
   <![CDATA[
    .str6 {stroke:#F8C300;stroke-width:0.6;stroke-linecap:round;stroke-linejoin:round}
    .str5 {stroke:white;stroke-width:0.7;stroke-linejoin:round}
    .str4 {stroke:white;stroke-width:0.8;stroke-linecap:round;stroke-linejoin:round}
    .str2 {stroke:#007CC3;stroke-linecap:round;stroke-linejoin:round}
    .str1 {stroke:#F8C300;stroke-linecap:round}
    .str3 {stroke:white;stroke-linecap:round;stroke-linejoin:round}
    .str0 {stroke:#DA251D;stroke-width:4;stroke-linecap:round}
    .fil5 {fill:none}
    .fil3 {fill:#007CC3}
    .fil2 {fill:#00923F}
    .fil1 {fill:#0093DD}
    .fil6 {fill:#DA251D}
    .fil4 {fill:#F8C300}
    .fil0 {fill:white}
   ]]>
  </style>
 </defs>
 <g id="Слой_x0020_1">
  <metadata id="CorelCorpID_0Corel-Layer"/>
  <rect class="fil0" x="-0.0160444" y="8.84749e-005" width="346.965" height="220"/>
  <path class="fil1 str0" d="M173.622 144.497c0.7025,-5.7903 5.6168,-10.2745 11.6003,-10.2745l24.539 -0.6226c6.4745,0 11.6718,-5.2256 11.6718,-11.7001l0 -101.398 -95.9329 0 0 101.398c0,6.4745 5.3522,11.7001 11.8268,11.7001l24.539 0.6226c5.9835,0 10.9704,4.4846 11.6851,10.275l0.0709 -0.0005z"/>
  <rect class="fil2" x="-0.016003" y="165" width="346.965" height="27.5"/>
  <rect class="fil3" x="-0.016003" y="192.5" width="346.965" height="27.5"/>
  <path class="fil4 str1" d="M173.622 144.497c0.7025,-5.7903 5.6168,-10.2745 11.6003,-10.2745l24.539 -0.6226c6.4745,0 11.6718,-5.2256 11.6718,-11.7001l0 -101.398 -95.9329 0 0 101.398c0,6.4745 5.3522,11.7001 11.8268,11.7001l24.539 0.6226c5.9835,0 10.9704,4.4846 11.6851,10.275l0.0709 -0.0005z"/>
  <path class="fil3 str2" d="M221.5 32.9487c-3.2949,0.3384 -5.7993,0.9313 -8.2774,3.8409 -6.0271,0.744 -8.9554,4.0503 -9.3162,9.4796 -4.5219,3.2144 -5.9929,8.1721 -4.4129,14.8732 -5.3137,3.3274 -7.4401,7.4515 -4.908,12.7399l0.0714 12.2783c0.401,1.6866 1.2776,3.3137 2.5484,4.8918 -3.7592,6.0473 -2.0703,11.4409 5.0667,14.7098 0.026,10.2574 5.7467,13.1717 14.056,12.7485 1.0928,1.4616 2.813,2.5813 5.1048,3.3895l0.0672 -88.9515z"/>
  <path class="fil5 str3" d="M221.5 32.9487c-3.2949,0.3384 -5.7993,0.9313 -8.2774,3.8409 -6.0271,0.744 -8.9554,4.0503 -9.3162,9.4796 -4.5219,3.2144 -5.9929,8.1721 -4.4129,14.8732 -5.3137,3.3274 -7.4401,7.4515 -4.908,12.7399l0.0714 12.2783c0.401,1.6866 1.2776,3.3137 2.5484,4.8918 -3.7592,6.0473 -2.0703,11.4409 5.0667,14.7098 0.026,10.2574 5.7467,13.1717 14.056,12.7485 1.0928,1.4616 2.813,2.5813 5.1048,3.3895"/>
  <g id="_38872272">
   <path id="_79975720" class="fil6 str4" d="M141.063 39.7701c-3.8835,0.9587 -6.8042,2.3458 -8.9902,4.1024l0 -11.6163c2.186,1.7566 5.1067,3.1437 8.9902,4.1023 -0.9586,-3.8835 -2.3457,-6.8042 -4.1023,-8.9902l11.6163 0c-1.7566,2.186 -3.1437,5.1067 -4.1024,8.9902 3.8836,-0.9586 6.8042,-2.3457 8.9903,-4.1023l0 11.6163c-2.1861,-1.7566 -5.1067,-3.1437 -8.9903,-4.1024 0.9587,3.8836 2.3458,6.8042 4.1024,8.9903l-11.6163 0c1.7566,-2.1861 3.1437,-5.1067 4.1023,-8.9903z"/>
   <circle id="_79798800" class="fil6 str4" cx="142.768" cy="24.6034" r="2.4853"/>
   <circle id="_39436504" class="fil6 str4" transform="matrix(-7.62561E-014 -0.958836 0.958837 -7.62561E-014 129.308 38.0643)" r="2.592"/>
   <circle id="_82826496" class="fil6 str4" transform="matrix(2.53943E-014 0.958836 -0.958837 2.53943E-014 156.229 38.0643)" r="2.592"/>
   <circle id="_39115032" class="fil6 str4" cx="142.768" cy="51.5252" r="2.4853"/>
  </g>
  <path class="fil5 str3" d="M221.487 50.6005c-7.8488,1.0079 -11.4479,5.5572 -8.8359,15.2818"/>
  <path class="fil5 str3" d="M211.847 59.2011c-7.3957,1.1254 -11.6867,4.4388 -12.1083,11.0124"/>
  <path class="fil5 str3" d="M218.673 51.1686c-0.9048,-1.5239 -0.4756,-3.4019 1.1277,-5.5128"/>
  <path class="fil5 str3" d="M218.902 43.0821c-3.0581,2.5528 -4.3012,5.5483 -2.8916,9.1906"/>
  <path class="fil5 str3" d="M209.382 54.6865c-1.1684,1.6869 -1.2472,3.3738 -0.2362,5.0606"/>
  <path class="fil5 str3" d="M208.197 50.8456c-2.9907,2.4654 -4.2192,5.636 -2.3059,10.0629"/>
  <path class="fil5 str3" d="M208.36 47.9445c-5.7293,2.5293 -7.5641,7.3432 -5.1212,14.6664"/>
  <path class="fil5 str3" d="M221.466 77.4244c-2.0261,-1.8043 -2.3089,-3.554 -0.848,-5.2496"/>
  <path class="fil5 str3" d="M221.463 81.532c-5.2361,-3.2007 -6.8866,-6.9325 -3.2965,-11.4411"/>
  <path class="fil5 str3" d="M221.461 85.0867c-8.6358,-4.7982 -11.6865,-10.9188 -3.6615,-17.284"/>
  <path class="fil5 str3" d="M221.5 110.339c-14.8267,-5.5025 -15.4067,-15.2818 -2.23,-22.2281"/>
  <path class="fil5 str3" d="M210.526 66.536c-9.2594,8.2446 -11.8796,17.1116 1.3303,27.3561"/>
  <path class="fil5 str3" d="M214.196 91.4667c-5.6365,-3.5433 -8.222,-7.958 -7.7564,-13.2445"/>
  <path class="fil5 str3" d="M215.951 90.1165c-3.4704,-2.0101 -5.3333,-5.3621 -7.0593,-8.4621"/>
  <path class="fil5 str3" d="M213.713 83.9018c0.8108,1.6606 2.2067,2.8947 4.4073,4.8418"/>
  <path class="fil5 str3" d="M213.1 96.7728c-0.8138,4.6324 2.8357,7.5721 8.3443,9.8066"/>
  <path class="fil5 str3" d="M215.797 98.1212c-0.1394,2.3886 1.8664,4.1217 5.6499,5.312"/>
  <path class="fil5 str3" d="M207.094 94.4029c-3.5653,-0.2309 -7.5494,-0.8984 -9.8882,-3.3505"/>
  <path class="fil5 str3" d="M206.154 99.4696c-1.9194,-1.57 -2.5386,-3.2702 -1.5237,-5.3065"/>
  <path class="fil5 str3" d="M202.203 93.7002c-1.3664,3.1217 -0.4988,5.8075 2.6025,8.0576"/>
  <path class="fil5 str3" d="M203.58 103.311c-4.3904,-2.8284 -5.9492,-5.5819 -3.532,-10.3372"/>
  <path class="fil5 str3" d="M202.272 105.762c3.8987,0.9602 7.1658,0.5141 10.6698,-0.3369"/>
  <path class="fil5 str3" d="M215.021 112.177c-0.2894,2.8119 0.0543,4.7418 1.3075,6.3334"/>
  <path class="fil5 str3" d="M208.973 111.197c1.6635,1.7974 3.3099,3.1061 5.9544,2.9831"/>
  <path class="fil5 str3" d="M205.909 110.543c2.2356,4.2275 5.3429,6.1668 9.3221,5.8181"/>
  <path class="fil6 str5" d="M178.605 73.0682l-13.8426 0 -2.043 2.3699 -4.1774 0 0 -8.6678c-11.3714,-9.961 4.4453,-17.1109 9.3372,-29.2671l10.7258 35.565zm-1.7479 8.1015l1.1637 1.9371 -10.1416 33.6279c-4.8919,-12.1563 -20.7086,-19.3062 -9.3372,-29.2672l0 -8.6677 4.1774 0 2.043 2.3699 12.0947 0zm2.9051 3.1953c2.3379,1.1767 -0.2036,3.222 8.781,1.5389l1.3076 1.3893c4.3012,-2.8974 9.001,0.3451 16.4259,1.5527 -4.3892,-5.3494 -4.9272,-10.995 -0.8172,-16.998 -4.7401,-0.0547 -8.9352,0.5719 -11.9313,2.6968l-6.2925 0c-1.783,-1.0872 -3.9201,-1.7318 -6.5743,-1.7299l-11.7868 -38.5622c0.0919,-0.4393 0.1683,-0.8848 0.2266,-1.3372 1.5391,0.763 2.9421,0.8987 4.145,0.0325 1.657,-1.1935 3.3954,0.268 7.5241,-0.3522 -3.7584,0.2263 -5.6861,-1.5438 -7.6124,-0.7178 -1.6681,0.7152 -2.8951,0.2678 -3.9229,-0.8938 0.0139,-0.9597 -0.0482,-1.9473 -0.2079,-2.9686 -0.9192,-5.8764 -8.6395,-0.4423 -2.7167,1.4666 2.6692,15.6967 -27.3041,25.3992 -14.0513,38.9336l0 7.0224 -13.5657 0c0.3475,-1.0653 0.9741,-2.0612 1.757,-3.0181 -3.7795,1.5665 -8.274,3.1328 -13.3614,4.6989 5.0874,1.5661 9.5819,3.1325 13.3614,4.699 -0.7829,-0.957 -1.4095,-1.9528 -1.757,-3.0181l13.5657 0 0 7.0223c-13.2528,13.5344 16.7205,23.237 14.0513,38.9337 -5.9228,1.9088 1.7975,7.3429 2.7167,1.4665 0.1597,-1.0212 0.2218,-2.0088 0.2079,-2.9686 1.0278,-1.1615 2.2548,-1.609 3.9229,-0.8938 1.9263,0.826 3.854,-0.944 7.6124,-0.7177 -4.1287,-0.6203 -5.8671,0.8412 -7.5241,-0.3522 -1.2029,-0.8663 -2.6059,-0.7306 -4.145,0.0325 -0.0583,-0.4524 -0.1347,-0.898 -0.2266,-1.3372l10.8876 -35.6203z"/>
  <path class="fil4" d="M178.982 75.5662c-0.2168,0.7672 1.7497,0.899 2.4516,0.899 1.6059,0 1.4934,0.6241 2.4124,1.7794 2.297,2.8875 2.9422,1.7338 3.6128,2.6338 -0.6901,0.5878 -2.3231,-1.1819 -2.3443,0.9594 -0.0322,3.2526 3.9083,4.0223 4.2443,0.312 0.3163,-3.491 -0.3581,-4.1649 -2.4499,-6.2567 -0.9005,-0.9005 -7.3402,-2.403 -7.9269,-0.3269z"/>
  <path class="fil4" d="M179.151 78.0748c-1.5965,0.2043 -0.7484,1.72 0.5929,1.3651 1.9643,-0.5199 3.6679,-1.9107 -0.5929,-1.3651z"/>
  <path class="fil4" d="M179.714 80.5976c-1.1026,0.4852 -0.2894,1.8075 1.0916,1.1245 2.3179,-1.1462 2.9499,-2.903 -1.0916,-1.1245z"/>
  <path class="fil4" d="M181.202 82.5052c-0.8947,0.5499 -0.1801,1.795 1.1039,0.9436 1.9647,-1.3027 1.677,-2.6531 -1.1039,-0.9436z"/>
  <path class="fil4" d="M182.85 84.0245c-0.8553,0.7238 0.2145,1.7122 1.1218,0.6232 1.1315,-1.3581 -0.1824,-1.4182 -1.1218,-0.6232z"/>
  <path class="fil4" d="M199.963 78.5595c-0.4501,-3.0364 0.9088,-2.2377 1.041,-3.6531 -5.7663,0.4906 -6.5667,1.8184 -4.0242,5.7267 0.4769,-2.071 -1.2143,-2.5778 0.7764,-3.5959 0.0176,0.8599 0.3175,1.8959 0.8788,2.8099 0.3205,-1.1064 -0.3,-2.7277 0.5109,-3.2498 0.1557,0.7427 0.3344,1.4936 0.8171,1.9622z"/>
  <path class="fil4" d="M192.481 82.13c-0.067,-1.6485 0.0663,-3.2157 0.6521,-3.8314 0.146,1.1955 0.2802,2.2657 1.111,2.946 -0.068,-2.0447 -0.1332,-3.0937 0.3564,-3.5166 -1.162,-0.8107 -1.7654,-1.1242 -2.6271,-1.1734 -0.4808,2.5762 -0.2534,4.577 0.5076,5.5754z"/>
  <polygon class="fil4 str6" points="164.708,76.3426 164.039,77.1189 176.844,77.1189 177.513,76.3426 "/>
  <path class="fil5 str6" d="M178.358 75.3619l-0.8454 0.9807m-11.9593 -0.9807l-0.8454 0.9807m2.6746 -0.9807l-0.8453 0.9807m2.6746 -0.9807l-0.8454 0.9807m2.6746 -0.9807l-0.8454 0.9807m2.6746 -0.9807l-0.8453 0.9807m2.6746 -0.9807l-0.8454 0.9807m2.6746 -0.9807l-0.8453 0.9807"/>
 </g>
</svg>
