<svg height="400" version="1.1" width="600" xmlns="http://www.w3.org/2000/svg">
<g transform="translate(-208.5714,-596.2193)">
<path d="m208.57143,596.2193 600,0 0,400 -600,0z" style="fill:#ef353a"/>
<path d="M600,400C572.50389,345.52704 500.93115,306.6875 417.03125,306.6875 333.13134,306.6875 261.6211,345.52704 234.125,400" style="stroke-miterlimit:5.19999981;stroke:#000;stroke-linejoin:round;fill:#00a85a;stroke-width:1.5;stroke-linecap:round" transform="translate(208.5714,596.2193)"/>
<path d="M365.875,400C338.37889,345.52704 266.86865,306.6875 182.96875,306.6875 99.068837,306.6875 27.558604,345.52704 0.0625,400" style="stroke-miterlimit:5.19999981;stroke:#000;stroke-linejoin:round;fill:#00a85a;stroke-width:1.5;stroke-linecap:round" transform="translate(208.5714,596.2193)"/>
<path d="M488,400C465.31143,339.5245 389.74184,295.09375 300,295.09375 210.25816,295.09375 134.68857,339.5245 112,400" style="stroke-miterlimit:5.19999981;stroke:#000;stroke-linejoin:round;fill:#00a85a;stroke-width:1.5;stroke-linecap:round" transform="translate(208.5714,596.2193)"/>
<path d="M368.71875,400C333.22955,364.63328 276.06623,341.6875 211.5625,341.6875 147.05876,341.6875 89.864202,364.63328 54.375,400" style="stroke-miterlimit:5.19999981;stroke:#000;stroke-linejoin:round;fill:#00a85a;stroke-width:1.5;stroke-linecap:round" transform="translate(208.5714,596.2193)"/>
<path d="M515.5,400C479.74798,367.90952 425.35072,347.40625 364.40625,347.40625 303.46177,347.40625 249.06452,367.90952 213.3125,400" style="stroke-miterlimit:5.19999981;stroke:#000;stroke-linejoin:round;fill:#00a85a;stroke-width:1.5;stroke-linecap:round" transform="translate(208.5714,596.2193)"/>
<g style="stroke:#000;stroke-width:1.5" transform="translate(.7143,-1.0481)">
<path d="m510.8727,782.23003c-0.23348,-14.97495 9.13495,-15.91654 13.77694,-26.50217 4.64197,-10.58562 4.52175,-20.3647 -10.79361,-23.23594 -30.69816,-1.27696 -15.84876,39.139 -2.98333,49.73811z" style="stroke:#000;fill:#ff0;stroke-width:1.5"/>
<path d="m408.91743,772.97491c10.55872,-10.62153 17.77321,-4.57132 28.59295,-8.63784 10.81974,-4.06653 17.73742,-10.97964 9.10111,-23.94955 -20.51686,-22.87064 -39.08702,15.97655 -37.69406,32.58739z" style="stroke:#000;fill:#ff0;stroke-width:1.5"/>
<path d="m413.96646,689.61247c7.99183,12.66625 16.35088,8.33262 26.02518,14.65809 9.67427,6.32547 14.92018,14.57931 3.66633,25.35682 -25.0056,17.85296 -34.66891,-24.10624 -29.69151,-40.01491z" style="stroke:#000;fill:#ff0;stroke-width:1.5"/>
<g style="stroke:#000;fill:#ff0;stroke-width:1.5" transform="matrix(-.85133,-.52462,-.52462,.85133,1282.4865,471.04967)">
<path d="m511.96429,757.8979c4.0773,-14.41108 13.32146,-12.62231 20.80814,-21.42873 7.48668,-8.80642 10.18016,-18.20802 -3.66529,-25.35699 -29.03805,-10.03992 -26.42208,32.93812 -17.14285,46.78572z" style="stroke:#000;fill:#ff0;stroke-width:1.5"/>
<path d="m511.96429,745.30861c-0.0595,-6.4881 3.66723,-10.43125 5.67037,-15.28842 1.15352,-2.79703 2.77251,-11.77196 6.47248,-7.65801 6.20644,6.90085 -8.86859,15.9159 -12.14285,22.94643z" style="stroke:#000;fill:#ff0;stroke-width:1.5"/>
</g>
<path d="m431.40427,833.1985c4.50242,-14.28395 -4.20643,-17.86308 -5.63034,-29.33372 -1.42392,-11.47065 1.4854,-20.80773 16.98268,-19.18331 29.78328,7.54743 4.00515,42.03573 -11.35234,48.51703z" style="stroke:#000;fill:#ff0;stroke-width:1.5"/>
<path d="m454.08699,798.6586c-0.23348,-14.97495 9.13495,-15.91654 13.77694,-26.50217 4.64197,-10.58562 4.52175,-20.3647 -10.79361,-23.23594 -30.69816,-1.27696 -15.84876,39.139 -2.98333,49.73811z" style="stroke:#000;fill:#ff0;stroke-width:1.5"/>
<g style="stroke:#000;fill:#ff0;stroke-width:1.5" transform="matrix(-.78604,-.61818,-.61818,.78604,1280.0297,553.29367)">
<path d="m511.96429,757.8979c4.0773,-14.41108 13.32146,-12.62231 20.80814,-21.42873 7.48668,-8.80642 10.18016,-18.20802 -3.66529,-25.35699 -29.03805,-10.03992 -26.42208,32.93812 -17.14285,46.78572z" style="stroke:#000;fill:#ff0;stroke-width:1.5"/>
<path d="m511.96429,745.30861c-0.0595,-6.4881 3.66723,-10.43125 5.67037,-15.28842 1.15352,-2.79703 2.77251,-11.77196 6.47248,-7.65801 6.20644,6.90085 -8.86859,15.9159 -12.14285,22.94643z" style="stroke:#000;fill:#ff0;stroke-width:1.5"/>
</g>
<g style="stroke:#000;fill:#ff0;stroke-width:1.5" transform="matrix(-.60761,-.79424,-.79424,.60761,1305.6776,748.14912)">
<path d="m511.96429,757.8979c4.0773,-14.41108 13.32146,-12.62231 20.80814,-21.42873 7.48668,-8.80642 10.18016,-18.20802 -3.66529,-25.35699 -29.03805,-10.03992 -26.42208,32.93812 -17.14285,46.78572z" style="stroke:#000;fill:#ff0;stroke-width:1.5"/>
<path d="m511.96429,745.30861c-0.0595,-6.4881 3.66723,-10.43125 5.67037,-15.28842 1.15352,-2.79703 2.77251,-11.77196 6.47248,-7.65801 6.20644,6.90085 -8.86859,15.9159 -12.14285,22.94643z" style="stroke:#000;fill:#ff0;stroke-width:1.5"/>
</g>
<g style="stroke:#000;fill:#ff0;stroke-width:1.5" transform="matrix(.15441,-.98801,-.98801,-.15441,1044.4453,1393.0338)">
<path d="m511.96429,757.8979c4.0773,-14.41108 13.32146,-12.62231 20.80814,-21.42873 7.48668,-8.80642 10.18016,-18.20802 -3.66529,-25.35699 -29.03805,-10.03992 -26.42208,32.93812 -17.14285,46.78572z" style="stroke:#000;fill:#ff0;stroke-width:1.5"/>
<path d="m511.96429,745.30861c-0.0595,-6.4881 3.66723,-10.43125 5.67037,-15.28842 1.15352,-2.79703 2.77251,-11.77196 6.47248,-7.65801 6.20644,6.90085 -8.86859,15.9159 -12.14285,22.94643z" style="stroke:#000;fill:#ff0;stroke-width:1.5"/>
</g>
<g style="stroke:#000;fill:#ff0;stroke-width:1.5" transform="matrix(.60761,-.79424,.79424,.60761,-287.42721,748.14912)">
<path d="m511.96429,757.8979c4.0773,-14.41108 13.32146,-12.62231 20.80814,-21.42873 7.48668,-8.80642 10.18016,-18.20802 -3.66529,-25.35699 -29.03805,-10.03992 -26.42208,32.93812 -17.14285,46.78572z" style="stroke:#000;fill:#ff0;stroke-width:1.5"/>
<path d="m511.96429,745.30861c-0.0595,-6.4881 3.66723,-10.43125 5.67037,-15.28842 1.15352,-2.79703 2.77251,-11.77196 6.47248,-7.65801 6.20644,6.90085 -8.86859,15.9159 -12.14285,22.94643z" style="stroke:#000;fill:#ff0;stroke-width:1.5"/>
</g>
<path d="m644.45261,771.27011c-14.89938,-1.52034 -14.73832,-10.9346 -24.70806,-16.78331 -9.96975,-5.84873 -19.69574,-6.87358 -24.33928,8.00062 -4.86019,30.33787 37.01567,20.31954 49.04734,8.78269z" style="stroke:#000;fill:#ff0;stroke-width:1.5"/>
<g style="stroke:#000;fill:#ff0;stroke-width:1.5" transform="matrix(.78604,-.61818,.61818,.78604,-262.82105,553.29367)">
<path d="m511.96429,757.8979c4.0773,-14.41108 13.32146,-12.62231 20.80814,-21.42873 7.48668,-8.80642 10.18016,-18.20802 -3.66529,-25.35699 -29.03805,-10.03992 -26.42208,32.93812 -17.14285,46.78572z" style="stroke:#000;fill:#ff0;stroke-width:1.5"/>
<path d="m511.96429,745.30861c-0.0595,-6.4881 3.66723,-10.43125 5.67037,-15.28842 1.15352,-2.79703 2.77251,-11.77196 6.47248,-7.65801 6.20644,6.90085 -8.86859,15.9159 -12.14285,22.94643z" style="stroke:#000;fill:#ff0;stroke-width:1.5"/>
</g>
<g style="stroke:#000;fill:#ff0;stroke-width:1.5" transform="matrix(.82591,-.5638,.5638,.82591,-277.47412,504.30511)">
<path d="m511.96429,757.8979c4.0773,-14.41108 13.32146,-12.62231 20.80814,-21.42873 7.48668,-8.80642 10.18016,-18.20802 -3.66529,-25.35699 -29.03805,-10.03992 -26.42208,32.93812 -17.14285,46.78572z" style="stroke:#000;fill:#ff0;stroke-width:1.5"/>
<path d="m511.96429,745.30861c-0.0595,-6.4881 3.66723,-10.43125 5.67037,-15.28842 1.15352,-2.79703 2.77251,-11.77196 6.47248,-7.65801 6.20644,6.90085 -8.86859,15.9159 -12.14285,22.94643z" style="stroke:#000;fill:#ff0;stroke-width:1.5"/>
</g>
<g style="stroke:#000;fill:#ff0;stroke-width:1.5" transform="matrix(.77886,-.6272,.6272,.77886,-325.01532,570.98631)">
<path d="m511.96429,757.8979c4.0773,-14.41108 13.32146,-12.62231 20.80814,-21.42873 7.48668,-8.80642 10.18016,-18.20802 -3.66529,-25.35699 -29.03805,-10.03992 -26.42208,32.93812 -17.14285,46.78572z" style="stroke:#000;fill:#ff0;stroke-width:1.5"/>
<path d="m511.96429,745.30861c-0.0595,-6.4881 3.66723,-10.43125 5.67037,-15.28842 1.15352,-2.79703 2.77251,-11.77196 6.47248,-7.65801 6.20644,6.90085 -8.86859,15.9159 -12.14285,22.94643z" style="stroke:#000;fill:#ff0;stroke-width:1.5"/>
</g>
<g style="stroke:#000;fill:#ff0;stroke-width:1.5" transform="matrix(.87178,-.48989,.48989,.87178,-258.42725,408.47551)">
<path d="m511.96429,757.8979c4.0773,-14.41108 13.32146,-12.62231 20.80814,-21.42873 7.48668,-8.80642 10.18016,-18.20802 -3.66529,-25.35699 -29.03805,-10.03992 -26.42208,32.93812 -17.14285,46.78572z" style="stroke:#000;fill:#ff0;stroke-width:1.5"/>
<path d="m511.96429,745.30861c-0.0595,-6.4881 3.66723,-10.43125 5.67037,-15.28842 1.15352,-2.79703 2.77251,-11.77196 6.47248,-7.65801 6.20644,6.90085 -8.86859,15.9159 -12.14285,22.94643z" style="stroke:#000;fill:#ff0;stroke-width:1.5"/>
</g>
<path d="m535.18079,839.31287c-1.90821,-14.85469 7.29596,-16.83902 10.72388,-27.87771 3.42793,-11.03869 2.21386,-20.74287 -13.32665,-21.88175 -30.64818,2.1672 -11.3682,40.66704 2.60277,49.75946z" style="stroke:#000;fill:#ff0;stroke-width:1.5"/>
<path d="m585.62286,833.79957c-3.35138,-14.59696 5.61469,-17.47166 7.94695,-28.7926 2.33228,-11.32095 0.17526,-20.85995 -15.40214,-20.474 -30.28947,5.15324 -7.33779,41.58366 7.45519,49.2666z" style="stroke:#000;fill:#ff0;stroke-width:1.5"/>
<g style="stroke:#000;fill:#ff0;stroke-width:1.5" transform="matrix(.78604,-.61818,.61818,.78604,-262.82105,553.29367)">
<path d="m511.96429,757.8979c4.0773,-14.41108 13.32146,-12.62231 20.80814,-21.42873 7.48668,-8.80642 10.18016,-18.20802 -3.66529,-25.35699 -29.03805,-10.03992 -26.42208,32.93812 -17.14285,46.78572z" style="stroke:#000;fill:#ff0;stroke-width:1.5"/>
<path d="m511.96429,745.30861c-0.0595,-6.4881 3.66723,-10.43125 5.67037,-15.28842 1.15352,-2.79703 2.77251,-11.77196 6.47248,-7.65801 6.20644,6.90085 -8.86859,15.9159 -12.14285,22.94643z" style="stroke:#000;fill:#ff0;stroke-width:1.5"/>
</g>
<g style="stroke:#000;fill:#ff0;stroke-width:1.5" transform="matrix(.61219,-.79071,.79071,.61219,-321.28601,739.9776)">
<path d="m511.96429,757.8979c4.0773,-14.41108 13.32146,-12.62231 20.80814,-21.42873 7.48668,-8.80642 10.18016,-18.20802 -3.66529,-25.35699 -29.03805,-10.03992 -26.42208,32.93812 -17.14285,46.78572z" style="stroke:#000;fill:#ff0;stroke-width:1.5"/>
<path d="m511.96429,745.30861c-0.0595,-6.4881 3.66723,-10.43125 5.67037,-15.28842 1.15352,-2.79703 2.77251,-11.77196 6.47248,-7.65801 6.20644,6.90085 -8.86859,15.9159 -12.14285,22.94643z" style="stroke:#000;fill:#ff0;stroke-width:1.5"/>
</g>
<g style="stroke:#000;fill:#ff0;stroke-width:1.5" transform="matrix(.61219,-.79071,.79071,.61219,-310.92887,732.12046)">
<path d="m511.96429,757.8979c4.0773,-14.41108 13.32146,-12.62231 20.80814,-21.42873 7.48668,-8.80642 10.18016,-18.20802 -3.66529,-25.35699 -29.03805,-10.03992 -26.42208,32.93812 -17.14285,46.78572z" style="stroke:#000;fill:#ff0;stroke-width:1.5"/>
<path d="m511.96429,745.30861c-0.0595,-6.4881 3.66723,-10.43125 5.67037,-15.28842 1.15352,-2.79703 2.77251,-11.77196 6.47248,-7.65801 6.20644,6.90085 -8.86859,15.9159 -12.14285,22.94643z" style="stroke:#000;fill:#ff0;stroke-width:1.5"/>
</g>
<g style="stroke:#000;fill:#ff0;stroke-width:1.5" transform="matrix(-.64825,-.76143,.76143,-.64825,399.80275,1615.6841)">
<path d="m511.96429,757.8979c4.0773,-14.41108 13.32146,-12.62231 20.80814,-21.42873 7.48668,-8.80642 10.18016,-18.20802 -3.66529,-25.35699 -29.03805,-10.03992 -26.42208,32.93812 -17.14285,46.78572z" style="stroke:#000;fill:#ff0;stroke-width:1.5"/>
<path d="m511.96429,745.30861c-0.0595,-6.4881 3.66723,-10.43125 5.67037,-15.28842 1.15352,-2.79703 2.77251,-11.77196 6.47248,-7.65801 6.20644,6.90085 -8.86859,15.9159 -12.14285,22.94643z" style="stroke:#000;fill:#ff0;stroke-width:1.5"/>
</g>
<g style="stroke:#000;fill:#ff0;stroke-width:1.5" transform="matrix(-.13461,-.9909,.9909,-.13461,-60.25364,1370.4408)">
<path d="m511.96429,757.8979c4.0773,-14.41108 13.32146,-12.62231 20.80814,-21.42873 7.48668,-8.80642 10.18016,-18.20802 -3.66529,-25.35699 -29.03805,-10.03992 -26.42208,32.93812 -17.14285,46.78572z" style="stroke:#000;fill:#ff0;stroke-width:1.5"/>
<path d="m511.96429,745.30861c-0.0595,-6.4881 3.66723,-10.43125 5.67037,-15.28842 1.15352,-2.79703 2.77251,-11.77196 6.47248,-7.65801 6.20644,6.90085 -8.86859,15.9159 -12.14285,22.94643z" style="stroke:#000;fill:#ff0;stroke-width:1.5"/>
</g>
<path d="m647.36645,715.77516c-14.83809,2.03323 -14.35248,11.43634 -24.11461,17.62538 -9.76212,6.18904 -19.44699,7.54868 -24.6007,-7.15654 -5.90348,-30.15223 36.29296,-21.58392 48.71531,-10.46884z" style="stroke:#000;fill:#ff0;stroke-width:1.5"/>
<g style="stroke:#000;fill:#ff0;stroke-width:1.5" transform="matrix(-.78805,-.61562,.61562,-.78805,556.04111,1635.7405)">
<path d="m511.96429,757.8979c4.0773,-14.41108 13.32146,-12.62231 20.80814,-21.42873 7.48668,-8.80642 10.18016,-18.20802 -3.66529,-25.35699 -29.03805,-10.03992 -26.42208,32.93812 -17.14285,46.78572z" style="stroke:#000;fill:#ff0;stroke-width:1.5"/>
<path d="m511.96429,745.30861c-0.0595,-6.4881 3.66723,-10.43125 5.67037,-15.28842 1.15352,-2.79703 2.77251,-11.77196 6.47248,-7.65801 6.20644,6.90085 -8.86859,15.9159 -12.14285,22.94643z" style="stroke:#000;fill:#ff0;stroke-width:1.5"/>
</g>
<g style="stroke:#000;fill:#ff0;stroke-width:1.5" transform="matrix(-.98717,-.15968,.15968,-.98717,998.43113,1498.2314)">
<path d="m511.96429,757.8979c4.0773,-14.41108 13.32146,-12.62231 20.80814,-21.42873 7.48668,-8.80642 10.18016,-18.20802 -3.66529,-25.35699 -29.03805,-10.03992 -26.42208,32.93812 -17.14285,46.78572z" style="stroke:#000;fill:#ff0;stroke-width:1.5"/>
<path d="m511.96429,745.30861c-0.0595,-6.4881 3.66723,-10.43125 5.67037,-15.28842 1.15352,-2.79703 2.77251,-11.77196 6.47248,-7.65801 6.20644,6.90085 -8.86859,15.9159 -12.14285,22.94643z" style="stroke:#000;fill:#ff0;stroke-width:1.5"/>
</g>
<g style="stroke:#000;fill:#ff0;stroke-width:1.5" transform="matrix(-.90488,-.42566,.42566,-.90488,751.82366,1604.4407)">
<path d="m511.96429,757.8979c4.0773,-14.41108 13.32146,-12.62231 20.80814,-21.42873 7.48668,-8.80642 10.18016,-18.20802 -3.66529,-25.35699 -29.03805,-10.03992 -26.42208,32.93812 -17.14285,46.78572z" style="stroke:#000;fill:#ff0;stroke-width:1.5"/>
<path d="m511.96429,745.30861c-0.0595,-6.4881 3.66723,-10.43125 5.67037,-15.28842 1.15352,-2.79703 2.77251,-11.77196 6.47248,-7.65801 6.20644,6.90085 -8.86859,15.9159 -12.14285,22.94643z" style="stroke:#000;fill:#ff0;stroke-width:1.5"/>
</g>
<path d="m588.20866,645.79597c-2.96986,14.67934 -12.32326,13.59857 -19.11876,22.94869 -6.79548,9.35011 -8.76639,18.9293 5.58251,25.00492 29.7173,7.8032 23.84141,-34.85156 13.53625,-47.95361z" style="stroke:#000;fill:#ff0;stroke-width:1.5"/>
<g style="stroke:#000;fill:#ff0;stroke-width:1.5" transform="matrix(-.89794,-.44013,.44013,-.89794,727.14459,1589.3157)">
<path d="m511.96429,757.8979c4.0773,-14.41108 13.32146,-12.62231 20.80814,-21.42873 7.48668,-8.80642 10.18016,-18.20802 -3.66529,-25.35699 -29.03805,-10.03992 -26.42208,32.93812 -17.14285,46.78572z" style="stroke:#000;fill:#ff0;stroke-width:1.5"/>
<path d="m511.96429,745.30861c-0.0595,-6.4881 3.66723,-10.43125 5.67037,-15.28842 1.15352,-2.79703 2.77251,-11.77196 6.47248,-7.65801 6.20644,6.90085 -8.86859,15.9159 -12.14285,22.94643z" style="stroke:#000;fill:#ff0;stroke-width:1.5"/>
</g>
<g style="stroke:#000;fill:#ff0;stroke-width:1.5" transform="matrix(-.98119,.19304,-.19304,-.98119,1215.6736,1279.4996)">
<path d="m511.96429,757.8979c4.0773,-14.41108 13.32146,-12.62231 20.80814,-21.42873 7.48668,-8.80642 10.18016,-18.20802 -3.66529,-25.35699 -29.03805,-10.03992 -26.42208,32.93812 -17.14285,46.78572z" style="stroke:#000;fill:#ff0;stroke-width:1.5"/>
<path d="m511.96429,745.30861c-0.0595,-6.4881 3.66723,-10.43125 5.67037,-15.28842 1.15352,-2.79703 2.77251,-11.77196 6.47248,-7.65801 6.20644,6.90085 -8.86859,15.9159 -12.14285,22.94643z" style="stroke:#000;fill:#ff0;stroke-width:1.5"/>
</g>
<path d="m573.2279,665.20321c-4.14006,14.39316 -13.37633,12.56413 -20.90134,21.33784 -7.52498,8.77369 -10.25941,18.16349 3.55476,25.3727 28.994,10.1664 26.56537,-32.82263 17.34658,-46.71054z" style="stroke:#000;fill:#ff0;stroke-width:1.5"/>
<g style="stroke:#000;fill:#ff0;stroke-width:1.5" transform="matrix(.62876,.7776,.7776,-.62876,-350.01715,707.33279)">
<path d="m511.96429,757.8979c4.0773,-14.41108 13.32146,-12.62231 20.80814,-21.42873 7.48668,-8.80642 10.18016,-18.20802 -3.66529,-25.35699 -29.03805,-10.03992 -26.42208,32.93812 -17.14285,46.78572z" style="stroke:#000;fill:#ff0;stroke-width:1.5"/>
<path d="m511.96429,745.30861c-0.0595,-6.4881 3.66723,-10.43125 5.67037,-15.28842 1.15352,-2.79703 2.77251,-11.77196 6.47248,-7.65801 6.20644,6.90085 -8.86859,15.9159 -12.14285,22.94643z" style="stroke:#000;fill:#ff0;stroke-width:1.5"/>
</g>
<path d="m554.33866,653.30932c-5.32573,13.99784 -14.37733,11.40508 -22.60767,19.5208 -8.23033,8.11572 -11.73816,17.24483 1.42682,25.58076 28.04539,12.54847 29.20959,-30.49337 21.18085,-45.10156z" style="stroke:#000;fill:#ff0;stroke-width:1.5"/>
<g style="stroke:#000;fill:#ff0;stroke-width:1.5" transform="matrix(.34842,.93734,.93734,-.34842,-315.67215,467.10157)">
<path d="m511.96429,757.8979c4.0773,-14.41108 13.32146,-12.62231 20.80814,-21.42873 7.48668,-8.80642 10.18016,-18.20802 -3.66529,-25.35699 -29.03805,-10.03992 -26.42208,32.93812 -17.14285,46.78572z" style="stroke:#000;fill:#ff0;stroke-width:1.5"/>
<path d="m511.96429,745.30861c-0.0595,-6.4881 3.66723,-10.43125 5.67037,-15.28842 1.15352,-2.79703 2.77251,-11.77196 6.47248,-7.65801 6.20644,6.90085 -8.86859,15.9159 -12.14285,22.94643z" style="stroke:#000;fill:#ff0;stroke-width:1.5"/>
</g>
<g style="stroke:#000;fill:#ff0;stroke-width:1.5" transform="matrix(.18321,.98307,.98307,-.18321,-244.96131,336.56892)">
<path d="m511.96429,757.8979c4.0773,-14.41108 13.32146,-12.62231 20.80814,-21.42873 7.48668,-8.80642 10.18016,-18.20802 -3.66529,-25.35699 -29.03805,-10.03992 -26.42208,32.93812 -17.14285,46.78572z" style="stroke:#000;fill:#ff0;stroke-width:1.5"/>
<path d="m511.96429,745.30861c-0.0595,-6.4881 3.66723,-10.43125 5.67037,-15.28842 1.15352,-2.79703 2.77251,-11.77196 6.47248,-7.65801 6.20644,6.90085 -8.86859,15.9159 -12.14285,22.94643z" style="stroke:#000;fill:#ff0;stroke-width:1.5"/>
</g>
<path d="m593.29738,721.87497c-12.49254,8.26073 -7.98125,16.52525 -14.09851,26.33253 -6.11725,9.80726 -14.25708,15.22839 -25.27267,4.20745 -18.38332,-24.6183 23.35976,-35.17621 39.37118,-30.53998z" style="stroke:#000;fill:#ff0;stroke-width:1.5"/>
<g style="stroke:#000;fill:#ff0;stroke-width:1.5" transform="matrix(-.65479,.75581,.75581,.65479,356.75732,-124.53274)">
<path d="m511.96429,757.8979c4.0773,-14.41108 13.32146,-12.62231 20.80814,-21.42873 7.48668,-8.80642 10.18016,-18.20802 -3.66529,-25.35699 -29.03805,-10.03992 -26.42208,32.93812 -17.14285,46.78572z" style="stroke:#000;fill:#ff0;stroke-width:1.5"/>
<path d="m511.96429,745.30861c-0.0595,-6.4881 3.66723,-10.43125 5.67037,-15.28842 1.15352,-2.79703 2.77251,-11.77196 6.47248,-7.65801 6.20644,6.90085 -8.86859,15.9159 -12.14285,22.94643z" style="stroke:#000;fill:#ff0;stroke-width:1.5"/>
</g>
<path d="m569.94374,784.07159c-7.03987,-13.21906 -15.69466,-9.51111 -24.87819,-16.5301 -9.18354,-7.01898 -13.80901,-15.63582 -1.79393,-25.55763 26.24939,-15.96802 32.80461,26.58764 26.67212,42.08773z" style="stroke:#000;fill:#ff0;stroke-width:1.5"/>
<g style="stroke:#000;fill:#ff0;stroke-width:1.5" transform="matrix(-1,0,0,1,1061.7401,38.97228)">
<path d="m511.96429,757.8979c4.0773,-14.41108 13.32146,-12.62231 20.80814,-21.42873 7.48668,-8.80642 10.18016,-18.20802 -3.66529,-25.35699 -29.03805,-10.03992 -26.42208,32.93812 -17.14285,46.78572z" style="stroke:#000;fill:#ff0;stroke-width:1.5"/>
<path d="m511.96429,745.30861c-0.0595,-6.4881 3.66723,-10.43125 5.67037,-15.28842 1.15352,-2.79703 2.77251,-11.77196 6.47248,-7.65801 6.20644,6.90085 -8.86859,15.9159 -12.14285,22.94643z" style="stroke:#000;fill:#ff0;stroke-width:1.5"/>
</g>
<path d="m492.06036,794.76324 6.83908,8.8125 -0.85847,28.5625c-2.5926,19.84376 -4.59177,39.0756 -11.33167,63.125 6.94081,6.82344 14.37083,5.6875 21.86213,5.6875 7.49129,0 14.92132,1.13594 21.86212,-5.6875 -6.7399,-24.0494 -8.73906,-43.28124 -11.33167,-63.125l-0.85847,-28.5625 6.83908,-8.8125 -16.3966,0 -0.22892,0z" style="stroke:#000;fill:#ff0;stroke-width:1.5"/>
<g style="stroke:#000;fill:#ff0;stroke-width:1.5" transform="matrix(-1,0,0,1,1029.9808,56.72545)">
<path d="m511.96429,757.8979c4.0773,-14.41108 13.32146,-12.62231 20.80814,-21.42873 7.48668,-8.80642 10.18016,-18.20802 -3.66529,-25.35699 -29.03805,-10.03992 -26.42208,32.93812 -17.14285,46.78572z" style="stroke:#000;fill:#ff0;stroke-width:1.5"/>
<path d="m511.96429,745.30861c-0.0595,-6.4881 3.66723,-10.43125 5.67037,-15.28842 1.15352,-2.79703 2.77251,-11.77196 6.47248,-7.65801 6.20644,6.90085 -8.86859,15.9159 -12.14285,22.94643z" style="stroke:#000;fill:#ff0;stroke-width:1.5"/>
</g>
<g style="stroke:#000;fill:#ff0;stroke-width:1.5" transform="matrix(-1,0,0,1,1046.5879,51.72545)">
<path d="m511.96429,757.8979c4.0773,-14.41108 13.32146,-12.62231 20.80814,-21.42873 7.48668,-8.80642 10.18016,-18.20802 -3.66529,-25.35699 -29.03805,-10.03992 -26.42208,32.93812 -17.14285,46.78572z" style="stroke:#000;fill:#ff0;stroke-width:1.5"/>
<path d="m511.96429,745.30861c-0.0595,-6.4881 3.66723,-10.43125 5.67037,-15.28842 1.15352,-2.79703 2.77251,-11.77196 6.47248,-7.65801 6.20644,6.90085 -8.86859,15.9159 -12.14285,22.94643z" style="stroke:#000;fill:#ff0;stroke-width:1.5"/>
</g>
<path d="m527.01766,781.16073c-1.771,-14.87169 7.45109,-16.77096 10.98077,-27.77754 3.52967,-11.00658 2.40523,-20.72154 -13.1241,-22.00384 -30.66688,1.88421 -11.74311,40.56037 2.14333,49.78138z" style="stroke:#000;fill:#ff0;stroke-width:1.5"/>
<path d="m550.01213,765.49215c-3.82704,-14.47954 -13.10081,-12.85117 -20.43382,-21.78595 -7.33302,-8.93478 -9.86324,-18.38163 4.10398,-25.28969 29.20759,-9.53542 25.84755,33.39085 16.32984,47.07564z" style="stroke:#000;fill:#ff0;stroke-width:1.5"/>
<path d="m548.49775,622.21685c-9.53473,11.54955 -2.8061,18.13586 -5.79183,29.30228 -2.98574,11.1664 -9.18704,18.72876 -22.94146,11.40616 -24.77263,-18.17482 12.06593,-40.46552 28.73329,-40.70844z" style="stroke:#000;fill:#ff0;stroke-width:1.5"/>
<path d="m373.17481,732.65962c13.83812,5.72796 18.16129,-2.63651 29.71234,-3.05716 11.55102,-0.42064 20.59962,3.28992 17.63319,18.58712 -10.10977,29.01379 -42.2248,0.33314 -47.34553,-15.52996z" style="stroke:#000;fill:#ff0;stroke-width:1.5"/>
<g style="stroke:#000;fill:#ff0;stroke-width:1.5" transform="matrix(.18921,.98194,-.98194,.18921,1017.1185,68.90195)">
<path d="m511.96429,757.8979c4.0773,-14.41108 13.32146,-12.62231 20.80814,-21.42873 7.48668,-8.80642 10.18016,-18.20802 -3.66529,-25.35699 -29.03805,-10.03992 -26.42208,32.93812 -17.14285,46.78572z" style="stroke:#000;fill:#ff0;stroke-width:1.5"/>
<path d="m511.96429,745.30861c-0.0595,-6.4881 3.66723,-10.43125 5.67037,-15.28842 1.15352,-2.79703 2.77251,-11.77196 6.47248,-7.65801 6.20644,6.90085 -8.86859,15.9159 -12.14285,22.94643z" style="stroke:#000;fill:#ff0;stroke-width:1.5"/>
</g>
<g style="stroke:#000;fill:#ff0;stroke-width:1.5" transform="matrix(.98717,-.15968,-.15968,-.98717,20.80857,1496.7161)">
<path d="m511.96429,757.8979c4.0773,-14.41108 13.32146,-12.62231 20.80814,-21.42873 7.48668,-8.80642 10.18016,-18.20802 -3.66529,-25.35699 -29.03805,-10.03992 -26.42208,32.93812 -17.14285,46.78572z" style="stroke:#000;fill:#ff0;stroke-width:1.5"/>
<path d="m511.96429,745.30861c-0.0595,-6.4881 3.66723,-10.43125 5.67037,-15.28842 1.15352,-2.79703 2.77251,-11.77196 6.47248,-7.65801 6.20644,6.90085 -8.86859,15.9159 -12.14285,22.94643z" style="stroke:#000;fill:#ff0;stroke-width:1.5"/>
</g>
<path d="m430.3482,645.54343c2.96986,14.67934 12.32326,13.59857 19.11876,22.94869 6.79548,9.35011 8.76639,18.9293 -5.58251,25.00492 -29.7173,7.8032 -23.84141,-34.85156 -13.53625,-47.95361z" style="stroke:#000;fill:#ff0;stroke-width:1.5"/>
<g style="stroke:#000;fill:#ff0;stroke-width:1.5" transform="matrix(.97613,.21717,.21717,-.97613,-212.06599,1261.8899)">
<path d="m511.96429,757.8979c4.0773,-14.41108 13.32146,-12.62231 20.80814,-21.42873 7.48668,-8.80642 10.18016,-18.20802 -3.66529,-25.35699 -29.03805,-10.03992 -26.42208,32.93812 -17.14285,46.78572z" style="stroke:#000;fill:#ff0;stroke-width:1.5"/>
<path d="m511.96429,745.30861c-0.0595,-6.4881 3.66723,-10.43125 5.67037,-15.28842 1.15352,-2.79703 2.77251,-11.77196 6.47248,-7.65801 6.20644,6.90085 -8.86859,15.9159 -12.14285,22.94643z" style="stroke:#000;fill:#ff0;stroke-width:1.5"/>
</g>
<g style="stroke:#000;fill:#ff0;stroke-width:1.5" transform="matrix(-.52416,.85162,-.85162,-.52416,1385.0072,583.01568)">
<path d="m511.96429,757.8979c4.0773,-14.41108 13.32146,-12.62231 20.80814,-21.42873 7.48668,-8.80642 10.18016,-18.20802 -3.66529,-25.35699 -29.03805,-10.03992 -26.42208,32.93812 -17.14285,46.78572z" style="stroke:#000;fill:#ff0;stroke-width:1.5"/>
<path d="m511.96429,745.30861c-0.0595,-6.4881 3.66723,-10.43125 5.67037,-15.28842 1.15352,-2.79703 2.77251,-11.77196 6.47248,-7.65801 6.20644,6.90085 -8.86859,15.9159 -12.14285,22.94643z" style="stroke:#000;fill:#ff0;stroke-width:1.5"/>
</g>
<g style="stroke:#000;fill:#ff0;stroke-width:1.5" transform="matrix(.95788,.28716,.28716,-.95788,-196.08453,1188.3682)">
<path d="m511.96429,757.8979c4.0773,-14.41108 13.32146,-12.62231 20.80814,-21.42873 7.48668,-8.80642 10.18016,-18.20802 -3.66529,-25.35699 -29.03805,-10.03992 -26.42208,32.93812 -17.14285,46.78572z" style="stroke:#000;fill:#ff0;stroke-width:1.5"/>
<path d="m511.96429,745.30861c-0.0595,-6.4881 3.66723,-10.43125 5.67037,-15.28842 1.15352,-2.79703 2.77251,-11.77196 6.47248,-7.65801 6.20644,6.90085 -8.86859,15.9159 -12.14285,22.94643z" style="stroke:#000;fill:#ff0;stroke-width:1.5"/>
</g>
<g style="stroke:#000;fill:#ff0;stroke-width:1.5" transform="matrix(-.59216,.80582,-.80582,-.59216,1403.0789,683.77159)">
<path d="m511.96429,757.8979c4.0773,-14.41108 13.32146,-12.62231 20.80814,-21.42873 7.48668,-8.80642 10.18016,-18.20802 -3.66529,-25.35699 -29.03805,-10.03992 -26.42208,32.93812 -17.14285,46.78572z" style="stroke:#000;fill:#ff0;stroke-width:1.5"/>
<path d="m511.96429,745.30861c-0.0595,-6.4881 3.66723,-10.43125 5.67037,-15.28842 1.15352,-2.79703 2.77251,-11.77196 6.47248,-7.65801 6.20644,6.90085 -8.86859,15.9159 -12.14285,22.94643z" style="stroke:#000;fill:#ff0;stroke-width:1.5"/>
</g>
<g style="stroke:#000;fill:#ff0;stroke-width:1.5" transform="matrix(.60011,.79992,.79992,-.60011,-373.00144,698.35339)">
<path d="m511.96429,757.8979c4.0773,-14.41108 13.32146,-12.62231 20.80814,-21.42873 7.48668,-8.80642 10.18016,-18.20802 -3.66529,-25.35699 -29.03805,-10.03992 -26.42208,32.93812 -17.14285,46.78572z" style="stroke:#000;fill:#ff0;stroke-width:1.5"/>
<path d="m511.96429,745.30861c-0.0595,-6.4881 3.66723,-10.43125 5.67037,-15.28842 1.15352,-2.79703 2.77251,-11.77196 6.47248,-7.65801 6.20644,6.90085 -8.86859,15.9159 -12.14285,22.94643z" style="stroke:#000;fill:#ff0;stroke-width:1.5"/>
</g>
<path d="m455.88548,628.27776c9.53473,11.54955 2.8061,18.13586 5.79183,29.30228 2.98574,11.1664 9.18704,18.72876 22.94146,11.40616 24.77263,-18.17482 -12.06593,-40.46552 -28.73329,-40.70844z" style="stroke:#000;fill:#ff0;stroke-width:1.5"/>
<g style="stroke:#000;fill:#ff0;stroke-width:1.5" transform="matrix(.98631,-.16493,-.16493,-.98631,96.38637,1475.8399)">
<path d="m511.96429,757.8979c4.0773,-14.41108 13.32146,-12.62231 20.80814,-21.42873 7.48668,-8.80642 10.18016,-18.20802 -3.66529,-25.35699 -29.03805,-10.03992 -26.42208,32.93812 -17.14285,46.78572z" style="stroke:#000;fill:#ff0;stroke-width:1.5"/>
<path d="m511.96429,745.30861c-0.0595,-6.4881 3.66723,-10.43125 5.67037,-15.28842 1.15352,-2.79703 2.77251,-11.77196 6.47248,-7.65801 6.20644,6.90085 -8.86859,15.9159 -12.14285,22.94643z" style="stroke:#000;fill:#ff0;stroke-width:1.5"/>
</g>
<g style="stroke:#000;fill:#ff0;stroke-width:1.5" transform="matrix(.96761,-.25245,-.25245,-.96761,153.5443,1516.4722)">
<path d="m511.96429,757.8979c4.0773,-14.41108 13.32146,-12.62231 20.80814,-21.42873 7.48668,-8.80642 10.18016,-18.20802 -3.66529,-25.35699 -29.03805,-10.03992 -26.42208,32.93812 -17.14285,46.78572z" style="stroke:#000;fill:#ff0;stroke-width:1.5"/>
<path d="m511.96429,745.30861c-0.0595,-6.4881 3.66723,-10.43125 5.67037,-15.28842 1.15352,-2.79703 2.77251,-11.77196 6.47248,-7.65801 6.20644,6.90085 -8.86859,15.9159 -12.14285,22.94643z" style="stroke:#000;fill:#ff0;stroke-width:1.5"/>
</g>
<g style="stroke:#000;fill:#ff0;stroke-width:1.5" transform="matrix(.98865,.15024,.15024,-.98865,-133.94214,1339.8482)">
<path d="m511.96429,757.8979c4.0773,-14.41108 13.32146,-12.62231 20.80814,-21.42873 7.48668,-8.80642 10.18016,-18.20802 -3.66529,-25.35699 -29.03805,-10.03992 -26.42208,32.93812 -17.14285,46.78572z" style="stroke:#000;fill:#ff0;stroke-width:1.5"/>
<path d="m511.96429,745.30861c-0.0595,-6.4881 3.66723,-10.43125 5.67037,-15.28842 1.15352,-2.79703 2.77251,-11.77196 6.47248,-7.65801 6.20644,6.90085 -8.86859,15.9159 -12.14285,22.94643z" style="stroke:#000;fill:#ff0;stroke-width:1.5"/>
</g>
<g style="stroke:#000;fill:#ff0;stroke-width:1.5" transform="matrix(.93906,-.34376,-.34376,-.93906,219.97481,1555.4639)">
<path d="m511.96429,757.8979c4.0773,-14.41108 13.32146,-12.62231 20.80814,-21.42873 7.48668,-8.80642 10.18016,-18.20802 -3.66529,-25.35699 -29.03805,-10.03992 -26.42208,32.93812 -17.14285,46.78572z" style="stroke:#000;fill:#ff0;stroke-width:1.5"/>
<path d="m511.96429,745.30861c-0.0595,-6.4881 3.66723,-10.43125 5.67037,-15.28842 1.15352,-2.79703 2.77251,-11.77196 6.47248,-7.65801 6.20644,6.90085 -8.86859,15.9159 -12.14285,22.94643z" style="stroke:#000;fill:#ff0;stroke-width:1.5"/>
</g>
<path d="m419.20118,690.67934c13.99379,5.33636 18.07993,-3.14642 29.61456,-3.89189 11.53462,-0.74546 20.68403,2.70906 18.14915,18.08366 -9.28948,29.28675 -42.1987,1.52099 -47.76371,-14.19177z" style="stroke:#000;fill:#ff0;stroke-width:1.5"/>
<g style="stroke:#000;fill:#ff0;stroke-width:1.5" transform="matrix(-.13486,-.99086,-.99086,.13486,1217.543,1149.6833)">
<path d="m511.96429,757.8979c4.0773,-14.41108 13.32146,-12.62231 20.80814,-21.42873 7.48668,-8.80642 10.18016,-18.20802 -3.66529,-25.35699 -29.03805,-10.03992 -26.42208,32.93812 -17.14285,46.78572z" style="stroke:#000;fill:#ff0;stroke-width:1.5"/>
<path d="m511.96429,745.30861c-0.0595,-6.4881 3.66723,-10.43125 5.67037,-15.28842 1.15352,-2.79703 2.77251,-11.77196 6.47248,-7.65801 6.20644,6.90085 -8.86859,15.9159 -12.14285,22.94643z" style="stroke:#000;fill:#ff0;stroke-width:1.5"/>
</g>
<g style="stroke:#000;fill:#ff0;stroke-width:1.5" transform="matrix(-.65837,-.7527,-.7527,.65837,1322.4044,694.96808)">
<path d="m511.96429,757.8979c4.0773,-14.41108 13.32146,-12.62231 20.80814,-21.42873 7.48668,-8.80642 10.18016,-18.20802 -3.66529,-25.35699 -29.03805,-10.03992 -26.42208,32.93812 -17.14285,46.78572z" style="stroke:#000;fill:#ff0;stroke-width:1.5"/>
<path d="m511.96429,745.30861c-0.0595,-6.4881 3.66723,-10.43125 5.67037,-15.28842 1.15352,-2.79703 2.77251,-11.77196 6.47248,-7.65801 6.20644,6.90085 -8.86859,15.9159 -12.14285,22.94643z" style="stroke:#000;fill:#ff0;stroke-width:1.5"/>
</g>
<g style="stroke:#000;fill:#ff0;stroke-width:1.5" transform="matrix(-.09692,-.99529,-.99529,.09692,1220.595,1206.9502)">
<path d="m511.96429,757.8979c4.0773,-14.41108 13.32146,-12.62231 20.80814,-21.42873 7.48668,-8.80642 10.18016,-18.20802 -3.66529,-25.35699 -29.03805,-10.03992 -26.42208,32.93812 -17.14285,46.78572z" style="stroke:#000;fill:#ff0;stroke-width:1.5"/>
<path d="m511.96429,745.30861c-0.0595,-6.4881 3.66723,-10.43125 5.67037,-15.28842 1.15352,-2.79703 2.77251,-11.77196 6.47248,-7.65801 6.20644,6.90085 -8.86859,15.9159 -12.14285,22.94643z" style="stroke:#000;fill:#ff0;stroke-width:1.5"/>
</g>
<path d="m475.13877,841.46724c3.77798,-14.49241 -5.09994,-17.62878 -7.09924,-29.01325 -1.99931,-11.38447 0.43649,-20.85611 15.99588,-20.01356 30.12534,6.03921 6.11528,41.78095 -8.89664,49.02681z" style="stroke:#000;fill:#ff0;stroke-width:1.5"/>
<g style="stroke:#000;fill:#ff0;stroke-width:1.5" transform="matrix(-.39631,-.91812,-.91812,.39631,1336.7627,982.99878)">
<path d="m511.96429,757.8979c4.0773,-14.41108 13.32146,-12.62231 20.80814,-21.42873 7.48668,-8.80642 10.18016,-18.20802 -3.66529,-25.35699 -29.03805,-10.03992 -26.42208,32.93812 -17.14285,46.78572z" style="stroke:#000;fill:#ff0;stroke-width:1.5"/>
<path d="m511.96429,745.30861c-0.0595,-6.4881 3.66723,-10.43125 5.67037,-15.28842 1.15352,-2.79703 2.77251,-11.77196 6.47248,-7.65801 6.20644,6.90085 -8.86859,15.9159 -12.14285,22.94643z" style="stroke:#000;fill:#ff0;stroke-width:1.5"/>
</g>
<g style="stroke:#000;fill:#ff0;stroke-width:1.5" transform="matrix(-.88133,-.47251,-.47251,.88133,1280.234,388.58968)">
<path d="m511.96429,757.8979c4.0773,-14.41108 13.32146,-12.62231 20.80814,-21.42873 7.48668,-8.80642 10.18016,-18.20802 -3.66529,-25.35699 -29.03805,-10.03992 -26.42208,32.93812 -17.14285,46.78572z" style="stroke:#000;fill:#ff0;stroke-width:1.5"/>
<path d="m511.96429,745.30861c-0.0595,-6.4881 3.66723,-10.43125 5.67037,-15.28842 1.15352,-2.79703 2.77251,-11.77196 6.47248,-7.65801 6.20644,6.90085 -8.86859,15.9159 -12.14285,22.94643z" style="stroke:#000;fill:#ff0;stroke-width:1.5"/>
</g>
<g style="stroke:#000;fill:#ff0;stroke-width:1.5" transform="matrix(-.69243,-.72148,-.72148,.69243,1351.2103,630.25143)">
<path d="m511.96429,757.8979c4.0773,-14.41108 13.32146,-12.62231 20.80814,-21.42873 7.48668,-8.80642 10.18016,-18.20802 -3.66529,-25.35699 -29.03805,-10.03992 -26.42208,32.93812 -17.14285,46.78572z" style="stroke:#000;fill:#ff0;stroke-width:1.5"/>
<path d="m511.96429,745.30861c-0.0595,-6.4881 3.66723,-10.43125 5.67037,-15.28842 1.15352,-2.79703 2.77251,-11.77196 6.47248,-7.65801 6.20644,6.90085 -8.86859,15.9159 -12.14285,22.94643z" style="stroke:#000;fill:#ff0;stroke-width:1.5"/>
</g>
<g style="stroke:#000;fill:#ff0;stroke-width:1.5" transform="matrix(-.64816,-.7615,-.7615,.64816,1391.7932,698.68909)">
<path d="m511.96429,757.8979c4.0773,-14.41108 13.32146,-12.62231 20.80814,-21.42873 7.48668,-8.80642 10.18016,-18.20802 -3.66529,-25.35699 -29.03805,-10.03992 -26.42208,32.93812 -17.14285,46.78572z" style="stroke:#000;fill:#ff0;stroke-width:1.5"/>
<path d="m511.96429,745.30861c-0.0595,-6.4881 3.66723,-10.43125 5.67037,-15.28842 1.15352,-2.79703 2.77251,-11.77196 6.47248,-7.65801 6.20644,6.90085 -8.86859,15.9159 -12.14285,22.94643z" style="stroke:#000;fill:#ff0;stroke-width:1.5"/>
</g>
<g style="stroke:#000;fill:#ff0;stroke-width:1.5" transform="matrix(.99907,-.04315,.04315,.99907,-63.69316,50.11082)">
<path d="m511.96429,757.8979c4.0773,-14.41108 13.32146,-12.62231 20.80814,-21.42873 7.48668,-8.80642 10.18016,-18.20802 -3.66529,-25.35699 -29.03805,-10.03992 -26.42208,32.93812 -17.14285,46.78572z" style="stroke:#000;fill:#ff0;stroke-width:1.5"/>
<path d="m511.96429,745.30861c-0.0595,-6.4881 3.66723,-10.43125 5.67037,-15.28842 1.15352,-2.79703 2.77251,-11.77196 6.47248,-7.65801 6.20644,6.90085 -8.86859,15.9159 -12.14285,22.94643z" style="stroke:#000;fill:#ff0;stroke-width:1.5"/>
</g>
<g style="stroke:#000;fill:#ff0;stroke-width:1.5" transform="matrix(.92593,.3777,-.3777,.92593,272.6946,-130.07472)">
<path d="m511.96429,757.8979c4.0773,-14.41108 13.32146,-12.62231 20.80814,-21.42873 7.48668,-8.80642 10.18016,-18.20802 -3.66529,-25.35699 -29.03805,-10.03992 -26.42208,32.93812 -17.14285,46.78572z" style="stroke:#000;fill:#ff0;stroke-width:1.5"/>
<path d="m511.96429,745.30861c-0.0595,-6.4881 3.66723,-10.43125 5.67037,-15.28842 1.15352,-2.79703 2.77251,-11.77196 6.47248,-7.65801 6.20644,6.90085 -8.86859,15.9159 -12.14285,22.94643z" style="stroke:#000;fill:#ff0;stroke-width:1.5"/>
</g>
<g style="stroke:#000;fill:#ff0;stroke-width:1.5" transform="matrix(.96054,.27815,-.27815,.96054,205.96066,-102.96441)">
<path d="m511.96429,757.8979c4.0773,-14.41108 13.32146,-12.62231 20.80814,-21.42873 7.48668,-8.80642 10.18016,-18.20802 -3.66529,-25.35699 -29.03805,-10.03992 -26.42208,32.93812 -17.14285,46.78572z" style="stroke:#000;fill:#ff0;stroke-width:1.5"/>
<path d="m511.96429,745.30861c-0.0595,-6.4881 3.66723,-10.43125 5.67037,-15.28842 1.15352,-2.79703 2.77251,-11.77196 6.47248,-7.65801 6.20644,6.90085 -8.86859,15.9159 -12.14285,22.94643z" style="stroke:#000;fill:#ff0;stroke-width:1.5"/>
</g>
<g style="stroke:#000;fill:#ff0;stroke-width:1.5" transform="matrix(.63955,-.76875,-.76875,-.63955,677.32438,1597.5464)">
<path d="m511.96429,757.8979c4.0773,-14.41108 13.32146,-12.62231 20.80814,-21.42873 7.48668,-8.80642 10.18016,-18.20802 -3.66529,-25.35699 -29.03805,-10.03992 -26.42208,32.93812 -17.14285,46.78572z" style="stroke:#000;fill:#ff0;stroke-width:1.5"/>
<path d="m511.96429,745.30861c-0.0595,-6.4881 3.66723,-10.43125 5.67037,-15.28842 1.15352,-2.79703 2.77251,-11.77196 6.47248,-7.65801 6.20644,6.90085 -8.86859,15.9159 -12.14285,22.94643z" style="stroke:#000;fill:#ff0;stroke-width:1.5"/>
</g>
<g style="stroke:#000;fill:#ff0;stroke-width:1.5" transform="matrix(.9296,-.36858,-.36858,-.9296,246.60911,1588.6631)">
<path d="m511.96429,757.8979c4.0773,-14.41108 13.32146,-12.62231 20.80814,-21.42873 7.48668,-8.80642 10.18016,-18.20802 -3.66529,-25.35699 -29.03805,-10.03992 -26.42208,32.93812 -17.14285,46.78572z" style="stroke:#000;fill:#ff0;stroke-width:1.5"/>
<path d="m511.96429,745.30861c-0.0595,-6.4881 3.66723,-10.43125 5.67037,-15.28842 1.15352,-2.79703 2.77251,-11.77196 6.47248,-7.65801 6.20644,6.90085 -8.86859,15.9159 -12.14285,22.94643z" style="stroke:#000;fill:#ff0;stroke-width:1.5"/>
</g>
<g style="stroke:#000;fill:#ff0;stroke-width:1.5" transform="matrix(.4798,.87738,-.87738,.4798,870.76317,-85.52045)">
<path d="m511.96429,757.8979c4.0773,-14.41108 13.32146,-12.62231 20.80814,-21.42873 7.48668,-8.80642 10.18016,-18.20802 -3.66529,-25.35699 -29.03805,-10.03992 -26.42208,32.93812 -17.14285,46.78572z" style="stroke:#000;fill:#ff0;stroke-width:1.5"/>
<path d="m511.96429,745.30861c-0.0595,-6.4881 3.66723,-10.43125 5.67037,-15.28842 1.15352,-2.79703 2.77251,-11.77196 6.47248,-7.65801 6.20644,6.90085 -8.86859,15.9159 -12.14285,22.94643z" style="stroke:#000;fill:#ff0;stroke-width:1.5"/>
</g>
<g style="stroke:#000;fill:#ff0;stroke-width:1.5" transform="matrix(.27393,.96175,-.96175,.27393,1032.6,4.64012)">
<path d="m511.96429,757.8979c4.0773,-14.41108 13.32146,-12.62231 20.80814,-21.42873 7.48668,-8.80642 10.18016,-18.20802 -3.66529,-25.35699 -29.03805,-10.03992 -26.42208,32.93812 -17.14285,46.78572z" style="stroke:#000;fill:#ff0;stroke-width:1.5"/>
<path d="m511.96429,745.30861c-0.0595,-6.4881 3.66723,-10.43125 5.67037,-15.28842 1.15352,-2.79703 2.77251,-11.77196 6.47248,-7.65801 6.20644,6.90085 -8.86859,15.9159 -12.14285,22.94643z" style="stroke:#000;fill:#ff0;stroke-width:1.5"/>
</g>
<path d="m470.91872,686.24822c9.73457,11.38162 3.12176,18.0842 6.30165,29.19688 3.17989,11.11268 9.51205,18.56581 23.13676,11.00461 24.45212,-18.60381 -12.76934,-40.24909 -29.43841,-40.20149z" style="stroke:#000;fill:#ff0;stroke-width:1.5"/>
<g style="stroke:#000;fill:#ff0;stroke-width:1.5" transform="matrix(.96834,.24964,.24964,-.96834,-174.47443,1264.9617)">
<path d="m511.96429,757.8979c4.0773,-14.41108 13.32146,-12.62231 20.80814,-21.42873 7.48668,-8.80642 10.18016,-18.20802 -3.66529,-25.35699 -29.03805,-10.03992 -26.42208,32.93812 -17.14285,46.78572z" style="stroke:#000;fill:#ff0;stroke-width:1.5"/>
<path d="m511.96429,745.30861c-0.0595,-6.4881 3.66723,-10.43125 5.67037,-15.28842 1.15352,-2.79703 2.77251,-11.77196 6.47248,-7.65801 6.20644,6.90085 -8.86859,15.9159 -12.14285,22.94643z" style="stroke:#000;fill:#ff0;stroke-width:1.5"/>
</g>
<g style="stroke:#000;fill:#ff0;stroke-width:1.5" transform="matrix(.74182,.67059,.67059,-.74182,-345.84765,883.71392)">
<path d="m511.96429,757.8979c4.0773,-14.41108 13.32146,-12.62231 20.80814,-21.42873 7.48668,-8.80642 10.18016,-18.20802 -3.66529,-25.35699 -29.03805,-10.03992 -26.42208,32.93812 -17.14285,46.78572z" style="stroke:#000;fill:#ff0;stroke-width:1.5"/>
<path d="m511.96429,745.30861c-0.0595,-6.4881 3.66723,-10.43125 5.67037,-15.28842 1.15352,-2.79703 2.77251,-11.77196 6.47248,-7.65801 6.20644,6.90085 -8.86859,15.9159 -12.14285,22.94643z" style="stroke:#000;fill:#ff0;stroke-width:1.5"/>
</g>
<g style="stroke:#000;fill:#ff0;stroke-width:1.5" transform="matrix(-1,0,0,1,1056.2276,-13.34645)">
<path d="m511.96429,757.8979c4.0773,-14.41108 13.32146,-12.62231 20.80814,-21.42873 7.48668,-8.80642 10.18016,-18.20802 -3.66529,-25.35699 -29.03805,-10.03992 -26.42208,32.93812 -17.14285,46.78572z" style="stroke:#000;fill:#ff0;stroke-width:1.5"/>
<path d="m511.96429,745.30861c-0.0595,-6.4881 3.66723,-10.43125 5.67037,-15.28842 1.15352,-2.79703 2.77251,-11.77196 6.47248,-7.65801 6.20644,6.90085 -8.86859,15.9159 -12.14285,22.94643z" style="stroke:#000;fill:#ff0;stroke-width:1.5"/>
</g>
<g style="stroke:#000;fill:#ff0;stroke-width:1.5" transform="matrix(.91175,.41075,-.41075,.91175,323.53993,-154.70423)">
<path d="m511.96429,757.8979c4.0773,-14.41108 13.32146,-12.62231 20.80814,-21.42873 7.48668,-8.80642 10.18016,-18.20802 -3.66529,-25.35699 -29.03805,-10.03992 -26.42208,32.93812 -17.14285,46.78572z" style="stroke:#000;fill:#ff0;stroke-width:1.5"/>
<path d="m511.96429,745.30861c-0.0595,-6.4881 3.66723,-10.43125 5.67037,-15.28842 1.15352,-2.79703 2.77251,-11.77196 6.47248,-7.65801 6.20644,6.90085 -8.86859,15.9159 -12.14285,22.94643z" style="stroke:#000;fill:#ff0;stroke-width:1.5"/>
</g>
<g style="stroke:#000;fill:#ff0;stroke-width:1.5" transform="translate(-2.0664,-1.856)">
<path d="m511.96429,757.8979c4.0773,-14.41108 13.32146,-12.62231 20.80814,-21.42873 7.48668,-8.80642 10.18016,-18.20802 -3.66529,-25.35699 -29.03805,-10.03992 -26.42208,32.93812 -17.14285,46.78572z" style="stroke:#000;fill:#ff0;stroke-width:1.5"/>
<path d="m511.96429,745.30861c-0.0595,-6.4881 3.66723,-10.43125 5.67037,-15.28842 1.15352,-2.79703 2.77251,-11.77196 6.47248,-7.65801 6.20644,6.90085 -8.86859,15.9159 -12.14285,22.94643z" style="stroke:#000;fill:#ff0;stroke-width:1.5"/>
</g>
</g>
</g>
</svg>
