<svg height="600" version="1.1" width="900" xmlns="http://www.w3.org/2000/svg" xmlns:xlink="http://www.w3.org/1999/xlink">
<defs>
<linearGradient id="linearGradient4037">
<stop offset="0" style="stop-color:#c0c0c0"/>
<stop offset="0.5" style="stop-color:#f7f7f7"/>
<stop offset="1" style="stop-color:#c0c0c0"/>
</linearGradient>
<linearGradient id="linearGradient4000">
<stop offset="0" style="stop-color:#d4af38"/>
<stop offset="0.5" style="stop-color:#ffd90d"/>
<stop offset="1" style="stop-color:#d4af38"/>
</linearGradient>
<linearGradient gradientTransform="matrix(1.32681,0,0,1.32681,-745.6624,-302.38242)" gradientUnits="userSpaceOnUse" id="linearGradient5501" x1="25.71875" x2="104.84375" xlink:href="#linearGradient4037" y1="251.6875" y2="373.65625"/>
<linearGradient gradientTransform="matrix(1.32681,0,0,1.32681,-745.6624,-302.38242)" gradientUnits="userSpaceOnUse" id="linearGradient5503" x1="39.345631" x2="132.15146" xlink:href="#linearGradient4037" y1="221.85567" y2="173.99815"/>
<linearGradient gradientTransform="matrix(1.32681,0,0,1.32681,-745.6624,-302.38242)" gradientUnits="userSpaceOnUse" id="linearGradient5505" x1="228.87732" x2="314.68472" xlink:href="#linearGradient4000" y1="169.16017" y2="227.49998"/>
<linearGradient gradientTransform="matrix(1.32681,0,0,1.32681,1493.6063,94.74548)" gradientUnits="userSpaceOnUse" id="linearGradient5507" x1="-759.19452" x2="-751.79541" xlink:href="#linearGradient4037" y1="108.77578" y2="108.77578"/>
<linearGradient gradientTransform="matrix(1.32681,0,0,1.32681,-59.61078,-1495.4207)" gradientUnits="userSpaceOnUse" id="linearGradient5509" x1="-124.17667" x2="-116.77754" xlink:href="#linearGradient4037" y1="761.95416" y2="761.95416"/>
<linearGradient gradientTransform="matrix(1.32681,0,0,1.32681,-1111.4306,-1002.2767)" gradientUnits="userSpaceOnUse" id="linearGradient5511" x1="479.12384" x2="509.0318" xlink:href="#linearGradient4000" y1="557.5426" y2="590.98401"/>
<linearGradient gradientTransform="matrix(1.32681,0,0,1.32681,-1111.4306,-1002.2767)" gradientUnits="userSpaceOnUse" id="linearGradient5513" x1="432.54514" x2="476.11334" xlink:href="#linearGradient4037" y1="600.50421" y2="600.50421"/>
<linearGradient gradientTransform="matrix(1.32681,0,0,1.32681,-1111.4306,-1002.2767)" gradientUnits="userSpaceOnUse" id="linearGradient5515" x1="390.13193" x2="450.85971" xlink:href="#linearGradient4000" y1="608.50867" y2="552.52716"/>
<linearGradient gradientTransform="matrix(1.32681,0,0,1.32681,-1113.1305,-1002.2767)" gradientUnits="userSpaceOnUse" id="linearGradient5517" x1="456.63824" x2="506.18289" xlink:href="#linearGradient4000" y1="616.69019" y2="616.69019"/>
<linearGradient gradientTransform="matrix(1.32681,0,0,1.32681,-1113.1305,-1002.2767)" gradientUnits="userSpaceOnUse" id="linearGradient5519" x1="405.03568" x2="454.58035" xlink:href="#linearGradient4000" y1="616.56848" y2="616.56848"/>
<linearGradient gradientTransform="matrix(1.32681,0,0,1.32681,-745.6624,-204.27628)" gradientUnits="userSpaceOnUse" id="linearGradient5521" x1="228.87732" x2="314.68472" xlink:href="#linearGradient4000" y1="169.16017" y2="227.49998"/>
<linearGradient gradientTransform="matrix(1.32681,0,0,1.32681,-745.6624,-106.1701)" gradientUnits="userSpaceOnUse" id="linearGradient5523" x1="228.87732" x2="314.68472" xlink:href="#linearGradient4000" y1="169.16017" y2="227.49998"/>
</defs>
<g transform="translate(199.4517,389.4667)">
<rect height="600" style="fill:#c42730" transform="translate(-199.4517,-389.4667)" width="900"/>
<path d="M92.6875,450C64.318718,461.64058 26.809199,474.40393 0,466.40625L0,600l900,0 0,-143.0625c-31.31188,9.75654 -63.01915,18.08507 -103.8125,-6.9375 -44.43944,17.90428 -86.39386,29.47955 -112.40625,0 -38.40082,14.42183 -77.0674,24.96101 -118.09375,0 -38.08821,15.62876 -76.28811,27.64039 -115.6875,0 -39.36416,10.6398 -70.02415,31.13432 -120.78125,0 -34.53995,16.84362 -89.95636,29.47955 -115.96875,0 -38.40082,14.42183 -77.41483,34.8605 -120.5625,0z" style="fill:#2e418a" transform="translate(-199.4517,-389.4667)"/>
<path d="M94.8125,534.1875C65.694904,546.13534 26.921814,559.25611 0,549.90625L0,570.75c24.291127,0.51542 52.953326,-9.5649 75.71875,-18.90625 43.14767,34.8605 82.16168,14.42183 120.5625,0 26.01239,29.47955 81.4288,16.84362 115.96875,0 50.7571,31.13432 81.41709,10.6398 120.78125,0 39.39939,27.64039 77.59929,15.62876 115.6875,0 41.02635,24.96101 79.69293,14.42183 118.09375,0 26.01239,29.47955 67.96681,17.90428 112.40625,0 48.15343,29.53723 83.65471,12.61844 120.78125,1.71875l0,-11.78125c-30.62588,9.45683 -61.81631,16.86317 -101.6875,-7.59375 -44.43944,17.90428 -86.39386,29.47955 -112.40625,0 -38.40082,14.42183 -77.0674,24.96101 -118.09375,0 -38.08821,15.62876 -76.28811,27.64039 -115.6875,0 -39.36416,10.6398 -70.02415,31.13432 -120.78125,0 -34.53995,16.84362 -89.95636,29.47955 -115.96875,0 -38.40082,14.42183 -77.41483,34.8605 -120.5625,0 z M 92.6875,479C64.318718,490.64058 26.809199,503.40393 0,495.40625l0,20.1875c23.824084,-0.0877 51.489425,-9.86742 73.59375,-18.9375 43.14767,34.8605 82.16168,14.42183 120.5625,0 26.01239,29.47955 81.4288,16.84362 115.96875,0 50.7571,31.13432 81.41709,10.6398 120.78125,0 39.39939,27.64039 77.59929,15.62876 115.6875,0 41.02635,24.96101 79.69293,14.42183 118.09375,0 26.01239,29.47955 67.96681,17.90428 112.40625,0C826.16992,526.75949 862.0929,508.60335 900,497.75l0,-11.8125c-31.31188,9.75654 -63.01915,18.08507 -103.8125,-6.9375 -44.43944,17.90428 -86.39386,29.47955 -112.40625,0 -38.40082,14.42183 -77.0674,24.96101 -118.09375,0 -38.08821,15.62876 -76.28811,27.64039 -115.6875,0 -39.36416,10.6398 -70.02415,31.13432 -120.78125,0 -34.53995,16.84362 -89.95636,29.47955 -115.96875,0 -38.40082,14.42183 -77.41483,34.8605 -120.5625,0z" style="fill:#fff" transform="translate(-199.4517,-389.4667)"/>
<g transform="matrix(.4174,0,0,.4174,158.34666,-214.87383)">
<path d="m469.21875,6.8125 -456.875,0 228.4375,263.78125L469.21875,6.8125z" style="font-family:Sans;fill:#c42730" transform="translate(-749.3941,-305.7824)"/>
<path d="m245.25,573.03125c2.66047,-4.61356 5.85113,-8.84763 10,-12.375 9.4205,-8.0093 23.00749,-12.53125 42.5625,-12.53125l150.21875,0c10.63156,0 17.20464,-1.31228 20.9375,-4.71875 3.73286,-3.40648 5.75,-9.77431 5.75,-21.96875l0,-507.1875 -229.46875,264.90625 0,293.875z" style="font-family:Sans;fill:#183883" transform="translate(-749.3941,-305.7824)"/>
<path d="m6.8125,14.21875 0,507.21875c0,12.1963 2.05893,18.56454 5.78125,21.96875 3.72233,3.4042 10.24344,4.71875 20.875,4.71875l150.21875,0c19.55501,0 33.142,4.52195 42.5625,12.53125 4.13077,3.51198 7.31454,7.72297 9.96875,12.3125L236.25,279.125 6.8125,14.21875z" style="font-family:Sans;fill:#0093dd" transform="translate(-749.3941,-305.7824)"/>
<path d="M6.8125,14.21875 236.25,279.125 236.2188,572.96875c1.72124,2.97628 3.25527,6.07565 4.53125,9.375 1.26736,-3.27705 2.79385,-6.35383 4.5,-9.3125l0,-293.875 229.4687,-264.90625 0,-7.4375 -5.5,0L240.78125,270.59375 12.34375,6.8125l-5.53125,0 0,7.40625z" style="font-family:Sans;fill:#d4af38" transform="translate(-749.3941,-305.7824)"/>
<path d="m-742.55268,-305.32629 -6.84138,5.88774 236.25578,272.784623 -0.0414,314.081707 9.03892,0 0,-314.040244 236.29718,-272.826086 -6.84138,-5.88774 -233.93386,270.130999 -233.93386,-270.130999z" style="font-family:Sans;fill:#fff"/>
<path d="m-749.37628,-305.78238 0,521.43782c0,12.94297 2.09779,21.63034 7.96088,26.99237 5.86308,5.36203 14.35164,6.50968 25.4997,6.50968l150.2202,0c18.5196,0 30.19915,4.14843 38.1459,10.90475 7.94675,6.75632 12.4379,16.42125 15.63152,28.23626l3.27557,12.14864 3.27558,-12.14864c3.19362,-11.81501 7.68477,-21.47994 15.63152,-28.23626 7.94675,-6.75632 19.6263,-10.90475 38.1459,-10.90475l150.2202,0c11.14806,0 19.62643,-1.14994 25.4997,-6.50968 5.87327,-5.35974 8.00235,-14.04755 8.00235,-26.99237l0,-521.43782 z m 6.79992,6.79992 467.90918,0 0,514.6379c0,12.19444 -2.03049,18.56888 -5.76335,21.97536 -3.73286,3.40647 -10.30722,4.72677 -20.93878,4.72677l-150.2202,0c-19.55501,0 -33.12047,4.51251 -42.54097,12.52181 -6.80954,5.78947 -11.26843,13.29804 -14.51203,21.68511 -3.24359,-8.38707 -7.70248,-15.89564 -14.51202,-21.68511 -9.4205,-8.0093 -22.98596,-12.52181 -42.54097,-12.52181l-150.2202,0c-10.63156,0 -17.17499,-1.32257 -20.89732,-4.72677 -3.72232,-3.40421 -5.76334,-9.77906 -5.76334,-21.97536z" style="font-family:Sans;fill:#d4af38"/>
<path d="m-568.07667,50.093959 -0.99511,1.078036 -2.5707,24.587518 -21.35341,9.163308 20.39977,0 -1.28536,12.563268 -22.22413,8.458501 21.31195,-6e-5 -1.36828,12.97789 -24.91922,8.00228 24.08996,7e-5 -3.89751,37.46173 -5.63896,22.1619 3.27557,0 15.17543,-11.40231 15.13397,11.40231 3.31704,0 -5.51457,-22.1619 -4.02191,-37.4618 24.08997,-6e-5 -24.91922,-8.00228 -1.36828,-12.9779 21.35341,7e-5 -22.2656,-8.458507 -1.28535,-12.563269 20.44123,0 -21.39487,-9.163241 -2.57071,-24.587518 z m 0,10.61451 0.70487,6.924309 -1.40974,0 z m -0.91218,8.91453 1.82437,0 0.58048,5.348718 -2.98533,0 z m 0.91218,6.634069 1.65852,0.663407 0.70487,6.551143 -4.72677,0 0.70487,-6.551143 z m -3.77312,1.492666 -0.62195,6.219439 -15.13397,0 z m 7.54625,0 15.79738,6.219439 -15.17543,0 z m -5.47311,7.712105 3.39996,0 -1.69998,2.736553 z m -1.07803,1.990221 1.61705,2.653627 -2.28046,3.690201 z m 5.55603,0 0.66341,6.343828 -2.28046,-3.690201 z m -2.77802,4.519459 2.73656,4.436534 -2.73656,-0.539018 -2.73655,0.539018 z m 0,5.721885 3.98045,0.912184 0.6634,6.426752 -9.28769,0 0.6634,-6.426752 z m -6.01212,1.658517 -0.62194,5.680419 -15.67299,0 z m 12.02425,0 16.29493,5.680419 -15.67299,0 z m -9.9511,6.592609 7.87795,0 -3.93898,4.27068 z m -0.99511,1.86583 3.60727,3.85605 -4.478,4.89263 z m 9.86817,0 0.41463,4.10483 0.45609,4.64385 -4.47799,-4.89263 z m -4.93409,5.34872 4.31215,4.64385 -4.31215,-0.91219 -4.31214,0.91219 z m 0,5.01701 6.17798,1.82437 0.66341,6.09505 -13.68277,0 0.66341,-6.09505 z m -8.25112,2.44631 -0.58048,5.47311 -17.91199,0 z m 16.50225,0 18.49247,5.47311 -17.91199,0 z m -15.17543,6.30237 13.84861,0 0.66341,6.50968 -7.58772,8.45844 -7.58771,-8.4999 z m -0.95365,9.08038 6.5926,7.33894 -8.33405,9.2877 z m 15.75591,0.12432 1.69998,16.46079 -8.20966,-9.20477 z m -7.83649,8.70722 9.90964,11.0706 0.87072,8.1682 -21.60219,0 0.82926,-8.04381 z m -8.87307,21.22902 17.66321,0 -8.83161,6.63407 z m -2.48778,0.58048 9.53648,7.17309 -14.13886,10.78036 z m 22.63876,0 4.60239,17.95345 -14.13886,-10.78036z" style="font-family:Sans;fill:#fff"/>
<path d="m-711.53841,31.560028 0,36.694694 84.45999,125.135128 20.52415,0 0,-8.87307 -9.57793,0 -66.58947,-98.640312 15.67299,5.804811 60.49441,92.835501 5.80481,8.87307 12.19011,0 0,-7.91942 -6.38529,0 -58.25542,-88.647748 18.65832,6.924308 54.06766,89.64286 10.49012,0 0,-6.96577 -5.09994,0 -50.75063,-79.44298 11.56816,4.27068 49.96283,82.13807 6.75846,0 0,-6.13651 -6.38529,0 -45.69215,-79.15274 0,-21.104633 -101.91589,-55.435939z" style="fill:url(#linearGradient5501)"/>
<path d="m-614.26155,111.2511 0,-23.149765 -12.94126,-6.830623 0,25.182258 z m -40.43118,-44.490052 0,29.499688 20.16841,7.477684 0,-26.332133 z m -37.15079,-19.608835 0,35.334391 24.79683,9.193745 0,-31.439941z" style="fill:#cfcfcd"/>
<path d="m-696.90199,39.520911 0,4.975551 -1.61706,-0.870721 -3.64873,0 0,24.421666 80.76979,116.469373 5.26579,0 -75.71132,-112.115765 0,-19.611966 5.76335,3.026794 0,-5.597496 23.50948,12.397416 0,22.472909 65.30412,100.671998 2.32193,-0.29024 -58.25542,-88.647748 6.63407,2.446313 -8.12674,-10.821826 0,-16.046154 1.49267,0.829259 0,-5.638959 21.50149,11.306444 0,25.888351 53.54641,81.63797 3.06826,0 -50.75063,-79.44298 5.47311,2.03168 -6.84139,-9.619397 0,-12.604731 1.36828,0 0,-4.768237 13.22737,6.954123 0,17.476802 47.4329,80.80199 1.24389,0 -45.69215,-79.15273 0,-21.104633z" style="fill:#666"/>
<path d="m-711.53841,68.254722 0,125.135128 84.45999,0z" style="fill:#c1c1c1"/>
<path d="m-652.51264,-40.895787 10.17317,-5.196387 13.78441,0 41.03554,-23.691879c0,0 15.91426,-5.435664 19.44479,0 2.41771,3.72235 -5.41425,12.16537 -5.41425,12.16537l-44.07843,25.4487 -20.25649,35.0852822 -17.28105,9.9772148 10.29895,-28.65797 -24.93085,13.7155128c0,0 -6.56584,3.5406557 -10.58669,2.87050859 -9.89182,-1.64863249 -14.71905,-13.15433739 -26.21931,-21.02571339 0,0 -4.97227,5.359094 -9.29822,7.957938 0,0 0.25017,-7.589375 4.35592,-10.889798l-7.37156,-2.494861c0,0 5.61241,-5.772198 14.57559,-4.523467 9.1234,1.271048 21.45537,15.361519 33.81635,8.191231l25.99384,-15.078363c-3.65314,0.336507 -5.64634,-2.093553 -8.04171,-3.853319z" style="fill:url(#linearGradient5503)"/>
<path d="m-432.03208,-79.588079c25.65121,3.336048 30.77853,9.75236 46.23603,17.08022 7.09233,-0.86357 16.08012,-0.315079 21.27701,2.848098 -0.7002,3.855788 -0.98436,8.008728 -4.69099,9.717054 7.70664,7.539102 15.67519,14.75133 23.1199,22.617306 1.37506,1.452861 -1.70334,2.362883 -3.35071,2.848099 4.11809,2.876359 8.83656,5.352459 11.72748,9.046919 18.93153,1.424056 24.4602,7.0364919 24.4602,7.0364919 -9.00993,1.6839921 -20.06128,8.43358676 -20.77441,21.7796221 -2.82248,-1.527534 -8.23501,-9.5301587 -16.41849,-24.460184 -2.95841,0.885237 -5.26499,1.7867273 -7.45533,0.08372 -7.34209,-5.708391 -15.4634,-10.962494 -24.04134,-15.329503 0,0 -2.45032,4.171264 -3.10188,8.376786 -0.70979,4.581382 -5.64715,-4.431704 -6.95026,-11.895031 -39.93009,-19.181801 -49.07144,-35.915377 -50.76326,-43.810543 -1.42159,-6.634069 6.0387,-6.548662 10.72605,-5.939057z" style="fill:url(#linearGradient5505)"/>
<path d="m-442.52691,-78.0265a0.5971259,0.5971259 0 0 0 -0.12432,1.1195c2.85212,1.533849 5.10907,4.325758 5.88773,8.292586a0.5971259,0.5971259 0 1 0 1.16097,-0.207315c-0.84215,-4.290252 -3.30515,-7.462226 -6.46822,-9.163308a0.5971259,0.5971259 0 0 0 -0.45609,-0.0414z" style="font-family:Sans"/>
<path d="m-429.66748,-76.782612c-0.89516,0 -1.65852,0.763356 -1.65852,1.658518 0,0.895161 0.76336,1.617054 1.65852,1.617054 0.89516,0 1.61705,-0.721893 1.61705,-1.617054 0,-0.895162 -0.72189,-1.658518 -1.61705,-1.658518z" style="font-family:Sans"/>
<rect height="148.07089" style="fill:url(#linearGradient5507)" transform="matrix(-.69875,-.71537,-.71537,.69875,0,0)" width="9.1538324" x="486.62827" y="165.03525"/>
<rect height="141.6747" style="fill:url(#linearGradient5509)" transform="matrix(.69875,-.71537,.71537,.69875,0,0)" width="9.1538553" x="-224.03839" y="-555.28674"/>
<path d="m-481.56413,-256.83245 39.53503,40.47554c1.80778,0.48439 4.77552,0.76126 5.9889,-1.79405l-3.79459,-23.33268 -28.02665,-28.6934z" style="fill:url(#linearGradient5511)"/>
<path d="m-533.89063,-215.28845 50.54069,0 7.26622,19.53809 -65.07314,0z" style="fill:url(#linearGradient5513)"/>
<path d="m-550.68519,-242.37173c0.51613,3.86784 3.30032,8.08869 3.30032,8.08869l-6.39623,6.54838c0.0299,0.0299 -2.76651,-1.75298 -11.27509,-4.7873 -9.78817,-3.49063 -25.02812,36.65411 -28.74198,37.62293 -1.93767,-6.62033 11.73771,-38.55341 25.83549,-51.67098 14.45243,-13.44755 38.91472,-26.48137 54.73895,-22.60604 -12.81384,8.56142 -38.19349,21.31851 -37.46146,26.80432z" style="fill:url(#linearGradient5515)"/>
<path d="m-499.65866,-193.8127 50.54068,0 7.26623,19.53809 -65.07314,0z" style="fill:url(#linearGradient5517)"/>
<path d="m-568.12564,-193.97417 50.54069,0 7.26623,19.53809 -65.07315,0z" style="fill:url(#linearGradient5519)"/>
<path d="m-532.37708,-63.970565 17.04126,23.716796 6.717,0 -23.59241,-23.592408 -0.16585,-0.124322 z m 23.75826,23.716796 23.55094,-23.592408 -23.55094,16.875413 0,6.716995 z m 0,0 23.71679,23.716797 -16.9998,-23.716797 -6.71699,0 z m 0,0 -23.59241,23.592408 23.59241,-16.875413 0,-6.716995z" style="fill:#d4af38"/>
<path d="m-532.35685,-16.513912 23.73721,-23.737204 -6.71599,-0.0027 z m 47.47497,-0.0053 -23.73719,-23.737203 -0.003,6.715987 z m -0.005,-47.474963 -23.7372,23.73719 6.71598,0.0027 z m -47.47231,0.0027 23.73719,23.737203 0.003,-6.715987z" style="fill:#ffd700"/>
<path d="m-508.61882,-87.397121 -6.67553,40.46782 6.67553,6.675532 0,-47.143352 z m 0,47.143352 47.14335,0 -40.46782,-6.675532 -6.67553,6.675532 z m 0,0 0,47.1433532 6.67553,-40.4678212 -6.67553,-6.675532 z m 0,0 -47.14335,0 40.46782,6.675532 6.67553,-6.675532z" style="fill:#d4af38"/>
<path d="m-555.75484,-40.253769 47.13311,0 -6.66563,-6.665634 z m 47.13311,47.1330964 0,-47.1331094 -6.66563,6.665633 z m 47.1331,-47.1331094 -47.13311,0 6.66563,6.665633 z m -47.13311,-47.133097 0,47.13311 6.66563,-6.665634z" style="fill:#ffd700"/>
<path d="m-432.03208,18.518061c25.65121,3.336048 30.77853,9.75236 46.23603,17.08022 7.09233,-0.86357 16.08012,-0.315079 21.27701,2.848098 -0.7002,3.855788 -0.98436,8.008728 -4.69099,9.717054 7.70664,7.539102 15.67519,14.75133 23.1199,22.617306 1.37506,1.452861 -1.70334,2.362883 -3.35071,2.848099 4.11809,2.876359 8.83656,5.352459 11.72748,9.046919 18.93153,1.424056 24.4602,7.036492 24.4602,7.036492 -9.00993,1.683992 -20.06128,8.433587 -20.77441,21.779621 -2.82248,-1.52753 -8.23501,-9.53016 -16.41849,-24.460183 -2.95841,0.885237 -5.26499,1.786727 -7.45533,0.08372 -7.34209,-5.708391 -15.4634,-10.962494 -24.04134,-15.329503 0,0 -2.45032,4.171264 -3.10188,8.376786 -0.70979,4.581382 -5.64715,-4.431704 -6.95026,-11.895031 -39.93009,-19.181801 -49.07144,-35.915377 -50.76326,-43.810543 -1.42159,-6.634069 6.0387,-6.548662 10.72605,-5.939057z" style="fill:url(#linearGradient5521)"/>
<path d="m-442.52691,20.07964a0.5971259,0.5971259 0 0 0 -0.12432,1.1195c2.85212,1.533849 5.10907,4.325758 5.88773,8.292586a0.5971259,0.5971259 0 1 0 1.16097,-0.207315c-0.84215,-4.290252 -3.30515,-7.462226 -6.46822,-9.163308a0.5971259,0.5971259 0 0 0 -0.45609,-0.0414z" style="font-family:Sans"/>
<path d="m-429.66748,21.323528c-0.89516,0 -1.65852,0.763356 -1.65852,1.658518 0,0.895161 0.76336,1.617054 1.65852,1.617054 0.89516,0 1.61705,-0.721893 1.61705,-1.617054 0,-0.895162 -0.72189,-1.658518 -1.61705,-1.658518z" style="font-family:Sans"/>
<path d="m-432.03208,116.62424c25.65121,3.33605 30.77853,9.75236 46.23603,17.08022 7.09233,-0.86357 16.08012,-0.31508 21.27701,2.8481 -0.7002,3.85579 -0.98436,8.00873 -4.69099,9.71705 7.70664,7.5391 15.67519,14.75133 23.1199,22.61731 1.37506,1.45286 -1.70334,2.36288 -3.35071,2.8481 4.11809,2.87636 8.83656,5.35246 11.72748,9.04692 18.93153,1.42405 24.4602,7.03649 24.4602,7.03649 -9.00993,1.68399 -20.06128,8.43359 -20.77441,21.77962 -2.82248,-1.52753 -8.23501,-9.53016 -16.41849,-24.46018 -2.95841,0.88523 -5.26499,1.78672 -7.45533,0.0837 -7.34209,-5.70839 -15.4634,-10.96249 -24.04134,-15.3295 0,0 -2.45032,4.17126 -3.10188,8.37678 -0.70979,4.58138 -5.64715,-4.4317 -6.95026,-11.89503 -39.93009,-19.1818 -49.07144,-35.91538 -50.76326,-43.81054 -1.42159,-6.63407 6.0387,-6.54866 10.72605,-5.93906z" style="fill:url(#linearGradient5523)"/>
<path d="m-442.52691,118.18582a0.5971259,0.5971259 0 0 0 -0.12432,1.1195c2.85212,1.53385 5.10907,4.32576 5.88773,8.29259a0.5971259,0.5971259 0 1 0 1.16097,-0.20732c-0.84215,-4.29025 -3.30515,-7.46223 -6.46822,-9.16331a0.5971259,0.5971259 0 0 0 -0.45609,-0.0414z" style="font-family:Sans"/>
<path d="m-429.66748,119.42971c-0.89516,0 -1.65852,0.76335 -1.65852,1.65852 0,0.89516 0.76336,1.61705 1.65852,1.61705 0.89516,0 1.61705,-0.72189 1.61705,-1.61705 0,-0.89517 -0.72189,-1.65852 -1.61705,-1.65852z" style="font-family:Sans"/>
</g>
</g>
</svg>
