<?xml version="1.0" encoding="UTF-8" standalone="no"?>
<!-- Created with Inkscape (http://www.inkscape.org/) -->

<svg
   xmlns:dc="http://purl.org/dc/elements/1.1/"
   xmlns:cc="http://creativecommons.org/ns#"
   xmlns:rdf="http://www.w3.org/1999/02/22-rdf-syntax-ns#"
   xmlns:svg="http://www.w3.org/2000/svg"
   xmlns="http://www.w3.org/2000/svg"
   version="1.1"
   width="900"
   height="600"
   id="svg2"
   style="display:inline">
  <defs
     id="defs144" />
  <rect
     width="900"
     height="600"
     x="0"
     y="0"
     id="rect4355"
     style="fill:#ffffff;fill-opacity:1;fill-rule:evenodd;stroke:none;display:inline" />
  <path
     d="m 0,-1e-5 0,600 92.460937,0 L 112.5,579.96093 95.390625,562.85155 81.09375,577.14843 l 5.742187,5.74219 8.554688,-8.55469 5.625005,5.625 -14.179693,14.29687 -17.226562,-17.10937 20.039062,-20.03906 -20.039062,-19.92188 17.226562,-17.22656 14.179693,14.29687 -5.625005,5.74219 -8.554688,-8.55469 -5.742187,5.74219 14.296875,14.29688 L 112.5,534.2578 92.460937,514.33593 112.5,494.29687 95.390625,477.18749 81.09375,491.48437 l 5.742187,5.625 8.554688,-8.55469 5.625005,5.74219 -14.179693,14.29687 -17.226562,-17.10937 20.039062,-20.03907 -20.039062,-20.03906 17.226562,-17.10937 14.179693,14.29687 -5.625005,5.74219 -8.554688,-8.67188 -5.742187,5.74219 14.296875,14.29688 L 112.5,448.59374 92.460937,428.55468 112.5,408.51562 95.390625,391.40624 81.09375,405.70312 l 5.742187,5.74218 8.554688,-8.55468 5.625005,5.625 -14.179693,14.29687 -17.226562,-17.10937 20.039062,-20.03907 -20.039062,-19.92187 17.226562,-17.22656 14.179693,14.29687 -5.625005,5.74219 -8.554688,-8.55469 -5.742187,5.74219 14.296875,14.29687 L 112.5,362.81249 92.460937,342.89062 112.5,322.85155 95.390625,305.74218 81.09375,320.03905 l 5.742187,5.625 8.554688,-8.55468 5.625005,5.74218 -14.179693,14.29688 -17.226562,-17.10938 20.039062,-20.03906 -20.039062,-20.03906 17.226562,-17.10938 14.179693,14.29688 -5.625005,5.74219 -8.554688,-8.55469 -5.742187,5.625 L 95.390625,294.2578 112.5,277.14843 92.460937,257.10937 112.5,237.18749 95.390625,219.96093 81.09375,234.2578 l 5.742187,5.74219 8.554688,-8.55469 5.625005,5.74219 -14.179693,14.29688 -17.226562,-17.22657 20.039062,-19.92187 -20.039062,-20.03906 17.226562,-17.10938 14.179693,14.29688 -5.625005,5.625 -8.554688,-8.55469 -5.742187,5.74219 14.296875,14.29687 L 112.5,191.48437 92.460937,171.4453 112.5,151.40624 95.390625,134.29687 81.09375,148.59374 l 5.742187,5.74219 8.554688,-8.67188 5.625005,5.74219 -14.179693,14.29688 -17.226562,-17.10938 20.039062,-20.03906 -20.039062,-20.03906 17.226562,-17.10938 14.179693,14.29688 -5.625005,5.74218 -8.554688,-8.55468 -5.742187,5.625 14.296875,14.29687 L 112.5,105.70312 92.460937,85.66405 112.5,65.74218 95.390625,48.51562 81.09375,62.81249 l 5.742187,5.74219 8.554688,-8.55469 5.625005,5.74219 L 86.835937,80.03905 69.609375,62.81249 89.648437,42.89062 69.609375,22.85155 86.835937,5.74218 101.01563,20.03905 95.390625,25.66405 86.835937,17.10937 81.09375,22.85155 95.390625,37.14843 112.5,20.03905 92.460937,-1e-5 z"
     id="path3018"
     style="fill:#a92211;fill-opacity:1;stroke:none;display:inline" />
  <rect
     width="85.078423"
     height="5.530654"
     x="463.26974"
     y="122.26524"
     id="rect4412"
     style="fill:#b17842;fill-opacity:1;stroke:#b17842;stroke-width:0.93749994;stroke-opacity:1" />
  <path
     d="m 505.79157,31.152102 c -4.12192,3.89035 -7.88184,8.15039 -11.49115,12.55335 4.27197,3.27611 7.83645,6.90593 11.49115,10.42895 3.6547,-3.52302 7.21918,-7.15284 11.49115,-10.42895 -3.60931,-4.40296 -7.36923,-8.663 -11.49115,-12.55335 z m -36.01848,17.76783 c -2.62423,3.47251 -4.45073,7.31352 -5.98699,11.29802 3.52505,2.2211 6.86994,4.73421 10.13925,7.33888 1.85512,-3.97139 3.55097,-7.90601 5.89043,-11.8774 -3.25427,-2.40929 -6.5953,-4.67209 -10.04269,-6.7595 z m 72.03696,0 c -3.44739,2.08741 -6.78843,4.35021 -10.04269,6.7595 2.33945,3.97139 4.03531,7.90601 5.89042,11.8774 3.26931,-2.60467 6.61421,-5.11778 10.13925,-7.33888 -1.53625,-3.9845 -3.36275,-7.82551 -5.98698,-11.29802 z m -51.46877,0.19312 c -5.25448,7.41989 -9.10086,14.16834 -12.74648,21.6304 3.92316,3.6241 7.17978,7.35227 9.94612,11.1049 1.69425,-4.51168 4.13585,-8.94244 6.85606,-13.32587 1.79134,1.88687 3.40614,3.97446 5.02135,6.08354 -4.32584,6.72242 -7.83104,13.5529 -10.23582,20.18194 -3.91896,-6.45365 -8.55779,-12.48858 -14.09838,-18.25065 -3.11036,7.54088 -5.80359,15.05516 -7.62858,22.59604 -5.45247,-10.80432 -11.7865,-21.20584 -19.02317,-31.28682 6.21667,1.72909 9.87212,3.69948 13.32587,6.66293 -0.74563,0.90694 -1.24328,1.5994 -1.73815,2.31754 l 6.37324,9.55987 c 1.51824,-4.55184 3.2166,-8.89966 5.11791,-13.32587 -9.62976,-9.30696 -25.11858,-20.23601 -41.32952,-21.43727 15.79301,17.3611 26.20829,39.60151 33.21812,61.608008 -0.29201,0.0942 -0.57716,0.19353 -0.86908,0.28969 l 0.77251,10.13925 c 28.35947,-3.02135 56.71368,-3.15814 85.07314,0 l 0.67595,-10.13925 c -0.25833,-0.0832 -0.51419,-0.11143 -0.77252,-0.19313 7.01011,-22.034958 17.40419,-44.320488 33.21812,-61.704568 -16.21094,1.20126 -31.79632,12.13031 -41.42608,21.43727 1.90131,4.42621 3.69623,8.77403 5.21447,13.32587 l 6.27668,-9.55987 c -0.49487,-0.71814 -0.99253,-1.4106 -1.73816,-2.31754 3.45376,-2.96345 7.1092,-4.93384 13.32587,-6.66293 -7.23666,10.08098 -13.57069,20.4825 -19.02316,31.28682 -1.82499,-7.54088 -4.42166,-15.05516 -7.53201,-22.59604 -5.5406,5.76207 -10.27599,11.797 -14.19495,18.25065 -2.41593,-6.65974 -5.88134,-13.52598 -10.23582,-20.2785 1.60593,-2.09412 3.33822,-4.11238 5.11791,-5.98698 2.72021,4.38343 5.16181,8.81419 6.85606,13.32587 2.76635,-3.75263 5.92639,-7.4808 9.84956,-11.1049 -3.64562,-7.46206 -7.39543,-14.21051 -12.64992,-21.6304 -5.82142,5.12761 -11.04309,10.68902 -15.54685,16.41593 -4.50376,-5.72691 -9.62887,-11.28832 -15.45029,-16.41593 z m 15.45029,35.1494 c 4.07257,7.23712 7.12403,14.98462 8.59422,22.499478 -5.70097,-0.3762 -11.4308,-0.35214 -17.09188,0 1.46806,-7.507568 4.4313,-15.268448 8.49766,-22.499478 z"
     id="path4414"
     style="fill:#d1a345;fill-opacity:1;stroke:#b17842;stroke-width:0.93749994;stroke-linecap:butt;stroke-linejoin:round;stroke-miterlimit:4;stroke-opacity:1;stroke-dasharray:none" />
  <path
     d="m 530.93644,118.77898 8.0572,-2.66296 -7.85236,-3.96032 -8.26204,2.52641 z m -33.79923,-4.50656 8.67172,-3.68719 8.67172,3.68719 -8.67172,3.41407 z m -16.45579,4.50656 -8.0572,-2.66296 7.85236,-3.96032 8.26204,2.52641 z"
     id="path4416"
     style="fill:#b17842;fill-opacity:1;stroke:none;display:inline" />
  <path
     d="m 548.34814,123.63087 c 2.6916,1.37904 0.58545,4.47453 0,4.16502 -5.37243,-2.84026 -23.60794,-4.65278 -42.53921,-4.50656 -18.93126,-0.14622 -37.16677,1.6663 -42.5392,4.50656 -0.58545,0.30951 -2.6916,-2.78598 0,-4.16502 5.40846,-2.77104 23.60794,-4.65278 42.5392,-4.50656 18.93127,-0.14622 37.13075,1.73552 42.53921,4.50656 z m 0.95597,-13.79673 c 1.66777,0.75991 1.63984,4.50669 -0.20487,3.6911 -5.25652,-2.32404 -24.35904,-4.24309 -43.29031,-4.09687 -18.93126,-0.14622 -38.03378,1.77283 -43.2903,4.09687 -1.84471,0.81559 -1.87264,-2.93119 -0.20488,-3.6911 5.23008,-2.38301 24.56389,-4.2431 43.49518,-4.09687 18.9313,-0.14623 38.26511,1.71386 43.49518,4.09687 z"
     id="path4418"
     style="fill:#d1a345;fill-opacity:1;stroke:#b17842;stroke-width:1.87499988;stroke-linecap:butt;stroke-linejoin:round;stroke-miterlimit:4;stroke-opacity:1;stroke-dasharray:none;display:inline" />
  <path
     d="m 358.47656,127.3828 0,2.8125 0,303.63281 c 0,20.88762 16.11674,37.03125 35.27344,37.03125 l 74.88281,0 c 12.08985,0 19.72928,4.03669 24.96094,9.375 5.23166,5.33832 8.0397,12.15732 9.49219,17.57813 l 0.46875,1.64062 4.45312,0 0.46875,-1.64062 c 1.45249,-5.42081 4.26053,-12.23981 9.49219,-17.57813 5.23166,-5.33831 12.87109,-9.375 24.96094,-9.375 l 74.88281,0 c 19.15669,0 35.27344,-16.14363 35.27344,-37.03125 l 0,-303.63281 0,-2.8125 -2.8125,0 -144.49219,0 -144.49219,0 -2.8125,0 z m 5.625,5.625 141.67969,0 141.67969,0 0,300.82031 c 0,18.01864 -13.64888,31.40625 -29.64844,31.40625 l -74.88281,0 c -13.38623,0 -22.74908,4.81024 -28.94532,11.13282 -3.94053,4.02086 -6.36656,8.42587 -8.20312,12.77343 -1.83622,-4.33905 -4.15406,-8.76138 -8.08594,-12.77343 -6.19624,-6.32258 -15.67627,-11.13282 -29.0625,-11.13282 l -74.88281,0 c -15.99956,0 -29.64844,-13.38761 -29.64844,-31.40625 l 0,-300.82031 z"
     id="path4185-7"
     style="font-size:medium;font-style:normal;font-variant:normal;font-weight:normal;font-stretch:normal;text-indent:0;text-align:start;text-decoration:none;line-height:normal;letter-spacing:normal;word-spacing:normal;text-transform:none;direction:ltr;block-progression:tb;writing-mode:lr-tb;text-anchor:start;color:#000000;fill:#000000;fill-opacity:1;stroke:none;stroke-width:1.5;marker:none;visibility:visible;display:inline;overflow:visible;enable-background:accumulate;font-family:Sans;-inkscape-font-specification:Sans" />
  <path
     d="m 500.93422,201.41062 c 1.05934,-2.54284 3.14333,-4.27179 6.39555,-3.83837 1.8846,0.25128 2.60907,0.443 3.94692,1.78083 0.78885,0.78887 1.02397,3.15327 1.49201,3.46563 -1.11266,2.29117 -5.8017,2.20397 -7.701,1.10714 -1.61051,-0.92979 -3.43879,-0.46728 -4.13347,-2.51524 z"
     id="path4927"
     style="fill:#1f1a17;fill-rule:evenodd;stroke:#1f1a17;stroke-width:0.28037074;display:inline" />
  <path
     d="m 485.57614,300.21763 c -2.66243,0 -4.81118,-0.81719 -6.83741,-2.29078 -2.45749,-1.78746 -5.32485,-4.29572 -5.69022,0.0964 -0.14475,1.73928 -3.7611,-4.93738 -3.7611,-2.02514 0,0.66155 -0.52173,2.94535 -0.19312,3.47189 1.50671,2.41001 -7.33935,-2.64844 -8.19735,-3.27909 -2.21134,-1.62447 -3.15657,-3.96862 -5.11144,-5.97941 -0.6855,-2.05897 -4.11506,-7.35035 -5.49743,-9.54805 -2.80297,-4.45612 -5.75054,-4.38145 -6.36498,-5.9794 -1.77791,-4.6217 -8.27426,-18.32566 -14.75595,-14.27352 -2.5329,1.58362 -1.44672,-11.54452 -1.44672,-14.27315 0,-9.41781 0.24938,-18.40733 10.03005,-7.81212 10.5231,11.39952 16.26518,17.54818 30.76538,23.62843 6.37972,2.6753 10.16621,-9.11535 15.60476,-9.00757 10.1835,12.33042 13.93425,36.05817 1.45556,47.27145 z"
     id="path4929"
     style="fill:#1f1a17;fill-rule:evenodd;stroke:#1f1a17;stroke-width:0.28037074;display:inline" />
  <path
     d="m 504.19901,380.88029 c -1.05045,-0.61114 -2.66171,-4.21106 -4.93151,-4.06759 l 0.0188,14.19626 c 0.007,3.85935 -2.06595,7.68702 -1.3143,8.99213 -2.09835,-0.8643 -2.99903,-4.47784 -3.5808,-4.40134 -0.348,0.42424 0.72746,2.89793 1.07074,6.66968 0.69285,7.61306 2.91922,13.23266 0.93086,15.64635 -0.80723,0.97976 -5.15081,2.22746 -7.64325,4.30999 -3.64373,3.04361 -6.93052,7.00563 -7.67966,7.34152 -4.33286,1.94235 -7.857,1.9287 -17.63832,1.9287 -5.20233,0 -12.41508,2.60576 -14.26215,4.38071 -0.0263,-1.47907 0.15863,-2.18145 0.58249,-3.7095 0.63728,-2.29488 2.0682,-2.69261 1.96369,-2.67641 -0.10463,0.015 -2.96449,0.45259 -5.58461,2.7702 -2.62009,2.31769 -1.80915,2.08841 -1.92653,1.95191 -2.2827,-3.30266 4.36819,-8.0925 3.80745,-8.33569 -1.67302,-0.72558 -6.86467,3.732 -8.21906,4.06725 -0.70241,-2.8755 6.95482,-8.44132 6.93349,-8.26507 -0.0983,0.79253 -5.89002,2.6127 -6.7179,2.93876 -0.1545,-0.62115 -0.19275,-2.52446 2.67461,-4.06875 4.79498,-2.58292 8.10833,-3.06228 14.33535,-3.42697 4.02746,-0.2355 7.23922,0.15937 9.48401,-0.71123 2.1087,-0.81791 3.86378,-2.06194 5.12468,-3.65475 1.96151,-2.47736 3.59445,-6.8514 1.88568,-12.61414 -0.84956,-2.86586 -2.26905,-4.25925 -2.68961,-5.26593 -1.23517,1.0773 -2.68267,0.80835 -3.03037,2.73671 -1.7757,-2.27828 -1.96811,-7.15864 -3.1584,-7.99166 -0.92501,-0.64721 -3.43733,2.5281 -3.87773,4.64194 -0.4077,-4.37779 0.34388,-13.29259 -0.65197,-13.49093 -0.69912,1.96519 -2.12779,2.16904 -3.76774,2.96452 0.6693,-0.74066 1.29405,-2.14177 1.78856,-3.80047 1.05821,-3.54915 0.49305,-8.50385 0.5361,-9.78096 0.23663,-6.9975 2.14654,-13.41625 4.56837,-17.83816 3.49987,-6.39002 12.22923,-9.11426 17.62732,-13.69144 5.5905,-4.74091 11.2623,-13.90119 12.83561,-19.44163 1.31168,-8.52887 -5.33257,-12.13506 -6.39371,-11.31747 -0.4809,-0.31537 -0.85249,-0.868 -1.17334,-1.27236 -3.25005,-4.09773 -1.04644,-10.3535 -2.96194,-15.33393 -1.21642,-3.16209 -2.00895,-5.81898 -3.11827,-4.02675 -0.74693,-1.83528 -0.64058,-0.91248 -1.15313,-4.36416 -0.51217,-3.45202 2.53658,-16.15406 1.97325,-15.98446 -2.853,0.85987 -3.0399,1.78193 -4.47817,2.13516 0.99675,-1.97033 2.09539,-3.35414 3.10391,-5.56144 1.3419,-2.93579 3.54878,-8.19368 4.6092,-10.2935 1.06005,-2.10021 4.0275,-6.1641 4.42268,-6.98718 -2.16975,0.76826 -4.55697,3.16688 -5.01135,3.17423 -0.24225,-1.30031 2.9277,-5.3414 3.0852,-9.39977 0.0941,-2.41737 -1.95229,-4.4565 -3.51717,-6.0232 -1.56375,-1.56523 -3.76957,-2.35704 -6.11148,-2.35704 -1.47251,0 -2.43027,1.24512 -3.06792,1.31687 -0.5313,0.06 -0.83118,-1.06666 -0.83118,-3.62716 0,-0.66266 0.0225,-1.48206 0.58023,-1.57626 1.20023,-1.02803 4.32334,-0.97725 6.98131,-0.21968 1.90042,0.54125 3.70293,2.0027 4.59851,2.21647 6.02392,1.43976 7.01073,-4.03188 2.95384,-6.58173 -2.17231,-1.36506 -5.93048,-1.12295 -9.40088,-0.96989 -2.04578,0.0905 -3.83471,0.77304 -5.32819,0.44742 -0.68325,-0.14903 -1.40846,-1.28044 -1.75691,-1.87135 -0.44299,-0.75207 -1.12958,-2.47183 -2.26027,-3.8461 -1.06628,-1.29662 -2.53842,-2.3033 -2.62339,-3.35158 -0.0416,-0.5118 0.68839,-1.31024 1.10565,-1.62336 3.04395,-2.2827 9.28755,-3.70625 14.03696,-4.48889 2.90745,-0.47943 4.46126,-0.0592 6.7083,-1.38346 2.07664,-1.2234 6.16815,-4.54886 8.47148,-4.66879 3.02227,-0.15709 6.50441,0.39186 9.675,0.82859 1.10122,0.15162 1.99717,0.7094 3.05501,0.7094 3.86962,-1.08763 10.33177,-5.27405 12.53977,0.53168 0.39848,1.04752 0.81795,2.51192 0.95813,3.8711 0.0735,0.7116 -0.21188,1.48281 -0.0187,1.97511 0.23212,0.59496 2.03951,0.75023 3.30964,1.96333 3.6912,3.52451 9.00352,10.02051 10.81743,11.87676 1.10607,1.13215 1.77312,1.96775 1.56413,2.22272 -0.2055,0.25095 -1.95375,-0.44668 -2.559,-0.16335 -0.168,0.41321 0.144,1.43093 0.8028,2.99394 1.06556,2.52628 6.89411,4.67689 9.48184,6.25831 0.64683,0.39479 1.43647,1.531 1.35405,1.88349 -0.68183,-0.0184 -3.5823,0.17366 -2.65362,2.78531 0.195,0.5486 1.75545,1.07365 3.8244,1.77642 4.11064,1.3967 9.41265,5.70234 10.4826,7.17705 1.06999,1.47435 1.71979,2.28271 2.49132,3.32031 0.80141,1.07807 1.84635,1.84265 0.0964,2.02183 -0.47722,0.0486 0.18375,2.69296 1.30433,2.69296 -11.96873,16.52017 -21.47082,34.1607 -10.01352,53.25738 3.17243,5.2873 20.0046,14.71102 26.66284,12.20607 1.25171,1.49051 6.87461,7.43683 5.88413,10.52237 -1.55018,-0.60345 -0.98498,-1.10457 -0.8301,0.6446 l 0.48127,5.43892 c 0.28238,3.18893 -2.18959,-0.28883 -3.94691,-0.28883 -2.46116,0 0.30375,0.75831 1.6881,2.7452 1.5255,2.18889 3.3078,10.87817 4.19677,17.20087 0.41468,2.95087 4.62758,5.52904 5.82484,6.94856 -3.15727,-1.0008 -0.77524,4.8914 2.35556,10.09225 2.29152,3.80635 5.21186,7.65501 6.94234,11.28809 1.21238,2.54576 5.19458,9.91125 3.28275,12.56703 -0.95554,1.32825 -3.17239,2.52443 -5.15336,5.02977 -3.86524,4.49658 -7.16419,12.47167 -7.65206,18.17227 -0.66709,8.00891 -9.19853,8.64874 -14.96235,10.12643 -2.85702,3.39828 -3.43838,2.91517 -3.92997,3.01631 -0.95921,-1.11889 -0.57581,-2.25548 -0.38561,-5.01499 0.0225,-0.32737 -0.97796,0.74801 -2.4111,1.49456 -2.05864,1.07292 -4.83915,2.0583 -5.31124,2.21794 -0.21225,-0.918 1.1649,-3.77137 0.97283,-3.42956 -0.2865,0.51075 -1.74844,0.63911 -3.19444,1.32791 -1.33451,0.63544 -2.52041,1.52955 -3.07597,1.76468 -0.0484,-1.10937 -0.6792,-0.16538 0.0338,-2.79972 0.37567,-1.38892 0.65715,-1.86615 0.55447,-1.86765 -0.10237,0 -2.54685,0.22725 -3.53332,1.14323 -1.57073,1.45882 -2.78528,1.96732 -3.22095,2.07697 -0.11475,-1.00931 0.75832,-3.55361 2.09103,-5.23391 1.51774,-2.10206 3.00533,-3.85534 5.43413,-4.4139 2.58585,-0.59415 5.5029,-0.345 7.62484,-2.38822 2.90152,-2.79417 7.05266,-7.97625 8.23635,-12.49347 1.87575,-7.15755 0.77152,-16.97126 -7.78452,-19.11637 -1.32645,-0.33225 -0.86651,1.80881 0.62108,3.09619 -1.17191,1.45522 -5.5515,-4.01494 -5.99378,-3.44097 -0.14737,1.35072 -0.0829,3.11535 0.85508,4.09812 -0.80618,0.14287 -1.74038,-1.37719 -3.4296,-2.65872 -3.56865,-2.7066 -4.33362,-2.76067 -8.36037,-2.76067 4.80128,-6.52691 9.55287,-14.32359 4.44807,-23.8823 -15.04399,-28.16845 -40.5933,-4.36525 -50.6823,9.47338 -2.82469,3.87479 -3.81668,7.90042 -3.78278,8.65068 z"
     id="path4931"
     style="fill:#1f1a17;fill-rule:evenodd;stroke:#1f1a17;stroke-width:0.28037074;display:inline" />
  <path
     d="m 510.91545,205.49281 c 2.44238,0.7771 4.37775,-3.41447 7.6263,-1.55786 1.99313,1.13915 1.99534,3.44797 1.99534,5.54891"
     id="path4933"
     style="fill:none;stroke:#1f1a17;stroke-width:0.28037074;display:inline" />
  <path
     d="m 581.36014,324.16441 c 1.90485,1.27603 0.65126,0.50775 2.12044,2.40854 -0.078,0.0968 -0.37126,-0.195 -0.89262,-0.21634 2.43799,2.71209 2.13113,1.00448 3.18821,4.55512 -0.94155,-0.59569 -1.68772,-1.77493 -2.83462,-2.03141 1.00009,1.29516 1.94201,3.44797 2.07079,5.06325 -0.39882,-0.45476 -1.56192,-1.66678 -1.73007,-1.92798 -0.015,1.68001 2.14842,3.62899 1.60572,5.97021 -1.41807,-0.98756 -1.91258,-1.71792 -3.76662,-2.25807 0.216,0.58391 0.0769,0.69946 0.33863,1.32939 -0.95963,-0.40365 -3.969,0.0831 -4.89731,-0.40034 l 1.54091,-12.91326 c 1.12298,0.33705 2.13405,-0.33116 3.25661,0.42094 z"
     id="path4935"
     style="fill:#a92211;fill-rule:evenodd;stroke:#1f1a17;stroke-width:0.28037074;display:inline" />
  <path
     d="m 502.63204,207.70681 c -1.8618,0.53167 0.72705,2.39824 -1.85884,2.81548 -1.79261,0.28883 -3.26805,1.14798 -5.24794,1.14798"
     id="path4937"
     style="fill:none;stroke:#1f1a17;stroke-width:0.28037074;display:inline" />
  <path
     d="m 486.15247,235.90307 0.8952,-0.5302 c 0.051,0.19612 0.0908,0.40216 0.11663,0.61887 l 0.85031,-0.45807 -0.37237,1.09425 1.17334,-0.92169 c 0.0386,0.34256 0.0375,0.77304 0.007,1.25872 l -0.3768,1.23334 0.2835,-0.0879 c -0.19875,1.99976 -0.56149,4.40462 -0.27713,5.60045 l 6.21709,-2.13517 0,0 0.23925,0.77083 -0.5442,1.28743 0.76901,-0.56369 0.2295,0.73994 -0.79699,1.4747 0.98535,-0.86834 0.291,0.93678 c 0,0 1.44417,-0.63213 2.11568,-0.89814 l -1.25839,1.95707 -0.48311,0.6038 -0.5232,0.92611 -0.80539,-0.32194 -2.0535,1.04678 0.32213,-4.14705 -2.4564,1.93242 -1.24804,2.29522 1.24804,-0.36244 -5.667,6.7646 c -2.0097,3.17056 -4.3428,6.53096 -5.94555,9.93294 l 4.88407,-2.87067 0.13238,2.19182 4.0194,-6.47613 -0.22088,6.78152 2.0325,-3.76145 0.86978,-1.64323 c 0.88676,2.04722 0.50115,2.62452 1.43388,5.90912 l 1.36028,-3.86338 0.3225,3.01969 0.9261,-2.29485 0.6921,2.14105 0.53167,-1.98578 0.80393,1.74552 1.19329,-2.14252 0.7215,1.17557 26.81921,-4.11469 0.16125,-2.13406 -0.20138,-1.24805 3.14037,-5.07353 0,0.72484 1.20795,-1.5299 -4.22768,-5.87859 -0.72484,3.22096 -5.75756,-4.63055 -0.0405,2.4159 -0.84551,2.97959 -1.36875,-1.40921 -1.36909,-2.53659 -0.44302,1.57037 -1.4493,1.73117 -1.57039,-0.92611 -0.24188,-1.0869 1.81215,1.16748 0.92573,-1.12737 0.24187,-2.09359 0.68438,-0.0806 2.53699,3.54327 0.40248,-2.25474 -0.16125,-3.10027 5.51618,3.86522 0.12112,-4.10697 1.44934,0.84554 0.24188,-0.76496 4.23941,4.64416 0.29812,-3.63673 2.65804,0.68254 -1.9545,-3.46087 5.13866,2.35151 -1.91737,-2.87508 6.8415,2.20285 -3.94249,-4.77954 5.57063,2.40045 -3.55763,-4.73577 4.96943,2.43098 -4.7277,-4.20263 0.92613,0.0802 -7.29476,-4.22836 3.83209,0.82455 -1.73411,-3.47114 2.09358,-1.02656 -3.58155,-3.24193 -0.95553,2.60097 -4.04329,0.65016 0.48349,1.32863 -1.93283,-0.28185 0.2415,2.4159 -1.52989,-0.84553 2.15982,2.61275 -0.48312,-0.0405 0.0401,1.28852 -2.44166,-1.28375 0.0405,2.93912 -2.93948,-1.5299 0.282,3.74453 -3.8652,-2.29521 -0.72484,5.51617 -3.26145,-3.78463 2.01342,0.9261 1.16745,-3.90568 3.18082,1.48979 0.44303,-3.3019 2.85888,1.81212 -0.76533,-3.78502 1.97328,1.0468 -1.24841,-2.17417 2.21464,0.36244 -0.88601,-2.69774 2.09392,0.60416 c 0,0 -0.96656,-1.44969 -0.7248,-1.40958 0.2415,0.0404 2.99355,-0.046 2.99355,-0.046 l -1.88606,-1.93684 3.83726,0.59937 -2.29706,-1.53872 c 0.18187,-0.0386 0.36487,-0.0784 0.5508,-0.11959 l 2.36404,-0.23621 c -0.46917,-0.98572 -2.84937,-0.79733 -2.14549,-2.43981 0.23437,-0.65678 -2.09543,-1.92286 -2.68193,-2.25144 l 0,0 0,-0.65677 1.173,0 c 0,-0.49268 -0.93825,-1.47802 -1.64212,-1.47802 l -3.1194,-1.22303 c -1.02176,-3.2e-4 -1.26645,-1.21458 -1.16528,-2.20581 l -0.14587,-2.6282 c -0.35213,-3.1205 -0.85106,-3.96161 -2.49353,-4.94695 -3.40162,-2.13554 -10.01572,1.62556 -10.2501,1.46145 -0.61335,0 -6.56883,-1.32127 -8.70993,-1.5413 -1.85588,0 -3.3648,-0.30135 -4.55693,0.039 -4.78691,1.36616 -5.41684,4.55658 -9.71771,5.40985 -5.53013,1.09683 -7.5321,1.33342 -11.45546,2.19329 -3.0495,1.14945 -3.7611,2.4067 -4.3476,5.19864 -0.82122,3.77765 1.77682,6.2204 3.43916,7.02142 0.93825,0.1641 10.63459,-1.13179 11.90145,-0.92905 4.48849,0.16777 10.19782,7.84156 6.3672,10.38107 -2.46338,1.47838 -13.25471,-2.95641 -16.77368,-2.95641 -3.87075,0 -2.81512,2.7923 -1.8765,2.62783 2.81475,-0.49267 1.52475,-0.65677 4.2225,0 2.80883,0.67812 6.57653,1.13253 8.06929,3.48919 l -0.40102,1.67818 z"
     id="path4939"
     style="fill:#a92211;fill-rule:evenodd;display:inline" />
  <path
     d="m 573.96773,343.8994 c -0.14025,0.10927 -1.70839,-0.30615 -2.33937,-0.29438 0.93162,1.62447 -1.78346,-0.78002 -2.02849,-0.8378 -1.66379,-0.39551 5.70417,5.79762 4.5507,5.31857 0.37425,0.78226 1.87801,-12.33523 5.03565,-10.37668 1.21017,0.75024 5.90359,6.68329 6.21893,11.29136 0.054,0.79255 -2.41222,-1.31056 -2.18445,-0.57802 0.45,1.44823 2.60835,4.01902 2.98804,5.27664 0.22237,0.73625 -3.31403,-0.70682 -3.10137,-0.0128 2.71024,0.29839 2.73529,2.82467 3.89427,4.74864 l -1.6914,-0.26123 4.437,4.96941 -5.03528,-3.36849 5.26815,5.04079 -3.91747,-1.55566 5.0397,3.78207 -5.93562,-2.0071 7.5597,5.37819 -6.25687,-0.42828 7.58032,3.49837 c -1.56558,0.14201 -4.07088,0.10744 -5.49078,0.0158 0.63401,1.09535 3.98775,-0.2259 6.88972,2.49681 0.96698,0.90735 2.14361,2.92699 3.27686,4.75305 l 3.85384,6.77862 2.27021,4.33875 c 0.30375,0.58098 0.93859,5.571 0.29438,6.06956 -3.24229,2.50755 -9.38505,10.63091 -10.52606,14.98324 l -0.89667,3.56501 c -0.6222,1.92547 -2.25693,8.81734 -3.83355,9.96341 -1.6944,1.23124 -1.36766,1.30478 -3.23568,2.01416 l -0.38854,0.98903 -0.261,-0.90581 -1.44968,0.63832 -0.57915,-0.95775 -1.37055,1.8861 -0.36262,-1.78564 -1.21493,1.43205 -0.27937,-1.29258 -0.92498,-0.34275 -3.04031,1.08206 2.0049,-2.92474 c -5.76784,4.22835 -4.54369,2.83425 -5.77114,1.06958 -0.0892,-0.1275 -1.57845,0.0735 -1.64838,-0.0836 -0.1185,-0.26775 4.42635,-3.01489 4.25306,-3.27612 -0.096,-0.14512 -4.54553,2.24037 -4.72365,2.21464 l -1.27856,0.64763 -1.65278,-0.68914 -0.24975,-0.47284 2.61533,-1.24181 3.2817,-1.99133 c 1.20018,-1.39556 2.82465,-2.30145 4.88808,-4.58673 -1.90447,-0.5883 -5.67952,3.60986 -6.96255,4.60661 l -3.69228,1.75219 -1.24399,0.37012 -0.46695,0.18938 -0.84551,-0.33 -0.62513,-1.73494 2.78749,-0.50295 1.34704,-0.5625 2.2485,-1.31063 -0.94009,-0.24937 5.54081,-3.30184 -2.17894,-0.2475 3.67868,-1.42582 -1.7856,-0.86239 4.47379,-5.94263 -1.39932,0.0592 2.12157,-1.47581 -1.54354,-0.0604 2.6109,-1.97145 -1.38416,-0.0337 2.3754,-1.52989 -1.70243,-0.0866 2.59583,-1.878 -2.04465,-0.52098 -1.81395,-1.65795 0.50625,-6.43564 -1.25539,0.17887 0.49526,-2.0292 -1.26424,1.23188 -0.10275,-3.37365 -1.08285,2.12524 -0.78626,-2.1738 0.9051,-2.5377 -1.58216,2.31768 0.35962,-4.33987 -1.12995,3.16834 -0.6807,-5.09453 -0.27375,5.03636 -1.83712,-6.62808 0.48712,5.5092 -2.85446,-4.17908 0.81019,4.89983 -3.01635,-3.69889 0.62955,4.81526 -4.30088,-5.41646 c 0.0945,1.8099 -0.10425,3.45938 0.306,5.5791 l -7.01002,-3.51274 1.17517,-6.25095 5.99892,-3.15948 5.92458,-9.26365 c 3.04107,-7.06999 0.60308,-22.18829 5.93674,-27.40534 1.22194,-0.30465 1.96628,-0.45993 2.77354,0.067 0.5313,0.34733 -4.73539,5.24646 -4.81451,5.3083 z"
     id="path4941"
     style="fill:#a92211;fill-rule:evenodd;stroke:#1f1a17;stroke-width:0.28037074;display:inline" />
  <path
     d="m 459.24934,290.28939 0.6288,-3.45385 c 0.43233,1.24547 1.14615,4.59521 1.49827,5.58056 l -0.015,-5.01615 1.69804,6.58282 0.41317,-3.955 1.3728,5.08715 -0.0825,-3.93772 3.90274,8.43284 c 0,-0.16448 -0.14925,-5.96909 0.43748,-8.26836 l 1.12226,3.31221 0.87161,-2.98398 0.35213,-0.32824 0.82087,0.32857 0.46916,0.98535 0.70384,-0.32857 0.93825,0.49267 0.82125,-0.98535 1.05559,1.80659 0.70391,-0.98531 0.70384,0.82123 0.82091,-0.32857 0.93825,1.64246 1.17296,-0.49267 2.20913,4.01388 -0.0113,-0.6288 c -4.92855,-12.03168 -4.94475,-28.59933 0.17438,-41.49862 -2.41444,1.08322 -9.0381,6.77746 -11.49964,7.3831 -1.36211,0.0296 -1.10749,-0.19721 -3.99439,-0.98719 -6.66412,-1.82425 -11.55262,-4.63935 -16.5735,-9.39537 -3.96825,-3.76698 -15.59775,-18.04491 -18.8673,-17.19203 l 0,1.97069 c 0,1.47801 -1.05562,1.47801 -0.11737,3.1205 0.5865,0.98534 1.173,1.64248 1.75953,2.62783 1.64209,2.79231 0,3.12049 -0.11737,6.56958 -2.5833,1.70247 -3.29048,7.5001 -0.62625,9.59884 0.90296,0.7116 2.43176,-0.0345 3.91894,1.38052 1.48725,1.4151 4.2534,5.43595 4.60515,6.09274 0.80396,1.12552 1.69031,6.23622 3.63562,7.89968 1.06448,0.9103 2.7294,-1.38198 3.6117,0.007 3.41119,5.17511 6.76313,10.10256 10.54298,15.02893 z"
     id="path4943"
     style="fill:#a92211;fill-rule:evenodd;display:inline" />
  <polygon
     points="1940.66,879.377 1975.39,891.716 1961.8,888.765 1987.77,902.713 1974.48,899.763 1984.14,906.737 1966.33,903.25 1985.95,911.298 1971.46,908.347 1995.02,919.345 1980.52,915.59 1995.62,923.637 1984.14,922.295 1996.83,928.465 1986.56,927.123 1995.02,932.489 1952.74,946.705 1908.95,945.096 1896.87,928.465 1901.7,920.418 1908.95,915.858 1914.08,912.37 1914.69,907.274 1906.84,909.152 1919.52,892.252 1906.23,898.421 1912.58,891.179 1922.84,887.96 1927.37,885.546 1942.17,885.278 "
     transform="matrix(0.31152308,0,0,0.31152308,-62.205998,-34.02169)"
     id="polygon4945"
     style="fill:#a92211;fill-rule:evenodd;stroke:#1f1a17;stroke-width:0.89999998;display:inline" />
  <path
     d="m 501.12427,354.57217 0.23475,1.14984 c -1.75946,0.49267 -1.87683,-3.1205 -3.75371,3.44908 l -1.05558,0.32858 -0.23438,1.9707 -1.056,-0.1641 -4.10512,4.10584 0.11737,1.64247 -3.04987,2.62786 0.11737,0.82123 0.35175,-0.82123 c 1.05562,0 1.87687,3.12049 1.87687,3.77728 0,1.31391 -0.93862,0.98568 -0.23475,2.46371 l 0.23475,-0.49268 c 2.58034,0.3285 -0.35212,-1.1498 2.58034,-0.3285 1.64213,-2.46339 0.70388,-6.56961 2.81513,-9.03298 0.93862,-0.82123 2.69775,-6.40548 3.75371,-6.89815 0.93829,0 3.28425,1.47802 3.87075,2.46338 -0.11738,-3.28461 2.346,4.43477 1.52475,0.16447 -0.82088,-4.10622 -0.58646,-2.62786 0.82125,0.16406 1.52475,2.7923 -0.5865,-4.10584 -0.46946,-4.27033 0.23475,-0.98535 2.4633,5.91281 2.81546,3.12087 0.117,-0.98569 -2.46338,-5.9128 -1.52513,-5.42013 0.35213,0.32858 3.04988,6.40548 1.99425,2.46375 0,-0.16447 -2.346,-7.22671 -0.5865,-3.28498 1.8765,3.94176 0.35175,-1.9707 -0.23475,-3.1205 l 0.11738,0.82124 -2.22863,-0.1641 -0.70387,-0.98569 -0.58646,1.64248 -0.82092,-0.32858 0.117,1.1498 -0.23437,-0.16406 -2.46334,1.14942 z"
     id="path4947"
     style="fill:#1f1a17;fill-rule:evenodd;display:inline" />
  <path
     d="m 488.33936,370.50346 0.82088,7.39082 -0.46913,0.16425 -2.58034,-2.29928 -0.93862,0.16425 c -0.11738,0.98535 1.52509,5.2557 1.52509,7.06227 l 0,1.31396 c 0,0.65711 0,0.49267 -0.35213,0.98531 l -1.64209,-1.47799 -0.23437,0.16388 -0.23475,1.97107 -0.70388,0.3285 1.40772,1.14945 0,1.97108 0.23437,0 0.46913,-0.49268 0.23475,-0.98572 2.346,-0.82091 0.11737,-0.98569 0.117,-0.16425 -0.35175,-1.97108 0,-1.64208 c 0,-0.98573 0,-0.49268 0.46909,-1.14983 l 0.93862,2.13517 c 1.40738,-0.49267 0.82088,-5.91281 0.82088,-7.39083 -0.70388,-1.47802 0.23475,-1.14983 0.23475,-2.46374 0,-0.65678 -0.82121,-3.77728 -1.87684,-3.77728 l -0.35175,0.82124 z"
     id="path4949"
     style="fill:#1f1a17;fill-rule:evenodd;display:inline" />
  <path
     d="m 561.23265,432.99502 6.41985,-4.93891 c 0.70387,-5.77188 -6.90848,2.02996 -6.41985,4.93891 z"
     id="path4951"
     style="fill:#d1a345;fill-rule:evenodd;display:inline" />
  <polyline
     transform="matrix(0.31152308,0,0,0.31152308,-62.205998,-34.02169)"
     style="fill:none;stroke:#1f1a17;stroke-width:8;display:inline"
     class="fil0 str4"
     points="1739.98,988.363 1733.11,1024.53 1743.95,1012.55 "
     id="polyline4953" />
  <path
     d="m 567.20764,433.23175 5.78441,-3.5466 c 1.33196,-5.21523 -7.42579,0.57552 -5.78441,3.5466 z"
     id="path4955"
     style="fill:#d1a345;fill-rule:evenodd;display:inline" />
  <path
     d="m 556.0053,430.96071 7.27822,-5.59488 -0.99896,-1.5987 -0.85657,0 c -1.99793,-0.39964 -5.56549,5.99486 -5.42269,7.19358 z"
     id="path4957"
     style="fill:#d1a345;fill-rule:evenodd;display:inline" />
  <path
     d="m 511.2114,205.9358 c 0.11737,2.46336 2.93246,3.28461 4.69196,1.80659 l -0.70387,-1.64249 0.35212,-0.32857 1.99388,0.82125 0.93862,-0.82125 c 2.69771,0.32857 1.52475,2.7923 2.22859,3.77765 1.17304,-1.80659 -0.46946,-4.92708 -2.81509,-5.74834 -1.87687,-0.65714 -5.74762,0.98534 -6.68621,2.13516 z"
     id="path4961"
     style="fill:#1f1a17;fill-rule:evenodd;display:inline" />
  <path
     d="m 502.18031,200.68009 7.50709,0.65678 0.46912,0 0.82125,-0.1641 c -0.23475,-1.31391 -2.69771,-2.79194 -4.22283,-2.79194 l -1.29038,0 c -1.17262,0 -3.40162,0.98535 -3.28425,2.29927 z"
     id="path4963"
     style="fill:#a92211;fill-rule:evenodd;display:inline" />
  <path
     d="m 495.90315,211.90333 c 1.15642,0 1.88715,-0.007 2.89755,-0.35542 0.30375,-0.10485 0.53389,-0.46471 0.87457,-0.46471 0.59498,0 3.00019,-0.66156 3.06128,-1.2028 0.0562,-0.49672 -0.54641,-0.83523 -0.54641,-1.44858 0,-0.70314 0.48787,-0.63875 0.80287,-0.87754"
     id="path4965"
     style="fill:none;stroke:#1f1a17;stroke-width:1.24609232;display:inline" />
  <path
     d="m 509.32359,210.91894 c 0.39112,0.0644 0.74177,0.13687 1.14503,0.13687 l 0.77894,0"
     id="path4969"
     style="fill:none;stroke:#1f1a17;stroke-width:1.24609232;stroke-linejoin:round" />
  <path
     d="m 507.90305,212.44976 c 0.88784,0 1.56742,0.32121 2.38206,0.49231 0.38227,0.0802 0.61591,0.0968 0.87052,-0.0548"
     id="path4971"
     style="fill:none;stroke:#1f1a17;stroke-width:1.24609232;stroke-linejoin:round" />
  <path
     d="m 506.89371,214.17217 c 0.73663,0.0258 1.33416,0.21856 2.1072,0.21856 0.52726,0 0.62769,-0.008 1.05379,-0.10928"
     id="path4973"
     style="fill:none;stroke:#1f1a17;stroke-width:1.24609232;stroke-linejoin:round" />
  <path
     d="m 505.19902,215.81203 c 0.47025,0 0.49193,0.12841 0.87056,0.24616 0.6255,0.19463 1.58213,0.19132 2.29006,0.19132"
     id="path4975"
     style="fill:none;stroke:#1f1a17;stroke-width:1.24609232;stroke-linejoin:round" />
  <path
     d="m 504.05573,217.2332 c 1.30105,0.43123 2.46559,0.57399 3.93918,0.57399"
     id="path4977"
     style="fill:none;stroke:#1f1a17;stroke-width:1.24609232;stroke-linejoin:round" />
  <path
     d="m 501.48878,217.99861 c 0,0.62329 2.54063,0.8746 3.38984,0.8746"
     id="path4979"
     style="fill:none;stroke:#1f1a17;stroke-width:1.24609232;stroke-linejoin:round" />
  <path
     d="m 498.92495,219.33785 c 0.46398,0 0.88195,0.21819 1.28263,0.35543 0.99934,0.34145 1.93316,0.35543 3.069,0.35543"
     id="path4981"
     style="fill:none;stroke:#1f1a17;stroke-width:1.24609232;stroke-linejoin:round" />
  <path
     d="m 457.80386,277.69763 c 0.84739,3.14333 1.66718,4.59191 1.66718,4.59191 l 0.65602,-2.62415 1.39414,5.08422 c 0,0 0.87458,-4.12756 0.87458,-3.96345 0,0.16407 1.31208,4.51023 1.31208,4.67397 0,0.1641 0.98389,-2.84271 0.95667,-2.59658 -0.0263,0.24615 1.50337,4.29129 1.50337,4.29129 0,0 0.60124,-3.19778 0.65606,-3.00644 0.0544,0.19132 1.42136,2.73308 1.42136,2.73308 0,0 0.32776,-2.51451 0.35513,-2.35041 0.0263,0.16373 0.84735,2.26874 0.84735,2.26874 0,0 0.0821,-2.56973 0.32813,-2.24151 0.24562,0.32782 1.44858,2.48726 1.44858,2.48726 l 0.21863,-2.48726 1.06627,1.66715 c 0,0 0.27338,-2.65141 0.43714,-2.4873 0.16425,0.1641 1.03868,1.99534 1.03868,1.99534"
     id="path4983"
     style="fill:none;stroke:#1f1a17;stroke-width:0.62304616;stroke-linejoin:round;display:inline" />
  <path
     d="m 448.26191,425.12283 2.11163,-0.82129 0.23437,-0.16463 c -0.11737,-0.82091 -0.5865,-1.64212 -0.5865,-1.64212 l -1.05562,-0.3285 c -2.58038,0 -6.33409,2.79195 -6.56846,5.0916 3.28425,0 2.81512,-1.80694 5.86462,-2.13514 z"
     id="path4985"
     style="fill:#d1a345;fill-rule:evenodd;display:inline" />
  <path
     d="m 451.53915,428.12898 0,-0.4926 0.11737,-0.3285 -2.81508,-0.98532 c -1.87692,1.14942 -4.22288,3.28456 -3.63638,5.74831 0.93859,0.16424 2.11121,-0.82122 2.69775,-1.47837 1.40771,-1.31392 1.64246,-0.82129 3.519,-1.64208 l 0.11738,-0.82133 z"
     id="path4987"
     style="fill:#d1a345;fill-rule:evenodd;display:inline" />
  <path
     d="m 453.8382,428.67108 c -1.8765,1.14982 -3.63604,2.95635 -3.0495,5.4201 0.93825,0.16425 1.87646,-1.31393 2.46296,-1.97104 2.69817,-1.31393 6.4515,-0.16425 0.58654,-3.44917 z"
     id="path4989"
     style="fill:#d1a345;fill-rule:evenodd;display:inline" />
  <path
     d="m 441.31185,423.8113 c 0.86647,-0.40691 3.75004,-2.09467 6.16706,-2.67382 0.0499,-0.49047 0.33338,-0.95663 0.36638,-1.28374 l -0.26663,-0.85256 c -1.93354,0.46357 -6.55084,1.80952 -6.26674,4.81012 z"
     id="path4997"
     style="fill:#d1a345;fill-rule:evenodd;display:inline" />
  <path
     d="m 473.20872,217.56622 c -0.36498,0.4912 -0.37087,0.9353 -0.20128,1.65058 0.003,0.011 -0.009,0.14644 0,0.16116 0.0184,0.0294 0.0607,0.0416 0.0806,0.12105"
     id="path5051"
     style="fill:none;stroke:#1f1a17;stroke-width:0.62304616" />
  <path
     d="m 474.49531,218.13008 c -0.33887,0.50775 -0.2009,1.69105 0.16115,2.17416"
     id="path5053"
     style="fill:none;stroke:#1f1a17;stroke-width:0.62304616" />
  <path
     d="m 475.50153,218.33132 c -0.188,0.43822 -0.13614,2.06267 0.76532,2.06267"
     id="path5055"
     style="fill:none;stroke:#1f1a17;stroke-width:0.62304616" />
  <path
     d="m 476.83173,218.21045 c -0.76201,0.73662 0.23143,1.89489 0.7852,1.97584"
     id="path5057"
     style="fill:none;stroke:#1f1a17;stroke-width:0.62304616" />
  <path
     d="m 477.95633,218.05251 c -0.84074,0.88673 0.45588,2.15687 1.23002,1.78046"
     id="path5059"
     style="fill:none;stroke:#1f1a17;stroke-width:0.62304616" />
  <path
     d="m 479.24604,218.16995 c 0.0423,0.64647 0.36903,1.58399 1.22855,1.35034"
     id="path5061"
     style="fill:none;stroke:#1f1a17;stroke-width:0.62304616" />
  <path
     d="m 480.60428,218.16933 c 0.0537,0.33961 0.35323,1.11191 1.12332,0.9526"
     id="path5063"
     style="fill:none;stroke:#1f1a17;stroke-width:0.62304616" />
  <path
     d="m 480.40174,339.57857 -6.5607,4.10622 c -2.80961,1.75801 -6.00518,5.80352 -8.78719,9.87811 -3.16796,4.6401 -3.74674,9.68715 -4.66991,15.03295 l 0.11737,3.65918 1.46074,-3.35856 -2.44095,7.37391 4.56394,-7.16787 -3.69889,9.43182 4.71514,-7.32056 -3.31144,10.70816 5.43705,-9.37404 -6.37935,15.08926 6.24874,-12.29441 -5.41534,14.68012 5.51689,-13.09503 -2.94094,10.98521 3.85714,-7.99384 -2.35005,9.11314 2.9049,-6.07211 -2.0178,8.5995 2.874,-6.44337 -1.73963,9.5775 2.9748,-6.71861 -1.79921,7.29885 2.86954,-4.60331 -0.279,4.75672 1.75249,-1.60642 c -0.114,1.00556 0.015,2.64952 -0.0506,3.69154 0.50888,-0.35513 1.34595,-1.57995 1.93834,-2.12153 l -0.93019,4.63864 1.88093,-2.67641 -0.97208,4.5231 c 0.73369,-0.54454 1.0659,-0.46875 1.68994,-0.96068 l -1.23405,2.65763 1.00335,-0.14663 -1.67779,2.2941 1.35473,-0.61447 -1.56375,1.99905 1.7238,-0.32963 -2.29632,1.68004 1.96962,-0.16763 -2.62047,1.6035 2.60757,-0.4323 -3.1032,1.61382 2.01262,-0.0431 -2.5557,1.31947 1.61231,0.84034 c -1.06665,0.50775 -1.61857,0.0439 -2.62083,0.47647 l 1.70651,0.91508 -2.90381,0.26887 4.15038,1.68364 -5.44443,-0.8289 c -3.22058,1.37685 -2.40192,1.39448 -9.06533,1.78519 -4.76115,0.27937 -5.00509,0.47914 -9.69082,2.14954 0.27075,0.63427 0.0491,1.16677 0.25012,1.50637 0.60308,1.0185 1.36871,0.87713 1.49824,1.14758 0.42975,0.90071 1.22749,0.71347 1.55269,1.82947 0.26325,0.90251 -0.0551,2.71684 0.57033,3.34706 0.53944,0.54349 1.23848,0.79733 1.58768,1.22123 0.567,0.68921 1.35547,0.89482 1.78084,1.18001 1.17592,0.78848 1.64981,0.59565 2.88206,0.71783 l 0.74655,-0.79103 0.30712,-0.63397 0.51439,-0.38749 -0.0225,0.79515 -0.49121,1.03612 0.37087,0.36825 c 0.88857,-1.22523 0.97433,-1.22343 1.71574,-2.06598 l 0.21525,0.58102 -0.26812,0.59123 -0.4695,0.86685 0.40327,0.0337 0.79178,-0.87424 0.3465,-0.67665 0.35362,-0.38378 0.44779,0.1995 -0.38895,0.59385 -0.76605,1.13247 0.68621,0.0694 1.12736,-1.18256 0.50963,-0.59644 -0.81795,1.61228 0.64721,0.11137 1.54133,-1.66931 c -0.0439,2.87917 4.20555,1.10235 6.6321,1.21564 3.4362,0.0188 5.11181,-1.39812 7.57961,-3.58519 1.95041,-1.72927 3.19151,-3.96821 4.68277,-5.10109 4.47492,-3.40054 8.59362,-3.8064 8.86662,-6.25691 0.66048,-5.93374 -1.73779,-12.32449 -1.90703,-17.30348 -0.0581,-1.71611 0.14588,-1.84818 0.54675,-3.91747 0.1155,-0.59681 1.93166,1.51222 2.70251,3.42004 0.19088,-1.66313 -0.68175,-6.08944 -0.80175,-6.78045 0.46437,0.47943 1.36729,1.45631 1.61787,1.79152 0.19612,-2.36625 -1.06707,-4.55437 -1.63294,-6.81465 0.45626,0.90071 0.53276,0.48934 1.58437,2.22533 -0.246,-2.02699 -2.13701,-5.95478 -2.13776,-7.07734 0.79624,0.6645 2.08733,2.93287 2.34896,3.31035 0.1065,-0.26288 -0.28125,-2.57595 -1.23558,-6.66045 l 1.32975,2.814 -0.83595,-5.11031 0.8757,0.97173 0.17737,-2.75328 1.4427,1.36065 0.33863,-2.39348 1.75841,3.84833 -0.43343,-4.28434 2.02879,5.7693 -0.42202,-5.83995 1.37613,1.45668 -1.17562,-5.45324 c 1.58659,3.32582 1.42357,3.13377 2.02665,3.81261 -0.16763,-1.33709 -1.05525,-3.36408 -1.19985,-5.39992 l 1.44454,2.17307 -0.76459,-4.94879 1.3452,2.34819 -0.23963,-2.75514 1.4997,2.85486 0.57473,-1.97842 0.65092,5.88853 2.59032,-7.52035 -4.2468,-23.86537 0.67443,-1.49238 -5.66958,-11.8466 -1.43682,0.83376 -1.13508,0.475 c 4.78687,7.14211 9.3225,-6.68842 0.56733,-0.23767 l -5.50878,-7.733 -0.46988,7.77091 -0.53497,-4.46313 -0.4857,4.75821 -0.93053,4.27438 -0.60671,-0.1122 0.45367,-3.93588 c -0.88125,2.49758 -0.78742,4.66621 -1.61861,7.25139 l -0.1155,-5.27994 -1.07475,5.57797 -0.35662,1.03906 -0.14325,-4.31669 -0.89337,3.97635 -0.80651,1.66935 0.12638,-4.38658 -1.93354,5.968 0.67886,-4.27141 -2.07112,6.95664 0.38962,-4.44287 -2.10536,5.78585 0.0401,-4.01534 -2.5362,4.67651 1.06778,-3.68123 z"
     id="path5065"
     style="fill:#a92211;fill-rule:evenodd;stroke:#1f1a17;stroke-width:0.28037074;display:inline" />
  <path
     d="m 481.27714,282.29259 2.32024,4.30933 0.77673,-5.23543 0.98715,3.10505 1.53214,-5.1291 0.94853,2.57707 1.7433,-3.49027 1.01403,3.35598 2.99543,-7.2341 -2.66903,3.80157 -0.64316,-4.12684 -2.20474,4.20816 -1.13029,-1.72013 -1.19396,4.20776 c 0.0593,-4.82885 -0.26212,-6.65936 -0.58687,-7.94199 -0.79587,2.09027 -0.96289,4.31926 -2.55683,8.71245 l -0.58174,-4.42779 -3.49211,6.54898 2.74451,-16.44804 1.74109,-3.62752 1.08874,3.30335 2.59436,-5.48159 -0.29437,7.4221 3.38839,-5.40505 2.33936,4.67911 2.8236,-5.00178 0.3045,3.17423 0.94267,-2.78163 0.63765,1.10419 1.3875,-2.01153 0.56037,0.26932 0.92722,-1.28743 2.61311,63.61178 -2.74297,-2.66244 c 0.33375,-6.45366 -1.56818,-2.33237 -1.45485,-9.79422 l -0.55485,7.2179 -1.19764,-5.36605 -1.35626,2.68671 0.38377,-6.9747 -1.51443,2.28748 0.62696,-3.90092 -1.82168,1.69179 0.30188,-5.46907 -2.01926,3.2629 -0.44892,-5.80649 -1.4655,3.45938 -0.17137,-5.23138 -1.94014,4.88185 -0.42757,-7.68739 -1.43644,2.28087 -0.37931,-8.55756 -2.20253,1.04899 -1.23626,-10.40796 z"
     id="path5067"
     style="fill:#a92211;fill-rule:evenodd;stroke:#1f1a17;stroke-width:0.28037074;display:inline" />
  <path
     d="m 599.38177,389.94873 c 0.85066,1.21053 2.20137,1.49201 2.59767,3.11351 0.13462,0.55042 0.22575,1.13659 0.35775,1.69256 0.0926,0.39071 0.0559,0.98865 0.1875,1.4103"
     id="path5079"
     style="fill:none;stroke:#1f1a17;stroke-width:0.93456918;stroke-linejoin:round;display:inline" />
  <path
     d="m 598.54376,392.31629 c 0.67478,0.82789 2.05313,1.9659 2.28345,2.9487 0.10238,0.43451 0.0589,0.77929 0.41798,1.10231 0.27712,0.249 0.16875,0.83231 0.21412,1.1484"
     id="path5081"
     style="fill:none;stroke:#1f1a17;stroke-width:0.93456918;stroke-linejoin:round;display:inline" />
  <path
     d="m 598.2852,394.21038 c 1.12222,1.54425 1.85036,3.03626 2.0244,4.84354"
     id="path5083"
     style="fill:none;stroke:#1f1a17;stroke-width:0.93456918;stroke-linejoin:round;display:inline" />
  <path
     d="m 598.20731,396.25709 c -0.0427,1.08544 0.98498,2.19292 1.33196,3.18304 0.13201,0.3768 0.43861,0.9 0.39109,1.36507"
     id="path5085"
     style="fill:none;stroke:#1f1a17;stroke-width:0.93456918;stroke-linejoin:round;display:inline" />
  <path
     d="m 597.16995,398.0047 c 0.1755,0.65681 0.33975,1.23776 0.67882,1.79153 0.13388,0.219 0.30525,0.39037 0.39885,0.6369 0.20325,0.53643 0.17175,1.05378 0.29888,1.62041"
     id="path5087"
     style="fill:none;stroke:#1f1a17;stroke-width:0.93456918;stroke-linejoin:round;display:inline" />
  <path
     d="m 596.02354,400.14175 c 0.26625,0.50337 0.42607,1.2558 0.6921,1.66054 0.41134,0.6255 1.12811,1.75984 1.14356,2.43503"
     id="path5089"
     style="fill:none;stroke:#1f1a17;stroke-width:0.93456918;stroke-linejoin:round;display:inline" />
  <path
     d="m 596.80239,404.41278 -0.98021,0.12582 0,0 -0.007,-0.0552 -0.0115,-0.0537 -0.0109,-0.0537 -0.0137,-0.053 -0.0149,-0.0533 -0.0178,-0.0504 -0.0187,-0.0533 -0.0203,-0.0544 -0.0237,-0.0537 -0.0234,-0.0511 -0.024,-0.0541 -0.0271,-0.0559 -0.028,-0.0555 -0.029,-0.0552 -0.0299,-0.0548 -0.0338,-0.0592 -0.0324,-0.0589 -0.0327,-0.0589 -0.035,-0.0611 -0.0349,-0.0614 -0.0368,-0.064 -0.0346,-0.064 -0.0379,-0.0674 -0.036,-0.0673 -0.0368,-0.0703 -0.0368,-0.0695 -0.0353,-0.074 -0.0349,-0.0732 -0.0353,-0.078 -0.0324,-0.0795 -0.0327,-0.0806 -0.0316,-0.0824 0.93161,-0.33261 0.0221,0.0618 0.0231,0.0607 0.0265,0.0589 0.0259,0.0581 0.0284,0.0607 0.0296,0.0578 0.0293,0.0607 0.0308,0.0585 0.0324,0.0592 0.0313,0.0585 0.0353,0.0603 0.0331,0.0596 0.035,0.0614 0.035,0.0611 0.0364,0.0633 0.0353,0.0633 0.0338,0.0629 0.0364,0.0674 0.035,0.0669 0.0346,0.0681 0.0338,0.0684 0.0342,0.0703 0.0324,0.0754 0.0296,0.0743 0.0299,0.0743 0.0283,0.0776 0.0259,0.0828 0.024,0.0813 0.0218,0.0846 0.0199,0.0861 0.0149,0.089 0.0149,0.0905 0,0 z m 0.004,1.37204 -0.98093,-0.10006 0.004,-0.0449 0.004,-0.0416 0.004,-0.0412 0.003,-0.0386 0.003,-0.0397 0.003,-0.0368 0.003,-0.0368 0.003,-0.0397 0.003,-0.035 0,-0.0353 0,-0.0342 0,-0.0346 0,-0.0335 0,-0.0338 0.003,-0.0331 0,-0.0313 0,-0.0353 0,-0.0335 0,-0.0331 0,-0.0308 -0.003,-0.0316 0,-0.0331 -0.003,-0.0324 -0.003,-0.0357 0,-0.0342 -0.004,-0.035 -0.004,-0.0349 -0.003,-0.0357 -0.004,-0.0364 -0.005,-0.0368 -0.003,-0.0394 -0.006,-0.0379 0.9802,-0.12583 0.005,0.046 0.007,0.0438 0.004,0.0441 0.004,0.0438 0.006,0.0438 0.003,0.043 0.003,0.0423 0.004,0.0423 0.003,0.0401 0.003,0.0434 0.003,0.0412 0,0.0434 0,0.0427 0.003,0.0412 0,0.0408 0,0.039 0,0.043 0,0.0412 0,0.0412 0,0.0416 -0.003,0.042 -0.003,0.0423 -0.003,0.0427 -0.003,0.0431 -0.003,0.0397 -0.003,0.0441 -0.004,0.0449 -0.003,0.0434 -0.004,0.046 -0.004,0.0449 -0.004,0.046 -0.004,0.0449 z"
     id="path5093"
     style="fill:#1f1a17;fill-rule:nonzero" />
  <path
     d="m 594.13571,403.72428 c 0.2775,0.6369 0.70643,1.11596 0.80981,1.80476 0.0514,0.34012 0.336,0.60454 0.30001,0.95812"
     id="path5095"
     style="fill:none;stroke:#1f1a17;stroke-width:0.93456918;stroke-linejoin:round;display:inline" />
  <path
     d="m 593.7681,406.66818 c -0.18375,0.64905 -0.0435,1.12038 -0.0488,1.7838 -0.003,0.24112 0.11363,0.3852 0.27412,0.55777 0.11475,0.12338 0.11475,0.45701 0.13688,0.61005"
     id="path5097"
     style="fill:none;stroke:#1f1a17;stroke-width:0.93456918;stroke-linejoin:round;display:inline" />
  <path
     d="m 486.91571,388.02974 -0.49781,-5.35058 2.73746,2.364 -1.8666,-9.70552 4.85314,5.47496 c 0,0 -2.48872,-12.69211 -1.86652,-11.44775 0.62216,1.244 3.6084,6.09714 3.6084,6.09714"
     id="path5099"
     style="fill:none;stroke:#1f1a17;stroke-width:0.31152308;stroke-linejoin:round;display:inline" />
  <path
     d="m 491.89384,366.74961 c 1.05341,1.34076 1.73741,2.00711 2.1153,3.60841 0.25725,1.08799 0.49781,2.4652 0.49781,3.60877"
     id="path5101"
     style="fill:none;stroke:#1f1a17;stroke-width:0.31152308;stroke-linejoin:round;display:inline" />
  <path
     d="m 493.51065,364.38515 c 0.49267,1.134 1.36909,2.09138 1.61745,3.23529 0.21975,1.01074 0.39079,2.28564 0.74655,3.2353"
     id="path5103"
     style="fill:none;stroke:#1f1a17;stroke-width:0.31152308;stroke-linejoin:round;display:inline" />
  <path
     d="m 494.0091,362.64374 c 0.4095,1.43313 1.68112,3.05058 2.36438,4.35531 0.69172,1.32126 0.49781,0.85104 0.49781,-0.62217 0,-1.31688 -0.10838,-2.69998 0.1245,-3.98187 l 0,0 c 0,0.63726 0.0964,1.28632 0.24862,1.86656 0.46508,1.76687 0.12488,-1.63587 0.12488,-2.3644 0,-3.56423 1.11964,4.08893 1.11964,0.6222 0,-0.41578 -0.13088,-4.70817 0.62223,-1.86621 0.69612,2.62565 0.62217,-1.55894 0.62217,-1.9909 0,-0.76644 -0.0971,-1.62999 0.1245,-2.36441 0.27975,-0.92575 1.18331,1.92765 1.49313,1.61747 0.56479,-0.56442 0.87128,-2.10387 0.87128,-2.86185"
     id="path5105"
     style="fill:none;stroke:#1f1a17;stroke-width:0.31152308;stroke-linejoin:round;display:inline" />
  <path
     d="m 491.61662,389.58116 c 0.66635,0.47576 1.336,1.32532 1.61562,2.11235 0.22261,0.62772 0.31056,1.3073 0.31056,1.98798"
     id="path5111"
     style="fill:none;stroke:#1f1a17;stroke-width:1.24609232;stroke-linejoin:round" />
  <path
     d="m 489.5668,388.4628 c 0.5589,1.02509 1.16933,2.07187 1.73963,3.04435 0.38632,0.65934 0.84442,1.45961 0.99417,2.17453 0.11184,0.53389 0.0317,1.46182 0.31052,1.92615"
     id="path5115"
     style="fill:none;stroke:#1f1a17;stroke-width:1.24609232;stroke-linejoin:round" />
  <path
     d="m 489.44219,390.3257 c 1.205,1.77201 3.04433,4.60441 3.04433,6.77233"
     id="path5119"
     style="fill:none;stroke:#1f1a17;stroke-width:1.24609232;stroke-linejoin:round" />
  <path
     d="m 489.8752,392.56244 c 0.20091,0.53573 0.42315,1.24805 0.68364,1.73964 0.55339,1.0464 0.68327,1.84007 0.68327,3.04433"
     id="path5123"
     style="fill:none;stroke:#1f1a17;stroke-width:1.24609232;stroke-linejoin:round" />
  <path
     d="m 489.50449,394.42846 c 0,1.15385 0.88379,1.88973 0.93199,3.04433 0.0293,0.70977 0.0622,1.44123 0.0622,2.17456"
     id="path5127"
     style="fill:none;stroke:#1f1a17;stroke-width:1.24609232;stroke-linejoin:round" />
  <path
     d="m 488.57304,397.59665 c 0.12252,0.91837 1.1969,1.44049 1.42908,2.29889 0.0865,0.32049 0.0644,1.52624 -0.0622,1.86362"
     id="path5131"
     style="fill:none;stroke:#1f1a17;stroke-width:1.24609232;stroke-linejoin:round" />
  <path
     d="m 487.82538,398.59041 c 0,0.93753 0.12215,1.77126 0.18617,2.67162 0.0501,0.70056 0.0556,1.06261 -0.43489,1.55307"
     id="path5135"
     style="fill:none;stroke:#1f1a17;stroke-width:1.24609232;stroke-linejoin:round" />
  <path
     d="m 486.274,400.45332 0,1.98836 c 0,0.44741 0.19243,1.05413 -0.43492,0.4971 -0.34511,-0.30651 -0.43819,-0.76314 -0.68326,-1.11856 -0.63725,-0.92279 -0.62143,1.4302 -0.62143,1.80182 0,0.16629 -0.16374,0.38523 -0.18657,0.37271 -0.4695,-0.25829 -0.56588,-1.30473 -0.99379,-1.30473 -0.31495,0 -0.22408,0.7013 -0.31093,0.9942 -0.45439,1.52989 -0.35467,-0.25314 -0.37271,-0.80763 -0.0187,-0.58208 -0.43492,-0.92942 -0.43492,-1.55347"
     id="path5139"
     style="fill:none;stroke:#1f1a17;stroke-width:1.24609232;stroke-linejoin:round" />
  <path
     d="m 477.09653,421.67427 c 0.38523,-0.38523 1.68481,-0.57766 1.68481,-0.57766 l 1.20316,-1.492 1.05893,0.38485 1.63659,-2.31029"
     id="path5143"
     style="fill:none;stroke:#1f1a17;stroke-width:0.62304616" />
  <path
     d="m 484.12449,415.60892 c -0.11738,0.2546 -0.0283,0.2285 -0.0964,0.43308 -0.0464,0.14018 -0.10672,0.22037 -0.14423,0.38523 -0.0256,0.10962 -0.13505,0.17146 -0.14461,0.33666 -0.0178,0.31349 -0.24065,0.44043 -0.24065,0.77008 l 0,0.52947"
     id="path5147"
     style="fill:none;stroke:#1f1a17;stroke-width:0.62304616" />
  <path
     d="m 485.95313,414.21329 c -0.0916,0.70239 -0.0769,1.24697 -0.33704,1.82905 -0.0206,0.0456 0.0184,0.14458 0,0.19243 -0.0813,0.21155 -0.35763,0.88232 -0.52946,1.01108"
     id="path5151"
     style="fill:none;stroke:#1f1a17;stroke-width:0.62304616" />
  <path
     d="m 487.01231,412.7211 c -0.25941,1.29808 0.22959,3.23236 -0.9147,3.9951"
     id="path5155"
     style="fill:none;stroke:#1f1a17;stroke-width:0.62304616" />
  <path
     d="m 488.6478,410.41271 c 0,1.23114 0.20972,2.94903 -0.33703,4.04329 -0.10524,0.21084 -0.8665,1.43276 -0.8665,1.63662"
     id="path5159"
     style="fill:none;stroke:#1f1a17;stroke-width:0.62304616" />
  <path
     d="m 489.51384,412.19151 c 0.10782,0.72005 0.34735,1.4379 0.57765,2.11786 0.078,0.23034 0.20421,0.41872 0.28885,0.6255 0.29507,0.72302 0.17807,0.12879 0.33704,-0.52946 0.15784,-0.6542 0.096,-1.66861 0.096,-2.35851 0,-2.36954 -0.0725,2.5881 0.77008,2.21427 0.55816,-0.24762 0.38523,-4.19783 0.38523,-5.10225 0,-1.63954 0.0408,-0.43893 0.24065,0.33704 0.0677,0.26271 0.47059,3.4362 1.05893,2.59913 0.81535,-1.15974 0.52947,-2.79782 0.52947,-4.09114"
     id="path5163"
     style="fill:none;stroke:#1f1a17;stroke-width:0.62304616" />
  <path
     d="m 437.16859,258.68132 c -0.1635,0.35359 -0.14438,1.15902 -0.14438,1.54021 0,0.24724 -0.0187,0.50371 0.048,0.72227 0.0945,0.30206 0.19275,0.68327 0.19275,1.01073"
     id="path5165"
     style="fill:none;stroke:#1f1a17;stroke-width:0.31152308;stroke-linejoin:round;display:inline" />
  <path
     d="m 438.37106,259.33957 c -0.12525,0.54419 -0.0476,1.2201 -0.0476,1.78121 0,0.53903 -0.11475,1.82976 0.14437,2.2621"
     id="path5167"
     style="fill:none;stroke:#1f1a17;stroke-width:0.31152308;stroke-linejoin:round;display:inline" />
  <path
     d="m 439.35859,260.82741 c -0.13988,0.74692 -0.0937,1.71644 0.0484,2.4549 0.0472,0.24653 0.10275,1.92727 0.24075,1.97327"
     id="path5169"
     style="fill:none;stroke:#1f1a17;stroke-width:0.31152308;stroke-linejoin:round;display:inline" />
  <path
     d="m 440.86013,262.66696 c -0.39222,1.37167 -0.0454,3.33796 0.14437,4.66879"
     id="path5171"
     style="fill:none;stroke:#1f1a17;stroke-width:0.31152308;stroke-linejoin:round;display:inline" />
  <path
     d="m 441.29314,261.70403 c 0.35475,0.88712 0.28875,3.33501 0.28875,4.33214 0,0.86355 0.063,2.09284 0.24075,2.98437"
     id="path5173"
     style="fill:none;stroke:#1f1a17;stroke-width:0.31152308;stroke-linejoin:round;display:inline" />
  <polygon
     points="1617.96,973.98 1617.98,973.463 1618.01,972.911 1618.05,972.324 1618.09,971.711 1618.15,971.073 1618.21,970.414 1618.27,969.743 1618.34,969.061 1618.42,968.374 1618.5,967.684 1618.58,966.995 1618.66,966.318 1618.75,965.653 1618.83,965.006 1618.91,964.38 1618.99,963.785 1619.07,963.219 1619.14,962.69 1619.21,962.201 1619.27,961.761 1619.33,961.373 1619.38,961.039 1619.42,960.763 1619.45,960.557 1619.47,960.42 1620.44,960.72 1620.42,960.857 1620.39,961.063 1620.35,961.332 1620.3,961.661 1620.25,962.05 1620.19,962.489 1620.12,962.971 1620.05,963.495 1619.97,964.056 1619.89,964.652 1619.81,965.271 1619.73,965.913 1619.65,966.571 1619.56,967.243 1619.48,967.92 1619.4,968.599 1619.33,969.28 1619.26,969.951 1619.19,970.613 1619.13,971.253 1619.08,971.874 1619.04,972.466 1619,973.024 1618.98,973.548 1618.96,974.025 1618.95,974.455 1618.96,974.82 1618.98,975.117 1619.01,975.331 1619.03,975.428 1619.01,975.393 1618.87,975.274 1618.56,976.64 1618.26,976.356 1618.11,976.009 1618.03,975.657 1617.99,975.292 1617.97,974.893 1617.96,974.455 "
     transform="matrix(0.31152308,0,0,0.31152308,-62.205998,-34.02169)"
     id="polygon5177"
     style="fill:#1f1a17;fill-rule:nonzero" />
  <path
     d="m 443.45824,266.51737 c -0.81683,1.76907 -0.67887,4.39248 -0.43088,6.13505"
     id="path5179"
     style="fill:none;stroke:#1f1a17;stroke-width:0.31152308;stroke-linejoin:round;display:inline" />
  <path
     d="m 443.89125,266.99869 c -0.70016,2.70877 -0.25913,6.76347 0.0855,7.57885"
     id="path5181"
     style="fill:none;stroke:#1f1a17;stroke-width:0.31152308;stroke-linejoin:round;display:inline" />
  <polygon
     points="1627.37,990.14 1627.2,989.248 1627.03,988.319 1626.86,987.357 1626.69,986.367 1626.53,985.353 1626.38,984.317 1626.23,983.269 1626.09,982.211 1625.96,981.145 1625.84,980.08 1625.73,979.016 1625.63,977.96 1625.56,976.914 1625.49,975.887 1625.44,974.88 1625.42,973.899 1625.41,972.947 1625.42,972.028 1625.45,971.148 1625.51,970.308 1625.59,969.515 1625.7,968.771 1625.84,968.079 1626.01,967.446 1626.22,966.87 1627.14,967.248 1626.96,967.739 1626.81,968.306 1626.68,968.939 1626.58,969.636 1626.5,970.391 1626.45,971.197 1626.41,972.051 1626.4,972.947 1626.41,973.88 1626.44,974.845 1626.49,975.833 1626.55,976.848 1626.63,977.878 1626.72,978.922 1626.83,979.974 1626.95,981.031 1627.08,982.086 1627.21,983.137 1627.36,984.178 1627.51,985.202 1627.68,986.207 1627.84,987.189 1628.01,988.144 1628.18,989.064 1628.35,989.949 1628.52,990.788 1628.69,991.583 1628.86,992.325 1629.02,993.011 1629.18,993.635 1629.33,994.195 1629.47,994.681 1628.52,994.969 1628.37,994.459 1628.21,993.885 1628.05,993.245 1627.89,992.547 1627.72,991.793 1627.55,990.991 "
     transform="matrix(0.31152308,0,0,0.31152308,-62.205998,-34.02169)"
     id="polygon5185"
     style="fill:#1f1a17;fill-rule:nonzero" />
  <path
     d="m 445.64824,269.40644 c -0.19313,0.58871 -0.252,1.49753 -0.21563,2.06857 0.03,0.49046 0.82969,3.86815 0.91245,4.36892"
     id="path5187"
     style="fill:none;stroke:#1f1a17;stroke-width:0.31152308;stroke-linejoin:round;display:inline" />
  <path
     d="m 446.63576,270.03136 c 0.0739,1.56485 0.47723,4.21696 1.32203,5.48414"
     id="path5189"
     style="fill:none;stroke:#1f1a17;stroke-width:0.31152308;stroke-linejoin:round;display:inline" />
  <path
     d="m 448.80086,271.18618 c -0.19087,0.82896 -0.24487,4.73025 0.38524,5.15043"
     id="path5191"
     style="fill:none;stroke:#1f1a17;stroke-width:0.31152308;stroke-linejoin:round;display:inline" />
  <path
     d="m 450.86936,275.03723 c -0.50002,1.49972 0.153,3.31662 0.43309,4.71698"
     id="path5193"
     style="fill:none;stroke:#1f1a17;stroke-width:0.31152308;stroke-linejoin:round;display:inline" />
  <path
     d="m 452.84441,277.34748 c -0.31912,0.957 0.44633,5.80832 1.10715,6.69064"
     id="path5195"
     style="fill:none;stroke:#1f1a17;stroke-width:0.31152308;stroke-linejoin:round;display:inline" />
  <path
     d="m 454.04692,279.08079 c 0.0743,1.3474 0.71712,2.74228 0.7701,4.13971 0.0337,0.8941 0.5622,1.76686 0.67369,2.55094"
     id="path5197"
     style="fill:none;stroke:#1f1a17;stroke-width:0.31152308;stroke-linejoin:round;display:inline" />
  <path
     d="m 456.16526,280.33312 c -0.70717,1.76832 0.336,5.70162 0.96293,7.26792"
     id="path5199"
     style="fill:none;stroke:#1f1a17;stroke-width:0.31152308;stroke-linejoin:round;display:inline" />
  <path
     d="m 458.47676,284.61656 c 0,0.49229 -0.0375,0.89481 0.14438,1.34777 0.267,0.67223 0.249,1.33893 0.43342,2.02182 0.1185,0.43971 0.2445,2.0899 0.48128,2.4067"
     id="path5201"
     style="fill:none;stroke:#1f1a17;stroke-width:0.31152308;stroke-linejoin:round;display:inline" />
  <path
     d="m 459.96896,289.0433 c 0.30488,1.13251 0.44486,2.39973 1.05893,3.32102 0.55597,0.83485 0.90514,1.83898 1.44416,2.64733"
     id="path5203"
     style="fill:none;stroke:#1f1a17;stroke-width:0.31152308;stroke-linejoin:round;display:inline" />
  <path
     d="m 465.5016,294.81893 c -0.45735,1.48722 0.0484,-0.48532 0.0484,0.52947 0,0.35655 0.12862,0.80173 0.24074,1.15498 0.14813,0.46765 0.28875,1.10197 0.43305,1.49235 0.17888,0.48239 0.72229,1.00852 0.81833,1.492"
     id="path5205"
     style="fill:none;stroke:#1f1a17;stroke-width:0.31152308;stroke-linejoin:round;display:inline" />
  <path
     d="m 476.61675,262.4411 c 0,1.35513 -1.6182,2.56602 -1.92506,3.89871 -0.28463,1.23738 -0.38524,2.41112 -0.38524,3.75447"
     id="path5207"
     style="fill:none;stroke:#1f1a17;stroke-width:0.31152308;stroke-linejoin:round;display:inline" />
  <path
     d="m 475.24605,263.36352 c -0.34163,0.88747 -1.83787,2.77022 -2.09543,3.69818 -0.20399,0.73367 -0.14475,1.65758 -0.14475,2.5031"
     id="path5209"
     style="fill:none;stroke:#1f1a17;stroke-width:0.31152308;stroke-linejoin:round;display:inline" />
  <path
     d="m 473.89096,264.37661 -0.22592,-0.21267 0,0 0.0327,-0.0346 0.032,-0.0361 0.0327,-0.0364 0.0317,-0.0368 0.0316,-0.0368 0.0313,-0.0375 0.032,-0.0383 0.0308,-0.0383 0.0313,-0.039 0.0317,-0.0397 0.0305,-0.0394 0.0305,-0.0397 0.0313,-0.0408 0.0313,-0.0401 0.0299,-0.0408 0.0308,-0.0408 0.0308,-0.0416 0.0308,-0.0416 0.0302,-0.0412 0.0308,-0.0419 0.0305,-0.0416 0.0308,-0.0427 0.0308,-0.042 0.0308,-0.0423 0.0308,-0.042 0.0317,-0.0427 0.0312,-0.0423 0.0308,-0.042 0.0316,-0.043 0.0324,-0.0416 0.0316,-0.0416 0.0324,-0.0431 0.24504,0.18986 -0.0308,0.0401 -0.0316,0.0416 -0.0308,0.0416 -0.0308,0.0408 -0.0308,0.0419 -0.0313,0.0423 -0.0302,0.0412 -0.0308,0.0419 -0.0308,0.0423 -0.0308,0.0419 -0.0308,0.0419 -0.0305,0.0423 -0.0308,0.0419 -0.0316,0.0427 -0.0308,0.0416 -0.0308,0.0416 -0.0308,0.0423 -0.032,0.0416 -0.0313,0.0416 -0.0313,0.0408 -0.032,0.042 -0.0327,0.0408 -0.0317,0.0405 -0.032,0.0405 -0.0339,0.0405 -0.032,0.0397 -0.0335,0.0397 -0.0339,0.0397 -0.0346,0.039 -0.0335,0.0379 -0.0349,0.0383 -0.035,0.0383 0,0 z m -0.22592,-0.21267 0.22592,0.21267 -0.006,0.006 -0.006,0.006 -0.006,0.005 -0.006,0.005 -0.007,0.004 -0.007,0.004 -0.007,0.004 -0.007,0.003 -0.007,0.003 -0.007,0.002 -0.007,0.002 -0.007,0.002 -0.007,0.002 -0.007,0.001 -0.007,6.3e-4 -0.007,3.1e-4 -0.008,0 -0.007,-3.1e-4 -0.007,-6.3e-4 -0.007,-6.2e-4 -0.007,-0.002 -0.007,-0.002 -0.007,-0.002 -0.007,-0.002 -0.007,-0.003 -0.007,-0.003 -0.007,-0.004 -0.007,-0.004 -0.007,-0.004 -0.006,-0.004 -0.006,-0.005 -0.006,-0.005 -0.006,-0.006 -0.006,-0.006 -0.005,-0.006 -0.005,-0.006 -0.004,-0.007 -0.004,-0.007 -0.004,-0.007 -0.003,-0.007 -0.003,-0.007 -0.003,-0.007 -0.003,-0.007 -0.003,-0.007 0,-0.007 0,-0.007 0,-0.007 0,-0.007 0,-0.008 0,-0.007 0,-0.007 0,-0.007 0,-0.007 0.003,-0.007 0.003,-0.007 0.003,-0.007 0.003,-0.007 0.003,-0.007 0.004,-0.007 0.004,-0.007 0.004,-0.007 0.004,-0.006 0.005,-0.006 0.005,-0.006 z m -1.27161,4.14964 -0.31127,0 0,-0.1744 0.003,-0.16962 0.005,-0.16373 0.007,-0.15896 0.009,-0.15416 0.0115,-0.14975 0.0146,-0.14607 0.0165,-0.14166 0.0202,-0.13835 0.0227,-0.13467 0.0249,-0.13208 0.0293,-0.12842 0.0324,-0.1273 0.0357,-0.12363 0.039,-0.12179 0.043,-0.11995 0.0467,-0.11921 0.0508,-0.11627 0.0552,-0.1159 0.0582,-0.11517 0.0629,-0.11443 0.0677,-0.11369 0.0718,-0.11296 0.0758,-0.11369 0.0802,-0.11407 0.0854,-0.11369 0.0894,-0.1159 0.0949,-0.11664 0.0993,-0.11737 0.10448,-0.11995 0.10929,-0.12179 0.11517,-0.12436 0.22591,0.21267 -0.11149,0.12068 -0.10707,0.11811 -0.10081,0.11627 -0.0964,0.11369 -0.0905,0.11149 -0.0857,0.11001 -0.0802,0.10928 -0.0765,0.10744 -0.0714,0.10634 -0.0666,0.10633 -0.0625,0.10634 -0.0585,0.10559 -0.0545,0.1056 -0.0501,0.10708 -0.0471,0.10817 -0.043,0.10817 -0.0394,0.11112 -0.0368,0.11223 -0.0335,0.11553 -0.0302,0.117 -0.0265,0.12032 -0.0243,0.12326 -0.0215,0.12731 -0.0187,0.13098 -0.0159,0.13504 -0.0134,0.13945 -0.0115,0.14386 -0.009,0.14902 -0.007,0.15453 -0.005,0.16006 -0.003,0.16447 0,0.17219 z"
     id="path5213"
     style="fill:#1f1a17;fill-rule:nonzero" />
  <path
     d="m 473.19934,262.58534 c -0.0439,0.66523 -0.74618,1.6675 -1.15497,2.16606 -0.15637,0.19061 -0.28499,0.57656 -0.43342,0.8183 -0.174,0.28369 -0.18975,0.67113 -0.38486,0.9147"
     id="path5215"
     style="fill:none;stroke:#1f1a17;stroke-width:0.31152308;stroke-linejoin:round;display:inline" />
  <path
     d="m 471.27413,262.53704 c -0.15975,0.20494 -0.69795,1.41032 -0.83007,2.26395"
     id="path5217"
     style="fill:none;stroke:#1f1a17;stroke-width:0.31152308;stroke-linejoin:round;display:inline" />
  <path
     d="m 469.8972,262.53674 c -0.54161,0.0445 -1.03834,0.98645 -1.22119,1.44453"
     id="path5219"
     style="fill:none;stroke:#1f1a17;stroke-width:0.31152308;stroke-linejoin:round;display:inline" />
  <path
     d="m 468.17449,262.10341 c -0.34763,0.41688 -1.04385,1.11007 -1.4265,1.49274"
     id="path5221"
     style="fill:none;stroke:#1f1a17;stroke-width:0.31152308;stroke-linejoin:round;display:inline" />
  <path
     d="m 466.54522,262.1573 c -0.50298,-0.11591 -1.55531,0.77342 -1.67306,1.24622"
     id="path5223"
     style="fill:none;stroke:#1f1a17;stroke-width:0.31152308;stroke-linejoin:round;display:inline" />
  <ellipse
     cx="0"
     cy="0"
     rx="9.7937098"
     ry="10.1587"
     transform="matrix(0.15053823,-0.02067803,0.02067803,0.15053823,495.84399,208.60495)"
     id="ellipse5227"
     style="fill:#1f1a17;fill-rule:evenodd;stroke:#1f1a17;stroke-width:0.89999998" />
  <path
     d="m 492.4515,207.70122 c 0.024,0.74913 0.43968,1.54682 1.10641,2.07003 0.51843,0.40695 1.22341,0.63838 1.79885,0.61299 0.93971,-0.0419 2.35446,-1.16563 1.95378,-3.19999 -2.50826,-0.41688 -2.66168,-0.12657 -4.85901,0.51695 z"
     id="path5229"
     style="fill:#ffffff;fill-rule:evenodd;stroke:#1f1a17;stroke-width:1.24609232" />
  <path
     d="m 493.36426,207.56602 c -0.0335,0.25167 0.27044,1.2153 0.38047,1.43754 0.51068,1.03207 2.84563,1.00706 2.8552,-0.55743 0,-0.22297 0.0277,-1.51591 -0.39589,-1.55713 -0.47906,-0.0467 -1.11045,-0.0165 -1.55714,0.16815 -0.25608,0.10597 -1.1351,0.32747 -1.28264,0.50887 z"
     id="path5231"
     style="fill:#1f1a17;fill-rule:evenodd;stroke:#1f1a17;stroke-width:0.28037077" />
  <path
     d="m 495.08699,209.21553 c 0.39846,-0.18507 0.51401,-0.35874 0.72151,-0.70939 0.0199,-0.0331 0.0277,-0.12952 0.0379,-0.0923 0.0691,0.24762 0.12436,0.50113 0.0673,0.75354 -0.05,0.22334 -0.33667,0.28148 -0.52797,0.21782 -0.0659,-0.0217 -0.24103,-0.163 -0.29878,-0.16962 z"
     id="path5233"
     style="fill:#ffffff;fill-rule:evenodd;stroke:#1f1a17;stroke-width:0.28037077" />
  <path
     d="m 461.68548,226.95833 c 6.09567,0 9.16834,-3.519 15.3689,-3.519 3.0852,0 5.70455,0.28663 8.20471,0.80211 1.40222,0.2892 2.99246,0.25903 4.44876,0.98976 2.27241,1.35218 2.01559,4.00541 0.15122,4.44363 -1.31905,0.30981 -3.47043,0.2789 -4.44104,-0.0221 -3.84647,-1.19323 -11.1729,-4.09774 -14.94246,-2.27203 -1.67007,0.80873 -3.54438,1.24695 -5.58349,1.36101 -0.89407,0.05 -1.67191,0.16337 -2.48801,-0.23474 -0.51326,-0.2502 -1.66272,-1.25247 -0.71859,-1.54866 z"
     id="path5237"
     style="fill:none;stroke:#1f1a17;stroke-width:0.62304616;stroke-linejoin:round" />
  <path
     d="m 461.68548,226.95833 c 6.09567,0 9.16834,-3.519 15.3689,-3.519 3.0852,0 5.70455,0.28663 8.20471,0.80211 1.40222,0.2892 2.99246,0.25903 4.44876,0.98976 2.27241,1.35218 2.01559,4.00541 0.15122,4.44363 -1.31905,0.30981 -3.47043,0.2789 -4.44104,-0.0221 -3.84647,-1.19323 -11.1729,-4.09774 -14.94246,-2.27203 -1.67007,0.80873 -3.54438,1.24695 -5.58349,1.36101 -0.89407,0.05 -1.67191,0.16337 -2.48801,-0.23474 -0.51326,-0.2502 -1.66272,-1.25247 -0.71859,-1.54866 z"
     id="path5239"
     style="fill:#a92211;fill-rule:evenodd" />
  <path
     d="m 480.29895,221.34061 c 0.10125,0.0861 -0.25912,1.67707 -0.2865,1.91146 -0.0772,0.66082 -0.13125,1.52843 -0.31538,2.1587 -0.0401,0.13763 -0.34837,1.48796 -0.55777,1.28375 -0.93495,-0.91102 -1.98728,-3.60435 -2.02185,-4.97346 l 3.18157,-0.38045 z"
     id="path5241"
     style="fill:#ffffff;fill-rule:evenodd;stroke:#1f1a17;stroke-width:0.93456918;display:inline" />
  <path
     d="m 453.04069,424.23187 0.9699,-0.21938 c 0.231,-0.18525 2.13735,-1.04824 2.38387,-1.06778 0.225,-0.0187 4.31963,-0.62328 4.31963,-0.62328 l 0.98017,-0.54563 1.05638,-0.24075 1.22857,-0.28012 c 0,0 0,0 -0.36525,0.32962 -0.36487,0.33 -1.22085,0.59055 -1.22085,0.59055 l 0.83524,0.50411 -0.64646,0.29175 -4.86274,0.4416 -4.23352,2.35515 -0.71048,-1.53202 0.2655,0 z"
     id="path5243"
     style="fill:#1f1a17;fill-rule:evenodd;stroke:#1f1a17;stroke-width:0.28037074;display:inline" />
  <path
     d="m 455.16529,428.3284 1.47176,-1.60976 1.48279,-0.45881 2.385,0.44662 -2.40893,0.5817 c 0,0 -1.29367,0.75356 -1.43681,0.77385 -0.14325,0.0188 -0.97391,0.62884 -0.97391,0.62884 l -0.5199,-0.36225 z"
     id="path5245"
     style="fill:#1f1a17;fill-rule:evenodd;stroke:#1f1a17;stroke-width:0.28037074;display:inline" />
  <path
     d="m 450.79147,421.72098 c 0.48128,-0.24038 1.06594,-0.62592 1.54021,-0.62592 0.20849,0 0.65459,-0.23437 0.91469,-0.28875 0.53352,-0.111 1.07843,-0.43316 1.63624,-0.43316 0.2745,0 0.91508,-0.0967 1.05893,-0.28875"
     id="path5247"
     style="fill:none;stroke:#1f1a17;stroke-width:1.86913836;display:inline" />
  <polygon
     points="2043.91,1501.8 2043.91,1504.12 2049.01,1500.72 2054.03,1495.62 2060.59,1491.91 2064.15,1490.52 2060.44,1487.27 2057.35,1487.12 2052.87,1487.43 2047.15,1492.06 2044.68,1497.94 "
     transform="matrix(0.31152308,0,0,0.31152308,-62.205998,-34.02169)"
     id="polygon5249"
     style="fill:#d1a345;fill-rule:evenodd;stroke:#1f1a17;stroke-width:0.89999998;display:inline" />
  <path
     d="m 486.15247,207.27878 3.80228,-0.64868 c 2.16169,-0.62255 4.398,-2.52812 6.50411,-3.32436 l -0.015,-0.17846 -1.03132,0.0625 -1.51043,0.93751 -2.06962,1.39597 -1.87725,1.10676"
     id="path5251"
     style="fill:none;stroke:#1f1a17;stroke-width:0.28037074;display:inline" />
  <polygon
     points="1793.47,762.149 1789.14,764.261 1784.56,766.766 1780.26,769.186 1777.09,771.214 1772.94,772.485 1773.09,772.128 1779.81,768.052 1782.31,766.365 1785.29,764.34 1787.52,762.612 1789.21,761.302 1794.39,760.668 "
     transform="matrix(0.31152308,0,0,0.31152308,-62.205998,-34.02169)"
     id="polygon5253"
     style="fill:#1f1a17;fill-rule:evenodd;stroke:#1f1a17;stroke-width:0.89999998;display:inline" />
  <path
     d="m 471.42679,210.94073 c -1.24662,0.2811 -5.0088,0.76311 -4.62098,2.63519 0.15788,0.76348 0.57105,1.37794 1.12073,1.95303 0.42979,0.44962 1.83933,3.18894 2.7879,2.46042 0.99675,-0.76605 0.89077,-0.64021 1.12076,-1.75029 0.13688,-0.66156 -0.24263,-1.14872 -0.62884,-1.64874 -0.35137,-0.45515 1.32056,-1.05563 1.50342,-1.5472 0.45108,-1.2131 -1.07918,-1.58104 -1.28299,-2.10241 z"
     id="path5255"
     style="fill:#1f1a17;fill-rule:evenodd;stroke:#1f1a17;stroke-width:0.28037074;display:inline" />
  <path
     d="m 469.86604,210.86066 c -0.31088,0 -0.489,0.14607 -0.70129,0.35839 -0.0791,0.079 -0.48345,0.21233 -0.6045,0.27559 -0.83674,0.43675 0.14475,1.32973 0.8109,0.66119 0.2805,-0.28148 0.59681,-0.54345 0.86614,-0.81279 0.38122,-0.38118 -0.0645,-0.50996 -0.37125,-0.48237 z"
     id="path5257"
     style="fill:#ffffff;fill-rule:evenodd;display:inline" />
  <path
     d="m 484.17431,255.26983 c -1.55895,2.75257 -5.6376,8.33312 -6.36022,11.25826 1.06481,-0.95848 5.1438,-2.78641 5.87197,-3.39719"
     id="path5259"
     style="fill:none;stroke:#1f1a17;stroke-width:2.49218464;display:inline" />
  <path
     d="m 423.98437,162.65624 -2.57812,0.46875 -3.63281,35.85938 -25.66407,1.40625 0,4.57031 31.875,4.21875 31.75782,-4.21875 0,-4.57031 -25.66407,-1.40625 -3.63281,-35.85938 -2.46094,-0.46875 z"
     id="path3080"
     style="fill:#405a9f;fill-opacity:1;stroke:none;display:inline" />
  <rect
     width="13.921176"
     height="222.0757"
     x="416.97205"
     y="202.91536"
     id="rect3035"
     style="fill:#405a9f;fill-opacity:1;stroke:none;display:inline" />
  <rect
     width="7.5597262"
     height="7.5597262"
     x="411.81235"
     y="-187.7189"
     transform="matrix(0.70710678,0.70710678,-0.70710678,0.70710678,0,0)"
     id="rect3039"
     style="fill:#d1a345;fill-opacity:1;stroke:#405a9f;stroke-width:2.81250024;stroke-opacity:1" />
  <rect
     width="7.5597262"
     height="7.5597262"
     x="415.21075"
     y="-136.03922"
     transform="matrix(0.70710678,0.70710678,-0.70710678,0.70710678,0,0)"
     id="rect3039-2"
     style="fill:#d1a345;fill-opacity:1;stroke:#405a9f;stroke-width:2.81250024;stroke-opacity:1;display:inline" />
  <rect
     width="7.5597262"
     height="7.5597262"
     x="-184.3205"
     y="463.49207"
     transform="matrix(-0.70710678,0.70710678,0.70710678,0.70710678,0,0)"
     id="rect3078"
     style="fill:#d1a345;fill-opacity:1;stroke:#405a9f;stroke-width:2.81250024;stroke-opacity:1;display:inline" />
  <rect
     width="5.2597799"
     height="68.730438"
     x="421.30267"
     y="202.91536"
     id="rect3131"
     style="fill:#d4cac6;fill-opacity:1;stroke:none;display:inline" />
  <rect
     width="30.825447"
     height="13.589708"
     x="408.51987"
     y="196.94914"
     id="rect3037"
     style="fill:#d1a345;fill-opacity:1;stroke:#103e6f;stroke-width:0.9375;stroke-opacity:1;display:inline" />
  <path
     d="m 423.98437,406.28905 c -1.97017,1.70029 -2.81463,3.28155 -3.39843,4.6875 0.49762,1.16914 1.1679,2.43154 1.875,4.10157 -0.91879,0.0724 -3.31707,-0.03 -5.50782,0.46875 l 0,9.49218 c 0,1.6782 1.97734,5.625 7.03125,5.625 5.05392,0 6.91407,-3.9468 6.91407,-5.625 l 0,-9.49218 c -2.19075,-0.49876 -4.47184,-0.39638 -5.39063,-0.46875 0.7071,-1.67003 1.26019,-2.93243 1.75781,-4.10157 -0.5838,-1.40595 -1.31107,-2.98721 -3.28125,-4.6875 z"
     id="path3099"
     style="fill:#d1a345;fill-opacity:1;stroke:#103e6f;stroke-width:0.9375;stroke-linecap:butt;stroke-miterlimit:4;stroke-opacity:1;stroke-dasharray:none;display:inline" />
  <path
     d="m 423.98437,361.87499 c -3.89733,0 -5.41923,0.42088 -7.03125,1.05469 -1.21076,1.21866 -1.21218,4.65839 0,6.09375 2.24907,0.23801 3.77378,0.58594 7.03125,0.58594 3.25748,0 4.66501,-0.34793 6.91407,-0.58594 1.21219,-1.43536 1.21076,-4.87509 0,-6.09375 -1.61202,-0.63381 -3.01673,-1.05469 -6.91407,-1.05469 z"
     id="path3106"
     style="fill:#d1a345;fill-opacity:1;stroke:#103e6f;stroke-width:0.9375;stroke-linecap:butt;stroke-miterlimit:4;stroke-opacity:1;stroke-dasharray:none;display:inline" />
  <path
     d="m 423.93259,295.54688 c -3.89734,0 -5.41924,0.42088 -7.03125,1.05468 -1.21077,1.21867 -1.21219,4.6584 0,6.09375 2.24906,0.23802 3.77377,0.58594 7.03125,0.58594 3.25747,0 4.665,-0.34792 6.91406,-0.58594 1.21219,-1.43535 1.21076,-4.87508 0,-6.09375 -1.61201,-0.6338 -3.01673,-1.05468 -6.91406,-1.05468 z"
     id="path3106-3"
     style="fill:#d1a345;fill-opacity:1;stroke:#103e6f;stroke-width:0.9375;stroke-linecap:butt;stroke-miterlimit:4;stroke-opacity:1;stroke-dasharray:none;display:inline" />
  <path
     d="m 569.68144,368.40682 c 12.93364,-27.72095 8.91783,-71.77671 11.07946,-107.98215 0,0 -11.02748,-2.20561 -39.78583,-2.20561 -28.75836,0 -39.78584,2.20561 -39.78584,2.20561 2.16164,36.20544 -1.85418,80.2612 11.07946,107.98215 6.16896,13.22214 13.43389,22.46494 28.70638,29.86861 15.27248,-7.40367 22.53741,-16.64647 28.70637,-29.86861 z"
     id="path3992-6"
     style="fill:#405a9f;fill-opacity:1;stroke:#d1a345;stroke-width:2.87926793;stroke-opacity:1;display:inline" />
  <path
     d="m 535.36379,308.91074 6.27808,-6.27812 6.27814,6.27812 -6.27814,6.27812 -6.27808,-6.27812 m 6.27808,10.46353 -10.46353,-10.46353 10.46353,-10.46353 10.46356,10.46353 -10.46356,10.46353 m 27.2052,2.09271 -6.27811,6.27811 -10.46353,-10.46352 2.09269,-2.09271 8.37084,8.37082 2.09269,-2.0927 -10.46353,-10.46354 -10.46353,10.46354 10.46353,10.46352 2.09273,-2.0927 -8.37084,-8.37082 0,0 2.09269,-2.09271 10.46357,10.46353 -6.27815,6.27812 -12.55625,-12.55624 -12.55626,12.55624 -6.27811,-6.27812 10.46353,-10.46353 2.09276,2.09271 -8.37087,8.37082 2.09269,2.0927 10.4636,-10.46352 -10.4636,-10.46354 -10.46353,10.46354 2.09269,2.0927 8.37084,-8.37082 0,0 2.09273,2.09271 -10.46357,10.46352 -6.27807,-6.27811 12.55622,-12.55624 -12.55622,-12.55624 6.27807,-6.27812 10.46357,10.46353 -2.09273,2.09271 0,0 -8.37084,-8.37083 -2.09269,2.09271 10.46353,10.46353 10.4636,-10.46353 -10.4636,-10.46353 -2.09269,2.09271 8.37087,8.37082 -2.09276,2.09271 -10.46353,-10.46353 6.27811,-6.27812 12.55626,12.55623 12.55625,-12.55623 6.27815,6.27812 -10.46357,10.46353 -2.09269,-2.09271 0,0 8.37084,-8.37082 -2.09273,-2.09271 -10.46353,10.46353 10.46353,10.46353 10.46353,-10.46353 -2.09269,-2.09271 -8.37084,8.37083 -2.09269,-2.09271 10.46353,-10.46353 6.27811,6.27812 -12.55622,12.55624 12.55622,12.55624"
     id="path3150-7"
     style="fill:#d1a345;fill-opacity:1;fill-rule:evenodd;stroke:none;display:inline" />
  <path
     d="m 416.96637,232.39626 c -4.04182,7.50857 -4.52272,12.87094 -1.26202,21.28867 0.39296,1.01442 0.80576,1.73006 1.9755,1.81064 0.2355,0.0161 1.71532,3.2342 2.52371,3.7313 0.3165,0.19428 3.45679,2.74667 3.45679,1.20685 0,-1.58767 -1.92102,-3.92962 -2.68857,-5.32228 -0.0874,-0.15859 1.34153,1.21678 3.29198,1.86582 2.80811,0.93384 -2.12783,-6.53351 -2.79821,-7.35256 -0.14775,-0.18064 1.95858,0.69062 3.07267,0.93273 3.75229,0.81646 0.44929,-2.53511 -0.38411,-3.78575 -0.88376,-1.32607 -3.97961,-2.79819 -1.26203,-2.79819 4.61359,0 1.51407,-1.72565 -0.0548,-3.95058 -1.79298,-2.54358 -3.64117,-5.39733 -5.87088,-7.62669 z"
     id="path5033"
     style="fill:#1f1a17;fill-rule:evenodd;display:inline" />
  <path
     d="m 415.95395,235.6632 c 0,4.45098 -2.44864,8.54249 -0.79257,12.84665 0.23325,0.60636 2.48764,6.27302 3.17055,3.77214 0.64279,-2.35335 -0.92388,-3.46305 -0.51915,-5.49408 0.55118,-2.76618 -0.95557,-5.41315 0.19125,-8.30957 0.56517,-1.42835 -0.21037,-3.80413 -2.05016,-2.81512 z"
     id="path5035"
     style="fill:#a92211;fill-rule:evenodd;display:inline" />
  <path
     d="m 419.0972,237.63109 c -1.4232,0 -0.82163,2.20507 -0.49193,2.95199 0.96251,2.18189 2.71984,2.81512 4.97494,2.81512 0.7653,0 0.0994,-0.29363 -0.27338,-0.76532 -0.34125,-0.43196 -1.02618,-0.77047 -1.42132,-1.14798 -0.61999,-0.59128 -1.19363,-1.30581 -1.77679,-1.99534 -0.47576,-0.56221 -0.67886,-1.45373 -1.01149,-1.85847 z"
     id="path5037"
     style="fill:#bb9858;fill-rule:evenodd;display:inline" />
  <path
     d="m 420.29967,244.87462 c -0.41944,-0.39921 -2.29999,-0.3363 -1.61269,1.2028 0.89779,2.01006 3.25369,3.66984 5.49409,3.8266 0.88823,0.0622 -1.23517,-1.9729 -1.61265,-2.35078 -0.44377,-0.44337 -1.92176,-2.22972 -2.26875,-2.67861 z"
     id="path5039"
     style="fill:#bb9858;fill-rule:evenodd;display:inline" />
  <path
     d="m 420.76696,250.34123 c -0.58024,-0.54786 -0.90844,-1.38124 -1.63991,-0.41025 -1.7109,2.27093 2.65357,5.14711 3.96311,6.36869 0.60341,0.56294 0.6027,0.55374 0.54675,-0.3006 -0.0566,-0.87497 -0.97136,-2.63189 -1.50338,-3.36188 -0.56261,-0.77267 -0.75172,-1.68148 -1.36657,-2.29594 z"
     id="path5041"
     style="fill:#bb9858;fill-rule:evenodd;display:inline" />
  <path
     d="m 420.19066,255.56205 c -0.18713,-0.4029 -0.57255,-1.92985 -1.14799,-1.99534 -1.36432,-0.15563 -1.1226,1.61452 -0.49417,2.48507 0.71385,0.98866 1.28118,1.81431 1.96998,2.79009 0.4566,0.64721 3.06679,2.86479 2.02294,0.60158 -0.32362,-0.70203 -0.6807,-1.35071 -1.06631,-2.05017 -0.28463,-0.51695 -1.09793,-1.42871 -1.28445,-1.83123 z"
     id="path5043"
     style="fill:#bb9858;fill-rule:evenodd;display:inline" />
  <path
     d="m 432.01598,234.42583 c -0.72814,-0.2064 -1.46438,-0.88526 -2.41111,-0.58686 -1.16527,0.36682 -3.24266,2.97516 -4.11614,4.21365 -0.19463,0.27634 -1.81838,1.96885 -1.58288,1.96885 1.0527,0 1.80731,0.16962 2.77646,-0.44888 0.93274,-0.59497 1.51482,-1.31245 2.5815,-1.31245 0.39405,0 2.80077,0.42719 2.80077,-0.13834 0,-1.25984 0.12637,-2.4549 -0.0488,-3.69598 z"
     id="path5045"
     style="fill:#1f1a17;fill-rule:evenodd;display:inline" />
  <path
     d="m 431.30572,234.6791 c -0.64683,-0.0442 -1.35,-0.40805 -2.13221,-0.081 -0.96289,0.40253 -2.47586,2.44645 -3.09694,3.402 -0.13875,0.21303 -1.35697,1.57589 -1.155,1.54497 0.90439,-0.13871 1.57002,-0.12326 2.3379,-0.67038 0.73954,-0.52689 1.1649,-1.09058 2.08107,-1.23113 0.33862,-0.0519 2.10682,-0.0371 2.04799,-0.42092 -0.13126,-0.85509 -0.0604,-1.68848 -0.0829,-2.54358 z"
     id="path5047"
     style="fill:#bb9858;fill-rule:evenodd;display:inline" />
  <metadata
     id="metadata4352">
    <rdf:RDF>
      <cc:Work
         rdf:about="">
        <dc:title></dc:title>
        <dc:format>image/svg+xml</dc:format>
        <dc:type
           rdf:resource="http://purl.org/dc/dcmitype/StillImage" />
      </cc:Work>
    </rdf:RDF>
  </metadata>
</svg>
