<?xml version="1.0" encoding="utf-8"?>
<!DOCTYPE svg PUBLIC "-//W3C//DTD SVG 1.1//EN" "http://www.w3.org/Graphics/SVG/1.1/DTD/svg11.dtd">
<svg version="1.1" id="Layer_1" xmlns="http://www.w3.org/2000/svg" xmlns:xlink="http://www.w3.org/1999/xlink" x="0px" y="0px"
	 width="1500px" height="1000px" viewBox="0 0 1500 1000" enable-background="new 0 0 1500 1000"
	 xml:space="preserve">
<g id="g3">
	<rect
   style="fill:#ff0000;fill-opacity:1;fill-rule:nonzero;stroke:none"
   id="rect2913"
   width="1500"
   height="1000"
   x="0"
   y="0" />	
	<path
   clip-rule="evenodd"
   d="m 196.39109,99.319079 c -0.117,-0.348 -0.289,-0.62 -0.49,-0.761 -1.254,-0.877 -3.836,0.477 -4.892,1.104 -1.03,0.640001 -2.328,1.593001 -2.26,2.764001 l -1.327,-0.511 -0.26,0.097 c -0.675,0.253 -6.611,2.553 -7.202,5.273 -0.007,0.033 -0.014,0.067 -0.02,0.103 -0.176,0.104 -0.346,0.222 -0.51,0.355 -0.42,0.342 -0.695,0.801 -0.95,1.277 -1.257,-2.321 -4.396,-6.33 -12.231,-12.943001 0.026,0.02 -2.792,-3.016 -2.792,-5.733 0,-3.071 -4.458,-8.24 -5.946,-8.856 -0.595,-0.248 -0.959,0.026 -1.086,0.152 -0.201,0.202 -0.394,0.389 -0.576,0.563 -0.137,-4.453 -0.306,-9.956 -0.331,-10.761 0.865,0.357 2.973,1.23 2.973,1.23 l 0.797,-2.905 c 0,0 -3.172,-2.982 -3.453,-3.247 -0.011,-0.354 -0.125,-4.098 -0.15,-4.906 0.837,-0.025 5.471,-0.169 5.471,-0.169 l -0.119,-3.833 c 0,0 -4.632,0.143 -5.471,0.17 -0.017,-0.576 -0.047,-1.534 -0.065,-2.108 0.701,-0.022 2.933,-0.091 2.933,-0.091 l 0.131,-2.936 c 0,0 -3.031,-0.658 -3.651,-0.792 -0.017,-0.589 -0.092,-2.968998 -0.092,-2.968998 l -0.509,0.015 -4.417,0.136 c 0,0 0.084,2.732998 0.104,3.371998 -0.635,0.144 -3.418,0.773 -3.418,0.773 l 0.114,3.7 c 0,0 3.137,-0.096 3.908,-0.119 0.016,0.511 0.035,1.145 0.05,1.644 -0.828,0.056 -6.09,0.415 -6.09,0.415 l 0.113,3.607 c 0,0 5.675,-0.26 6.546,-0.299 0.026,0.664 0.1,2.506 0.139,3.474 -0.962,-0.404 -3.822,-1.6 -3.822,-1.6 l 0.105,3.423 c 0,0 3.287,1.849 3.705,2.085 0.022,0.3 0.447,6.242 0.812,11.336 -0.872,0.157 -2.929,0.729 -4.018,2.716 -1.271,2.317 -0.749,5.675 1.552,9.982 1.223,1.931 2.371,3.187 3.476,3.8 0.148,2.661001 0.314,5.651001 0.496,8.912001 -1.681,-0.632 -3.242,-0.311 -4.62,0.407 0.199,-1.109 0.293,-2.207 0.293,-3.154 0,-0.494 -0.021,-0.946 -0.06,-1.339 -0.061,-0.607 -0.173,-1.736 -1.025,-1.798 -0.784,-0.058 -1.011,0.852 -1.096,1.196 -0.589,2.356 -5.251,2.039 -8.336,1.83 l -2.154,-0.105 c -1.384,0 -2.653,1.001 -3.583,2.29 -0.059,-0.615 -0.115,-1.08 -0.145,-1.303 0.155,-0.716 0.254,-1.388 0.254,-1.978 0,-1.147 -0.295,-2.048 -0.883,-2.691001 -1.079,-1.177 -2.687,-0.963 -2.756,-0.954 l -0.061,1.431001 c 0.326,0.076 0.719,0.272 0.785,0.388 -0.023,0.002 -0.255,0.61 -2.733,1.695 -2.452,1.071 -3.701,2.856 -4.338,4.642 -1.71,-4.451 -5.258,-6.925001 -7.433,-8.430001 -0.005,-0.002 -0.01,-0.006 -0.014,-0.009 -0.465,-1.622 -1.063,-2.494 -1.782,-2.547 -0.288,-0.022 -0.824,0.066 -1.19,0.889 -0.074,0.166 -0.108,0.325 -0.108,0.478 0,0.664 0.658,1.242 1.583,1.904 -0.225,0.991001 -0.353,1.932001 -0.407,2.833001 -2.948,-2.707001 -5.165,-3.828001 -6.687,-3.277001 -0.351,0.127 -0.607,0.337 -0.826,0.572 -0.313,0.199 -0.504,0.546 -0.6,1.002001 -0.062,0.2 -0.1,0.388 -0.115,0.54 l 0.01,0.001 c 0,0.025 -0.013,0.039 -0.013,0.065 l 1.453,0.072 c 10e-4,-0.005 0.064,-0.23 0.192,-0.467 0.17,0.123 0.558,0.409 0.948,0.765 0.043,1.64 0.333,2.913 0.71,3.974 -3.884,-1.367 -6.819,0.23 -6.949,0.307 l -1.576,0.928 1.783,0.41 c 0.034,0.007 3.439,0.839 3.439,2.567 0,1.368 1.296,2.835 2.681,4.019 -4.979,-0.311 -8.450996,3.267 -8.492996,3.313 l -1.138,1.222 1.669996,0.002 c 0.04,0 4.049,0.022 6.941,1.554 1.159,0.613 2.137,0.907 2.929,1.025 -1.883,2.132 -3.841,6.343 -3.858,14.617 -0.016,0.067 -1.051,4.38 -2.102,8.755 l -0.015,0.063 -0.099,0.413 -0.015,0.063 -0.083,0.349 -0.099,0.411 -0.098,0.408 -0.097,0.406 -0.037,0.154 h 0 c -0.31,1.289 -0.604,2.519 -0.857,3.572 l -0.025,0.107 -0.052,0.215 -0.313,1.302 10e-4,0 c -0.231,0.964 -0.381,1.589 -0.401,1.673 -0.51,0.4 -1.92,1.634 -2.067,3.304 -0.006,0.092 -0.011,0.184 -0.011,0.276 0,0.881 0.374996,1.704 1.118996,2.447 l 0.627,0.625 0.493,-0.737 c 0.495,-0.738 1.815,-2.221 2.744,-2.096 0.43,0.058 0.83,0.613 1.181,1.418 -0.549,0.376 -1.271,1.005 -1.421,1.899 -0.018,0.098 -0.027,0.207 -0.027,0.322 0,0.46 0.163,1.051 0.773,1.662 l 0.22,0.22 9.933,-0.208 -0.186,-0.863 c -0.75,-3.47 -0.736,-6.482 -0.226,-6.761 0.004,-0.002 0.409,-0.081 1.548,1.057 0.035,0.043 1.519,1.79 0.714,5.331 l 0.118,-0.262 c -0.239,0.335 -0.396,0.881 -0.056,1.32 0.461,0.592 1.349,0.534 3.279,-0.218 l 0.163,-0.063 0.116,-0.132 c 0.662,-0.743 1.508,-2.557 -0.028,-4.093 -0.104,-0.144 -0.125,-0.551 -0.052,-1.147 2.131,3.576 4.206,5.461 6.177,5.612 0.874,0.067 1.538,-0.222 1.989,-0.526 1.412,1.952 2.712,3.368 3.913,4.246 -1.729,6.423 -4.898,13.263 -10.476,19.519 -0.141,0.119 -4.798,4.369 -4.798,11.65 0,0 -0.073,7.053 -0.104,10.129 -2.797,-2.37 -5.659,-3.463 -8.223,-4.442 -2.866,-1.096 -5.573,-2.129 -7.772,-4.759 -4.159996,-4.976 -6.699996,-4.84 -9.640996,-4.685 l -1.568999,0.056 c -3.41,0 -3.726,1.476 -4.354,4.419 l -0.717,3.036 c -1.418,5.231 -4.734,11.625 -4.768,11.688 -3.78,5.065 -4.669,10.765 -4.669,15.004 0,2.026 0.199,3.653 0.387,4.785 -0.3,-0.052 -0.595,-0.065 -0.872,0.059 -1.47,0.659 -1.896,3.508 -1.521,10.169 l 0.039,0.813 c 0,1.568 1.973,2.699 2.198,2.824 l 0.46,0.251 10.146,-9.387 c 0.389,-0.39 0.586,-0.85 0.586,-1.345 0,-0.305 -0.074,-0.623 -0.225,-0.946 -0.293,-0.627 -0.828,-1.208 -1.363,-1.743 -0.273,-0.273 -0.693,-0.431 -1.17,-0.529 -0.017,-0.101 -0.384,-2.464 -0.562,-3.611 0.766,0.052 1.486,-0.115 2.113,-0.572 3.038,-2.212 3.419,-10.07 3.419,-13.868 0,-0.816 -0.018,-1.378 -0.03,-1.724 3.857999,-6.109 5.640999,-6.055 5.658999,-6.054 1.796,0.113 10.797996,9.525 18.850996,18.879 -0.39,0.188 -0.802,0.371 -1.239,0.549 -0.738,0.301 -1.228,0.569 -1.566,0.862 -1.447,0 -7.085,0 -7.085,0 0.059,0 -4.958996,-0.743 -6.418996,6.284 -1.274,6.145 -5.717,10.888 -5.761,10.934 -1.050999,1.086 -9.810999,10.293 -9.810999,15.146 0,0.289 0.031,0.563 0.095,0.819 0.151,0.582 0.573,1.308 1.545,1.769 0.014,0.199 0.028,0.462 0.028,0.809 0,1.717 -0.317,5.1 -2.403,8.788 -0.067,0.125 -1.549,2.879 -1.549,5.941 0,0 0,0.369 0,0.565 -0.629,0.361 -1.096,0.811 -1.194,1.391 -10.672,3.105 -18.563,2.861 -18.704,2.856 l -0.264,1.418 c 15.074,5.108 18.856,13.802 18.893,13.889 l 0.263,0.629 0.646,-0.22 c 10.185,-3.477 15.122999,3.157 15.325999,3.443 l 0.5,0.694 0.606,-0.604 c 2.871,-2.871 7.681996,-2.016 10.777996,-1.024 -0.462,2.383 -0.694,4.671 -0.694,6.858 0,1.584 0.121,3.116 0.363,4.595 0.037,0.223 0.076,0.444 0.118,0.665 -3.418,3.993 -6.453,2.288 -13.568996,-1.713 l -6.911999,-3.748 c -12.545,-6.396 -23.472,-1.677 -23.93,-1.473 l 0.296,1.394 c 1.746,0 3.214,1.212 4.107,2.122 -3.28,0.823 -4.742,4.301 -5.068,6.254 l -0.265,1.592 1.37,-0.855 c 4.151,-2.594 7.47,-2.73 8.879,-2.646 -0.323,1.186 -1.952,7.152 -1.952,7.152 l 1.939,-1.938 c 2.088,-2.088 5.255,-0.001 5.39,0.089 l 5.748,5.765 0.514,-0.515 c 4.355,-4.355 10.456999,-0.104 10.714999,0.078 0,0 11.950996,6.835 11.953996,6.836 1.913,1.86 3.759,2.696 5.484,2.416 2.044,-0.33 3.127,-2.003 3.415,-2.511 0.223,-0.127 2.125,-1.225 3.077,-1.773 0.25,0.175 0.505,0.349 0.764,0.519 1.93,1.275 3.663,2.165 4.927,2.815 0,0 0.815,0.455 1.221,0.683 -0.109,0.283 -0.17,0.592 -0.17,0.929 0,0.833 0.289,1.781 0.635,2.626 -6.529,-2.232 -22.741,-1.18 -25.201996,-1.002 -10.485999,-4.308 -20.507999,-1.543 -20.931999,-1.422 l 0.199,1.43 c 0.303,0 0.432,0.106 0.518,0.211 0.248,0.303 0.327,0.876 0.327,1.432 0,0.242 -0.035,0.416 -0.057,0.626 -5.298,0.444 -9,5.824 -9.16,6.065 l -0.755,1.133 h 4.332 l 0.213,-0.214 c 1.026,-1.025 4.402,-0.903 6.764,-0.577 -2.027,1.297 -2.84,4.082 -2.884,4.236 l -0.314,1.135 1.156,-0.225 c 13.662999,-2.658 14.294999,-1.049 14.755999,0.125 l 0.733,1.253 c 0.824,0.825 1.42,1.421 2.208,1.242 0.857,-0.193 1.318,-1.124 2.271,-3.82 0.424,-1.203 0.965996,-1.934 1.564996,-2.112 0.604,-0.179 1.176,0.254 1.183,0.259 10.845,6.416 31.458,4.133 32.333,4.034 4.224,0.004 7.472,2.274 7.505,2.297 l 0.067,0.047 0.079,0.033 c 2.082,0.852 3.615,0.882 4.554,0.089 0.732,-0.617 0.892,-1.536 0.892,-2.218 0,-0.138 -0.014,-0.24 -0.023,-0.354 0.222,-0.109 0.477,-0.104 0.669,-0.304 0.925,-0.96 1.419,-3.064 1.688,-5.293 3.04,2.635 10.478,2.998 23.429,1.086 0.155,-0.022 0.308,-0.048 0.463,-0.071 -3.196,3.178 -2.79,7.852 -2.784,7.91 l 1.419,0.147 c 0.526,-1.66 3.222,-3.04 5.693,-3.958 -1.136,1.526 -1.538,3.248 -1.538,4.659 0,1.519 0.344,2.644 0.354,2.671 l 0.506,1.586 0.821,-1.447 c 2.067,-3.639 13.453,-5.396 14.352,-5.434 0.002,0.004 0.346,0.046 0.346,0.046 10.078,1.336 16.131,-1.088 19.432,-3.357 4.109,-2.821 5.459,-4.231 5.357,-5.586 -0.105,-1.354 -1.59,-2.072 -3.836,-3.158 l -1.326,-0.65 c -1.02,-0.509 -1.674,-1.256 -2.002,-2.282 -0.875,-2.734 0.9,-6.469 1.205,-7.079 3.398,-2.592 5.6,-4.731 6.551,-5.712 8.721,11.94 26.014,11.248 28.559,11.068 2.039,2.743 2.607,4.392 2.607,5.333 0,0.409 -0.102,0.689 -0.219,0.879 -0.832,1.338 -4.09,1.03 -5.162,0.816 l -11.545,-0.136 c -5.605,-0.671 -6.775,4.283 -6.785,4.334 l -0.27,1.204 c 0,0 1.287,-0.376 1.336,-0.391 -1.971,1.783 -3.615,3.988 -3.713,4.121 l -0.852,1.159 h 5.182 c 0,0 0.682,-0.682 0.826,-0.823 0,0.552 0,2.134 0,2.134 0,0 2.463,-0.742 3.656,-1.104 0,0.283 0,0.588 0,0.588 h 9.516 c 13.451,0 15.941,-3.466 18.576,-7.134 0.688,-0.957 1.398,-1.947 2.33,-2.878 2.387,-2.388 3.648,-4.807 3.648,-6.939 0,-0.417 -0.047,-0.823 -0.146,-1.216 -0.539,-2.191 -2.49,-3.82 -5.787,-4.839 -6.494,-2.01 -6.996,-6.429 -7.027,-6.838 0.223,-1.133 0.395,-2.218 0.52,-3.255 3.885,2.716 18.07,11.555 34.336,8.636 12.598,-2.262 19.535,-11.999 19.535,-27.419 0.078,-0.609 0.113,-1.222 0.113,-1.832 0,-5.995 -3.514,-12.008 -6.92,-17.841 -3.248,-5.558 -6.385,-10.925 -6.385,-16.05 0,-3.061 1.117,-6.034 3.996,-8.911 0,0.01 3.645,-2.576 6.338,-1.628 1.174,0.415 2.006,1.538 2.527,3.245 -0.486,-0.373 -1.051,-0.687 -1.75,-0.68 -1.422,0.013 -2.738,1.212 -3.912,3.561 -1.709,3.422 0.586,5.578 2.809,7.665 2.582,2.427 5.254,4.937 4.17,9.985 l -0.342,1.597 1.418,-0.812 c 0.316,-0.181 7.744,-4.524 9.039,-12.473 0.875,-5.374 -1.293,-11.027 -6.434,-16.803 -0.217,-0.181 -11.217,-8.206 -22.807,-0.112 -0.176,0.146 -12.023,10.492 -6.826,25.595 1.785,5.185 4.381,9.07 6.674,12.501 4.293,6.427 7.398,11.071 2.365,19.915 -3.996,7.022 -13.113,2.821 -24.652,-2.497 -3.414,-1.573 -6.984,-3.219 -10.643,-4.67 0,-1.941 0,-7.1 0,-8.173 2.01,0.187 6.988,0.459 8.891,-1.222 0.537,-0.475 0.82,-1.086 0.82,-1.77 0,-3.629 1.982,-19.16 11.68,-28.857 1.17,-1.169 1.758,-2.271 1.758,-3.291 0,-0.26 -0.039,-0.515 -0.115,-0.763 -0.59,-1.914 -3.115,-2.568 -3.764,-2.711 -0.777,-0.6 -7.734,-6.237 -7.734,-15.614 0,-2.938 0.689,-6.236 2.471,-9.856 6.113,-8.807 7.697,-17.307 7.697,-23.76 0,-7.249 -2.131,-16.94 -7.418,-22.219 2.342,-0.466 7.461,-1.098 10.723,1.348 2.01,1.508 3.031,4.002 3.031,7.413 l -0.145,5.774 c -0.402,11.573 -1.012,29.058 7.547,37.202 3.574,3.402 8.453,4.866 14.504,4.355 0.105,0.003 1.563,-0.029 2.008,-1.105 0.488,-1.177 -0.652,-2.511 -1.553,-3.412 -0.377,-0.302 -7.561,-6.14 -1.467,-17.495 7.535,-14.041 12.322,-32.922 3.156,-43.808 -5.293,-6.284 -13.99,-9.807 -22.701,-9.195 -8.982,0.632 -16.912,5.622 -22.389,14.069 -3.863,-1.667 -8.873,-2.771 -15.375,-2.771 -1.281,0.133 -10.693,1.191 -15.002,3.17 -0.627,-0.282 -9.326,-4.292 -11.527,-9.481 0.25,-4.665 -4.797,-13.537 -5.977,-15.542 l -0.047,-0.08 -0.064,-0.066 c -0.158,-0.158 -0.314,-0.306 -0.467,-0.442 0.619,-1.952 -1.291,-5.654 -1.961,-6.86 -2.289,-3.434 1.396,-9.394 1.438,-9.455 0.373,-0.538 0.727,-1.07 1.066,-1.593 4.063,16.525 12.26,21.463 17.83,24.821 l 1.4,0.852 c 1.566,0.979 3.195,1.256 4.848,0.824 3.697,-0.964 6.201,-5.139 6.572,-5.79 0.236,-0.228 1.604,-1.464 2.652,-0.416 1.873,1.875 4.566,2.47 5.764,1.275 l 1.061,-1.712 c 1.555,-2.782 5.195,-9.29 8.404,-8.302 3.225,0.991 7.281,0.124 9.645,-2.066 1.691,-1.565 2.344,-3.657 1.84,-5.892 -1.146,-5.072 3.152,-8.032 3.338,-8.155 6.549,-2.73 10.443,-6.365 11.447,-10.735 1.303,-5.665 -2.76,-10.361 -2.934,-10.56 -1.252,-1.252 -3.352,-1.3 -5.65,-0.771 -4.031,-0.582 -11.416,-1.568 -16.66,-1.807 0.002,-0.002 0.004,-0.004 0.006,-0.006 1.299,-1.298 1.752,-2.542 1.346,-3.693 -0.41,-1.16 -1.678,-1.971 -3.082,-2.529 -0.035,-0.091 -0.078,-0.172001 -0.127,-0.239001 l -0.18,-0.251 -0.303,-0.047 c -1.094,-0.164 -2.168,-0.317 -3.23,-0.466 -0.395,-0.063 -0.701,-0.102 -0.879,-0.122 -19.318,-2.652 -33.605,-2.921 -43.633,-2.361 l 0.145,-0.517 -0.691,-0.203 c -0.162,-0.047 -3.707,-1.125 -3.443,-4.495 6.295,4.543 9.006,6.305 14.096,-0.312 l 2.162,-2.954 c 0.924,-1.301 1.652,-2.33 2.045,-2.363 0.459,-0.038 1.541,1.046 3.035,2.546 l 0.498,0.499 c 1.141,1.142 2.338,1.553 3.561,1.223 3.797,-1.026 6.066,-9.27 6.314,-10.207 l 0.24,-0.914 h -0.943 c -2.602,0 -3.584,1.99 -4.305,3.443 -0.381,0.773 -0.742,1.503 -1.154,1.571 -0.305,0.05 -1.08,-0.133 -2.861,-1.916 -2.467,-2.467 -4.4,-3.528 -6.08,-3.341 -1.932,0.215 -3.07,2.015 -4.168,3.754 -1.004,1.592 -2.045,3.237 -3.646,3.734 -0.834,0.259 -1.424,0.221 -1.758,-0.112 -0.908,-0.909 -0.461,-4.06 0.148,-6.007 3.156,-16.155 -9.104,-22.197 -11.594,-23.245 -1.945,-0.818 -13.072,-4.696 -15.582,-2.188 l -0.475,1.183 c 0.035,1.44 1.871,3.103 3.808,4.865 0.916,0.833 2.238,2.042 2.459,2.56 -0.193,0.162 -0.564,0.479 -0.564,0.479 -2.096,1.688 -6.999,5.64 -7.962,14.792 -0.059,0.565 -0.088,1.098 -0.088,1.594 0,2.305 0.64,3.862 1.91,4.638 0.233,0.143 0.477,0.252 0.73,0.335 l 1.088,7.136 0.104,0.144 c 0.061,0.083 0.627,0.821 1.574,0.894 0.096,0.008 0.223,-0.024 0.34,-0.036 -0.006,0.087 -0.035,0.159 -0.035,0.247 0,0.542 0.129,1.097 0.535,1.503 l 0.215,0.213 c 0,0 0.045,0 0.07,0 -0.023,0.088 -0.086,0.152 -0.086,0.25 0,0.024 0,0.048 0.002,0.074 0.051,0.796 0.879,1.436 2.688,2.07 0.549,0.194 1.164,0.172 1.795,0.08 -0.34,0.29 -1.127,0.959 -1.721,1.463 -0.297,0.088 -0.553,0.162 -0.766,0.227 l 0,0 z m -8.949,51.410001 c -5.627,3.674 -9.042,6.98 -11.096,9.513 0.874,-2.063 1.489,-4.02 1.713,-4.762 l 0.28,-0.938 h -2.026 c 0,-0.051 0,-0.101 0,-0.152 0,-1.229 -0.057,-2.51 -0.187,-3.83 3.92,-0.32 8.478,-0.998 12.782,-2.369 -0.444,0.771 -1.024,1.773 -1.466,2.538 l 0,0 z m 3.145,-19.469 c -1.128,1.452 -2.047,2.77 -2.553,3.767 -0.974,-0.057 -3.307,-0.014 -6.901,1.123 -0.169,-0.16 -0.344,-0.331 -0.524,-0.511 l -0.233,-0.313 c 0.088,-0.115 0.728,-0.369 1.285,-0.455 l 2.678,-0.415 -2.525,-0.983 c -1.233,-0.48 -1.833,-1.499 -2.363,-2.4 -0.467,-0.796 -0.911,-1.549 -1.744,-1.689 -0.165,-0.028 -0.312,0.018 -0.47,0.039 0.136,-0.235 0.371,-0.437 0.453,-0.684 0.214,-0.645 0.849,-0.991 1.523,-1.201 0.713,-0.032 1.466,-0.109 2.332,-0.326 l -0.14,-1.434 c -0.093,-0.005 -1.349,-0.044 -2.608,0.348 -1.582,-0.012 -2.241,-0.623 -2.366,-1.067 l -0.024,-0.085 -0.05,-0.1 c -0.06,-0.107 -0.719,-1.253 -1.759,-2.561 1.836,0.201 4.665,-0.038 8.709,-1.729 h 4.634 l 1.031,-1.03 c 0.047,1.463 0.241,2.848 0.621,4.073 0.636,2.056 0.919,4.775 0.994,7.633 l 0,0 z m -16.316,101.276 c -0.607,0.802 -1.173,1.692 -1.654,2.672 -0.125,0.125 -5.509,5.509 -5.509,5.509 l 0.195,0.454 c 0.042,0.095 1.034,2.33 3.55,2.878 2.429,0.53 5.322,-0.7 8.607,-3.654 1.303,-0.975 5.292,-3.611 7.427,-3.611 0.833,0 3.667,-0.171 5.071,-2.371 0.24,-0.379 0.422,-0.791 0.545,-1.233 8.172,-0.156 16.852,-1.03 23.068,-3.52 0.783,2.767 2.52,6.842 6.344,10.667 5.115,5.119 7.359,9.177 9.527,13.103 l 1.512,2.685 c 2.555,4.378 -1.371,12.169 -1.414,12.249 -0.098,0.248 -6.734,17.549 -23.084,29.419 l 0.197,0.407 c -11.189,2.913 -19.315,8.166 -23.68,11.537 1.473,-1.95 3.454,-4.044 6.013,-5.734 3.089,-2.041 4.613,-3.665 4.613,-4.93 0,-0.227 -0.051,-0.441 -0.146,-0.646 -0.73,-1.54 -3.529,-1.052 -5.313,-0.577 -0.104,-0.433 -0.293,-0.924 -0.713,-1.367 -0.567,-0.597 -1.356,-0.898 -2.35,-0.898 -0.778,0 -1.863,0.15 -3.015,0.363 0.78,-1.489 1.591,-3.141 2.419,-4.963 4.998,-10.996 15.222,-9.702 15.654,-9.643 l 0.508,-1.327 c -0.764,-0.509 -1.148,-1.013 -1.148,-1.501 0,-0.051 0.004,-0.103 0.014,-0.154 0.436,-2.617 9.4,-5.905 14.951,-7.362 l 0.637,-0.169 -0.104,-0.651 c -0.09,-0.546 -0.129,-1.08 -0.129,-1.6 0,-6.731 6.869,-11.125 6.947,-11.173 l -0.006,-0.006 c 0.014,-0.01 0.039,-0.016 0.053,-0.027 l -0.82,-1.2 c -0.006,0.003 -0.049,0.03 -0.057,0.036 -5.064,3.774 -19.699,2.197 -31.457,0.93 -5.141,-0.554 -9.999,-1.077 -13.384,-1.077 l -5.633,-0.076 c -2.27,-0.05 -4.116,-0.091 -5.784,0.011 -0.377,-6.266 -0.854,-14.158 -1.391,-23.08 1.235,-0.195 2.217,-1.034 2.916,-2.491 0,0 0.659,-1.317 1.069,-2.14 -0.308,1.204 -0.938,3.661 -0.938,3.661 l 0.824,0.1 c 0.338,0.039 2.208,0.259 5.068,0.5 l 0,0 z m -0.041,-93.435 c 0.024,-0.181 0.038,-0.374 0.038,-0.58 0.134,-0.223 0.769,-0.331 1.743,-0.319 -0.576,0.276 -1.169,0.575 -1.781,0.899 l 0,0 z m -10.653,-29.251 c -0.848,-0.074 -1.719,0.147 -2.398,0.519 -0.068,0.038 -0.095,0.099 -0.16,0.139 0.402,-0.871 0.768,-1.833 0.768,-2.729 0,-0.283 -0.037,-0.555 -0.119,-0.803 -0.067,-0.202 -0.273,-0.82 -0.842,-1.047 -0.581,-0.23 -1.12,0.058 -1.692,0.362 -0.396,0.212 -0.848,0.454 -1.399,0.606 -0.239,-3.96 -0.45,-7.464001 -0.626,-10.396001 0.044,-0.055 0.087,-0.111 0.128,-0.167 0.854,2.429 2.855,7.563001 6.34,13.516001 l 0,0 z m -2.952,121.369 c 0.563,10.098 1.053,18.905 1.426,25.615 -1.438,0.475 -2.932,1.184 -4.676,2.23 -3.272,1.963 -6.635,4.388 -6.77,7.477 -0.101,2.297 1.576,4.666 5.129,7.242 3.669,2.663 4.835,6.872 4.594,11.585 -0.317,-0.654 -0.738,-0.986 -1.254,-0.986 h -0.727 l -0.002,0.728 c 0,0.082 -0.105,6.884 -6.002,12.953 -2.316,-3.577 -12.249,-18.014 -23.315,-20.773 0.05,-0.325 0.074,-0.661 0.074,-1.004 0,-3.271 -2.087,-7.123 -3.073,-8.767 0.241,-0.132 0.474,-0.28 0.673,-0.498 1.182,-1.303 1.418,-4.018 1.418,-5.979 0,-1.117 -0.076,-1.991 -0.098,-2.217 l -0.031,-0.325 -0.264,-0.193 c -7.25,-5.297 -19.943,4.624 -20.479,5.049 -5.249,4.742 -10.727996,8.279 -16.015996,10.918 -0.213,-0.1 -0.419999,-0.176 -0.607999,-0.238 0.413999,-0.906 0.735999,-2.131 0.735999,-3.787 0,-0.722 -0.091,-1.558 -0.231,-2.449 0.777,0.27 1.778,0.428 2.875,0.003 2.314,-0.895 3.917,-3.944 4.76,-9.064 1.915996,-11.602 6.912996,-17.121 7.362996,-17.598 0.687,-0.305 3.986,-1.917 5.552,-4.929 5.283,0.542 36.905,3.497 41.844,-2.916 0.763,-0.992 0.911,-2.188 0.428,-3.457 l 0.045,0.2 c -0.042,-0.558 -0.064,-1.122 -0.064,-1.66 0,-1.564 0.176,-2.888 0.457,-3.172 0.011,0.083 0.31,0.309 0.31,0.309 l 1.067,1.118 c 1.348,1.437 3.064,3.266 4.859,4.585 l 0,0 z m -26.268,-71.593 c -6.337,-2.877 -10.986,-6.239 -12.239,-7.184 0.094,-0.235 0.195,-0.475 0.302,-0.717 l 0.042,-0.046 0.036,-0.127 c 0.151,-0.334 0.314,-0.674 0.491,-1.019 1.246,-2.431 2.651,-4.001 3.58,-4.001 1.729,0 4.907,-2.111 7.602,-5.093 0.329,1.832 0.812,5.267 0.812,9.648 -0.001,2.566 -0.167,5.456 -0.626,8.539 l 0,0 z m 89.323,136.456 c 1.367,-1.422 4.584,-4.353 7.912,-4.353 2.48,0 4.191,-0.652 5.084,-1.938 1.162,-1.679 0.412,-3.738 0.379,-3.825 0.012,0.01 -1.688,-8.347 9.662,-23.609 0.002,0.012 1.971,-1.893 2.004,-4.559 0,-0.023 0,-0.046 0,-0.067 0,-1.531 -0.676,-2.969 -1.93,-4.293 -0.654,-1.476 -1.801,-4.736 -1.801,-7.305 0,-0.933 0.148,-1.773 0.529,-2.402 1.715,1.05 3.625,2.075 5.756,3.049 8.383,3.831 11.211,7.773 12.107,10.404 0.967,2.84 -0.025,4.773 -0.064,4.854 -0.125,0.378 -6.715,23.369 -19.973,34.499 l -0.602,0.504 c -2.834,-0.456 -5.674,-0.626 -8.494,-0.396 -3.686,-0.48 -7.212,-0.644 -10.569,-0.563 l 0,0 z"
   id="path9"
   style="fill-rule:evenodd" />
	<path
   clip-rule="evenodd"
   d="m 190.61509,83.482079 c -1.274,-0.779 -1.318,-3.061 -1.131,-4.837 0.9,-8.55 5.306,-12.104 7.425,-13.81 l 0.838,-0.716 0.336,-0.842 c -0.023,-0.944 -1.1,-1.967 -3.002,-3.692 -1.314,-1.197 -3.309,-3.006 -3.33,-3.821 1.365,-1.434 9.455,0.453 14.033,2.382 2.311,0.973 13.67,6.574 10.746,21.545 -0.156,0.489 -1.65,5.503 0.232,7.394 0.748,0.747 1.832,0.905 3.223,0.473 2.113,-0.655 3.355,-2.617 4.445,-4.347 1,-1.581 1.863,-2.946 3.098,-3.083 1.174,-0.131 2.818,0.852 4.889,2.923 1.807,1.808 3.041,2.5 4.129,2.322 1.148,-0.189 1.695,-1.293 2.223,-2.361 0.59,-1.191 1.096,-2.073 1.971,-2.442 -0.865,2.754 -2.764,7.472 -4.963,8.066 -0.691,0.187 -1.389,-0.093 -2.15,-0.846 l -0.496,-0.498 c -2.098,-2.103 -3.055,-3.064 -4.188,-2.969 -1.07,0.09 -1.752,1.052 -3.111,2.972 l -2.133,2.909 c -4.324,5.625 -5.725,4.613 -12.459,-0.251 l -2.326,-1.677 -0.057,1.353 c -0.016,0.358 -0.172,0.928 -0.414,1.023 -0.066,0.026 -0.688,0.199 -2.402,-1.51 -1.281,-1.283 -1.561,-2.595 -1.811,-3.753 -0.553,-2.59 -1.32,-4.109 -7.264,-3.396 l -0.17,0.021 -0.141,0.092 c -1.118,0.728 -4.377,2.392 -6.04,1.376 l 0,0 z m 8.715,-19.694 c 10.404,2.785 6.047,12.399 11.426,24.289 -2.777,-25.042 -4.607,-22.029 -11.426,-24.289 l 0,0 z"
   id="path11"
   style="fill:#e7e8e9;fill-rule:evenodd" />
	<path
   clip-rule="evenodd"
   d="m 259.98509,107.90308 c 1.107,-0.669 10.953,0.229 20.24,1.529 -1.029,1.493 -4.953,7.184 -5.193,7.532 -0.438,0.139 -8.895,2.794 -9.529,2.994 -0.521,-0.379 -6.225,-4.521 -6.777,-4.921 0.032,-2.584 0.419,-6.294 1.259,-7.134 l 0,0 z m -63.981,-6.931 c 0.025,-0.01 0.445,-0.157 1.275,-0.381 l 1.439,1.439 h 11.797 l 3.781,-3.782001 0.016,-0.058 c 10.391,-0.62 25.486,-0.378 46.004,2.561001 -0.447,0.048 -1.004,0.085 -1.758,0.085 h -0.301 l -12.643,12.643 -0.059,0.088 c -0.232,0.349 -1.211,0.74 -3.24,-0.274 l -1.617,-0.924 c -3.08,-1.86 -7.73,-4.667 -21.49,-5.563 -2.066,-1.756 -5.002,-2.833 -8.787,-3.252 -3.695,-0.41 -7.41,-0.122 -9.867,0.069 l -2.076,0.125 c -1.887,0 -2.494,-0.515 -2.568,-0.714 l -0.055,-0.148 -0.137,-0.199 c -0.471,-0.469 -1.113,-0.53 -1.719,-0.163 -0.271,0.163 -0.557,0.445 -0.85,0.825 -1.568,-0.173 -2.865,-0.656 -2.945,-0.985 -0.002,-0.004 -0.033,-0.467 1.558,-1.455 1.342,-0.793 2.951,-1.357001 3.303,-1.157001 -0.021,0.001 -0.033,0.404001 -0.033,0.404001 l -0.025,1.074 0.997,-0.258 0,0 z m 66.682,0.53 c 1.063,0.429 1.896,0.972 2.125,1.617 0.037,0.109 0.057,0.224 0.057,0.344 0,0.516 -0.354,1.131 -1.059,1.834 -0.34,0.341 -0.658,0.668 -0.951,0.983 -0.006,0 -0.012,0 -0.018,0 -0.082,0 -0.162,0 -0.242,0 -0.006,0 -0.012,0 -0.02,0 -0.213,0.001 -0.42,0.004 -0.619,0.009 l 0,0 c -0.172,0.004 -0.338,0.011 -0.498,0.019 -0.025,10e-4 -0.053,0.003 -0.078,0.004 -0.006,0 -0.01,0 -0.016,0.001 -0.004,0 -0.01,0 -0.014,0 -0.164,0.01 -0.322,0.021 -0.473,0.034 -0.029,0.002 -0.057,0.005 -0.086,0.008 -0.068,0.006 -0.135,0.013 -0.199,0.021 -0.006,0 -0.012,0.001 -0.018,0.001 v 0 c -0.006,0 -0.012,10e-4 -0.018,10e-4 -0.066,0.008 -0.131,0.017 -0.195,0.025 -0.018,0.002 -0.037,0.005 -0.057,0.008 -0.135,0.02 -0.264,0.041 -0.383,0.065 -0.002,0.001 -0.004,0.001 -0.008,0.002 -0.004,0 -0.008,10e-4 -0.012,0.002 -0.055,0.011 -0.107,0.023 -0.158,0.036 -0.006,0.001 -0.012,0.003 -0.02,0.005 -0.002,0 -0.004,0.001 -0.004,0.001 -0.059,0.014 -0.115,0.029 -0.168,0.045 l 0,0 c -0.053,0.016 -0.104,0.032 -0.15,0.05 -0.004,0.001 -0.008,0.002 -0.012,0.004 -0.045,0.017 -0.088,0.034 -0.127,0.052 -0.004,0.002 -0.008,0.003 -0.012,0.005 -0.082,0.038 -0.154,0.079 -0.215,0.124 -0.002,0 -0.002,10e-4 -0.004,0.002 -0.029,0.022 -0.057,0.046 -0.082,0.07 -1.615,1.615 -1.697,7.386 -1.697,8.524 v 0.373 l 7.98,5.796 10.711,-3.364 5.984,-8.685 c 1.836,-0.423 3.361,-0.398 4.146,0.388 0.008,0.009 3.715,4.317 2.574,9.248 -0.896,3.881 -4.504,7.171 -10.715,9.774 -0.176,0.101 -5.438,3.69 -4.068,9.753 0.494,2.186 -0.496,3.655 -1.408,4.502 -1.977,1.829 -5.512,2.578 -8.229,1.742 -4.33,-1.333 -8.23,5.635 -10.102,8.983 l -0.828,1.399 c -0.422,0.421 -2.234,0.182 -3.699,-1.28 -1.701,-1.704 -3.859,-0.447 -4.76,0.454 l -0.072,0.074 -0.053,0.091 c -0.023,0.043 -2.424,4.346 -5.736,5.208 -1.266,0.33 -2.48,0.118 -3.707,-0.65 l -1.42,-0.866 c -5.512,-3.32 -13.688,-8.251 -17.492,-25.322 9.109,-15.217 4.633,-24.115 4.424,-24.511 -0.033,-0.045 -0.064,-0.09 -0.098,-0.134 12.197,0.982 16.418,3.531 19.256,5.243 l 1.719,0.98 c 3.406,1.703 4.746,0.266 5.055,-0.164 0.053,-0.052 11.766,-11.767 12.152,-12.152 1.958,-0.025 3.188,-0.268 3.817,-0.776 l 0,0 z"
   id="path13"
   style="fill:#3d92c8;fill-rule:evenodd" />
	<path
   clip-rule="evenodd"
   d="m 155.22709,134.24008 c 0.069,1.244 0.138,2.499 0.209,3.767 -1.589,-0.004 -3.203,0.4 -4.442,1.638 -0.874,0.873 -1.641,2.575 -0.338,5.723 1.112,2.682 3.885,6.302 5.582,7.038 0.21,3.776 0.424,7.609 0.639,11.473 -7.49,0.974 -15.006,-1.036 -21.152,-3.651 0.52,-3.322 0.705,-6.435 0.705,-9.185 0,-5.71 -0.794,-9.827 -1.058,-11.035 0.042,-0.054 0.084,-0.109 0.125,-0.163 2.221,-2.401 3.179,-4.872 3.372,-7.179 0.289,-1.759 0.133,-3.434 -0.469,-4.984 0.871,-0.225 1.469,-0.379 1.573,-0.406 0.225,0.101 7.67,3.501 15.254,6.964 l 0,0 z m 1.965,35.3 c 0.408,7.322 0.819,14.705 1.223,21.969 l -0.859,0.859 c -10.483,10.482 -34.342,5.961 -38.277,5.125 l 0.007,-0.653 c 0,-6.609 4.328,-10.585 4.371,-10.624 5.665,-6.352 8.927,-13.275 10.734,-19.796 0.656,0.277 1.28,0.373 1.875,0.283 0.948,-0.143 1.586,-0.718 2.002,-1.275 1.943,3.079 3.924,4.691 5.905,4.625 1.662,-0.055 2.816,-1.184 3.533,-2.126 1.107,2.693 2.523,4.228 4.264,4.416 2.004,0.218 3.877,-1.292 5.222,-2.803 l 0,0 z m 17.482,-18.876 c 0.133,1.34 0.189,2.637 0.185,3.878 h -0.731 l -0.216,0.237 c -3.955,4.33 -8.322,6.89 -12.795,8.208 0.002,0.04 -0.243,-4.021 -0.609,-10.094 2.25,0.089 4.748,-0.227 5.767,-2.15 1.143,0.06 4.326,0.177 8.399,-0.079 l 0,0 z m -15.018,-11.875 c -0.052,-0.86 -0.104,-1.726 -0.156,-2.598 0.127,0.058 0.253,0.115 0.38,0.173 0.06,0.422 0.267,1.861 0.378,2.641 -0.183,-0.069 -0.386,-0.142 -0.602,-0.216 l 0,0 z m 5.28,-0.116 c 2.511,1.147 4.531,2.069 5.602,2.559 -0.226,0.141 -0.453,0.285 -0.683,0.433 -0.443,-0.092 -3.344,-0.695 -4.067,-0.846 -0.141,-0.653 -0.412,-1.424 -0.852,-2.146 l 0,0 z m 8.363,26.748 c -0.422,1.449 -0.806,2.422 -0.959,2.792 -1.71,1.288 -3.155,3.042 -4.329,5.256 -0.707,0.874 -1.469,1.855 -2.284,2.954 -1.783,2.402 -2.379,4.617 -2.379,6.505 0,1.684 0.453,3.08 0.963,4.121 -0.615,3.771 -0.988,6.891 -1.17,9.507 -0.841,-13.943 -1.607,-26.667 -1.602,-26.58 0.917,0.47 1.827,0.633 2.721,0.472 2.62,-0.471 4.276,-3.499 5.063,-5.345 0.601,0.851 1.262,1.413 2.043,1.378 0.666,-0.028 1.316,-0.428 1.933,-1.06 l 0,0 z m 63.653,13.012 c 0.35,-0.088 0.707,-0.174 1.07,-0.256 5.521,0.58 9.18,5.507 11.279,9.553 1.369,2.637 2.387,5.45 3.113,8.062 -2.301,0.079 -4.463,0.033 -6.463,-0.096 0.069,-11.118 -5.785,-15.628 -8.999,-17.263 l 0,0 z m 4.324,-0.91 c 0.406,-0.073 0.811,-0.142 1.209,-0.208 0.01,-0.001 0.018,-0.003 0.027,-0.004 0.096,-0.015 0.195,-0.029 0.299,-0.044 0.373,0.025 6.605,0.522 11.457,5.953 2.725,3.051 4.506,7.042 5.334,11.924 -1.971,0.288 -3.875,0.475 -5.701,0.579 -0.338,-1.247 -0.729,-2.504 -1.168,-3.721 -1.66,-4.624 -5.225,-12.006 -11.457,-14.479 l 0,0 z m 5.638,-0.844 c 0.361,-0.043 0.691,-0.081 0.982,-0.112 0.689,0 1.359,0.014 2.016,0.038 10.361,5.838 14.479,12.485 16.086,17.272 -1.689,0.423 -3.344,0.767 -4.959,1.04 -0.875,-5.177 -2.783,-9.424 -5.707,-12.69 -2.789,-3.113 -5.962,-4.721 -8.418,-5.548 l 0,0 z m 5.997,0.13 c 0.756,0.076 1.482,0.17 2.186,0.278 0.252,0.044 0.504,0.092 0.754,0.146 0.859,0.259 14.416,4.5 16.092,14.85 -1.521,0.54 -3.025,1.01 -4.506,1.417 -1.571,-4.663 -5.407,-10.928 -14.526,-16.691 l 0,0 z m 13.298,4.238 c 5.051,3.259 7.092,7.553 7.908,10.224 -0.268,0.105 -0.533,0.208 -0.799,0.308 -0.863,-4.574 -3.859,-8.035 -7.109,-10.532 l 0,0 z m -21.699,14.539 c -1.807,-0.157 -3.459,-0.377 -4.938,-0.624 -1.059,-4.429 -3.148,-9.597 -6.936,-14.34 0.17,-0.375 0.707,-1.091 2.133,-1.535 1.182,0.331 9.742,3.171 9.742,16.307 0.001,0.065 0.001,0.128 -0.001,0.192 l 0,0 z m -6.473,-0.901 c -2.961,-0.575 -5.025,-1.213 -5.943,-1.523 0.58,-2.895 0.76,-5.547 0.76,-7.719 0,-0.81 -0.025,-1.553 -0.063,-2.215 2.698,3.857 4.321,7.902 5.246,11.457 l 0,0 z m 37.157,0.811 c -0.332,0.257 -0.951,0.709 -1.832,1.269 0.209,-1.316 0.248,-2.562 0.15,-3.741 0.318,-0.119 0.639,-0.24 0.959,-0.365 0.256,0.981 0.44,1.833 0.723,2.837 l 0,0 z m -3.512,2.268 c -0.918,0.513 -1.99,1.062 -3.211,1.604 0,-0.016 0,-0.032 0,-0.048 0,-1.02 -0.125,-2.565 -0.627,-4.459 1.398,-0.385 2.814,-0.825 4.25,-1.325 0.01,0.225 0.018,0.451 0.018,0.681 0,1.119 -0.135,2.301 -0.43,3.547 l 0,0 z m -4.695,2.228 c -1.598,0.636 -3.402,1.238 -5.395,1.731 -0.008,-1.893 -0.123,-3.693 -0.344,-5.399 1.68,-0.285 3.4,-0.643 5.156,-1.085 0.494,1.886 0.592,3.381 0.592,4.275 0,0.191 -0.003,0.349 -0.009,0.478 l 0,0 z m -6.848,2.063 c -1.537,0.322 -3.172,0.576 -4.902,0.731 -0.146,-1.638 -0.482,-3.603 -0.977,-5.654 1.783,-0.112 3.637,-0.299 5.551,-0.581 0.219,1.704 0.328,3.508 0.328,5.411 0,0.032 0,0.062 0,0.093 l 0,0 z m -6.346,0.836 c -2.65,0.147 -5.5,0.059 -8.535,-0.367 l 0.014,-0.05 c 0.354,-1.921 0.559,-3.698 0.641,-5.34 2.121,0.132 4.422,0.173 6.873,0.074 0.533,2.176 0.857,4.15 1.007,5.683 l 0,0 z m -10.017,-0.597 c -1.068,-0.186 -2.158,-0.415 -3.27,-0.689 -0.047,-1.455 -0.227,-3.199 -0.604,-5.125 1.387,0.217 2.914,0.409 4.564,0.548 -0.082,1.568 -0.279,3.271 -0.617,5.116 -0.022,0.045 -0.048,0.093 -0.073,0.15 l 0,0 z m -4.686,-1.062 c -2.68,-0.746 -5.471,-1.758 -8.361,-3.099 0.424,-1.204 0.77,-2.39 1.049,-3.545 1.076,0.358 3.377,1.049 6.625,1.64 0.406,1.889 0.613,3.596 0.687,5.004 l 0,0 z m 36.49,-4.211 c 0.395,1.749 0.785,4.173 0.848,7.087 -0.434,-1.414 -1.566,-2.399 -2.369,-3.093 l -0.57,-0.515 c -0.777,-0.777 -0.676,-1.479 -0.586,-1.766 1.17,-0.676 2.07,-1.279 2.677,-1.713 l 0,0 z m 0.817,9.611 c -0.27,5.986 -2.027,13.527 -7.451,21.351 -8.236,16.706 5.605,27.352 5.744,27.455 l 0.135,0.101 0.164,0.032 c 0.637,0.125 2.525,0.715 2.844,1.759 0.256,0.833 -0.557,1.871 -1.277,2.596 -11.588,11.585 -12.107,29.708 -12.107,29.887 0,0.268 -0.102,0.478 -0.33,0.678 -1.338,1.182 -5.963,1.107 -8.563,0.783 l -0.818,-0.103 c 0,0 0,7.065 0,8.597 -4.482,-1.298 -8.379,-1.981 -9.361,-2.144 -0.121,-0.119 -0.26,-0.257 -0.51,-0.508 13.201,-11.574 19.531,-33.592 19.795,-34.538 -0.004,0.034 0.602,-1.102 0.602,-2.938 0,-0.828 -0.123,-1.799 -0.48,-2.869 -1.418,-4.244 -5.758,-8.051 -12.898,-11.315 -16.191,-7.402 -19.25,-17.984 -19.359,-18.391 -0.01,-0.655 -0.186,-5.263 -3.029,-6.441 -2.223,-0.92 -5.172,0.502 -9.014,4.346 -4.988,4.989 -16.791,6.502 -27.789,6.719 -0.006,-1.299 -0.402,-2.798 -1.188,-4.487 -0.476,-1.023 -0.841,-2.154 -1.132,-3.364 9.042,-0.354 19.203,-3.078 27.503,-8.938 6.453,-4.554 10.197,-10.072 12.33,-15.375 3.084,1.426 6.059,2.488 8.912,3.254 -0.023,1.166 -0.158,1.952 -0.336,2.273 -1.281,0.328 -2.033,1.959 -2.115,2.171 -0.154,0.872 -0.229,1.678 -0.229,2.417 0,2.047 0.578,3.59 1.711,4.663 2.494,2.364 6.686,1.451 6.863,1.411 0.234,-0.081 3.416,-1.328 3.988,-4.019 0.367,-1.719 -0.412,-3.553 -2.313,-5.453 -0.92,-0.922 -1.346,-1.672 -1.525,-2.238 3.096,0.424 6.012,0.508 8.727,0.352 0.021,0.839 -0.039,1.414 -0.166,1.637 -1.805,1.794 -1.131,5.626 -1.049,6.056 l 0.029,0.144 0.082,0.122 c 0.066,0.102 1.678,2.495 4.328,2.761 1.705,0.174 3.4,-0.57 5.037,-2.206 1.42,-1.419 2.133,-2.789 2.133,-4.084 0,-0.247 -0.025,-0.491 -0.078,-0.732 -0.363,-1.687 -1.906,-2.671 -2.709,-3.079 0.033,-0.588 0.061,-1.174 0.076,-1.75 1.764,-0.423 3.389,-0.93 4.869,-1.475 -0.055,0.296 -0.08,0.609 -0.08,0.933 0,1.559 0.426,3.186 0.59,3.75 0.029,0.728 0.299,4.915 2.551,5.805 1.217,0.481 2.656,-0.099 4.281,-1.725 1.379,-1.382 2.243,-2.663 2.612,-3.881 l 0,0 z m -8.215,-5.567 c 1.197,-0.5 2.275,-1.015 3.23,-1.512 0.078,0.592 0.355,1.286 1.049,1.977 l 0.643,0.585 c 0.887,0.77 1.994,1.728 2.041,3.08 0.002,0.031 0.002,0.063 0.002,0.095 0,1.194 -0.803,2.604 -2.393,4.192 -1.145,1.144 -2.107,1.641 -2.717,1.4 -1.133,-0.447 -1.592,-3.286 -1.637,-4.589 l -0.002,-0.092 -0.025,-0.089 c -0.293,-1 -0.553,-2.415 -0.553,-3.518 0.001,-0.692 0.102,-1.262 0.362,-1.529 l 0,0 z m -12.863,3.185 c 1.686,-0.152 3.285,-0.396 4.795,-0.703 -0.02,0.604 -0.049,1.217 -0.09,1.84 l -0.031,0.534 0.502,0.192 c 0.02,0.007 1.977,0.772 2.289,2.251 0.027,0.136 0.043,0.275 0.043,0.417 0,0.896 -0.57,1.923 -1.705,3.057 -1.311,1.309 -2.605,1.91 -3.855,1.79 -1.777,-0.175 -2.959,-1.703 -3.18,-2.006 -0.068,-0.398 -0.135,-0.981 -0.135,-1.647 0,-1.098 0.18,-2.34 0.838,-2.996 0.363,-0.363 0.533,-1.259 0.533,-2.502 0,-0.074 -0.002,-0.15 -0.004,-0.227 l 0,0 z m -14.815,-1.121 c 1.057,0.252 2.096,0.464 3.115,0.638 0.121,0.9 0.629,2.093 2.041,3.506 1.311,1.309 1.973,2.515 1.973,3.592 0,0.178 -0.02,0.353 -0.057,0.522 -0.404,1.915 -2.961,2.927 -2.986,2.938 0.066,-0.024 -3.518,0.747 -5.441,-1.082 -0.848,-0.804 -1.273,-2.021 -1.273,-3.63 0,-0.61 0.061,-1.275 0.184,-1.998 0.188,-0.415 0.734,-1.233 1.121,-1.233 0.223,0 0.637,-0.086 0.914,-0.671 0.204,-0.434 0.362,-1.333 0.409,-2.582 l 0,0 z m -65.073,28.021 c -2.428,-0.185 -4.262,-0.368 -5.227,-0.472 0.348,-1.359 2.22,-8.654 2.22,-8.654 l -1.357,-0.507 -4.126,8.254 c -0.459,0.96 -1.016,1.503 -1.697,1.665 -0.149,-2.482 -0.784,-12.999 -1.486,-24.649 0.593,2.163 1.472,3.674 2.393,5.259 0.724,1.246 1.471,2.534 2.107,4.245 0.93,2.489 3.879,4.615 8.301,5.982 0.973,0.301 2.003,0.561 3.083,0.779 0.555,1.82 0.814,3.332 0.917,4.051 -0.92,0.511 -3.096,1.843 -5.128,4.047 l 0,0 z m -14.915,-1.888 c -1.402,-1.188 -2.737,-2.611 -3.688,-3.626 l -1.101,-1.152 c -0.86,-0.86 -1.539,-0.811 -1.958,-0.616 -1.447,0.666 -1.388,4.225 -1.226,6.285 l 0.009,0.104 0.037,0.099 c 0.306,0.805 0.236,1.456 -0.221,2.049 -3.882,5.042 -30.924,3.377 -41.018,2.309 l -0.535,-0.057 -0.211,0.494 c -1.318,3.076 -5.153,4.694 -5.191,4.712 l -0.134,0.055 -0.103,0.103 c -0.235,0.234 -5.772996,5.893 -7.849996,18.479 -0.939,5.686 -2.604,7.455 -3.838,7.938 -1.467,0.576 -2.869999,-0.491 -2.884999,-0.504 l -1.621,-1.258 0.464,1.997 c 0.33,1.419 0.46,2.61 0.46,3.604 0,2.431 -0.76,3.633 -1.296,4.214 -0.32,0.288 -0.642,0.578 -0.642,0.578 l 0.831,1.184 c 0.051,-0.027 0.458,-0.268 0.933,-0.812 0.068,-0.062 0.097,-0.088 0.149,-0.135 0.539,0.141 1.629999,0.547 1.980999,1.586 0.067,0.205 0.117,0.462 0.117,0.78 0,1.474 -1.043999,4.259 -5.979999,9.195 -3.129,3.129 -4.534,3.124 -4.993,2.976 -0.657,-0.211 -0.811,-1.107 -0.812,-1.117 l 0.008,-9.354 c 0,-0.403 2.216,-1.213 5.158,-1.46 l -0.061,-1.453 c 0,0 -2.705,0 -3.806,0 0.209,-2.388 1.277,-4.484 1.29,-4.507 2.229,-3.943 2.593,-7.525 2.593,-9.44 0,-0.863 -0.075,-1.39 -0.084,-1.454 l -0.068,-0.452 -0.438,-0.136 c -0.769,-0.236 -0.959,-0.657 -1.035,-0.953 -0.041,-0.156 -0.06,-0.329 -0.06,-0.514 0,-3.151 5.633,-10.17 9.414999,-14.08 0.198,-0.209 4.774,-5.085 6.136,-11.646 1.165996,-5.621 4.726996,-5.155 4.876996,-5.133 0,0 7.149,0.008 7.781,0.008 0.134,0.006 0.266,0.015 0.428,-0.004 0,0 -0.014,-0.249 -0.024,-0.427 0.187,-0.09 1.13,-0.537 1.13,-0.537 2.369,-0.966 4.032,-2.079 5.369,-2.976 l 1.692,-1.067 1.033,-0.566 c 1.285,-0.714 2.613,-1.453 3.509,-1.63 0.028,-10e-4 8.353,-0.981 15.514,0.006 l 0.015,0.003 0.188,-1.444 c -0.004,0 -10.517,-1.271 -10.517,-1.271 l -0.089,0.012 c -3.284,0.41 -7.098,0.738 -8.011,0.61 -0.043,-0.139 -0.079,-0.323 -0.079,-0.617 0,-0.351 0.031,-0.771 0.093,-1.161 l 0.04,-0.237 -0.112,-0.215 c -0.143,-0.274 -0.303,-0.54 -0.478,-0.797 7.09,-0.271 12.481,-7.669 14.972,-11.835 0.005,0.015 0.002,0.024 0.008,0.038 0.64,1.757 2.38,3.162 5.172,4.178 1.769,0.643 3.37,0.53 4.76,-0.333 1.879,-1.167 2.975,-3.502 3.611,-5.52 0.175,0.415 0.287,0.757 0.516,1.232 l 0.072,0.147 0.128,0.103 c 2.055,1.654 3.898,2.109 5.477,1.357 1.163,-0.555 2.032,-1.729 2.682,-3.18 0.536,9.612 1.05,18.838 1.517,27.241 l 0,0 z"
   id="path15"
   style="fill:#ffffff;fill-rule:evenodd" />
	<path
   clip-rule="evenodd"
   d="m 106.66309,146.45908 c 2.699,1.505 8.061,4.495 9.242,5.155 -0.366,0.366 -0.519,0.518 -0.797,0.796 -0.758,-0.533 -6.176,-4.352 -8.445,-5.951 l 0,0 z"
   id="path17"
   style="fill-rule:evenodd" />
	<path
   clip-rule="evenodd"
   d="m 129.48809,124.79408 0.299,-0.349 -0.187,-0.423 c -0.024,-0.05 -0.039,-0.106 -0.061,-0.16 0.233,0.203 0.51,0.455 0.877,0.822 0.777,0.776 1.099,1.728 1.099,2.789 0,2.797 -2.234,6.379 -4.27,9.644 l -1.304,2.125 c -2.77,4.674 -4.539,10.815 -4.791,11.716 -0.021,0.024 -0.063,0.069 -0.121,0.132 -1.063,-1.48 -1.675,-2.164 -2.083,-2.44 3.531,-15.505 10.469,-23.771 10.542,-23.856 l 0,0 z"
   id="path19"
   style="fill-rule:evenodd" />
	<path
   clip-rule="evenodd"
   d="m 153.83809,49.935081 c 0.021,0.687998 0.084,2.747998 0.084,2.747998 0,0 2.932,0.635 3.588,0.777 -0.016,0.378 -0.032,0.729 -0.051,1.132 -0.667,0.022 -3.005,0.094 -3.005,0.094 l 0.127,4.145 c 0,0 4.632,-0.143 5.471,-0.168 0.017,0.533 0.039,1.261 0.055,1.794 -0.838,0.025 -5.471,0.169 -5.471,0.169 l 0.196,6.346 c 0,0 2.923,2.75 3.313,3.116 -0.081,0.296 -0.199,0.724 -0.328,1.199 -0.738,-0.305 -3.365,-1.392 -3.365,-1.392 0,0 0.488,14.427 0.512,15.232 -0.509,-0.362 -1.088,-0.536 -1.533,-0.523 -0.066,-0.925 -1.1,-15.714 -1.1,-15.714 0,0 -3.245,-1.826 -3.681,-2.07 -0.009,-0.272 -0.021,-0.701 -0.038,-1.267 0.957,0.401 3.835,1.607 3.835,1.607 l -0.245,-6.098 c 0,0 -5.66,0.259 -6.537,0.301 -0.016,-0.508 -0.034,-1.105 -0.049,-1.594 0.829,-0.056 6.088,-0.415 6.088,-0.415 l -0.111,-3.644 c 0,0 -3.138,0.096 -3.908,0.12 -0.017,-0.552 -0.041,-1.366 -0.056,-1.84 0.636,-0.145 3.418,-0.773 3.418,-0.773 0,0 -0.075,-2.466 -0.098,-3.193998 0.655,-0.019 2.233,-0.066 2.889,-0.088 l 0,0 z"
   id="path21"
   style="fill:#ffcb05;fill-rule:evenodd" />
	<path
   clip-rule="evenodd"
   d="m 131.04809,116.39808 c 1.22,-0.775 1.745,-2.56 2.003,-4.53 0.243,0.186 0.401,0.442 0.711,0.566 1.814,0.726 2.25,3.738 2.25,6.153 0,0.692 -0.041,1.292 -0.09,1.818 -0.783,0 -2.187,0 -2.589,0 -0.265,-0.264 -0.859,-0.858 -1.168,-1.167 0.013,-0.1 0.051,-0.206 0.051,-0.302 0,-0.968 -0.603,-1.8 -1.387,-2.473 0.044,-0.023 0.172,-0.054 0.219,-0.065 l 0,0 z"
   id="path23"
   style="fill:#e7e8e9;fill-rule:evenodd" />
	<path
   clip-rule="evenodd"
   d="m 285.68409,165.27008 c 8.129,-0.572 16.561,2.836 21.482,8.681 8.705,10.338 3.65,29.185 -3.322,42.181 -6.691,12.472 1.699,19.207 1.787,19.272 1.279,1.289 1.172,1.762 1.17,1.766 -0.029,0.076 -0.383,0.206 -0.73,0.209 -5.674,0.478 -10.174,-0.854 -13.434,-3.956 -8.08,-7.69 -7.486,-24.785 -7.096,-36.098 l 0.145,-5.824 c 0,-3.897 -1.215,-6.783 -3.617,-8.581 -4.43,-3.319 -11.307,-1.793 -12.859,-1.39 -1.139,-0.959 -3.471,-2.312 -4.676,-2.985 5.22,-7.958 12.693,-12.681 21.15,-13.275 l 0,0 z"
   id="path25"
   style="fill:#ffffff;fill-rule:evenodd" />
	<path
   clip-rule="evenodd"
   d="m 217.05109,101.74508 c 0,0 23.666,-0.546 32.043,3.277 l -5.281,5.28 c 0,0 -12.016,-6.554 -26.762,-8.557 l 0,0 z"
   id="path27"
   style="fill:#297aa9;fill-rule:evenodd" />
	<path
   clip-rule="evenodd"
   d="m 230.52209,125.04808 38.779,16.932 c 0,0 -12.926,-1.092 -14.199,6.372 -1.275,7.464 0.09,2.458 -1.275,1.092 -1.366,-1.365 -23.305,-24.396 -23.305,-24.396 l 0,0 z"
   id="path29"
   style="fill:#297aa9;fill-rule:evenodd" />
	<path
   clip-rule="evenodd"
   d="m 222.14909,135.42508 21.664,17.296 c 0,0 -5.371,3.642 -5.371,5.371 0,1.729 -16.293,-22.667 -16.293,-22.667 l 0,0 z"
   id="path31"
   style="fill:#297aa9;fill-rule:evenodd" />
	<polygon
   clip-rule="evenodd"
   points="148.246,56.368 147.775,55.898 147.738,55.408 147.738,55.408 "
   id="polygon33"
   style="fill:#ffffff;fill-rule:evenodd"
   transform="translate(47.182095,29.441078)" />
	<path
   clip-rule="evenodd"
   d="m 101.44909,156.60808 c 0,-0.046 0.001,-0.092 0.005,-0.139 0.092,-1.078 1.247,-2.115 1.683,-2.424 l 0.224,-0.159 0.499,-2.079 9.683,3.109 c -0.106,0.506 -0.149,1.084 -0.149,1.691 0,1.451 0.245,2.958 0.473,4.142 -1.324,0.028 -6.92,0.145 -7.522,0.156 -0.122,-0.177 -0.182,-0.325 -0.182,-0.407 0,-0.036 0.003,-0.064 0.007,-0.083 0.083,-0.5 0.87,-1.035 1.237,-1.214 l 0.572,-0.281 -0.2,-0.604 c -0.591,-1.775 -1.47,-2.752 -2.612,-2.905 -1.394,-0.188 -2.648,0.95 -3.413,1.824 -0.091,-0.209 -0.305,-0.41 -0.305,-0.627 l 0,0 z m 17.75,-29.735 c -0.651,1.122 -1.544,2.198 -1.914,2.315 -0.948,-0.708 -3.187,-0.233 -5.113,0.353 -0.833,-0.227 -1.621,0.48 -1.776,0.636 l 0.759,1.202 c 0.204,-0.074 0.406,-0.132 0.61,-0.199 0.026,0.142 0.055,0.302 0.055,0.605 0,1.176 0.333,2.004 0.989,2.463 0.34,0.239 0.692,0.285 1.015,0.306 0,0.646 0,4.033 0,4.033 l 6.63,-10.976 v -0.001 c 0.002,-0.003 0.005,-0.009 0.007,-0.011 l -1.253,-0.741 -0.009,0.015 0,0 z m -2.768,3.446 c 0.14,0.144 0.354,0.171 0.551,0.224 -0.831,1.374 -1.053,1.743 -1.701,2.816 0,-0.285 0,-0.584 0,-0.584 l -0.97,0.325 c -0.002,0.002 -0.417,0.133 -0.67,-0.049 -0.23,-0.165 -0.363,-0.626 -0.363,-1.266 0,-0.208 -0.008,-0.614 -0.103,-1.027 1.576,-0.424 2.922,-0.63 3.256,-0.439 l 0,0 z m -12.019,19.186 0.585,-2.438 6.243,4.399 -6.828,-1.961 0,0 z m 1.265,-5.264 2.139,-8.911 v -0.087 c 0,-8.789 2.198,-12.631 4.043,-14.308 1.267,-1.151 2.339,-1.255 2.384,-1.259 l 0.264,-0.023 0.196,-0.188 c 3.787,-3.787 8.203,-0.119 8.388,0.04 l 0.204,0.173 0.269,0.001 c 1.191,0 3.242,2.55 4.486,4.58 -1.399,1.755 -7.795,10.423 -10.935,25.952 l -0.029,0.146 0.059,0.281 -11.468,-6.397 0,0 z m 23.636,-19.232 c 0.464,-0.054 0.898,-0.088 1.304,-0.106 0.632,0.734 0.898,1.606 0.898,2.571 0,2.797 -2.234,6.379 -4.27,9.644 l -1.304,2.125 c -2.77,4.674 -4.539,10.815 -4.791,11.716 -0.021,0.024 -0.063,0.069 -0.121,0.132 -1.063,-1.48 -1.675,-2.164 -2.083,-2.44 3.22,-14.137 9.269,-22.254 10.367,-23.642 l 0,0 z m 3.077,-0.082 c 3.315,0.278 3.941,1.838 3.948,1.858 l 0.024,0.068 0.044,0.079 c 0.82,1.333 1.138,2.709 1.138,4.04 0,2.107 -0.796,4.104 -1.659,5.647 -2.73,4.884 -7.746,8.457 -9.318,8.457 -0.803,0 -1.568,0.428 -2.264,1.07 0.765,-1.991 1.748,-4.233 2.891,-6.162 l 1.286,-2.096 c 2.623,-4.202 5.814,-9.319 3.91,-12.961 l 0,0 z m -12.5,29.607 c -0.204,0.789 -0.354,1.61 -0.354,2.326 0,0.695 0.141,1.288 0.508,1.656 0.324,0.324 0.433,0.659 0.433,0.965 0,0.463 -0.231,0.811 -0.375,1.001 -0.517,0.192 -0.91,0.32 -1.153,0.377 0.13,-0.686 0.227,-1.351 0.227,-1.926 0,-1.273 -0.266,-2.268 -0.562,-2.982 l 1.276,-1.417 0,0 z m -1.867,0.324 c -0.11,-0.156 -0.187,-0.243 -0.202,-0.26 -0.292,-0.292 -0.896,-0.895 -1.596,-1.245 l 0.353,-0.352 v 0 l 0.875,-0.876 0.57,2.733 0,0 z m -11.36,-8.399 c 2.699,1.505 8.061,4.495 9.242,5.155 -0.366,0.366 -0.519,0.518 -0.797,0.796 -0.758,-0.533 -6.176,-4.352 -8.445,-5.951 l 0,0 z"
   id="path35"
   style="fill:#ffffff;fill-rule:evenodd" />
	<path
   clip-rule="evenodd"
   d="m 108.18909,264.46608 c 0.085,-0.064 11.975,-9.329 18.4,-5.119 0.037,0.495 0.072,1.015 0.072,1.602 0,1.976 -0.254,4.229 -1.039,5.093 -0.209,0.231 -0.429,0.334 -0.709,0.334 h -1.36 l 0.753,1.133 c 1.144,1.716 3.346,5.785 3.346,8.761 0,0.252 -0.016,0.496 -0.049,0.73 -0.667,-0.103 -1.335,-0.162 -2.007,-0.169 -5.242,-0.06 -9.858,2.95 -13.721,8.945 -2.241,4.594 -3.827,8.937 -4.76,13.011 -2.398,-0.749 -5.734,-1.386 -8.682996,-0.512 l 16.113996,-22.359 -19.052996,23.688 c -1.473,-1.563 -5.754999,-5.173 -12.842999,-4.096 l 32.087995,-25.492 -35.111995,25.913 c -1.203,-2.163 -5.423,-8.139 -16.084,-12.578 3.319,-0.214 8.747,-0.849 15.205,-2.686 v 8.175 c 0.106,0.768 0.596,1.989 1.798,2.386 1.599,0.527 3.719,-0.563 6.484,-3.327 4.260999,-4.261 6.408999,-7.692 6.408999,-10.228 0,-0.447 -0.067,-0.867 -0.201,-1.258 -0.162,-0.474 -0.399,-0.859 -0.677,-1.174 5.176,-2.647 10.509996,-6.147 15.628996,-10.773 l 0,0 z"
   id="path37"
   style="fill:#00a651;fill-rule:evenodd" />
	<path
   clip-rule="evenodd"
   d="m 177.21209,281.15908 c 0,0 1.834,10.565 -3.246,19.781 -2.521,1.903 -6.333,4.12 -11.335,5.173 -6.348,1.337 -8.88,3.552 -9.913,5.149 0.228,-0.84 1.003,-2.291 3.429,-4.717 3.735,-3.734 5.018,-10.475 5.018,-15.493 0,-1.563 -0.169,-2.6 -0.383,-3.687 1.077,0.781 6.233,10.427 0.324,15.598 -0.001,0 15.967,-2.125 16.106,-21.804 l 0,0 z"
   id="path39"
   style="fill:#ed1c24;fill-rule:evenodd" />
	<path
   clip-rule="evenodd"
   d="m 85.456095,308.18008 6.859999,3.721 c 6.764,3.803 10.718996,5.993 14.663996,2.134 1.43,5.462 4.624,10.12 9.527,13.895 -1.097,0.632 -2.87,1.654 -2.87,1.654 l -0.099,0.195 c -0.008,0.018 -0.875,1.686 -2.483,1.941 -1.279,0.202 -2.749,-0.514 -4.362,-2.127 l -0.069,-0.07 -11.978996,-6.845 c -0.01,-0.013 -6.784999,-4.711 -11.960999,-0.346 -0.772,-0.771 -4.878,-4.878 -4.878,-4.878 -1.228,-0.845 -3.561,-1.776 -5.643,-1.053 0.43,-1.582 1.176,-4.316 1.176,-4.316 l -0.745,-0.167 c -0.173,-0.039 -3.971,-0.743 -9.165,1.933 0.606,-1.54 1.923,-3.649 4.638,-3.649 h 1.415 l -0.823,-1.151 c -0.078,-0.11 -1.483,-2.025 -3.588,-3.054 3.762,-1.013 11.73,-2.228 20.385,2.183 l 0,0 z m 55.330995,17.169 0.425,-0.427 -0.337,-0.497 c -1.965,-2.904 -2.935,-5.548 -2.935,-8.021 0,-0.639 0.064,-1.266 0.193,-1.883 0.809,-3.885 4.138,-7.564 10.472,-11.582 7.829,-4.964 10.148,-11.542 10.856,-15.16 0.102,0.657 0.19,1.428 0.218,2.457 0.007,0.246 0.011,0.499 0.011,0.757 0,4.755 -1.179,11.128 -4.575,14.523 -2.654,2.653 -3.956,4.723 -3.956,6.296 0,0.208 0.023,0.404 0.067,0.595 0.26,1.102 1.16,1.43 1.261,1.464 l 0.915,0.306 0.044,-0.979 c 0.001,-0.038 0.273,-3.72 9.485,-5.659 9.565,-2.014 14.811,-7.853 15.615,-8.809 0.996,-0.272 6.3,-1.701 8.53,-1.701 0.574,0 1.004,0.147 1.285,0.439 0.462,0.479 0.438,1.239 0.438,1.248 l -0.042,1.027 0.982,-0.3 c 2.952,-0.91 4.256,-0.614 4.399,-0.402 0,0 0,0.002 0,0.005 0,0.08 -0.074,1.166 -3.954,3.73 -7.135,4.71 -9.963,12.219 -10.081,12.537 l -0.093,0.255 0.095,0.253 c 0.249,0.659 0.359,1.327 0.359,1.99 0,4.756 -5.628,9.313 -5.693,9.364 -0.867,0.618 -1.316,1.281 -1.316,1.961 0,0.127 0.017,0.253 0.048,0.381 0.211,0.862 1.176,1.45 2.239,1.865 -10.216,2.076 -11.526,0.881 -11.636,0.721 -0.007,-0.01 -0.011,-0.024 -0.011,-0.039 0,-0.013 0.01,-0.021 0.013,-0.034 3.146,-0.517 6.495,-5.332 8.706,-9.233 0.898,-1.338 1.725,-2.832 2.372,-4.594 0.009,-0.018 0.033,-0.07 0.041,-0.086 l -0.004,-10e-4 c 0.009,-0.019 0.021,-0.034 0.028,-0.054 l -1.349,-0.55 c -0.504,1.104 -1.342,2.75 -2.33,4.496 -3.469,5.1 -8.302,7.154 -9.44,7.567 l -0.352,0.119 c -17.083,2.229 -22.728,-0.095 -24.269,-1.073 0.824,-0.822 3.276,-3.272 3.276,-3.272 l 0,0 z m 13.812,-5.498 c -0.498,0.181 -4.521,1.645 -4.521,1.645 l 2.114,0.629 c 0.1,0.029 9.9,2.822 15.414,-5.842 0.667,-1.324 2.018,-3.185 2.908,-3.185 l 0.024,-1.457 c -0.002,0 -0.024,-10e-4 -0.024,-10e-4 -0.714,-0.023 -14.14,-0.314 -15.915,8.211 l 0,0 z m 1.226,1.106 0.063,-0.43 c 0.838,-5.696 8.092,-7.02 12.039,-7.327 -0.818,0.943 -1.411,2.017 -1.585,2.365 -3.227,5.064 -8.001,5.722 -10.993,5.563 0.152,-0.025 0.329,-0.119 0.476,-0.171 l 0,0 z m 53.681,10.313 c -0.354,1.078 -0.666,2.411 -0.666,3.766 0,0.716 0.09,1.433 0.307,2.113 0.445,1.402 1.367,2.462 2.738,3.146 l 1.344,0.656 c 1.533,0.741 2.98,1.44 3.018,1.959 0.002,0.01 0.002,0.021 0.002,0.029 0,0.998 -3.555,3.438 -4.73,4.247 -3.094,2.124 -8.799,4.389 -18.414,3.113 l -0.549,-0.059 c -0.107,0 -10.539,1.273 -14.507,4.937 -0.035,-0.288 -0.084,-0.53 -0.084,-0.876 0,-1.855 0.64,-4.388 3.747,-5.756 l -0.455,-1.376 c -0.733,0.168 -5.971,1.458 -8.719,3.901 0.342,-2.001 1.439,-4.796 4.821,-6.14 14.374,-2.823 25.177,-8.735 32.147,-13.66 l 0,0 z m 83.244,-22.407 c 5.479,-9.624 1.992,-14.841 -2.416,-21.444 -2.244,-3.356 -4.785,-7.159 -6.508,-12.166 -4.871,-14.148 6.227,-23.873 6.338,-23.971 10.658,-7.437 20.523,-0.277 20.939,0.03 4.059,4.58 6.141,9.096 6.141,13.398 0,0.703 -0.055,1.4 -0.168,2.092 -0.869,5.374 -4.967,9.034 -7.068,10.595 0.02,-0.276 0.094,-0.586 0.094,-0.849 0,-4.277 -2.668,-6.784 -4.877,-8.86 -1.771,-1.664 -2.939,-2.853 -2.939,-4.316 0,-0.503 0.139,-1.038 0.436,-1.636 0.885,-1.768 1.814,-2.746 2.623,-2.756 0.883,-0.012 1.676,1.119 1.91,1.557 l 1.371,-0.34 v -2.04 l -0.025,-0.093 c -0.645,-2.368 -1.846,-3.876 -3.564,-4.479 -3.438,-1.208 -7.586,1.769 -7.762,1.896 -8.58,8.568 -3.164,17.838 2.074,26.802 3.633,6.217 7.389,12.646 6.613,18.847 -0.006,14.938 -6.346,23.923 -18.338,26.075 -17.063,3.062 -31.77,-7.275 -33.918,-8.872 0.064,-0.847 0.094,-1.658 0.094,-2.437 0,-11.26 -6.201,-15.574 -8.621,-16.828 0.254,0.042 0.686,0.116 1.26,0.222 6.811,1.7 13.559,4.81 19.787,7.679 11.733,5.409 21.87,10.078 26.524,1.894 l 0,0 z m -165.311,28.885 c -1.01,-1.72 -1.792,-3.99 -1.327,-4.455 l 0.261,-0.262 -0.025,-0.456 c -0.091,-0.579 -0.622,-0.853 -2.2,-1.665 -1.234,-0.634 -2.926,-1.505 -4.79,-2.735 -6.471,-4.274 -10.321,-9.903 -11.439,-16.732 -1.159,-7.063 0.6,-15.459 5.226,-24.953 3.529,-5.47 7.727,-8.255 12.434,-8.202 11.773,0.133 23.628,17.618 25.694,20.81 -1.001,0.907 -2.143,1.786 -3.446,2.613 -6.69,4.241 -10.224,8.219 -11.119,12.517 -0.151,0.721 -0.226,1.449 -0.226,2.188 0,2.608 0.973,5.354 2.873,8.306 -0.645,0.646 -3.875,3.875 -3.875,3.875 l 0.359,0.501 c 0.365,0.512 4.202,4.906 26.241,2.02 0.111,-0.022 0.548,-0.171 0.548,-0.171 0.807,-0.291 2.332,-0.93 4.092,-2.077 -1.098,1.111 -2.184,1.856 -3.146,1.856 h -0.364 l -0.218,0.293 c -0.166,0.22 -0.355,0.614 -0.355,1.057 0,0.265 0.068,0.546 0.246,0.821 0.723,1.112 3.19,2.245 16.212,-0.731 l -0.059,-1.432 c -2.028,-0.291 -3.992,-1.035 -4.118,-1.559 0,-0.007 -0.002,-0.016 -0.002,-0.023 0,-0.124 0.185,-0.422 0.733,-0.812 0.317,-0.252 6.276,-5.072 6.276,-10.51 0,-0.714 -0.161,-1.44 -0.394,-2.166 0.087,-0.219 0.358,-0.875 0.833,-1.797 1.367,-1.352 24.792,-23.742 61.443,-13.829 0.375,0.126 8.549,3.05 8.549,15.728 0,2.153 -0.234,4.588 -0.785,7.337 l -0.02,0.089 0.008,0.09 c 0.375,8.368 12.967,6.13 12.967,12.89 0,1.728 -1.115,3.783 -3.223,5.892 -1.016,1.015 -1.76,2.053 -2.482,3.058 -2.518,3.502 -4.689,6.525 -17.395,6.525 0,0 -2.301,0 -4.596,0 0.498,-0.498 3.055,-3.054 3.055,-3.054 0,0 -8.697,2.621 -10.174,3.068 0,-0.729 0,-1.328 0,-1.632 1.209,-1.209 2.434,-2.435 2.434,-2.435 l -1.031,-1.03 c 0,0 -4.16,4.16 -4.287,4.289 -0.262,0 -0.828,0 -1.635,0 1.156,-1.399 3.201,-3.659 4.953,-4.421 0.578,-0.25 1.172,-0.507 1.172,-1.023 0,-0.089 -0.02,-0.184 -0.057,-0.288 -0.225,-0.623 -0.406,-0.757 -3.492,0.115 0.666,-1.021 2.014,-2.219 4.668,-1.902 l 11.488,0.127 c 0.389,0.091 5.031,0.939 6.547,-1.487 1.078,-1.729 0.197,-4.403 -2.684,-8.181 l -0.244,-0.318 -0.4,0.036 c -0.197,0.018 -19.705,1.621 -28.215,-11.09 l -0.527,-0.787 -0.625,0.713 c -0.154,0.174 -15.729,17.573 -44.709,21.851 -12.572,1.854 -20.158,1.541 -22.547,-0.932 -0.236,-0.242 -0.352,-0.521 -0.483,-0.795 0.08,-1.26 0.11,-2.466 0.11,-3.415 0,-0.973 -0.024,-1.687 -0.035,-1.935 l -1.456,0.028 -0.187,1.397 c -0.128,0.7 -0.276,1.511 -0.276,2.347 0,0.619 0.111,1.248 0.342,1.863 -0.199,2.697 -0.616,5.238 -1.424,6.076 -0.179,0.189 -0.313,0.21 -0.396,0.21 h -0.901 l 0.189,0.884 c 0.025,0.116 0.051,0.323 0.051,0.56 0,0.396 -0.076,0.874 -0.372,1.121 -0.275,0.229 -1.039,0.486 -3.009,-0.308 -0.492,-0.336 -3.822,-2.499 -8.338,-2.499 -0.293,0.029 -21.085,2.331 -31.43,-3.782 0.038,0.021 -1.061,-0.841 -2.391,-0.46 -1.091996,0.312 -1.950996,1.331 -2.549996,3.028 -0.244,0.691 -0.86,2.419 -1.211,2.811 -0.197,-0.123 -0.55,-0.464 -0.864,-0.777 l -0.407,-0.755 c -0.896,-2.283 -2.535,-3.592 -15.095999,-1.258 0.537,-1.131 1.57,-2.69 3.215,-2.69 0.422,0 1.128,0 1.297,-0.635 l 0.145,-0.541 -0.568,-0.373 c -0.936,-0.542 -8.019,-1.796 -10.542,0.092 -0.134,0 -0.49,0 -0.965,0 1.376,-1.607 4.233,-4.369 7.72,-4.369 h 0.597 l 0.117,-0.585 c 0.025,-0.123 0.133,-0.7 0.133,-1.406 0,-0.662 -0.148,-1.404 -0.498,-2.017 3.164,-0.594 10.776999,-1.485 18.547999,1.768 l 0.16,0.066 0.173,-0.013 c 6.390996,-0.466 23.583996,-1.063 26.377996,1.73 l 1.143,-0.886 0,0 z"
   id="path41"
   style="fill:#faa74a;fill-rule:evenodd" />
	<path
   clip-rule="evenodd"
   d="m 244.29109,242.95108 c -0.555,0.903 -0.762,2.036 -0.762,3.232 0,3.38 1.67,7.263 1.938,7.867 l 0.055,0.124 0.098,0.096 c 1.092,1.092 1.646,2.256 1.646,3.461 0,0.012 0,0.024 0,0.037 -0.021,2.047 -1.621,3.611 -1.637,3.626 -8.932,12 -10.117,19.866 -10.117,23.192 0,1.106 0.133,1.711 0.152,1.801 0.018,0.059 0.201,0.577 0.201,1.207 0,0.443 -0.09,0.941 -0.393,1.375 -0.596,0.853 -1.941,1.305 -3.881,1.305 -4.541,0 -8.576,4.32 -9.506,5.389 -3.672,0.038 -7.475,0.677 -10.098,1.229 14.76,-11.979 20.82,-27.774 20.883,-27.942 0.107,-0.202 2.402,-4.746 2.402,-9.148 0,-1.557 -0.289,-3.098 -1.061,-4.422 l -1.494,-2.656 c -2.215,-4.013 -4.51,-8.162 -9.773,-13.425 -3.689,-3.691 -5.311,-7.658 -6.016,-10.225 1.816,-0.854 3.375,-1.868 4.58,-3.074 4.15,-4.15 6.328,-4.482 7.424,-4.03 1.746,0.721 2.131,4.009 2.135,5.216 v 0.089 l 0.021,0.087 c 0.102,0.395 2.227,8.397 13.203,15.589 l 0,0 z"
   id="path43"
   style="fill:#ffffff;fill-rule:evenodd" />
	<path
   clip-rule="evenodd"
   d="m 78.118095,233.28108 c -0.029,-0.111 -2.827,-11.343 3.793,-20.227 0.201,-0.365 3.482,-6.695 4.943,-12.079 l 0.736,-3.113 c 0.619,-2.895 0.699,-3.269 2.93,-3.269 l 1.645999,-0.056 c 2.759,-0.146 4.753,-0.251 8.444996,4.166 2.442,2.92 5.321,4.019 8.369,5.184 2.795,1.066 5.677,2.205 8.493,4.847 -0.288,0.502 -0.616,1.29 -0.616,2.272 0,0.536 0.099,1.129 0.356,1.763 0.225,0.559 0.762,1.124 1.443,1.84 0.436,0.458 0.898,0.955 1.311,1.485 0.279,0.594 0.484,1.235 0.633,1.855 -0.004,0.086 -0.006,0.173 -0.006,0.263 0,0.567 0.078,1.141 0.32,1.544 0.051,0.442 0.075,0.811 0.087,1.058 -0.299,0.216 -1.778,1.288 -3.138,2.273 -0.695,0.466 -1.482,0.988 -2.411,1.51 -4.582,-5.337 -17.019996,-19.504 -19.975996,-19.614 -0.803,-0.15 -3.053,0.231 -7.211999,6.886 l -0.119,0.191 0.009,0.225 c 0.143,3.392 -0.077,12.623 -2.784,14.593 -0.537,0.391 -1.134,0.444 -1.88,0.169 l -1.163,-0.43 c 0,0 0.602,3.872 0.737,4.733 -0.819,0.306 -3.357,1.249 -3.357,1.249 l 0.416,1.394 c 2.083,-0.477 4.32,-0.569 4.694,-0.195 0.42,0.419 0.874,0.905 1.073,1.329 0.062,0.134 0.09,0.237 0.09,0.324 0,0.128 -0.061,0.22 -0.162,0.32 0,0 -8.48,7.847 -9.279,8.586 -0.51,-0.366 -1.039,-0.845 -1.039,-1.244 l -0.04,-0.896 c -0.087,-1.533 -0.123,-2.798 -0.123,-3.841 0,-4.175 0.572,-4.821 0.784,-4.917 0.002,0 0.231,-0.025 0.776,0.52 l 1.887,1.888 -0.666,-2.586 0,0 z"
   id="path45"
   style="fill:#ffffff;fill-rule:evenodd" />
	<path
   clip-rule="evenodd"
   d="m 182.20709,296.31708 c -2.168,0.482 -4.12,1.028 -4.266,1.068 l -0.223,0.063 -0.147,0.182 c -0.019,0.024 -0.75,0.917 -2.153,2.134 2.402,-4.73 3,-9.82 3,-13.715 0,-3.799 -0.568,-6.458 -0.585,-6.535 l -1.439,0.186 c 0.015,0.414 0.022,0.821 0.022,1.219 0,13.303 -8.175,18.33 -12.517,20.062 0.653,-0.946 1.123,-1.989 1.31,-3.175 0.076,-0.48 0.111,-0.967 0.111,-1.451 0,-4.354 -2.794,-8.674 -3.578,-9.8 0.071,-0.78 0.11,-1.552 0.11,-2.311 0,-4.669 -1.424,-8.852 -5.265,-11.639 -3.047,-2.212 -4.531,-4.132 -4.531,-5.869 0,-0.045 0,-0.088 0.003,-0.132 0.082,-1.882 1.953,-3.823 6.064,-6.29 1.506,-0.904 2.786,-1.537 4.011,-1.979 0.423,7.592 0.675,12.134 0.681,12.236 -0.482,0.242 -3.005,1.504 -3.005,1.504 l 6.507,20.078 0.986,-0.07 3.562,-20.805 c 0,0 -2.534,0 -3.219,0 -0.01,-0.157 -0.322,-5.34 -0.835,-13.846 1.581,-0.093 3.378,-0.054 5.665,-0.003 l 5.664,0.075 c 3.306,0 8.127,0.519 13.228,1.069 10.133,1.092 21.279,2.254 28.176,0.568 -2.014,2.139 -4.145,5.322 -4.145,9.373 0,0.067 0.002,0.137 0.004,0.205 l -38.599,-4.746 37.353,6.147 c -4.145,1.224 -13.48,4.361 -14.086,7.987 -0.023,0.141 -0.035,0.282 -0.035,0.419 0,0.459 0.158,0.894 0.418,1.313 -0.516,0.015 -1.123,0.057 -1.793,0.146 l -23.112,-9.637 20.584,10.157 c -3.668,1.04 -8.141,3.622 -10.977,9.862 -1.017,2.243 -2.01,4.219 -2.949,5.95 l 0,0 z"
   id="path47"
   style="fill:#00a651;fill-rule:evenodd" />
	<path
   clip-rule="evenodd"
   d="m 149.43209,198.96208 c 0,0.142 -0.166,0.605 -0.143,0.773 -0.357,1.856 -1.324,5.536 -3.543,6.913 -1.006,0.623 -2.147,0.688 -3.494,0.199 -2.32,-0.844 -3.805,-1.98 -4.294,-3.285 -0.135,-0.363 -0.183,-0.705 -0.183,-1.011 0,-0.725 0.269,-1.229 0.291,-1.269 0.004,-0.007 0.027,-0.05 0.029,-0.056 0,0 -0.837,-0.439 -1.107,-0.579 4.097,-0.104 8.517,-0.428 12.444,-1.685 l 0,0 z"
   id="path49"
   style="fill:#e7e8e9;fill-rule:evenodd" />
	<path
   clip-rule="evenodd"
   d="m 118.43909,210.01608 c 0,-0.759 0.186,-1.584 0.664,-2.451 l 0.088,-0.162 c 0,0 0.069,-6.96 0.083,-8.419 2.421,0.517 9.549,1.843 17.478,1.669 -0.193,0.404 -6.994,14.367 -16.21,13.702 -0.433,-0.387 -2.103,-2.018 -2.103,-4.339 l 0,0 z"
   id="path51"
   style="fill:#e7e8e9;fill-rule:evenodd" />
	<path
   clip-rule="evenodd"
   d="m 158.76309,197.74708 c -0.552,2.786 -1.5,5.391 -3.072,6.141 -1.003,0.478 -2.291,0.093 -3.815,-1.097 -0.504,-1.067 -0.929,-2.166 -1.131,-2.898 0.113,-0.609 0.167,-1.037 0.174,-1.102 0,0 -0.009,-0.437 0.016,-0.663 2.017,-0.782 5.181,-3.458 7.571,-5.002 0.086,1.547 0.172,3.087 0.257,4.621 l 0,0 z"
   id="path53"
   style="fill:#e7e8e9;fill-rule:evenodd" />
	<path
   clip-rule="evenodd"
   d="m 161.16309,164.31608 c 4.631,-1.349 9.475,-4.151 13.593,-8.66 l 2.219,0.077 c 0,0 -4.685,15.46 -7.961,7.267 0,0 -2.481,8.539 -7.527,5.531 -0.108,-1.797 -0.216,-2.431 -0.324,-4.215 l 0,0 z"
   id="path55"
   style="fill:#e7e8e9;fill-rule:evenodd" />
	<path
   clip-rule="evenodd"
   d="m 138.85409,163.65308 c 0,0 -0.24,-0.429 -0.469,-0.837 2.902,1.042 6.029,1.878 9.259,2.351 -0.214,0.443 -0.432,0.894 -0.432,0.894 -0.012,0.026 -1.218,2.479 -3.093,2.537 -1.6,0.049 -3.419,-1.661 -5.265,-4.945 l 0,0 z"
   id="path57"
   style="fill:#e7e8e9;fill-rule:evenodd" />
	<path
   clip-rule="evenodd"
   d="m 127.28709,160.49708 c -0.973,-0.087 -3.037,-1.052 -5.927,-6.538 -0.093,-0.178 -0.138,-0.271 -0.225,-0.436 1.423,1.079 8.049,5.896 16.766,9.112 -0.149,0.457 -0.375,1.151 -0.375,1.151 -0.005,0.014 -0.443,1.324 -1.485,1.477 -0.84,0.123 -2.755,-0.403 -6.145,-5.309 l -0.562,-0.815 -0.616,0.788 c -0.019,0.027 -0.52,0.652 -1.431,0.57 l 0,0 z"
   id="path59"
   style="fill:#e7e8e9;fill-rule:evenodd" />
	<path
   clip-rule="evenodd"
   d="m 157.09009,167.69308 c -1.231,1.579 -3.062,3.379 -4.696,3.201 -1.74,-0.189 -2.898,-2.684 -3.563,-4.744 0,0 -0.147,-0.453 -0.294,-0.906 2.76,0.36 5.589,0.45 8.423,0.126 0.044,0.775 0.087,1.548 0.13,2.323 l 0,0 z"
   id="path61"
   style="fill:#e7e8e9;fill-rule:evenodd" />
	<path
   clip-rule="evenodd"
   d="m 115.24409,102.97308 c 0,-0.921 0.128,-1.92 0.324,-2.957 2.683,1.881 6.4,4.898 7.037,10.621 0.017,1.052 0.149,1.794 0.155,1.817 l 1.441,-0.149 c 0,-0.706 -0.09,-1.336 -0.167,-1.978 0.007,-2.056 0.616,-5.298 4.1,-6.823 1.907,-0.833 2.994,-1.588 3.403,-2.358 0.125,0.321 0.208,0.689 0.208,1.152 0,0.526 -0.08,1.139 -0.242,1.831 l -0.03,0.132 0.018,0.134 c 0.164,1.169 0.271,2.618 0.291,4.069 -0.048,0.285 -0.083,0.563 -0.083,0.828 0,0.1 0.066,0.166 0.073,0.261 -0.06,2.559 -0.457,4.941 -1.542,5.63 -0.313,0.2 -0.731,0.199 -1.199,0.092 -0.792,-0.415 -1.477,-0.674 -1.671,-0.744 l -0.641,1.297 c 0.605,0.393 1.166,0.637 1.704,0.8 1.165,0.632 2.329,1.493 2.329,2.345 0,0.097 -0.016,0.195 -0.048,0.292 l -0.143,0.427 2.171,2.17 h 4.485 l 0.088,-0.629 c 0.017,-0.121 0.16,-1.21 0.16,-2.642 0,-2.638 -0.488,-6.44 -3.159,-7.51 -0.758,-0.302 -1.001,-0.875 -1.076,-1.464 0.006,-0.225 0.029,-0.455 0.029,-0.676 0,-0.134 -0.009,-0.254 -0.011,-0.387 0.405,-1.932 2.078,-3.805 3.426,-3.805 l 2.056,0.103 c 3.054,0.208 7.383,0.452 9.143,-1.685 0.002,0.098 0.012,0.16 0.012,0.262 0,1.266 -0.249,2.949 -0.741,4.542 -1.986,1.745 -3.27,3.984 -3.369,4.161 l -0.846,1.522 1.676,-0.466 c 2.004,-0.558 3.209,-2.364 3.909,-4.432 1.418,-1.118 3.135,-1.843 4.932,-1.018 0.106,0.049 0.212,0.095 0.316,0.139 0.399,7.18 0.867,15.579 1.375,24.719 -7.631,-3.485 -15.028,-6.862 -15.028,-6.862 0,0 -0.978,0.251 -2.356,0.607 -0.034,-0.058 -0.068,-0.116 -0.104,-0.174 l 0.074,0.161 c -0.042,-0.133 -1.027,-2.89 -6.475,-2.873 -1.329,-1.304 -2.256,-1.955 -2.981,-1.503 -1.125,-1.556 -2.781,-3.423 -4.372,-3.662 -0.401,-0.328 -0.904,-0.667 -1.481,-0.97 0.022,-0.02 0.045,-0.041 0.067,-0.063 0.152,-0.156 0.238,-0.311 0.238,-0.501 0,-0.48 -0.551,-1.19 -1.984,-2.76 -0.303,-0.228 -3.979,-2.934 -5.124,-8.005 -0.093,-0.454 -0.156,-0.859 -0.204,-1.209 -0.065,-0.487 -0.123,-0.981 -0.135,-1.51 0,-0.002 -0.002,-0.02 -0.002,-0.02 -0.003,-0.097 -0.026,-0.179 -0.026,-0.279 l 0,0 z m 42.579,5.397 c 0.863,-0.188 1.52,-0.538 1.997,-0.793 0,0 0.273,-0.129 0.437,-0.206 0.012,0.028 0.029,0.066 0.029,0.066 0.03,0.089 0.045,0.203 0.045,0.341 0,0.637 -0.336,1.773 -1.166,3.224 -0.332,0.581 -0.7,1.14 -1.084,1.658 -0.089,-1.48 -0.175,-2.91 -0.258,-4.29 l 0,0 z m 0.458,7.599 c 1.611,-0.755 2.983,-1.79 2.701,-3.07 -0.11,-0.502 0.414,-0.988 0.896,-1.252 0.8,-0.438 1.947,-0.546 2.589,0.097 0.253,0.253 0.493,0.5 0.72,0.739 1,1.568 2.099,3.171 3.304,4.778 0,0.005 0,0.011 0,0.016 0,0.056 -0.008,0.101 -0.024,0.138 -0.019,0.044 -0.197,0.17 -0.755,0.17 -2.199,0 -3.188,1.68 -3.913,2.905 -0.179,0.303 -0.36,0.607 -0.536,0.847 -0.358,0.207 -0.626,0.306 -0.84,0.356 -0.242,-0.085 -0.586,-0.27 -1.206,-0.891 l -1.768,-1.769 0.542,2.441 c 0.106,0.48 0.542,1.367 1.499,1.645 0.259,0.075 0.551,0.04 0.838,0.018 0.196,0.037 0.401,0.117 0.59,0.094 0.56,-0.072 0.971,-0.398 1.327,-0.816 0.665,-0.422 1.373,-0.978 2.16,-1.766 0.759,-0.758 1.557,-1.067 2.44,-0.947 2.601,0.357 5.387,4.37 6.243,5.887 l -0.08,-0.205 c 0.023,0.097 0.228,0.953 1.229,1.576 0.223,0.14 0.5,0.222 0.764,0.314 -0.271,0.295 -0.556,0.579 -0.698,1.005 -0.307,0.919 -1.254,1.799 -2.412,2.242 -0.554,0.21 -1.131,0.311 -1.716,0.313 -0.092,-0.011 -0.187,-0.009 -0.277,-0.025 -0.041,-0.002 -0.079,-0.014 -0.121,-0.017 -1.364,-0.255 -2.467,-0.75 -2.488,-0.761 l -0.667,1.294 c 0.021,0.011 0.041,0.014 0.059,0.026 l -0.001,0.003 c 0.036,0.017 0.226,0.099 0.507,0.209 0.745,0.352 1.506,0.564 2.274,0.644 0.135,0.025 0.273,0.036 0.413,0.057 0.103,0.004 0.203,0.028 0.306,0.028 1.532,0.185 3.256,0.072 4.562,-1.046 0.528,-0.453 0.722,-0.426 0.725,-0.425 0.163,0.027 0.516,0.628 0.729,0.99 0.391,0.665 0.903,1.481 1.694,2.156 -0.398,0.223 -0.759,0.511 -0.902,0.95 -0.039,0.12 -0.068,0.262 -0.068,0.419 0,0.368 0.15,0.827 0.656,1.333 0.003,0.003 0.006,0.007 0.01,0.01 -0.254,0.094 -0.515,0.193 -0.78,0.298 -2.135,-0.303 -4.438,-0.399 -5.403,0.35 -0.383,0.298 -0.594,0.722 -0.594,1.194 0,1.347 -0.781,1.58 -1.157,1.619 -0.154,-0.07 -5.788,-2.643 -12.252,-5.595 -0.401,-6.66 -0.778,-12.917 -1.119,-18.576 l 0,0 z m -46.243,3.019 c -0.225,0.086 -1.627,0.517 -4.064,-0.774 -1.913,-1.013 -4.166,-1.423 -5.73,-1.596 1.759,-1.256 5.096,-2.894 9.265,-0.925 l 0.687,-1.282 c -2.122,-1.275 -5.109,-3.675 -5.109,-5.02 0,-1.614 -1.338,-2.633 -2.569,-3.244 1.133,-0.206 2.72,-0.202 4.537,0.598 0.204,0.203 1.705,1.706 1.705,1.706 l 0.002,-0.001 c 0.002,0.001 0.019,0.02 0.019,0.02 l 1.01,-1.049 -0.022,-0.021 c -0.031,-0.03 -2.132,-2.081 -2.132,-6.563 0,0 0,-0.291 0,-0.298 0.959,0.509 2.302,1.487 4.206,3.365 0.021,0.299 0.076,0.813 0.182,1.503 0.029,0.17 0.052,0.34 0.085,0.506 0.462,2.59 1.694,6.781 5.066,9.676 0.424,0.365 0.788,0.675 1.104,0.933 -1.974,-0.459 -4.298,-0.226 -6.396,1.74 -0.343,0.059 -1.023,0.229 -1.846,0.726 l 0,0 z"
   id="path63"
   style="fill:#e7e8e9;fill-rule:evenodd" />
	<path
   clip-rule="evenodd"
   d="m 163.57209,271.33408 0.299,-0.15 c 0,0 -3.633,-65.282 -6.601,-118.595 l 0.686,0.07 c 0.453,0.057 0.972,0.121 1.525,0.169 3.213,53.284 7.204,119.47 7.204,119.47 0,0 2.188,0 2.971,0 -0.172,1.006 -2.462,14.383 -3.007,17.572 -1.01,-3.114 -5.367,-16.559 -5.599,-17.276 0.588,-0.294 2.522,-1.26 2.522,-1.26 l 0,0 z m -7.11,-133.271 c -1.392,-25.015 -2.58,-45.020001 -2.922,-51.158001 0.744,0.148 1.225,0.306 1.767,0.798 0.178,2.958 1.678,23.701001 3.31,50.770001 -0.66,-0.178 -1.394,-0.332 -2.155,-0.41 l 0,0 z"
   id="path65"
   style="fill:#ffcb05;fill-rule:evenodd" />
	<path
   clip-rule="evenodd"
   d="m 185.69309,204.28408 c 1.254,3.292 1.659,7.38 2.052,11.352 0.429,4.33 0.871,8.808 2.439,12.179 1.174,2.524 1.361,4.534 0.548,5.813 -1.007,1.576 -3.197,1.698 -3.844,1.698 -3.059,0 -8.136,3.783 -8.353,3.944 -2.912,2.619 -5.438,3.768 -7.353,3.359 -1.254,-0.267 -1.963,-1.115 -2.297,-1.631 0.679,-0.678 4.912,-4.914 4.912,-4.914 l 0.057,-0.111 c 2.465,-5.156 7.759,-7.784 7.812,-7.81 l 0.452,-0.224 -0.046,-0.502 c -0.036,-0.346 -0.875,-8.552 -6.067,-13.742 -3.343,-3.343 -3.842,-7.702 -3.842,-9.994 0,-0.952 0.088,-1.548 0.09,-1.568 l 0.042,-0.275 c 0,0 -0.336,-0.514 -0.768,-1.174 0.319,-0.567 0.792,-0.938 1.438,-1.128 3.326,-0.98 10.139,2.967 12.728,4.728 l 0,0 z"
   id="path67"
   style="fill:#ffffff;fill-rule:evenodd" />
	<path
   clip-rule="evenodd"
   d="m 226.39909,184.07908 c 1.578,-0.73 3.201,-1.672 4.748,-2.891 0.119,0.948 0.254,2.422 0.254,4.268 0,7.066 -1.98,19.511 -14.365,28.253 -8.148,5.751 -18.133,8.394 -26.968,8.692 -0.403,-2.145 -0.635,-4.489 -0.874,-6.909 -0.099,-1.003 -0.2,-2.013 -0.313,-3.019 4.808,1.77 11.782,2.134 21.036,-2.722 17.935,-9.41 16.822,-23.281 16.482,-25.672 l 0,0 z"
   id="path69"
   style="fill:#ffcb05;fill-rule:evenodd" />
	<path
   clip-rule="evenodd"
   d="m 176.98909,220.88208 c -3.983,-1.23 -6.601,-3.041 -7.366,-5.101 -0.68,-1.825 -1.461,-3.167 -2.215,-4.466 -2.247,-3.871 -4.224,-7.278 -1.913,-22.427 0.023,0.027 0.044,0.053 0.064,0.076 -0.088,0.531 -0.162,1.064 -0.162,1.586 0,5.329 4.189,10.059 4.72,10.636 0.339,0.519 0.595,0.912 0.664,1.016 -0.035,0.291 -0.083,0.781 -0.083,1.583 0,2.56 0.576,7.238 4.278,10.939 1.969,1.97 3.269,4.46 4.119,6.721 -0.728,-0.165 -1.432,-0.354 -2.106,-0.563 l 0,0 z"
   id="path71"
   style="fill:#ffcb05;fill-rule:evenodd" />
	<path
   clip-rule="evenodd"
   d="m 225.01409,184.67008 c 0.059,0.409 0.119,1.011 0.119,1.905 0,4.612 -1.818,14.501 -15.895,21.887 -9.324,4.892 -16.088,4.313 -20.546,2.474 -0.342,-2.577 -0.824,-5.077 -1.679,-7.282 -0.161,-3.827 -6.036,-15.219 -7.841,-17.025 0,0 -0.112,-0.137 -0.202,-0.247 6.834,-2.058 9.787,-5.006 10.335,-5.608 0.735,-0.429 1.469,-0.81 2.175,-1.161 -0.384,0.516 -0.646,1.13 -0.646,1.874 0,2.943 3.503,4.923 3.65,5.005 l 0.582,0.324 c 0,0 0.832,-1.224 1.189,-1.749 -0.076,0.815 -0.143,1.662 -0.143,2.427 0,0.736 0.496,1.614 2.85,1.614 1.641,0 5.941,-0.685 7.936,-1.915 0.32,0.687 0.727,1.305 1.35,1.7 1.852,1.174 4.578,0.405 8.316,-2.322 0.745,-0.032 4.317,-0.268 8.45,-1.901 l 0,0 z"
   id="path73"
   style="fill:#a54686;fill-rule:evenodd" />
	<path
   clip-rule="evenodd"
   d="m 166.85509,190.53308 c 0,-0.55 0.053,-1.103 0.169,-1.655 l 0.081,-0.383 -0.276,-0.279 c -0.123,-0.125 -2.038,-2.121 -2.038,-5.23 0,-1.629 0.525,-3.562 2.105,-5.694 4.033,-5.435 6.754,-7.918 7.624,-8.654 0.726,0.336 6.444,3 6.696,3.118 0.196,0.225 6.888,7.898 7.01,8.04 -0.274,0.308 -3.002,3.179 -9.659,5.188 -0.385,-0.049 -1.021,-0.052 -1.331,0.514 -0.082,0.153 -0.121,0.309 -0.121,0.467 0,0.577 0.502,1.171 1.027,1.697 1.528,1.527 6.034,10.427 7.159,14.638 -2.788,-1.74 -9.042,-5.231 -12.748,-4.14 -0.822,0.243 -1.42,0.758 -1.908,1.393 -1.178,-1.461 -3.79,-5.125 -3.79,-9.02 l 0,0 z"
   id="path75"
   style="fill:#fed09e;fill-rule:evenodd" />
	<path
   clip-rule="evenodd"
   d="m 220.72709,170.66408 c 2.555,4.206 8.191,7.336 10.502,8.476 -5.412,4.836 -12.469,5.78 -14.412,5.952 l -2.51,-6.848 -1.369,0.502 2.51,6.845 c -2.986,2.13 -5.199,2.847 -6.418,2.073 -0.541,-0.341 -0.887,-0.976 -1.109,-1.74 0.002,-0.024 0.025,-0.044 0.025,-0.068 v -6.416 l -1.439,-0.144 c -0.072,0.356 -0.381,2 -0.381,3.863 0,0.86 0.1,1.753 0.283,2.603 -0.582,0.574 -3.752,1.626 -6.559,1.852 -1.611,0.129 -2.217,-0.1 -2.311,-0.201 0.029,-2.018 0.521,-5.097 0.525,-5.127 l -1.32,-0.524 c 0,0 -1.537,2.257 -2.105,3.092 -0.838,-0.589 -2.35,-1.848 -2.35,-3.366 0,-1.898 3.391,-2.692 3.426,-2.7 l 0.572,-0.126 0.002,-0.586 c 0,-0.446 -0.211,-0.82 -0.574,-1.029 -1.201,-0.687 -4.486,0.957 -6.681,2.21 -0.005,-0.008 -0.011,-0.015 -0.017,-0.023 0.202,-0.176 0.371,-0.324 0.371,-0.324 l -7.276,-8.347 -7.132,-3.321 c -0.189,-0.455 -0.252,-0.825 -0.264,-1.085 l 9.717,-1.088 0.18,-0.18 c 4.316,-4.316 7.076,-6.546 8.658,-7.684 -0.809,2.132 -2.287,5.482 -4.186,7.381 -1.104,1.102 -1.585,1.918 -1.585,2.692 0,0.042 0,0.084 0.004,0.126 0.067,1.018 0.925,1.668 2.006,2.493 l 2.267,1.919 c 1.008,1.008 2.037,1.401 3.059,1.168 1.986,-0.452 2.977,-3.125 3.082,-3.429 0,0 2.955,-5.123 4.568,-7.923 0,3.312 0,9.659 0,9.659 0,0.746 0,3.014 1.57,3.55 1.885,0.642 4.68,-2.057 6.441,-4.07 0,0.482 0,2.824 0,2.824 l 3.459,-3.458 c 0,0 0,-0.103 0,-0.192 0.002,0.004 0.127,0.41 0.127,0.41 l 0.287,0.138 c 3.055,1.465 5.078,1.593 6.184,0.393 0.062,-0.07 0.118,-0.145 0.173,-0.222 l 0,0 z"
   id="path77"
   style="fill:#ffffff;fill-rule:evenodd" />
	<path
   clip-rule="evenodd"
   d="m 193.87309,155.04908 c -1.117,0.657 -4.21,2.756 -10.104,8.628 -0.413,0.046 -6.734,0.755 -8.573,0.96 0.995,-2.03 4.104,-6.875 13.002,-12.682 5.244,0.336 5.638,1.256 5.64,1.265 v 0.001 c 0,0.109 -0.266,0.421 -0.57,0.613 l 0.605,1.215 0,0 z"
   id="path79"
   style="fill:#ffffff;fill-rule:evenodd" />
	<path
   clip-rule="evenodd"
   d="m 203.12109,157.61108 -6.521,11.341 c -0.26,0.694 -1.07,2.383 -2.088,2.614 -0.504,0.114 -1.076,-0.148 -1.707,-0.778 l -2.414,-2.049 c -0.757,-0.576 -1.414,-1.076 -1.436,-1.432 -0.015,-0.227 0.173,-0.706 1.157,-1.69 3.169,-3.168 5.159,-9.678 5.243,-9.953 l 0.215,-0.715 c 0.873,0.179 1.316,0.798 1.389,0.902 0.773,1.422 1.797,2.288 3.018,2.524 1.443,0.277 2.684,-0.445 3.144,-0.764 l 0,0 z"
   id="path81"
   style="fill:#ffffff;fill-rule:evenodd" />
	<path
   clip-rule="evenodd"
   d="m 209.76009,155.81608 0.916,0.051 0.002,-0.028 c 0.039,-0.881 0.324,-2.206 0.834,-2.758 0.719,-0.037 1.504,0.221 1.896,0.394 0.223,0.175 0.457,0.385 0.701,0.625 2.697,4.598 5.768,11.254 5.768,14.387 0,0.626 -0.123,1.113 -0.396,1.412 -0.563,0.61 -2.066,0.373 -4.203,-0.609 -0.176,-0.57 -1.355,-4.403 -1.355,-4.403 l -1.424,0.214 c 0,0 0,3.902 0,4.432 -0.104,0.104 -0.289,0.29 -0.545,0.547 0,-0.657 0,-3.471 0,-3.471 l -1.305,1.689 c -2.141,2.772 -5.113,5.509 -6.125,5.164 -0.279,-0.097 -0.582,-0.717 -0.582,-2.17 v -14.432 c 2.582,-2.419 3.572,-2.307 3.826,-2.206 0.428,0.172 0.539,0.974 0.543,1.181 l 1.449,-0.019 0,0 z"
   id="path83"
   style="fill:#ffffff;fill-rule:evenodd" />
	<path
   clip-rule="evenodd"
   d="m 198.31709,122.34808 c -1.85,1.991 -4.268,4.665 -6.34,7.178 -0.139,-2.35 -0.443,-4.554 -0.994,-6.332 -0.393,-1.268 -0.562,-2.764 -0.562,-4.355 0,-4.905 1.61,-10.727 3.245,-13.659 0.527,-0.946 0.873,-1.253 1.039,-1.352 0.344,0.576 1.244,1.375 3.773,1.375 l 2.189,-0.129 c 1.879,-0.146 4.508,-0.349 7.268,-0.243 -0.635,0.228 -1.236,0.592 -1.777,1.133 l 0.174,-0.129 c -0.41,0.216 -10.035,5.377 -10.035,11.931 0,2.558 0.523,4.019 1.602,4.466 0.14,0.059 0.279,0.096 0.418,0.116 l 0,0 z"
   id="path85"
   style="fill:#ffffff;fill-rule:evenodd" />
	<path
   clip-rule="evenodd"
   d="m 190.99309,147.46208 c -0.096,0.037 7.57,-3.198 10.683,-7.651 0.48,-0.349 7.822,-5.712 10.355,-9.897 0.725,0.311 1.611,0.289 2.514,-0.086 1.17,-0.484 2.416,-1.558 3.492,-3.3 -1.148,2.729 -2.773,5.747 -5.045,9.031 -0.143,0.226 -2.434,3.925 -2.434,7.521 0,1.223 0.266,2.433 0.971,3.492 0.559,1.008 1.031,2.059 1.365,2.987 h -0.002 c 0.211,0.593 0.51,1.554 0.533,2.178 l 0,0 c 0.004,0.074 -0.018,0.121 -0.023,0.188 -0.863,-0.281 -2.34,-0.573 -3.52,0.164 -0.533,0.335 -0.924,0.834 -1.186,1.478 -0.125,-0.09 -0.229,-0.201 -0.383,-0.262 -1.387,-0.559 -3.344,0.451 -5.98,3.089 0.043,-0.041 -0.977,0.77 -2.092,0.547 -0.768,-0.153 -1.451,-0.772 -2.033,-1.837 -0.422,-0.664 -1.463,-1.563 -2.973,-1.633 0.014,-0.085 0.061,-0.158 0.061,-0.248 0,-0.117 -0.014,-0.237 -0.047,-0.361 -0.313,-1.237 -2.266,-1.934 -6.049,-2.263 0.179,-0.307 1.727,-2.705 1.793,-3.137 l 0,0 z"
   id="path87"
   style="fill:#ffffff;fill-rule:evenodd" />
	<path
   clip-rule="evenodd"
   d="m 242.17409,117.76708 c 0,0 4.916,1.638 11.652,1.638 2.205,0 5.92,0.458 9.945,1.097 l 1.467,1.066 1.709,-0.537 c 7.367,1.283 14.725,2.915 15.098,3.289 0.637,0.638 -4.461,2.641 -8.012,6.191 0,0 -8.557,-4.916 -30.039,-10.378 l -1.82,-2.366 0,0 z"
   id="path89"
   style="fill:#297aa9;fill-rule:evenodd" />
	<path
   clip-rule="evenodd"
   d="m 150.95409,92.812079 c -1.341,-2.514 -2.026,-4.68 -2.026,-6.388 0,-0.83 0.162,-1.55 0.487,-2.149 0.483,-0.89 1.268,-1.387 1.947,-1.67 -0.137,0.518 -0.236,1.062 -0.236,1.513 0,0.123 0.007,0.237 0.019,0.343 0.114,0.957 0.663,1.284 0.981,1.394 0.121,0.042 0.255,0.072 0.412,0.079 0.115,2.064 0.295,5.31 0.53,9.539 -0.585,-0.528 -1.288,-1.361 -2.114,-2.661 l 0,0 z m 5.639,-4.841 c 0.284,0.269 0.512,0.569 0.683,0.903 0.545,1.068 0.447,2.333 0.199,3.36 l -0.043,-0.146 -0.499,1.515 c -0.152,-2.516 -0.267,-4.425 -0.34,-5.632 l 0,0 z m -0.652,-3.959 c 0.597,-0.445 0.354,-0.228 1.203,-1.055 1.135,0.707 4.858,5.008 4.858,7.386 0,3.301 3.116,6.648 3.247,6.791 12.476,10.533001 12.607,14.206001 12.607,14.318001 0,0 0,0.001 0,0.002 h 0.011 c 0,0.029 -0.015,0.048 -0.015,0.078 l 1.447,0.128 c 0.005,-0.03 0.007,-0.084 0.007,-0.128 h 0.002 c 0,-1.167 0.314,-2.017 0.959,-2.589 0.105,0.165 0.238,0.331 0.404,0.497 l 0.603,0.605 0.502,-0.693 c 0.193,-0.264 0.422,-0.501 0.623,-0.683 0.015,0.125 0.031,0.257 0.031,0.257 l 0.297,3.684 c 0.149,1.417 0.383,3.661 0.383,5.158 0,0.647 -0.053,1.119 -0.167,1.361 h -0.032 v 0.041 c -0.013,0.005 -0.025,0.011 -0.038,0.016 -6.84,2.897 -9.709,1.359 -9.993,1.187 -9.806,-11.252 -14.074,-23.793001 -14.707,-25.773001 0.442,-0.928 1.659,-3.907 0.402,-6.379 -0.536,-1.054 -1.3,-1.861 -2.55,-2.416 l -0.084,-1.793 0,0 z"
   id="path91"
   style="fill:#fed09e;fill-rule:evenodd" />
	<path
   clip-rule="evenodd"
   d="m 181.38409,107.59408 c 0.293,-1.351 3.629,-3.17 6.046,-4.115 0.438,0.169 3.613,1.39 4.552,1.752 -0.025,0.083 -0.055,0.174 -0.086,0.27 -1.4,2.977 -2.674,7.624 -2.901,11.965 -0.7,0.701 -1.466,1.468 -1.66,1.661 -0.345,0 -1.626,0 -2.893,0 0.079,-0.418 0.121,-0.91 0.121,-1.509 0,-1.302 -0.164,-3.028 -0.389,-5.162 l -0.29,-3.532 c 0,-0.396 0,-1.601 -0.902,-1.892 -0.57,-0.183 -1.126,0.149 -1.602,0.587 0.002,-0.008 0.002,-0.018 0.004,-0.025 l 0,0 z"
   id="path93"
   style="fill:#ffffff;fill-rule:evenodd" />
	<path
   clip-rule="evenodd"
   d="m 189.14309,136.06608 c 1.186,-2.899 8.02,-10.371 11.322,-13.883 0.266,0.443 0.619,0.83 1.104,1.132 0.322,0.331 1.021,0.768 2,0.588 0.164,-0.03 0.332,-0.203 0.502,-0.265 -0.02,0.185 -0.074,0.392 -0.074,0.569 0,0.361 0.035,0.703 0.111,1.02 0.189,0.766 0.648,1.334 1.271,1.734 0.164,0.257 1.115,1.609 2.766,1.399 0.828,-0.107 1.639,-0.644 2.439,-1.529 -0.002,0.083 -0.023,0.178 -0.023,0.259 0,0.73 0.109,1.36 0.361,1.838 -2.211,3.967 -10.055,9.672 -10.139,9.731 l -0.104,0.076 -0.07,0.104 c -8.213,12.079 -34.404,10.442 -34.667,10.425 l -0.573,-0.039 -0.171,0.546 c -0.708,2.242 -4.84,1.722 -7.059,1.442 l -1.349,-0.131 c -0.737,-0.194 -4.213,-3.919 -5.16,-7.341 -0.384,-1.389 -0.252,-2.422 0.395,-3.068 2.777,-2.777 8.752,0.109 8.812,0.139 l 1.237,0.607 c 0,0 -0.379,-2.656 -0.512,-3.594 2.43,0.591 2.862,3.557 2.88,3.698 l 0.064,0.515 5.626,1.169 0.252,-0.163 c 11.476,-7.447 17.904,-6.547 17.966,-6.537 l 0.568,0.089 0.225,-0.53 0,0 z"
   id="path95"
   style="fill:#fed09e;fill-rule:evenodd" />
	<path
   clip-rule="evenodd"
   d="m 198.45709,120.72608 c -0.07,-0.029 -0.705,-0.213 -0.705,-2.959 0,-4.93 6.912,-9.286 8.793,-10.38 1.348,1.313 5.932,5.375 12.676,7.259 l 0.188,0.053 c -0.172,9.155 -3.459,12.972 -5.422,13.786 -0.709,0.292 -1.326,0.246 -1.701,-0.127 -0.207,-0.208 -0.305,-0.612 -0.305,-1.168 0,-0.864 0.283,-2.152 0.672,-3.566 0.98,-1.984 1.949,-4.57 2.912,-7.834 l -1.361,-0.513 c -0.691,1.493 -2.17,4.877 -3.014,8.018 -1.516,2.957 -2.668,3.545 -3.223,3.621 -0.832,0.113 -1.379,-0.75 -1.4,-0.787 l -0.107,-0.176 -0.188,-0.098 c -0.396,-0.197 -0.635,-0.506 -0.748,-0.972 -0.053,-0.217 -0.078,-0.455 -0.078,-0.713 0,-0.48 0.109,-1.037 0.262,-1.621 1.727,-1.708 3.496,-4.991 5.293,-9.996 l -1.275,-0.673 c -0.523,0.719 -4.115,5.788 -5.313,9.961 -0.461,0.396 -0.832,0.574 -1.07,0.625 -0.484,0.104 -0.744,-0.147 -0.771,-0.176 l -0.072,-0.075 -0.102,-0.068 c -0.648,-0.376 -0.986,-0.866 -1.072,-1.545 -0.014,-0.112 -0.02,-0.225 -0.02,-0.342 0,-0.369 0.074,-0.771 0.191,-1.19 0.053,-0.141 0.105,-0.285 0.158,-0.428 1.07,-3.024 4.527,-6.867 6.07,-8.358 l 0.533,-0.515 -0.523,-0.524 c -0.486,-0.485 -1.092,-0.669 -1.709,-0.519 -2.305,0.563 -4.689,6.434 -5.895,9.833 -0.006,0.016 -0.014,0.035 -0.018,0.051 -0.275,0.779 -0.488,1.414 -0.619,1.822 -0.314,0.268 -0.791,0.398 -1.037,0.294 l 0,0 z m 9.311,-14.197 c 2.691,-1.793 8.5,-0.22 10.492,2.796 0.029,0.067 0.609,0.837 0.637,0.91 0.002,0.012 0.004,0.024 0.006,0.035 0.004,0.004 0.008,0.008 0.01,0.012 0.213,0.585 0.383,1.36 0.459,2.387 -0.072,0.156 -0.154,0.292 -0.234,0.411 -5.796,-1.744 -9.929,-5.21 -11.37,-6.551 l 0,0 z"
   id="path97"
   style="fill:#ffffff;fill-rule:evenodd" />
	<path
   clip-rule="evenodd"
   d="m 209.28609,91.845079 c 0.029,2.868 2.164,4.482 3.844,5.17 -0.064,0.236 -0.1,0.355 -0.131,0.473 -0.234,0.234 -2.727,2.726001 -3.086,3.085001 -0.557,0 -10.035,0 -10.59,0 -0.182,-0.181 -0.408,-0.408 -0.758,-0.759001 0.633,-0.541 2.871,-2.441 5.395,-4.585 1.84,-1.332 3.303,-2.757 3.615,-3.073 l -0.225,-0.243 c 0.605,0.254 1.146,0.285 1.627,0.095 0.113,-0.046 0.215,-0.101 0.309,-0.163 l 0,0 z m -2.965,-0.532 c -0.537,0.457 -1.785,1.517 -2.807,2.385 -2.166,1.626 -4.564,2.971 -5.951,2.485 -0.967,-0.341 -1.379,-0.59 -1.57,-0.74 0.078,-0.079 1.736,-1.738 1.736,-1.738 0,0 -2.186,0 -2.559,0 -0.02,-0.076 -0.055,-0.123 -0.055,-0.228 0,-0.373 0.109,-0.892 0.27,-1.297 l -1.193,-0.785 c -0.186,0.186 -0.461,0.404 -0.721,0.388 -0.191,-0.012 -0.328,-0.123 -0.418,-0.21 -0.039,-0.254 -0.545,-3.563 -0.963,-6.308 0.684,-0.017 1.377,-0.16 2.029,-0.36 0.066,0.137 0.105,0.34 0.105,0.642 0,1.089 1.287,1.288 1.287,1.288 l -0.424,0.422 h 0.51 c 0.92,-0.47 1.07,-1.073 1.41,-2.161 0.293,-0.948 1.1,-1.612 1.303,-1.769 3.896,-0.314 4.123,0.628 4.494,2.368 0.275,1.287 0.619,2.891 2.207,4.479 0.464,0.461 0.9,0.841 1.31,1.139 l 0,0 z"
   id="path99"
   style="fill:#fed09e;fill-rule:evenodd" /></g>
</svg>