<?xml version="1.0" encoding="UTF-8"?>
<!DOCTYPE svg PUBLIC "-//W3C//DTD SVG 1.1//EN" "http://www.w3.org/Graphics/SVG/1.1/DTD/svg11.dtd">
<!-- Creator: CorelDRAW -->
<svg xmlns="http://www.w3.org/2000/svg" xml:space="preserve" width="496mm" height="331mm" style="shape-rendering:geometricPrecision; text-rendering:geometricPrecision; image-rendering:optimizeQuality; fill-rule:evenodd; clip-rule:evenodd"
viewBox="0 0 496 331">
 <defs>
  <style type="text/css">
   <![CDATA[
    .str0 {stroke:white;stroke-width:0.0762}
    .str10 {stroke:#70614E;stroke-width:0.5;stroke-linejoin:bevel}
    .str1 {stroke:#70614E;stroke-width:0.5;stroke-linecap:round;stroke-linejoin:round}
    .str11 {stroke:#C2C1C1;stroke-width:0.5;stroke-linecap:round;stroke-linejoin:round}
    .str9 {stroke:#A92926;stroke-width:0.5;stroke-linecap:round;stroke-linejoin:round}
    .str3 {stroke:#007CC3;stroke-width:0.6;stroke-linecap:round;stroke-linejoin:round}
    .str8 {stroke:#0A0B0C;stroke-width:0.6;stroke-linecap:round;stroke-linejoin:round}
    .str7 {stroke:#1F1A17;stroke-width:0.6;stroke-linecap:round;stroke-linejoin:round}
    .str2 {stroke:#70614E;stroke-width:0.6;stroke-linecap:round;stroke-linejoin:round}
    .str4 {stroke:#0F488E;stroke-width:0.6;stroke-linecap:round;stroke-linejoin:round}
    .str6 {stroke:#A92926;stroke-width:0.6;stroke-linecap:round;stroke-linejoin:round}
    .str5 {stroke:#707477;stroke-width:0.8;stroke-linecap:round;stroke-linejoin:round}
    .fil4 {fill:none}
    .fil3 {fill:#007CC3}
    .fil6 {fill:#0A0B0C}
    .fil8 {fill:#1F1A17}
    .fil10 {fill:#96AEBE}
    .fil5 {fill:#DEDEDD}
    .fil2 {fill:#F8C300}
    .fil0 {fill:white}
    .fil1 {fill:#A92926}
    .fil7 {fill:#D52E26}
    .fil9 {fill:#DA2724}
    .fil11 {fill:#EFF0F2}
   ]]>
  </style>
 </defs>
 <g id="Слой_x0020_1">
  <metadata id="CorelCorpID_0Corel-Layer"/>
  <rect class="fil0 str0" width="496" height="331"/>
  <path class="fil1 str1" d="M248.001 115.31c13.8455,0 25.0737,1.9741 25.0737,4.4083 0,2.4343 -11.2282,4.4084 -25.0737,4.4084 -13.8454,0 -25.0736,-1.9741 -25.0736,-4.4084 0,-2.4342 11.2282,-4.4083 25.0736,-4.4083z"/>
  <path class="fil2 str2" d="M199.068 212.997c5.0516,0.3212 0.9318,-6.5377 5.195,-11.2973 -4.0815,-1.3348 -3.8518,2.4205 -7.2098,2.8877l2.0148 8.4096z"/>
  <path class="fil3 str3" d="M307.875 143.391c1.6597,-2.4714 5.1023,-3.4742 2.2733,-6.7478l0 0c0.9978,1.108 0.593,2.6991 -0.9273,3.7233l-1.346 3.0245z"/>
  <path class="fil3 str3" d="M297.196 156.236l9.3602 -0.0115c-0.2605,-0.8356 -0.3615,-1.8721 -0.3596,-3.288 0.0019,-1.2532 -0.0794,-2.271 -0.2216,-3.1111l0.0007 0.0002c-0.4197,-2.4887 -1.377,-3.4072 -2.3211,-4.2162 1.3496,-2.4435 -0.2435,-4.2616 1.6868,-4.2379 4.4904,0.0552 6.4764,-3.0659 4.7171,-4.8238 -0.8313,-0.8246 -2.4905,-1.3485 -5.1116,-1.1007 -0.0407,0.0038 -0.0811,0.0083 -0.121,0.0133l0.0016 -0.0039c-4.7835,0.6981 -5.6904,5.0712 -7.4311,6.6756 -1.9126,1.7629 -7.9052,4.6927 -0.4548,13.7319 0.0898,0.1089 0.1745,0.2338 0.2544,0.3721z"/>
  <path class="fil3 str3" d="M306.286 202.01c0.5978,-1.7341 0.9813,-3.754 1.0276,-5.8106 0.127,-5.644 -0.8783,-5.1935 -1.052,-7.364 -0.142,-1.7735 2.9582,-2.4073 5.0791,-5.5133 0.0475,-0.0697 0.0931,-0.1407 0.138,-0.212l0.032 -0.0518c0.0436,-0.0706 0.0855,-0.1418 0.1266,-0.2139 2.257,-4.0223 -0.9277,-8.8953 -5.6027,-12.5279l0 -0.0001c-0.3568,1.8087 -2.9612,8.7581 -6.7347,11.9257 -2.0426,1.7148 -1.6758,7.0121 -0.789,10.4148 0.5903,2.2648 0.3944,3.0356 0.2946,5.2059 -0.0742,1.6147 -0.3964,2.8629 -0.7937,3.9319l8.2742 0.2153z"/>
  <path class="fil4 str4" d="M306.036 170.31c-0.3515,1.7977 -2.9579,8.7612 -6.7362,11.9329 -2.0426,1.7148 -1.6758,7.0121 -0.789,10.4148 0.5903,2.2648 0.3944,3.0356 0.2946,5.2059 -0.0572,1.2448 0.1346,2.2029 0.4264,3.0612"/>
  <path class="fil2 str2" d="M257.495 235.205l7.5997 9.5568 3.3555 -11.828c0.4403,-4.1007 -1.0998,-4.4044 -3.3443,-2.6426 -1.1975,0.94 -1.8081,-2.4717 -3.4174,-1.6076 -1.0862,0.5833 -0.0609,3.2601 -0.8732,4.0478 -1.0793,1.0466 -4.4276,-1.7161 -3.3203,2.4736z"/>
  <path class="fil4 str2" d="M264.931 232.458c-1.6695,1.1793 -3.0026,3.1757 -4.0932,5.7608"/>
  <path class="fil2 str2" d="M272.375 251.841l9.9841 1.3424 -0.5873 10.3197c-0.1424,3.4655 -2.3524,5.4866 -4.0324,3.5249 -1.5394,-1.7975 -0.4302,-4.0098 -2.9608,-3.7303 -3.6249,0.4003 -0.3393,-3.9835 -2.2959,-4.0645 -2.0631,-0.0854 -2.4312,-0.6837 -1.813,-3.2332 0.4385,-1.8084 1.2889,-3.6904 1.7053,-4.159z"/>
  <path class="fil2 str2" d="M272.385 251.836l1.84 -4.7104c2.2319,0.3957 4.8785,0.3703 6.7008,1.0902 3.6304,1.4342 1.8416,2.8583 3.1732,3.3207 3.0782,1.069 4.5583,1.7093 4.193,4.013 -0.4696,2.9613 0.8263,4.6472 -0.0972,5.9309 -0.8394,1.1666 -2.1973,0.2215 -3.8357,0.0737 -0.9494,-0.0856 -2.7548,1.2527 -3.8,0.8079 -1.1028,-0.4693 -0.3646,-2.816 -1.0063,-3.3777 -0.8198,-0.7174 -2.0754,0.795 -2.8997,0.1228 -0.8205,-0.6691 -0.0769,-2.9951 -0.7167,-4.3709 -0.7482,-1.609 -2.9283,1.7328 -3.5514,-2.9002z"/>
  <path class="fil4 str2" d="M273.552 248.847c5.8621,1.3359 9.1718,4.3735 11.05,8.3658"/>
  <polyline class="fil4 str2" points="277.548,253.382 277.823,250.316 280.246,250.311 "/>
  <polyline class="fil4 str2" points="280.329,256.412 280.536,252.013 282.487,252.386 "/>
  <path class="fil2 str2" d="M315.069 196.218l0.8289 -1.93c-1.5523,-0.623 -2.758,0.4052 -0.8289,1.93z"/>
  <path class="fil2 str2" d="M315.862 194.372l-0.7593 1.7534c2.2183,1.034 2.9248,-0.8075 0.7593,-1.7534z"/>
  <path class="fil2 str2" d="M311.488 161.53l0.0067 -4.2237c-2.9511,0.1257 -4.2283,3.3574 -0.0067,4.2237z"/>
  <path class="fil2 str2" d="M311.494 157.452l-0.0062 3.9135c4.5964,0.6624 5.2057,-4.0273 0.0062,-3.9135z"/>
  <path class="fil2 str2" d="M312.295 123.252l1.8721 -2.2214c-1.8043,-1.4476 -4.0436,-0.0842 -1.8721,2.2214z"/>
  <path class="fil2 str2" d="M314.085 121.127l-1.709 2.0157c2.5207,2.259 4.195,0.1056 1.709,-2.0157z"/>
  <path class="fil2 str2" d="M322.855 234.612l18.5723 5.186c0.9643,0.7838 0.5556,3.1102 1.1024,3.6799 1.8853,1.9646 2.2559,3.7313 1.5373,4.7761 -0.4911,0.7142 -2.8635,0.3246 -4.7089,-0.2288 -2.1059,-0.6314 -3.9653,0.1194 -4.7072,-0.077 -1.6802,-0.4447 -1.7382,-2.0176 -3.6687,-3.762 -1.084,-0.9796 -2.3847,-0.0091 -3.2976,-1.5599 -1.5474,-2.6286 -1.5179,-4.334 -4.8296,-8.0143z"/>
  <path class="fil4 str2" d="M338.803 245.171c-3.8765,-3.2377 -9.908,-7.0225 -15.948,-10.5596"/>
  <polyline class="fil4 str2" points="338.35,242.27 334.939,242.221 335.475,244.953 "/>
  <polyline class="fil4 str2" points="330.932,241.881 331.025,239.607 333.252,239.839 "/>
  <path class="fil2 str2" d="M322.855 234.612l0.4704 -1.1787c4.0018,-0.1571 4.9291,-1.6483 6.8454,-2.8929 2.7571,-1.7905 1.7566,2.1449 2.9106,2.1928 1.3229,0.0549 2.4932,-2.1786 3.4389,-2.6444 2.5879,-1.2747 1.968,2.2344 3.1264,2.2741 1.2475,0.0428 2.0552,-1.3456 3.6313,-1.4055 1.1336,-0.0431 0.6351,1.498 1.3405,2.0296 0.6973,0.5255 2.6677,0.1853 2.5614,1.5041 -0.1252,1.5533 -2.7411,1.5311 -3.0764,2.6478 -0.4609,1.5348 -0.1502,3.5123 -2.5569,2.0047 -3.4381,-2.1537 -2.7968,3.6187 -6.1874,0.0065 -2.6967,-2.8729 -4.3644,1.2765 -5.979,-0.0688 -2.5361,-2.1131 -2.2025,-2.2165 -6.5252,-4.4693z"/>
  <path class="fil4 str2" d="M323.089 234.035c3.4264,1.215 11.2722,1.4305 17.6128,1.1776"/>
  <polyline class="fil4 str2" points="338.141,233.369 335.377,235.315 337.425,237.26 "/>
  <polyline class="fil4 str2" points="330.359,233.164 329.181,235.059 330.308,236.697 "/>
  <path class="fil2 str2" d="M313.509 224.865l1.4841 9.4673c2.983,-0.0206 2.8461,-4.9256 5.3976,-7.2289 1.1034,-0.9961 1.4839,-2.5644 0.4366,-3.1133 -1.633,-0.8559 -2.9693,1.9782 -4.9337,-0.1521 -0.6836,-0.7412 -1.6999,-0.8722 -2.3846,1.027z"/>
  <path class="fil2 str2" d="M309.733 212.085l0.9468 -1.4202c3.3646,-0.3754 11.1403,-2.2699 13.3769,-1.6433 2.7979,0.7838 0.0992,1.9941 5.123,5.8267 1.851,1.4121 1.6751,5.6781 1.0306,7.4373 -0.8057,2.1993 -2.6437,2.0977 -3.0492,0.9854 -1.3133,-3.6023 -3.1351,1.8173 -3.8006,-2.8261 -0.5331,-3.7198 -3.1013,1.2651 -4.1204,-2.0692 -1.7085,-5.59 -2.8523,0.194 -4.2993,-2.5144 -1.7279,-3.2342 -2.1625,-3.6633 -5.2078,-3.7762z"/>
  <path class="fil4 str2" d="M310.701 210.654c6.596,-1.1027 11.7546,2.0261 14.6624,6.4496"/>
  <polyline class="fil4 str2" points="320.492,214.876 319.02,211.623 320.863,211.535 "/>
  <polyline class="fil4 str2" points="316.548,213.159 315.795,210.642 316.873,210.19 "/>
  <polyline class="fil4 str2" points="324.706,214.868 322.568,213.892 323.551,216.882 "/>
  <path class="fil2 str2" d="M322.671 201.104c2.3343,-5.9039 0.1414,-7.2599 -1.1185,-4.7323 -0.7256,1.4558 -2.8878,-0.5797 -3.3056,2.0119 -0.5796,3.5951 -2.2758,0.308 -2.1676,4.9253l6.5917 -2.2049z"/>
  <path class="fil2 str2" d="M311.607 208.988l-0.9008 1.689c1.3669,-0.7818 2.8319,-1.9003 4.0917,-1.7714 3.9603,0.4051 2.1243,-2.8365 6.1386,-1.1959 3.5641,1.4566 2.2576,-3.9123 6.3097,-0.0443 2.1424,2.0451 2.8894,-0.8824 3.1545,-2.776 0.1684,-1.2029 2.6246,-1.9703 2.5079,-3.6071 -0.1626,-2.28 -3.9089,0.2628 -4.2538,-2.1016 -0.2382,-1.6328 -2.0068,-1.803 -2.7848,-0.5455 -3.3216,5.3687 -2.883,-3.4927 -5.7333,0.9451 -2.0134,3.1348 -4.8399,-1.263 -4.7798,3.9053 0.0344,2.958 0.1391,2.5095 -3.7499,5.5024z"/>
  <path class="fil4 str2" d="M311.278 209.605c7.1797,-3.0426 8.2087,-7.1309 15.6551,-6.3565"/>
  <polyline class="fil4 str2" points="321.463,206.404 319.096,204.931 321.095,202.564 "/>
  <polyline class="fil4 str2" points="324.876,204.149 323.825,203.23 324.526,202.923 "/>
  <path class="fil2 str2" d="M319.915 176.354l1.8169 -2.3052c-1.6481,-1.1332 -3.5989,-0.1326 -1.8169,2.3052z"/>
  <path class="fil2 str2" d="M317.605 175.87l0.7016 0.5102c15.4422,-23.1107 8.6277,-22.1361 7.88,-20.6561 -1.7446,3.453 -2.6309,0.2383 -3.6282,2.7905 -1.0753,2.7517 -2.0687,0.3089 -2.2987,2.7287 -0.4479,4.7124 -3.0641,0.607 -2.6192,4.2573 0.6977,5.7245 0.2003,7.7144 -0.0355,10.3694z"/>
  <path class="fil2 str2" d="M317.605 175.87l0.7289 0.4733c1.4381,-3.436 2.4625,-2.9599 5.0324,-2.689 3.7462,0.3949 0.7138,-2.8003 2.7268,-2.6646 1.3172,0.0888 1.2654,1.1713 3.3386,1.2524 2.4935,0.0975 0.7777,-3.7786 1.5535,-4.2347 1.1901,-0.6998 2.0922,1.243 3.4423,0.7548 2.3293,-0.8424 -1.4777,-2.9455 1.1084,-3.4118 2.2432,-0.4045 2.5712,-3.4357 -1.4212,-2.5323 -1.9276,0.4362 -1.3414,-2.7792 -3.9234,-1.4106 -2.9479,1.5625 -2.8047,-1.0021 -4.0604,0.7322 -3.1589,4.363 -3.0897,0.6153 -4.4227,2.5811 -2.7013,3.9834 -0.692,5.1516 -4.1032,11.1492z"/>
  <path class="fil2 str2" d="M321.659 174.157l-1.6544 2.0832c2.304,1.8166 3.926,-0.3968 1.6544,-2.0832z"/>
  <path class="fil2 str2" d="M318.218 187.025l9.189 -2.0817c0.2084,-1.1919 1.0203,-1.7768 1.3355,-2.4599 1.9389,-4.2014 -3.3642,-0.1085 -1.0108,-4.3342 1.0396,-1.8667 -0.8761,-2.949 -1.6613,-1.8818 -3.1637,4.2999 -3.1073,-1.7743 -4.9429,1.9357 -1.9668,3.9751 -3.935,4.2219 -2.9095,8.8219z"/>
  <path class="fil4 str2" d="M325.277 179.299c-2.5317,2.7962 -3.6029,4.6089 -4.785,7.2109"/>
  <path class="fil2 str2" d="M314.127 189.569l0.2868 1.1472c1.471,-0.1262 2.2801,-0.1296 3.6743,0.8566 1.8982,1.3427 1.4382,-1.5079 4.9388,0.8385 2.9927,2.006 3.3088,-1.5448 5.2326,-1.5182 4.3734,0.0605 2.6523,-2.9401 0.968,-3.2795 -2.6213,-0.5283 -0.2596,-3.7782 -3.2021,-2.8078 -6.3402,2.091 -2.4763,-1.426 -5.5565,-0.3534 -2.5134,0.8752 -2.4932,4.2465 -6.3419,5.1166z"/>
  <path class="fil4 str2" d="M314.298 190.133c5.1027,-1.2692 7.2844,-2.3866 13.0114,-1.1108"/>
  <polyline class="fil4 str2" points="320.803,189.279 319.16,188.885 320.211,188.097 "/>
  <polyline class="fil4 str2" points="325.27,189.345 324.022,188.491 325.139,188.228 "/>
  <path class="fil2 str2" d="M296.932 212.997c-5.0516,0.3212 -0.9318,-6.5377 -5.195,-11.2973 4.0815,-1.3348 3.8518,2.4205 7.2098,2.8877l-2.0148 8.4096z"/>
  <path class="fil2 str2" d="M303.509 170.201l0.3428 10.2896c0.9059,-0.6277 5.5481,-14.5637 -0.3428,-10.2896z"/>
  <path class="fil4 str2" d="M330.132 164.992c-5.9346,4.8287 -8.1475,3.0393 -12.1764,11.1252"/>
  <polyline class="fil4 str2" points="329.27,164.361 328.481,166.235 330.01,166.087 "/>
  <polyline class="fil4 str2" points="326.26,166.494 323.886,168.988 327.101,169.143 "/>
  <path class="fil2 str2" d="M306.788 151.49l15.172 -4.8694c7.7545,4.3667 1.0003,3.2914 3.5206,5.224 0.8657,0.6638 1.1175,3.6972 -2.8831,1.9593 -3.7349,-1.6226 -1.1567,2.1772 -5.0817,1.5849 -6.3654,-0.9606 -1.9746,-5.5302 -10.7278,-3.8988z"/>
  <path class="fil2 str2" d="M306.172 151.78l-0.0563 -1.5201c2.4139,-0.9906 3.9996,-3.6134 5.3757,-6.501 0.8083,-1.696 1.7456,1.5857 4.514,-3.0519 1.2617,-2.1135 1.7833,0.1982 5.4888,-1.6528 2.5333,-1.2654 2.5386,1.6785 5.8236,1.2245 5.2942,-0.7317 4.3335,5.1273 0.9344,4.9013 -5.8535,-0.3892 0.112,5.9101 -5.8261,4.3362 -8.4979,-2.2524 -0.6801,4.8861 -7.4892,3.2445 -5.0256,-1.2117 -6.1499,-1.1647 -8.7649,-0.9807z"/>
  <path class="fil4 str2" d="M323.935 143.205c-6.6802,-0.3945 -10.8699,6.3206 -17.7912,7.8149"/>
  <polyline class="fil4 str2" points="321.001,145.064 316.74,145.38 318.239,142.697 "/>
  <polyline class="fil4 str2" points="315.311,150.216 312.471,148.164 313.654,146.665 "/>
  <path class="fil2 str2" d="M310.906 135.261l-0.1883 -0.6343 9.7868 -4.6803c0.9056,-0.1978 1.9849,0.3631 2.8398,0.2766 3.0692,-0.3105 2.9048,-2.0364 4.7129,-2.0125 1.5562,0.0206 0.8757,2.4451 1.8679,2.7666 2.1786,0.706 2.8459,2.5395 -2.1645,2.9438 -2.9413,0.2373 -2.9362,3.0562 -6.5244,1.1876 -3.7375,-1.9464 -3.9889,-1.7369 -10.3302,0.1525z"/>
  <path class="fil4 str2" d="M319.99 132.238c1.5465,-0.0663 2.2135,0.4961 5.2155,-0.3591"/>
  <path class="fil2 str2" d="M310.685 134.595l0.2628 0.7008c5.552,-2.2571 8.3771,-2.9618 10.1946,-3.3178 2.7423,-0.5371 -0.8269,-1.9264 2.6363,-3.755 2.4815,-1.3103 -1.0007,-3.1815 0.4202,-5.6035 0.9713,-1.6556 -0.7085,-3.6194 -2.1575,-1.7386 -1.894,2.4584 -5.1206,-1.3009 -5.2645,2.2834 -0.2872,7.1548 -2.7124,1.8222 -3.8184,4.4336 -0.7856,1.8548 1.5245,4.4955 -2.2735,6.9971z"/>
  <path class="fil4 str2" d="M310.832 134.929c9.7942,-5.8995 6.8601,-7.2241 10.5502,-11.0432"/>
  <polyline class="fil4 str2" points="319.459,130.788 317.093,130.295 317.685,127.682 "/>
  <polyline class="fil4 str2" points="321.431,127.386 319.262,126.992 319.262,125.316 "/>
  <path class="fil2 str2" d="M309.691 124.5l0.733 -0.2818 -7.7149 -14.3269c-5.0763,-4.4707 -6.072,-0.7095 -5.0746,0.2605 1.8466,1.7959 0.106,3.4588 1.869,4.1083 4.1809,1.5403 -0.1772,3.2005 2.8251,3.944 4.5774,1.1336 5.8469,-0.0947 7.3624,6.2959z"/>
  <path class="fil2 str2" d="M309.693 124.482l0.7319 -0.2815c-1.7633,-8.6365 3.4455,-10.396 3.769,-12.58 0.5426,-3.6627 -3.1968,0.0277 -2.5771,-4.5715 0.6413,-4.7602 -3.6861,-0.9282 -5.0246,-4.0654 -1.1698,-2.7418 -4.1558,-3.0363 -3.5777,0.0657 0.3138,1.6838 -0.9814,2.393 -0.5211,3.9006 1.2532,4.1045 -0.1176,6.3518 1.3045,8.1246 3.3796,4.213 4.3314,4.6644 5.8951,9.4075z"/>
  <path class="fil4 str2" d="M310.031 124.369c-2.5523,-9.7774 -1.1636,-10.8283 -3.4906,-16.9463"/>
  <polyline class="fil4 str2" points="306.203,113.503 308.342,115.586 308.661,113.673 "/>
  <path class="fil4 str2" d="M306.315 109.168c0.1689,0.0563 0.2252,0.1689 0.3378,0.2252l0.7319 0.563 0.3007 -0.9573"/>
  <path class="fil4 str4" d="M304.827 135.456c-4.7835,0.6981 -5.6904,5.0712 -7.4311,6.6756"/>
  <path class="fil4 str4" d="M301.264 140.554c-0.0843,-2.4349 1.1139,-4.8645 3.6826,-5.1074 4.8715,-0.4606 6.4262,1.7432 5.5027,3.5928"/>
  <path class="fil2 str2" d="M308.313 135.915l-0.5088 0.7556c-2.7055,-1.2691 -3.5096,-1.8944 -8.3825,-1.6378 -2.2208,0.1169 -1.0254,-1.885 -3.4452,-1.8327 -2.6895,0.0581 -1.0528,-1.9503 -2.6659,-3.7848 -1.7788,-2.0231 -0.1673,-5.2452 6.5776,-0.4291l8.4248 6.9288z"/>
  <path class="fil2 str2" d="M307.795 136.675l0.5344 -0.7348c-4.1993,-4.6927 -1.5408,-6.3261 -2.4924,-10.9948 -0.5313,-2.6067 -1.9951,0.6976 -3.2835,-3.2538 -0.727,-2.2297 -3.1953,-0.7754 -4.5882,-1.8306 -1.0333,-0.7828 -2.6388,-0.1768 -2.1321,1.8115 0.9012,3.5364 -1.6072,4.799 0.948,6.2705 3.5186,2.0263 0.0247,3.9749 2.4144,4.8841 4.4345,1.6872 5.7443,1.2255 8.5994,3.8479z"/>
  <path class="fil4 str2" d="M298.443 122.848c2.8972,5.5284 4.9667,9.0351 9.6192,13.4936"/>
  <polyline class="fil4 str2" points="298.577,126.321 301.383,128.192 301.316,124.184 "/>
  <polyline class="fil4 str2" points="303.453,127.791 303.52,131.265 300.848,130.329 "/>
  <path class="fil4 str4" d="M310.095 141.013c1.1744,-1.1951 1.8436,-2.3687 -0.0271,-4.4668"/>
  <path class="fil2 str2" d="M309.668 124.476c-0.1949,4.5638 0.2436,10.4583 -1.3354,11.4723l-0.5463 0.7284c-0.6836,2.8256 -1.6236,5.1493 -2.4887,5.9486l1.4116 2.14c1.0368,-3.5194 3.2582,-8.1227 4.2335,-9.4847l-0.2428 -0.6677c-0.6535,-0.2621 0.1535,-6.8583 -0.3035,-10.4404l-0.7284 0.3035z"/>
  <polyline class="fil4 str2" points="311.546,120.975 310.876,120.896 309.852,123.654 "/>
  <line class="fil4 str2" x1="314.131" y1="194.53" x2="311.624" y2= "193.907" />
  <path class="fil2 str2" d="M322.677 229.142l2.7096 1.4956c-0.8762,1.5272 -3.5291,0.4391 -2.7096,-1.4956z"/>
  <path class="fil2 str2" d="M325.269 230.573l-2.4686 -1.3531c1.2905,-3.0164 3.9236,-1.5404 2.4686,1.3531z"/>
  <path class="fil3 str3" d="M308.502 233.03l-4.9415 1.2073c-1.314,2.0414 -2.2723,1.4446 -4.8057,3.3233 -1.4964,1.1098 -2.0997,3.4001 -5.2091,3.5542 -3.833,0.19 -3.3354,-2.3704 -7.6636,-2.5921 -2.1341,-0.1093 -4.277,1.2589 -5.1279,-0.1127 -0.8638,-1.3925 -1.8605,-1.278 -3.4539,-1.6273l0 3.2806c1.1487,-0.6709 2.2446,-0.7092 2.5537,0.0584 0.9631,2.3917 -0.8773,2.6015 -0.7319,4.2788 0.2634,3.0381 2.4007,4.0041 3.6558,4.1344 4.5162,0.4688 6.169,1.761 7.755,3.3999 0.5044,0.5213 4.6513,3.1659 7.6575,0.8941 2.2131,-1.6723 6.4938,-5.1966 7.6372,-7.5273 2.6436,-5.3887 7.0988,-4.7069 8.8017,-8.9125l-6.1273 -3.3591z"/>
  <path class="fil4 str4" d="M314.359 236.975c-1.9777,3.7823 -12.3618,12.9779 -16.1688,15.8546 -3.0062,2.2718 -7.1531,-0.3728 -7.6575,-0.8941 -1.586,-1.6389 -3.2388,-2.9311 -7.755,-3.3999 -1.2551,-0.1303 -3.3924,-1.0963 -3.6558,-4.1344 -0.1454,-1.6773 1.695,-1.8871 0.7319,-4.2788 -0.2634,-0.6543 -1.0989,-0.7231 -2.0513,-0.3136"/>
  <path class="fil2 str2" d="M321.787 237.771l-3.0838 0.0386c0.0626,-1.8259 2.8938,-2.6159 3.0838,-0.0386z"/>
  <path class="fil2 str2" d="M318.834 237.808l2.829 -0.0423c0.474,3.5447 -3.0926,3.8945 -2.829,0.0423z"/>
  <path class="fil2 str2" d="M323.299 233.43l-7.8936 -1.1932c-0.0354,0.4428 -0.0852,0.9182 -0.1495,1.4279l7.5832 0.9479 0.4599 -1.1826z"/>
  <line class="fil4 str2" x1="323.364" y1="231.18" x2="321.663" y2= "233.172" />
  <path class="fil2 str2" d="M286.77 246.044l3.9858 -0.1752c-0.2191,-2.2995 -3.307,-4.9494 -3.9858,0.1752z"/>
  <path class="fil4 str2" d="M286.824 241.025c0.7401,0.5001 1.2297,1.1342 1.5794,2.086"/>
  <line class="fil4 str2" x1="320.418" y1="236.118" x2="320.335" y2= "234.292" />
  <path class="fil2 str2" d="M290.619 245.875l-3.6931 0.1623c-0.5947,4.5103 4.0239,4.7391 3.6931,-0.1623z"/>
  <path class="fil3 str3" d="M298.012 201.795c-0.6622,1.7816 -1.5329,3.0656 -1.8109,4.7193 -0.8892,5.2901 -0.2636,10.0453 2.7495,12.9557 1.3797,1.4155 3.4746,2.3737 4.0043,2.9171 2.6576,2.7265 1.6568,10.2176 0.6058,11.8504l4.9416 -1.2073 6.1272 3.3591c0.2432,-0.6008 0.4305,-1.3013 0.548,-2.1335 0.159,-1.1255 0.2504,-2.0898 0.2833,-2.9256 0.2305,-5.8508 -2.4016,-5.4175 -4.7101,-10.1208 -0.9631,-1.9621 0.6916,-4.9489 -2.5623,-8.7381 -0.9283,-1.081 -1.9435,-1.5253 -2.8779,-2.026 0.5725,-3.5929 -2.2702,-3.3943 -1.3383,-4.3374 0.9039,-0.9147 1.7162,-2.3634 2.314,-4.0976l-8.2742 -0.2153z"/>
  <path class="fil4 str4" d="M309.853 185.044c-1.8338,1.7166 -3.7016,2.4066 -3.5908,3.7921 0.1737,2.1704 1.1791,1.72 1.052,7.364 -0.0927,4.1135 -1.5338,8.0787 -3.3416,9.9082 -0.9319,0.9431 1.911,0.7445 1.3382,4.3378"/>
  <path class="fil3 str3" d="M309.221 140.367c-0.9124,0.6146 -2.2265,1.0251 -3.8801,1.0048 -1.9303,-0.0236 -0.3372,1.7944 -1.6868,4.2379 0.9441,0.809 1.9014,1.7275 2.3211,4.2162 2.2119,-1.3604 0.2269,-3.9434 1.8998,-6.4344l1.346 -3.0245z"/>
  <path class="fil4 str4" d="M299.175 219.68c-3.2066,-2.8884 -3.8848,-7.7468 -2.9738,-13.166 0.4449,-2.6462 2.4067,-4.3452 2.6046,-8.6512"/>
  <line class="fil4 str4" x1="303.792" y1="206.463" x2="302.494" y2= "206.88" />
  <path class="fil2 str2" d="M308.704 197.191c-6.0411,6.4214 -10.3272,0.6925 -19.3992,4.7676 8.0151,-2.8766 3.127,-11.9426 19.0704,-7.8912l0.3288 3.1236z"/>
  <path class="fil4 str2" d="M295.064 198.952c2.143,-1.6733 4.466,-3.0225 6.9531,-4.0764"/>
  <path class="fil2 str2" d="M311.434 206.839c-0.055,0.5506 -1.9821,2.8916 -3.7719,5.0902 0.1777,0.1616 0.3532,0.3409 0.526,0.5421 0.2844,0.3312 0.5308,0.6559 0.7453,0.9747l0.7997 -1.3611 0.9669 -1.4147 0.9105 -1.6996 1.1533 -0.8498c4.0222,-3.3489 -5.9655,-13.5477 1.6439,-17.4181l-0.2628 -1.1388c-1.2274,0.4241 -3.5871,3.5134 -2.1462,-1.2702 0.9833,-3.2643 3.7084,-5.8254 6.351,-11.9574l-0.7446 -0.4818c-2.4367,3.983 -5.602,9.6206 -6.4118,8.7722l-0.1456 -0.8984 -1.2449 1.3613 0.1024 0.6464 -0.7973 -0.6835 -0.7176 1.0743c1.786,2.6208 1.396,4.889 1.2189,7.3851l3.1548 10.038 -0.0389 3.1924 -1.2911 0.0967z"/>
  <path class="fil4 str4" d="M299.232 200.924c0.6421,1.8886 1.7681,3.2955 1.7904,6.2154 0.0381,5.0016 -3.7813,5.6823 -3.3067,10.0265 0.298,2.7277 4.4604,4.422 5.2391,5.2209 2.6576,2.7265 1.6568,10.2176 0.6058,11.8504"/>
  <path class="fil4 str4" d="M301.593 205.577c0.4628,-0.0664 0.6612,0.2665 0.809,0.9265 0.9834,4.3913 3.6212,3.4473 5.786,5.9683 3.2539,3.7892 1.5992,6.7759 2.5623,8.7381 2.6385,5.3753 5.6994,4.0414 4.4268,13.0464 -0.158,1.1181 -0.4415,1.9985 -0.8181,2.7187"/>
  <path class="fil4 str4" d="M305.976 149.825c2.2119,-1.3604 0.2267,-3.9433 1.8998,-6.4344 0.6289,-0.9366 1.5155,-1.6613 2.2201,-2.3782"/>
  <path class="fil4 str4" d="M310.449 139.04c-0.6319,1.2654 -2.4242,2.3649 -5.1082,2.3317 -1.9307,-0.0239 -0.3416,1.7906 -1.6912,4.2341"/>
  <path class="fil2 str2" d="M311.427 206.849c0.4355,0.9292 1.2947,0.6393 1.7575,-0.1406 -0.3242,-4.3983 -1.6767,-7.8685 -3.2573,-12.4789 -0.997,-2.9081 -3.2315,0.1606 -3.9576,-6.6855 -0.4162,-3.9242 -2.2932,0.852 -6.1465,-4.5834 -1.5128,-2.134 -4.6662,-1.2058 -4.0437,0.2873 2.0895,5.0117 -3.2579,4.2246 0.6766,6.5753 5.3885,3.2196 -0.7146,5.745 4.8549,6.2829 10.8098,1.0442 9.947,7.4309 10.1161,10.7429z"/>
  <path class="fil2 str2" d="M305.98 183.296c-3.0755,-0.9829 -8.2506,0.449 -25.1101,-6.5132 18.6705,-4.446 17.6952,-3.0928 25.1101,6.5132z"/>
  <path class="fil2 str2" d="M308.407 186.104l0.7008 -1.0512c-3.3024,-3.1616 -4.3631,-3.3955 -4.5944,-6.9558 -0.1691,-2.6019 0.9187,-6.1709 0.1803,-7.9151 -2.658,-6.2783 -2.8861,3.8682 -4.8069,-2.133 -1.4249,-4.4522 -2.5217,-5.4697 -4.3323,-4.1591 -0.8405,0.6085 -0.9344,2.7925 0.3176,5.5341 2.1761,4.7653 -2.9292,2.5312 0.4103,6.551 3.1398,3.7794 8.9255,5.9419 12.1246,10.1291z"/>
  <path class="fil4 str2" d="M300.183 173.531c1.4266,5.9532 4.8913,8.5095 8.5747,12.0473"/>
  <path class="fil4 str2" d="M311.488 198.858c-3.3682,-8.3822 -5.8405,-0.4459 -13.0067,-14.4276"/>
  <polyline class="fil4 str2" points="297.552,187.56 300.438,187.95 300.494,186.949 "/>
  <polyline class="fil4 str2" points="300.882,192.063 303.935,192.23 302.658,189.506 "/>
  <path class="fil3 str3" d="M188.125 143.391c-1.6597,-2.4714 -5.1023,-3.4742 -2.2733,-6.7478l0 0c-0.9978,1.108 -0.593,2.6991 0.9273,3.7233l1.346 3.0245z"/>
  <path class="fil3 str3" d="M198.804 156.236l-9.3602 -0.0115c0.2605,-0.8356 0.3615,-1.8721 0.3596,-3.288 -0.0019,-1.2532 0.0794,-2.271 0.2216,-3.1111l-0.0007 0.0002c0.4197,-2.4887 1.377,-3.4072 2.3211,-4.2162 -1.3496,-2.4435 0.2435,-4.2616 -1.6868,-4.2379 -4.4904,0.0552 -6.4764,-3.0659 -4.7171,-4.8238 0.8313,-0.8246 2.4905,-1.3485 5.1116,-1.1007 0.0407,0.0038 0.0811,0.0083 0.121,0.0133l-0.0016 -0.0039c4.7835,0.6981 5.6904,5.0712 7.4311,6.6756 1.9126,1.7629 7.9052,4.6927 0.4548,13.7319 -0.0898,0.1089 -0.1745,0.2338 -0.2544,0.3721z"/>
  <path class="fil3 str3" d="M189.714 202.01c-0.5978,-1.7341 -0.9813,-3.754 -1.0276,-5.8106 -0.127,-5.644 0.8783,-5.1935 1.052,-7.364 0.142,-1.7735 -2.9582,-2.4073 -5.0791,-5.5133 -0.0475,-0.0697 -0.0931,-0.1407 -0.138,-0.212l-0.032 -0.0518c-0.0436,-0.0706 -0.0855,-0.1418 -0.1266,-0.2139 -2.257,-4.0223 0.9277,-8.8953 5.6027,-12.5279l0 -0.0001c0.3568,1.8087 2.9612,8.7581 6.7347,11.9257 2.0426,1.7148 1.6758,7.0121 0.789,10.4148 -0.5903,2.2648 -0.3944,3.0356 -0.2946,5.2059 0.0742,1.6147 0.3964,2.8629 0.7937,3.9319l-8.2742 0.2153z"/>
  <path class="fil4 str4" d="M189.964 170.31c0.3515,1.7977 2.9579,8.7612 6.7362,11.9329 2.0426,1.7148 1.6758,7.0121 0.789,10.4148 -0.5903,2.2648 -0.3944,3.0356 -0.2946,5.2059 0.0572,1.2448 -0.1346,2.2029 -0.4264,3.0612"/>
  <path class="fil2 str2" d="M238.505 235.205l-7.5997 9.5568 -3.3555 -11.828c-0.4403,-4.1007 1.0998,-4.4044 3.3443,-2.6426 1.1975,0.94 1.8081,-2.4717 3.4174,-1.6076 1.0862,0.5833 0.0609,3.2601 0.8732,4.0478 1.0793,1.0466 4.4276,-1.7161 3.3203,2.4736z"/>
  <path class="fil2 str2" d="M223.626 251.841l-9.9841 1.3424 0.5873 10.3197c0.1424,3.4655 2.3524,5.4866 4.0324,3.5249 1.5394,-1.7975 0.4302,-4.0098 2.9608,-3.7303 3.6249,0.4003 0.3393,-3.9835 2.2959,-4.0645 2.0631,-0.0854 2.4312,-0.6837 1.813,-3.2332 -0.4385,-1.8084 -1.2889,-3.6904 -1.7053,-4.159z"/>
  <path class="fil2 str2" d="M223.616 251.836l-1.84 -4.7104c-2.2319,0.3957 -4.8785,0.3703 -6.7008,1.0902 -3.6304,1.4342 -1.8416,2.8583 -3.1732,3.3207 -3.0782,1.069 -4.5583,1.7093 -4.193,4.013 0.4696,2.9613 -0.8263,4.6472 0.0972,5.9309 0.8394,1.1666 2.1973,0.2215 3.8357,0.0737 0.9494,-0.0856 2.7548,1.2527 3.8,0.8079 1.1028,-0.4693 0.3646,-2.816 1.0063,-3.3777 0.8198,-0.7174 2.0754,0.795 2.8997,0.1228 0.8205,-0.6691 0.0769,-2.9951 0.7167,-4.3709 0.7482,-1.609 2.9283,1.7328 3.5514,-2.9002z"/>
  <path class="fil4 str2" d="M222.448 248.847c-5.8621,1.3359 -9.1718,4.3735 -11.05,8.3658"/>
  <polyline class="fil4 str2" points="218.452,253.382 218.177,250.316 215.754,250.311 "/>
  <polyline class="fil4 str2" points="215.671,256.412 215.464,252.013 213.513,252.386 "/>
  <path class="fil4 str2" d="M231.069 232.458c1.6695,1.1793 3.0026,3.1757 4.0932,5.7608"/>
  <path class="fil2 str2" d="M180.931 196.218l-0.8289 -1.93c1.5523,-0.623 2.758,0.4052 0.8289,1.93z"/>
  <path class="fil2 str2" d="M180.138 194.372l0.7593 1.7534c-2.2183,1.034 -2.9248,-0.8075 -0.7593,-1.7534z"/>
  <path class="fil2 str2" d="M184.512 161.53l-0.0067 -4.2237c2.9511,0.1257 4.2283,3.3574 0.0067,4.2237z"/>
  <path class="fil2 str2" d="M184.506 157.452l0.0062 3.9135c-4.5964,0.6624 -5.2057,-4.0273 -0.0062,-3.9135z"/>
  <path class="fil2 str2" d="M183.706 123.252l-1.8721 -2.2214c1.8043,-1.4476 4.0436,-0.0842 1.8721,2.2214z"/>
  <path class="fil2 str2" d="M181.915 121.127l1.709 2.0157c-2.5207,2.259 -4.195,0.1056 -1.709,-2.0157z"/>
  <path class="fil2 str2" d="M173.145 234.612l-18.5723 5.186c-0.9643,0.7838 -0.5556,3.1102 -1.1024,3.6799 -1.8853,1.9646 -2.2559,3.7313 -1.5373,4.7761 0.4911,0.7142 2.8635,0.3246 4.7089,-0.2288 2.1059,-0.6314 3.9653,0.1194 4.7072,-0.077 1.6802,-0.4447 1.7382,-2.0176 3.6687,-3.762 1.084,-0.9796 2.3847,-0.0091 3.2976,-1.5599 1.5474,-2.6286 1.5179,-4.334 4.8296,-8.0143z"/>
  <path class="fil4 str2" d="M157.197 245.171c3.8765,-3.2377 9.908,-7.0225 15.948,-10.5596"/>
  <polyline class="fil4 str2" points="157.65,242.27 161.061,242.221 160.525,244.953 "/>
  <polyline class="fil4 str2" points="165.068,241.881 164.976,239.607 162.748,239.839 "/>
  <path class="fil2 str2" d="M173.145 234.612l-0.4704 -1.1787c-4.0018,-0.1571 -4.9291,-1.6483 -6.8454,-2.8929 -2.7571,-1.7905 -1.7566,2.1449 -2.9106,2.1928 -1.3229,0.0549 -2.4932,-2.1786 -3.4389,-2.6444 -2.5879,-1.2747 -1.968,2.2344 -3.1264,2.2741 -1.2475,0.0428 -2.0552,-1.3456 -3.6313,-1.4055 -1.1336,-0.0431 -0.6351,1.498 -1.3405,2.0296 -0.6973,0.5255 -2.6677,0.1853 -2.5614,1.5041 0.1252,1.5533 2.7411,1.5311 3.0764,2.6478 0.4609,1.5348 0.1502,3.5123 2.5569,2.0047 3.4381,-2.1537 2.7968,3.6187 6.1874,0.0065 2.6967,-2.8729 4.3644,1.2765 5.979,-0.0688 2.5361,-2.1131 2.2025,-2.2165 6.5252,-4.4693z"/>
  <path class="fil4 str2" d="M172.912 234.035c-3.4264,1.215 -11.2722,1.4305 -17.6128,1.1776"/>
  <polyline class="fil4 str2" points="157.859,233.369 160.624,235.315 158.576,237.26 "/>
  <polyline class="fil4 str2" points="165.641,233.164 166.819,235.059 165.692,236.697 "/>
  <path class="fil2 str2" d="M182.492 224.865l-1.4841 9.4673c-2.983,-0.0206 -2.8461,-4.9256 -5.3976,-7.2289 -1.1034,-0.9961 -1.4839,-2.5644 -0.4366,-3.1133 1.633,-0.8559 2.9693,1.9782 4.9337,-0.1521 0.6836,-0.7412 1.6999,-0.8722 2.3846,1.027z"/>
  <path class="fil2 str2" d="M186.267 212.085l-0.9468 -1.4202c-3.3646,-0.3754 -11.1403,-2.2699 -13.3769,-1.6433 -2.7979,0.7838 -0.0992,1.9941 -5.123,5.8267 -1.851,1.4121 -1.6751,5.6781 -1.0306,7.4373 0.8057,2.1993 2.6437,2.0977 3.0492,0.9854 1.3133,-3.6023 3.1351,1.8173 3.8006,-2.8261 0.5331,-3.7198 3.1013,1.2651 4.1204,-2.0692 1.7085,-5.59 2.8523,0.194 4.2993,-2.5144 1.7279,-3.2342 2.1625,-3.6633 5.2078,-3.7762z"/>
  <path class="fil4 str2" d="M185.299 210.654c-6.596,-1.1027 -11.7546,2.0261 -14.6624,6.4496"/>
  <polyline class="fil4 str2" points="175.508,214.876 176.98,211.623 175.137,211.535 "/>
  <polyline class="fil4 str2" points="179.452,213.159 180.206,210.642 179.128,210.19 "/>
  <polyline class="fil4 str2" points="171.294,214.868 173.432,213.892 172.449,216.882 "/>
  <path class="fil2 str2" d="M173.329 201.104c-2.3343,-5.9039 -0.1414,-7.2599 1.1185,-4.7323 0.7256,1.4558 2.8878,-0.5797 3.3056,2.0119 0.5796,3.5951 2.2758,0.308 2.1676,4.9253l-6.5917 -2.2049z"/>
  <path class="fil2 str2" d="M184.393 208.988l0.9008 1.689c-1.3669,-0.7818 -2.8319,-1.9003 -4.0917,-1.7714 -3.9603,0.4051 -2.1243,-2.8365 -6.1386,-1.1959 -3.5641,1.4566 -2.2576,-3.9123 -6.3097,-0.0443 -2.1424,2.0451 -2.8894,-0.8824 -3.1545,-2.776 -0.1684,-1.2029 -2.6246,-1.9703 -2.5079,-3.6071 0.1626,-2.28 3.9089,0.2628 4.2538,-2.1016 0.2382,-1.6328 2.0068,-1.803 2.7848,-0.5455 3.3216,5.3687 2.883,-3.4927 5.7333,0.9451 2.0134,3.1348 4.8399,-1.263 4.7798,3.9053 -0.0344,2.958 -0.1391,2.5095 3.7499,5.5024z"/>
  <path class="fil4 str2" d="M184.722 209.605c-7.1797,-3.0426 -8.2087,-7.1309 -15.6551,-6.3565"/>
  <polyline class="fil4 str2" points="174.537,206.404 176.904,204.931 174.905,202.564 "/>
  <polyline class="fil4 str2" points="171.124,204.149 172.175,203.23 171.474,202.923 "/>
  <path class="fil2 str2" d="M176.085 176.354l-1.8169 -2.3052c1.6481,-1.1332 3.5989,-0.1326 1.8169,2.3052z"/>
  <path class="fil2 str2" d="M178.396 175.87l-0.7016 0.5102c-15.4422,-23.1107 -8.6277,-22.1361 -7.88,-20.6561 1.7446,3.453 2.6309,0.2383 3.6282,2.7905 1.0753,2.7517 2.0687,0.3089 2.2987,2.7287 0.4479,4.7124 3.0641,0.607 2.6192,4.2573 -0.6977,5.7245 -0.2003,7.7144 0.0355,10.3694z"/>
  <path class="fil2 str2" d="M178.396 175.87l-0.7289 0.4733c-1.4381,-3.436 -2.4625,-2.9599 -5.0324,-2.689 -3.7462,0.3949 -0.7138,-2.8003 -2.7268,-2.6646 -1.3172,0.0888 -1.2654,1.1713 -3.3386,1.2524 -2.4935,0.0975 -0.7777,-3.7786 -1.5535,-4.2347 -1.1901,-0.6998 -2.0922,1.243 -3.4423,0.7548 -2.3293,-0.8424 1.4777,-2.9455 -1.1084,-3.4118 -2.2432,-0.4045 -2.5712,-3.4357 1.4212,-2.5323 1.9276,0.4362 1.3414,-2.7792 3.9234,-1.4106 2.9479,1.5625 2.8047,-1.0021 4.0604,0.7322 3.1589,4.363 3.0897,0.6153 4.4227,2.5811 2.7013,3.9834 0.692,5.1516 4.1032,11.1492z"/>
  <path class="fil2 str2" d="M174.341 174.157l1.6544 2.0832c-2.304,1.8166 -3.926,-0.3968 -1.6544,-2.0832z"/>
  <path class="fil2 str2" d="M177.782 187.025l-9.189 -2.0817c-0.2084,-1.1919 -1.0203,-1.7768 -1.3355,-2.4599 -1.9389,-4.2014 3.3642,-0.1085 1.0108,-4.3342 -1.0396,-1.8667 0.8761,-2.949 1.6613,-1.8818 3.1637,4.2999 3.1073,-1.7743 4.9429,1.9357 1.9668,3.9751 3.935,4.2219 2.9095,8.8219z"/>
  <path class="fil4 str2" d="M170.723 179.299c2.5317,2.7962 3.6029,4.6089 4.785,7.2109"/>
  <path class="fil2 str2" d="M181.874 189.569l-0.2868 1.1472c-1.471,-0.1262 -2.2801,-0.1296 -3.6743,0.8566 -1.8982,1.3427 -1.4382,-1.5079 -4.9388,0.8385 -2.9927,2.006 -3.3088,-1.5448 -5.2326,-1.5182 -4.3734,0.0605 -2.6523,-2.9401 -0.968,-3.2795 2.6213,-0.5283 0.2596,-3.7782 3.2021,-2.8078 6.3402,2.091 2.4763,-1.426 5.5565,-0.3534 2.5134,0.8752 2.4932,4.2465 6.3419,5.1166z"/>
  <path class="fil4 str2" d="M181.702 190.133c-5.1027,-1.2692 -7.2844,-2.3866 -13.0114,-1.1108"/>
  <polyline class="fil4 str2" points="175.197,189.279 176.84,188.885 175.789,188.097 "/>
  <polyline class="fil4 str2" points="170.73,189.345 171.978,188.491 170.861,188.228 "/>
  <path class="fil4 str2" d="M165.868 164.992c5.9346,4.8287 8.1475,3.0393 12.1764,11.1252"/>
  <polyline class="fil4 str2" points="166.73,164.361 167.519,166.235 165.991,166.087 "/>
  <polyline class="fil4 str2" points="169.74,166.494 172.114,168.988 168.899,169.143 "/>
  <path class="fil2 str2" d="M189.212 151.49l-15.172 -4.8694c-7.7545,4.3667 -1.0003,3.2914 -3.5206,5.224 -0.8657,0.6638 -1.1175,3.6972 2.8831,1.9593 3.7349,-1.6226 1.1567,2.1772 5.0817,1.5849 6.3654,-0.9606 1.9746,-5.5302 10.7278,-3.8988z"/>
  <path class="fil2 str2" d="M189.828 151.78l0.0563 -1.5201c-2.4139,-0.9906 -3.9996,-3.6134 -5.3757,-6.501 -0.8083,-1.696 -1.7456,1.5857 -4.514,-3.0519 -1.2617,-2.1135 -1.7833,0.1982 -5.4888,-1.6528 -2.5333,-1.2654 -2.5386,1.6785 -5.8236,1.2245 -5.2942,-0.7317 -4.3335,5.1273 -0.9344,4.9013 5.8535,-0.3892 -0.112,5.9101 5.8261,4.3362 8.4979,-2.2524 0.6801,4.8861 7.4892,3.2445 5.0256,-1.2117 6.1499,-1.1647 8.7649,-0.9807z"/>
  <path class="fil4 str2" d="M172.065 143.205c6.6802,-0.3945 10.8699,6.3206 17.7912,7.8149"/>
  <polyline class="fil4 str2" points="174.999,145.064 179.26,145.38 177.761,142.697 "/>
  <polyline class="fil4 str2" points="180.689,150.216 183.529,148.164 182.346,146.665 "/>
  <path class="fil2 str2" d="M185.094 135.261l0.1883 -0.6343 -9.7868 -4.6803c-0.9056,-0.1978 -1.9849,0.3631 -2.8398,0.2766 -3.0692,-0.3105 -2.9048,-2.0364 -4.7129,-2.0125 -1.5562,0.0206 -0.8757,2.4451 -1.8679,2.7666 -2.1786,0.706 -2.8459,2.5395 2.1645,2.9438 2.9413,0.2373 2.9362,3.0562 6.5244,1.1876 3.7375,-1.9464 3.9889,-1.7369 10.3302,0.1525z"/>
  <path class="fil4 str2" d="M176.01 132.238c-1.5465,-0.0663 -2.2135,0.4961 -5.2155,-0.3591"/>
  <path class="fil2 str2" d="M185.315 134.595l-0.2628 0.7008c-5.552,-2.2571 -8.3771,-2.9618 -10.1946,-3.3178 -2.7423,-0.5371 0.8269,-1.9264 -2.6363,-3.755 -2.4815,-1.3103 1.0007,-3.1815 -0.4202,-5.6035 -0.9713,-1.6556 0.7085,-3.6194 2.1575,-1.7386 1.894,2.4584 5.1206,-1.3009 5.2645,2.2834 0.2872,7.1548 2.7124,1.8222 3.8184,4.4336 0.7856,1.8548 -1.5245,4.4955 2.2735,6.9971z"/>
  <path class="fil4 str2" d="M185.168 134.929c-9.7942,-5.8995 -6.8601,-7.2241 -10.5502,-11.0432"/>
  <polyline class="fil4 str2" points="176.541,130.788 178.907,130.295 178.316,127.682 "/>
  <polyline class="fil4 str2" points="174.569,127.386 176.738,126.992 176.738,125.316 "/>
  <path class="fil2 str2" d="M186.309 124.5l-0.733 -0.2818 7.7149 -14.3269c5.0763,-4.4707 6.072,-0.7095 5.0746,0.2605 -1.8466,1.7959 -0.106,3.4588 -1.869,4.1083 -4.1809,1.5403 0.1772,3.2005 -2.8251,3.944 -4.5774,1.1336 -5.8469,-0.0947 -7.3624,6.2959z"/>
  <path class="fil2 str2" d="M186.307 124.482l-0.7319 -0.2815c1.7633,-8.6365 -3.4455,-10.396 -3.769,-12.58 -0.5426,-3.6627 3.1968,0.0277 2.5771,-4.5715 -0.6413,-4.7602 3.6861,-0.9282 5.0246,-4.0654 1.1698,-2.7418 4.1558,-3.0363 3.5777,0.0657 -0.3138,1.6838 0.9814,2.393 0.5211,3.9006 -1.2532,4.1045 0.1176,6.3518 -1.3045,8.1246 -3.3796,4.213 -4.3314,4.6644 -5.8951,9.4075z"/>
  <path class="fil4 str2" d="M185.969 124.369c2.5523,-9.7774 1.1636,-10.8283 3.4906,-16.9463"/>
  <polyline class="fil4 str2" points="189.798,113.503 187.658,115.586 187.339,113.673 "/>
  <path class="fil4 str2" d="M189.685 109.168c-0.1689,0.0563 -0.2252,0.1689 -0.3378,0.2252l-0.7319 0.563 -0.3007 -0.9573"/>
  <path class="fil4 str4" d="M191.173 135.456c4.7835,0.6981 5.6904,5.0712 7.4311,6.6756"/>
  <path class="fil4 str4" d="M194.736 140.554c0.0843,-2.4349 -1.1139,-4.8645 -3.6826,-5.1074 -4.8715,-0.4606 -6.4262,1.7432 -5.5027,3.5928"/>
  <path class="fil2 str2" d="M187.687 135.915l0.5088 0.7556c2.7055,-1.2691 3.5096,-1.8944 8.3825,-1.6378 2.2208,0.1169 1.0254,-1.885 3.4452,-1.8327 2.6895,0.0581 1.0528,-1.9503 2.6659,-3.7848 1.7788,-2.0231 0.1673,-5.2452 -6.5776,-0.4291l-8.4248 6.9288z"/>
  <path class="fil2 str2" d="M188.205 136.675l-0.5344 -0.7348c4.1993,-4.6927 1.5408,-6.3261 2.4924,-10.9948 0.5313,-2.6067 1.9951,0.6976 3.2835,-3.2538 0.727,-2.2297 3.1953,-0.7754 4.5882,-1.8306 1.0333,-0.7828 2.6388,-0.1768 2.1321,1.8115 -0.9012,3.5364 1.6072,4.799 -0.948,6.2705 -3.5186,2.0263 -0.0247,3.9749 -2.4144,4.8841 -4.4345,1.6872 -5.7443,1.2255 -8.5994,3.8479z"/>
  <path class="fil4 str2" d="M197.557 122.848c-2.8972,5.5284 -4.9667,9.0351 -9.6192,13.4936"/>
  <polyline class="fil4 str2" points="197.423,126.321 194.618,128.192 194.684,124.184 "/>
  <polyline class="fil4 str2" points="192.547,127.791 192.48,131.265 195.152,130.329 "/>
  <path class="fil4 str4" d="M185.905 141.013c-1.1744,-1.1951 -1.8436,-2.3687 0.0271,-4.4668"/>
  <path class="fil2 str2" d="M186.332 124.476c0.1949,4.5638 -0.2436,10.4583 1.3354,11.4723l0.5463 0.7284c0.6836,2.8256 1.6236,5.1493 2.4887,5.9486l-1.4116 2.14c-1.0368,-3.5194 -3.2582,-8.1227 -4.2335,-9.4847l0.2428 -0.6677c0.6535,-0.2621 -0.1535,-6.8583 0.3035,-10.4404l0.7284 0.3035z"/>
  <polyline class="fil4 str2" points="184.454,120.975 185.124,120.896 186.148,123.654 "/>
  <line class="fil4 str2" x1="181.869" y1="194.53" x2="184.376" y2= "193.907" />
  <path class="fil2 str2" d="M173.323 229.142l-2.7096 1.4956c0.8762,1.5272 3.5291,0.4391 2.7096,-1.4956z"/>
  <path class="fil2 str2" d="M170.731 230.573l2.4686 -1.3531c-1.2905,-3.0164 -3.9236,-1.5404 -2.4686,1.3531z"/>
  <path class="fil3 str3" d="M218.7 236.783c1.3013,-0.2853 3.0004,-0.8798 5.35,-2.8583 2.6371,-2.2205 4.6608,-0.0903 5.5653,1.33 1.6677,2.6187 0.3855,4.7033 1.6536,6.9781l0.0577 0.1284c0.0297,-0.0894 0.0577,-0.1787 0.0816,-0.2679 0.8783,-3.2744 0.7185,-7.2749 5.2037,-7.0259 5.0733,0.2818 3.726,3.1742 11.3884,3.2054 7.6624,-0.0312 6.3153,-2.9236 11.3886,-3.2054 4.4852,-0.249 4.3254,3.7515 5.2037,7.0259 0.0239,0.0892 0.0519,0.1785 0.0816,0.2679l0.0577 -0.1284c1.2681,-2.2748 -0.0141,-4.3594 1.6536,-6.9781 0.9045,-1.4203 2.9282,-3.5505 5.5653,-1.33 2.3496,1.9785 4.0487,2.573 5.35,2.8583l0 3.2806c-1.4625,0.8542 -3.0105,2.7339 -3.1278,5.2821 -0.1297,2.8202 0.1011,6.3681 -5.5477,9.0433 -2.4635,1.1667 -4.6069,1.6925 -7.3434,0.7959 -1.1476,-0.376 -2.0657,-1.5646 -2.103,-2.5901l-0.0006 -0.0001 -0.0001 -0.0245c-0.0004,-0.0194 -0.0006,-0.0388 -0.0004,-0.0581 -0.0169,-1.4095 -0.4594,-3.4134 -0.9046,-3.9845l0.0001 -0.0002c-2.591,0.375 -6.8517,0.6992 -10.1486,0.715l0 0.0008 -0.1244 -0.0002 -0.1242 0.0002 0 -0.0008c-3.297,-0.0158 -7.5575,-0.34 -10.1486,-0.715l0.0001 0.0002c-0.4452,0.5711 -0.8877,2.575 -0.9046,3.9845 0.0002,0.0193 0,0.0387 -0.0004,0.0581l-0.0001 0.0245 -0.0006 0.0001c-0.0373,1.0255 -0.9554,2.2141 -2.103,2.5901 -2.7365,0.8966 -4.8799,0.3708 -7.3434,-0.7959 -5.6488,-2.6752 -5.418,-6.2231 -5.5477,-9.0433 -0.1173,-2.5482 -1.6653,-4.4279 -3.1278,-5.2821l0 -3.2806z"/>
  <path class="fil4 str4" d="M303.561 234.238c-7.1728,8.7015 -10.5047,4.6528 -17.6784,4.2854 -2.1341,-0.1093 -4.277,1.2589 -5.1279,-0.1127 -1.5693,-2.5296 -3.5772,-0.0844 -8.8039,-4.4856"/>
  <path class="fil3 str3" d="M187.498 233.03l4.9415 1.2073c1.314,2.0414 2.2723,1.4446 4.8057,3.3233 1.4964,1.1098 2.0997,3.4001 5.2091,3.5542 3.833,0.19 3.3354,-2.3704 7.6636,-2.5921 2.1341,-0.1093 4.277,1.2589 5.1279,-0.1127 0.8638,-1.3925 1.8605,-1.278 3.4539,-1.6273l0 3.2806c-1.1487,-0.6709 -2.2446,-0.7092 -2.5537,0.0584 -0.9631,2.3917 0.8773,2.6015 0.7319,4.2788 -0.2634,3.0381 -2.4007,4.0041 -3.6558,4.1344 -4.5162,0.4688 -6.169,1.761 -7.755,3.3999 -0.5044,0.5213 -4.6513,3.1659 -7.6575,0.8941 -2.2131,-1.6723 -6.4938,-5.1966 -7.6372,-7.5273 -2.6436,-5.3887 -7.0988,-4.7069 -8.8017,-8.9125l6.1273 -3.3591z"/>
  <path class="fil4 str4" d="M181.641 236.975c1.9777,3.7823 12.3618,12.9779 16.1688,15.8546 3.0062,2.2718 7.1531,-0.3728 7.6575,-0.8941 1.586,-1.6389 3.2388,-2.9311 7.755,-3.3999 1.2551,-0.1303 3.3924,-1.0963 3.6558,-4.1344 0.1454,-1.6773 -1.695,-1.8871 -0.7319,-4.2788 0.2634,-0.6543 1.0989,-0.7231 2.0513,-0.3136"/>
  <path class="fil4 str4" d="M192.439 234.238c7.1728,8.7015 10.5047,4.6528 17.6784,4.2854 2.1341,-0.1093 4.277,1.2589 5.1279,-0.1127 1.5693,-2.5296 3.5772,-0.0844 8.8039,-4.4856"/>
  <path class="fil2 str2" d="M205.376 240.416l-1.9272 -1.9272 -14.2788 4.0296c-0.8451,1.4039 -0.7346,2.9569 -1.6005,4.3795 -2.0029,3.2905 1.0907,0.79 0.386,2.7659 -0.7423,2.0816 -0.4355,4.5815 1.4879,3.1283 2.3377,-1.7662 2.7173,0.2614 3.9906,-0.0666 1.4825,-0.3819 0.9522,-1.9504 1.8751,-3.1791 0.5058,-0.6733 3.7185,-0.002 4.417,-1.2492 1.1422,-2.0394 0.8273,-2.2176 2.7671,-3.7003 1.111,-0.8493 0.3186,-2.7376 2.8828,-4.1809z"/>
  <path class="fil2 str2" d="M174.213 237.771l3.0838 0.0386c-0.0626,-1.8259 -2.8938,-2.6159 -3.0838,-0.0386z"/>
  <path class="fil2 str2" d="M177.166 237.808l-2.829 -0.0423c-0.474,3.5447 3.0926,3.8945 2.829,0.0423z"/>
  <path class="fil2 str2" d="M172.701 233.43l7.8936 -1.1932c0.0354,0.4428 0.0852,0.9182 0.1495,1.4279l-7.5832 0.9479 -0.4599 -1.1826z"/>
  <line class="fil4 str2" x1="172.636" y1="231.18" x2="174.337" y2= "233.172" />
  <path class="fil2 str2" d="M209.23 246.044l-3.9858 -0.1752c0.2191,-2.2995 3.307,-4.9494 3.9858,0.1752z"/>
  <path class="fil4 str2" d="M209.176 241.025c-0.7401,0.5001 -1.2297,1.1342 -1.5794,2.086"/>
  <path class="fil4 str2" d="M191.794 248.616c3.3336,-4.4387 7.3319,-6.0386 12.6399,-9.1415"/>
  <line class="fil4 str2" x1="175.582" y1="236.118" x2="175.665" y2= "234.292" />
  <line class="fil4 str2" x1="200.646" y1="241.611" x2="200.258" y2= "244.066" />
  <path class="fil2 str2" d="M205.381 245.875l3.6931 0.1623c0.5947,4.5103 -4.0239,4.7391 -3.6931,-0.1623z"/>
  <path class="fil2 str2" d="M218.866 240.774c-1.1432,-0.1728 -2.0733,-0.8246 -2.7156,-2.285l-1.1388 0.1752 1.0564 1.8764c-2.2931,-0.0218 -3.6379,-0.8226 -4.0348,-2.402l-1.4892 0c1.0124,2.6021 -8.334,-2.7095 -9.2152,-7.6036l-0.6142 -0.6842c-3.3343,-1.3553 -5.6935,-5.1551 -7.3559,-7.7192 -0.1314,0.0938 -0.2383,0.179 -0.3134,0.256 -0.418,0.4289 -0.7452,0.976 -0.9962,1.5994 3.3212,5.4283 8.1588,6.9004 -0.525,6.9505 0.0806,0.5946 0.1849,1.1482 0.3034,1.6349 5.9516,-0.2054 6.4613,-1.6271 7.7333,0.051 1.206,1.591 5.3577,5.8859 3.9296,5.8536l1.8684 1.9376c1.5936,-0.681 2.4192,0.1767 3.8142,0.6078 5.6754,1.7538 9.2018,2.0751 12.2001,2.2124 -0.3969,-0.9965 -1.0103,-1.8203 -1.6813,-2.4342l-0.8258 -0.0266z"/>
  <path class="fil3 str3" d="M197.988 201.795c0.6622,1.7816 1.5329,3.0656 1.8109,4.7193 0.8892,5.2901 0.2636,10.0453 -2.7495,12.9557 -1.3797,1.4155 -3.4746,2.3737 -4.0043,2.9171 -2.6576,2.7265 -1.6568,10.2176 -0.6058,11.8504l-4.9416 -1.2073 -6.1272 3.3591c-0.2432,-0.6008 -0.4305,-1.3013 -0.548,-2.1335 -0.159,-1.1255 -0.2504,-2.0898 -0.2833,-2.9256 -0.2305,-5.8508 2.4016,-5.4175 4.7101,-10.1208 0.9631,-1.9621 -0.6916,-4.9489 2.5623,-8.7381 0.9283,-1.081 1.9435,-1.5253 2.8779,-2.026 -0.5725,-3.5929 2.2702,-3.3943 1.3383,-4.3374 -0.9039,-0.9147 -1.7162,-2.3634 -2.314,-4.0976l8.2742 -0.2153z"/>
  <path class="fil4 str4" d="M186.148 185.044c1.8338,1.7166 3.7016,2.4066 3.5908,3.7921 -0.1737,2.1704 -1.1791,1.72 -1.052,7.364 0.0927,4.1135 1.5338,8.0787 3.3416,9.9082 0.9319,0.9431 -1.911,0.7445 -1.3382,4.3378"/>
  <path class="fil2 str2" d="M216.178 238.459c0.942,-3.3227 3.9032,-3.0919 4.1672,-4.9282 0.3593,-2.4988 -1.7422,-1.4407 -1.8156,-3.1752 -0.0881,-2.0821 2.6869,-2.1362 1.8255,-6.0321l-12.8437 -2.3132 7.4586 16.6705 1.208 -0.2218z"/>
  <path class="fil2 str2" d="M212.033 238.138c0.3133,-2.7106 4.7282,-2.4311 4.6047,-4.4116 -0.1386,-2.2232 -3.8724,-1.2491 -4.0484,-3.5275 -0.1489,-1.9266 2.2406,-2.7089 0.9829,-5.492l-5.8316 -2.2493c-4.4971,1.1584 -5.1283,3.3227 -1.1002,7.7157 0.9389,1.024 -2.2223,1.5897 -1.5759,3.047 0.6457,1.4558 2.876,-0.7506 5.4793,4.9177l1.4892 0z"/>
  <path class="fil4 str2" d="M211.278 238.122c-0.5742,-4.4091 -1.5086,-8.5031 -2.6826,-12.3873"/>
  <path class="fil2 str2" d="M203.448 238.489l1.278 1.278c-4.0337,0.6679 -4.1678,1.4837 -6.6982,4.1751 -3.5197,3.7437 -2.9764,-3.5643 -5.1113,-1.1761 -1.4374,1.6079 -1.3149,4.9714 -3.5618,4.9498 -2.2212,-0.0214 -0.1855,-5.1972 -2.3889,-3.7507 -1.9215,1.2614 -3.1955,3.795 -4.8869,3.4822 -1.38,-0.2552 -1.7222,-3.9708 -0.4209,-5.3765 1.7721,-1.9143 -1.8065,-1.3622 -0.3764,-3.8394 0.5036,-0.8724 3.4669,-0.3976 4.6342,-1.0154 1.1267,-0.5963 -0.7464,-3.1657 1.8809,-3.376 2.639,-0.2112 2.2493,2.2734 3.8582,2.3563 1.4717,0.0759 2.2156,-2.42 4.9179,-0.1032 3.3908,2.9071 4.3337,1.989 6.8752,2.3959z"/>
  <path class="fil4 str2" d="M203.459 238.459c-9.2684,-1.1175 -15.776,0.2629 -19.5228,4.1412"/>
  <path class="fil4 str2" d="M187.88 236.881c1.3804,0.3944 2.7608,1.1832 4.0426,1.6762l-2.0706 3.7468"/>
  <polyline class="fil4 str2" points="194.683,237.079 196.162,238.163 195.572,240.711 "/>
  <path class="fil3 str3" d="M186.779 140.367c0.9124,0.6146 2.2265,1.0251 3.8801,1.0048 1.9303,-0.0236 0.3372,1.7944 1.6868,4.2379 -0.9441,0.809 -1.9014,1.7275 -2.3211,4.2162 -2.2119,-1.3604 -0.2269,-3.9434 -1.8998,-6.4344l-1.346 -3.0245z"/>
  <path class="fil4 str4" d="M218.197 239.808c1.5872,0.6824 3.4995,2.6938 3.6302,5.5373 0.1297,2.8201 -0.1011,6.3681 5.5477,9.0433 2.4635,1.1667 4.6069,1.6925 7.3434,0.7959 1.8682,-0.6121 3.1298,-3.3772 0.9697,-4.0877 -0.9091,-0.299 -2.2431,-0.1168 -3.7001,-0.8378 -1.5791,-0.7814 -1.7159,-2.827 -1.1493,-3.3128 1.2025,-1.0311 2.6869,0.5853 5.1226,1.2491"/>
  <path class="fil4 str4" d="M224.05 233.925c2.6371,-2.2205 4.6608,-0.0903 5.5653,1.33 1.6677,2.6187 0.3855,4.7033 1.6536,6.9781"/>
  <path class="fil4 str4" d="M196.825 219.68c3.2066,-2.8884 3.8848,-7.7468 2.9738,-13.166 -0.4449,-2.6462 -2.4067,-4.3452 -2.6046,-8.6512"/>
  <path class="fil4 str4" d="M233.983 250.829c-9.6521,-1.2028 -3.5538,-5.0872 -2.5752,-8.7352 0.8783,-3.2744 0.7187,-7.2749 5.2037,-7.0259 5.1009,0.2831 3.5853,3.2054 11.3884,3.2054 7.8031,0 6.2877,-2.9223 11.3886,-3.2054 4.485,-0.249 4.3254,3.7515 5.2037,7.0259 0.9786,3.648 7.0769,7.5324 -2.5752,8.7352"/>
  <path class="fil4 str4" d="M236.822 252.595c0,-1.4125 0.4511,-3.4848 0.9051,-4.0671"/>
  <line class="fil4 str4" x1="192.208" y1="206.463" x2="193.506" y2= "206.88" />
  <path class="fil2 str2" d="M187.296 197.191c6.0411,6.4214 10.3272,0.6925 19.3992,4.7676 -8.0151,-2.8766 -3.127,-11.9426 -19.0704,-7.8912l-0.3288 3.1236z"/>
  <path class="fil4 str2" d="M200.936 198.952c-2.143,-1.6733 -4.466,-3.0225 -6.9531,-4.0764"/>
  <path class="fil2 str2" d="M184.566 206.839c0.055,0.5506 1.9821,2.8916 3.7719,5.0902 -0.1777,0.1616 -0.3532,0.3409 -0.526,0.5421 -0.2844,0.3312 -0.5308,0.6559 -0.7453,0.9747l-0.7997 -1.3611 -0.9669 -1.4147 -0.9105 -1.6996 -1.1533 -0.8498c-4.0222,-3.3489 5.9655,-13.5477 -1.6439,-17.4181l0.2628 -1.1388c1.2274,0.4241 3.5871,3.5134 2.1462,-1.2702 -0.9833,-3.2643 -3.7084,-5.8254 -6.351,-11.9574l0.7446 -0.4818c2.4367,3.983 5.602,9.6206 6.4118,8.7722l0.1456 -0.8984 1.2449 1.3613 -0.1024 0.6464 0.7973 -0.6835 0.7176 1.0743c-1.786,2.6208 -1.396,4.889 -1.2189,7.3851l-3.1548 10.038 0.0389 3.1924 1.2911 0.0967z"/>
  <path class="fil4 str4" d="M196.768 200.924c-0.6421,1.8886 -1.7681,3.2955 -1.7904,6.2154 -0.0381,5.0016 3.7813,5.6823 3.3067,10.0265 -0.298,2.7277 -4.4604,4.422 -5.2391,5.2209 -2.6576,2.7265 -1.6568,10.2176 -0.6058,11.8504"/>
  <path class="fil4 str4" d="M194.407 205.577c-0.4628,-0.0664 -0.6612,0.2665 -0.809,0.9265 -0.9834,4.3913 -3.6212,3.4473 -5.786,5.9683 -3.2539,3.7892 -1.5992,6.7759 -2.5623,8.7381 -2.6385,5.3753 -5.6994,4.0414 -4.4268,13.0464 0.158,1.1181 0.4415,1.9985 0.8181,2.7187"/>
  <path class="fil4 str4" d="M190.025 149.825c-2.2119,-1.3604 -0.2267,-3.9433 -1.8998,-6.4344 -0.6289,-0.9366 -1.5155,-1.6613 -2.2201,-2.3782"/>
  <path class="fil4 str4" d="M185.551 139.04c0.6319,1.2654 2.4242,2.3649 5.1082,2.3317 1.9307,-0.0239 0.3416,1.7906 1.6912,4.2341"/>
  <path class="fil2 str2" d="M184.573 206.849c-0.4355,0.9292 -1.2947,0.6393 -1.7575,-0.1406 0.3242,-4.3983 1.6767,-7.8685 3.2573,-12.4789 0.997,-2.9081 3.2315,0.1606 3.9576,-6.6855 0.4162,-3.9242 2.2932,0.852 6.1465,-4.5834 1.5128,-2.134 4.6662,-1.2058 4.0437,0.2873 -2.0895,5.0117 3.2579,4.2246 -0.6766,6.5753 -5.3885,3.2196 0.7146,5.745 -4.8549,6.2829 -10.8098,1.0442 -9.947,7.4309 -10.1161,10.7429z"/>
  <path class="fil4 str2" d="M184.512 198.858c3.3682,-8.3822 5.8405,-0.4459 13.0067,-14.4276"/>
  <polyline class="fil4 str2" points="198.448,187.56 195.562,187.95 195.506,186.949 "/>
  <polyline class="fil4 str2" points="195.118,192.063 192.065,192.23 193.342,189.506 "/>
  <path class="fil4 str4" d="M230.662 240.328c-0.4143,0.3638 -0.1996,0.9722 -0.6969,1.1176"/>
  <path class="fil4 str4" d="M222.721 243.968c-0.5072,0.2543 -0.4933,0.3797 -0.9399,0.8462"/>
  <path class="fil2 str2" d="M247.403 249.238c-7.599,5.8494 -15.4446,10.2133 -17.1928,15.4049l-4.8594 -0.8528c8.3338,-10.0267 10.1634,-9.0164 18.3744,-14.6924 1.2827,0.0853 2.5087,0.1319 3.6778,0.1403z"/>
  <ellipse class="fil2 str2" transform="matrix(-0.988917 -0.140722 -0.106745 0.673895 227.756 264.231)" rx="2.4824" ry="1.044"/>
  <path class="fil4 str4" d="M277.803 239.808c-1.5872,0.6824 -3.4995,2.6938 -3.6302,5.5373 -0.1297,2.8201 0.1011,6.3681 -5.5477,9.0433 -2.4635,1.1667 -4.6069,1.6925 -7.3434,0.7959 -1.8682,-0.6121 -3.1298,-3.3772 -0.9697,-4.0877 0.9091,-0.299 2.2431,-0.1168 3.7001,-0.8378 1.5791,-0.7814 1.7159,-2.827 1.1493,-3.3128 -1.2025,-1.0311 -2.6869,0.5853 -5.1226,1.2491"/>
  <path class="fil4 str4" d="M273.279 243.968c0.5072,0.2543 0.4933,0.3797 0.9399,0.8462"/>
  <path class="fil4 str4" d="M259.178 252.595c0,-1.4125 -0.4511,-3.4848 -0.9051,-4.0671"/>
  <path class="fil2 str2" d="M248.597 249.238c7.599,5.8494 15.4446,10.2133 17.1928,15.4049l4.8594 -0.8528c-8.3338,-10.0267 -10.1634,-9.0164 -18.3744,-14.6924 -1.2827,0.0853 -2.5087,0.1319 -3.6778,0.1403z"/>
  <ellipse class="fil2 str2" transform="matrix(0.988917 -0.140722 0.106745 0.673895 268.244 264.231)" rx="2.4824" ry="1.044"/>
  <path class="fil4 str4" d="M235.961 248.196c1.8464,0.5032 7.7707,1.0473 12.0385,1.0473 4.2678,0 10.1923,-0.5441 12.0387,-1.0473"/>
  <path class="fil4 str4" d="M271.95 233.925c-2.6371,-2.2205 -4.6608,-0.0903 -5.5653,1.33 -1.6677,2.6187 -0.3855,4.7033 -1.6536,6.9781"/>
  <path class="fil4 str4" d="M265.339 240.328c0.4143,0.3638 0.1996,0.9722 0.6969,1.1176"/>
  <path class="fil2 str2" d="M290.625 240.416l1.9272 -1.9272 14.2788 4.0296c0.8451,1.4039 0.7346,2.9569 1.6005,4.3795 2.0029,3.2905 -1.0907,0.79 -0.386,2.7659 0.7423,2.0816 0.4355,4.5815 -1.4879,3.1283 -2.3377,-1.7662 -2.7173,0.2614 -3.9906,-0.0666 -1.4825,-0.3819 -0.9522,-1.9504 -1.8751,-3.1791 -0.5058,-0.6733 -3.7185,-0.002 -4.417,-1.2492 -1.1422,-2.0394 -0.8273,-2.2176 -2.7671,-3.7003 -1.111,-0.8493 -0.3186,-2.7376 -2.8828,-4.1809z"/>
  <path class="fil4 str2" d="M304.206 248.616c-3.3336,-4.4387 -7.3319,-6.0386 -12.6399,-9.1415"/>
  <line class="fil4 str2" x1="295.354" y1="241.611" x2="295.742" y2= "244.066" />
  <path class="fil2 str2" d="M277.134 240.774c1.1432,-0.1728 2.0733,-0.8246 2.7156,-2.285l1.1388 0.1752 -1.0564 1.8764c2.2931,-0.0218 3.6379,-0.8226 4.0348,-2.402l1.4892 0c-1.0124,2.6021 8.334,-2.7095 9.2152,-7.6036l0.6142 -0.6842c3.3343,-1.3553 5.6935,-5.1551 7.3559,-7.7192 0.1314,0.0938 0.2383,0.179 0.3134,0.256 0.418,0.4289 0.7452,0.976 0.9962,1.5994 -3.3212,5.4283 -8.1588,6.9004 0.525,6.9505 -0.0806,0.5946 -0.1849,1.1482 -0.3034,1.6349 -5.9516,-0.2054 -6.4613,-1.6271 -7.7333,0.051 -1.206,1.591 -5.3577,5.8859 -3.9296,5.8536l-1.8684 1.9376c-1.5936,-0.681 -2.4192,0.1767 -3.8142,0.6078 -5.6754,1.7538 -9.2018,2.0751 -12.2001,2.2124 0.3969,-0.9965 1.0103,-1.8203 1.6813,-2.4342l0.8258 -0.0266z"/>
  <path class="fil2 str2" d="M279.822 238.459c-0.942,-3.3227 -3.9032,-3.0919 -4.1672,-4.9282 -0.3593,-2.4988 1.7422,-1.4407 1.8156,-3.1752 0.0881,-2.0821 -2.6869,-2.1362 -1.8255,-6.0321l12.8437 -2.3132 -7.4586 16.6705 -1.208 -0.2218z"/>
  <path class="fil2 str2" d="M283.967 238.138c-0.3133,-2.7106 -4.7282,-2.4311 -4.6047,-4.4116 0.1386,-2.2232 3.8724,-1.2491 4.0484,-3.5275 0.1489,-1.9266 -2.2406,-2.7089 -0.9829,-5.492l5.8316 -2.2493c4.4971,1.1584 5.1283,3.3227 1.1002,7.7157 -0.9389,1.024 2.2223,1.5897 1.5759,3.047 -0.6457,1.4558 -2.876,-0.7506 -5.4793,4.9177l-1.4892 0z"/>
  <path class="fil4 str2" d="M284.722 238.122c0.5742,-4.4091 1.5086,-8.5031 2.6826,-12.3873"/>
  <path class="fil2 str2" d="M292.552 238.489l-1.278 1.278c4.0337,0.6679 4.1678,1.4837 6.6982,4.1751 3.5197,3.7437 2.9764,-3.5643 5.1113,-1.1761 1.4374,1.6079 1.3149,4.9714 3.5618,4.9498 2.2212,-0.0214 0.1855,-5.1972 2.3889,-3.7507 1.9215,1.2614 3.1955,3.795 4.8869,3.4822 1.38,-0.2552 1.7222,-3.9708 0.4209,-5.3765 -1.7721,-1.9143 1.8065,-1.3622 0.3764,-3.8394 -0.5036,-0.8724 -3.4669,-0.3976 -4.6342,-1.0154 -1.1267,-0.5963 0.7464,-3.1657 -1.8809,-3.376 -2.639,-0.2112 -2.2493,2.2734 -3.8582,2.3563 -1.4717,0.0759 -2.2156,-2.42 -4.9179,-0.1032 -3.3908,2.9071 -4.3337,1.989 -6.8752,2.3959z"/>
  <path class="fil4 str2" d="M292.542 238.459c9.2684,-1.1175 15.776,0.2629 19.5228,4.1412"/>
  <path class="fil4 str2" d="M308.12 236.881c-1.3804,0.3944 -2.7608,1.1832 -4.0426,1.6762l2.0706 3.7468"/>
  <polyline class="fil4 str2" points="301.317,237.079 299.838,238.163 300.428,240.711 "/>
  <path class="fil3 str3" d="M298.658 163.576c0.1482,1.399 0.2901,2.6663 0.5029,3.4968 0.1367,0.5336 1.6474,3.6057 3.0245,3.0902 0.6093,-0.228 0.1187,-1.0907 0.5316,-2.0752l-0.0022 -0.0013 0.0048 0.0028c0.0975,0.0564 0.195,0.1135 0.2922,0.1712l0.0119 0.0071c0.0902,0.0536 0.1801,0.1077 0.2697,0.1623l0.0505 0.0307c0.0911,0.0557 0.1818,0.1117 0.2724,0.1684l0.0058 0.0036 0.0052 0.0033 0.0005 0.0003c0.0866,0.0543 0.1729,0.1091 0.259,0.1642l0.0765 0.0492c0.0644,0.0415 0.1287,0.0835 0.1928,0.1256l0.113 0.0745c0.0664,0.044 0.1325,0.0882 0.1986,0.1327l0.0999 0.0677c0.0613,0.0417 0.1226,0.0836 0.1835,0.1258l0.1294 0.0902 0.1023 0.0719 0.051 0.036c0.0526,0.0372 0.105,0.0748 0.1573,0.1124l0.0967 0.0698 0.0506 0.0367 0.0967 0.0708 0.004 0.0029 0.0503 0.0372 0.1068 0.0792 0.1302 0.0977 0.0126 0.0095 0.0496 0.0377 0.0906 0.069 0.1338 0.1031 0.0219 0.017 0 0.0001c4.6761,3.6334 7.8611,8.5078 5.6012,12.5306 2.1086,-3.6857 1.0467,-9.2146 1.9898,-11.5012 1.4392,-3.4887 4.4884,-5.8641 0.263,-8.8105 -4.578,-3.1922 -6.5951,-3.9459 -7.3329,-6.312l-9.3669 0c0.8769,1.5038 1.1846,4.6699 1.4689,7.352z"/>
  <path class="fil4 str4" d="M302.715 168.086c6.5018,3.7562 12.0361,10.2426 8.6262,15.2362 -0.4639,0.6794 -0.9748,1.2405 -1.4883,1.7212"/>
  <path class="fil4 str4" d="M296.941 155.864c1.5816,1.919 1.562,8.6447 2.2193,11.2089 0.1367,0.5336 1.6474,3.6057 3.0245,3.0902 0.6093,-0.228 0.1187,-1.0907 0.5316,-2.0752 0.8163,-1.9466 1.9096,-3.1681 3.0578,-4.3529"/>
  <path class="fil4 str4" d="M311.341 183.323c2.5022,-3.6684 1.3003,-9.5892 2.2849,-11.9762 1.4392,-3.4887 4.4884,-5.8641 0.263,-8.8105 -6.1943,-4.3193 -7.7007,-4.1737 -7.6923,-9.5995 0.0146,-9.471 -4.6956,-5.5482 -4.9323,-12.3821"/>
  <path class="fil2 str2" d="M190.02 183.296c3.0755,-0.9829 8.2506,0.449 25.1101,-6.5132 -18.6705,-4.446 -17.6952,-3.0928 -25.1101,6.5132z"/>
  <path class="fil2 str2" d="M192.491 170.201l-0.3428 10.2896c-0.9059,-0.6277 -5.5481,-14.5637 0.3428,-10.2896z"/>
  <path class="fil2 str2" d="M187.593 186.104l-0.7008 -1.0512c3.3024,-3.1616 4.3631,-3.3955 4.5944,-6.9558 0.1691,-2.6019 -0.9187,-6.1709 -0.1803,-7.9151 2.658,-6.2783 2.8861,3.8682 4.8069,-2.133 1.4249,-4.4522 2.5217,-5.4697 4.3323,-4.1591 0.8405,0.6085 0.9344,2.7925 -0.3176,5.5341 -2.1761,4.7653 2.9292,2.5312 -0.4103,6.551 -3.1398,3.7794 -8.9255,5.9419 -12.1246,10.1291z"/>
  <path class="fil4 str2" d="M195.817 173.531c-1.4266,5.9532 -4.8913,8.5095 -8.5747,12.0473"/>
  <path class="fil3 str3" d="M197.342 163.576c-0.1482,1.399 -0.2901,2.6663 -0.5029,3.4968 -0.1367,0.5336 -1.6474,3.6057 -3.0245,3.0902 -0.6093,-0.228 -0.1187,-1.0907 -0.5316,-2.0752l0.0022 -0.0013 -0.0048 0.0028c-0.0975,0.0564 -0.195,0.1135 -0.2922,0.1712l-0.0119 0.0071c-0.0902,0.0536 -0.1801,0.1077 -0.2697,0.1623l-0.0505 0.0307c-0.0911,0.0557 -0.1818,0.1117 -0.2724,0.1684l-0.0058 0.0036 -0.0052 0.0033 -0.0005 0.0003c-0.0866,0.0543 -0.1729,0.1091 -0.259,0.1642l-0.0765 0.0492c-0.0644,0.0415 -0.1287,0.0835 -0.1928,0.1256l-0.113 0.0745c-0.0664,0.044 -0.1325,0.0882 -0.1986,0.1327l-0.0999 0.0677c-0.0613,0.0417 -0.1226,0.0836 -0.1835,0.1258l-0.1294 0.0902 -0.1023 0.0719 -0.051 0.036c-0.0526,0.0372 -0.105,0.0748 -0.1573,0.1124l-0.0967 0.0698 -0.0506 0.0367 -0.0967 0.0708 -0.004 0.0029 -0.0503 0.0372 -0.1068 0.0792 -0.1302 0.0977 -0.0126 0.0095 -0.0496 0.0377 -0.0906 0.069 -0.1338 0.1031 -0.0219 0.017 0 0.0001c-4.6761,3.6334 -7.8611,8.5078 -5.6012,12.5306 -2.1086,-3.6857 -1.0467,-9.2146 -1.9898,-11.5012 -1.4392,-3.4887 -4.4884,-5.8641 -0.263,-8.8105 4.578,-3.1922 6.5951,-3.9459 7.3329,-6.312l9.3669 0c-0.8769,1.5038 -1.1846,4.6699 -1.4689,7.352z"/>
  <path class="fil4 str4" d="M193.285 168.086c-6.5018,3.7562 -12.0361,10.2426 -8.6262,15.2362 0.4639,0.6794 0.9748,1.2405 1.4883,1.7212"/>
  <path class="fil4 str4" d="M199.059 155.864c-1.5816,1.919 -1.562,8.6447 -2.2193,11.2089 -0.1367,0.5336 -1.6474,3.6057 -3.0245,3.0902 -0.6093,-0.228 -0.1187,-1.0907 -0.5316,-2.0752 -0.8163,-1.9466 -1.9096,-3.1681 -3.0578,-4.3529"/>
  <path class="fil4 str4" d="M184.659 183.323c-2.5022,-3.6684 -1.3003,-9.5892 -2.2849,-11.9762 -1.4392,-3.4887 -4.4884,-5.8641 -0.263,-8.8105 6.1943,-4.3193 7.7007,-4.1737 7.6923,-9.5995 -0.0146,-9.471 4.6956,-5.5482 4.9323,-12.3821"/>
  <path class="fil5 str5" d="M202.919 123.259l90 0 0 91.3425c0,6.0741 -4.8759,10.9766 -10.95,10.9766l-23.0214 0.584c-5.6134,0 -10.1706,4.2068 -10.8297,9.6391l-0.1661 0c-0.6705,-5.4323 -5.3026,-9.6391 -10.916,-9.6391l-23.0215 -0.584c-6.0741,0 -11.0953,-4.9025 -11.0953,-10.9766l0 -91.3425z"/>
  <path class="fil6" d="M250.425 149.326c-6.2291,-1.0602 -6.1062,-6.5682 -4.771,-10.9924 0.622,-2.0608 2.9384,-6.2818 8.039,-8.0385 -5.9093,-0.3571 -6.938,4.2376 -7.9357,3.8311 -0.6533,-0.2662 0.2105,-4.3919 0.9787,-6.1537 -3.2417,1.9847 -2.3654,7.6707 -2.5742,9.5415 -0.4987,4.4673 -1.3686,5.0793 -4.1643,1.5508 -0.9249,-1.1674 -1.1698,-2.2319 -1.5875,-4.9965 -1.6846,6.0377 3.9197,8.942 5.1838,11.2439 0.5525,1.0061 -0.4765,1.6556 -2.3233,0.8757 -1.0415,-0.4398 -1.2245,-0.6187 -2.2109,-2.1932 1.0639,5.5761 4.5889,2.0436 7.0005,6.1663 0.9357,-0.2318 1.8374,-0.2132 2.7051,0.0555l1.6598 -0.8905z"/>
  <path class="fil7 str6" d="M274.954 177.574l0.8895 1.2c0.494,-0.2318 1.3329,-0.5891 1.3581,-1.6358 0.0461,-1.9171 -0.2901,0.3398 -2.2423,0.4354 -2.8727,-2.4112 -3.9289,-4.0455 -8.8977,-3.9708 -4.2874,0.0645 -3.9215,1.474 -7.2623,1.5953 -2.1727,0.0788 -2.3577,-1.0532 -5.5248,-1.2116 -2.0273,-0.1014 -4.0061,1.4989 -5.0545,0.5604 -1.1107,-0.9941 -1.124,-3.8723 -0.2298,-4.8863 4.9902,-5.6594 4.8921,-12.7079 4.0391,-16.1714 -0.2336,-0.0408 -0.4774,-0.09 -0.7487,-0.1496 1.8859,0.4143 3.2446,0.5334 4.0356,-1.6031 0.4342,-1.1726 -0.0528,-0.998 -0.4956,-0.5181 -0.8523,0.9237 -2.3893,1.1361 -3.3151,0.8381 -0.9401,-1.1995 -2.4008,-1.9834 -3.8957,-2.0356 -2.976,-0.1039 -2.4604,1.4004 -6.2043,1.931l0.1168 0.4763 -0.1168 -0.4763c-0.7347,0.1041 -1.6578,0.1777 -2.8432,0.2025l-0.5951 2.2229c3.7001,0.0507 4.9088,1.3586 1.2778,1.341 -0.5659,-0.0027 -1.8529,-0.1928 -1.418,0.5851 0.3532,0.6318 0.6553,0.2649 1.389,0.2452 0.6472,-0.0174 1.4971,0.0469 2.3887,0.1586 0.9054,0.1134 1.1421,1.4328 2.7229,1.6779 1.8483,0.2866 3.4454,-0.951 5.0518,-3.098 -1.6064,2.147 -3.2034,3.3847 -5.0518,3.098 -0.0484,2.0296 -0.5384,4.4264 -3.2225,4.9269 -1.0961,0.2043 -9.949,1.8017 -9.983,10.1035 -0.0138,3.3604 -0.0549,3.3025 0.0581,5.1726 0.1188,1.9658 0.7363,3.2921 1.1586,4.6487 -3.4166,0.7667 -3.7193,1.2889 -5.5008,1.7569 -2.8612,0.7515 -5.8318,1.0104 -9.042,0.8327l-0.6111 0.3997c-1.4847,3.5761 -5.7972,6.1579 -9.2558,9.1267l-0.0542 0.2644c0.3273,1.4208 0.0276,2.9702 -0.2162,4.2773l1.6829 -0.5854c-0.0851,-1.179 0.0876,-2.2826 0.658,-3.1843l0.9004 -0.418c2.8042,-3.1214 5.4813,-5.1473 8.6086,-7.4604 2.33,-0.8447 5.4674,-0.7783 7.3433,-0.4889 2.4973,0.3852 4.5655,2.1829 7.7729,2.8661 -0.2657,-1.204 -0.2899,-2.5275 -0.2359,-3.5053 -0.054,0.9778 -0.0298,2.3013 0.2359,3.5053 0.2851,1.2918 0.5843,2.6576 1.0119,3.4736 1.4002,2.6717 1.7732,4.7041 1.4239,8.2167l0.1559 0.4246c2.0304,2.8641 3.8344,5.9427 4.7555,10.4515l0.0156 0.2017c-0.0574,1.2096 -1.2268,3.2938 -2.8797,5.1786l1.7108 0.4967c0.8406,-1.5554 2.2557,-3.2183 3.7961,-4.4492l0.0274 -0.6313c-1.9608,-3.7886 -3.4345,-8.1659 -4.225,-12.5449l-0.0992 -0.3971c-1.2535,-2.4535 -1.279,-7.5477 0.8481,-9.2318 0.6835,-0.5412 0.0933,-5.1052 0.1399,-7.6578 -0.0466,2.5526 0.5436,7.1166 -0.1399,7.6578 3.9657,3.5254 10.0092,0.35 17.3431,-1.4864 1.833,-0.459 3.3403,-1.0467 4.4935,-1.6606 -1.1532,0.6139 -2.6603,1.2016 -4.4935,1.6606 -1.6529,1.4316 -1.4691,6.1286 0.9318,14.767 0.0382,1.9564 -2.8209,6.2751 -5.2358,8.5229 -0.6902,2.1112 -1.5941,3.4278 -3.1393,4.9541l1.7108 0.4967c0.7943,-1.6762 1.923,-2.7873 2.9433,-3.3076l0.6731 -0.6066c0.5451,-2.8385 3.89,-6.9527 6.1721,-9.663l0 -1.0564c-1.864,-2.3698 -1.9991,-3.4104 -2.0095,-4.3095 -0.0332,-2.8783 4.7022,-2.8662 6.4774,-6.9975 -1.9671,-1.1623 -4.1442,-3.8851 -5.5779,-7.7876 1.4337,3.9025 3.6108,6.6253 5.5779,7.7876 7.9138,4.676 10.6607,5.9939 14.1535,11.0111 1.6803,2.4135 2.8628,6.0362 4.2346,10.1234 -0.871,1.7874 -1.7606,3.1185 -2.8654,4.3094l1.7108 0.4967c0.7199,-1.0907 1.987,-3.122 3.2756,-3.2199l-0.2793 -1.4771c-1.8572,-3.5727 -2.5474,-7.2227 -2.9927,-11.3627l-0.6029 -1.098c-5.0336,-3.094 -8.7369,-8.1049 -8.0407,-12.6879 0.4662,-3.0686 3.713,-4.6636 0.2169,-10.4474l-0.8895 -1.2z"/>
  <ellipse class="fil6" cx="245.697" cy="152.739" rx="0.799298" ry="0.514224"/>
  <path class="fil4 str4" d="M297.396 142.132c-1.9126,1.7629 -7.9052,4.6927 -0.4548,13.7319"/>
  <path class="fil4 str4" d="M198.604 142.132c1.9126,1.7629 7.9052,4.6927 0.4548,13.7319"/>
  <path class="fil8 str7" d="M238.57 152.143l-0.6033 2.2341c-0.6174,-0.0003 -0.8571,-0.8072 -0.8267,-1.5991 0.0245,-0.6371 0.4677,-0.6499 1.43,-0.635z"/>
  <path class="fil6 str8" d="M252.727 220.706l0.0497 -1.639 -1.7108 -0.4967c-1.0087,0.4973 -1.671,1.2033 -2.2901,2.1357l3.9512 0z"/>
  <path class="fil6 str8" d="M240.769 220.706l0.0497 -1.639 -1.7108 -0.4967c-1.0087,0.4973 -1.671,1.2033 -2.2901,2.1357l3.9512 0z"/>
  <path class="fil6 str8" d="M284.217 220.706l0.0497 -1.639 -1.7108 -0.4967c-1.0087,0.4973 -1.671,1.2033 -2.2901,2.1357l3.9512 0z"/>
  <path class="fil6 str8" d="M210.249 200.675l-0.9081 -1.3653 -1.6826 0.5852c-0.5347,0.9894 -0.6662,1.9485 -0.6313,3.0672l3.222 -2.2871z"/>
  <path class="fil6" d="M248.765 150.216c0.8678,0.2687 1.7016,0.7877 2.5014,1.557 3.9888,-3.4782 9.3012,-4.2361 11.6542,-8.9957 1.5477,-3.1305 2.0137,-11.0856 -0.6496,-15.6379 1.538,11.3429 -0.4956,14.6423 -3.0566,3.944 -1.137,6.1837 4.2133,10.2242 0.6061,13.4728 -1.9106,1.7208 -3.2141,-0.3945 -4.5501,-5.4862 -1.777,4.6751 1.7387,6.2191 -0.0105,8.0489 -1.9557,2.046 -4.4384,1.8701 -4.8209,-2.9217 -1.1902,1.6349 -0.5965,3.5999 -0.0142,5.1283l-1.302 -0.1535 -2.1431 0.0064 1.7853 1.0376z"/>
  <path class="fil9 str9" d="M251.402 93.1003c1.3878,-8.6897 2.4199,-11.3877 5.6555,-16.3445 19.0348,-2.6082 29.863,16.247 13.3237,32.6527l-17.8047 -3.0879 -3.1747 -7.2051 2.0002 -6.0152z"/>
  <path class="fil9 str9" d="M244.6 93.1003c-1.3878,-8.6897 -2.4199,-11.3877 -5.6555,-16.3445 -19.0348,-2.6082 -29.863,16.247 -13.3237,32.6527l17.8047 -3.0879 3.1747 -7.2051 -2.0002 -6.0152z"/>
  <polygon class="fil2 str1" points="251.972,89.7788 251.402,93.1003 249.423,99.1133 252.563,106.328 270.398,109.401 272.937,106.595 273.07,112.674 222.903,112.674 223.037,106.595 225.575,109.401 243.411,106.328 246.551,99.1133 244.6,93.1003 243.935,89.7788 "/>
  <path class="fil2 str1" d="M235.379 107.948c-0.2445,-13.4497 -1.4582,-20.9902 -3.535,-31.341 2.451,-0.3214 4.2947,-0.3034 6.4243,-0.1591 2.4455,8.4953 4.0864,20.5831 4.073,30.8553l-6.9623 0.6448z"/>
  <path class="fil2 str1" d="M231.628 101.871c1.6192,-0.2058 2.3202,0.181 2.8664,1.5129l0.2739 -0.0489c0.3154,-2.0421 0.5448,-2.4206 2.0573,-3.192l-0.0617 -0.4428c-1.6525,-0.2096 -1.9755,-0.49 -2.8422,-2.3222l-0.2738 0.0483c-0.1497,1.4555 -0.7121,2.0626 -2.3087,2.4277 -0.2618,-2.4848 0.1566,-3.5557 1.6498,-4.3686l-0.0603 -0.4206c-2.3099,-0.5204 -2.7415,-0.8786 -3.6396,-3.2107l-0.4979 0.0865c-0.2062,2.5281 -0.517,3.018 -2.5686,4.3124l0.0595 0.4208c1.6453,0.2558 2.3405,1.1289 2.7815,3.582 -1.6192,0.2059 -2.3226,-0.1764 -2.869,-1.5084l-0.2739 0.0488c-0.3151,2.0421 -0.5444,2.4207 -2.0571,3.1922l0.0642 0.4421c1.6523,0.2096 1.9754,0.4902 2.8422,2.3225l0.274 -0.0485c0.1496,-1.4555 0.7122,-2.0626 2.3087,-2.4275 0.0879,3.2591 0.0209,6.4654 -1.7955,7.2343 2.5808,-0.7467 5.2524,-1.2521 7.9994,-1.5572 -1.9405,-0.102 -3.1775,-2.9415 -3.9286,-6.0831z"/>
  <path class="fil2 str1" d="M220.323 105.004c2.0507,3.0857 2.232,4.8182 4.8734,5.3005 -0.9323,0.4178 -2.0327,1.1368 -2.2067,2.0599 -1.0704,-2.0981 -1.9722,-4.1149 -3.5204,-6.9907l0.1618 1.3654c-1.1951,-1.3058 -1.797,-3.1135 -2.0888,-4.7712l0.997 1.2106c-0.6395,-2.1574 -0.3996,-2.0669 -1.2941,-4.1178 -0.1173,-0.3796 -0.3059,-1.3905 -0.3555,-1.8607 0.0761,-0.8256 -0.0016,-1.9738 -0.1355,-3.2285l0.2904 -0.0196c0.9021,2.7017 0.6724,3.0491 2.0766,3.6242l0.137 0.4825c-0.6189,0.9687 -0.7476,2.198 0.0584,4.8901 0.6668,-0.5288 0.7576,-1.2138 0.6913,-2.7538l0.1823 -0.0695c0.654,1.8256 0.9828,2.1004 1.9044,2.1487l0.1061 0.4276c-0.4783,0.9417 -0.4432,1.3509 0.4383,3.4524l-0.1042 0.0772c-1.0259,-1.2852 -1.5236,-1.6075 -2.2118,-1.2273z"/>
  <path class="fil2 str1" d="M260.623 107.948c0.2445,-13.4497 1.4582,-20.9902 3.535,-31.341 -2.451,-0.3214 -4.2947,-0.3034 -6.4243,-0.1591 -2.4455,8.4953 -4.0864,20.5831 -4.073,30.8553l6.9623 0.6448z"/>
  <path class="fil2 str1" d="M264.374 101.871c-1.6192,-0.2058 -2.3202,0.181 -2.8664,1.5129l-0.2739 -0.0489c-0.3154,-2.0421 -0.5448,-2.4206 -2.0573,-3.192l0.0617 -0.4428c1.6525,-0.2096 1.9755,-0.49 2.8422,-2.3222l0.2738 0.0483c0.1497,1.4555 0.7121,2.0626 2.3087,2.4277 0.2618,-2.4848 -0.1566,-3.5557 -1.6498,-4.3686l0.0603 -0.4206c2.3099,-0.5204 2.7415,-0.8786 3.6396,-3.2107l0.4979 0.0865c0.2062,2.5281 0.517,3.018 2.5686,4.3124l-0.0595 0.4208c-1.6453,0.2558 -2.3405,1.1289 -2.7815,3.582 1.6192,0.2059 2.3226,-0.1764 2.869,-1.5084l0.2739 0.0488c0.3151,2.0421 0.5444,2.4207 2.0571,3.1922l-0.0642 0.4421c-1.6523,0.2096 -1.9754,0.4902 -2.8422,2.3225l-0.274 -0.0485c-0.1496,-1.4555 -0.7122,-2.0626 -2.3087,-2.4275 -0.0879,3.2591 -0.0209,6.4654 1.7955,7.2343 -2.5808,-0.7467 -5.2524,-1.2521 -7.9994,-1.5572 1.9405,-0.102 3.1775,-2.9415 3.9286,-6.0831z"/>
  <path class="fil2 str1" d="M275.679 105.004c-2.0507,3.0857 -2.232,4.8182 -4.8734,5.3005 0.9323,0.4178 2.0327,1.1368 2.2067,2.0599 1.0704,-2.0981 1.9722,-4.1149 3.5204,-6.9907l-0.3966 1.2298c1.1951,-1.3058 1.797,-3.1135 2.0888,-4.7712l-0.7622 1.3462c0.6395,-2.1574 0.3996,-2.0669 1.2941,-4.1178 0.1173,-0.3796 0.3059,-1.3905 0.3555,-1.8607 -0.0761,-0.8256 0.0016,-1.9738 0.1355,-3.2285l-0.2904 -0.0196c-0.9021,2.7017 -0.6724,3.0491 -2.0766,3.6242l-0.137 0.4825c0.6189,0.9687 0.7476,2.198 -0.0584,4.8901 -0.6668,-0.5288 -0.7576,-1.2138 -0.6913,-2.7538l-0.1823 -0.0695c-0.654,1.8256 -0.9828,2.1004 -1.9044,2.1487l-0.1061 0.4276c0.4783,0.9417 0.4432,1.3509 -0.4383,3.4524l0.1042 0.0772c1.0259,-1.2852 1.5236,-1.6075 2.2118,-1.2273z"/>
  <path class="fil2 str1" d="M250.454 94.4242c0.4195,-13.6144 0.7636,-11.5544 2.1651,-16.4188l-9.201 0c1.4015,4.8644 1.7108,2.8044 2.1303,16.4188l4.9056 0z"/>
  <path class="fil0 str1" d="M252.619 78.0054c-0.5029,2.0743 -2.3717,3.6155 -4.6005,3.6155 -2.2288,0 -4.0976,-1.5412 -4.6005,-3.6155l9.201 0z"/>
  <path class="fil0 str1" d="M246.9 75.7683l-3.4821 0c0.4158,-1.7159 1.7664,-3.0667 3.4821,-3.4825l0 3.4825z"/>
  <path class="fil0 str1" d="M249.137 72.2859c1.7156,0.4159 3.0662,1.7666 3.482,3.4824l-3.482 0 0 -3.4824z"/>
  <path class="fil10 str1" d="M249.137 72.2859l0 3.4824 3.482 0c0.0869,0.3586 0.1334,0.7333 0.1334,1.1186 0,0.3855 -0.0466,0.7597 -0.1335,1.1185l-9.201 0c-0.0869,-0.3588 -0.1335,-0.733 -0.1335,-1.1185 0,-0.3853 0.0465,-0.76 0.1334,-1.1186l3.4821 0 0 -3.4826c0.3586,-0.0869 0.7332,-0.1328 1.1185,-0.1328 0.3855,0 0.7599,0.0461 1.1186,0.133z"/>
  <path class="fil2 str10" d="M247.389 67.7019c-2.0551,0 -2.7314,0.291 -3.2387,1.0533l0 -3.3646c0.5073,0.7623 1.1836,1.0533 3.2387,1.0533 0,-2.0551 -0.291,-2.7314 -1.0533,-3.2387l3.3646 0c-0.7623,0.5073 -1.0533,1.1836 -1.0533,3.2387 2.0551,0 2.7314,-0.291 3.2387,-1.0533l0 3.3646c-0.5073,-0.7623 -1.1836,-1.0533 -3.2387,-1.0533 0,2.0551 0.291,2.7314 1.0533,3.2387l0 1.5202c-0.5229,-0.199 -1.0897,-0.3079 -1.6823,-0.3079 -0.5925,0 -1.1595,0.1089 -1.6823,0.3078l0 -1.5201c0.7623,-0.5073 1.0533,-1.1836 1.0533,-3.2387z"/>
  <path class="fil2 str1" d="M248.306 90.3985c0.6915,2.4543 1.1564,2.8826 3.8876,3.7989l0.0005 0.4249c-1.9653,0.5397 -2.6627,1.5214 -2.7749,4.015 2.0137,-0.0803 2.8065,-0.5799 3.2423,-1.9876l0.3431 0.0002c0.74,1.9565 1.0859,2.2894 3.0679,2.7848l-0.0015 0.4468c-1.982,0.4954 -2.3279,0.8283 -3.0681,2.7848l-0.3431 0.0002c-0.4358,-1.4077 -1.2286,-1.9073 -3.2423,-1.9876 0.4593,3.2258 0.797,6.2176 3.1496,6.6574l-9.132 0c2.3526,-0.4398 2.6903,-3.4316 3.1496,-6.6574 -2.0137,0.0803 -2.8065,0.5799 -3.2423,1.9876l-0.3431 -0.0002c-0.7402,-1.9565 -1.0861,-2.2894 -3.0681,-2.7848l-0.0015 -0.4468c1.982,-0.4954 2.3279,-0.8283 3.0679,-2.7848l0.3431 -0.0002c0.4358,1.4077 1.2286,1.9073 3.2423,1.9876 -0.1122,-2.4936 -0.8096,-3.4753 -2.7749,-4.015l0.0005 -0.4249c2.7312,-0.9163 3.1961,-1.3446 3.8876,-3.7989 0.2032,0 0.4066,0 0.6098,0z"/>
  <rect class="fil11 str11" x="245.851" y="97.3864" width="4.3" height="4.3" rx="1.0996" ry="1.0996"/>
  <rect class="fil11 str11" transform="matrix(1.10829 0.151311 -0.158692 1.16235 263.96 98.6667)" width="3.6654" height="3.6654" rx="1.0996" ry="1.0996"/>
  <rect class="fil11 str11" transform="matrix(-1.10829 0.151311 0.158692 1.16235 232.042 98.6667)" width="3.6654" height="3.6654" rx="1.0996" ry="1.0996"/>
  <rect class="fil11 str11" transform="matrix(0.198672 0.0951855 -0.506885 1.05797 277.287 102.075)" width="3.6654" height="3.6654" rx="1.0996" ry="1.0996"/>
  <path class="fil11 str11" d="M277.81 102.325c1.2279,0.4655 -0.6687,4.3324 -1.858,3.8779 -0.0907,-0.0347 0.0918,-0.5997 0.3983,-1.2395l0.7432 -1.5512c0.3066,-0.6399 0.6257,-1.1217 0.7165,-1.0872z"/>
  <rect class="fil0 str11" x="246.751" y="83.1097" width="2.5" height="2.5" rx="0.904" ry="0.904"/>
  <rect class="fil0 str11" x="246.751" y="86.7925" width="2.5" height="2.5" rx="0.904" ry="0.904"/>
  <rect class="fil0 str11" x="255.78" y="101.303" width="3" height="3" rx="0.904" ry="0.904"/>
  <rect class="fil0 str11" x="256.142" y="97.2972" width="2.8" height="2.8" rx="0.904" ry="0.904"/>
  <rect class="fil0 str11" x="256.549" y="93.3411" width="2.7" height="2.7" rx="0.904" ry="0.904"/>
  <rect class="fil0 str11" x="257.045" y="89.4511" width="2.6" height="2.6" rx="0.904" ry="0.904"/>
  <rect class="fil0 str11" x="257.624" y="85.647" width="2.5" height="2.5" rx="0.904" ry="0.904"/>
  <rect class="fil0 str11" x="258.337" y="81.6577" width="2.4" height="2.4" rx="0.904" ry="0.904"/>
  <rect class="fil0 str11" x="259.102" y="78.0188" width="2.3" height="2.3" rx="0.904" ry="0.904"/>
  <rect class="fil0 str11" x="237.221" y="101.303" width="3" height="3" rx="0.904" ry="0.904"/>
  <rect class="fil0 str11" x="237.059" y="97.2972" width="2.8" height="2.8" rx="0.904" ry="0.904"/>
  <rect class="fil0 str11" x="236.752" y="93.3411" width="2.7" height="2.7" rx="0.904" ry="0.904"/>
  <rect class="fil0 str11" x="236.357" y="89.4511" width="2.6" height="2.6" rx="0.904" ry="0.904"/>
  <rect class="fil0 str11" x="235.877" y="85.647" width="2.5" height="2.5" rx="0.904" ry="0.904"/>
  <rect class="fil0 str11" x="235.265" y="81.6577" width="2.4" height="2.4" rx="0.904" ry="0.904"/>
  <rect class="fil0 str11" x="234.6" y="78.0188" width="2.3" height="2.3" rx="0.904" ry="0.904"/>
  <rect class="fil11 str11" transform="matrix(-0.198672 0.0951855 0.506885 1.05797 218.714 102.075)" width="3.6654" height="3.6654" rx="1.0996" ry="1.0996"/>
  <path class="fil11 str11" d="M218.191 102.325c-1.2279,0.4655 0.6687,4.3324 1.858,3.8779 0.0907,-0.0347 -0.0918,-0.5997 -0.3983,-1.2395l-0.7432 -1.5512c-0.3066,-0.6399 -0.6257,-1.1217 -0.7165,-1.0872z"/>
  <path class="fil3 str3" d="M284.729 112.986c-1.5783,0.6111 -2.7634,0.4443 -1.5417,3.3879 2.1319,5.1369 -1.0316,4.9271 -3.4899,6.0842 -0.6721,0.3163 -1.3218,0.6896 -1.945,1.0432l0.0052 0.0015c-4.4154,2.6369 -5.8983,1.3942 -7.3306,0.0753 -1.9347,-1.7813 -5.4243,-0.31 -7.4342,-1.2134 -1.6308,-0.7329 -3.2053,-4.5311 -3.4637,-7.8108l9.2603 -0.0595c-0.056,0.9863 0.0346,1.777 0.2227,2.4574 4.7268,6.4107 5.7348,3.2896 7.3487,2.2371 1.3949,-0.9097 4.6727,-0.1514 2.3974,-4.3131 -3.1118,-5.6918 4.1078,-8.984 6.2795,-7.2409 3.1394,2.5199 6.1392,-0.4323 5.4906,5.3082l0.0131 0.0052 3.0912 -0.7087 -0.0066 0.008 -0.0026 -0.0016 -0.0344 0.008c0.3697,-0.1669 2.2902,0.6503 2.8707,1.9967 0.7488,1.7369 -0.6989,1.8887 -8.5399,5.0463 -0.051,0.0321 -0.1054,0.0546 -0.1635,0.0659l-0.0051 0.0021 0.0009 -0.0011c-0.6558,0.1206 -1.7512,-1.195 -3.0159,-6.3418l0.0007 -0.0006 -0.0079 -0.0355z"/>
  <path class="fil4 str4" d="M268.79 114.494c-0.2304,4.0576 2.0129,4.8113 3.3769,8.1454 1.6708,4.0841 4.3562,1.3127 7.5311,-0.1817 2.4583,-1.1571 5.6218,-0.9473 3.4899,-6.0842 -1.5815,-3.8106 0.8693,-2.4078 2.9866,-4.229 3.8589,-3.3193 4.2587,-1.9784 4.3544,0.7982"/>
  <path class="fil4 str4" d="M259.529 114.554c0.2584,3.2797 1.8329,7.0779 3.4637,7.8108 2.0099,0.9034 5.4995,-0.5679 7.4342,1.2134 1.4323,1.3189 2.9152,2.5616 7.3306,-0.0753"/>
  <path class="fil4 str4" d="M290.529 112.943c0.6486,-5.7405 -2.3512,-2.7883 -5.4906,-5.3082 -2.1717,-1.7431 -9.3913,1.5491 -6.2795,7.2409 2.2753,4.1617 -1.0025,3.4034 -2.3974,4.3131 -1.614,1.0526 -2.622,4.174 -7.3495,-2.2381"/>
  <path class="fil4 str4" d="M284.736 113.022c2.3664,9.63 4.1412,5.8503 3.5496,4.3384"/>
  <path class="fil4 str4" d="M295.451 113.85c-4.4378,-2.583 0.0639,-1.7922 1.0094,0.4008 0.7542,1.7494 -0.7186,1.8903 -8.7085,5.1143m7.6991 -5.5151c-2.5151,0.9305 -5.2141,2.0686 -8.1706,3.8644 -1.4596,-2.4274 -2.2566,-3.5483 2.5917,-4.6124l3.7548 -0.8609"/>
  <path class="fil3 str3" d="M211.273 112.986c1.5783,0.6111 2.7634,0.4443 1.5417,3.3879 -2.1319,5.1369 1.0316,4.9271 3.4899,6.0842 0.6721,0.3163 1.3218,0.6896 1.945,1.0432l-0.0052 0.0015c4.4154,2.6369 5.8983,1.3942 7.3306,0.0753 1.9347,-1.7813 5.4243,-0.31 7.4342,-1.2134 1.6308,-0.7329 3.2053,-4.5311 3.4637,-7.8108l-9.2603 -0.0595c0.056,0.9863 -0.0346,1.777 -0.2227,2.4574 -4.7268,6.4107 -5.7348,3.2896 -7.3487,2.2371 -1.3949,-0.9097 -4.6727,-0.1514 -2.3974,-4.3131 3.1118,-5.6918 -4.1078,-8.984 -6.2795,-7.2409 -3.1394,2.5199 -6.1392,-0.4323 -5.4906,5.3082l-0.0131 0.0052 -3.0912 -0.7087 0.0066 0.008 0.0026 -0.0016 0.0344 0.008c-0.3697,-0.1669 -2.2902,0.6503 -2.8707,1.9967 -0.7488,1.7369 0.6989,1.8887 8.5399,5.0463 0.051,0.0321 0.1054,0.0546 0.1635,0.0659l0.0051 0.0021 -0.0009 -0.0011c0.6558,0.1206 1.7512,-1.195 3.0159,-6.3418l-0.0007 -0.0006 0.0079 -0.0355z"/>
  <path class="fil4 str4" d="M227.212 114.494c0.2304,4.0576 -2.0129,4.8113 -3.3769,8.1454 -1.6708,4.0841 -4.3562,1.3127 -7.5311,-0.1817 -2.4583,-1.1571 -5.6218,-0.9473 -3.4899,-6.0842 1.5815,-3.8106 -0.8693,-2.4078 -2.9866,-4.229 -3.8589,-3.3193 -4.2587,-1.9784 -4.3544,0.7982"/>
  <path class="fil4 str4" d="M236.473 114.554c-0.2584,3.2797 -1.8329,7.0779 -3.4637,7.8108 -2.0099,0.9034 -5.4995,-0.5679 -7.4342,1.2134 -1.4323,1.3189 -2.9152,2.5616 -7.3306,-0.0753"/>
  <path class="fil4 str4" d="M205.473 112.943c-0.6486,-5.7405 2.3512,-2.7883 5.4906,-5.3082 2.1717,-1.7431 9.3913,1.5491 6.2795,7.2409 -2.2753,4.1617 1.0025,3.4034 2.3974,4.3131 1.614,1.0526 2.622,4.174 7.3495,-2.2381"/>
  <path class="fil4 str4" d="M211.265 113.022c-2.3664,9.63 -4.1412,5.8503 -3.5496,4.3384"/>
  <path class="fil4 str4" d="M200.551 113.85c4.4378,-2.583 -0.0639,-1.7922 -1.0094,0.4008 -0.7542,1.7494 0.7186,1.8903 8.7085,5.1143m-7.6991 -5.5151c2.5151,0.9305 5.2141,2.0686 8.1706,3.8644 1.4596,-2.4274 2.2566,-3.5483 -2.5917,-4.6124l-3.7548 -0.8609"/>
  <path class="fil2 str1" d="M273.075 112.696c0,-2.9596 -11.2283,-5.3597 -25.0737,-5.3597 -13.8454,0 -25.0736,2.3748 -25.0736,5.3344l0 7.048c0,-2.4342 11.2282,-4.4083 25.0736,-4.4083 13.8454,0 25.0737,1.9741 25.0737,4.4083l0 -7.0227z"/>
  <rect class="fil11 str11" x="246.201" y="109.496" width="3.6" height="3.6" rx="1.0996" ry="1.0996"/>
  <rect class="fil11 str11" x="250.996" y="109.593" width="3.55" height="3.6" rx="1.0996" ry="1.0996"/>
  <rect class="fil11 str11" x="255.742" y="109.875" width="3.45" height="3.6" rx="1.0996" ry="1.0996"/>
  <rect class="fil11 str11" x="260.39" y="110.415" width="3.3" height="3.6" rx="1.0996" ry="1.0996"/>
  <rect class="fil11 str11" x="264.88" y="111.061" width="3.1" height="3.6" rx="1.0996" ry="1.0996"/>
  <rect class="fil11 str11" x="269.165" y="112.516" width="2.8" height="3.6" rx="1.0996" ry="1.0996"/>
  <rect class="fil11 str11" x="241.456" y="109.593" width="3.55" height="3.6" rx="1.0996" ry="1.0996"/>
  <rect class="fil11 str11" x="236.81" y="109.875" width="3.45" height="3.6" rx="1.0996" ry="1.0996"/>
  <rect class="fil11 str11" x="232.311" y="110.415" width="3.3" height="3.6" rx="1.0996" ry="1.0996"/>
  <rect class="fil11 str11" x="228.022" y="111.061" width="3.1" height="3.6" rx="1.0996" ry="1.0996"/>
  <rect class="fil11 str11" x="224.037" y="112.516" width="2.8" height="3.6" rx="1.0996" ry="1.0996"/>
 </g>
</svg>
