<?xml version="1.0" encoding="UTF-8" standalone="no"?>
<!-- Created with Inkscape (http://www.inkscape.org/) -->

<svg
   xmlns:dc="http://purl.org/dc/elements/1.1/"
   xmlns:cc="http://creativecommons.org/ns#"
   xmlns:rdf="http://www.w3.org/1999/02/22-rdf-syntax-ns#"
   xmlns:svg="http://www.w3.org/2000/svg"
   xmlns="http://www.w3.org/2000/svg"
   version="1.1"
   width="1350"
   height="900"
   id="svg2">
  <defs
     id="defs4">
    <linearGradient
       id="linearGradient3903">
      <stop
         id="stop3905"
         style="stop-color:#c09f63;stop-opacity:1"
         offset="0" />
      <stop
         id="stop3907"
         style="stop-color:#c09f63;stop-opacity:0"
         offset="1" />
    </linearGradient>
  </defs>
  <metadata
     id="metadata7">
    <rdf:RDF>
      <cc:Work
         rdf:about="">
        <dc:format>image/svg+xml</dc:format>
        <dc:type
           rdf:resource="http://purl.org/dc/dcmitype/StillImage" />
        <dc:title></dc:title>
      </cc:Work>
    </rdf:RDF>
  </metadata>
  <g
     transform="translate(0,7.213562)"
     id="layer13">
    <rect
       width="863.77106"
       height="1130.1494"
       x="235.03975"
       y="-110.6709"
       transform="translate(0,-7.213562)"
       id="rect4809"
       style="fill:#ffffff;fill-opacity:1;stroke:none" />
    <rect
       width="372.14627"
       height="1043.9681"
       x="-41.131954"
       y="-63.041855"
       id="rect4805"
       style="fill:#2f418c;fill-opacity:1;stroke:none" />
    <rect
       width="432.86487"
       height="1024.3816"
       x="1002.8362"
       y="-74.793846"
       id="rect4807"
       style="fill:#d03528;fill-opacity:1;stroke:none" />
  </g>
  <g
     transform="translate(368.97189,49.844467)"
     id="layer5"
     style="display:inline">
    <path
       d="m 297.84414,615 0,-422.60165 -168.54461,0 0,359.74057 c 0,0 0.78117,11.83605 11.34487,20.42718 10.56371,8.59113 20.0937,7.85709 20.0937,7.85709 l 107.57295,0 c 0,0 12.85478,1.17374 21.21155,12.2481 C 297.87939,603.74565 297.84414,615 297.84414,615"
       id="path4299"
       style="fill:#000000;fill-opacity:1;stroke:none;display:none" />
    <path
       d="m 129.5625,192.28125 0,356.96875 c 0,0 0.0591,14.55324 10.46875,23.09375 10.90051,8.94321 23.75,8.09375 23.75,8.09375 l 102.64627,0.34625 c 0,0 15.12378,0.024 22.60373,11.1225 6.26047,9.28903 8.87246,19.74062 9.34375,22.59375 l 0,0.78125 c 0,0 0.0356,-0.22666 0.0625,-0.40625 0.0269,0.17959 0.0625,0.40625 0.0625,0.40625 l 0,-0.78125 c 0.47129,-2.85313 2.29956,-13.07423 9.34375,-22.59375 8.96793,-12.11927 23.29623,-11.46875 23.29623,-11.46875 l 101.95377,0 c 0,0 13.66164,0.82403 23.75,-8.09375 C 467.74426,562.70805 467.3125,549.25 467.3125,549.25 l 0,-356.96875 -168.8125,0 -0.125,0 z"
       id="path4320"
       style="fill:#000000;fill-opacity:1;stroke:none" />
  </g>
  <g
     transform="translate(368.97189,49.844467)"
     id="layer7"
     style="display:inline">
    <path
       d="m 132.375,195.1875 0,318.5625 24.80172,0 c -0.49886,-2.79343 -2.08888,-9.26567 -7.10858,-19.625 -6.9107,-14.26185 -10.38139,-15.07374 -10.36536,-18.03125 0.016,-2.95752 10.11839,-11.74052 6.45095,-23.40625 -2.57013,-8.17531 -9.99094,-5.76761 -11.11693,-7.3125 -1.05393,-1.44603 -2.04432,-16.56484 2.34865,-39.28125 4.39297,-22.71642 10.04136,-41.60064 17.88103,-61.4375 10.27621,-26.00206 32.41282,-70.19455 37.95415,-74.8125 1.26772,-1.05648 7.32778,6.25 7.32778,6.25 0,0 12.32078,0.34825 15.03134,1.25 2.76117,0.91859 7.13989,5.875 7.13989,5.875 0,0 5.47515,1.33381 8.07934,2.34375 3.06758,1.18965 4.74578,1.95694 6.26306,4.8125 -3.73229,9.29246 -4.80923,4.64104 -10.58457,12.5 -3.59191,1.61739 -8.0045,0.2402 -11.08561,2.5 -4.98343,3.65503 -6.45095,18.21875 -6.45095,18.21875 0,0 7.88864,0.91033 15.03134,-2.875 6.43929,-3.41255 10.63518,-8.34257 19.35285,-14.625 10.34338,-7.454 20.41476,-8.80733 20.41476,-8.80733 0,0 2.5602,5.14015 4.44959,8.61983 -5.60339,0.90593 -6.26663,0.50469 -14.49898,9.65625 -8.23235,9.15155 -7.45146,12.57847 -15.69786,21.62001 -8.24638,9.04154 -13.26545,9.31119 -19.21405,13.16623 6.73355,1.03035 24.05016,-2.7875 28.3726,1.46942 3.74702,3.69024 3.04124,7.02183 1.98712,10.14492 -0.81474,2.41391 -6.49078,3.60951 -6.49078,3.60951 0,0 -3.6738,-0.84347 -10.02382,-0.75467 -7.90675,0.11059 -7.39918,5.62877 -13.71887,7.01033 -5.18866,1.1343 -13.00149,-0.20325 -13.00149,-0.20325 0,0 0.71231,2.98488 9.48854,2.6875 -4.7382,12.22405 -20.22969,34.46875 -20.22969,34.46875 0,0 13.13297,2.40653 20.0418,10.15625 8.27137,9.2781 3.05887,18.92936 3.06889,24.28125 0.0123,6.78596 -2.09887,12.5129 4.63467,19.84375 6.73354,7.33084 16.65974,5.53125 16.65974,5.53125 l -0.18789,10.71875 -21.4823,0 c 0,0 -9.57244,-9.61808 -19.66601,-16.09375 0.27515,-3.14842 2.82369,-10.97169 -0.72025,-13.5625 -7.20759,-5.26915 -16.47185,-4.28125 -16.47185,-4.28125 l 1.06472,14.28125 c 0,0 -3.58201,3.25389 -7.51567,8.75 -3.93365,5.49611 -5.35491,9.125 -5.35491,9.125 0,0 -1.52388,10.95523 2.12944,21.40625 1.81712,5.19823 5.38623,5.375 5.38623,5.375 0,0 10.44773,-1.04483 14.65556,2.125 2.58312,1.94592 2.96008,5.13862 2.84969,7.3125 l 205.3031,0 c -0.17162,-2.16543 0.0433,-5.62053 2.78706,-7.6875 4.20782,-3.16983 14.68687,-2.125 14.68687,-2.125 0,0 3.5378,-0.17677 5.35492,-5.375 3.65332,-10.45102 2.16076,-21.40625 2.16076,-21.40625 0,0 -1.45258,-3.62889 -5.38623,-9.125 -3.93366,-5.49611 -7.51568,-8.75 -7.51568,-8.75 L 412.74087,445 c 0,0 -9.26426,-0.9879 -16.47185,4.28125 -3.54394,2.59081 -0.99539,10.41408 -0.72025,13.5625 -10.09357,6.47567 -19.69732,16.09375 -19.69732,16.09375 l -21.45098,0 -0.18789,-10.71875 c 0,0 9.89488,1.79959 16.62842,-5.53125 6.73354,-7.33085 4.65368,-13.05779 4.66598,-19.84375 0.01,-5.35189 -5.23379,-15.00315 3.03758,-24.28125 6.90883,-7.74972 20.04179,-10.15625 20.04179,-10.15625 0,0 -15.49148,-22.2447 -20.22968,-34.46875 8.77623,0.29738 9.48854,-2.6875 9.48854,-2.6875 0,0 -10.71952,0.60305 -15.90818,-0.53125 -6.31968,-1.38156 -10.00559,-7.38941 -17.91235,-7.5 -6.35002,-0.0888 -6.57835,-0.003 -6.57835,-0.003 0,0 -3.47873,-0.36062 -5.13589,-2.91616 -1.49453,-2.30475 -1.13022,-8.60012 1.45527,-10.68131 5.22094,-4.20258 24.765,0.69599 31.49855,-0.33436 -5.94861,-3.85504 -9.8698,-2.01702 -19.18986,-9.63 -9.32005,-7.61297 -8.68232,-11.52351 -15.72028,-21.6225 -7.74268,-11.11022 -8.58227,-9.29633 -14.18566,-10.20226 -6.61316,-2.9306 -3.27118,-10.34916 -3.27118,-10.34916 0,0 9.69841,-2.43383 20.04179,5.02017 8.71768,6.28243 17.17692,13.35977 26.83721,17.84375 7.333,3.40373 15.03134,2.875 15.03134,2.875 0,0 -1.46752,-14.56372 -6.45095,-18.21875 -3.08111,-2.2598 -7.4937,-0.88261 -11.08561,-2.5 -5.77534,-7.85896 -6.82097,-3.20754 -10.55326,-12.5 1.51728,-2.85556 3.19548,-3.62285 6.26306,-4.8125 2.60419,-1.00994 8.04803,-2.34375 8.04803,-2.34375 0,0 4.41004,-4.95641 7.1712,-5.875 2.71057,-0.90175 15.03135,-1.25 15.03135,-1.25 0,0 6.06005,-7.30648 7.32778,-6.25 5.54132,4.61795 27.3696,48.92117 37.92282,74.8125 8.10304,19.88003 14.95989,38.72108 19.35286,61.4375 4.39297,22.71641 4.43598,38.55397 3.38205,40 -1.12599,1.54489 -11.02071,-1.58156 -13.59084,6.59375 -3.66744,11.66573 6.4349,20.44873 6.45095,23.40625 0.016,2.95751 -3.48598,3.7694 -10.39668,18.03125 -5.26413,10.8638 -6.75456,17.45105 -7.1712,20 l 27.96456,0 0,-318.5625 z"
       id="rect4342"
       style="fill:#cccccc;fill-opacity:1;stroke:none" />
  </g>
  <g
     transform="translate(368.97189,49.844467)"
     id="layer9"
     style="display:inline">
    <path
       d="m 242.31683,370.00425 -12.73132,0 c 0,0 -0.16173,-11.38524 0.97933,-12.76718 1.5942,-5.98212 12.76622,-13.34237 20.32115,-20.56597 7.55492,-7.22361 16.89347,-19.34182 16.89347,-19.34182 l -0.48966,13.95549 c -13.87904,14.32066 -24.48331,21.5453 -24.48331,21.5453 z"
       id="path4741-9"
       style="fill:#ddb523;fill-opacity:1;stroke:#8c5700;stroke-width:1px;stroke-linecap:butt;stroke-linejoin:miter;stroke-opacity:1;display:inline" />
    <path
       d="m 347.40966,370.00425 12.73132,0 c 0,0 0.16173,-11.38524 -0.97933,-12.76718 -1.5942,-5.98212 -12.76622,-13.34237 -20.32115,-20.56597 -7.55492,-7.22361 -16.89347,-19.34182 -16.89347,-19.34182 l 0.48966,13.95549 c 13.87904,14.32066 24.48331,21.5453 24.48331,21.5453 z"
       id="path4741"
       style="fill:#ddb523;fill-opacity:1;stroke:#8c5700;stroke-width:1px;stroke-linecap:butt;stroke-linejoin:miter;stroke-opacity:1" />
    <rect
       width="5.2379742"
       height="26.734707"
       x="323.6073"
       y="214.9384"
       id="rect4909-2-9"
       style="fill:#ffffff;fill-opacity:1;stroke:#767479;stroke-width:1;stroke-linecap:butt;stroke-miterlimit:4;stroke-opacity:1;stroke-dasharray:none;display:inline" />
    <path
       d="m 325.54512,200.03286 c -0.0822,0 -0.42169,2.65752 -1.94021,6.03216 -1.70286,3.7843 1.23056,6.55878 3.08958,8.78458 0.0321,-1.9242 0.5385,-3.57175 1.25336,-6.49813 0.96533,-3.9517 -1.19086,-5.89487 -2.40273,-8.31861 z"
       id="path4936-9-5"
       style="fill:#d23225;fill-opacity:1;stroke:#4a0000;stroke-width:1;stroke-linecap:butt;stroke-linejoin:miter;stroke-miterlimit:4;stroke-opacity:1;stroke-dasharray:none;display:inline" />
    <rect
       width="5.2379742"
       height="26.734707"
       x="254.53117"
       y="214.76527"
       id="rect4909-2-2"
       style="fill:#ffffff;fill-opacity:1;stroke:#767479;stroke-width:1;stroke-linecap:butt;stroke-miterlimit:4;stroke-opacity:1;stroke-dasharray:none;display:inline" />
    <path
       d="m 256.46899,199.85974 c -0.0822,0 -0.42169,2.65752 -1.94021,6.03216 -1.70286,3.7843 1.23056,6.55878 3.08958,8.78458 0.0321,-1.9242 0.5385,-3.57175 1.25336,-6.49813 0.96533,-3.9517 -1.19086,-5.89487 -2.40273,-8.31861 z"
       id="path4936-9-4"
       style="fill:#d23225;fill-opacity:1;stroke:#4a0000;stroke-width:1;stroke-linecap:butt;stroke-linejoin:miter;stroke-miterlimit:4;stroke-opacity:1;stroke-dasharray:none;display:inline" />
    <rect
       width="5.2379742"
       height="26.734707"
       x="289.27554"
       y="213.29036"
       id="rect4909-2"
       style="fill:#ffffff;fill-opacity:1;stroke:#767479;stroke-width:1;stroke-linecap:butt;stroke-miterlimit:4;stroke-opacity:1;stroke-dasharray:none;display:inline" />
    <path
       d="m 286.67147,237.05258 c 0.34625,6.66285 3.00376,10.6579 3.00376,10.6579 0,0 -3.74502,9.26939 -2.90312,20.60132 l 10.26747,0 c 0.0453,-13.93458 -2.55687,-20.77444 -2.55687,-20.77444 0,0 2.48439,-4.28634 2.65751,-10.48478 z"
       id="path4879"
       style="fill:#ddb523;fill-opacity:1;stroke:#8c5700;stroke-width:1;stroke-linecap:butt;stroke-miterlimit:4;stroke-opacity:1;stroke-dasharray:none" />
    <path
       d="m 262.91578,300.48962 c 0,0 7.00193,-5.46454 6.44823,-19.21666 14.60372,-2.51428 12.87161,-15.13675 21.85236,-15.23485 9.27364,-0.10127 10.17532,11.47134 22.92706,15.23485 1.07725,13.7019 8.95589,19.21666 8.95589,19.21666 z"
       id="path4637"
       style="fill:#ddb523;fill-opacity:1;stroke:#8c5700;stroke-width:1;stroke-linecap:butt;stroke-linejoin:miter;stroke-miterlimit:4;stroke-opacity:1;stroke-dasharray:none" />
    <rect
       width="39.648918"
       height="70.275444"
       x="273.75046"
       y="302.94022"
       id="rect4533"
       style="fill:#ddb523;fill-opacity:1;stroke:none" />
    <rect
       width="66.530983"
       height="6.114542"
       x="-373.08691"
       y="267.54547"
       transform="matrix(0,-1,1,0,0,0)"
       id="rect4376-8-8"
       style="fill:#ddb523;fill-opacity:1;stroke:#8c5700;stroke-width:1;stroke-miterlimit:4;stroke-opacity:1;stroke-dasharray:none;display:inline" />
    <rect
       width="66.547386"
       height="6.114542"
       x="-373.10336"
       y="312.48666"
       transform="matrix(0,-1,1,0,0,0)"
       id="rect4376-8-9"
       style="fill:#ddb523;fill-opacity:1;stroke:#8c5700;stroke-width:1;stroke-miterlimit:4;stroke-opacity:1;stroke-dasharray:none;display:inline" />
    <path
       d="m 293.88269,322.4941 c -10.86508,0.0165 -20.16393,1.83978 -27.34625,5.3075 l 0.40875,7.255 c 6.11138,-3.20768 14.57969,-5.7469 26.21875,-5.78125 10.65703,-0.0315 19.17744,2.59048 25.875,6.15625 l 0,-8.1875 c -6.80504,-2.82214 -15.11537,-4.76523 -25.15625,-4.75 z"
       id="path4446"
       style="fill:#ddb523;fill-opacity:1;stroke:#8c5700;stroke-width:1;stroke-linecap:butt;stroke-linejoin:miter;stroke-miterlimit:4;stroke-opacity:1;stroke-dasharray:none" />
    <path
       d="m 293.65116,343.70725 c -10.86508,0.0165 -19.81768,1.14729 -27,4.61502 l 0.0625,7.94748 c 6.11138,-3.20767 14.57969,-5.74689 26.21875,-5.78125 10.65703,-0.0315 19.17744,2.59049 25.875,6.15625 l 0,-8.1875 c -6.80504,-2.82214 -15.11537,-4.76523 -25.15625,-4.75 z"
       id="path4446-5"
       style="fill:#ddb523;fill-opacity:1;stroke:#8c5700;stroke-width:1;stroke-linecap:butt;stroke-linejoin:miter;stroke-miterlimit:4;stroke-opacity:1;stroke-dasharray:none;display:inline" />
    <path
       d="m 236.01908,402.77266 117.27504,0 c 0,0 -20.4268,-39.77776 -60.71861,-39.41812 -40.29181,0.35963 -56.55643,39.41812 -56.55643,39.41812 z"
       id="path4592"
       style="fill:#d9251c;fill-opacity:1;stroke:#8c5700;stroke-width:1;stroke-linecap:butt;stroke-linejoin:miter;stroke-miterlimit:4;stroke-opacity:1;stroke-dasharray:none" />
    <path
       d="m 235.91708,405.03125 0,71.84375 58.78125,-67.5625 58.8125,67.5625 0,-71.84375 -58.8125,0.3125 -58.78125,-0.3125 z"
       id="path4656"
       style="fill:#ddb523;fill-opacity:1;stroke:none" />
    <path
       d="m 240.14638,429.92793 c 0,0 1.59795,1.29708 2.94309,4.32807 1.34514,3.031 -1.33354,5.58917 1.55811,10.04115 2.89165,4.45198 11.01296,2.99288 12.63798,-1.21186 1.62502,-4.20474 0.43878,-7.41478 -2.94309,-7.96367 -3.38187,-0.54889 -5.41247,2.92656 -5.71306,4.32808 -0.8825,-0.0629 -0.0441,-4.50282 -2.42372,-6.66524 -2.37965,-2.16243 -6.05931,-2.85653 -6.05931,-2.85653 z"
       id="path4618"
       style="fill:#ddb523;fill-opacity:1;stroke:#8c5700;stroke-width:1;stroke-linecap:butt;stroke-linejoin:miter;stroke-miterlimit:4;stroke-opacity:1;stroke-dasharray:none" />
    <path
       d="m 245.8124,478.42607 -10.28299,0 c 0,0 5.26024,-15.11679 9.79332,-21.54531 5.53278,-7.84623 16.15899,-12.24165 16.15899,-12.24165 0,0 -0.63114,-7.92836 2.69316,-12.97615 4.53467,-6.88567 12.83591,-8.72084 18.36248,-15.66932 2.12213,-2.66812 1.95866,-10.03815 1.95866,-10.03815 l 10.28299,0 0,5.38632 c 0,0 -0.87187,5.21815 -3.91733,8.56916 -4.90286,5.39475 -16.1729,13.03335 -19.09697,18.60732 -3.38599,6.45449 -2.69317,13.46581 -2.69317,13.46581 0,0 -7.53854,-0.61133 -15.66932,7.83466 -4.6457,4.8258 -7.58982,18.60731 -7.58982,18.60731 z"
       id="path4594"
       style="fill:#ddb523;fill-opacity:1;stroke:#8c5700;stroke-width:1;stroke-linecap:butt;stroke-linejoin:miter;stroke-miterlimit:4;stroke-opacity:1;stroke-dasharray:none" />
    <path
       d="m 343.74563,478.42607 10.28299,0 c 0,0 -5.26024,-15.11679 -9.79332,-21.54531 -5.53278,-7.84623 -16.15899,-12.24165 -16.15899,-12.24165 0,0 0.63114,-7.92836 -2.69316,-12.97615 -4.53467,-6.88567 -12.83591,-8.72084 -18.36248,-15.66932 -2.12213,-2.66812 -1.95866,-10.03815 -1.95866,-10.03815 l -10.28299,0 0,5.38632 c 0,0 0.87187,5.21815 3.91733,8.56916 4.90286,5.39475 16.1729,13.03335 19.09697,18.60732 3.38599,6.45449 2.69317,13.46581 2.69317,13.46581 0,0 7.53854,-0.61133 15.66932,7.83466 4.6457,4.8258 7.58982,18.60731 7.58982,18.60731 z"
       id="path4594-2"
       style="fill:#ddb523;fill-opacity:1;stroke:#8c5700;stroke-width:1;stroke-linecap:butt;stroke-linejoin:miter;stroke-miterlimit:4;stroke-opacity:1;stroke-dasharray:none;display:inline" />
    <rect
       width="115.40201"
       height="5.1607871"
       x="237.42499"
       y="402.75198"
       id="rect4590"
       style="fill:#ddb523;fill-opacity:1;stroke:#8c5700;stroke-width:1;stroke-linecap:butt;stroke-miterlimit:4;stroke-opacity:1;stroke-dasharray:none" />
    <rect
       width="6.7943878"
       height="108.2261"
       x="232.48689"
       y="369.94995"
       id="rect4570"
       style="fill:#ddb523;fill-opacity:1;stroke:#8c5700;stroke-width:1.00843287;stroke-linecap:butt;stroke-miterlimit:4;stroke-opacity:1;stroke-dasharray:none" />
    <path
       d="m 350.69929,429.69512 c 0,0 -1.59795,1.29708 -2.94309,4.32807 -1.34514,3.031 1.33354,5.58917 -1.55811,10.04115 -2.89165,4.45198 -11.01296,2.99288 -12.63798,-1.21186 -1.62502,-4.20474 -0.43878,-7.41478 2.94309,-7.96367 3.38187,-0.54889 5.41247,2.92656 5.71306,4.32808 0.8825,-0.0629 0.0441,-4.50282 2.42372,-6.66524 2.37965,-2.16243 6.05931,-2.85653 6.05931,-2.85653 z"
       id="path4618-9"
       style="fill:#ddb523;fill-opacity:1;stroke:#8c5700;stroke-width:1;stroke-linecap:butt;stroke-linejoin:miter;stroke-miterlimit:4;stroke-opacity:1;stroke-dasharray:none;display:inline" />
    <rect
       width="6.6212816"
       height="108.10781"
       x="351.04938"
       y="370.06833"
       id="rect4570-5"
       style="fill:#ddb523;fill-opacity:1;stroke:#8c5700;stroke-width:1;stroke-linecap:butt;stroke-miterlimit:4;stroke-opacity:1;stroke-dasharray:none;display:inline" />
    <path
       d="m 265.94172,411.92312 c 0,0 3.78927,0.0461 4.50121,3.80871 0.71193,3.76257 -3.50686,5.11689 -5.81588,2.64609 -2.64318,-2.82839 -5.13486,-9.39374 -14.61266,-8.35915 -9.4778,1.03459 -12.31687,17.08961 -0.69248,18.6973 8.34261,1.15381 7.96366,-6.40556 7.96366,-6.40556 0,0 -3.57936,3.23474 -6.75181,1.90436 -3.17245,-1.33038 -3.06864,-8.5287 3.46247,-8.13679 6.53111,0.39191 7.76829,7.66636 14.54234,7.79054 6.77406,0.12417 8.10199,-6.15136 6.05931,-10.04115 -2.04268,-3.88978 -8.65616,-1.90435 -8.65616,-1.90435 z"
       id="path4616"
       style="fill:#ddb523;fill-opacity:1;stroke:#8c5700;stroke-width:1;stroke-linecap:butt;stroke-linejoin:miter;stroke-miterlimit:4;stroke-opacity:1;stroke-dasharray:none" />
    <path
       d="m 324.89385,412.26421 c 0,0 -3.78927,0.0461 -4.50121,3.80871 -0.71193,3.76257 3.50686,5.11689 5.81588,2.64609 2.64318,-2.82839 5.13486,-9.39374 14.61266,-8.35915 9.4778,1.03459 12.31687,17.08961 0.69248,18.6973 -8.34261,1.15381 -7.96366,-6.40556 -7.96366,-6.40556 0,0 3.57936,3.23474 6.75181,1.90436 3.17245,-1.33038 3.06864,-8.5287 -3.46247,-8.13679 -6.53111,0.39191 -7.76829,7.66636 -14.54234,7.79054 -6.77406,0.12417 -8.10199,-6.15136 -6.05931,-10.04115 2.04268,-3.88978 8.65616,-1.90435 8.65616,-1.90435 z"
       id="path4616-5"
       style="fill:#ddb523;fill-opacity:1;stroke:#8c5700;stroke-width:1;stroke-linecap:butt;stroke-linejoin:miter;stroke-miterlimit:4;stroke-opacity:1;stroke-dasharray:none;display:inline" />
    <rect
       width="154.85327"
       height="16.868929"
       x="221.39279"
       y="478.20435"
       id="rect4851"
       style="fill:#ddb523;fill-opacity:1;stroke:#8c5700;stroke-width:1;stroke-linecap:butt;stroke-miterlimit:4;stroke-opacity:1;stroke-dasharray:none" />
    <path
       d="m 304.08266,485.2814 a 4.7742448,4.2845788 0 1 1 -9.54849,0 4.7742448,4.2845788 0 1 1 9.54849,0 z"
       transform="matrix(0.8862406,0,0,0.9303824,34.079745,33.784127)"
       id="path4679"
       style="fill:#ddb523;fill-opacity:1;stroke:#8c5700;stroke-width:1.10126901;stroke-miterlimit:4;stroke-opacity:1;stroke-dasharray:none" />
    <path
       d="m 301.14466,485.2814 a 2.0198729,1.836248 0 1 1 -4.03975,0 2.0198729,1.836248 0 1 1 4.03975,0 z"
       transform="translate(0.1530226,0)"
       id="path4677"
       style="fill:#8c5700;fill-opacity:1;stroke:none" />
    <path
       d="m 299.43084,493.6133 c 3.18356,-5.30509 11.46503,-13.38814 19.9539,-12.97615 5.21571,-0.0644 7.33776,3.46618 6.97773,6.97774 -0.36002,3.51157 -4.22951,6.82792 -8.20189,5.50875 -3.97238,-1.31918 -3.91733,-5.1415 -3.91733,-5.1415 0,0 2.46287,2.4336 5.14149,1.59142 2.67862,-0.84218 3.49579,-6.15728 -1.83625,-5.99841 -5.74261,0.1711 -13.09822,6.55376 -18.11765,10.03815 z"
       id="path4681"
       style="fill:#ddb523;fill-opacity:1;stroke:#8c5700;stroke-width:1;stroke-linecap:butt;stroke-linejoin:miter;stroke-miterlimit:4;stroke-opacity:1;stroke-dasharray:none" />
    <path
       d="m 345.92966,494.3478 c 3.18356,-5.30509 11.46503,-13.38814 19.9539,-12.97615 5.21571,-0.0644 7.33776,3.46618 6.97773,6.97774 -0.36002,3.51157 -4.22951,6.82792 -8.20189,5.50875 -3.97238,-1.31918 -3.91733,-5.1415 -3.91733,-5.1415 0,0 2.46287,2.4336 5.14149,1.59142 2.67862,-0.84218 3.49579,-6.15728 -1.83625,-5.99841 -5.74261,0.1711 -13.09822,6.55376 -18.11765,10.03815 z"
       id="path4681-0"
       style="fill:#ddb523;fill-opacity:1;stroke:#8c5700;stroke-width:1;stroke-linecap:butt;stroke-linejoin:miter;stroke-miterlimit:4;stroke-opacity:1;stroke-dasharray:none;display:inline" />
    <path
       d="m 299.32789,493.6133 c -3.18356,-5.30509 -11.46503,-13.38814 -19.9539,-12.97615 -5.21571,-0.0644 -7.33776,3.46618 -6.97773,6.97774 0.36002,3.51157 4.22951,6.82792 8.20189,5.50875 3.97238,-1.31918 3.91733,-5.1415 3.91733,-5.1415 0,0 -2.46287,2.4336 -5.14149,1.59142 -2.67862,-0.84218 -3.49579,-6.15728 1.83625,-5.99841 5.74261,0.1711 13.09822,6.55376 18.11765,10.03815 z"
       id="path4681-6"
       style="fill:#ddb523;fill-opacity:1;stroke:#8c5700;stroke-width:1;stroke-linecap:butt;stroke-linejoin:miter;stroke-miterlimit:4;stroke-opacity:1;stroke-dasharray:none;display:inline" />
    <path
       d="m 322.68027,494.3478 c 3.18356,-5.30509 11.46503,-13.38814 19.9539,-12.97615 5.21571,-0.0644 7.33776,3.46618 6.97773,6.97774 -0.36002,3.51157 -4.22951,6.82792 -8.20189,5.50875 -3.97238,-1.31918 -3.91733,-5.1415 -3.91733,-5.1415 0,0 2.46287,2.4336 5.14149,1.59142 2.67862,-0.84218 3.49579,-6.15728 -1.83625,-5.99841 -5.74261,0.1711 -13.09822,6.55376 -18.11765,10.03815 z"
       id="path4681-0-6"
       style="fill:#ddb523;fill-opacity:1;stroke:#8c5700;stroke-width:1;stroke-linecap:butt;stroke-linejoin:miter;stroke-miterlimit:4;stroke-opacity:1;stroke-dasharray:none;display:inline" />
    <path
       d="m 276.19117,494.3478 c -3.18356,-5.30509 -11.46503,-13.38814 -19.9539,-12.97615 -5.21571,-0.0644 -7.33776,3.46618 -6.97773,6.97774 0.36002,3.51157 4.22951,6.82792 8.20189,5.50875 3.97238,-1.31918 3.91733,-5.1415 3.91733,-5.1415 0,0 -2.46287,2.4336 -5.14149,1.59142 -2.67862,-0.84218 -3.49579,-6.15728 1.83625,-5.99841 5.74261,0.1711 13.09822,6.55376 18.11765,10.03815 z"
       id="path4681-6-0"
       style="fill:#ddb523;fill-opacity:1;stroke:#8c5700;stroke-width:1;stroke-linecap:butt;stroke-linejoin:miter;stroke-miterlimit:4;stroke-opacity:1;stroke-dasharray:none;display:inline" />
    <path
       d="m 252.56477,494.3478 c -3.18356,-5.30509 -11.46503,-13.38814 -19.9539,-12.97615 -5.21571,-0.0644 -7.33776,3.46618 -6.97773,6.97774 0.36002,3.51157 4.22951,6.82792 8.20189,5.50875 3.97238,-1.31918 3.91733,-5.1415 3.91733,-5.1415 0,0 -2.46287,2.4336 -5.14149,1.59142 -2.67862,-0.84218 -3.49579,-6.15728 1.83625,-5.99841 5.74261,0.1711 13.09822,6.55376 18.11765,10.03815 z"
       id="path4681-6-4"
       style="fill:#ddb523;fill-opacity:1;stroke:#8c5700;stroke-width:1;stroke-linecap:butt;stroke-linejoin:miter;stroke-miterlimit:4;stroke-opacity:1;stroke-dasharray:none;display:inline" />
    <rect
       width="191.12346"
       height="16.398291"
       x="203.15207"
       y="495.20941"
       id="rect4851-5"
       style="fill:#ddb523;fill-opacity:1;stroke:#8c5700;stroke-width:1;stroke-linecap:butt;stroke-miterlimit:4;stroke-opacity:1;stroke-dasharray:none;display:inline" />
    <path
       d="m 304.08266,485.2814 a 4.7742448,4.2845788 0 1 1 -9.54849,0 4.7742448,4.2845788 0 1 1 9.54849,0 z"
       transform="matrix(0.8862406,0,0,0.9303824,34.079745,50.310359)"
       id="path4679-3"
       style="fill:#ddb523;fill-opacity:1;stroke:#8c5700;stroke-width:1.10126901;stroke-miterlimit:4;stroke-opacity:1;stroke-dasharray:none;display:inline" />
    <path
       d="m 301.14466,485.2814 a 2.0198729,1.836248 0 1 1 -4.03975,0 2.0198729,1.836248 0 1 1 4.03975,0 z"
       transform="translate(0.1530226,16.526229)"
       id="path4677-8"
       style="fill:#8c5700;fill-opacity:1;stroke:none;display:inline" />
    <path
       d="m 299.23301,508.31495 c -3.03624,-4.55536 -10.93448,-11.4961 -19.03052,-11.14233 -4.97435,-0.0553 -6.9982,2.97633 -6.65483,5.99163 0.34336,3.0153 4.03379,5.86298 7.82234,4.73024 3.78856,-1.13275 3.73606,-4.41489 3.73606,-4.41489 0,0 -2.3489,2.08967 -4.90357,1.36651 -2.55467,-0.72316 -3.33402,-5.28711 1.75128,-5.1507 5.47686,0.14692 12.49209,5.62757 17.27924,8.61954 z"
       id="path4681-6-8"
       style="fill:#ddb523;fill-opacity:1;stroke:#8c5700;stroke-width:1;stroke-linecap:butt;stroke-linejoin:miter;stroke-miterlimit:4;stroke-opacity:1;stroke-dasharray:none;display:inline" />
    <path
       d="m 277.35413,509.25701 c -3.03738,-4.71735 -10.9386,-11.9049 -19.03769,-11.53856 -4.97623,-0.0573 -7.00084,3.08218 -6.65735,6.2047 0.34349,3.12254 4.03531,6.07148 7.8253,4.89845 3.78998,-1.17303 3.73746,-4.57189 3.73746,-4.57189 0,0 -2.34979,2.16399 -4.90541,1.41512 -2.55563,-0.74889 -3.33528,-5.47515 1.75193,-5.33387 5.47893,0.15214 12.4968,5.82769 17.28576,8.92605 z"
       id="path4681-6-0-1"
       style="fill:#ddb523;fill-opacity:1;stroke:#8c5700;stroke-width:1;stroke-linecap:butt;stroke-linejoin:miter;stroke-miterlimit:4;stroke-opacity:1;stroke-dasharray:none;display:inline" />
    <path
       d="m 254.93749,509.70738 c -3.01915,-5.00335 -10.87295,-12.62663 -18.92345,-12.23808 -4.94635,-0.0607 -6.95881,3.26903 -6.61738,6.58086 0.34142,3.31183 4.01109,6.43955 7.77833,5.19541 3.76724,-1.24415 3.71503,-4.84905 3.71503,-4.84905 0,0 -2.33567,2.29517 -4.87598,1.5009 -2.54028,-0.79428 -3.31525,-5.80707 1.74143,-5.65723 5.44605,0.16137 12.42181,6.18099 17.18202,9.46719 z"
       id="path4681-6-4-6"
       style="fill:#ddb523;fill-opacity:1;stroke:#8c5700;stroke-width:1;stroke-linecap:butt;stroke-linejoin:miter;stroke-miterlimit:4;stroke-opacity:1;stroke-dasharray:none;display:inline" />
    <path
       d="m 232.2914,509.2931 c -2.9726,-4.74145 -10.70529,-11.96572 -18.63164,-11.5975 -4.87008,-0.0576 -6.85152,3.09792 -6.51534,6.2364 0.33616,3.13848 3.94923,6.10248 7.65838,4.92346 3.70915,-1.17902 3.65775,-4.59524 3.65775,-4.59524 0,0 -2.29967,2.17504 -4.80079,1.42234 -2.50112,-0.7527 -3.26413,-5.50309 1.71457,-5.3611 5.36207,0.15291 12.23025,5.85745 16.91707,8.97164 z"
       id="path4681-6-4-6-2"
       style="fill:#ddb523;fill-opacity:1;stroke:#8c5700;stroke-width:1;stroke-linecap:butt;stroke-linejoin:miter;stroke-miterlimit:4;stroke-opacity:1;stroke-dasharray:none;display:inline" />
    <path
       d="m 299.89237,508.31495 c 3.03624,-4.55536 10.93448,-11.4961 19.03052,-11.14233 4.97435,-0.0553 6.9982,2.97633 6.65483,5.99163 -0.34336,3.0153 -4.03379,5.86298 -7.82234,4.73024 -3.78856,-1.13275 -3.73606,-4.41489 -3.73606,-4.41489 0,0 2.3489,2.08967 4.90357,1.36651 2.55467,-0.72316 3.33402,-5.28711 -1.75128,-5.1507 -5.47686,0.14692 -12.49209,5.62757 -17.27924,8.61954 z"
       id="path4681-6-8-8"
       style="fill:#ddb523;fill-opacity:1;stroke:#8c5700;stroke-width:1;stroke-linecap:butt;stroke-linejoin:miter;stroke-miterlimit:4;stroke-opacity:1;stroke-dasharray:none;display:inline" />
    <path
       d="m 321.77125,509.25701 c 3.03738,-4.71735 10.9386,-11.9049 19.03769,-11.53856 4.97623,-0.0573 7.00084,3.08218 6.65735,6.2047 -0.34349,3.12254 -4.03531,6.07148 -7.8253,4.89845 -3.78998,-1.17303 -3.73746,-4.57189 -3.73746,-4.57189 0,0 2.34979,2.16399 4.90541,1.41512 2.55563,-0.74889 3.33528,-5.47515 -1.75193,-5.33387 -5.47893,0.15214 -12.4968,5.82769 -17.28576,8.92605 z"
       id="path4681-6-0-1-2"
       style="fill:#ddb523;fill-opacity:1;stroke:#8c5700;stroke-width:1;stroke-linecap:butt;stroke-linejoin:miter;stroke-miterlimit:4;stroke-opacity:1;stroke-dasharray:none;display:inline" />
    <path
       d="m 344.18789,509.70738 c 3.01915,-5.00335 10.87295,-12.62663 18.92345,-12.23808 4.94635,-0.0607 6.95881,3.26903 6.61738,6.58086 -0.34142,3.31183 -4.01109,6.43955 -7.77833,5.19541 -3.76724,-1.24415 -3.71503,-4.84905 -3.71503,-4.84905 0,0 2.33567,2.29517 4.87598,1.5009 2.54028,-0.79428 3.31525,-5.80707 -1.74143,-5.65723 -5.44605,0.16137 -12.42181,6.18099 -17.18202,9.46719 z"
       id="path4681-6-4-6-4"
       style="fill:#ddb523;fill-opacity:1;stroke:#8c5700;stroke-width:1;stroke-linecap:butt;stroke-linejoin:miter;stroke-miterlimit:4;stroke-opacity:1;stroke-dasharray:none;display:inline" />
    <path
       d="m 366.83398,509.2931 c 2.9726,-4.74145 10.70529,-11.96572 18.63164,-11.5975 4.87008,-0.0576 6.85152,3.09792 6.51534,6.2364 -0.33616,3.13848 -3.94923,6.10248 -7.65838,4.92346 -3.70915,-1.17902 -3.65775,-4.59524 -3.65775,-4.59524 0,0 2.29967,2.17504 4.80079,1.42234 2.50112,-0.7527 3.26413,-5.50309 -1.71457,-5.3611 -5.36207,0.15291 -12.23025,5.85745 -16.91707,8.97164 z"
       id="path4681-6-4-6-2-4"
       style="fill:#ddb523;fill-opacity:1;stroke:#8c5700;stroke-width:1;stroke-linecap:butt;stroke-linejoin:miter;stroke-miterlimit:4;stroke-opacity:1;stroke-dasharray:none;display:inline" />
    <path
       d="m 320.96461,239.12582 c 0.51937,4.75259 0.9465,8.79191 2.81,9.28055 -0.0111,2.27137 -0.59641,6.81673 -6.59375,7.02127 -7.39859,0.25233 -10.51588,-5.15296 -15.92812,-5.20188 -5.41224,-0.0489 -8.08821,2.99702 -8.47813,6.60813 -0.38992,3.61111 1.36691,7.34302 6.75,7.25 5.38309,-0.093 6.33676,-6.70748 2.25938,-7.79123 -1.35858,-0.36111 1.19542,3.40607 -2.41563,3.80311 -3.78215,0.41585 -4.30439,-6.19368 1.89687,-6.06 6.20125,0.13367 10.90704,5.71615 17.47064,4.50439 7.13151,-1.3166 8.62015,-6.69217 9.46186,-10.13379 1.86475,-0.48833 2.66813,-4.52742 3.01438,-9.28055 z"
       id="path4886"
       style="fill:#ddb523;fill-opacity:1;stroke:#8c5700;stroke-width:1;stroke-linecap:butt;stroke-miterlimit:4;stroke-opacity:1;stroke-dasharray:none" />
    <path
       d="m 291.21335,198.38482 c -0.0822,0 -0.42169,2.65752 -1.94021,6.03216 -1.70286,3.7843 1.23056,6.55878 3.08958,8.78458 0.0321,-1.9242 0.5385,-3.57175 1.25336,-6.49813 0.96533,-3.9517 -1.19086,-5.89487 -2.40273,-8.31861 z"
       id="path4936-9"
       style="fill:#d23225;fill-opacity:1;stroke:#4a0000;stroke-width:1;stroke-linecap:butt;stroke-linejoin:miter;stroke-miterlimit:4;stroke-opacity:1;stroke-dasharray:none" />
    <path
       d="m 275.81225,291.3141 c 0,0 9.59066,7.34379 16.65794,7.4443 7.06728,0.1005 17.01617,-7.09806 17.01617,-7.09806 0,0 -4.87717,-7.02231 -7.52294,-10.38738 -3.18227,-4.04744 -4.77302,-11.9119 -10.03058,-11.77237 -5.0375,0.13369 -6.03238,7.80502 -8.95588,11.77237 -2.44038,3.31172 -7.16471,10.04114 -7.16471,10.04114 z"
       id="path4639"
       style="fill:#ddb523;fill-opacity:1;stroke:#8c5700;stroke-width:1;stroke-linecap:butt;stroke-linejoin:miter;stroke-miterlimit:4;stroke-opacity:1;stroke-dasharray:none" />
    <path
       d="m 270.2596,300.90924 c 0,0 5.01826,-5.83208 5.01529,-16.10045 3.13524,-0.0953 4.31811,-0.21492 6.9856,0 0.49494,10.21147 -3.22412,16.10045 -3.22412,16.10045 z"
       id="path4641"
       style="fill:#ddb523;fill-opacity:1;stroke:#8c5700;stroke-width:1;stroke-linecap:butt;stroke-linejoin:miter;stroke-miterlimit:4;stroke-opacity:1;stroke-dasharray:none" />
    <path
       d="m 314.43479,300.90924 c 0,0 -5.01827,-5.83208 -5.0153,-16.10045 -3.13523,-0.0953 -4.3181,-0.21492 -6.98559,0 -0.49495,10.21147 3.22412,16.10045 3.22412,16.10045 z"
       id="path4641-1"
       style="fill:#ddb523;fill-opacity:1;stroke:#8c5700;stroke-width:1;stroke-linecap:butt;stroke-linejoin:miter;stroke-miterlimit:4;stroke-opacity:1;stroke-dasharray:none" />
    <path
       d="m 289.7201,276.19208 0,15.02586 c 0.50663,2.81557 4.99356,2.75437 5.3102,0 l 0.12666,-15.02586 c -0.75994,-2.2647 -4.6136,-2.38712 -5.43686,0 z"
       id="path4661"
       style="fill:#ddb523;fill-opacity:1;stroke:#8c5700;stroke-width:1;stroke-linecap:butt;stroke-linejoin:miter;stroke-miterlimit:4;stroke-opacity:1;stroke-dasharray:none" />
    <rect
       width="45.284294"
       height="4.7596688"
       x="269.17862"
       y="281.18576"
       id="rect4376-7"
       style="fill:#ddb523;fill-opacity:1;stroke:#8c5700;stroke-width:0.99697685;stroke-miterlimit:4;stroke-opacity:1;stroke-dasharray:none;display:inline" />
    <rect
       width="61.494663"
       height="6.3418989"
       x="262.29172"
       y="300.44815"
       id="rect4376"
       style="fill:#ddb523;fill-opacity:1;stroke:#8c5700;stroke-width:1.05348575;stroke-miterlimit:4;stroke-opacity:1;stroke-dasharray:none" />
    <rect
       width="71.793816"
       height="6.7090569"
       x="-373.08691"
       y="262.31754"
       transform="matrix(0,-1,1,0,0,0)"
       id="rect4376-8"
       style="fill:#ddb523;fill-opacity:1;stroke:#8c5700;stroke-width:1.03879905;stroke-miterlimit:4;stroke-opacity:1;stroke-dasharray:none;display:inline" />
    <rect
       width="72.092773"
       height="6.7090569"
       x="-373.08691"
       y="316.95093"
       transform="matrix(0,-1,1,0,0,0)"
       id="rect4376-8-1"
       style="fill:#ddb523;fill-opacity:1;stroke:#8c5700;stroke-width:1.04095972;stroke-miterlimit:4;stroke-opacity:1;stroke-dasharray:none;display:inline" />
    <path
       d="m 366.10458,229.8125 c -3.20522,0 -5.8125,2.60728 -5.8125,5.8125 0,1.18625 0.3579,2.29971 0.96875,3.21875 l -9.09375,12.9375 -5.6875,-4.09375 c 0.11861,-0.46239 0.15625,-0.93812 0.15625,-1.4375 0,-3.20522 -2.57603,-5.8125 -5.78125,-5.8125 -3.20522,0 -5.8125,2.60728 -5.8125,5.8125 0,3.20522 2.60728,5.8125 5.8125,5.8125 1.10965,0 2.11846,-0.33478 3,-0.875 l 5.84375,4.125 -87.78125,125.03125 2.94808,2.172 88.20817,-124.82825 6.59375,4.65625 c -0.11391,0.45372 -0.15625,0.9172 -0.15625,1.40625 0,3.20522 2.57603,5.8125 5.78125,5.8125 3.20522,0 5.8125,-2.60728 5.8125,-5.8125 0,-3.20522 -2.60728,-5.8125 -5.8125,-5.8125 -1.18625,0 -2.26846,0.3579 -3.1875,0.96875 l -6.5625,-4.6875 9.3125,-12.9375 c 0.40725,0.0905 0.81548,0.15625 1.25,0.15625 3.20522,0 5.8125,-2.60728 5.8125,-5.8125 0,-3.20522 -2.60728,-5.8125 -5.8125,-5.8125 z"
       id="path4450"
       style="fill:#ddb523;fill-opacity:1;stroke:#8c5700;stroke-width:1;stroke-linecap:butt;stroke-linejoin:miter;stroke-miterlimit:4;stroke-opacity:1;stroke-dasharray:none" />
    <path
       d="m 218.78894,225.52535 c -2.2295,0 -4.03125,1.80175 -4.03125,4.03125 0,2.22949 1.80175,4.03125 4.03125,4.03125 0.0964,0 0.18652,-0.0247 0.28125,-0.0312 l 5.03125,7.25 -5.40625,3.6875 c -0.48971,-0.21109 -1.02661,-0.3125 -1.59375,-0.3125 -2.2295,0 -4.0625,1.80176 -4.0625,4.03125 0,2.2295 1.833,4.03125 4.0625,4.03125 2.2295,0 4.03125,-1.80175 4.03125,-4.03125 0,-0.107 -0.0231,-0.2076 -0.0312,-0.3125 l 5.375,-3.6875 7,10.09375 c -0.40353,1.14018 -0.35565,2.53222 0.28125,3.84375 0.91591,1.88608 2.73506,2.99678 4.4375,2.90625 l 2.03125,2.90625 c -0.42081,1.89007 0.0622,4.50977 1.46875,7 1.88425,3.33605 4.79078,5.35798 7,5.0625 l 1.96875,2.8125 0,0.0312 c -0.28355,1.21093 -0.0205,2.70907 0.84375,4.0625 0.96997,1.51907 2.43003,2.4268 3.78125,2.53125 l 15.875,22.6875 c 0.35772,2.33962 2.00574,5.94824 4.59375,9.625 2.56669,3.64647 5.37319,6.44914 7.46875,7.625 l 1.78125,2.53125 c -0.0545,1.04854 0.0893,2.80775 0.96875,4.0625 1.08775,1.55205 2.59266,2.79088 4.09375,3.15625 l 16.125,23.03125 c 0.0128,0.0192 0.0184,0.0433 0.0312,0.0625 5.18393,7.76049 15.46875,23.25 15.46875,23.25 l 2.6485,-2.02608 c 0,0 -20.61944,-31.37369 -31.17975,-46.25517 0.17955,-1.51959 -0.0944,-3.17596 -1.15625,-4.5625 -1.00853,-1.31707 -2.43157,-2.78765 -4.15625,-3.03125 l -1.5,-2.125 c -0.001,-0.009 10e-4,-0.0221 0,-0.0312 -0.32312,-2.33224 -2.02979,-5.98736 -4.65625,-9.71875 -2.55562,-3.63074 -5.37035,-6.40893 -7.46875,-7.59375 l -15.96875,-22.7813 c 0.35162,-1.24158 0.0913,-2.83459 -0.8125,-4.25 -1.01812,-1.59447 -2.56141,-2.53495 -3.96875,-2.5625 l -2.21875,-3.15625 c 0.4496,-1.89198 -0.0141,-4.51102 -1.4375,-7.03125 -1.89514,-3.35533 -4.81689,-5.38466 -7.03125,-5.0625 l -1.625,-2.34375 c 0.51059,-1.18124 0.46407,-2.68768 -0.21875,-4.09375 -0.84632,-1.74278 -2.45071,-2.85267 -4.03125,-2.9375 l -7.03125,-10.0625 5.125,-3.5 c 0.47549,0.19691 0.98458,0.3125 1.53125,0.3125 2.2295,0 4.0625,-1.80176 4.0625,-4.03125 0,-2.2295 -1.833,-4.0625 -4.0625,-4.0625 -2.2295,0 -4.03125,1.833 -4.03125,4.0625 0,0.13873 0.0177,0.27111 0.0312,0.40625 l -5,3.40625 -5.0625,-7.25 c 0.22892,-0.50653 0.34375,-1.06426 0.34375,-1.65625 0,-2.2295 -1.80175,-4.03125 -4.03125,-4.03125 z"
       id="path4483"
       style="fill:#ddb523;fill-opacity:1;stroke:#8c5700;stroke-width:1;stroke-linecap:butt;stroke-miterlimit:4;stroke-opacity:1;stroke-dasharray:none" />
    <path
       d="m 262.43787,239.12582 c -0.51937,4.75259 -0.9465,8.79191 -2.81,9.28055 0.0111,2.27137 0.59641,6.81673 6.59375,7.02127 7.39859,0.25233 10.51588,-5.15296 15.92812,-5.20188 5.41224,-0.0489 8.08821,2.99702 8.47813,6.60813 0.38992,3.61111 -1.36691,7.34302 -6.75,7.25 -5.38309,-0.093 -6.33676,-6.70748 -2.25938,-7.79123 1.35858,-0.36111 -1.19542,3.40607 2.41563,3.80311 3.78215,0.41585 4.30439,-6.19368 -1.89687,-6.06 -6.20125,0.13367 -10.90704,5.71615 -17.47064,4.50439 -7.13151,-1.3166 -8.62015,-6.69217 -9.46186,-10.13379 -1.86475,-0.48833 -2.66813,-4.52742 -3.01438,-9.28055 z"
       id="path4886-2"
       style="fill:#ddb523;fill-opacity:1;stroke:#8c5700;stroke-width:1;stroke-linecap:butt;stroke-miterlimit:4;stroke-opacity:1;stroke-dasharray:none;display:inline" />
  </g>
  <g
     transform="translate(368.97189,49.844467)"
     id="layer6"
     style="display:inline">
    <path
       d="m 132.25,515.4375 0,31.84375 c 0,0 -0.68858,12.96761 9.34375,21.90625 10.03232,8.93864 25.90625,8.21875 25.90625,8.21875 l 98.6875,0 c 0,0 14.07729,-0.1052 22.78125,9.5625 6.87936,7.64108 8.66148,13.83958 9.125,16.125 l 0,1 c 0,0 0.0449,-0.20215 0.0937,-0.5 0.0488,0.29785 0.0937,0.5 0.0937,0.5 l 0,-1 c 0.46352,-2.28542 2.27689,-8.48392 9.15625,-16.125 8.70396,-9.66772 22.78125,-9.5625 22.78125,-9.5625 l 98.6875,0 c 0,0 15.87393,0.71989 25.90625,-8.21875 10.03232,-8.93864 9.34375,-21.90625 9.34375,-21.90625 l 0,-31.84375 -165.875,0 -0.1875,0 z m 106.21875,4.84375 8.0025,9.65125 c 6.46078,-0.0866 11.71688,0.38084 14.71625,0.78625 11.57714,1.56501 12.52415,4.31294 17.4375,5.5 4.38333,1.05901 8.5625,1.46875 8.5625,1.46875 0,0 -5.33404,4.05983 -8.3125,5.375 -2.97846,1.31517 -9.3125,2.4375 -9.3125,2.4375 0,0 6.4259,0.18545 8.5625,1 2.1366,0.81455 4.15625,2.9375 4.15625,2.9375 0,0 -5.0823,0.52182 -7.59375,0.96875 -8.32298,1.48114 -16.10857,5.40591 -24.71875,5.625 -3.60514,0.0917 -8.04654,0.20265 -12.71875,0.28125 -0.96862,1.05124 -2.31543,2.49419 -2.5,3.96875 -0.18457,1.47456 1.75,4.6875 1.75,4.6875 0,0 -9.28305,1.4419 -14.21875,1.375 -4.9357,-0.0669 -15.21875,-1.90625 -15.21875,-1.90625 l 4.34375,-8.125 c -0.85195,-0.0172 -1.7313,-0.009 -2.5625,-0.0312 -5.72683,-0.15374 -12.67679,-0.65593 -19.5625,-1.21875 l -3.9375,7.34375 -15.1875,-2.21875 2.875,-6.4375 c -6.13462,-0.45575 -10.42618,-0.82043 -13.40625,-0.40625 -2.98007,0.41418 -6.00128,2.48938 -8.8125,4.40625 -2.81122,1.91687 -8.3125,7.09375 -8.3125,7.09375 0,0 -0.57115,-6.7374 1.21875,-10.03125 1.7899,-3.29385 6.125,-5.875 6.125,-5.875 0,0 -3.71294,-3.0385 -5.40625,-5.875 -1.69331,-2.8365 -4.40625,-11.25 -4.40625,-11.25 0,0 14.70837,8.2459 22.53125,8.3125 4.5056,0.0384 9.10794,-0.50533 13.75,-1.34375 l -5.40625,-5.75 18.59375,-8.8125 6.72125,10.51687 c 6.47453,-0.99449 12.10504,-2.10995 18.02875,-2.57937 l -5.40625,-9.9063 z m 108.4375,0 28.9375,1.96875 -5.10813,9.56 c 4.03072,0.75634 13.69401,2.65215 17.10314,3.09874 l 6.91124,-10.68999 18.15625,8.8125 -5.28125,5.75 c 4.53433,0.83842 9.03647,1.38211 13.4375,1.34375 7.64133,-0.0666 22,-8.3125 22,-8.3125 0,0 -2.62724,8.4135 -4.28125,11.25 -1.65402,2.8365 -5.28125,5.875 -5.28125,5.875 0,0 4.22038,2.58115 5.96875,5.875 1.74836,3.29385 1.1875,10.03125 1.1875,10.03125 0,0 -5.15484,-5.0801 -8.125,-7.09375 -2.67514,-1.81364 -5.01616,-3.89721 -8.59375,-4.40625 -2.24423,-0.31932 -7.1015,-0.0495 -13.09375,0.40625 l 2.8125,6.4375 -14.84375,2.21875 -3.84375,-7.34375 c -6.7259,0.56282 -13.53107,1.06501 -19.125,1.21875 -0.81191,0.0223 -1.66782,0.014 -2.5,0.0312 l 4.25,8.125 c 0,0 -10.05385,1.83935 -14.875,1.90625 -4.82116,0.0669 -13.875,-1.375 -13.875,-1.375 0,0 1.89903,-3.21294 1.71875,-4.6875 -0.18029,-1.47456 -1.52261,-2.91751 -2.46875,-3.96875 -4.56378,-0.0786 -8.88478,-0.18953 -12.40625,-0.28125 -8.41036,-0.21909 -16.02642,-4.14386 -24.15625,-5.625 -2.45316,-0.44693 -7.40625,-0.96875 -7.40625,-0.96875 0,0 1.97549,-2.12295 4.0625,-2.9375 2.08702,-0.81455 8.34375,-1 8.34375,-1 0,0 -6.18442,-1.12233 -9.09375,-2.4375 -2.90934,-1.31517 -8.09375,-5.375 -8.09375,-5.375 0,0 4.06215,-0.40974 8.34375,-1.46875 4.79933,-1.18706 5.75404,-3.93499 17.0625,-5.5 2.92976,-0.40546 8.37665,-0.87282 14.6875,-0.78619 z"
       id="path3266"
       style="fill:#056a9e;fill-opacity:1;stroke:none" />
  </g>
  <g
     transform="translate(368.97189,49.844467)"
     id="layer8"
     style="display:inline">
    <path
       d="m 247.25,531.4375 c -10.01944,0.12679 -22.05431,1.07432 -31.53125,2.03125 -14.15989,1.42979 -42.56114,7.88253 -51.25,7.9375 -5.12176,0.0324 -9.96178,-1.47135 -13.34375,-2.75 -3.06587,-1.15914 -8.8125,-4.34375 -8.8125,-4.34375 0,0 1.58956,5.39598 3.625,8.5 2.03544,3.10402 4.76347,4.55094 5.9375,6.21875 -1.56665,1.23847 -2.1303,0.90877 -5.28125,4.03125 -3.15095,3.12248 -2.90625,9.09375 -2.90625,9.09375 0,0 3.24516,-3.37573 6.40625,-5.5625 3.16109,-2.18677 6.45491,-4.18082 9.875,-4.59375 3.42009,-0.41293 39.89196,2.83513 52.28125,2.9375 12.38929,0.10237 34.96698,0.19646 40.15625,-0.53125 6.87047,-0.96346 13.41289,-3.75007 20.25,-5.03125 2.2302,-0.41791 6.75,-0.84375 6.75,-0.84375 0,0 -0.87053,-0.78328 -3.625,-1.40625 -2.75447,-0.62297 -9.20221,0.29018 -10.21875,-1.21875 1.54385,-2.06608 7.19066,-2.1773 10.90625,-3.4375 3.71559,-1.2602 7.28125,-3.8125 7.28125,-3.8125 0,0 -3.9395,-0.70231 -5.875,-1.21875 -5.3425,-1.4255 -6.28243,-3.43156 -15.78125,-5.1875 -3.56206,-0.65848 -8.83208,-0.88857 -14.84375,-0.8125 z m 10.91828,0.36532 c 1.04615,0.94625 -7.40629,5.50603 -7.74197,12.51013 -0.24685,5.15073 6.16025,9.13608 5.11243,9.82673 -1.04782,0.69064 -7.24142,-4.37771 -6.89232,-9.72639 0.47809,-7.32509 8.47571,-13.55673 9.52186,-12.61047 z m -7.98078,0.79093 c 0.94457,1.02053 -7.29437,5.00727 -8.0625,11.46875 -0.76316,6.41971 5.19935,9.20899 4.1875,10.15625 -1.01185,0.94726 -6.59442,-4.44677 -6.09375,-9.65625 0.6772,-7.04629 9.02418,-12.98928 9.96875,-11.96875 z m 14.09375,3.8125 c 1.48201,0 2.6875,1.05297 2.6875,2.34375 0,1.29078 -1.20549,2.3125 -2.6875,2.3125 -1.48201,0 -2.6875,-1.02172 -2.6875,-2.3125 0,-1.29078 1.20549,-2.34375 2.6875,-2.34375 z m -31.1875,2.5 4.3125,7.53125 -8.625,0.25 z m -8.65625,0.75 3.78125,7 -7.5625,0.21875 z m -8.125,0.59375 3.46875,6.59375 -6.9375,0.0312 z m -8.15625,0.84375 3.59375,5.96875 -7.15625,0.1875 z M 200.25,541.75 l 3.25,5.53125 -6.75,0.0937 z m -8.21875,0.6875 2.90625,4.96875 -6,0.1875 z m -8.09375,0.75 2.875,4.40625 -5.78125,0.1875 z m -8.09375,0.625 2.84375,3.96875 L 172.78125,548 z m -7.75,0.71875 2.25,3.46875 -4.65625,0.15625 z"
       id="path4116"
       style="fill:#e6e6e6;fill-opacity:1;stroke:none" />
    <path
       d="m 338.51195,531.3821 c 9.77663,0.12679 21.51984,1.07432 30.7671,2.03125 13.81675,1.42979 41.5297,7.88253 50.00799,7.9375 4.99764,0.0324 9.72036,-1.47135 13.02037,-2.75 2.99158,-1.15914 8.59893,-4.34375 8.59893,-4.34375 0,0 -1.55103,5.39598 -3.53714,8.5 -1.98612,3.10402 -4.64804,4.55094 -5.79361,6.21875 1.52868,1.23847 2.07867,0.90877 5.15326,4.03125 3.07459,3.12248 2.83582,9.09375 2.83582,9.09375 0,0 -3.16651,-3.37573 -6.251,-5.5625 -3.08448,-2.18677 -6.29848,-4.18082 -9.63568,-4.59375 -3.33721,-0.41293 -38.9252,2.83513 -51.01424,2.9375 -12.08905,0.10237 -34.11958,0.19646 -39.18309,-0.53125 -6.70397,-0.96346 -13.08783,-3.75007 -19.75925,-5.03125 -2.17616,-0.41791 -6.58642,-0.84375 -6.58642,-0.84375 0,0 0.84944,-0.78328 3.53715,-1.40625 2.68772,-0.62297 8.9792,0.29018 9.9711,-1.21875 -1.50643,-2.06608 -7.01639,-2.1773 -10.64194,-3.4375 -3.62554,-1.2602 -7.10479,-3.8125 -7.10479,-3.8125 0,0 3.84403,-0.70231 5.73262,-1.21875 5.21303,-1.4255 6.13018,-3.43156 15.3988,-5.1875 3.47573,-0.65848 8.61805,-0.88857 14.48402,-0.8125 z m -10.65368,0.36532 c -1.0208,0.94625 7.2268,5.50603 7.55434,12.51013 0.24087,5.15073 -6.01095,9.13608 -4.98853,9.82673 1.02243,0.69064 7.06593,-4.37771 6.7253,-9.72639 -0.46651,-7.32509 -8.27032,-13.55673 -9.29111,-12.61047 z m 7.78737,0.79093 c -0.92168,1.02053 7.11759,5.00727 7.86711,11.46875 0.74467,6.41971 -5.07335,9.20899 -4.08601,10.15625 0.98732,0.94726 6.4346,-4.44677 5.94606,-9.65625 -0.66079,-7.04629 -8.80548,-12.98928 -9.72716,-11.96875 z m -13.7522,3.8125 c -1.44608,0 -2.62236,1.05297 -2.62236,2.34375 0,1.29078 1.17628,2.3125 2.62236,2.3125 1.4461,0 2.62237,-1.02172 2.62237,-2.3125 0,-1.29078 -1.17627,-2.34375 -2.62237,-2.34375 z m 30.43169,2.5 -4.20799,7.53125 8.41598,0.25 z m 8.44647,0.75 -3.68961,7 7.37923,0.21875 z m 7.9281,0.59375 -3.38469,6.59375 6.76937,0.0312 z m 7.95859,0.84375 -3.50667,5.96875 6.98283,0.1875 z m 7.71464,0.65625 -3.17123,5.53125 6.58641,0.0937 z m 8.01958,0.6875 -2.83582,4.96875 5.85459,0.1875 z m 7.8976,0.75 -2.80533,4.40625 5.64115,0.1875 z m 7.8976,0.625 -2.77483,3.96875 5.76311,0.21875 z m 7.56218,0.71875 -2.19547,3.46875 4.54341,0.15625 z"
       id="path4116-2"
       style="fill:#e6e6e6;fill-opacity:1;stroke:none;display:inline" />
  </g>
  <g
     transform="translate(0,7.213562)"
     id="layer12"
     style="display:inline">
    <path
       d="m 604.37282,404.19285 c -2.48459,-0.15593 -4.04096,4.85646 -12.11862,5.14204 0,0 -0.87075,-9.96496 -0.86561,-15.6624 7.34796,0.19318 20.17652,-4.82801 25.79534,1.70539 2.68382,3.12067 2.9031,11.24719 -1.03874,12.30422 -8.25653,2.21403 -9.28778,-3.33332 -11.77237,-3.48925 z"
       id="path4766"
       style="fill:#000000;fill-opacity:1;stroke:none" />
    <path
       d="m 723.11337,403.39262 c 2.48935,0.0251 3.33088,5.31056 11.71264,6.00962 0,0 1.13799,-10.77636 1.54715,-16.45909 -7.34256,-0.34163 -19.50123,-5.76997 -25.39601,0.72628 -2.70358,2.97943 -3.71325,11.00632 0.1413,12.34718 8.07368,2.80854 9.50557,-2.64914 11.99492,-2.62399 z"
       id="path4766-5"
       style="fill:#000000;fill-opacity:1;stroke:none;display:inline" />
  </g>
</svg>
