<?xml version="1.0" encoding="UTF-8"?>
<!DOCTYPE svg PUBLIC "-//W3C//DTD SVG 1.1//EN" "http://www.w3.org/Graphics/SVG/1.1/DTD/svg11.dtd">
<!-- Creator: CorelDRAW -->
<svg xmlns="http://www.w3.org/2000/svg" xml:space="preserve" width="900px" height="600px" style="shape-rendering:geometricPrecision; text-rendering:geometricPrecision; image-rendering:optimizeQuality; fill-rule:evenodd; clip-rule:evenodd"
viewBox="0 0 900 600"
 xmlns:xlink="http://www.w3.org/1999/xlink"
 xmlns:svg="http://www.w3.org/2000/svg"
 version="1.0">
 <defs>
  <style type="text/css">
   <![CDATA[
    .fil5 {fill:black}
    .fil2 {fill:#003399}
    .fil1 {fill:green}
    .fil7 {fill:#DE0000}
    .fil6 {fill:#DEDEDD}
    .fil4 {fill:red}
    .fil3 {fill:gold}
    .fil0 {fill:white}
   ]]>
  </style>
 </defs>
 <g id="Слой_x0020_1">
  <metadata id="CorelCorpID_0Corel-Layer"/>
  <rect class="fil0" x="0.000357777" y="0.000128653" width="899.999" height="600"/>
  <rect class="fil1" x="650" y="-9.82678e-005" width="250" height="600"/>
  <rect class="fil2" x="400" y="0.000128653" width="99.9998" height="600"/>
  <path id="_138499816" class="fil3" d="M502.977 237.752l-25.5801 0 -54.7935 0 -25.5801 0c2.28735,-19.0086 16.4474,-39.0174 38.8564,-44.9164l0.03765 -5.15955 28.3278 -0.00885 -0.0108 5.4057c20.648,6.1116 36.119,25.4883 38.7426,44.6791z"/>
  <g id="_60169056">
   <path id="_138423920" class="fil4" d="M331.392 178.053c1.99245,-0.14535 7.9383,1.83495 10.2322,0.38565 2.1498,-1.77225 4.35795,-2.31885 5.89815,0.0624 1.37565,0.97455 3.6114,-0.22635 5.15955,-0.3939 -0.201,2.3013 -1.5192,5.14695 -4.6434,4.458 -2.04975,-0.25395 -2.29425,-1.92105 -4.47255,-2.12025 -1.884,0.1062 -2.66925,1.518 -4.25205,1.6239 -1.15005,-0.2379 -1.3806,-1.21395 -2.9685,-1.41045 -2.49525,-0.3087 -5.12925,-1.16115 -4.95345,-2.60535l0 0z"/>
   <path id="_138435280" class="fil5" d="M329.499 240.659l0.11925 -0.07575c-5.1828,-15.4011 -14.7131,-29.4906 -29.3856,-43.5309 -5.74755,-6.8058 -9.46905,-13.6233 -9.66855,-22.4792 0,-5.83755 3.2118,-13.5676 10.0811,-17.0523 -0.32085,2.1687 -0.5745,4.7163 0.5727,6.75915 -0.3507,-6.05625 -0.3957,-11.1636 3.90285,-14.3176 3.94935,-2.1516 8.8149,1.1172 10.1334,6.09375 0.12015,-2.0631 1.70865,-6.27015 3.3594,-5.6841 2.163,-0.0219 1.3284,4.5612 2.94165,6.68385 7.2993,2.32215 12.9885,6.1926 18.7184,10.3379 2.4378,1.90215 2.54085,2.3091 2.8365,4.86435 0.5247,6.56085 -3.5835,6.82755 -11.3487,5.3685 -1.68105,1.4241 2.4678,2.7828 4.21305,3.033 0.16335,1.21635 -0.27315,2.388 -1.4787,2.72955 -4.88925,0.7233 -6.91395,0.3966 -11.8872,0.1767 -3.15105,0.18975 -4.0443,5.52675 1.59195,8.1981 18.6816,7.7292 29.5141,17.1372 39.7577,27.8419l0.37965 0.1569c-0.00915,-0.01065 -0.0174,-0.0216 -0.02685,-0.03255 11.9373,4.3941 28.6206,3.92325 25.1685,-19.4588 -5.8971,-9.0876 0.5271,-15.8954 4.5711,-16.1025 -0.0891,0.7245 0.5478,1.53195 1.57125,1.5357 0.29265,-0.29685 0.53445,-0.5715 0.76185,-0.8103 0.55875,0.0192 1.0509,0.16965 1.48365,0.4365 -0.4011,0.0642 -0.7722,0.1785 -1.0983,0.32625 -1.2612,0.6579 -0.58905,2.412 0.9198,2.4171 0.58425,-0.59115 0.9678,-1.09575 1.4328,-1.40145 0.31875,0.53685 0.58065,1.18245 0.7908,1.92045 -0.7557,-0.0855 -1.46175,0.05415 -2.01525,0.30495 -1.08435,0.5655 -0.5067,2.07435 0.7911,2.0787 0.60045,-0.6078 0.95445,-1.10985 1.476,-1.3392 1.61745,7.97055 -1.3254,23.9253 -2.2902,31.6522 -3.22125,12.5384 -19.549,22.9727 -19.677,22.6104 -3.0786,-8.66745 -6.00795,-14.2002 -10.9085,-20.5115 6.66645,9.72615 9.45585,18.5187 13.1208,28.6968 2.93205,6.4131 7.062,2.8269 8.9268,-2.283 1.32735,-3.8037 3.8838,-11.3801 9.4077,-12.0492l14.3319 -0.0003c-0.2874,2.0862 -8.44755,16.9282 -9.3615,17.3781 -1.8945,1.66065 -6.08475,1.02645 -8.43555,3.3705 -4.20795,4.701 -3.162,17.8815 -11.2983,17.8188 -7.368,-0.7689 -12.042,-7.57275 -19.5648,-17.5529 1.7361,4.1379 2.46975,7.5612 6.5934,10.826 -6.0429,23.5804 -12.6209,26.8393 -21.0165,39.1059 -6.42075,10.2141 -14.127,18.2199 -14.6635,35.584 -0.80655,8.7495 2.3256,15.4218 0.9861,25.5933 -0.6144,5.09415 -1.88445,15.7134 -10.9192,21.4837 -7.8486,6.5928 -20.1792,2.5887 -28.9023,7.3773 -3.0336,2.3949 -5.3022,10.4255 -3.8517,18.1192 -0.14145,1.89405 1.7655,4.13415 3.7224,3.96795 8.53215,-1.00875 15.0963,0.80205 16.4104,6.44505 0.37695,5.21415 -14.4468,10.6539 -19.9747,9.33015 -5.94435,-1.2297 -9.81045,-10.4622 -10.8333,-16.8756 0.066,-7.0803 0.1323,-14.1601 0.1989,-21.2398 0.9789,-13.2367 18.607,-5.91555 15.6137,-28.2534 -2.4579,-9.7089 -1.37505,-14.3667 2.0676,-23.0646 0.2445,-12.4037 -0.69135,-23.5945 7.22355,-34.7859 11.8321,-22.9213 28.3162,-44.0224 22.4287,-71.722l0 0zm-54.5769 -35.3893c1.85655,-3.19305 5.94165,-5.18775 9.41865,-2.86335 3.87585,3.52575 3.4005,4.4427 6.3264,9.2754 1.13055,1.8678 3.7413,4.1679 6.357,7.29795 5.68275,6.80055 12.0666,20.1626 13.4584,29.1272 3.33495,15.6474 -2.47305,29.6175 -8.60625,40.9044 -4.2174,6.7026 -8.85045,13.0618 -12.6511,20.1081 -2.7264,5.58825 -5.5149,10.1194 -5.43495,17.539 0.14055,4.461 1.377,8.67405 7.2993,7.611 2.4402,-0.34425 4.48785,-2.4159 6.70695,-5.15445 0.5121,-0.63135 1.5249,-1.2996 1.99485,-1.98945 -0.78195,6.60345 0.282,13.3954 -2.3547,18.4882 -3.06375,3.3171 -6.5661,4.93515 -11.7399,4.9668 -6.4842,0.67275 -12.76,-2.80665 -15.461,-10.4002 -9.18135,-25.8171 5.3637,-70.8482 5.6889,-89.3039 0.4026,-22.8297 -8.11455,-36.2751 -1.0026,-45.6067l0 0zm62.6658 150.661c-2.5062,-23.3766 3.10785,-32.5419 11.4282,-44.1793 -2.1114,9.2715 -2.7189,15.1446 6.29745,17.6189 23.2097,12.1291 25.6681,23.6394 17.3001,58.0114 -2.5725,5.30145 3.036,14.4966 9.543,19.797 7.56975,0.9411 16.7362,-1.70535 19.2183,6.4104 0.05205,6.8844 -5.9814,12.1287 -16.3052,11.0183 -16.1298,-4.6131 -16.1967,-20.09 -26.9386,-30.8522 0.59955,-7.00635 4.29285,-10.7323 -0.69435,-16.8153 -4.62075,-6.90045 -16.8372,-7.1151 -19.8489,-21.0091l0 0z"/>
   <path id="_138427760" class="fil6" d="M402.479 189.867c-2.38275,-0.85875 -2.6163,-0.0798 -3.79065,1.10985 -1.2978,-0.00435 -1.87545,-1.5132 -0.7911,-2.0787 1.17195,-0.5319 3.0279,-0.5556 4.58175,0.96885zm-102.634 244.278c0.7242,-0.82395 1.5999,-0.79515 2.7705,-0.14565 1.02135,2.25 -0.1272,3.85845 -1.10985,5.52795 -0.32415,-2.22495 -2.07435,-4.11435 -1.66065,-5.3823zm88.6865 -11.661c0.7299,-1.04475 1.61265,-1.00815 2.7933,-0.1848 1.0299,2.85225 -0.1278,4.89075 -1.1193,7.00725 -0.32625,-2.8206 -2.0913,-5.2149 -1.674,-6.82245l0 0zm4.0194 -0.12465c0.20805,-1.63515 2.74035,-1.92345 3.2166,-0.51825 0.88635,2.99955 -0.89595,4.60635 -1.88655,6.7224 0.36645,-3.76665 -0.9363,-3.2937 -1.33005,-6.20415zm3.9369 -2.51625c0.1299,-1.0503 2.4615,-1.85205 2.91525,-0.4398 0.84405,3.0156 -1.1214,4.33545 -2.0652,6.4629 1.0065,-3.65655 -0.7491,-3.39465 -0.85005,-6.0231zm3.04755 -2.9877c0.12075,-0.966 1.4244,-2.3775 2.33925,-0.3555 1.06605,2.7012 -1.04265,3.98715 -1.92075,5.94375 1.35135,-4.0401 -0.9711,-3.9096 -0.4185,-5.58825zm-88.7758 12.8487c0.11985,-0.762 1.41315,-1.87515 2.31975,-0.2802 1.0578,2.1312 -1.0341,3.1452 -1.90425,4.68915 1.3401,-3.1872 -0.9639,-3.08385 -0.4155,-4.40895zm-3.02295 2.3574c0.1287,-0.82845 2.4417,-1.46145 2.89155,-0.34635 0.8376,2.3787 -1.11225,3.41955 -2.0484,5.0982 0.99855,-2.88495 -0.7428,-2.6781 -0.84315,-4.75185l0 0zm-4.18215 1.58955c0.22335,-1.39455 2.9379,-1.64025 3.4482,-0.4422 0.95055,2.5578 -0.96015,3.92775 -2.0223,5.73225 0.3933,-3.2115 -1.00365,-2.80845 -1.4259,-5.29005zm104.705 -192.289c-0.6759,-0.7233 -0.97485,-1.98975 -0.1704,-2.77635 2.9418,2.1531 4.47105,-1.083 5.70525,-0.83235 -1.8072,1.53225 -4.19175,5.07315 -5.53485,3.6087zm-100.774 -86.3028c1.50375,-0.9651 3.70335,0.78075 3.6663,3.3369 -2.6955,-0.4986 -3.4962,0.77625 -3.96735,4.5702 -1.94235,-1.8633 -1.9731,-6.5931 0.30105,-7.9071zm12.6461 30.6903c0.56115,-2.1501 2.0517,-2.38065 5.40405,-2.0016 -1.96995,0.141 -2.18985,2.45295 -1.0122,3.86175 3.5415,4.236 13.7962,9.6051 21.6699,16 -6.93855,-5.03835 -14.8075,-8.9862 -23.2255,-12.4989 -2.10135,-1.30755 -3.2718,-2.8335 -2.8362,-5.3613l0 0zm20.6235 -18.1917c1.57095,0.5262 3.2922,0.43425 4.5285,2.08155 1.3212,3.2466 -1.7991,5.5938 -2.0847,4.8573 -0.04095,-1.1292 0.0804,-2.76045 -0.5574,-3.0795 -0.67095,-0.27 -1.04325,0.7722 -1.2534,1.36815 -0.73455,-1.26165 -0.81645,-2.51565 -0.633,-5.2275zm-13.6731 -3.83715c2.19165,0.94215 3.19755,2.16825 3.0105,3.933 -0.18765,1.7646 -3.30915,1.40295 -5.50095,0.46035 -2.19225,-0.94215 -3.00705,-2.6193 -2.445,-3.9996 0.56205,-1.37925 2.7435,-1.33635 4.93545,-0.39375zm-0.4431 0.60735c0.92055,0 1.6719,0.7086 1.6719,1.5783 0,0.86895 -0.75135,1.57755 -1.6719,1.57755 -0.9213,0 -1.6728,-0.7086 -1.6728,-1.57755 0,-0.8697 0.7515,-1.5783 1.6728,-1.5783zm73.3912 20.0862c-2.7702,-0.99945 -3.04125,-0.0936 -4.40775,1.2903 -1.50885,-0.00555 -2.1804,-1.7598 -0.9198,-2.4171 1.3626,-0.61935 3.52095,-0.64665 5.32755,1.1268l0 0zm2.067 2.3697c-2.7702,-0.99855 -3.04155,-0.0924 -4.40775,1.29015 -1.50885,-0.0051 -2.181,-1.7592 -0.9198,-2.4171 1.3623,-0.6183 3.52035,-0.6459 5.32755,1.12695l0 0z"/>
  </g>
  <g id="_130786208">
   <path id="_138423920_0" class="fil4" d="M568.608 178.053c-1.9926,-0.14535 -7.9383,1.83495 -10.2322,0.38565 -2.14965,-1.77225 -4.3578,-2.31885 -5.898,0.0624 -1.37565,0.97455 -3.61155,-0.22635 -5.1597,-0.3939 0.20115,2.3013 1.51935,5.14695 4.64355,4.458 2.0496,-0.25395 2.2941,-1.92105 4.47255,-2.12025 1.88385,0.1062 2.6691,1.518 4.2519,1.6239 1.15005,-0.2379 1.3806,-1.21395 2.9685,-1.41045 2.49525,-0.3087 5.12925,-1.16115 4.95345,-2.60535l0 0z"/>
   <path id="_138435280_1" class="fil5" d="M570.501 240.659l-0.11925 -0.07575c5.18265,-15.4011 14.7129,-29.4906 29.3853,-43.5309 5.74755,-6.8058 9.4692,-13.6233 9.6687,-22.4792 0,-5.83755 -3.2118,-13.5676 -10.0811,-17.0523 0.32085,2.1687 0.5745,4.7163 -0.5727,6.75915 0.3507,-6.05625 0.3957,-11.1636 -3.90285,-14.3176 -3.94935,-2.1516 -8.8149,1.1172 -10.1334,6.09375 -0.12015,-2.0631 -1.70865,-6.27015 -3.35925,-5.6841 -2.16315,-0.0219 -1.32855,4.5612 -2.9418,6.68385 -7.2993,2.32215 -12.9883,6.1926 -18.7182,10.3379 -2.4378,1.90215 -2.54085,2.3091 -2.8365,4.86435 -0.5247,6.56085 3.5835,6.82755 11.3487,5.3685 1.68105,1.4241 -2.4678,2.7828 -4.21305,3.033 -0.16335,1.21635 0.27315,2.388 1.4787,2.72955 4.88925,0.7233 6.91395,0.3966 11.8871,0.1767 3.15105,0.18975 4.0443,5.52675 -1.5918,8.1981 -18.6815,7.7292 -29.514,17.1372 -39.7575,27.8419l-0.37965 0.1569c0.00915,-0.01065 0.0174,-0.0216 0.02685,-0.03255 -11.9373,4.3941 -28.6204,3.92325 -25.1683,-19.4588 5.8971,-9.0876 -0.5271,-15.8954 -4.5711,-16.1025 0.0891,0.7245 -0.5478,1.53195 -1.57125,1.5357 -0.2925,-0.29685 -0.5343,-0.5715 -0.76185,-0.8103 -0.55875,0.0192 -1.05075,0.16965 -1.48365,0.4365 0.40125,0.0642 0.7722,0.1785 1.0983,0.32625 1.26135,0.6579 0.5892,2.412 -0.9198,2.4171 -0.58425,-0.59115 -0.9678,-1.09575 -1.4328,-1.40145 -0.31875,0.53685 -0.58065,1.18245 -0.7908,1.92045 0.75585,-0.0855 1.46175,0.05415 2.01525,0.30495 1.08435,0.5655 0.50685,2.07435 -0.79095,2.0787 -0.60045,-0.6078 -0.95445,-1.10985 -1.47615,-1.3392 -1.61745,7.97055 1.32555,23.9253 2.29035,31.6522 3.22125,12.5384 19.5487,22.9727 19.6768,22.6104 3.0786,-8.66745 6.0078,-14.2002 10.9083,-20.5115 -6.6663,9.72615 -9.4557,18.5187 -13.1207,28.6968 -2.93205,6.4131 -7.062,2.8269 -8.9268,-2.283 -1.32735,-3.8037 -3.88365,-11.3801 -9.4077,-12.0492l-14.3318 -0.0003c0.2874,2.0862 8.4474,16.9282 9.36135,17.3781 1.89465,1.66065 6.0849,1.02645 8.4357,3.3705 4.2078,4.701 3.16185,17.8815 11.2981,17.8188 7.368,-0.7689 12.0419,-7.57275 19.5647,-17.5529 -1.7361,4.1379 -2.4696,7.5612 -6.59325,10.826 6.04275,23.5804 12.6207,26.8393 21.0163,39.1059 6.4206,10.2141 14.1269,18.2199 14.6634,35.584 0.80655,8.7495 -2.3256,15.4218 -0.9861,25.5933 0.6144,5.09415 1.88445,15.7134 10.9193,21.4837 7.8486,6.5928 20.179,2.5887 28.902,7.3773 3.0336,2.3949 5.30235,10.4255 3.85185,18.1192 0.14145,1.89405 -1.76565,4.13415 -3.72255,3.96795 -8.532,-1.00875 -15.0962,0.80205 -16.4103,6.44505 -0.37695,5.21415 14.4468,10.6539 19.9746,9.33015 5.94435,-1.2297 9.81045,-10.4622 10.8333,-16.8756 -0.066,-7.0803 -0.13245,-14.1601 -0.19905,-21.2398 -0.97875,-13.2367 -18.6069,-5.91555 -15.6135,-28.2534 2.4579,-9.7089 1.3752,-14.3667 -2.0676,-23.0646 -0.2445,-12.4037 0.69135,-23.5945 -7.2234,-34.7859 -11.8321,-22.9213 -28.3161,-44.0224 -22.4286,-71.722l0 0zm54.5764 -35.3893c-1.85655,-3.19305 -5.9415,-5.18775 -9.4185,-2.86335 -3.87585,3.52575 -3.4005,4.4427 -6.3264,9.2754 -1.13055,1.8678 -3.7413,4.1679 -6.357,7.29795 -5.68275,6.80055 -12.0664,20.1626 -13.4583,29.1272 -3.33495,15.6474 2.47305,29.6175 8.60625,40.9044 4.21725,6.7026 8.85045,13.0618 12.651,20.1081 2.7264,5.58825 5.5149,10.1194 5.43495,17.539 -0.14055,4.461 -1.377,8.67405 -7.2993,7.611 -2.4402,-0.34425 -4.4877,-2.4159 -6.7068,-5.15445 -0.51225,-0.63135 -1.52505,-1.2996 -1.995,-1.98945 0.7821,6.60345 -0.28185,13.3954 2.35485,18.4882 3.0636,3.3171 6.56595,4.93515 11.7397,4.9668 6.4842,0.67275 12.76,-2.80665 15.4608,-10.4002 9.18135,-25.8171 -5.36355,-70.8482 -5.68875,-89.3039 -0.40275,-22.8297 8.1144,-36.2751 1.00245,-45.6067l0 0zm-62.6653 150.661c2.5062,-23.3766 -3.1077,-32.5419 -11.428,-44.1793 2.1114,9.2715 2.71875,15.1446 -6.29745,17.6189 -23.2097,12.1291 -25.668,23.6394 -17.3,58.0114 2.5725,5.30145 -3.036,14.4966 -9.543,19.797 -7.5696,0.9411 -16.7361,-1.70535 -19.2183,6.4104 -0.05205,6.8844 5.9814,12.1287 16.3052,11.0183 16.1296,-4.6131 16.1966,-20.09 26.9385,-30.8522 -0.59955,-7.00635 -4.29285,-10.7323 0.69435,-16.8153 4.6206,-6.90045 16.8371,-7.1151 19.8487,-21.0091l0 0z"/>
   <path id="_138427760_2" class="fil6" d="M497.522 189.867c2.3826,-0.85875 2.6163,-0.0798 3.79065,1.10985 1.2978,-0.00435 1.8753,-1.5132 0.79095,-2.0787 -1.1718,-0.5319 -3.02775,-0.5556 -4.5816,0.96885zm102.633 244.278c-0.7242,-0.82395 -1.5999,-0.79515 -2.7705,-0.14565 -1.02135,2.25 0.12705,3.85845 1.10985,5.52795 0.32415,-2.22495 2.0742,-4.11435 1.66065,-5.3823zm-88.686 -11.661c-0.7299,-1.04475 -1.6125,-1.00815 -2.7933,-0.1848 -1.02975,2.85225 0.1278,4.89075 1.1193,7.00725 0.3264,-2.8206 2.0913,-5.2149 1.674,-6.82245l0 0zm-4.01925 -0.12465c-0.20805,-1.63515 -2.7405,-1.92345 -3.21675,-0.51825 -0.8862,2.99955 0.8961,4.60635 1.8867,6.7224 -0.3666,-3.76665 0.93615,-3.2937 1.33005,-6.20415zm-3.9369 -2.51625c-0.1299,-1.0503 -2.4615,-1.85205 -2.91525,-0.4398 -0.84405,3.0156 1.12125,4.33545 2.06505,6.4629 -1.00635,-3.65655 0.7491,-3.39465 0.8502,-6.0231zm-3.0477 -2.9877c-0.1206,-0.966 -1.42425,-2.3775 -2.3391,-0.3555 -1.06605,2.7012 1.04265,3.98715 1.9206,5.94375 -1.3512,-4.0401 0.97125,-3.9096 0.4185,-5.58825zm88.7754 12.8487c-0.11985,-0.762 -1.413,-1.87515 -2.31975,-0.2802 -1.0578,2.1312 1.0341,3.1452 1.90425,4.68915 -1.3401,-3.1872 0.9639,-3.08385 0.4155,-4.40895zm3.02295 2.3574c-0.1287,-0.82845 -2.4417,-1.46145 -2.89155,-0.34635 -0.8376,2.3787 1.11225,3.41955 2.0484,5.0982 -0.99855,-2.88495 0.7428,-2.6781 0.84315,-4.75185l0 0zm4.182 1.58955c-0.2232,-1.39455 -2.93775,-1.64025 -3.44805,-0.4422 -0.95055,2.5578 0.96015,3.92775 2.0223,5.73225 -0.3933,-3.2115 1.00365,-2.80845 1.42575,-5.29005zm-104.704 -192.289c0.6759,-0.7233 0.97485,-1.98975 0.1704,-2.77635 -2.9418,2.1531 -4.47105,-1.083 -5.70525,-0.83235 1.8072,1.53225 4.19175,5.07315 5.53485,3.6087zm100.774 -86.3028c-1.50375,-0.9651 -3.70335,0.78075 -3.6663,3.3369 2.6955,-0.4986 3.4962,0.77625 3.96735,4.5702 1.94235,-1.8633 1.9731,-6.5931 -0.30105,-7.9071zm-12.6459 30.6903c-0.56115,-2.1501 -2.05185,-2.38065 -5.4042,-2.0016 1.96995,0.141 2.18985,2.45295 1.0122,3.86175 -3.5415,4.236 -13.7961,9.6051 -21.6696,16 6.93855,-5.03835 14.8074,-8.9862 23.2254,-12.4989 2.10135,-1.30755 3.27165,-2.8335 2.8362,-5.3613l0 0zm-20.6235 -18.1917c-1.57095,0.5262 -3.29205,0.43425 -4.5285,2.08155 -1.3212,3.2466 1.7991,5.5938 2.0847,4.8573 0.0411,-1.1292 -0.08025,-2.76045 0.55755,-3.0795 0.67095,-0.27 1.04325,0.7722 1.2534,1.36815 0.7344,-1.26165 0.8163,-2.51565 0.63285,-5.2275zm13.6731 -3.83715c-2.1918,0.94215 -3.19755,2.16825 -3.0105,3.933 0.18765,1.7646 3.30915,1.40295 5.5008,0.46035 2.1924,-0.94215 3.0072,-2.6193 2.44515,-3.9996 -0.5622,-1.37925 -2.7435,-1.33635 -4.93545,-0.39375zm0.4431 0.60735c-0.9207,0 -1.6719,0.7086 -1.6719,1.5783 0,0.86895 0.7512,1.57755 1.6719,1.57755 0.9213,0 1.6728,-0.7086 1.6728,-1.57755 0,-0.8697 -0.7515,-1.5783 -1.6728,-1.5783zm-73.3908 20.0862c2.77005,-0.99945 3.0411,-0.0936 4.4076,1.2903 1.509,-0.00555 2.18055,-1.7598 0.9198,-2.4171 -1.3626,-0.61935 -3.5208,-0.64665 -5.3274,1.1268l0 0zm-2.067 2.3697c2.77005,-0.99855 3.0414,-0.0924 4.4076,1.29015 1.509,-0.0051 2.18115,-1.7592 0.9198,-2.4171 -1.3623,-0.6183 -3.5202,-0.6459 -5.3274,1.12695l0 0z"/>
  </g>
  <g id="_59932632">
   <path id="_138502040" class="fil0" d="M499.999 443.211l0 7.50045 -99.9993 0 0 -7.50045 99.9993 0c0,0 0,0 0,0z"/>
   <path id="_138501296" class="fil5" d="M400 443.211l0 7.50045c-50.0001,-0.09045 -100,-0.1809 -149.999,-0.27195l-0.0006 -7.2285 150 0z"/>
   <path id="_138501296_3" class="fil5" d="M650 443.211l0 7.50045c-50,-0.09045 -100,-0.1809 -150,-0.27195l-0.0006 -7.2285 150 0z"/>
  </g>
  <rect class="fil7" x="-0.000138724" y="-9.82678e-005" width="250.001" height="600"/>
 </g>
</svg>
