<?xml version="1.0" encoding="UTF-8"?>
<svg xmlns="http://www.w3.org/2000/svg" style="fill-rule:evenodd" width="1200px" height="800px">
<rect fill="#0093dd" width="1200" height="800"/>
<polygon fill="#d81e05" points="0,0 1200,0 0,800"/>
<polygon fill="#fff" points="0,800 0,640 1200,0 1200,160"/>
<path fill="#000" d="M136.922 104.013c2.62559,2.28189 6.27638,6.72992 6.84567,9.81024 7.07362,1.14094 12.7772,5.70354 17.9114,10.839 7.07244,0.226772 14.602,-0.914173 19.7362,3.76299 6.84449,3.5374 13.1197,8.55709 20.9906,9.58346 11.5228,1.02756 23.8441,0.683858 35.1378,-0.227953 7.07362,-0.229134 12.7772,1.48346 19.1669,3.30827 9.01181,3.0815 20.0776,3.0815 30.1169,2.16732 8.21339,0.685039 37.989,2.39528 42.3248,13.1197 2.28071,1.8248 4.33465,4.10669 6.95787,5.24764 2.28189,0.912992 1.93937,3.87874 4.33583,4.79173 8.1,8.55709 28.2933,17.6835 37.761,5.81811 2.50984,-3.08031 1.14094,-8.21339 1.3689,-12.3201 -10.0382,-20.1933 -41.8677,-23.8441 -61.1469,-21.5622 -6.7311,0.227953 -13.2343,1.8248 -20.3079,1.3689 -12.4346,0 -32.2843,2.1685 -43.8071,-3.42283 -6.84449,-2.96575 -13.0051,-5.81811 -20.5346,-7.87205 -14.8311,-4.44921 -10.1551,-20.4201 2.62323,-20.4201 17.9114,-7.07362 35.5937,13.3476 50.7673,7.87205 9.01181,0 17.2264,-2.28189 26.3528,-1.71142 10.7244,-2.05512 20.9917,0.570472 31.715,0.683858 25.3264,5.24882 57.9543,15.5161 62.9728,45.9756 3.76535,26.2394 -25.0972,49.7409 -50.765,41.1839 2.05276,9.4689 10.4941,31.9429 21.1039,35.9362 4.79173,2.96575 11.2937,1.14094 15.6283,5.13425 3.5374,9.35433 6.27638,19.1657 11.5228,28.1787 0.570472,4.67717 -12.0921,21.3319 -14.374,28.1776l-53.8465 0c-4.9063,-6.7311 4.44921,-23.3858 3.30827,-21.3331 3.87874,-5.13307 9.24094,-9.01181 15.0591,-10.6098 -1.93937,-1.59685 -3.08031,-5.13307 -6.04724,-4.79173 -7.64291,-5.9315 -17.1118,-8.21339 -24.0709,-15.515 -0.798425,1.02638 -2.16732,2.05276 -2.16732,2.85118 -6.61654,7.87323 -3.65197,20.4224 -12.3213,27.2669 -11.0657,3.99213 -13.2343,15.4004 -19.8508,21.3331l-99.365 0c-1.59803,-14.7165 4.90512,-26.2382 19.0512,-29.7756 0.227953,-0.569291 0.914173,-1.3689 0.113386,-1.93819 -5.47559,-4.44921 -12.3201,-17.6846 -18.7087,-20.1945 -4.5626,6.7311 -5.47677,13.578 -10.4953,19.6228 -5.70472,0.799606 -11.2937,4.79173 -16.4291,7.98543 -10.722,6.16063 -11.9776,17.3409 -15.0579,25.0984 -1.3689,1.02756 -2.96575,0.34252 -4.90512,0.34252l-57.7264 0c0.457087,-16.9984 11.5228,-29.0917 28.5201,-31.1445 3.65197,-9.24094 14.2618,-14.602 18.2539,-23.7295 2.16732,-9.4689 3.76535,-18.8244 7.52953,-27.6083 -12.548,-5.36102 -25.4398,-19.1646 -31.6016,-31.487 -3.65079,-2.39646 -8.21339,-3.53622 -11.0657,-7.30039 -5.47559,0.114567 -14.602,-5.13425 -19.05,-3.0815 -3.87992,0.34252 -8.55709,0.68622 -11.9799,-1.02638 -5.93268,2.16732 -11.6374,-19.963 -3.87992,-25.2118 3.99449,-2.39646 9.69803,0.911811 13.1197,-2.05394 -7.52835,-1.93819 -15.4016,4.79291 -22.1315,-3.87874 -2.85118,-3.53622 1.82598,-7.41496 -1.25551,-10.7232 -6.3874,-0.799606 -5.0185,-12.5492 -0.341339,-15.515 2.96575,-0.799606 5.70472,-2.05394 8.89843,-1.82598 2.50984,-1.59685 4.9063,-3.30827 7.98543,-3.65079 10.7244,0.569291 16.4291,-11.9787 28.1787,-8.78386 5.59016,0.683858 11.7508,0.912992 17.5689,0.569291 5.01969,-3.1937 16.2,-5.81811 20.3055,0.68622l0 0zm134.732 117.048c-2.62323,9.69685 2.1685,24.072 5.01969,33.4264 -4.33465,4.56378 -8.89724,9.69685 -15.0591,12.8906 -3.76299,0.457087 -8.21339,1.59803 -11.7496,2.96693 -0.570472,-7.30157 1.8248,-15.4016 -4.67717,-19.2803 -3.99331,-6.38858 -9.24094,-15.0591 -11.2949,-22.474 14.2606,-0.683858 25.8969,-6.27402 37.761,-7.52953l0 0z"/>
<path fill="#FFD700" d="M142.807 260.6c0,0.340157 0,0.569291 -0.343701,0.911811 -4.44921,-0.799606 -7.29921,0.912992 -5.59016,-4.22126l5.93386 3.30945zm-2.16732 -8.89961c4.22008,3.87874 9.5811,4.44921 14.0303,6.38858 -0.797244,3.42283 -13.3476,-1.3689 -15.0567,-2.96575 -0.114567,-1.48228 1.02638,-5.01969 1.02638,-3.42283zm150.359 -2.16732l4.33701 0.34252c-2.96811,1.93937 -7.07362,1.48346 -10.839,1.8248l0 -2.39646c0.227953,0.114567 5.13425,-2.28189 6.50197,0.229134zm-74.0386 -4.22126l-6.16063 6.04724c-2.28189,-0.229134 -2.28189,0.114567 -2.28189,-2.39646 1.02756,-0.34252 1.59685,-0.912992 2.7378,-1.02638l0 -0.570472c2.28189,-0.114567 3.5374,-2.51102 5.70472,-2.73898l0 0.685039 0 0zm-73.2413 -1.48346c2.28189,0.798425 5.01969,0.685039 7.30157,1.48346 4.79173,2.50984 11.1803,5.24764 16.0866,8.89843 -6.38976,-2.05394 -14.4898,-5.47559 -21.7902,-4.44921 -3.42283,-0.912992 -3.99449,-3.76535 -3.30827,-6.95906 0.798425,0 1.25315,0.570472 1.71024,1.02638zm157.891 1.14094c-5.13425,0.229134 -16.2,0.911811 -19.9642,-2.85118l0.112205 -1.48346c7.64528,-0.683858 13.2354,3.1937 19.852,4.33465zm46.8874 -7.64291c-1.59685,2.85118 -11.2949,8.32795 -13.8035,5.81811 2.16732,-1.71142 10.7232,-5.93268 13.8035,-5.81811zm-129.939 -1.14094c0.911811,2.96575 -11.6374,8.44134 -15.0602,8.44134 -0.798425,-0.798425 -0.798425,-1.93937 -1.93819,-2.39528 1.36772,-1.25433 3.42165,0.113386 5.13307,-0.570472 4.33465,-0.457087 8.44252,-2.62441 11.8654,-5.47559l0 0zm-64.0004 2.62441c2.50866,0 12.4346,7.30039 15.0579,8.89843l0 0.569291c-8.09882,-5.24646 -17.3398,-6.27402 -25.7823,-10.1528 0.227953,-0.912992 0.227953,-1.8248 0.683858,-2.50984 3.99331,-0.341339 7.52953,0.227953 10.0406,3.19488l0 0zm55.6713 -5.81811c-2.96575,2.50866 -8.32795,0.114567 -10.839,2.85118 -1.02638,-0.227953 -0.911811,0.911811 -1.59567,1.14094 -2.05276,0 -6.16181,-0.455906 -7.07362,-2.39646 2.05276,0 3.99331,-0.454724 6.04724,-1.25433 4.44921,-0.341339 9.01181,-0.570472 13.461,-1.14094l0 0.799606 0 0zm136.558 -3.76535c0,0.113386 0.113386,0.227953 0.226772,0.34252 -2.16732,0.798425 -4.79055,1.25433 -6.84449,2.62323 -2.7378,0.685039 -4.67717,2.85236 -7.07244,3.99331 -2.39646,1.14094 -5.01969,-0.229134 -7.53071,-0.457087l0 -0.569291c7.64528,-2.73898 13.1209,-5.3622 21.2209,-5.93268zm-56.1295 1.02638c3.08031,0.34252 13.8035,2.62441 16.2,5.02087 -9.01299,-3.76535 -18.3673,1.36772 -26.8098,-3.0815 -2.96575,-5.24764 9.35551,-2.28189 10.6098,-1.93937l0 0zm-132.107 -2.16732c4.10787,2.62441 7.98543,6.61654 11.8654,9.12638 -7.64528,-2.7378 -16.4291,-6.84449 -24.5291,-8.21339 -0.34252,-8.1 9.58346,-1.48346 12.6638,-0.912992zm128.571 -5.93268c4.90512,1.14094 9.9248,3.99331 15.0591,5.3622 -6.50433,0.227953 -11.9799,-2.85236 -18.8244,-1.93937 -0.457087,-0.34252 -5.81811,-2.16732 -3.30827,-4.10669 2.62441,-0.227953 4.56378,1.02638 7.07362,0.683858l0 0zm-126.519 1.02756c2.85236,1.3689 5.36339,2.96575 8.44252,3.99213l-0.227953 0.114567c5.01969,3.99213 10.3819,8.21339 15.6283,11.6362 -0.683858,3.08031 -2.85118,6.38858 -5.13307,9.12638 -1.71142,3.19488 -2.28071,7.52953 -3.87874,10.8378 -12.2067,3.08031 -31.3724,18.0248 -32.5122,32.5146l-48.6012 0.227953c-1.02638,-7.64409 10.7244,-12.5504 15.5161,-14.9445 2.39646,-1.02756 5.24764,-0.799606 7.64409,-1.59803 6.61654,-9.4689 17.4543,-18.1382 21.789,-28.1787 1.71142,-8.09882 3.87992,-16.8839 6.61654,-24.7559 -0.797244,-4.33465 13.5756,0.683858 14.7165,1.02756l0 0zm182.419 -2.85236c-1.59803,1.71142 -4.67835,-0.114567 -6.50197,2.28189 -3.87992,2.16732 -7.75984,4.22008 -11.4094,7.18701 -2.96693,0.798425 -4.90512,-1.02756 -7.41614,-1.93937 7.0748,-3.99331 17.3409,-7.30276 25.3276,-8.1l0 0.570472 0 0zm-132.793 -1.82598c-2.50984,2.51102 -7.87087,2.16732 -10.4953,4.56378 -3.99213,1.02638 -12.5492,13.9181 -17.5701,7.07244 -0.797244,-0.227953 -2.16732,-0.341339 -2.16732,-1.13976 4.67835,0.341339 8.1,-2.73898 11.9799,-4.33583l0 -0.570472c5.24646,-2.62323 12.5492,-4.67835 18.2528,-5.59016zm128.114 -4.56378c-2.96457,1.48465 -6.84449,1.25551 -9.69685,3.42283 -5.3622,0.912992 -8.32677,6.16063 -13.5756,7.07362 -0.341339,-0.798425 -5.13307,-0.227953 -5.3622,-2.85118 5.70472,1.13976 8.21457,-4.9063 13.1209,-5.70591 5.36102,-0.341339 10.2673,-1.93937 15.5138,-2.62205l0 0.682677zm-133.475 -2.96457c-1.71142,0.797244 -3.0815,1.3689 -5.24882,1.59567 -5.93268,3.30827 -11.863,7.87323 -17.3409,12.2079 -2.05276,0.912992 -9.01181,1.02638 -9.01181,-2.39528 2.96575,0.798425 15.1724,-8.4437 18.7098,-9.8126 3.99213,-0.340157 8.66929,-1.36772 12.8917,-1.59567zm125.832 -4.10787c-10.6098,-0.685039 -14.4886,12.7772 -25.5543,9.92598 -1.3689,-0.68622 -3.42283,-0.227953 -4.56378,-1.14094 2.28189,-1.48346 6.2752,-0.34252 8.21457,-3.42165 6.95906,-2.96811 13.9181,-5.59016 21.9035,-5.70472l0 0.341339zm-140.437 -2.16732c-1.36772,0.799606 -4.44803,1.94055 -5.58898,2.62323 -3.76417,2.73898 -5.70472,7.98661 -10.1539,10.3831 -3.1937,1.3689 -6.61654,0 -9.69567,-0.912992 0,-2.16732 22.5874,-12.8917 25.5531,-13.3488 0.914173,0.34252 -0.114567,0.799606 -0.114567,1.25551l0 0zm-26.0102 -11.2949c-2.16732,4.79291 -4.67717,14.8311 -8.44134,18.1394 -2.50984,1.25433 -4.56496,-0.569291 -5.47677,-0.227953 3.65079,-3.53504 5.81811,-7.41496 9.92598,-11.2949 -0.114567,-1.82362 2.50866,-5.58898 3.5374,-6.84449l0.454724 0.227953zm-9.69567 -6.50197c-0.799606,3.30827 -1.82598,6.95906 -2.73898,10.2673 -3.30827,-0.34252 -6.95906,7.52953 -9.24094,9.81142 -2.39646,0.227953 -5.24646,0.227953 -6.27283,-2.28189 6.61654,-0.912992 15.0567,-16.6559 19.5071,-21.5622 -0.685039,1.14094 -0.114567,3.08031 -1.25433,3.76535zm150.018 7.87205c6.95906,0.454724 21.6756,0.569291 27.0378,5.9315 -8.44252,-0.912992 -17.2276,0.455906 -25.4409,1.14094 -3.65079,-1.59685 -6.95906,-3.99331 -10.4965,-5.58898 -1.13976,-0.571654 -8.89724,-15.6307 -8.21339,-14.3752 6.73228,7.41614 7.98661,10.0382 17.113,12.8917l0 0zm-161.541 -17.113c-1.02638,6.7311 -9.4689,23.615 -17.3409,15.7429 9.01181,-3.53622 11.8642,-7.98543 16.7693,-15.7429l0.571654 0zm54.7594 -0.685039c3.08031,2.39646 4.67717,6.2752 7.98543,8.1 5.13307,4.22244 -0.685039,9.12638 -0.34252,12.8917 -2.05276,-0.227953 -2.16732,-5.36102 -2.28071,-6.7311 1.59685,0 -5.81929,-13.5756 -5.93386,-14.2606l0.571654 0 0 0zm125.719 -4.44921c0.797244,3.76535 1.59685,8.32913 3.1937,12.0933 -6.84567,-6.38858 -10.2673,-10.4953 -11.863,-20.5346 2.85,2.50866 7.41378,3.64961 8.66929,8.44134zm-73.9252 -9.35433c3.42165,6.04606 4.5626,11.4071 6.95787,17.2264 0,8.21339 8.67047,14.0327 4.79173,22.8177 -0.798425,-6.84685 -4.44921,-10.3819 -8.21457,-15.5161 -3.87756,-5.13425 -2.39409,-18.0248 -3.87756,-24.528l0.34252 0 0 0zm-31.0299 0.113386c0.340157,3.42283 2.16732,5.59016 3.99094,8.89961 3.19488,7.41496 4.79291,15.7429 2.62559,24.072 -0.798425,2.85118 -1.7126,5.47559 -2.05394,8.2122 -0.685039,-4.90394 0.455906,-10.722 -1.02638,-15.4004 -1.3689,-9.81142 -4.56378,-18.8244 -4.79173,-28.5201 1.25551,0.114567 0.683858,1.93819 1.25551,2.73661l0 0zm89.6681 0.799606c2.39528,6.38858 4.79055,13.1197 9.23976,18.5953 -3.99213,-2.50984 -7.07244,-4.79055 -11.1791,-7.41496 -2.16732,-5.47559 -5.81811,-10.0394 -9.12638,-15.4016 -0.343701,-0.455906 -1.25551,-0.227953 -1.48465,-1.02638 5.02087,-0.114567 9.12756,1.82598 12.5504,5.24764zm-21.4476 -5.13425c1.8248,1.14094 6.50197,2.85354 6.16063,6.04724 0,2.50984 3.53622,17.2264 8.1,17.2264 0,1.25433 6.27402,5.47559 7.07244,7.52835 -13.9169,-7.52835 -19.2803,-12.548 -23.9575,-27.2657 0,-0.113386 -4.67835,-4.10551 -4.56378,-4.79055 2.96693,-0.798425 4.79173,1.14094 7.18819,1.25433l0 0zm-16.6559 -0.912992c1.93937,0.912992 3.76417,2.28189 5.70472,3.42283 1.71024,0.570472 4.90394,25.5555 3.76299,29.2051 -1.93819,-4.44921 -3.30827,-9.69685 -6.61654,-13.5756 -1.48346,-5.24764 -2.05276,-10.8366 -3.87756,-15.7441 -1.14094,-2.05276 -3.65079,-2.39528 -4.45039,-4.5626 2.1685,-0.34252 3.30945,1.48346 5.47677,1.25433l0 0zm-11.7508 -1.13976c4.33465,2.28071 6.84449,14.8311 8.1,19.963 1.48346,3.42283 3.76535,5.81929 5.24764,9.35551 0.227953,3.76535 -0.683858,7.53071 0.911811,11.2937l-0.798425 -0.113386c-3.07913,-10.3807 -13.2331,-18.9378 -13.3465,-29.3197 -1.3689,-3.99213 -5.24882,-11.7496 -9.24094,-13.3476 3.65079,-0.570472 6.04606,1.48346 9.12638,2.1685l0 0zm-154.809 9.4689c-2.39646,0.569291 -4.79291,2.62323 -7.64409,1.93937 5.0185,-4.44921 8.89843,-10.0394 12.3213,-15.5161 -0.114567,5.13425 -1.8248,9.69685 -4.67717,13.5768zm95.9421 -15.5161c14.4898,2.50984 49.0559,-7.7563 46.6606,16.8839 -4.10787,8.32913 5.13425,13.5768 1.93937,22.0181 -1.93937,-2.73661 -2.50984,-9.23976 -5.93268,-11.863 -3.42283,-5.24882 0.229134,-11.2961 -0.34252,-17.3409 -2.05276,-2.16732 -2.05276,-6.2752 -6.38858,-5.47677 -9.81024,8.89961 3.30827,22.9299 -1.82362,32.1709 0.112205,3.30945 -1.7126,6.50433 -0.914173,9.58346 -0.683858,-4.79173 -0.226772,-10.4953 -0.341339,-15.8575 -4.67835,-8.44252 -7.64409,-15.287 -12.3224,-23.2724 -2.16732,-2.85236 -2.50866,-1.71142 -4.5626,-2.05394 -8.55591,11.0657 4.90512,21.9047 0.685039,34.1102 -0.911811,-4.22008 -2.05276,-8.66929 -3.99331,-12.548 -6.61654,-5.70472 -0.455906,-19.1669 -10.3819,-21.9047 -4.90512,2.62441 -4.10551,14.2618 -1.71024,18.1382 -3.87992,0 -5.3622,-18.5941 -6.2752,-21.2173 -0.227953,-2.28189 -3.08031,-1.37008 -3.65079,-3.42283 3.0815,0.912992 6.04606,1.93937 9.35433,2.05276zm-63.3142 -2.28071c-2.16732,7.30039 -20.5346,38.4461 -29.7756,25.2118 13.689,-3.30827 21.561,-13.4622 28.8614,-24.8693 0.34252,-0.114567 0.570472,-0.457087 0.914173,-0.34252l0 0zm44.4909 -3.19488c9.01299,6.61654 5.47559,9.35433 2.62323,18.4819 0,4.22008 2.85236,7.30039 3.19606,11.4083 -0.685039,6.61654 -3.65197,12.2055 -6.61772,17.7957 -0.683858,6.84567 -7.98661,9.47008 -10.8378,15.2882l-0.570472 0c1.71142,-6.04724 8.32795,-9.35551 9.35433,-15.6295 1.02638,-5.01969 2.16732,-10.0394 2.96693,-15.287 0,-8.55709 -7.87205,-3.65079 -10.8378,0 -0.229134,-2.16732 1.82598,-3.53622 2.16732,-5.59016 6.84449,-5.81811 8.21457,-18.1394 7.75748,-26.4673l0.798425 0 0 0zm-5.47559 -3.87874c0.341339,1.25433 2.16732,1.59803 1.82598,3.30827 0.911811,1.02638 -0.229134,2.62441 -0.343701,3.65079 -4.44921,5.47559 -7.30039,12.8906 -10.3807,19.1657 0,2.7378 -3.99331,11.9787 -7.41496,12.2067 3.1937,-8.21339 5.59016,-17.1118 9.4689,-25.5543 1.59685,-5.70354 2.62323,-8.55591 -2.50984,-11.7508 -2.16732,10.8378 -8.78504,26.5807 -15.8575,35.0244l-0.685039 0c1.82598,-3.65079 8.32795,-19.0524 6.50315,-23.2736 -2.85236,-0.683858 -2.7378,3.76417 -5.47677,3.08031 -1.02638,-2.7378 5.70472,-16.3134 7.07362,-18.4807 5.24882,-4.10787 13.1197,-0.114567 17.7969,2.62323l0 0zm-89.4402 -1.8248c4.79173,4.33465 7.07362,13.2331 1.02638,17.6823 0,5.81811 -14.1461,3.08031 -16.9984,3.08031l0 -0.570472c5.24764,-0.227953 14.374,-1.25551 16.0866,-7.52953 0.454724,-3.53622 1.93819,-8.78504 -2.28189,-11.0669 -2.1685,-1.93937 -4.45039,-3.53622 -7.30157,-3.87756 -2.28189,-2.28189 9.1252,2.16732 9.4689,2.28189l0 0zm10.8366 -4.22244c3.99331,8.1 2.62441,13.4634 -3.76299,19.8508 -1.94055,-1.93937 6.50197,-13.3465 -2.16969,-18.2528 -2.50748,-2.16732 -8.55472,-4.56378 -11.7496,-3.65079l0 -0.798425c7.07244,1.14094 10.8378,-3.76535 17.6823,2.85118zm53.7331 -1.8248c2.85236,4.33465 -0.341339,15.1736 -3.30827,18.9378 -1.71024,-0.227953 -0.455906,-2.28071 -1.02638,-3.30945 -0.911811,1.94055 -9.58346,16.8862 -11.6362,16.8862 -0.570472,-3.76535 7.87087,-17.2264 8.09882,-22.3618 1.25551,-2.39528 2.39646,-13.5744 -0.113386,-15.7429l0.799606 0 7.18583 5.59016zm-40.6122 -6.27402c2.50984,4.10669 3.42165,7.30039 5.13307,11.5228l0.799606 0c-0.68622,3.76299 0.797244,16.1988 -3.0815,18.9366 -1.71024,-2.39528 2.85236,-15.4016 -2.62323,-17.2264 -2.50984,2.39646 -4.10787,5.36102 -5.59134,8.21457 -0.569291,0.454724 -1.48228,0 -1.93819,0.683858 0.227953,-1.25551 2.39528,-7.98543 2.85236,-8.66929 0.341339,-4.22244 -0.34252,-11.6374 1.93819,-14.9457 0.457087,0.912992 1.71142,0.912992 2.51102,1.48346l0 0zm28.8626 -0.570472c0,4.22008 -4.10787,12.7772 -6.16063,16.9972 -6.84449,4.9063 -12.8917,21.7902 -20.9917,23.2736 10.1528,-7.98543 8.44252,-17.4543 12.0933,-28.1776 5.47559,-4.45039 7.18701,-12.3224 6.50197,-1.3689 0.685039,-0.114567 1.02756,0.911811 1.59803,0.341339 3.07913,-3.08031 0.569291,-9.01299 3.64961,-12.6638 1.59685,-0.569291 3.30945,-0.341339 3.30945,1.59803l0 0zm-59.2098 -0.912992l0.34252 0.570472c-5.58898,3.19488 -11.2937,5.81811 -16.8839,9.81142 0,-0.685039 -0.685039,-2.28189 0.569291,-2.62441 5.59016,-2.05276 8.32913,-10.8366 15.5161,-8.78386l0.455906 1.02638 0 0zm44.3787 -9.12638c-0.455906,5.0185 -2.62323,8.21457 -6.84567,10.6098 -0.341339,-4.45039 4.67717,-7.87205 -0.798425,-12.7772 0.457087,-1.94055 7.30157,-1.25551 7.64409,2.16732l0 0zm6.16063 0.569291c-0.229134,4.67835 1.93819,11.752 -3.99331,15.0602 -2.28071,0 -3.99331,0.113386 -4.44921,-2.85236 2.7378,-6.2752 6.38858,-10.3807 3.76417,-17.2264 3.30827,-0.114567 3.0815,3.1937 4.67835,5.0185zm-1.93937 -9.69567c2.62441,2.96575 6.04724,5.59016 6.15945,9.58228 -0.226772,0.113386 -0.569291,-0.114567 -0.798425,0.227953 0.912992,0.114567 0.68622,1.14094 0.912992,1.59803 4.5626,1.8248 9.92598,1.25551 13.3488,5.47559 3.42165,1.14094 5.81811,5.13425 9.12638,6.84449 5.13307,0.457087 10.722,-0.113386 15.6283,1.14094 21.1063,15.6295 38.5594,13.0063 63.4311,12.0933 7.75748,-0.227953 15.515,2.39528 22.702,4.56378 7.87087,1.71024 17.1118,1.25315 25.4409,0.798425 8.66929,0.683858 18.1382,1.71024 26.6941,3.65079l0 0.569291c9.35433,0.799606 10.839,9.58346 18.8244,13.1209 0.798425,0.797244 0.798425,2.62323 2.16732,2.62323 11.5228,13.1197 23.3858,14.8311 40.2709,13.9181 2.73661,-2.16732 10.1539,-4.67835 10.6087,-9.01299 3.87992,-2.85118 3.19606,-14.602 1.82598,-17.9102 -1.48228,-10.4953 -21.561,-20.8783 -30.802,-24.528 -8.32795,-1.25551 -16.8839,-2.16732 -25.4398,-2.85236 -22.7031,-0.912992 -56.3575,8.55591 -76.5496,-2.50984 -7.30276,-2.50984 -15.4016,-5.3622 -22.1327,-8.67047 1.3689,-4.90512 14.4898,-4.22126 18.0248,-4.22126 12.0933,2.73898 25.6689,12.0933 38.6752,8.55709 19.2791,-2.39528 41.8677,-3.19488 61.1469,-0.114567 19.3949,4.79173 43.2378,13.3476 49.8555,34.3394 6.3874,22.3594 -17.4555,43.122 -39.9295,37.4185 -5.47677,-0.455906 -10.1539,-2.39646 -15.1724,-4.10669 0.34252,5.13307 4.10551,9.58228 6.04606,14.7165 2.39409,11.5228 8.55591,26.5819 17.9102,34.3382 0.912992,5.02087 16.6559,7.87205 20.5346,8.67165 0,8.21339 6.04724,17.6823 9.01299,24.7559 -2.39646,6.16063 -8.89843,11.5217 -10.4953,18.4819l-43.0087 0.227953c0.227953,-12.5492 12.548,-19.7362 24.0709,-19.8508 0.455906,-0.229134 0.114567,-0.685039 0.229134,-1.02638 -3.30945,-3.99449 -8.21457,-9.24094 -10.839,-13.4622 -9.4689,-4.10669 -17.4543,-10.1539 -26.2394,-15.4016 -2.16732,-1.48346 -2.85236,-3.76535 -4.67717,-5.47559 -5.01969,-3.87874 -9.9248,-7.64409 -14.4886,-12.7772 -23.0445,-14.602 -41.8689,-12.7783 -66.9661,-4.22126 -6.15945,1.59685 -12.6638,1.59685 -17.9102,0.685039 -1.7126,-2.28189 -2.05394,-5.13543 -3.19488,-7.64291 0.341339,-2.05512 -2.16732,-2.51102 -3.30827,-3.99449 -5.59016,-1.59567 -11.2949,-6.38858 -15.972,-10.7244 1.48346,0.914173 1.02756,4.22244 3.08031,4.79173 2.50984,3.5374 6.27402,5.70472 9.47008,7.87205 1.36772,0.114567 2.50866,0.570472 3.30827,1.71142 0.113386,6.61654 3.64843,11.4083 4.67717,17.9114 5.81811,8.89843 8.1,20.8772 16.1988,28.5213 0,6.27402 -1.93937,24.6402 2.05394,29.661 1.48228,-0.227953 2.28189,-2.05276 3.19488,-3.1937 2.28071,-5.24882 10.4953,-11.5228 16.6547,-10.611 1.94055,0.229134 19.0524,-13.3476 22.2461,-16.5413 -1.02638,-5.93268 -4.79055,-11.6374 -5.70354,-18.1394 0.34252,-7.18701 -3.99331,-14.4886 0,-20.8772 -2.28189,-6.16063 29.5476,6.2752 29.7756,6.38858 0.798425,0.685039 12.4346,11.1803 12.3201,12.2067 -2.28189,1.8248 -1.82362,5.01969 -4.67717,6.27402 -3.99213,6.38976 -7.87087,16.428 -8.66929,24.4146 -2.39646,3.99331 -6.7311,4.79173 -7.53071,5.47559 -6.7311,5.01969 -7.64291,12.6626 -14.1449,17.4543l-87.7311 0c4.22244,-16.0854 12.5504,-14.2594 18.0272,-17.1118 1.02638,-2.96575 4.44921,-9.35551 0.226772,-10.8378 -4.90512,-5.3622 -9.24094,-12.2067 -14.8311,-17.2264 -2.05276,-3.76417 -6.15945,-5.47677 -9.35315,-7.87205 -9.47008,-4.56378 -16.4291,-9.35433 -23.1591,-17.2276 -8.67165,-5.47559 -18.4819,-7.64291 -27.6083,-11.7484 -8.21457,-5.47795 -14.1472,-12.0945 -21.561,-18.5965l-5.24882 -10.8378c-4.10669,-2.7378 -9.46772,-3.76417 -12.0921,-8.32795 -4.67717,-2.1685 -10.2673,0 -14.2618,-3.99331 2.39646,-1.25551 9.24094,-4.22008 9.24094,-7.18701 -0.911811,-0.570472 -1.59567,-2.05394 -3.07913,-1.59685 -5.24764,6.3874 -20.9917,14.374 -27.4937,5.13307 1.02638,-2.50984 -0.457087,-5.3622 0,-8.32795 0.569291,0 1.02638,0.114567 1.48346,-0.113386 -0.457087,-0.34252 -1.02756,-0.229134 -1.48346,-0.457087 -0.343701,-1.3689 0.455906,-2.28071 1.48346,-3.1937 1.4811,1.02638 -0.457087,5.01969 2.85118,3.87874 1.93819,2.39528 11.8642,-2.62441 12.3201,-5.70472 5.01969,-17.1118 -15.0579,-7.64291 -22.702,-10.7232 1.25433,-3.87874 0.685039,-4.33583 0.114567,-7.18701 4.5626,-2.50984 5.93268,-5.93268 5.47559,-11.0669 10.8378,-6.7311 24.4134,2.7378 35.5937,2.7378 -1.59685,-5.47559 1.14094,-5.36102 -5.0185,-7.75748 -4.79173,0.912992 -9.92598,0.912992 -15.0602,0.912992 1.14094,-0.569291 3.76417,-5.36102 6.04724,-5.24764 3.19488,-2.85236 24.4134,-0.912992 28.6335,-0.798425 2.05512,-1.25551 3.99331,-2.50984 6.50433,-2.7378 1.59567,-1.71142 3.64961,0.455906 5.70354,0l0 0zm-67.7657 13.1185c0,3.19488 -3.76417,9.58346 -7.18701,5.93268l0.114567 0c-0.114567,-1.14094 -0.570472,-2.39646 -0.570472,-3.99213 0.912992,-2.05512 5.81811,-3.19488 7.64291,-1.94055l0 0zm12.3213 22.3618c-1.48228,0.454724 -1.25551,-1.14094 -2.16732,-1.7126 -0.798425,1.3689 0.227953,3.53622 -0.912992,5.02087 -1.48346,-0.798425 -2.16732,-2.73898 -2.96575,-4.10669 -1.59685,0.683858 -0.912992,2.62205 -1.71142,4.10669 -1.37008,-0.571654 -3.1937,-3.99449 -3.1937,-5.3622l11.4083 -0.457087c0.113386,0.798425 0,1.8248 -0.457087,2.51102l0 0zm7.07362 4.67717c-1.48346,3.07913 -4.10669,6.72992 -8.21457,6.72992 0,-4.67717 3.30827,-6.72992 8.21457,-6.72992z"/>
</svg>