<?xml version="1.0" encoding="ISO-8859-1" standalone="no"?>
<!DOCTYPE svg PUBLIC "-//W3C//DTD SVG 20010904//EN"
    "http://www.w3.org/TR/2001/REC-SVG-20010904/DTD/svg10.dtd">
<svg xmlns="http://www.w3.org/2000/svg"
     xmlns:xlink="http://www.w3.org/1999/xlink" xml:space="preserve"
	 width="450px" height="300px"
	 viewBox="0 0 450 300">
<rect width="450" height="300" fill="#47a5ae" />
<path fill="white" d="M 217.3,261.8 C 217,261.1 216.2,261 216.2,261.6 C 216.2,262 216.5,262.3 216.8,262.3 C 217.2,262.3 217.4,262.1 217.3,261.8 z M 216,261.1 C 216.3,260.6 215.8,259.6 215.2,259.6 C 214.5,259.6 214.2,260.1 214.5,260.9 C 214.8,261.5 215.6,261.7 216,261.1 z M 218.9,260.9 C 219.3,260.4 219.3,260.2 218.9,259.7 C 218.1,259 217,259.4 217,260.3 C 217,260.9 217.4,261.4 218.2,261.5 C 218.3,261.5 218.7,261.2 218.9,260.9 z M 220.1,258.3 C 220.1,257.4 219.5,256.9 218.6,257.1 C 218.1,257.2 217.8,257.6 217.8,258 C 217.8,258.6 218,258.8 218.9,258.8 C 219.6,258.8 220.1,258.6 220.1,258.3 z M 206.4,255.3 C 206.4,252.7 206.4,252.6 208.2,250.6 C 209.8,248.9 210,248.4 210,247 C 210,246 210.3,245.1 210.6,244.8 C 211,244.6 211.5,243.8 211.8,243.1 C 212.1,242.3 212.5,241.8 212.8,241.8 C 213.1,241.7 213.9,241.2 214.6,240.6 C 215.4,240 216.2,239.4 216.5,239.4 C 216.8,239.4 217,239.3 217,239.1 C 217,238.9 217.6,238.6 218.3,238.5 C 219.3,238.3 219.7,238 219.9,237.2 C 220.3,235.7 219.6,235.4 217.7,236.1 C 215.8,236.8 214.5,236.9 213.6,236.4 C 213.2,236.2 212.7,236.1 212.5,236.3 C 212,236.6 210.8,239 210.8,239.6 C 210.8,239.8 210.3,241 209.8,242.3 C 208.3,245.8 208.2,246 207.7,248 C 207.4,249.2 206.7,250.4 205.8,251.3 C 205,252.1 204.2,253.2 204,253.8 C 203.9,254.3 203.6,254.9 203.4,255.2 C 202.9,255.8 203.4,256.8 204.2,256.8 C 204.6,256.8 205.1,257.1 205.4,257.4 C 206.3,258.5 206.5,258 206.4,255.3 z M 228.1,249.4 C 228.6,248.9 229,248.4 229,248.1 C 229,247.8 229.1,247.6 229.3,247.6 C 229.5,247.6 229.8,247.1 230,246.6 C 230.4,245.9 230.4,245.7 229.9,245.5 C 228.9,245.1 228.7,245.2 226.9,246.8 C 225.9,247.6 225,248.3 224.7,248.4 C 224.1,248.6 224.6,249.7 225.6,250.2 C 226.5,250.6 226.8,250.5 228.1,249.4 z M 177.9,248.4 C 177.9,248 178.2,247.5 178.5,247.2 C 178.8,247 179.2,245.9 179.5,244.9 C 179.9,243.1 180,242 179.9,235.8 C 179.9,233.9 180,231.5 180.3,230.4 C 180.7,228.6 180.9,228.3 182.4,227.6 L 184,226.8 L 186.4,228.1 C 189.1,229.4 189.9,229.5 193.1,228.4 C 195.3,227.7 195.7,227.9 195.7,229.9 C 195.7,231.1 196.8,234 197.3,234 C 197.4,234 197.8,234.6 198.1,235.3 C 198.4,236 198.9,237.1 199.3,237.9 C 200,239 200.2,239.1 200.6,238.5 C 200.8,238.2 201,236.9 200.9,235.2 C 200.8,233.7 200.9,232.1 201.1,231.8 C 201.4,231.3 201.2,230.4 200.6,228.8 C 200.1,227.5 199.4,225.7 199,224.7 C 198.1,222.2 196.3,220.8 194.7,221.2 C 193.1,221.7 190.3,220.8 188.8,219.3 C 187.7,218.3 185.3,213.9 185.3,212.9 C 185.2,211.9 180.5,207.7 176.7,205.3 C 175,204.3 172.4,198.3 171.9,194.4 C 171.8,193.8 171.6,192.3 171.3,191.2 C 171.1,190.1 170.9,188.1 170.8,186.8 C 170.7,185.4 170.5,183.9 170.3,183.4 C 170.1,182.8 170,182.1 170.2,181.8 C 170.4,181.5 170.6,180.3 170.8,179.2 C 170.9,178 171.3,176.5 171.6,175.8 C 172.3,174.2 172.3,172.6 171.7,168.6 C 171.3,165.4 171.3,165.3 172.1,164.5 C 172.5,164 173.1,163.7 173.3,163.7 C 173.5,163.7 174.3,163.2 175,162.7 C 175.7,162.2 176.5,161.7 176.7,161.7 C 176.9,161.7 177.2,161.6 177.2,161.4 C 177.3,161.3 178.6,160.8 180.1,160.3 C 184.3,159.1 187.2,159.5 189.9,162 C 190.4,162.4 192.2,163.6 193.9,164.5 C 195.8,165.6 198.1,167.3 199.5,168.7 C 200.8,170.1 202,171 202.1,170.9 C 202.3,170.8 202,169.9 201.6,168.9 C 201.1,167.9 200.7,167 200.7,166.7 C 200.7,165.6 199.4,164.1 197.9,163.7 C 194.8,162.8 192.7,161.1 191.4,158.5 C 189.7,155 187.6,151.6 186.5,150.3 C 185.9,149.7 185.2,148.6 184.9,148 C 184.6,147.4 184.2,146.8 184.1,146.7 C 183.2,145.8 179.9,141.4 179.3,140.1 C 178.8,139.3 177.7,137.7 176.8,136.7 C 173.9,133.3 173.3,132.5 173.1,131.4 C 172.9,130.7 172.6,130 172.4,129.6 C 172.1,129.3 171.5,128 171,126.7 C 170.5,125.5 169.6,123.7 169,122.8 C 167.5,120.6 166.7,118.7 166.7,117.3 C 166.7,116 165.3,114.1 164.4,114.3 C 164,114.3 163.3,114 162.8,113.6 L 161.8,112.9 L 162.5,111.8 C 163.4,110.7 163.4,110.9 161.5,107.6 C 160.8,106.4 159.7,105.3 159.1,105.3 C 158.9,105.3 158.6,105.8 158.5,106.3 C 158.3,108.2 157.4,107.9 157.5,106 C 157.6,103.7 156.6,101.6 154.8,100.4 C 153.8,99.7 153.2,98.8 152.8,97.8 C 152,95.4 151.7,93.3 152.1,93.2 C 152.3,93.2 151.8,91.4 151,89.3 C 149.8,85.7 149.7,85.4 150.2,84.3 C 150.7,83.4 150.8,83.3 151,83.8 C 151.1,84.2 151.1,84.7 150.9,85.1 C 150.6,85.7 150.8,87.5 151.2,87.5 C 151.7,87.5 152.9,83.4 152.7,82.4 C 152.3,80.2 151.4,77.9 150.3,76.1 C 149.6,75 148.9,73.7 148.8,73.1 C 148.5,71.9 147.8,72 147.8,73.3 C 147.8,74.5 147.2,74 144.9,70.8 C 142.4,67.2 141.9,66.1 143.1,65.7 C 144,65.5 144.4,66 144.8,67.8 C 145.1,68.9 147.9,71.2 148.1,70.5 C 148.2,70.2 147.7,69.2 147,68.1 C 146.4,67.1 145.8,65.9 145.8,65.5 C 145.8,64.6 143.9,62.8 143,62.8 C 142.6,62.8 142.1,62.3 141.9,61.6 C 141.6,61 141,60.3 140.6,60.1 C 140.1,59.9 139.7,59.4 139.7,59 C 139.7,58.3 137.6,55.2 136.6,54.4 C 136,53.9 135.7,49.7 136.2,49 C 137.1,47.9 133.7,42.3 132.1,42.3 C 131.8,42.3 131.3,41.8 131.1,41.3 C 130.5,40.1 129.5,40.2 129.3,41.4 C 129.2,41.9 129.5,42.6 130.1,43.2 C 130.7,43.8 130.9,44.2 130.6,44.2 C 130.3,44.2 129.9,44.5 129.6,44.8 C 129.3,45.1 128.9,45.2 128.7,45.1 C 128.5,44.9 127.1,44.8 125.7,44.8 L 123.1,44.7 L 125.3,46.8 C 127.8,49.2 130.7,51.2 131.2,50.9 C 131.8,50.6 132.3,52.7 132.2,55 C 132.1,57.9 132.8,58.8 133.6,56.9 C 134.6,54.4 135.7,54.7 135.2,57.3 C 134.9,59 134.2,59.5 133.1,58.9 C 132.5,58.6 132.3,58.6 132.3,59.1 C 132.3,59.9 132.5,60.3 132.7,60.2 C 132.8,60.1 133.1,60.5 133.3,61.1 C 133.6,61.6 133.6,62 133.4,62 C 133.3,62 133.2,62.6 133.3,63.4 C 133.4,64.8 133.3,65 131.5,66.1 C 130.5,66.8 129.6,67.3 129.5,67.1 C 129.4,66.9 129.2,66 129.1,65 C 128.9,64 128.6,63.1 128.5,63.1 C 127.9,63.1 125.7,64.4 125.7,64.7 C 125.7,64.8 125.1,65.7 124.4,66.5 C 122.8,68.4 122.8,69.4 124.6,72.6 C 126.5,76.1 127.7,79.6 127.7,81.6 C 127.7,83.2 128.3,86.2 129.4,90.1 C 129.7,91 129,92.3 128.4,91.9 C 128.2,91.8 128.1,92.1 128.1,92.6 C 128.1,93.1 127.9,93.7 127.7,93.9 C 127.2,94.4 128.4,97.2 129,97 C 129.9,96.6 130.3,97.5 130.7,101 C 131.4,105.8 131.5,106.4 132.1,106.4 C 133.2,106.4 134.7,108.3 134.9,109.8 C 135,110.9 135.4,111.7 137,113.3 C 138.1,114.4 139.2,115.2 139.3,115.1 C 139.8,114.8 141.2,115.3 141.2,115.9 C 141.2,116.1 141.6,116.6 142,117 C 142.4,117.4 142.8,117.6 142.8,117.5 C 142.8,117.3 143.1,117.4 143.5,117.6 C 143.9,117.9 144.2,118.3 144,118.7 C 143.9,119.5 146.2,123.3 147.5,124.2 C 148.5,124.9 148.4,125.8 147.2,125.6 C 146.2,125.3 146.1,125.4 145.5,130.3 C 145,133.4 145.2,134 147.5,138.9 C 148.3,140.5 148.9,142 148.9,142.3 C 148.9,142.6 149.4,143.8 150.1,144.9 C 150.7,146.1 151.3,147.9 151.5,149.2 C 151.6,150.5 152.1,152.5 152.6,153.8 C 154.4,158.5 155.2,162.3 155.3,166.2 C 155.5,170.3 155.6,171.7 156.2,175.6 C 156.7,178.4 156.5,179.2 154.8,181 L 153.6,182.3 L 154.6,183.1 C 155.2,183.6 156.1,184.2 156.7,184.4 C 157.2,184.7 158.2,185.8 159,187.3 C 159.7,188.6 160.9,190.3 161.5,190.9 C 162.9,192.3 163.6,193.5 165.3,197.5 C 165.6,198.2 165.8,200.8 165.8,204.7 C 165.8,212.8 166.8,215.6 171.1,220.3 C 172.7,222 172.7,222.3 172,224.2 C 171.7,224.9 171.5,225.6 171.6,225.7 C 171.7,225.8 171.6,226.1 171.3,226.5 C 170.9,226.8 170.5,228.1 170.4,229.5 C 170.2,230.8 170,232.2 169.8,232.5 C 169.5,233.2 170.1,235.2 171,236.2 C 171.9,237.3 172.8,239.8 173.7,243.1 C 174.4,246 175,247 175.7,246.5 C 175.9,246.4 176.3,247 176.6,247.7 C 177.2,249.2 177.9,249.6 177.9,248.4 z M 227.5,231.2 C 229.6,229.3 230.1,228.4 230.6,226.7 C 231,225.5 232,223.4 232.8,222 C 233.7,220.7 234.4,219.2 234.4,218.9 C 234.4,217.9 235.5,217 236.8,217 C 238.3,217 240,215.2 242,211.7 C 244.2,207.6 244.8,206.9 246.9,206 C 249,205.1 251,203.2 251.1,202 C 251.1,201.4 251.1,198.9 251,198.4 C 251,198.2 250.5,198.1 249.9,198.1 C 248.3,198.1 245.3,200.2 244.6,201.7 C 244.3,202.5 243.9,203.2 243.7,203.3 C 243.4,203.4 243.4,203.7 243.5,203.9 C 244,204.7 241.7,207.3 239.7,208.2 C 238.7,208.6 238.4,208.5 237.4,207.7 C 235.7,206.5 235,207 235,209.6 C 235,211.1 234.8,211.8 234.1,212.5 C 233.6,213 233.2,213.7 233.2,214.1 C 233.2,214.7 233,214.9 231.2,215.3 C 230.5,215.4 230.2,215.7 230.4,216.1 C 230.7,216.9 230.2,218.4 229.2,219.6 C 228.7,220.2 228.1,221.3 228,221.9 C 227.8,222.5 227.3,223.3 226.9,223.7 C 226.2,224.2 226.2,224.4 226.6,225.3 C 227.2,226.7 227.2,226.9 226.1,227.4 C 225.4,227.7 225.2,228 225.4,228.5 C 225.5,229.1 225.3,229.4 224.7,229.5 C 224.2,229.6 223.9,230 223.9,230.7 C 223.9,231.7 224.6,233.6 224.9,233.6 C 225,233.6 226.2,232.6 227.5,231.2 z M 260.4,193.5 C 261.7,192.6 263,190.8 263,189.9 C 263,189.5 264,188.2 265.3,186.9 C 266.8,185.4 267.6,184.2 267.6,183.6 C 267.6,182.1 268.5,180.2 269.6,178.9 C 270.2,178.3 270.8,177.3 270.9,176.6 C 271.1,176 271.4,175.3 271.6,175 C 272.5,173.9 271,173.6 268.6,174.5 C 267.5,174.9 267.2,175.3 267.1,177 C 267,177.8 266.9,178.5 266.8,178.5 C 265.3,179.6 264.3,180.5 263.5,181.7 C 262.7,182.9 262.6,183.5 262.7,184.9 L 262.9,186.7 L 261.1,187.5 C 259.3,188.3 259.2,188.3 259,190.4 C 258.9,191.5 258.7,192.9 258.5,193.3 C 258.2,194.4 258.9,194.5 260.4,193.5 z M 275,167 C 275,166.2 274.5,166 273.8,166.4 C 273.4,166.6 273.4,166.8 273.8,167.3 C 274.3,168 275,167.8 275,167 z M 275.7,165.1 C 276.3,164.5 275.5,163.7 274.6,163.9 C 273.7,164.2 273.6,164.5 274.3,165.1 C 274.9,165.7 275.1,165.7 275.7,165.1 z M 271.6,160.9 C 271.4,160.1 269.8,159.9 269.4,160.6 C 268.9,161.3 269.9,162 270.9,161.8 C 271.6,161.7 271.7,161.5 271.6,160.9 z M 287.9,153.3 C 288.2,153 288.7,152 289.1,151 C 289.5,150 289.9,149 290.1,148.8 C 290.3,148.6 290.4,148 290.4,147.4 C 290.4,146.9 290.9,145.6 291.4,144.6 C 292.5,142.6 292.2,142.1 290.5,142.9 C 289.8,143.2 289.4,143.8 289.2,144.7 C 288.9,146.3 288,148.8 287.6,149.2 C 287.5,149.4 287.3,149.9 287.3,150.3 C 287.3,151.2 286.5,152.2 285.3,152.6 C 284.7,152.8 284.6,153 285,153.4 C 285.5,154 287,154 287.9,153.3 z M 293.8,137.8 C 294.1,137.6 294.1,137.3 293.5,136.6 C 292.8,135.7 292.8,135.7 292.1,136.3 C 291.6,136.8 291.6,137.1 292,137.6 C 292.5,138.2 293.1,138.3 293.8,137.8 z M 296.5,131.5 C 296.7,131.1 295.6,129.7 295.2,130.1 C 294.9,130.4 295.4,132 295.9,132 C 296,132 296.3,131.8 296.5,131.5 z M 295.7,131.3 C 295.6,131.2 295.5,130.9 295.5,130.7 C 295.5,130.4 295.6,130.4 295.9,130.7 C 296.2,131 296.3,131.3 296.2,131.4 C 296.1,131.5 295.9,131.5 295.7,131.3 z M 297.8,126 C 297.8,124.6 297.3,123.6 296.7,124 C 296.2,124.3 296.1,127.4 296.5,127.8 C 297,128.3 297.8,127.2 297.8,126 z M 298.3,117.5 C 298.4,117.2 298.2,116.7 297.8,116.3 C 296.5,115.1 295.4,115.9 296.7,117.2 C 297.6,118.2 298,118.3 298.3,117.5 z M 296,111.8 C 295.7,111.6 295.2,111.5 294.7,111.7 L 293.8,112 L 294.7,112.5 C 295.8,113 296.7,112.6 296,111.8 z M 311.3,110 C 311.3,109.5 310.2,108.9 309.5,108.9 C 309.2,109 309,109.1 309,109.3 C 309,109.4 309,109.9 309,110.3 C 309,110.7 309.3,111.1 309.7,111.2 C 310.4,111.3 311.3,110.6 311.3,110 z M 303.4,103.3 C 303.5,103.2 303,103 302.2,103 C 301.1,103 300.9,103.2 301.3,103.5 C 301.7,104 303,103.9 303.4,103.3 z M 303.4,97.5 C 303.6,96.8 304,95.8 304.3,95.4 C 305.4,93.4 304.4,92.2 302.7,93.5 C 302.2,93.9 302,94.5 302,96.6 C 302,99.4 302.7,99.9 303.4,97.5 z M 300.7,94.5 C 300.9,93.6 300.7,92.9 300.1,92.9 C 299.6,92.9 298.2,94.5 298.4,94.9 C 298.8,95.6 300.4,95.2 300.7,94.5 z M 314.2,92.1 C 314.7,91.3 313.4,90.5 312.1,90.8 C 311,91 310.6,91.7 311.2,92.3 C 311.6,92.7 314,92.6 314.2,92.1 z M 307.3,87.4 C 307.9,86.7 307.5,86.1 306.2,85.8 C 305.4,85.6 305.2,85.7 304.9,86.4 C 304.5,87.7 306.2,88.4 307.3,87.4 z M 300.5,85.4 C 300.5,84.6 298.9,84 298.1,84.5 C 297,85 297.7,86 299.2,86 C 300.1,86 300.5,85.8 300.5,85.4 z M 308.5,81.6 C 309.1,80.6 309.1,80.4 308.5,78.6 C 308,77.3 307.8,76.2 308,75.3 C 308.3,73.7 307.9,73.2 306.2,73.2 C 305,73.2 305,73.3 305.5,74.4 C 305.8,74.8 305.8,75.3 305.7,75.6 C 305.2,76.4 305.1,81.3 305.5,82.1 C 306.1,83.2 307.7,83 308.5,81.6 z M 298.9,74.2 C 298.9,73.9 298.6,73.3 298.3,72.8 C 297.7,72.1 297.5,72 297.1,72.5 C 296.7,72.9 296.8,73.2 297.2,73.9 C 297.9,74.8 298.9,75 298.9,74.2 z M 310.2,62.8 C 311.7,62.9 312.5,62.6 312.4,61.9 C 312.3,61.3 313.2,59.6 314.8,57.2 C 316.2,55.2 316.3,54.2 315.6,51.1 C 315.1,49 315.1,48.8 315.7,48.3 C 316.4,47.9 316.4,47.7 315.3,45.5 C 314.6,44.2 313.6,42.9 313.1,42.5 C 312.1,41.9 312.1,41.9 311.9,42.5 C 311.7,42.9 311.4,43.9 311.1,44.7 C 310.7,45.8 310.7,46.5 311,47.2 C 311.7,49 311.6,52.4 310.9,53.2 C 310.5,53.6 310,53.8 309.8,53.7 C 309.6,53.6 308.6,54.5 307.6,55.8 C 306.6,57.1 305.6,58.1 305.4,58.1 C 304.9,58.1 305.6,59.2 306.3,59.4 C 306.7,59.5 307.1,60.1 307.3,60.9 C 307.7,62.8 308.2,63.7 308.6,63.2 C 308.8,62.9 309.5,62.7 310.2,62.8 z M 303.6,60.4 C 303.6,59.5 303.5,59.5 302.2,60.1 C 301.5,60.5 301.4,60.7 301.7,60.9 C 302.7,61.5 303.6,61.2 303.6,60.4 z M 306.2,44.7 C 306.4,43.5 305.2,42.6 304,42.8 C 302.5,43.2 301.9,44 302.4,44.9 C 302.9,45.9 306,45.8 306.2,44.7 z M 318.3,43.6 C 319.2,42.5 319.3,42 319.1,40.4 C 318.9,38.4 318.5,37.6 317.6,37.6 C 316.9,37.7 315.1,38.8 315.8,38.8 C 316,38.8 315.7,39.1 315.2,39.4 C 314.5,40 314.4,40.3 314.5,41.6 C 314.7,42.8 315.1,43.5 315.8,44.1 C 316.4,44.6 317,45 317.1,45 C 317.2,45 317.8,44.3 318.3,43.6 Z" />
</svg>
