<svg height="600" version="1.1" width="900" xmlns="http://www.w3.org/2000/svg">
<g transform="translate(1264.6681,347.0688)">
<rect height="600" style="fill:#f00" width="900" x="-1264.6681" y="-347.06876"/>
<g transform="matrix(.35894,0,0,.35894,-1224.591,-403.88811)">
<path d="m285.0625,363.53125c-12.56272,0.17227 -25.45787,3.91947 -38.09375,12.53125 -56.13446,38.25754 7.34375,111.3125 7.34375,111.3125l0.0312,0.0312c5.55346,-0.2265 11.654,1.13576 18.5625,4.96875 15.64385,-18.8939 31.53937,-37.34582 72.84375,-12.15625 8.98612,-8.98612 13.67947,-20.34375 36.59375,-20.34375 22.91428,0 27.60763,11.35763 36.59375,20.34375 41.30438,-25.18957 57.1999,-6.73765 72.84375,12.15625 6.9085,-3.83299 13.00904,-5.19525 18.5625,-4.96875l0.0312,-0.0312c0,0 63.47821,-73.05496 7.34375,-111.3125C505.08287,367.45072 492.18772,363.70352 479.625,363.53125 434.75816,362.916 393.9026,407.8202 382.34375,438.9375 370.7849,407.8202 329.92934,362.916 285.0625,363.53125z" style="fill:#f00"/>
<path d="m112.4375,-256.78125c-13.83191,-0.10216 -28.03309,3.24937 -41.84375,11.34375 -68.83587,40.34445 1.6875,122.0625 1.6875,122.0625 0.009,-0.003 0.02225,0.003 0.03125,0 3.14342,-1.21144 6.43752,-1.9795 9.9375,-2.125l-0.03125,-0.0312c0,0 -63.47821,-73.05496 -7.34375,-111.3125 12.63588,-8.61178 25.53103,-12.35898 38.09375,-12.53125 44.86684,-0.61525 85.7224,44.28895 97.28125,75.40625 11.55885,-31.1173 52.41441,-76.0215 97.28125,-75.40625 12.56272,0.17227 25.45787,3.91947 38.09375,12.53125 56.13446,38.25754 -7.34375,111.3125 -7.34375,111.3125L338.25,-125.5c3.49998,0.1455 6.79408,0.91356 9.9375,2.125 0.009,0.003 0.0222,-0.003 0.0312,0 0,0 70.52337,-81.71805 1.6875,-122.0625 -13.81066,-8.09438 -28.01184,-11.44591 -41.84375,-11.34375 -45.18425,0.33373 -86.48483,37.69254 -97.8125,68.1875 -11.32767,-30.49496 -52.62825,-67.85377 -97.8125,-68.1875 z m -17.5625,133.5c0.55561,0.21048 1.12089,0.41245 1.6875,0.65625 -0.56228,-0.24262 -1.13612,-0.44635 -1.6875,-0.65625 z m 230.75,0c-0.55561,0.21048 -1.12089,0.41245 -1.6875,0.65625 0.56228,-0.24262 1.13612,-0.44635 1.6875,-0.65625z" style="stroke:#000;stroke-linejoin:round;fill:#ffd700;stroke-width:2.0999999" transform="translate(172.0938,612.9062)"/>
<path d="m491.43922,566.22626a66.164993,18.687822 0 1 1 -132.32998,0 66.164993,18.687822 0 1 1 132.32998,0z" style="stroke:#000;stroke-linejoin:round;fill:#f00;stroke-width:1.47993028" transform="matrix(1.6379,0,0,1.22933,-314.21313,-131.57502)"/>
<path d="m382.34375,459.875c-22.91428,0 -27.60763,11.35763 -36.59375,20.34375 -41.30438,-25.18957 -57.1999,-6.73765 -72.84375,12.15625 -16.1153,-8.94113 -27.77742,-4.54951 -38.5625,2.5 17.61726,22.38873 32.7105,45.22951 39.625,69.625 0,-12.68793 48.52306,-22.96875 108.375,-22.96875 59.85194,0 108.375,10.28082 108.375,22.96875 6.9145,-24.39549 22.00774,-47.23627 39.625,-69.625 -10.78508,-7.04951 -22.4472,-11.44113 -38.5625,-2.5C476.1374,473.4811 460.24188,455.02918 418.9375,480.21875 409.95138,471.23263 405.25803,459.875 382.34375,459.875z" style="stroke:#000;stroke-linejoin:round;fill:#fff;stroke-width:2"/>
<path d="m590.43415,494.50543a13.889597,13.889597 0 1 1 -27.77919,0 13.889597,13.889597 0 1 1 27.77919,0z" style="stroke:#000;stroke-linejoin:round;fill:#fff;stroke-width:1.19565213" transform="matrix(.83636,0,0,.83636,62.01878,62.98886)"/>
<path d="m590.43415,494.50543a13.889597,13.889597 0 1 1 -27.77919,0 13.889597,13.889597 0 1 1 27.77919,0z" style="stroke:#000;stroke-linejoin:round;fill:#fff;stroke-width:1.19565213" transform="matrix(.83636,0,0,.83636,74.18198,38.57055)"/>
<path d="m590.43415,494.50543a13.889597,13.889597 0 1 1 -27.77919,0 13.889597,13.889597 0 1 1 27.77919,0z" style="stroke:#000;stroke-linejoin:round;fill:#fff;stroke-width:1.19565213" transform="matrix(.83636,0,0,.83636,80.70522,13.37903)"/>
<path d="m590.43415,494.50543a13.889597,13.889597 0 1 1 -27.77919,0 13.889597,13.889597 0 1 1 27.77919,0z" style="stroke:#000;stroke-linejoin:round;fill:#fff;stroke-width:1.19565213" transform="matrix(.28457,.78646,-.78646,.28457,785.74957,-197.57344)"/>
<path d="m590.43415,494.50543a13.889597,13.889597 0 1 1 -27.77919,0 13.889597,13.889597 0 1 1 27.77919,0z" style="stroke:#000;stroke-linejoin:round;fill:#fff;stroke-width:1.19565213" transform="matrix(-.50025,.67027,-.67027,-.50025,1166.124,233.21301)"/>
<path d="m590.43415,494.50543a13.889597,13.889597 0 1 1 -27.77919,0 13.889597,13.889597 0 1 1 27.77919,0z" style="stroke:#000;stroke-linejoin:round;fill:#fff;stroke-width:1.19565225" transform="matrix(.69356,.46742,-.46742,.69356,353.67853,-257.87194)"/>
<path d="m590.43415,494.50543a13.889597,13.889597 0 1 1 -27.77919,0 13.889597,13.889597 0 1 1 27.77919,0z" style="stroke:#000;stroke-linejoin:round;fill:#fff;stroke-width:1.19565213" transform="matrix(.83636,0,0,.83636,12.6518,-67.84851)"/>
<path d="m590.43415,494.50543a13.889597,13.889597 0 1 1 -27.77919,0 13.889597,13.889597 0 1 1 27.77919,0z" style="stroke:#000;stroke-linejoin:round;fill:#fff;stroke-width:1.19565213" transform="matrix(.83636,0,0,.83636,-17.30414,-67.58611)"/>
<path d="m590.43415,494.50543a13.889597,13.889597 0 1 1 -27.77919,0 13.889597,13.889597 0 1 1 27.77919,0z" style="stroke:#000;stroke-linejoin:round;fill:#fff;stroke-width:1.19565213" transform="matrix(.28429,.78656,-.78656,.28429,664.73998,-240.82527)"/>
<path d="m590.43415,494.50543a13.889597,13.889597 0 1 1 -27.77919,0 13.889597,13.889597 0 1 1 27.77919,0z" style="stroke:#000;stroke-linejoin:round;fill:#fff;stroke-width:1.19565213" transform="matrix(-.83636,0,0,.83636,702.66668,62.98886)"/>
<path d="m590.43415,494.50543a13.889597,13.889597 0 1 1 -27.77919,0 13.889597,13.889597 0 1 1 27.77919,0z" style="stroke:#000;stroke-linejoin:round;fill:#fff;stroke-width:1.19565213" transform="matrix(-.83636,0,0,.83636,690.50348,38.57055)"/>
<path d="m590.43415,494.50543a13.889597,13.889597 0 1 1 -27.77919,0 13.889597,13.889597 0 1 1 27.77919,0z" style="stroke:#000;stroke-linejoin:round;fill:#fff;stroke-width:1.19565213" transform="matrix(-.83636,0,0,.83636,683.98024,13.37903)"/>
<path d="m590.43415,494.50543a13.889597,13.889597 0 1 1 -27.77919,0 13.889597,13.889597 0 1 1 27.77919,0z" style="stroke:#000;stroke-linejoin:round;fill:#fff;stroke-width:1.19565213" transform="matrix(-.28457,.78646,.78646,.28457,-21.06411,-197.57344)"/>
<path d="m590.43415,494.50543a13.889597,13.889597 0 1 1 -27.77919,0 13.889597,13.889597 0 1 1 27.77919,0z" style="stroke:#000;stroke-linejoin:round;fill:#fff;stroke-width:1.19565213" transform="matrix(.50025,.67027,.67027,-.50025,-401.43854,233.21301)"/>
<path d="m590.43415,494.50543a13.889597,13.889597 0 1 1 -27.77919,0 13.889597,13.889597 0 1 1 27.77919,0z" style="stroke:#000;stroke-linejoin:round;fill:#fff;stroke-width:1.19565225" transform="matrix(-.69356,.46742,.46742,.69356,411.00693,-257.87194)"/>
<path d="m590.43415,494.50543a13.889597,13.889597 0 1 1 -27.77919,0 13.889597,13.889597 0 1 1 27.77919,0z" style="stroke:#000;stroke-linejoin:round;fill:#fff;stroke-width:1.19565213" transform="matrix(-.83636,0,0,.83636,752.03365,-67.84851)"/>
<path d="m590.43415,494.50543a13.889597,13.889597 0 1 1 -27.77919,0 13.889597,13.889597 0 1 1 27.77919,0z" style="stroke:#000;stroke-linejoin:round;fill:#fff;stroke-width:1.19565213" transform="matrix(-.83636,0,0,.83636,781.9896,-67.58611)"/>
<path d="m590.43415,494.50543a13.889597,13.889597 0 1 1 -27.77919,0 13.889597,13.889597 0 1 1 27.77919,0z" style="stroke:#000;stroke-linejoin:round;fill:#fff;stroke-width:1.19565213" transform="matrix(-.28429,.78656,.78656,.28429,99.94548,-240.82527)"/>
<path d="m342.53125,362c-2.34973,2.00529 -4.27754,2.96916 -7.5,7.15625 17.37464,21.72511 30.78097,50.10722 36.28125,91.78125l11.03125,-1.0625 11.03125,1.0625c5.50028,-41.67403 18.90661,-70.05614 36.28125,-91.78125 -3.22246,-4.18709 -5.15027,-5.15096 -7.5,-7.15625 -12.20639,6.17936 -22.71184,14.08991 -39.8125,15.375 -17.10066,-1.28509 -27.60611,-9.19564 -39.8125,-15.375z" style="stroke:#000;stroke-linejoin:round;fill:#ffd700;stroke-width:2.0999999"/>
<path d="m375.15325,275.30538 0,17.88772 -13.44751,0 0,12.33255 13.44751,0 0,12.83696 14.381,0 0,-12.83696 13.44751,0 0,-12.33255 -13.44751,0 0,-17.88772z" style="stroke:#000;stroke-linejoin:round;fill:#ffd700;stroke-width:0.99999988"/>
<path d="m406.5864,330.48193a27.905464,27.905464 0 1 1 -55.81093,0 27.905464,27.905464 0 1 1 55.81093,0z" style="stroke:#000;stroke-linejoin:round;fill:#ffd700;stroke-width:0.93102163" transform="matrix(1.07409,0,0,1.07409,-24.39425,-7.565)"/>
<path d="m342.53125,362c12.10354,25.12753 33.28344,54.75131 33.375,98.21875 1.97948,-0.2211 4.10382,-0.34375 6.4375,-0.34375 2.33368,0 4.45802,0.12265 6.4375,0.34375 0.0916,-43.46744 21.27146,-73.09122 33.375,-98.21875 -12.20639,6.17936 -22.71184,14.08991 -39.8125,15.375 -17.10066,-1.28509 -27.60611,-9.19564 -39.8125,-15.375z" style="stroke:#000;stroke-linejoin:round;fill:#ffd700;stroke-width:2.0999999"/>
<path d="m382.34375,317.4375c-2.91745,0.22403 -7.06385,0.0797 -9.09375,1.8558 0,8.32932 0,16.65863 0,24.98795 -6.83458,-0.3461 -13.6757,-1.00055 -20.375,-2.4375 -0.96577,5.25259 -0.53081,10.75615 1.2812,15.78125 14.05799,2.6476 28.49108,2.87119 42.72667,1.83478 4.57617,-0.37812 9.1437,-0.93357 13.64833,-1.83478 1.81302,-5.02351 2.24731,-10.53017 1.28125,-15.78125 -6.69907,1.43834 -13.54044,2.09146 -20.375,2.4375 0,-8.47917 0,-16.95833 0,-25.4375 -2.93428,-0.9357 -6.0144,-1.40799 -9.0937,-1.40625z" style="stroke:#000;stroke-linejoin:round;fill:#ffd700"/>
<path d="m418.57143,498.16575c0,0 -8.29988,8.82425 -9.10715,14.46429 -0.81556,5.698 3.92858,16.07143 3.92858,16.07143 0,0 10.09954,-9.09777 12.94642,-13.92857 1.7017,-2.88757 2.94643,-13.66071 2.94643,-13.66071l-3.83928,-0.17858c-0.66111,10.3147 -5.73579,11.80223 -9.19643,16.51786 0,0 -1.53422,-2.35287 -1.51786,-4.01786 0.0527,-5.35986 6.78572,-13.92857 6.78572,-13.92857 -0.65171,-2.26384 -1.83904,-1.58171 -2.94643,-1.33929z" style="fill:#c0c0c0"/>
<path d="m454.82143,477.98718c0,0 -8.29988,8.82425 -9.10715,14.46429 -0.81556,5.698 3.92858,16.07143 3.92858,16.07143 0,0 10.09954,-9.09777 12.94642,-13.92857 1.7017,-2.88757 2.94643,-13.66071 2.94643,-13.66071l-3.83928,-0.17858c-0.66111,10.3147 -5.73579,11.80223 -9.19643,16.51786 0,0 -1.53422,-2.35287 -1.51786,-4.01786 0.0527,-5.35986 6.78572,-13.92857 6.78572,-13.92857 -0.65171,-2.26384 -1.83904,-1.58171 -2.94643,-1.33929z" style="fill:#c0c0c0"/>
<path d="m477.19712,513.00062c0,0 -7.70452,8.19128 -8.45389,13.42675 -0.75706,5.28928 3.64678,14.91861 3.64678,14.91861 0,0 9.37509,-8.44518 12.01776,-12.92946 1.57964,-2.68044 2.73508,-12.68081 2.73508,-12.68081l-3.56388,-0.16577c-0.61369,9.57481 -5.32436,10.95564 -8.53676,15.33302 0,0 -1.42417,-2.1841 -1.40898,-3.72966 0.0489,-4.97539 6.29897,-12.92946 6.29897,-12.92946 -0.60496,-2.10145 -1.70712,-1.46825 -2.73508,-1.24322z" style="fill:#c0c0c0"/>
<path d="m503.98283,499.42919c0,0 -7.70452,8.19128 -8.45389,13.42675 -0.75706,5.28928 3.64678,14.91861 3.64678,14.91861 0,0 9.37509,-8.44518 12.01776,-12.92946 1.57964,-2.68044 2.73508,-12.68081 2.73508,-12.68081l-3.56388,-0.16577c-0.61369,9.57481 -5.32436,10.95564 -8.53676,15.33302 0,0 -1.42417,-2.1841 -1.40898,-3.72966 0.0489,-4.97539 6.29897,-12.92946 6.29897,-12.92946 -0.60496,-2.10145 -1.70712,-1.46825 -2.73508,-1.24322z" style="fill:#c0c0c0"/>
<path d="m376.07143,472.09432c0,0 -8.29988,8.82425 -9.10715,14.46429 -0.81556,5.698 3.92858,16.07143 3.92858,16.07143 0,0 10.09954,-9.09777 12.94642,-13.92857 1.7017,-2.88757 2.94643,-13.66071 2.94643,-13.66071l-3.83928,-0.17858c-0.66111,10.3147 -5.73579,11.80223 -9.19643,16.51786 0,0 -1.53422,-2.35287 -1.51786,-4.01786 0.0527,-5.35986 6.78572,-13.92857 6.78572,-13.92857 -0.65171,-2.26384 -1.83904,-1.58171 -2.94643,-1.33929z" style="fill:#c0c0c0"/>
<path d="m346.15572,502.63003c0,0 8.29988,8.82425 9.10715,14.46429 0.81556,5.698 -3.92858,16.07143 -3.92858,16.07143 0,0 -10.09954,-9.09777 -12.94642,-13.92857 -1.7017,-2.88757 -2.94643,-13.66071 -2.94643,-13.66071l3.83928,-0.17858c0.66111,10.3147 5.73579,11.80223 9.19643,16.51786 0,0 1.53422,-2.35287 1.51786,-4.01786 -0.0527,-5.35986 -6.78572,-13.92857 -6.78572,-13.92857 0.65171,-2.26384 1.83904,-1.58171 2.94643,-1.33929z" style="fill:#c0c0c0"/>
<path d="m316.98907,484.0586c0,0 8.29988,8.82425 9.10715,14.46429 0.81556,5.698 -3.92858,16.07143 -3.92858,16.07143 0,0 -10.09954,-9.09777 -12.94642,-13.92857 -1.7017,-2.88757 -2.94643,-13.66071 -2.94643,-13.66071l3.83928,-0.17858c0.66111,10.3147 5.73579,11.80223 9.19643,16.51786 0,0 1.53422,-2.35287 1.51786,-4.01786 -0.0527,-5.35986 -6.78572,-13.92857 -6.78572,-13.92857 0.65171,-2.26384 1.83904,-1.58171 2.94643,-1.33929z" style="fill:#c0c0c0"/>
<path d="m287.82239,511.5586c0,0 8.29988,8.82425 9.10715,14.46429 0.81556,5.698 -3.92858,16.07143 -3.92858,16.07143 0,0 -10.09954,-9.09777 -12.94642,-13.92857 -1.7017,-2.88757 -2.94643,-13.66071 -2.94643,-13.66071l3.83928,-0.17858c0.66111,10.3147 5.73579,11.80223 9.19643,16.51786 0,0 1.53422,-2.35287 1.51786,-4.01786 -0.0527,-5.35986 -6.78572,-13.92857 -6.78572,-13.92857 0.65171,-2.26384 1.83904,-1.58171 2.94643,-1.33929z" style="fill:#c0c0c0"/>
<path d="m259.01286,495.13003c0,0 8.29988,8.82425 9.10715,14.46429 0.81556,5.698 -3.92858,16.07143 -3.92858,16.07143 0,0 -10.09954,-9.09777 -12.94642,-13.92857 -1.7017,-2.88757 -2.94643,-13.66071 -2.94643,-13.66071l3.83928,-0.17858c0.66111,10.3147 5.73579,11.80223 9.19643,16.51786 0,0 1.53422,-2.35287 1.51786,-4.01786 -0.0527,-5.35986 -6.78572,-13.92857 -6.78572,-13.92857 0.65171,-2.26384 1.83904,-1.58171 2.94643,-1.33929z" style="fill:#c0c0c0"/>
<path d="m590.43415,494.50543a13.889597,13.889597 0 1 1 -27.77919,0 13.889597,13.889597 0 1 1 27.77919,0z" style="stroke:#000;stroke-linejoin:round;fill:#fff;stroke-width:1.52341068" transform="matrix(.22313,.61734,-.61734,.22313,558.97614,-78.51311)"/>
<path d="m590.43415,494.50543a13.889597,13.889597 0 1 1 -27.77919,0 13.889597,13.889597 0 1 1 27.77919,0z" style="stroke:#000;stroke-linejoin:round;fill:#fff;stroke-width:1.89432704" transform="matrix(.17944,.49646,-.49646,.17944,524.39065,30.63938)"/>
<path d="m590.43415,494.50543a13.889597,13.889597 0 1 1 -27.77919,0 13.889597,13.889597 0 1 1 27.77919,0z" style="stroke:#000;stroke-linejoin:round;fill:#fff;stroke-width:2.67625761" transform="matrix(.12701,.35141,-.35141,.12701,482.88807,156.44379)"/>
<path d="m590.43415,494.50543a13.889597,13.889597 0 1 1 -27.77919,0 13.889597,13.889597 0 1 1 27.77919,0z" style="stroke:#000;stroke-linejoin:round;fill:#fff;stroke-width:2.67625761" transform="matrix(.12701,.35141,-.35141,.12701,482.88807,168.94379)"/>
<path d="m590.43415,494.50543a13.889597,13.889597 0 1 1 -27.77919,0 13.889597,13.889597 0 1 1 27.77919,0z" style="stroke:#000;stroke-linejoin:round;fill:#fff;stroke-width:2.67625761" transform="matrix(.12701,.35141,-.35141,.12701,482.88807,182.87236)"/>
<path d="M0,-48.65625 0,0 0,234.21875C0,350.77196 94.13492,445.2502 210.25,445.25 326.36511,445.25 420.5,350.77196 420.5,234.21875L420.5,0l0,-48.65625 -23.21875,15.15625 -23.25,-15.15625 0,48.65625L327,0 327,-48.65625 303.75,-33.5l-23.21875,-15.15625 0,48.65625 -47.0625,0 0,-48.65625L210.25,-33.5 187,-48.65625 187,0l-47.03125,0 0,-48.65625L116.75,-33.5 93.5,-48.65625 93.5,0 46.46875,0l0,-48.65625L23.21875,-33.5 0,-48.65625z" style="fill:#c0c0c0" transform="translate(172.0938,612.9062)"/>
<path d="M0,-48.65625 0,0 0,234.21875C0,350.77196 94.13492,445.2502 210.25,445.25 326.36511,445.25 420.5,350.77196 420.5,234.21875L420.5,0l0,-48.65625 -23.21875,15.15625 -23.25,-15.15625 0,48.65625L327,0 327,-48.65625 303.75,-33.5l-23.21875,-15.15625 0,48.65625 -47.0625,0 0,-48.65625L210.25,-33.5 187,-48.65625 187,0l-47.03125,0 0,-48.65625L116.75,-33.5 93.5,-48.65625 93.5,0 46.46875,0l0,-48.65625L23.21875,-33.5 0,-48.65625z" style="stroke:#000;fill:none;stroke-width:3" transform="translate(172.0938,612.9062)"/>
<path d="m370.1875,788.625c-10.95859,0 -13.59375,8.375 -13.59375,8.375l-9.4375,0 0,3.625L238.9375,799.5c-8.33689,-1.19048 -9.49926,-2.37202 -12.875,-3.5625 -3.62726,6.16073 -6.78125,15.77646 -6.78125,22.5625 0,6.78604 3.15399,16.43302 6.78125,22.59375 3.37574,-1.19048 4.53811,-2.37202 12.875,-3.5625l242.5,-2.5c12.56444,1.6237 23.30291,4.43348 27.84375,11.40625 2.02665,0.34862 3.21113,3.25054 6.4375,0 6.15968,-5.24323 3.46138,-12.77624 7.84375,-17.5 2.01477,-2.17173 4.92946,-3.44653 8.1875,-4.375 1.44849,3.99492 4.26932,6.71875 7.53125,6.71875 4.73387,0 8.5625,-5.72976 8.5625,-12.78125 0,-7.05149 -3.82863,-12.75 -8.5625,-12.75 -3.2621,0 -6.08283,2.72349 -7.53125,6.71875 -3.25804,-0.93755 -6.17273,-2.23452 -8.1875,-4.40625 -4.38237,-4.72376 -1.68407,-12.25677 -7.84375,-17.5 -1.20989,-1.21895 -2.15137,-1.55233 -2.9375,-1.5 -1.31021,0.0872 -2.23334,1.28211 -3.5,1.5 -4.54084,6.97277 -15.27931,9.8138 -27.84375,11.4375L390,801.0625l0,-3 -5,0c0,0 -3.85391,-9.4375 -14.8125,-9.4375z"/>
<path d="m541.42855,815.57648a2.3214285,6.4285712 0 1 1 -4.64286,0 2.3214285,6.4285712 0 1 1 4.64286,0z" style="opacity:0.88095236;fill:#fff"/>
<rect height="4.6428571" rx="19.285715" ry="2.3214285" style="opacity:0.88095236;fill:#fff" width="230" x="253.21429" y="804.505"/>
<g style="stroke:#000;fill:#ffd700;stroke-width:1.5">
<path d="m409.21875,835.78125 -113,1.15625 0,31.3125 56.46875,0 57.5,95.71875 69.8125,0 -5.90625,-9.09375c-14.10528,-23.4282 1.75112,-54.69382 -36.9375,-60.5625l-27.875,-58.53125 -0.0625,0z" style="stroke:#000;stroke-linejoin:round;fill:#ffd700;stroke-width:1.5"/>
<path d="m442.65625,835.4375 -33.375,0.34375 27.875,58.53125c38.68862,5.86868 22.83222,37.1343 36.9375,60.5625L480,963.96875 505.15625,946.34375 499.25,937.25c-14.10528,-23.4282 1.71987,-54.66257 -36.96875,-60.53125l-19.625,-41.28125z" style="stroke:#000;stroke-linejoin:round;fill:#ffd700;stroke-width:1.5"/>
<path d="m442.65625,835.4375 -16.6875,0.15625 23.75,49.90625c38.68863,5.86868 22.83222,37.1343 36.9375,60.5625l5.90625,9.09375 12.59375,-8.8125L499.25,937.25c-14.10528,-23.4282 1.71987,-54.66257 -36.96875,-60.53125l-19.625,-41.28125z" style="stroke:#000;stroke-linejoin:round;fill:#ffd700;stroke-width:1.5"/>
</g>
<g style="fill:#ffd700" transform="translate(29.4424,2.5761)">
<path d="m297.6875,812c-40.92825,0 -74.125,33.19675 -74.125,74.125 0,40.92825 33.19675,74.09375 74.125,74.09375 40.92825,0 74.09375,-33.1655 74.09375,-74.09375 0,-40.92825 -33.1655,-74.125 -74.09375,-74.125 z m 0,10.625c35.06769,0 63.5,28.43231 63.5,63.5 0,35.06769 -28.43231,63.46875 -63.5,63.46875 -35.06769,0 -63.5,-28.40106 -63.5,-63.46875 0,-35.06769 28.43231,-63.5 63.5,-63.5z" style="stroke:#000;fill:#ffd700;stroke-width:1.5"/>
<path d="m278.21875,826.71875c7.2335,6.72929 15.88472,12.81984 13.34375,19.625 -2.57316,6.89135 -3.34821,8.64398 -3.34821,10.5 0,5.23146 4.3484,9.46875 9.45759,9.46875 5.10919,0 9.48883,-4.23729 9.48883,-9.46875 0,-1.85602 -0.77505,-3.60865 -3.34821,-10.5 -2.54097,-6.80516 6.11025,-12.89571 13.34375,-19.625 -3.66323,3.22062 -10.9971,5.4375 -19.46875,5.4375 -8.47165,0 -15.80552,-2.21688 -19.46875,-5.4375z" style="stroke:#000;fill:#ffd700;stroke-width:1.5"/>
<path d="m297.6875,822.625c-7.09373,0 -13.91098,1.16603 -20.28125,3.3125 3.30847,3.64328 11.13748,6.21875 20.28125,6.21875 9.1561,0 16.98056,-2.56764 20.28125,-6.21875 -6.37027,-2.14647 -13.18752,-3.3125 -20.28125,-3.3125z" style="stroke:#000;fill:#ffd700;stroke-width:1.5"/>
<path d="m357.06535,866.64956c-6.72929,7.2335 -12.81984,15.88472 -19.625,13.34375 -6.89135,-2.57316 -8.64398,-3.34821 -10.5,-3.34821 -5.23146,0 -9.46875,4.3484 -9.46875,9.45759 0,5.10919 4.23729,9.48883 9.46875,9.48883 1.85602,0 3.60865,-0.77505 10.5,-3.34821 6.80516,-2.54097 12.89571,6.11025 19.625,13.34375 -3.22062,-3.66323 -5.4375,-10.9971 -5.4375,-19.46875 0,-8.47165 2.21688,-15.80552 5.4375,-19.46875z" style="stroke:#000;fill:#ffd700;stroke-width:1.5"/>
<path d="m361.1591,886.11831c0,-7.09373 -1.16603,-13.91098 -3.3125,-20.28125 -3.64328,3.30847 -6.21875,11.13748 -6.21875,20.28125 0,9.1561 2.56764,16.98056 6.21875,20.28125 2.14647,-6.37027 3.3125,-13.18752 3.3125,-20.28125z" style="stroke:#000;fill:#ffd700;stroke-width:1.5"/>
<path d="m278.21206,945.50285c7.2335,-6.72929 15.88472,-12.81984 13.34375,-19.625 -2.57316,-6.89135 -3.34821,-8.64398 -3.34821,-10.5 0,-5.23146 4.3484,-9.46875 9.45759,-9.46875 5.10919,0 9.48883,4.23729 9.48883,9.46875 0,1.85602 -0.77505,3.60865 -3.34821,10.5 -2.54097,6.80516 6.11025,12.89571 13.34375,19.625 -3.66323,-3.22062 -10.9971,-5.4375 -19.46875,-5.4375 -8.47165,0 -15.80552,2.21688 -19.46875,5.4375z" style="stroke:#000;fill:#ffd700;stroke-width:1.5"/>
<path d="m297.68081,949.5966c-7.09373,0 -13.91098,-1.16603 -20.28125,-3.3125 3.30847,-3.64328 11.13748,-6.21875 20.28125,-6.21875 9.1561,0 16.98056,2.56764 20.28125,6.21875 -6.37027,2.14647 -13.18752,3.3125 -20.28125,3.3125z" style="stroke:#000;fill:#ffd700;stroke-width:1.5"/>
<path d="m357.06535,866.64956c-6.72929,7.2335 -12.81984,15.88472 -19.625,13.34375 -6.89135,-2.57316 -8.64398,-3.34821 -10.5,-3.34821 -5.23146,0 -9.46875,4.3484 -9.46875,9.45759 0,5.10919 4.23729,9.48883 9.46875,9.48883 1.85602,0 3.60865,-0.77505 10.5,-3.34821 6.80516,-2.54097 12.89571,6.11025 19.625,13.34375 -3.22062,-3.66323 -5.4375,-10.9971 -5.4375,-19.46875 0,-8.47165 2.21688,-15.80552 5.4375,-19.46875z" style="stroke:#000;fill:#ffd700;stroke-width:1.5"/>
<path d="m361.1591,886.11831c0,-7.09373 -1.16603,-13.91098 -3.3125,-20.28125 -3.64328,3.30847 -6.21875,11.13748 -6.21875,20.28125 0,9.1561 2.56764,16.98056 6.21875,20.28125 2.14647,-6.37027 3.3125,-13.18752 3.3125,-20.28125z" style="stroke:#000;fill:#ffd700;stroke-width:1.5"/>
<path d="m238.28511,905.57205c6.72929,-7.2335 12.81984,-15.88472 19.625,-13.34375 6.89135,2.57316 8.64398,3.34821 10.5,3.34821 5.23146,0 9.46875,-4.3484 9.46875,-9.45759 0,-5.10919 -4.23729,-9.48883 -9.46875,-9.48883 -1.85602,0 -3.60865,0.77505 -10.5,3.34821 -6.80516,2.54097 -12.89571,-6.11025 -19.625,-13.34375 3.22062,3.66323 5.4375,10.9971 5.4375,19.46875 0,8.47165 -2.21688,15.80552 -5.4375,19.46875z" style="stroke:#000;fill:#ffd700;stroke-width:1.5"/>
<path d="m234.19136,886.1033c0,7.09373 1.16603,13.91098 3.3125,20.28125 3.64328,-3.30847 6.21875,-11.13748 6.21875,-20.28125 0,-9.1561 -2.56764,-16.98056 -6.21875,-20.28125 -2.14647,6.37027 -3.3125,13.18752 -3.3125,20.28125z" style="stroke:#000;fill:#ffd700;stroke-width:1.5"/>
<path d="m241.92089,857.87203c9.87318,-0.35653 20.29719,-2.1672 23.31242,4.44151 3.05343,6.69242 3.74468,8.47976 5.05708,9.79217 3.6992,3.6992 9.7702,3.62063 13.38295,0.008 3.61274,-3.61275 3.7134,-9.70583 0.0142,-13.40504 -1.31241,-1.3124 -3.09975,-2.00365 -9.79217,-5.05707 -6.60871,-3.01524 -4.79804,-13.43925 -4.44151,-23.31243 -0.31297,4.86762 -3.93123,11.62102 -9.92159,17.61138 -5.99037,5.99036 -12.74377,9.60862 -17.61138,9.92159z" style="stroke:#000;fill:#ffd700;stroke-width:1.5"/>
<path d="m252.79265,841.21083c-5.01602,5.01602 -9.01204,10.66105 -11.99871,16.6833 4.91563,0.23674 12.2727,-3.47807 18.73833,-9.94369 6.47434,-6.47434 10.19147,-13.82267 9.94369,-18.73833 -6.02225,2.98667 -11.66728,6.98269 -16.68331,11.99872z" style="stroke:#000;fill:#ffd700;stroke-width:1.5"/>
<path d="m353.4363,857.87203c-9.87318,-0.35653 -20.29719,-2.1672 -23.31242,4.44151 -3.05343,6.69242 -3.74468,8.47976 -5.05708,9.79217 -3.6992,3.6992 -9.7702,3.62063 -13.38295,0.008 -3.61274,-3.61275 -3.7134,-9.70583 -0.0142,-13.40504 1.31241,-1.3124 3.09975,-2.00365 9.79217,-5.05707 6.60871,-3.01524 4.79804,-13.43925 4.44151,-23.31243 0.31297,4.86762 3.93123,11.62102 9.92159,17.61138 5.99037,5.99036 12.74377,9.60862 17.61138,9.92159z" style="stroke:#000;fill:#ffd700;stroke-width:1.5"/>
<path d="m342.56454,841.21083c5.01602,5.01602 9.01204,10.66105 11.99871,16.6833 -4.91563,0.23674 -12.2727,-3.47807 -18.73833,-9.94369 -6.47434,-6.47434 -10.19147,-13.82267 -9.94369,-18.73833 6.02225,2.98667 11.66728,6.98269 16.68331,11.99872z" style="stroke:#000;fill:#ffd700;stroke-width:1.5"/>
<path d="m241.92084,914.34673c9.87318,0.35653 20.29719,2.1672 23.31242,-4.44151 3.05343,-6.69242 3.74468,-8.47976 5.05708,-9.79217 3.6992,-3.6992 9.7702,-3.62063 13.38295,-0.008 3.61274,3.61275 3.7134,9.70583 0.0142,13.40504 -1.31241,1.3124 -3.09975,2.00365 -9.79217,5.05707 -6.60871,3.01524 -4.79804,13.43925 -4.44151,23.31243 -0.31297,-4.86762 -3.93123,-11.62102 -9.92159,-17.61138 -5.99037,-5.99036 -12.74377,-9.60862 -17.61138,-9.92159z" style="stroke:#000;fill:#ffd700;stroke-width:1.5"/>
<path d="m252.7926,931.00793c-5.01602,-5.01602 -9.01204,-10.66105 -11.99871,-16.6833 4.91563,-0.23674 12.2727,3.47807 18.73833,9.94369 6.47434,6.47434 10.19147,13.82267 9.94369,18.73833 -6.02225,-2.98667 -11.66728,-6.98269 -16.68331,-11.99872z" style="stroke:#000;fill:#ffd700;stroke-width:1.5"/>
<path d="m353.4363,914.34673c-9.87318,0.35653 -20.29719,2.1672 -23.31242,-4.44151 -3.05343,-6.69242 -3.74468,-8.47976 -5.05708,-9.79217 -3.6992,-3.6992 -9.7702,-3.62063 -13.38295,-0.008 -3.61274,3.61275 -3.7134,9.70583 -0.0142,13.40504 1.31241,1.3124 3.09975,2.00365 9.79217,5.05707 6.60871,3.01524 4.79804,13.43925 4.44151,23.31243 0.31297,-4.86762 3.93123,-11.62102 9.92159,-17.61138 5.99037,-5.99036 12.74377,-9.60862 17.61138,-9.92159z" style="stroke:#000;fill:#ffd700;stroke-width:1.5"/>
<path d="m342.56454,931.00793c5.01602,-5.01602 9.01204,-10.66105 11.99871,-16.6833 -4.91563,-0.23674 -12.2727,3.47807 -18.73833,9.94369 -6.47434,6.47434 -10.19147,13.82267 -9.94369,18.73833 6.02225,-2.98667 11.66728,-6.98269 16.68331,-11.99872z" style="stroke:#000;fill:#ffd700;stroke-width:1.5"/>
<path d="m349.2857,886.11218a51.607143,51.607143 0 1 1 -103.21429,0 51.607143,51.607143 0 1 1 103.21429,0z" style="stroke:#000;fill:#ffd700;stroke-width:3.29046369" transform="matrix(.40969,0,0,.40969,175.72253,523.08059)"/>
<path d="m349.2857,886.11218a51.607143,51.607143 0 1 1 -103.21429,0 51.607143,51.607143 0 1 1 103.21429,0z" style="stroke:#000;fill:#ffd700;stroke-width:10.60625362" transform="matrix(.14143,0,0,.14143,255.57908,760.79291)"/>
</g>
<path d="m451.28295,640.61076c-5.26234,33.91087 -33.96015,54.07637 -34.34375,64.65625 -0.31321,8.63866 15.73484,26.12835 18.1875,41.90625l13.125,3.78125 2.125,-6.65625c2.53813,-11.87995 0.0184,-25.17091 9.75,-36 -4.01472,-3.55663 -5.57023,0.82741 -7.8125,3.03125l7.3125,-26.03125c-2.72717,-1.63166 -4.76587,0.82963 -7.0625,1.78125 8.01021,-16.01595 0.41774,-31.05963 -1.28125,-46.46875z" style="stroke:#000;stroke-linejoin:round;fill:#ffd700"/>
<path d="m447.5625,654.84375c-9.44216,25.45617 -30.29852,41.43296 -30.625,50.4375 -0.24515,6.76151 9.5316,18.92742 14.96875,31.46875l0.0625,0.0937c5.98989,-7.77896 -12.28649,-19.7098 -9.96875,-29.8125 5.78392,-25.21128 20.77713,-30.89102 25.5625,-52.1875z" style="fill:#008000"/>
<path d="m441.6892,749.06388c-2.45266,-15.7779 -18.49596,-33.28267 -18.18275,-41.92133 0.3836,-10.57988 29.08284,-30.73889 34.34518,-64.64976 1.69899,15.40912 9.27291,30.45106 1.2627,46.46701 2.29663,-0.95162 4.34389,-3.39942 7.07106,-1.76776l-7.3236,26.01142c2.24227,-2.20384 3.81396,-6.58708 7.82868,-3.03045 -11.59868,12.90673 -5.75778,29.35011 -11.86929,42.67894 27.54266,-37.03759 17.57959,-137.8499 71.21576,-103.2881 -38.81762,-17.65027 -40.53506,41.93001 -51.51778,81.06475 16.85727,-18.4662 19.02946,-88.71665 52.08798,-50.05213 -21.15503,-20.49027 -32.71742,35.76061 -47.85714,63.39286 18.80952,-15.72417 37.61905,-66.83843 56.42857,-32.5 -41.21551,-11.29333 -43.67651,80.79103 -95.98477,75.65826 -44.99757,-4.4154 -35.56639,-50.6716 -39.93101,-90.59164 -0.51239,-4.68644 -14.22891,-8.47136 -13.38452,-14.14213 0.81175,-5.45158 7.51744,-8.32809 14.64721,-6.566 21.82169,5.39312 -1.62482,51.24222 41.16372,73.23606z" style="fill:#ffd700"/>
<path d="m387.8125,678.5c-5.32096,1.46157 -10.22375,3.94455 -16.46875,3.25 -1.15469,5.43455 3.66472,6.32002 6.1875,6.4375 3.84363,0.17898 8.43101,0.51969 13.46875,0.9375 -2.96016,-2.02953 -5.50231,-4.18483 -5.125,-6.71875 0.22547,-1.51425 0.91978,-2.83357 1.9375,-3.90625z" style="stroke:#000;stroke-linejoin:round;fill:#f00"/>
<path d="m395.08928,680.3979c4.49946,-2.94845 6.88039,0.7235 9.55358,3.48214 -3.18453,-0.82595 -6.36905,-0.0832 -9.55358,-3.48214z"/>
<path d="m395.09375,649.90625c-1.79986,0 -3.25,1.45014 -3.25,3.25 0,1.79986 1.45014,3.28125 3.25,3.28125 0.69748,2.50422 1.19154,5.90783 1.46875,9.4375 0.25939,3.30283 0.38902,6.51919 0.5,9.46875 0.69866,0.0297 1.40454,0.0972 2.125,0.21875 -0.12224,-3.00572 -0.25765,-6.35994 -0.53125,-9.84375 -0.28814,-3.66897 -0.70816,-7.22542 -1.53125,-10.03125 0.73903,-0.59743 1.21875,-1.50692 1.21875,-2.53125 0,-1.79986 -1.45014,-3.25 -3.25,-3.25 z m -8.3125,5.90625c-1.79986,0 -3.25,1.45014 -3.25,3.25 0,1.79986 1.45014,3.25 3.25,3.25 0.30342,0 0.59631,-0.0474 0.875,-0.125 2.31491,4.43153 4.33431,8.2261 4.96875,13.59375 0.65941,-0.17498 1.34698,-0.29698 2.0625,-0.375 -0.71214,-5.79123 -2.9309,-9.93262 -5.28125,-14.4375 0.39639,-0.53974 0.625,-1.18525 0.625,-1.90625 0,-1.79986 -1.45014,-3.25 -3.25,-3.25 z m 21,0.34375c-1.79986,0 -3.28125,1.45014 -3.28125,3.25 0,0.89993 0.379,1.72275 0.96875,2.3125 -2.11601,4.26453 -3.93632,8.79742 -4.59375,14.1875 0.72268,0.19709 1.37542,0.46343 2,0.75 0.56712,-5.28342 2.36599,-9.73741 4.5,-14.03125 0.13487,0.017 0.26676,0.0625 0.40625,0.0625 1.79986,0 3.25,-1.48139 3.25,-3.28125 0,-1.79986 -1.45014,-3.25 -3.25,-3.25z" style="font-family:Sans"/>
<path d="m506.90625,642.46875c-9.29058,-0.10487 -15.59086,6.28498 -20.40625,16.21875 1.15152,3.15713 2.31686,6.44518 3.46875,9.84375 4.65696,-12.17711 10.99102,-20.90468 21,-22.03125 -0.22847,-1.25962 -0.47741,-2.53748 -0.6875,-3.71875 -1.16525,-0.19325 -2.29324,-0.30029 -3.375,-0.3125 z m 1.96875,26.6875c-5.93226,0.35388 -10.29026,6.2315 -14.03125,14.3125 1.41799,4.53317 2.76471,9.12291 4.125,13.71875 5.37896,-11.49357 11.12223,-20.1844 17.84375,-20.9375 -0.38179,-1.78067 -0.72989,-3.52844 -1.09375,-5.28125 -2.50306,-1.36867 -4.76401,-1.93657 -6.84375,-1.8125 z m 12.1875,30.6875c-5.84493,0.25955 -11.68632,5.85421 -17.53125,13.15625 1.00236,3.56485 1.97831,7.07068 2.90625,10.46875 5.45304,-6.78448 11.44798,-11.63516 18.8125,-12.71875 -1.00271,-3.51271 -1.95841,-7.16605 -2.90625,-10.875 -0.42529,-0.039 -0.85596,-0.0501 -1.28125,-0.0312z" style="fill:#f00"/>
<path d="m481.71875,671c-2.38955,7.38835 -4.45805,15.66103 -6.5,24.1875 1.10979,6.06939 2.23126,12.36068 3.34375,18.6875 2.39132,-10.99505 4.62761,-22.449 7.40625,-32.75 -1.47315,-3.57145 -2.91939,-7.01582 -4.25,-10.125 z m 9.125,22.28125c-3.57113,9.76427 -6.82424,20.62937 -10.84375,28.8125 0.8462,4.91812 1.66173,9.78888 2.4375,14.53125 4.44289,-9.59655 8.64864,-20.98372 13,-31.3125 -1.52307,-4.12038 -3.05532,-8.11058 -4.59375,-12.03125 z m 9.03125,24.5c-5.63858,7.58048 -11.26767,16.03151 -16.90625,22.125 0.94935,5.89016 1.81689,11.53109 2.5625,16.71875 6.18289,-9.80639 11.64886,-20.30797 17.625,-28.8125 -1.04373,-3.3289 -2.13618,-6.6783 -3.28125,-10.03125z" style="fill:#008000"/>
<path d="m461.53125,662c-5.23734,20.1858 -16.5625,51.84375 -16.5625,51.84375l14.15625,-24.875 1.46875,-3.46875c2.95887,-8.00344 2.36053,-15.77043 0.9375,-23.5z" style="fill:#f00"/>
<path d="m463.25,714.90625c-0.19021,0.15127 -13.58569,10.83361 -15.34375,20.78125 -0.78765,4.4568 1.40625,11.9375 1.40625,11.9375 2.59031,-4.29184 5.59679,-7.95876 8.9375,-11.125 0.62932,-7.32773 1.08699,-14.80654 5,-21.59375z" style="fill:#008000"/>
<path d="m451.09375,663.8125c-10.24856,21.37548 -27.29866,35.20503 -27.59375,43.34375 -0.27181,7.49678 11.77014,21.66586 16.5625,35.59375 0.0831,-0.14334 0.18477,-0.30432 0.25,-0.5 3.15185,-9.45556 -7.69589,-21.27515 -10.875,-30.8125 -2.18023,-6.5407 9.71515,-17.02407 12.5,-22.59375 4.41148,-8.82297 9.34319,-15.62015 9.15625,-25.03125z" style="fill:#f00"/>
<path d="m441.6892,749.06388c-2.45266,-15.7779 -18.49596,-33.28267 -18.18275,-41.92133 0.3836,-10.57988 29.08284,-30.73889 34.34518,-64.64976 1.69899,15.40912 9.27291,30.45106 1.2627,46.46701 2.29663,-0.95162 4.34389,-3.39942 7.07106,-1.76776l-7.3236,26.01142c2.24227,-2.20384 3.81396,-6.58708 7.82868,-3.03045 -11.59868,12.90673 -5.75778,29.35011 -11.86929,42.67894 27.54266,-37.03759 17.57959,-137.8499 71.21576,-103.2881 -38.81762,-17.65027 -40.53506,41.93001 -51.51778,81.06475 16.85727,-18.4662 19.02946,-88.71665 52.08798,-50.05213 -21.15503,-20.49027 -32.71742,35.76061 -47.85714,63.39286 18.80952,-15.72417 37.61905,-66.83843 56.42857,-32.5 -41.21551,-11.29333 -43.67651,80.79103 -95.98477,75.65826 -44.99757,-4.4154 -35.56639,-50.6716 -39.93101,-90.59164 -0.51239,-4.68644 -14.22891,-8.47136 -13.38452,-14.14213 0.81175,-5.45158 7.51744,-8.32809 14.64721,-6.566 21.82169,5.39312 -1.62482,51.24222 41.16372,73.23606z" style="stroke:#000;stroke-linejoin:round;fill:none"/>
<path d="m446.875,787.15625c-2.23219,0.2047 -4.55779,0.23271 -7,0.0312L436.65625,797.5c0,0 -3.52884,1.888 -5.875,3.96875l13.6875,0.15625c-0.0246,-1.66351 -1.375,-4.65625 -1.375,-4.65625 0,0 2.08982,-5.38881 3.78125,-9.8125z" style="fill:#f00;stroke:#000"/>
<path d="M427.125,784.53125 419.375,797c-4.86607,1.02679 -10.22389,2.52465 -9.46875,5.1875 0.84821,2.99107 4.52232,-0.61607 6.21875,-0.75 -0.43112,1.96298 -0.64903,2.8863 1.1875,3.0625 1.23021,0.11803 2.09692,-1.12227 3.84375,-2.09375 1.58703,0.84149 2.62065,3.76059 4.8125,2.09375 0.80595,-1.18185 -0.21875,-6.375 -0.21875,-6.375 0,0 5.86563,-8.24681 8.28125,-11.71875 -2.48841,-0.47052 -4.7881,-1.1176 -6.90625,-1.875z" style="fill:#f00;stroke:#000"/>
</g>
<rect height="30" style="fill:#ff0" width="900" x="-1264.6681" y="164.09419"/>
<rect height="30" style="fill:#ff0" width="900" x="-1263.2539" y="19.991592"/>
</g>
</svg>
