<?xml version="1.0" encoding="UTF-8"?>
<svg xmlns="http://www.w3.org/2000/svg" width="1200px" height="800px">
 <defs>
  <style type="text/css">
   <![CDATA[
    .str0 {stroke:white;stroke-width:0.2}
    .str1 {stroke:#000;stroke-width:1}
    .fil1 {fill:#00579C}
    .fil2 {fill:#00579C}
    .fil0 {fill:white}
    .fil3 {fill:#00579C;fill-rule:nonzero}
   ]]>
  </style>
 </defs>
  <rect class="fil0 str1" width="1200" height="800"/>
  <path class="fil1" d="M452.989 190.296c-1.16339,2.16142 9.14764,9.31417 10.6453,9.64606 10.9772,2.1626 23.4508,-2.49449 32.2654,-5.98701 -12.1406,-6.48661 -25.2803,-11.8087 -42.9106,-3.65906z"/>
  <path class="fil1" d="M421.215 214.592c-0.832677,2.1626 10.4776,7.48465 11.974,7.48465 10.9772,0.499606 22.4539,-6.15354 30.437,-10.9772 -12.9732,-4.32402 -26.6114,-7.48346 -42.411,3.49252z"/>
  <path class="fil1" d="M392.8 243.534c-0.499606,2.32795 11.3091,5.65512 12.972,5.48858 10.6453,-1.49764 20.7909,-9.64724 27.776,-15.8008 -13.3051,-2.1626 -27.1098,-2.82756 -40.748,10.3122z"/>
  <path class="fil1" d="M369.531 277.106c0,2.32795 12.1417,3.49252 13.6382,2.99409 10.3122,-3.16063 18.7949,-12.8067 24.6154,-19.9583 -13.3051,0 -27.1098,1.66299 -38.2535,16.9642z"/>
  <path class="fil1" d="M353.374 311.226c0.333071,2.32795 12.4736,1.49646 13.9713,0.831496 9.47953,-4.82362 16.2992,-15.9673 20.7898,-23.9504 -13.1398,2.49449 -26.2783,6.32008 -34.761,23.1189z"/>
  <path class="fil1" d="M356.289 501.787c-0.664961,2.49567 -14.1366,-0.165354 -15.6343,-1.16339 -9.97913,-6.81969 -15.9661,-20.1248 -19.9583,-29.772 14.4697,4.65709 28.6075,10.8106 35.5925,30.9354z"/>
  <path class="fil1" d="M373.762 536.223c-0.333071,2.66102 -14.3043,2.32913 -15.9673,1.49764 -11.1437,-5.15669 -19.4598,-17.6303 -24.9484,-26.6114 15.3024,2.16142 30.6035,5.98701 40.9157,25.1138z"/>
  <path class="fil1" d="M455.669 620.344c2.66102,-0.166535 3.15945,-14.1378 2.49449,-15.9673 -4.49055,-11.4756 -16.4657,-20.4567 -25.115,-26.6114 1.16457,15.3024 4.15866,30.9354 22.6205,42.5787z"/>
  <path class="fil1" d="M490.943 639.468c2.66102,-0.664961 0.99685,-14.9693 0,-16.6323 -6.32126,-11.1437 -19.7929,-18.4618 -29.6055,-23.2843 3.65906,15.4677 8.9811,30.9354 29.6055,39.9165z"/>
  <path class="fil1" d="M531.318 652.615c2.66102,-0.998031 -1.3311,-15.3012 -2.49449,-16.9642 -8.31614,-10.3122 -23.1189,-15.6343 -33.9295,-19.1268 6.15354,15.3012 13.9701,30.1039 36.424,36.0909z"/>
  <path class="fil1" d="M572.706 660.647c2.16142,2.1626 -8.14961,14.9693 -10.1457,15.9673 -12.8067,6.8185 -30.437,5.65394 -42.9106,4.49055 12.9732,-12.8067 27.7748,-24.4488 53.0563,-20.4579z"/>
  <path class="fil1" d="M712.056 169.68c1.49646,1.82953 -7.65118,10.8106 -9.14764,11.3102 -10.6441,4.15748 -23.9504,1.66299 -33.4299,-0.499606 11.1425,-8.64803 23.4508,-16.1327 42.5776,-10.8106z"/>
  <path class="fil1" d="M747.658 189.478c1.16339,2.1626 -9.14764,9.31417 -10.8118,9.64606 -10.8106,2.1626 -23.2843,-2.32795 -32.0988,-5.98701 12.1406,-6.48661 25.2803,-11.8087 42.9106,-3.65906z"/>
  <path class="fil1" d="M780.08 214.428c0.832677,2.16142 -10.4776,7.48346 -12.1406,7.65 -10.8106,0.333071 -22.2874,-6.15354 -30.2705,-11.1437 12.8067,-4.32402 26.6114,-7.31693 42.411,3.4937z"/>
  <path class="fil1" d="M808.496 243.534c0.499606,2.16142 -11.3091,5.48858 -12.972,5.32205 -10.6453,-1.49646 -20.7909,-9.64724 -27.776,-15.8008 13.3051,-1.99606 27.1098,-2.82756 40.748,10.4787z"/>
  <path class="fil1" d="M830.792 276.289c0,2.32913 -12.1417,3.65906 -13.6382,3.16063 -10.3122,-3.32717 -18.7949,-12.9732 -24.6154,-20.1248 13.3051,0.166535 27.1098,1.66299 38.2535,16.9642z"/>
  <path class="fil1" d="M847.923 312.033c-0.333071,2.32795 -12.4736,1.49646 -13.9713,0.831496 -9.47953,-4.82362 -16.2992,-15.8008 -20.7898,-23.9504 13.1398,2.49449 26.2783,6.32008 34.761,23.1189z"/>
  <path class="fil1" d="M858.426 348.964c-0.831496,2.1626 -12.6402,-0.664961 -13.9701,-1.66299 -8.64921,-6.48661 -13.3063,-18.4618 -16.4657,-27.111 12.6402,4.65709 24.9472,10.6453 30.4358,28.774z"/>
  <path class="fil1" d="M864.887 388.024c-0.998031,2.1626 -12.3071,-2.66102 -13.4717,-3.82559 -7.48465,-7.81654 -10.1457,-20.6232 -11.8087,-29.7709 11.6421,6.65315 22.9524,14.8028 25.2803,33.5965z"/>
  <path class="fil1" d="M775.46 597.047c-2.49449,0.166535 -5.06339,-13.1173 -4.65709,-14.9693 2.58661,-11.7886 12.6402,-22.2862 20.1248,-29.439 0.998031,14.9693 0.499606,30.437 -15.4677,44.4083z"/>
  <path class="fil1" d="M744.575 620.588c-2.66102,-0.166535 -3.14055,-14.2984 -2.49449,-15.9673 4.50827,-11.635 16.4657,-20.6232 25.115,-26.7768 -1.16457,15.4677 -4.15866,31.1008 -22.6205,42.7441z"/>
  <path class="fil1" d="M707.923 640.273c-2.66102,-0.498425 -0.99685,-14.9693 0,-16.6323 6.32126,-10.9772 19.7929,-18.2953 29.6055,-23.2843 -3.65906,15.4677 -9.14764,30.9354 -29.6055,39.9165z"/>
  <path class="fil1" d="M669.006 652.939c-2.66102,-1.16457 1.3311,-15.4677 2.49449,-16.9642 8.31614,-10.3122 23.1189,-15.8008 33.9295,-19.2933 -6.15354,15.3012 -13.9701,30.2705 -36.424,36.2575z"/>
  <path class="fil1" d="M671.85 155.509c0.0177165,0.0507874 0.0200787,0.103937 0.0177165,0.155906 7.9311,1.94055 15.7181,4.25079 23.3433,6.90236 -9.69567,-6.55157 -14.7319,-16.0807 -19.0358,-25.852 9.97913,2.99291 23.9492,7.65 31.7669,16.7976 1.07008,1.3748 4.52362,12.5799 3.14291,15.1654 6.53504,2.76732 12.9248,5.80394 19.1681,9.07913 -6.40039,-7.40551 -9.2374,-16.2909 -11.5004,-25.2425 9.14764,4.49055 21.7878,11.1437 27.9413,21.2894 0.674409,1.35 2.00551,10.3618 1.15157,14.0693 5.54291,3.48898 10.9429,7.17874 16.187,11.0634 -4.32874,-7.85197 -5.51693,-16.4374 -6.19488,-24.9661 8.14961,5.82047 19.4598,14.4697 23.6173,25.2803 0.504331,1.26024 0.338976,9.19724 -0.855118,13.0476 4.81299,4.21654 9.46181,8.60787 13.9417,13.1634 -2.75197,-8.22992 -2.53465,-16.6358 -1.77638,-24.8799 7.15157,7.15157 16.6323,17.2972 18.9602,28.7728 0.242126,1.20709 -1.0937,8.2748 -2.79803,12.0035 4.08071,4.90394 7.97598,9.95906 11.6787,15.1547 -1.31339,-8.50039 0.341339,-16.689 2.42953,-24.6638 5.65394,7.98425 13.3051,19.6264 13.8047,31.2685 0,1.18465 -2.44843,7.68071 -4.69843,11.0835 3.31417,5.57598 6.41575,11.2831 9.29646,17.1142 -0.011811,-8.86535 3.0378,-16.8437 6.54449,-24.5386 4.15866,8.9811 9.81378,21.6213 8.31614,33.098 -0.238583,1.19055 -3.71457,7.23425 -6.52441,10.2106 2.47087,6.24449 4.69488,12.6083 6.6626,19.0748 1.28386,-9.28228 5.79213,-16.976 10.6724,-24.2965 2.66102,9.64724 6.15472,23.1189 2.66102,34.0961 -0.36378,1.21535 -5.08346,6.78189 -8.37638,9.17244 1.50472,6.86457 2.72244,13.8272 3.64134,20.8783 2.65394,-9.76654 8.76024,-17.061 15.2138,-23.7307 0.998031,9.8126 2.1626,23.7839 -3.16063,34.0961 -0.634252,1.27087 -6.70984,6.42283 -10.3547,7.9689 0.248031,4.52126 0.375591,9.07441 0.375591,13.6524 0,3.04488 -0.0732283,6.0874 -0.191339,9.12638 4.11496,-10.4185 11.9728,-17.1591 20.1496,-23.2642 -0.664961,10.1457 -1.99488,24.1169 -8.9811,33.5976 -0.810236,1.08071 -8.64449,5.67165 -12.3602,6.28819 -0.892913,8.45079 -2.23228,16.8437 -3.96378,25.1563 5.65984,-11.6976 15.5055,-17.7295 25.6382,-22.7965 -2.32795,9.8126 -5.98701,23.7839 -14.6362,31.9335 -1.16929,1.16929 -11.0776,4.90748 -14.1354,4.21417 -2.36929,8.99646 -5.22047,17.863 -8.50512,26.5665 7.74921,-12.5409 19.3264,-17.3067 31.1232,-20.9681 -3.99213,9.48071 -9.97913,22.7858 -19.9583,29.6055 -1.36535,0.909449 -12.6839,3.20079 -15.3024,1.70669 -3.72283,8.78031 -7.90394,17.3622 -12.4972,25.7067 9.93307,-11.7673 22.6098,-14.8122 35.2843,-16.6028 -5.48858,8.9811 -13.8047,21.4547 -24.9484,26.6114 -1.5,0.75 -13.0134,1.09252 -15.6224,-0.799606 -4.66299,7.76929 -9.69803,15.3012 -15.0709,22.5602 11.5772,-9.32126 24.5386,-10.2508 37.1799,-10.1185 -7.15157,8.31614 -17.4638,19.4598 -29.6055,22.9524 -1.70315,0.426378 -12.2563,-0.84685 -15.2031,-2.98701 -5.12008,6.31417 -10.5071,12.3862 -16.135,18.1913 12.3035,-6.02244 24.5846,-4.83898 36.4949,-2.73071 -8.48268,7.15157 -20.7909,16.7988 -33.5976,18.2953 -1.56142,0.261024 -10.5579,-2.22992 -14.0787,-4.68071 -5.46732,5.02087 -11.1307,9.79724 -16.9724,14.3043 12.5421,-3.02717 23.9965,-0.0377953 35.0433,3.68268 -9.8126,5.98701 -23.7839,13.8035 -37.089,13.3051 -1.45039,0 -9.04961,-3.4252 -12.776,-6.38268 -5.89724,3.90118 -11.9492,7.53543 -18.1382,10.885 12.5043,-0.660236 23.2559,3.94724 33.4087,9.30236 -10.8106,4.49055 -26.2783,10.3122 -39.7512,7.81654 -1.41614,-0.354331 -8.36693,-4.81654 -11.7437,-8.32795 -6.83504,2.95512 -13.8106,5.56535 -20.9091,7.80472 13.4079,0.96378 23.9315,7.53425 33.8173,14.661 -11.8087,2.99409 -28.4409,6.48661 -41.7461,1.82953 -1.5626,-0.520866 -9.14764,-7.26732 -11.4827,-11.3657 -10.5484,2.24764 -21.3189,3.67913 -32.2594,4.21417 0,0 -2.40354,0.177165 -6.40039,0.75 23.3055,-2.40709 37.2437,8.62323 49.8094,20.8713 -12.4736,1.16457 -30.1039,2.49449 -42.9106,-4.32402 -1.96535,-1.14685 -12.1606,-13.5886 -10.2425,-16.0287 -5.13425,0.850394 -11.889,2.22402 -19.2638,4.39016 15.1724,6.05315 32.3244,15.9 47.9681,31.9287l-15.6343 -0.99685c-9.5563,-14.1189 -25.513,-22.8791 -40.4846,-28.2709 -14.9492,5.39173 -30.8622,14.152 -40.3465,28.2709l-15.6343 0.99685c15.5693,-16.0169 32.6906,-25.8614 47.8606,-31.9157 -15.9839,-4.69724 -29.0669,-5.67165 -29.0669,-5.67165 -11.178,-0.548031 -22.1823,-2.03268 -32.9528,-4.37008 -2.15079,4.02283 -10.024,11.1555 -11.6209,11.6882 -13.3051,4.65709 -29.9374,0.998031 -41.7461,-1.82953 10.1587,-7.44213 20.987,-14.1283 34.9311,-14.7567 -7.35472,-2.31496 -14.5783,-5.02795 -21.652,-8.11181 -3.20787,3.55276 -10.6441,8.31969 -12.1146,8.56417 -13.4728,2.66102 -28.9406,-3.15945 -39.7512,-7.65 10.5142,-5.54646 21.5906,-10.3689 34.6772,-9.28465 -6.48189,-3.49724 -12.8161,-7.30748 -18.9791,-11.4106 -3.42165,2.97638 -11.6835,6.76417 -13.2035,6.89055 -13.3051,0.498425 -27.2764,-7.48465 -37.089,-13.3063 11.5831,-4.02283 23.6138,-7.06299 36.8102,-3.22441 -6.27165,-4.80354 -12.3425,-9.91299 -18.1866,-15.3047 -2.99291,2.49803 -12.9697,5.36339 -14.6315,5.22402 -12.8067,-1.49646 -25.115,-11.1437 -33.5976,-18.2953 12.7098,-2.25 25.7362,-3.44764 38.9102,4.04173 -6.29055,-6.39213 -12.2858,-13.1161 -17.9504,-20.1354 -1.57913,2.38465 -14.1,4.07244 -15.8031,3.45354 -12.1417,-3.32598 -22.4539,-14.6362 -29.6055,-22.7858 13.8709,-0.146457 27.9969,0.862205 40.4669,13.0358 -22.2035,-29.1839 -38.8866,-63 -48.1063,-98.7354 0.0543307,0.28937 0.105118,0.581102 0.154724,0.876378 -1.16339,2.1626 -13.6382,-2.49449 -14.9681,-3.65906 -8.64921,-8.31614 -12.3083,-22.1209 -14.6362,-32.1 11.7413,6.01772 23.0953,13.2024 28.0016,28.9807 -2.40591,-10.298 -4.20472,-20.7378 -5.32087,-31.2614 -2.75787,0.61063 -12.4594,-5.00669 -13.3665,-6.36732 -6.98622,-9.31417 -8.31614,-23.452 -8.9811,-33.4311 9.08268,6.65197 17.772,14.1898 21.3,26.7 -0.227953,-4.23425 -0.343701,-8.47913 -0.343701,-12.7287 0,-4.4126 0.11811,-8.80157 0.349606,-13.161 -3.40866,-0.897638 -10.6311,-7.04173 -11.3268,-8.29488 -5.32323,-10.311 -4.3252,-24.2823 -3.16063,-34.2614 7.04173,7.3937 13.6701,15.45 15.8516,26.6232 0.924803,-7.81772 2.21693,-15.5291 3.85984,-23.1224 -3.25748,-1.8248 -8.83583,-8.32913 -9.23268,-9.65433 -3.4937,-11.1437 -0.166535,-24.6154 2.66102,-34.0961 5.29016,7.93583 10.1421,16.3087 10.9264,26.622 2.06102,-7.04055 4.42559,-13.9583 7.08071,-20.7402 -2.89488,-2.62087 -6.93898,-9.58346 -7.19646,-10.8709 -1.49764,-11.4768 3.99094,-24.1169 8.31614,-33.098 3.76654,8.26535 7.00512,16.8567 6.49016,26.5252 3.02008,-6.2622 6.29291,-12.3862 9.80906,-18.3591 -2.40472,-3.09331 -5.15669,-10.5862 -5.15669,-11.9917 0.333071,-11.4756 8.15079,-23.1189 13.8047,-31.102 2.23819,8.44134 3.97795,17.1933 2.10236,26.3717 3.9,-5.57835 8.01969,-10.9984 12.3508,-16.2461 -1.86378,-3.3874 -3.40039,-11.3705 -3.14291,-12.7866 2.32795,-11.3102 11.8087,-21.6213 18.9602,-28.6075 0.706299,8.77913 0.923622,17.6787 -2.39528,26.3681 4.72441,-4.89094 9.64134,-9.59764 14.7449,-14.1083 -1.36654,-3.58465 -1.60276,-12.2669 -1.20591,-13.5898 4.32402,-10.9772 15.6343,-19.4598 23.7839,-25.2803 -0.70748,8.89252 -1.96654,17.8465 -6.76299,25.9665 5.46024,-4.11024 11.0917,-8.01024 16.8839,-11.6858 -1.15157,-3.25748 0.174803,-13.1752 1.02283,-14.4472 5.98701,-10.1457 18.7937,-16.7988 27.9413,-21.2894 -2.34803,9.17835 -5.31024,18.4228 -12.2291,25.9795 6.54803,-3.49843 13.2638,-6.72874 20.1378,-9.66614 -1.97126,-1.76811 1.77874,-14.0315 2.90197,-15.3154 7.81772,-9.31417 21.7878,-13.8047 31.6016,-16.7988 -4.3122,9.94252 -9.48898,19.7988 -19.7516,26.3386 7.87677,-2.80866 15.9283,-5.24409 24.1382,-7.28858 -0.0814961,-0.141732 -0.106299,-0.282283 -0.0625984,-0.421654 18.7937,-12.8067 36.9224,-12.8067 54.3862,-11.3102 -9.64606,5.82165 -23.2843,13.9713 -37.5886,15.8008 -1.95,0.15 -14.5831,-1.8626 -16.5579,-3.84567 -92.8949,26.6528 -164.948,101.011 -185.043,192.804 5.6315,-17.2098 17.7177,-23.2205 30.1252,-27.6283 -3.15945,8.64921 -7.98307,20.6244 -16.4657,27.111 -1.30157,0.975591 -12.6307,3.70157 -13.898,1.63819 -2.34094,10.9394 -3.94961,22.1197 -4.76693,33.4984 3.45709,-15.5693 13.6925,-22.9028 24.4866,-28.9831 -1.66299,9.14764 -4.32402,21.7878 -11.8087,29.7709 -1.06299,1.06299 -10.5815,5.17323 -12.9886,4.23543 -0.210236,4.10787 -0.316535,8.24291 -0.316535,12.3969 0,5.60315 0.211417,11.2016 0.617717,16.7846 2.07283,-13.4846 10.3087,-21.5799 19.0075,-28.7598 0,9.31417 -0.498425,22.4528 -6.65315,31.6004 -0.838583,1.11969 -8.27126,6.00591 -11.5004,6.43819 0.93189,8.39055 2.31378,16.7315 4.09724,24.9957 0.948425,-11.9126 7.26378,-20.4744 14.0563,-28.2732 1.49646,9.31417 3.16063,22.6193 -1.32992,32.5984 -0.520866,1.17165 -6.34016,6.62244 -9.72165,8.1378 1.97598,7.3689 4.28386,14.6539 6.89055,21.835 -0.218504,-10.9724 4.38543,-19.8862 9.64961,-28.3098 2.99409,9.14764 6.81969,22.1209 3.99213,33.098 -0.374409,1.24843 -4.8685,7.17638 -8.00197,9.49843 2.90315,6.79016 6.08031,13.4657 9.51378,20.002 -1.79882,-10.7398 1.35236,-20.3185 5.14016,-29.5004 4.49055,8.81457 10.6453,21.1228 9.48071,32.5984 -0.127559,1.39961 -3.85276,8.34449 -6.64134,11.0858 4.02874,6.70748 8.33504,13.2354 12.8917,19.565 -4.19409,-11.0469 -2.49094,-21.685 -0.0968504,-31.9807 5.98819,8.14961 14.1378,19.6252 14.9693,31.4339 0,1.50118 -3.02008,10.1598 -5.48268,12.8587 6.19961,7.68307 12.789,15.0071 19.7209,21.9213 -9.53031,-12.0555 -9.72402,-24.9472 -8.74961,-37.6075 7.48465,7.31811 17.6303,17.7969 20.1248,29.6055 0.470079,1.56969 -1.87087,13.65 -4.23307,14.8677 37.3972,34.6358 83.8075,57.5055 133.283,60.5197 -14.1083,-5.64449 -21.8646,-16.6642 -28.4256,-27.9862 11.4756,1.99606 27.6083,5.32205 37.422,14.4697 1.16339,1.16457 5.14252,9.87047 5.6811,14.3894 6.33543,0.732283 15.9685,2.38465 27.215,6.1063 10.6441,-3.5185 19.852,-5.18858 26.1945,-5.97874 0.387402,-4.40197 4.58976,-13.4646 5.77323,-14.5169 9.81378,-9.31417 25.9465,-12.6402 37.422,-14.6362 -6.78661,11.6173 -14.6008,22.7197 -29.0646,28.2472 23.3988,-1.21654 46.1232,-6.88228 67.5484,-16.1445 0.0177165,-0.105118 0.0519685,-0.20315 0.102756,-0.294094 2.13189,-1.01693 4.21181,-1.86969 6.24685,-2.57717 33.3378,-15.7063 63.3,-40.1244 87.4346,-69.9331 -2.53701,-1.96654 -6.03071,-11.863 -6.03071,-13.4764 0.664961,-11.6433 8.81457,-23.2854 14.9693,-31.435 2.64567,11.374 4.34173,23.1685 -1.68189,35.5524 5.37283,-7.2378 10.4126,-14.752 15.085,-22.5035 -2.81811,-2.30079 -7.1126,-10.1846 -7.24961,-11.5524 -1.16457,-11.4756 4.99016,-23.9492 9.48071,-32.765 4.11732,9.98268 7.48583,20.4331 4.55669,32.4059 3.93543,-7.30748 7.55551,-14.7898 10.826,-22.422 -3.11102,-1.82126 -8.32559,-8.63504 -8.73071,-9.98386 -2.82756,-10.9772 0.998031,-23.9492 3.99213,-33.0969 5.73307,9.17126 10.6831,18.9283 9.47362,31.2886 3.00472,-8.0126 5.63386,-16.1622 7.85079,-24.4146 -3.16772,-0.94252 -9.94134,-7.12795 -10.5059,-8.53819 -4.49055,-9.97913 -2.82638,-23.2843 -1.49646,-32.5984 7.54843,8.50866 14.4142,17.922 14.3433,31.6996 2.15079,-9.3874 3.77953,-18.8835 4.83071,-28.4409 -2.47323,0.638976 -11.4283,-5.18268 -12.3543,-6.41811 -6.15472,-9.14764 -6.65315,-22.2874 -6.81969,-31.6016 9.81969,7.97835 18.9295,17.087 19.6311,33.4665 0.648425,-7.0878 0.993307,-14.2016 0.993307,-21.3248 0,-60.5469 -22.3606,-116.474 -59.5783,-160.466 -0.962598,-1.02874 -1.84843,-2.0622 -2.66575,-3.10276 -7.98661,-9.14764 -16.6228,-17.7567 -25.8437,-25.761 -1.41024,-1.07717 -2.70354,-2.18268 -3.88819,-3.31535 -9.12638,-7.62283 -18.7937,-14.661 -28.9382,-21.0555 -1.77283,-0.948425 -3.40512,-1.95591 -4.90866,-3.02008 -20.2465,-12.163 -42.2929,-21.7961 -65.6587,-28.4079 -1.05591,1.92283 -14.7071,4.12087 -16.585,3.96378 -14.3043,-1.82953 -27.9425,-9.97913 -37.5886,-15.7996 17.4638,-1.3311 35.5925,-1.3311 54.2197,11.4756z"/>
  <path class="fil1" d="M489.563 169.678c-1.49646,1.99606 7.65118,10.8106 9.14764,11.4756 10.6441,3.99213 23.9504,1.49764 33.4299,-0.498425 -11.1425,-8.64803 -23.4508,-16.1327 -42.5776,-10.9772z"/>
  <g id="_40991720">
   <circle id="_42145744" class="fil2" cx="600" cy="400" r="53.7"/>
   <g>
    <path id="_40209456" class="fil3 str0" d="M560.362 213.519l0.00826772 -0.0011811 0.0023622 0.011811c15.3921,-3.26339 33.4961,15.2256 50.3173,47.7508 16.2815,31.4823 31.7681,76.415 42.5953,127.326l0.0106299 -0.0023622 0.0141732 0.0625984 0.00590551 0.0318898 -0.011811 0.0023622c10.8236,50.9315 14.9539,98.2937 12.8835,133.685 -2.13898,36.548 -11.1567,60.7961 -26.5429,64.0772l0.0023622 0.011811 -0.00944882 0.0023622 -0.00826772 0.0011811 -0.0023622 -0.011811c-15.3921,3.26339 -33.4961,-15.2256 -50.3173,-47.7508 -16.2815,-31.4823 -31.7681,-76.415 -42.5953,-127.326l-0.0106299 0.0023622 -0.0141732 -0.0625984 -0.00590551 -0.0318898 0.011811 -0.0023622c-10.8236,-50.9315 -14.9539,-98.2937 -12.8835,-133.685 2.13898,-36.548 11.1567,-60.7961 26.5429,-64.0772l-0.0023622 -0.011811 0.00944882 -0.0023622zm1.25315 5.85591l0.0023622 0.011811 -0.00708661 0.0011811 -0.0106299 0.0023622 -0.0023622 -0.011811c-12.4146,2.64921 -19.8449,24.8386 -21.8185,58.5697 -2.04213,34.9028 2.04921,81.7004 12.7618,132.105l0.011811 -0.0023622 0.00590551 0.0318898 0.0141732 0.0625984 -0.011811 0.0023622c10.7138,50.3858 26.0055,94.7858 42.0626,125.833 15.5244,30.0189 31.3417,47.2736 43.761,44.6409l-0.0023622 -0.011811 0.00708661 -0.0011811 0.0106299 -0.0023622 0.0023622 0.011811c12.4146,-2.64921 19.8449,-24.8386 21.8185,-58.5697 2.04213,-34.9028 -2.04921,-81.7004 -12.7618,-132.105l-0.011811 0.0023622 -0.00590551 -0.0318898 -0.0141732 -0.0625984 0.011811 -0.0023622c-10.7138,-50.3858 -26.0055,-94.7858 -42.0626,-125.833 -15.5244,-30.0189 -31.3417,-47.2736 -43.761,-44.6409z"/>
    <path id="_42691248" class="fil3 str0" d="M580.072 210.397l0.00826772 0 0.0011811 0.0106299c15.6484,-1.63583 31.7209,18.6449 45.0496,52.7492 12.9012,33.0118 23.6067,79.3181 29.0528,131.082l0.011811 -0.0011811 0.00590551 0.0637795 0.00354331 0.0307087 -0.011811 0.0023622c5.44016,51.7831 4.59685,99.3177 -1.1622,134.3 -5.94685,36.124 -17.4496,59.2972 -33.0945,60.952l0.0011811 0.011811 -0.0106299 0.0011811 -0.00826772 0 -0.0011811 -0.0106299c-15.6484,1.63583 -31.7209,-18.6449 -45.0496,-52.7492 -12.9012,-33.0118 -23.6067,-79.3181 -29.0528,-131.082l-0.011811 0.0011811 -0.00590551 -0.0637795 -0.00354331 -0.0307087 0.011811 -0.0023622c-5.44016,-51.7831 -4.59685,-99.3177 1.1622,-134.3 5.94685,-36.124 17.4496,-59.2972 33.0945,-60.952l-0.0011811 -0.011811 0.0106299 -0.0011811zm0.634252 5.95512l0.0011811 0.011811 -0.00826772 0 -0.0106299 0.0011811 -0.0011811 -0.011811c-12.6236,1.33701 -22.3323,22.6287 -27.8209,55.9677 -5.67874,34.4988 -6.50197,81.4665 -1.11732,132.717l0.011811 -0.0011811 0.00354331 0.0307087 0.00708661 0.0637795 -0.011811 0.0011811c5.38819,51.2303 15.9555,96.9862 28.6783,129.542 12.3024,31.4764 26.2299,50.2902 38.8547,48.9697l-0.0011811 -0.011811 0.00826772 0 0.0106299 -0.0011811 0.0011811 0.011811c12.6236,-1.33701 22.3323,-22.6287 27.8209,-55.9677 5.67874,-34.4988 6.50197,-81.4665 1.11732,-132.717l-0.011811 0.0011811 -0.00354331 -0.0307087 -0.00708661 -0.0637795 0.011811 -0.0011811c-5.38819,-51.2303 -15.9555,-96.9862 -28.6783,-129.542 -12.3024,-31.4764 -26.2299,-50.2902 -38.8547,-48.9697z"/>
    <path id="_41296512" class="fil3 str0" d="M600 209.353l0.00826772 0 0 0.011811c15.7335,0.00826772 29.5984,21.8575 39.2894,57.1689 9.38031,34.1799 15.1866,81.3508 15.1913,133.401l0.011811 0 0 0.0637795 0 0.0318898 -0.011811 0c-0.0023622,52.0689 -5.80984,99.2551 -15.1937,133.443 -9.69094,35.3043 -23.5524,57.1476 -39.2846,57.1583l0 0.011811 -0.0106299 0 -0.00826772 0 0 -0.011811c-15.7335,-0.00826772 -29.5984,-21.8575 -39.2894,-57.1689 -9.38031,-34.1799 -15.1866,-81.3508 -15.1913,-133.401l-0.011811 0 0 -0.0637795 0 -0.0318898 0.011811 0c0.0023622,-52.0689 5.80984,-99.2551 15.1937,-133.443 9.69094,-35.3043 23.5524,-57.1476 39.2846,-57.1583l0 -0.011811 0.0106299 0zm0.00826772 5.98819l0 0.011811 -0.00826772 0 -0.0106299 0 0 -0.011811c-12.6933,0.00944882 -24.5752,20.1697 -33.5185,52.7528 -9.25394,33.7157 -14.9823,80.3409 -14.9835,131.872l0.011811 0 0 0.0318898 0 0.0637795 -0.011811 0c0.00354331,51.5126 5.73071,98.1224 14.9811,131.83 8.94449,32.5902 20.8287,52.7563 33.5232,52.7634l0 -0.011811 0.00826772 0 0.0106299 0 0 0.011811c12.6933,-0.00944882 24.5752,-20.1697 33.5185,-52.7528 9.25394,-33.7157 14.9823,-80.3409 14.9835,-131.872l-0.011811 0 0 -0.0318898 0 -0.0637795 0.011811 0c-0.00354331,-51.5126 -5.73071,-98.1224 -14.9811,-131.83 -8.94449,-32.5902 -20.8287,-52.7563 -33.5232,-52.7634z"/>
    <path id="_84631232" class="fil3 str0" d="M619.928 210.397l0.00826772 0.0011811 -0.0011811 0.011811c15.6461,1.65236 27.1512,24.8315 33.098,60.9626 5.75669,34.9736 6.6,82.4929 1.16457,134.258l0.011811 0.0011811 -0.00708661 0.0625984 -0.00354331 0.0318898 -0.011811 -0.0011811c-5.44488,51.7831 -16.1528,98.1047 -29.0587,131.125 -13.3276,34.0972 -29.3965,54.372 -45.0437,52.7386l-0.0011811 0.011811 -0.0106299 -0.0011811 -0.00826772 -0.0011811 0.0011811 -0.011811c-15.6461,-1.65236 -27.1512,-24.8315 -33.098,-60.9626 -5.75669,-34.9736 -6.6,-82.4929 -1.16457,-134.258l-0.011811 -0.0011811 0.00708661 -0.0625984 0.00354331 -0.0318898 0.011811 0.0011811c5.44488,-51.7831 16.1528,-98.1047 29.0587,-131.125 13.3276,-34.0972 29.3965,-54.372 45.0437,-52.7386l0.0011811 -0.011811 0.0106299 0.0011811zm-0.617717 5.9563l-0.0011811 0.011811 -0.00826772 -0.0011811 -0.0106299 -0.0011811 0.0011811 -0.0106299c-12.6248,-1.31811 -26.5488,17.4898 -38.8488,48.9591 -12.7276,32.5642 -23.2984,78.3354 -28.6854,129.585l0.011811 0.0011811 -0.00354331 0.0318898 -0.00708661 0.0625984 -0.011811 -0.0011811c-5.3811,51.2315 -4.55669,98.1839 1.11969,132.674 5.48858,33.3461 15.1996,54.6437 27.8244,55.9783l0.0011811 -0.011811 0.00826772 0.0011811 0.0106299 0.0011811 -0.0011811 0.0106299c12.6248,1.31811 26.5488,-17.4898 38.8488,-48.9591 12.7276,-32.5642 23.2984,-78.3354 28.6854,-129.585l-0.011811 -0.0011811 0.00354331 -0.0318898 0.00708661 -0.0625984 0.011811 0.0011811c5.3811,-51.2315 4.55669,-98.1839 -1.11969,-132.674 -5.48858,-33.3461 -15.1996,-54.6437 -27.8244,-55.9783z"/>
    <path id="_85211464" class="fil3 str0" d="M639.638 213.519l0.00708661 0.0023622 -0.0023622 0.0106299c15.3886,3.27992 24.4075,27.5339 26.5453,64.089 2.06929,35.3835 -2.05866,82.7303 -12.8764,133.644l0.011811 0.0023622 -0.0129921 0.0625984 -0.00708661 0.0307087 -0.011811 -0.0023622c-10.8272,50.9303 -26.3185,95.8783 -42.6059,127.369 -16.8189,32.5181 -34.9193,51.0012 -50.3102,47.7413l-0.0023622 0.011811 -0.0106299 -0.0023622 -0.00708661 -0.0023622 0.0023622 -0.0106299c-15.3886,-3.27992 -24.4075,-27.5339 -26.5453,-64.089 -2.06929,-35.3835 2.05866,-82.7303 12.8764,-133.644l-0.011811 -0.0023622 0.0129921 -0.0625984 0.00708661 -0.0307087 0.011811 0.0023622c10.8272,-50.9303 26.3185,-95.8783 42.6059,-127.369 16.8189,-32.5181 34.9193,-51.0012 50.3102,-47.7413l0.0023622 -0.011811 0.0106299 0.0023622zm-1.2378 5.85945l-0.0023622 0.011811 -0.00826772 -0.0023622 -0.00944882 -0.0023622 0.0023622 -0.0106299c-12.4181,-2.63031 -28.2319,14.6185 -43.7539,44.6303 -16.0618,31.0547 -31.3594,75.4701 -42.0744,125.876l0.011811 0.0023622 -0.00708661 0.0307087 -0.0129921 0.0625984 -0.011811 -0.0023622c-10.7067,50.3882 -14.7945,97.1693 -12.7547,132.064 1.97244,33.7382 9.40512,55.9346 21.8209,58.5803l0.0023622 -0.011811 0.00826772 0.0023622 0.00944882 0.0023622 -0.0023622 0.0106299c12.4181,2.63031 28.2319,-14.6185 43.7539,-44.6303 16.0618,-31.0547 31.3594,-75.4701 42.0744,-125.876l-0.011811 -0.0023622 0.00708661 -0.0307087 0.0129921 -0.0625984 0.011811 0.0023622c10.7067,-50.3882 14.7945,-97.1693 12.7547,-132.064 -1.97244,-33.7382 -9.40512,-55.9346 -21.8209,-58.5803z"/>
   </g>
   <g>
    <path id="_84437800" class="fil3 str0" d="M418.685 341.086l0.0023622 -0.00826772 0.011811 0.00354331c4.86969,-14.961 29.9339,-21.3957 66.5114,-19.6996 35.4059,1.64055 82.0618,10.6949 131.567,26.7744l0.00354331 -0.0106299 0.0602362 0.0188976 0.0307087 0.0106299 -0.00354331 0.0106299c49.5201,16.0925 92.602,36.1972 122.217,55.6866 30.5811,20.126 47.0728,40.0594 42.2209,55.0252l0.011811 0.00354331 -0.00354331 0.00944882 -0.0023622 0.00826772 -0.011811 -0.00354331c-4.86969,14.961 -29.9339,21.3957 -66.5114,19.6996 -35.4059,-1.64055 -82.0618,-10.6949 -131.567,-26.7744l-0.00354331 0.0106299 -0.0602362 -0.0188976 -0.0307087 -0.0106299 0.00354331 -0.0106299c-49.5201,-16.0925 -92.602,-36.1972 -122.217,-55.6866 -30.5811,-20.126 -47.0728,-40.0594 -42.2209,-55.0252l-0.011811 -0.00354331 0.00354331 -0.00944882zm5.69764 1.84252l0.011811 0.00354331 -0.00354331 0.00708661 -0.0023622 0.0106299 -0.011811 -0.00354331c-3.91299,12.0744 11.589,29.6055 39.8138,48.1795 29.2051,19.2201 71.778,39.0756 120.788,55.0004l0.00354331 -0.0106299 0.0307087 0.00944882 0.0602362 0.0200787 -0.00354331 0.0106299c48.9921,15.9154 95.0906,24.8717 130.006,26.4898 33.7594,1.56496 56.6114,-3.50669 60.5409,-15.5776l-0.011811 -0.00354331 0.00354331 -0.00708661 0.0023622 -0.0106299 0.011811 0.00354331c3.91299,-12.0744 -11.589,-29.6055 -39.8138,-48.1795 -29.2051,-19.2201 -71.778,-39.0756 -120.788,-55.0004l-0.00354331 0.0106299 -0.0307087 -0.00944882 -0.0602362 -0.0200787 0.00354331 -0.0106299c-48.9921,-15.9154 -95.0906,-24.8717 -130.006,-26.4898 -33.7594,-1.56496 -56.6114,3.50669 -60.5409,15.5776z"/>
    <path id="_42691272" class="fil3 str0" d="M425.837 322.455l0.00354331 -0.00708661 0.0106299 0.00472441c6.4063,-14.3693 32.0067,-18.1488 68.2063,-12.6402 35.0409,5.33268 80.4945,19.2154 128.047,40.3819l0.00472441 -0.011811 0.057874 0.0259843 0.0295276 0.0129921 -0.00472441 0.0106299c47.5665,21.1807 88.311,45.6791 115.727,68.1567 28.3098,23.2134 42.6272,44.7602 36.2386,59.1366l0.0106299 0.00472441 -0.00472441 0.0106299 -0.00354331 0.00708661 -0.0106299 -0.00472441c-6.4063,14.3693 -32.0067,18.1488 -68.2063,12.6402 -35.0409,-5.33268 -80.4945,-19.2154 -128.047,-40.3819l-0.00472441 0.011811 -0.057874 -0.0259843 -0.0295276 -0.0129921 0.00472441 -0.0106299c-47.5665,-21.1807 -88.311,-45.6791 -115.727,-68.1567 -28.3098,-23.2134 -42.6272,-44.7602 -36.2386,-59.1366l-0.0106299 -0.00472441 0.00472441 -0.0106299zm5.47323 2.42835l0.011811 0.00472441 -0.00354331 0.00826772 -0.00472441 0.00944882 -0.0106299 -0.00472441c-5.15433,11.5996 8.43071,30.6543 34.5591,52.0772 27.0366,22.1669 67.3004,46.3642 114.377,67.3252l0.00472441 -0.0106299 0.0295276 0.0129921 0.057874 0.0259843 -0.00472441 0.0106299c47.061,20.9492 91.9701,34.6748 126.526,39.9343 33.411,5.08465 56.6681,2.42953 61.8378,-9.16417l-0.011811 -0.00472441 0.00354331 -0.00826772 0.00472441 -0.00944882 0.0106299 0.00472441c5.15433,-11.5996 -8.43071,-30.6543 -34.5591,-52.0772 -27.0366,-22.1669 -67.3004,-46.3642 -114.377,-67.3252l-0.00472441 0.0106299 -0.0295276 -0.0129921 -0.057874 -0.0259843 0.00472441 -0.0106299c-47.061,-20.9492 -91.9701,-34.6748 -126.526,-39.9343 -33.411,-5.08465 -56.6681,-2.42953 -61.8378,9.16417z"/>
    <path id="_41748720" class="fil3 str0" d="M434.896 304.675l0.00472441 -0.00708661 0.00944882 0.00590551c7.87441,-13.6205 33.7287,-14.7035 69.1547,-5.44016 34.2909,8.96575 78.0449,27.5232 123.124,53.5441l0.00590551 -0.0106299 0.0555118 0.0318898 0.0271654 0.0165354 -0.00590551 0.00944882c45.0921,26.0374 83.0528,54.6591 107.969,79.8803 25.7291,26.0445 37.715,48.9709 29.8583,62.6008l0.00944882 0.00590551 -0.00472441 0.00944882 -0.00472441 0.00708661 -0.00944882 -0.00590551c-7.87441,13.6205 -33.7287,14.7035 -69.1547,5.44016 -34.2909,-8.96575 -78.0449,-27.5232 -123.124,-53.5441l-0.00590551 0.0106299 -0.0555118 -0.0318898 -0.0271654 -0.0165354 0.00590551 -0.00944882c-45.0921,-26.0374 -83.0528,-54.6591 -107.969,-79.8803 -25.7291,-26.0445 -37.715,-48.9709 -29.8583,-62.6008l-0.00944882 -0.00590551 0.00472441 -0.00944882zm5.18976 2.98701l0.0106299 0.00590551 -0.00354331 0.00708661 -0.00590551 0.00944882 -0.0106299 -0.00590551c-6.3378,10.9972 5.18031,31.3677 28.9264,55.4043 24.5717,24.8728 62.0858,53.1461 106.714,78.913l0.00590551 -0.0106299 0.0271654 0.0153543 0.0555118 0.0318898 -0.00590551 0.0106299c44.6126,25.7539 87.8421,44.0988 121.658,52.9406 32.6965,8.55 56.1024,8.34094 62.4567,-2.64921l-0.0106299 -0.00590551 0.00354331 -0.00708661 0.00590551 -0.00944882 0.0106299 0.00590551c6.3378,-10.9972 -5.18031,-31.3677 -28.9264,-55.4043 -24.5717,-24.8728 -62.0858,-53.1461 -106.714,-78.913l-0.00590551 0.0106299 -0.0271654 -0.0153543 -0.0555118 -0.0318898 0.00590551 -0.0106299c-44.6126,-25.7539 -87.8421,-44.0988 -121.658,-52.9406 -32.6965,-8.55 -56.1024,-8.34094 -62.4567,2.64921z"/>
    <path id="_85244008" class="fil3 str0" d="M445.765 287.94l0.00472441 -0.00708661 0.00944882 0.00708661c9.25512,-12.724 35.0811,-11.0976 69.3449,1.81772 33.1654,12.5008 74.7402,35.5299 116.852,66.1205l0.00708661 -0.00944882 0.0519685 0.0377953 0.0259843 0.0188976 -0.00708661 0.00944882c42.1228,30.6071 76.8839,63.0402 99.0272,90.7276 22.865,28.5921 32.3894,52.6453 23.1508,65.3787l0.00944882 0.00708661 -0.00590551 0.00826772 -0.00472441 0.00708661 -0.00944882 -0.00708661c-9.25512,12.724 -35.0811,11.0976 -69.3449,-1.81772 -33.1654,-12.5008 -74.7402,-35.5299 -116.852,-66.1205l-0.00708661 0.00944882 -0.0519685 -0.0377953 -0.0259843 -0.0188976 0.00708661 -0.00944882c-42.1228,-30.6071 -76.8839,-63.0402 -99.0272,-90.7276 -22.865,-28.5921 -32.3894,-52.6453 -23.1508,-65.3787l-0.00944882 -0.00708661 0.00590551 -0.00826772zm4.84961 3.5126l0.00944882 0.00708661 -0.00472441 0.00708661 -0.00590551 0.00826772 -0.00944882 -0.00708661c-7.45394,10.2744 1.87205,31.7374 22.976,58.1244 21.8374,27.3047 56.1909,59.3445 97.8791,89.635l0.00708661 -0.00944882 0.0259843 0.0177165 0.0519685 0.0377953 -0.00708661 0.00944882c41.6764,30.2764 82.7516,53.0386 115.459,65.3681 31.6228,11.9197 54.9236,14.1591 62.3906,3.89291l-0.00944882 -0.00708661 0.00472441 -0.00708661 0.00590551 -0.00826772 0.00944882 0.00708661c7.45394,-10.2744 -1.87205,-31.7374 -22.976,-58.1244 -21.8374,-27.3047 -56.1909,-59.3445 -97.8791,-89.635l-0.00708661 0.00944882 -0.0259843 -0.0177165 -0.0519685 -0.0377953 0.00708661 -0.00944882c-41.6764,-30.2764 -82.7516,-53.0386 -115.459,-65.3681 -31.6228,-11.9197 -54.9236,-14.1591 -62.3906,-3.89291z"/>
    <path id="_43503040" class="fil3 str0" d="M458.323 272.432l0.00472441 -0.00708661 0.00944882 0.00826772c10.5343,-11.687 36.0484,-7.37008 68.7744,9.05551 31.6772,15.9 70.6169,43.1492 109.302,77.974l0.00708661 -0.00944882 0.0472441 0.0425197 0.023622 0.0212598 -0.00708661 0.00944882c38.6929,34.8425 69.8728,70.7315 89.0008,100.581 19.7516,30.8256 26.7094,55.7421 16.1906,67.4409l0.00826772 0.00826772 -0.00708661 0.00708661 -0.00472441 0.00708661 -0.00944882 -0.00826772c-10.5343,11.687 -36.0484,7.37008 -68.7744,-9.05551 -31.6772,-15.9 -70.6169,-43.1492 -109.302,-77.974l-0.00708661 0.00944882 -0.0472441 -0.0425197 -0.023622 -0.0212598 0.00708661 -0.00944882c-38.6929,-34.8425 -69.8728,-70.7315 -89.0008,-100.581 -19.7516,-30.8256 -26.7094,-55.7421 -16.1906,-67.4409l-0.00826772 -0.00826772 0.00708661 -0.00708661zm4.45512 4.00039l0.00944882 0.00826772 -0.00590551 0.00590551 -0.00708661 0.00708661 -0.00944882 -0.00708661c-8.48622,9.43937 -1.45394,31.7587 16.7752,60.2079 18.8634,29.4366 49.6795,64.8921 87.9744,99.3744l0.00826772 -0.00944882 0.023622 0.0212598 0.0472441 0.0437008 -0.00826772 0.00826772c38.2843,34.4657 76.7539,61.3984 107.993,77.0787 30.2043,15.1594 53.1437,19.8213 61.6429,10.3925l-0.00944882 -0.00826772 0.00590551 -0.00590551 0.00708661 -0.00708661 0.00944882 0.00708661c8.48622,-9.43937 1.45394,-31.7587 -16.7752,-60.2079 -18.8634,-29.4366 -49.6795,-64.8921 -87.9744,-99.3744l-0.00826772 0.00944882 -0.023622 -0.0212598 -0.0472441 -0.0437008 0.00826772 -0.00826772c-38.2843,-34.4657 -76.7539,-61.3984 -107.993,-77.0787 -30.2043,-15.1594 -53.1437,-19.8213 -61.6429,-10.3925z"/>
   </g>
   <g>
    <path id="_43472488" class="fil3 str0" d="M741.677 272.432l0.00590551 0.00590551 -0.00944882 0.00826772c10.5224,11.6976 3.5622,36.6213 -16.1941,67.4504 -19.1244,29.8417 -50.2937,65.7201 -88.9713,100.552l0.00708661 0.00944882 -0.0472441 0.0425197 -0.023622 0.0212598 -0.00708661 -0.00944882c-38.6965,34.839 -77.6492,62.0976 -109.335,78 -32.7213,16.422 -58.2283,20.7366 -68.7638,9.05197l-0.00826772 0.00826772 -0.00708661 -0.00826772 -0.00590551 -0.00590551 0.00944882 -0.00826772c-10.5224,-11.6976 -3.5622,-36.6213 16.1941,-67.4504 19.1244,-29.8417 50.2937,-65.7201 88.9713,-100.552l-0.00708661 -0.00944882 0.0472441 -0.0425197 0.023622 -0.0212598 0.00708661 0.00944882c38.6965,-34.839 77.6492,-62.0976 109.335,-78 32.7213,-16.422 58.2283,-20.7366 68.7638,-9.05197l0.00826772 -0.00826772 0.00708661 0.00826772zm-4.44449 4.0122l-0.00826772 0.00826772 -0.00590551 -0.00590551 -0.00708661 -0.00826772 0.00826772 -0.00826772c-8.50039,-9.42638 -31.4327,-4.76575 -61.6311,10.3902 -31.2472,15.6827 -69.7299,42.6248 -108.026,77.1047l0.00826772 0.00826772 -0.023622 0.0224409 -0.0472441 0.0425197 -0.00826772 -0.00944882c-38.2795,34.4717 -69.085,69.9154 -87.9449,99.3449 -18.2339,28.4539 -25.2685,50.7791 -16.7787,60.2185l0.00826772 -0.00826772 0.00590551 0.00590551 0.00708661 0.00826772 -0.00826772 0.00826772c8.50039,9.42638 31.4327,4.76575 61.6311,-10.3902 31.2472,-15.6827 69.7299,-42.6248 108.026,-77.1047l-0.00826772 -0.00826772 0.023622 -0.0224409 0.0472441 -0.0425197 0.00826772 0.00944882c38.2795,-34.4717 69.085,-69.9154 87.9449,-99.3449 18.2339,-28.4539 25.2685,-50.7791 16.7787,-60.2185z"/>
    <path id="_42807872" class="fil3 str0" d="M754.235 287.94l0.00472441 0.00590551 -0.00944882 0.00708661c9.24094,12.7335 -0.285827,36.7937 -23.1567,65.3894 -22.1386,27.6791 -56.8878,60.1028 -98.9941,90.7004l0.00590551 0.0106299 -0.0507874 0.0366142 -0.0259843 0.0188976 -0.00708661 -0.00944882c-42.1264,30.6035 -83.7142,53.6409 -116.889,66.1441 -34.2579,12.9118 -60.0768,14.5358 -69.3319,1.81535l-0.0106299 0.00590551 -0.00590551 -0.00826772 -0.00472441 -0.00590551 0.00944882 -0.00708661c-9.24094,-12.7335 0.285827,-36.7937 23.1567,-65.3894 22.1386,-27.6791 56.8878,-60.1028 98.9941,-90.7004l-0.00590551 -0.0106299 0.0507874 -0.0366142 0.0259843 -0.0188976 0.00708661 0.00944882c42.1264,-30.6035 83.7142,-53.6409 116.889,-66.1441 34.2579,-12.9118 60.0768,-14.5358 69.3319,-1.81535l0.0106299 -0.00590551 0.00590551 0.00826772zm-4.84016 3.52677l-0.00944882 0.00590551 -0.00472441 -0.00590551 -0.00590551 -0.00944882 0.00944882 -0.00590551c-7.46929,-10.2638 -30.763,-8.02677 -62.3799,3.88937 -32.7154,12.3319 -73.8035,35.1024 -115.494,65.3917l0.00708661 0.00944882 -0.0259843 0.0188976 -0.0519685 0.0366142 -0.00590551 -0.00944882c-41.6728,30.2811 -76.0146,62.3114 -97.8472,89.6079 -21.1087,26.3917 -30.4382,47.8606 -22.9819,58.1339l0.00944882 -0.00590551 0.00472441 0.00590551 0.00590551 0.00944882 -0.00944882 0.00590551c7.46929,10.2638 30.763,8.02677 62.3799,-3.88937 32.7154,-12.3319 73.8035,-35.1024 115.494,-65.3917l-0.00708661 -0.00944882 0.0259843 -0.0188976 0.0519685 -0.0366142 0.00590551 0.00944882c41.6728,-30.2811 76.0146,-62.3114 97.8472,-89.6079 21.1087,-26.3917 30.4382,-47.8606 22.9819,-58.1339z"/>
    <path id="_41456216" class="fil3 str0" d="M765.104 304.675l0.00354331 0.00826772 -0.00944882 0.00590551c7.85906,13.6287 -4.13031,36.561 -29.8654,62.6091 -24.9106,25.2142 -62.8583,53.8276 -107.933,79.8567l0.00590551 0.0106299 -0.0555118 0.0318898 -0.0271654 0.0153543 -0.00590551 -0.00944882c-45.0945,26.0315 -88.8626,44.5961 -123.163,53.563 -35.4201,9.25984 -61.2673,8.17677 -69.1429,-5.44252l-0.00944882 0.00590551 -0.00590551 -0.00826772 -0.00354331 -0.00826772 0.00944882 -0.00590551c-7.85906,-13.6287 4.13031,-36.561 29.8654,-62.6091 24.9106,-25.2142 62.8583,-53.8276 107.933,-79.8567l-0.00590551 -0.0106299 0.0555118 -0.0318898 0.0271654 -0.0153543 0.00590551 0.00944882c45.0945,-26.0315 88.8626,-44.5961 123.163,-53.563 35.4201,-9.25984 61.2673,-8.17677 69.1429,5.44252l0.00944882 -0.00590551 0.00590551 0.00826772zm-5.1815 3.00236l-0.0106299 0.00590551 -0.00472441 -0.00826772 -0.00472441 -0.00826772 0.0106299 -0.00590551c-6.35551,-10.9878 -29.7555,-11.198 -62.4449,-2.65157 -33.8256,8.84291 -77.0681,27.1949 -121.697,52.9594l0.00590551 0.0106299 -0.0271654 0.0165354 -0.0555118 0.0318898 -0.00590551 -0.0106299c-44.6091,25.7587 -82.1114,54.0236 -106.677,78.8894 -23.752,24.0402 -35.2736,44.4154 -28.9335,55.4126l0.0106299 -0.00590551 0.00472441 0.00826772 0.00472441 0.00826772 -0.0106299 0.00590551c6.35551,10.9878 29.7555,11.198 62.4449,2.65157 33.8256,-8.84291 77.0681,-27.1949 121.697,-52.9594l-0.00590551 -0.0106299 0.0271654 -0.0165354 0.0555118 -0.0318898 0.00590551 0.0106299c44.6091,-25.7587 82.1114,-54.0236 106.677,-78.8894 23.752,-24.0402 35.2736,-44.4154 28.9335,-55.4126z"/>
    <path id="_41433648" class="fil3 str0" d="M774.163 322.455l0.00354331 0.00826772 -0.0106299 0.00472441c6.39213,14.3764 -7.92874,35.9291 -36.2457,59.1449 -27.4098,22.4717 -68.1413,46.9618 -115.689,68.1378l0.00472441 0.0106299 -0.0590551 0.0259843 -0.0283465 0.0129921 -0.00472441 -0.011811c-47.5689,21.1772 -93.0378,35.0634 -128.087,40.3972 -36.1937,5.5063 -61.7858,1.72795 -68.1945,-12.6402l-0.0106299 0.00472441 -0.00472441 -0.00944882 -0.00354331 -0.00826772 0.0106299 -0.00472441c-6.39213,-14.3764 7.92874,-35.9291 36.2457,-59.1449 27.4098,-22.4717 68.1413,-46.9618 115.689,-68.1378l-0.00472441 -0.0106299 0.0590551 -0.0259843 0.0283465 -0.0129921 0.00472441 0.011811c47.5689,-21.1772 93.0378,-35.0634 128.087,-40.3972 36.1937,-5.5063 61.7858,-1.72795 68.1945,12.6402l0.0106299 -0.00472441 0.00472441 0.00944882zm-5.46732 2.4437l-0.0106299 0.00472441 -0.00354331 -0.00708661 -0.00354331 -0.0106299 0.0106299 -0.00472441c-5.17205,-11.5913 -28.422,-14.2465 -61.826,-9.16417 -34.5638,5.25945 -79.4882,18.9909 -126.566,39.9496l0.00472441 0.0106299 -0.0283465 0.0129921 -0.0590551 0.0259843 -0.00472441 -0.0106299c-47.0575,20.9551 -87.3083,45.1453 -114.339,67.3063 -26.1343,21.4264 -39.7228,40.4858 -34.5661,52.0854l0.0106299 -0.00472441 0.00354331 0.00708661 0.00354331 0.0106299 -0.0106299 0.00472441c5.17205,11.5913 28.422,14.2465 61.826,9.16417 34.5638,-5.25945 79.4882,-18.9909 126.566,-39.9496l-0.00472441 -0.0106299 0.0283465 -0.0129921 0.0590551 -0.0259843 0.00472441 0.0106299c47.0575,-20.9551 87.3083,-45.1453 114.339,-67.3063 26.1343,-21.4264 39.7228,-40.4858 34.5661,-52.0854z"/>
    <path id="_42339320" class="fil3 str0" d="M781.315 341.086l0.0023622 0.00708661 -0.0106299 0.00354331c4.85315,14.9669 -11.6421,34.9051 -42.2303,55.0335 -29.6079,19.4835 -72.6768,39.5811 -122.177,55.6701l0.00354331 0.011811 -0.0614173 0.0200787 -0.0295276 0.00944882 -0.00354331 -0.011811c-49.5213,16.0878 -96.1937,25.1469 -131.608,26.7862 -36.5705,1.6937 -61.6287,-4.73976 -66.5008,-19.6984l-0.0106299 0.00354331 -0.00354331 -0.0106299 -0.0023622 -0.00708661 0.0106299 -0.00354331c-4.85315,-14.9669 11.6421,-34.9051 42.2303,-55.0335 29.6079,-19.4835 72.6768,-39.5811 122.177,-55.6701l-0.00354331 -0.011811 0.0614173 -0.0200787 0.0295276 -0.00944882 0.00354331 0.011811c49.5213,-16.0878 96.1937,-25.1469 131.608,-26.7862 36.5705,-1.6937 61.6287,4.73976 66.5008,19.6984l0.0106299 -0.00354331 0.00354331 0.0106299zm-5.69291 1.85787l-0.0106299 0.00354331 -0.0023622 -0.00826772 -0.00354331 -0.00944882 0.0106299 -0.00354331c-3.93071,-12.0697 -26.7768,-17.1402 -60.528,-15.5764 -34.9252,1.61693 -81.039,10.578 -130.049,26.5004l0.00354331 0.0106299 -0.0295276 0.0106299 -0.0614173 0.0200787 -0.00354331 -0.011811c-48.9898,15.9213 -91.5484,35.772 -120.748,54.985 -28.2319,18.5776 -43.7386,36.1122 -39.822,48.1878l0.0106299 -0.00354331 0.0023622 0.00826772 0.00354331 0.00944882 -0.0106299 0.00354331c3.93071,12.0697 26.7768,17.1402 60.528,15.5764 34.9252,-1.61693 81.039,-10.578 130.049,-26.5004l-0.00354331 -0.0106299 0.0295276 -0.0106299 0.0614173 -0.0200787 0.00354331 0.011811c48.9898,-15.9213 91.5484,-35.772 120.748,-54.985 28.2319,-18.5776 43.7386,-36.1122 39.822,-48.1878z"/>
   </g>
   <circle id="_42842112" class="fil0" cx="600" cy="400" r="48"/>
   <circle id="_42783336" class="fil2" cx="600" cy="400" r="22"/>
  </g>
</svg>