<?xml version="1.0" encoding="UTF-8" standalone="no"?>
<!-- Created with Inkscape (http://www.inkscape.org/) -->

<svg
   xmlns:dc="http://purl.org/dc/elements/1.1/"
   xmlns:cc="http://creativecommons.org/ns#"
   xmlns:rdf="http://www.w3.org/1999/02/22-rdf-syntax-ns#"
   xmlns:svg="http://www.w3.org/2000/svg"
   xmlns="http://www.w3.org/2000/svg"
   version="1.1"
   width="900"
   height="600.00006"
   id="svg5450">
  <defs
     id="defs5452" />
  <metadata
     id="metadata5455">
    <rdf:RDF>
      <cc:Work
         rdf:about="">
        <dc:format>image/svg+xml</dc:format>
        <dc:type
           rdf:resource="http://purl.org/dc/dcmitype/StillImage" />
        <dc:title></dc:title>
      </cc:Work>
    </rdf:RDF>
  </metadata>
  <g
     transform="translate(-140.00006,575.69397)"
     id="layer1">
    <rect
       width="450"
       height="600"
       x="365.00006"
       y="-575.69397"
       id="rect6233"
       style="fill:#ff0000;fill-opacity:1;stroke:none" />
    <g
       transform="matrix(0.24914355,0,0,0.25332561,863.1665,-312.17943)"
       id="g4528">
      <path
         d="m -1096.4375,-454.1875 -23.2813,23.3125 -34.2187,0 0,41.09375 -21.2187,0 0,22.84375 -21.625,0 0,-27 -20.9063,0 -29.4375,-29.6875 -29.4688,29.6875 -24.6562,0 0,178.3125 4.0938,4.1875 0,393.34375 c 133.8125,0 267.625,0 401.43745,0 l 0,-393.3125 4.125,-4.21875 0,-178.3125 -24.65625,0 -29.46875,-29.6875 -29.4375,29.6875 -20.90625,0 0,27 -21.6563,0 0,-22.84375 -21.2187,0 0,-41.09375 -34.1875,0 z"
         id="path4525"
         style="font-size:medium;font-style:normal;font-variant:normal;font-weight:normal;font-stretch:normal;text-indent:0;text-align:start;text-decoration:none;line-height:normal;letter-spacing:normal;word-spacing:normal;text-transform:none;direction:ltr;block-progression:tb;writing-mode:lr-tb;text-anchor:start;baseline-shift:baseline;color:#000000;fill:#ffcc2b;fill-opacity:1;stroke:none;stroke-width:7.19999981;marker:none;visibility:visible;display:inline;overflow:visible;enable-background:accumulate;font-family:Sans;-inkscape-font-specification:Sans" />
      <path
         d="m -1096.4375,-454.1875 -23.2813,23.3125 -34.2187,0 0,41.09375 -21.2187,0 0,22.84375 -21.625,0 0,-27 -20.9063,0 -29.4375,-29.6875 -29.4688,29.6875 -24.6562,0 0,178.3125 4.0938,4.1875 0,393.34375 85.0624,0 4.5313,0 222.28125,0 4.5,0 85.0625,0 0,-393.3125 4.125,-4.21875 0,-178.3125 -24.65625,0 -29.46875,-29.6875 -29.4375,29.6875 -20.90625,0 0,27 -21.6563,0 0,-22.84375 -21.2187,0 0,-41.09375 -34.1875,0 z m 0,13.0625 14.625,14.59375 -14.625,12.90625 -14.5937,-12.90625 z m -47.5,20.25 24.1875,0 32,29.65625 -8.6875,8.5625 -27.4687,-27.0625 -7.0313,7.125 11.2813,11.09375 -13.625,13.03125 -10.6563,-12.125 z m 70.8437,0 24.1563,0 0,30.28125 -23.2187,26.4375 0,61.6875 -24.2813,20.4375 -24.2813,-20.4375 0,-36.46875 19.2813,-19.28125 0,51.71875 10,0 0,-67 29.5,-29.09375 -7,-7.125 -11.7187,11.53125 -8.5938,-8.40625 z m -177.0937,9 0,17.9375 -14.7813,0 z m 6.125,0 14.75,17.9375 -14.75,0 z m 295.28125,0 0,17.9375 -14.75,0 z m 6.125,0 14.78125,17.9375 -14.78125,0 z m -170.06255,27.21875 9.5938,9.4375 -27.5938,25.96875 0,13.375 -3.6562,0 -14.25,-14.25 z m -173.9687,1.3125 79.0937,0 0,157.125 -79.0937,0 z m 301.4375,0 79.09375,0 0,157.125 -79.09375,0 z m -178.9062,3.15625 16.0624,0 7.5938,8.625 -15.125,14.4375 -8.5312,-8.53125 z m 119.375,0 16.0624,0 0,14.53125 -9.1562,9.15625 -14.9375,-14.53125 z m -14.0626,16.03125 14.5938,14.03125 -14.25,14.25 -3.6562,0 0,-24.53125 z m -214.2187,0.96875 0,116.8125 51.875,0 0,-116.8125 z m 301.40625,0 0,116.8125 51.875,0 0,-116.8125 z m -215.15625,6.25 17.2187,0 6.7188,6.71875 -9,7.21875 -4.5625,0 0,39.28125 10,0 0,-18.8125 17.125,18.25 -37.5,28.09375 z m 163.5313,0 17.2187,0 0,80.75 -37.5,-28.0625 17.125,-18.25 0,18.8125 10,0 0,-39.28125 -4.5625,0 -35.4375,37.8125 -5.7187,0 0,-20.71875 8,-0.1875 z m -240.8438,0.96875 34,0 c -5.6667,13.88542 -11.3333,27.77083 -17,41.65625 -5.6667,-13.88542 -11.3333,-27.77083 -17,-41.65625 z m 301.40625,0 34,0 -17,41.65625 z m -193.12505,12.78125 17.125,17.125 8,0.1875 0,20.71875 -5.7187,0 L -1164.375,-335 z m -110.0312,1.96875 c 4.9583,12.14583 9.9167,24.29167 14.875,36.4375 -4.9583,12.14583 -9.9167,24.29167 -14.875,36.4375 z m 37.5,0 0,72.875 c -4.9583,-12.14583 -9.9167,-24.29167 -14.875,-36.4375 4.9583,-12.14583 9.9167,-24.29167 14.875,-36.4375 z m 263.90625,0 14.875,36.4375 -14.875,36.4375 z m 37.5,0 0,72.875 -14.875,-36.4375 z M -1247.125,-295.25 c 5.6667,13.88542 11.3333,27.77083 17,41.65625 l -34,0 c 5.6667,-13.88542 11.3333,-27.77083 17,-41.65625 z m 301.40625,0 17,41.65625 -34,0 z m -199.06245,0.0937 17.25,0 31.0937,26.1875 31.0937,-26.1875 17.25,0 52.0313,38.9375 0,35.96875 c -26.6495,-26.72367 -62.1936,-45.57665 -100.375,-45.53125 -38.1687,0.007 -73.6995,18.75975 -100.3437,45.46875 l 0,-35.9375 z m 48.3437,39.28125 c 41.8935,-0.007 80.2298,24.59043 105.78125,56.46875 l 0,371.4375 -211.56255,0 0,-371.4375 c 25.5598,-31.83013 63.882,-56.5281 105.7813,-56.46875 z m -191.125,53.90625 70.375,0 0,359.625 -18.7187,0 0,-352.0625 -32.875,0 0,352.0625 -18.7813,0 z m 311.90625,0 70.34375,0 0,359.625 -18.75,0 0,-352.0625 -32.875,0 0,352.0625 -18.71875,0 z m -287.03125,13.65625 20.6563,0 0,345.96875 -20.6563,0 z m 311.875,0 20.65625,0 0,345.96875 -20.65625,0 z"
         id="path4122"
         style="font-size:medium;font-style:normal;font-variant:normal;font-weight:normal;font-stretch:normal;text-indent:0;text-align:start;text-decoration:none;line-height:normal;letter-spacing:normal;word-spacing:normal;text-transform:none;direction:ltr;block-progression:tb;writing-mode:lr-tb;text-anchor:start;baseline-shift:baseline;color:#000000;fill:#000000;fill-opacity:1;stroke:none;stroke-width:7.19999981;marker:none;visibility:visible;display:inline;overflow:visible;enable-background:accumulate;font-family:Sans;-inkscape-font-specification:Sans" />
      <g
         id="g4429">
        <g
           id="g4401">
          <path
             d="m -1110.2812,-232.125 0,50.8125 -30.0938,0 0,11.53125 0,11.53125 30.0938,0 0,65.3125 c -8.2978,14.086883 -29.0367,23.069981 -44.0626,33.09375 -7.99,5.330588 -14.6949,11.235464 -15.9062,19.46875 -1.1763,7.995179 3.2064,16.770664 14.3438,27.25 l 0,22.90625 -138.6876,157.78125 396.3438,0 -138.6875,-157.78125 0,-22.90625 c 11.137,-10.479336 15.5201,-19.254822 14.3437,-27.25 -1.211,-8.233284 -7.9157,-14.138162 -15.9062,-19.46875 -15.0255,-10.023769 -35.7651,-19.006871 -44.0625,-33.09375 l 0,-65.3125 30.0625,0 0,-23.0625 -30.0625,0 0,-50.8125 -27.7187,0 z"
             id="path4369"
             style="font-size:medium;font-style:normal;font-variant:normal;font-weight:normal;font-stretch:normal;text-indent:0;text-align:start;text-decoration:none;line-height:normal;letter-spacing:normal;word-spacing:normal;text-transform:none;direction:ltr;block-progression:tb;writing-mode:lr-tb;text-anchor:start;baseline-shift:baseline;color:#000000;fill:#ffcc2b;fill-opacity:1;stroke:none;stroke-width:6.0999999;marker:none;visibility:visible;display:inline;overflow:visible;enable-background:accumulate;font-family:Sans;-inkscape-font-specification:Sans" />
          <path
             d="m -1110.2812,-232.125 0,50.8125 -30.0938,0 0,11.53125 0,11.53125 30.0938,0 0,65.3125 c -8.2977,14.086883 -29.0368,23.069981 -44.0626,33.09375 -7.9901,5.330588 -14.6949,11.235464 -15.9062,19.46875 -1.1763,7.995179 3.2065,16.770664 14.3438,27.25 l 0,22.90625 -138.6876,157.78125 396.3438,0 -138.6875,-157.78125 0,-22.90625 c 11.137,-10.479336 15.5201,-19.254822 14.3437,-27.25 -1.211,-8.233284 -7.9157,-14.138162 -15.9062,-19.46875 -15.0255,-10.023769 -35.7651,-19.006871 -44.0625,-33.09375 l 0,-65.3125 30.0625,0 0,-23.0625 -30.0625,0 0,-50.8125 -27.7187,0 z m 6.0937,6.09375 15.5313,0 0,50.8125 30.0624,0 0,10.875 -30.0624,0 0.1562,72.96875 c 9.2737,17.804045 32.075,26.918468 46.625,36.625 7.5294,5.023 12.4691,9.942088 13.25,15.25 0.7588,5.157846 -2.1887,12.159569 -12.6562,22 l -8.2813,-0.03125 c 3.4951,-3.99417 5.9397,-7.845832 7.3125,-11.65625 1.9677,-5.461722 1.5891,-10.905084 -0.9062,-15.625 -4.9912,-9.439833 -17.0689,-16.197642 -33.5938,-22.625 a 3.050305,3.050305 0 0 0 -1.1875,-0.21875 3.050305,3.050305 0 0 0 -2.9687,3.0625 l 0.125,32.65625 c -0.9669,-1.886958 -2.4336,-3.645392 -4.4688,-4.90625 -2.7903,-1.728623 -6.4385,-2.59375 -11.1875,-2.59375 -4.749,0 -8.3992,0.863979 -11.1875,2.59375 -2.0251,1.256333 -3.4796,2.997553 -4.4375,4.875 l 0.125,-32.625 a 3.050305,3.050305 0 0 0 -3.1563,-3.0625 3.050305,3.050305 0 0 0 -1,0.21875 c -16.5247,6.427358 -28.6027,13.185167 -33.5937,22.625 -2.4955,4.719916 -2.8738,10.163278 -0.9063,15.625 1.373,3.810418 3.8174,7.66208 7.3126,11.65625 l -8.2813,0.03125 c -10.4679,-9.840431 -13.4147,-16.842156 -12.6563,-22 0.7814,-5.307911 5.7209,-10.227 13.25,-15.25 14.5505,-9.706532 37.3518,-18.820959 46.625,-36.625 l 0.1563,-72.96875 -30.0937,0 0,-10.875 30.0937,0 0,-50.8125 z m -13.875,166.09375 -0.1563,42.3125 -16.5312,0.0625 c -5.3711,-5.167441 -8.7258,-9.803976 -10.125,-13.6875 -1.4779,-4.102268 -1.1824,-7.359358 0.5938,-10.71875 3.2164,-6.083794 12.6036,-12.220902 26.2187,-17.96875 z m 43.2813,0 c 13.615,5.747848 23.0021,11.884956 26.2187,17.96875 1.7762,3.359392 2.0718,6.616482 0.5937,10.71875 -1.3989,3.883524 -4.7536,8.520059 -10.125,13.6875 l -16.5312,-0.0625 -0.1562,-42.3125 z m -21.6563,26.625 c 4.0174,0 6.5098,0.733057 8,1.65625 1.4902,0.923193 2.1872,2.000408 2.6875,3.625 0.7928,2.574546 0.5493,6.433388 0.4062,10.375 l -11.0937,-0.03125 -11.0625,0.03125 c -0.1452,-3.94386 -0.413,-7.801045 0.375,-10.375 0.4972,-1.624219 1.2323,-2.702955 2.7188,-3.625 1.4861,-0.922045 3.9513,-1.65625 7.9687,-1.65625 z m -53.375,21.9375 34.625,0 0.3125,0 71.8125,0 0,19.25 -106.75,0 0,-19.25 z m -1.6875,25.40625 27.625,0.34375 -74.4375,147.0625 -82.8125,0 129.625,-147.40625 z m 110.1562,0 129.62505,147.40625 -82.84375,0 L -1069,14.375 l 27.6562,-0.34375 z m -75.7187,0.4375 41.25,0 74.4063,146.96875 -190.0626,0 74.4063,-146.96875 z"
             id="rect4147"
             style="font-size:medium;font-style:normal;font-variant:normal;font-weight:normal;font-stretch:normal;text-indent:0;text-align:start;text-decoration:none;line-height:normal;letter-spacing:normal;word-spacing:normal;text-transform:none;direction:ltr;block-progression:tb;writing-mode:lr-tb;text-anchor:start;baseline-shift:baseline;color:#000000;fill:#000000;fill-opacity:1;stroke:none;stroke-width:6.0999999;marker:none;visibility:visible;display:inline;overflow:visible;enable-background:accumulate;font-family:Sans;-inkscape-font-specification:Sans" />
          <path
             d="m -981.24997,-158.26282 a 23.482143,23.482143 0 1 1 -46.96433,0 23.482143,23.482143 0 1 1 46.96433,0 z"
             transform="matrix(0.61977187,0,0,0.61977187,-421.31313,-71.694375)"
             id="path4176"
             style="fill:#0000ff;stroke:#000000;stroke-width:3.87239265;stroke-linecap:square;stroke-linejoin:miter;stroke-miterlimit:4;stroke-opacity:1;stroke-dasharray:none;stroke-dashoffset:0" />
          <path
             d="m -981.24997,-158.26282 a 23.482143,23.482143 0 1 1 -46.96433,0 23.482143,23.482143 0 1 1 46.96433,0 z"
             transform="matrix(-0.61977187,0,0,0.61977187,-1771.5618,-71.694375)"
             id="path4182"
             style="fill:#0000ff;stroke:#000000;stroke-width:3.87239265;stroke-linecap:square;stroke-linejoin:miter;stroke-miterlimit:4;stroke-opacity:1;stroke-dasharray:none;stroke-dashoffset:0" />
          <path
             d="m -981.24997,-158.26282 a 23.482143,23.482143 0 1 1 -46.96433,0 23.482143,23.482143 0 1 1 46.96433,0 z"
             transform="matrix(-0.72623575,0,0,0.72623575,-1826.1099,-123.88531)"
             id="path4204"
             style="fill:#0000ff;stroke:#000000;stroke-width:3.30471206;stroke-linecap:square;stroke-linejoin:miter;stroke-miterlimit:4;stroke-opacity:1;stroke-dasharray:none;stroke-dashoffset:0" />
          <path
             d="m -1058.9688,-88.125 c -3.6937,0.03755 -6.6833,1.243011 -8.2812,3.65625 -1.9526,2.948902 -1.3964,7.106398 1.0312,11.34375 8.7559,5.816491 18.4442,10.780542 26.1876,15.96875 3.8056,0.01369 6.8982,-1.190051 8.5312,-3.65625 3.6524,-5.515976 -1.3755,-15.274049 -11.25,-21.8125 -5.5544,-3.677879 -11.4696,-5.548276 -16.2188,-5.5 z"
             id="path4217"
             style="fill:#0000ff;stroke:#000000;stroke-width:2.4000001;stroke-linecap:square;stroke-linejoin:miter;stroke-miterlimit:4;stroke-opacity:1;stroke-dasharray:none;stroke-dashoffset:0" />
          <path
             d="m -1133.875,-88.125 c 3.6937,0.03755 6.6833,1.243011 8.2812,3.65625 1.9526,2.948902 1.3964,7.106398 -1.0312,11.34375 -8.7559,5.816491 -18.4442,10.780542 -26.1876,15.96875 -3.8056,0.01369 -6.8982,-1.190051 -8.5312,-3.65625 -3.6524,-5.515976 1.3755,-15.274049 11.25,-21.8125 5.5544,-3.677879 11.4696,-5.548276 16.2188,-5.5 z"
             id="path4224"
             style="fill:#0000ff;stroke:#000000;stroke-width:2.4000001;stroke-linecap:square;stroke-linejoin:miter;stroke-miterlimit:4;stroke-opacity:1;stroke-dasharray:none;stroke-dashoffset:0" />
          <path
             d="m -981.24997,-158.26282 a 23.482143,23.482143 0 1 1 -46.96433,0 23.482143,23.482143 0 1 1 46.96433,0 z"
             transform="matrix(0.61977187,0,0,0.61977187,-473.7328,3.6493423)"
             id="path4230"
             style="fill:#0000ff;stroke:#000000;stroke-width:3.87239265;stroke-linecap:square;stroke-linejoin:miter;stroke-miterlimit:4;stroke-opacity:1;stroke-dasharray:none;stroke-dashoffset:0" />
          <path
             d="m -1082.3785,-54.846914 c 0,7.214899 -6.049,9.797799 -13.5108,9.797799 -7.4618,0 -13.5108,-2.5829 -13.5108,-9.797799 0,-7.214899 6.049,-17.906319 13.5108,-17.906319 7.4618,0 13.5108,10.69142 13.5108,17.906319 z"
             transform="matrix(1,0,0,1.1212121,-0.53931777,5.7198623)"
             id="path4249"
             style="fill:#ff0000;stroke:#000000;stroke-width:2.26656079;stroke-linecap:square;stroke-linejoin:round;stroke-miterlimit:4;stroke-opacity:1;stroke-dashoffset:0" />
          <path
             d="m -1097.1408,58.78572 c -5.752,0 -10.63,4.765925 -14.1129,10.835714 -3.4829,6.06979 -5.6292,13.593708 -5.6292,19.795 0,4.575326 1.2245,8.181301 3.3299,10.862146 -6.5309,-1.505861 -11.9721,-3.145003 -11.9721,-3.145003 -2.7202,0.05922 -3.4675,3.267333 -1.9557,5.153573 2.464,8.2259 7.8322,12.64446 14.6678,14.21857 1.7262,0.76915 2.6795,1.90082 2.2729,3.77928 -3.0275,1.96977 -6.6931,3.73969 -8.0872,7.32072 -0.4654,1.69081 -1.4735,3.7032 -0.5021,5.365 -4.8925,-0.75573 -9.5042,-3.88842 -14.5886,-2.96 -3.7293,0.97103 -4.5264,5.60391 -3.6207,8.82714 1.4356,4.88981 7.1167,6.03047 10.0428,9.72571 3.7172,4.45558 3.1939,10.54724 2.6165,15.93643 l 27.5386,0 27.5385,0 c -0.5774,-5.38919 -1.1008,-11.48085 2.6165,-15.93643 2.9261,-3.69524 8.6336,-4.8359 10.0692,-9.72571 0.9059,-3.22323 0.082,-7.85611 -3.6471,-8.82714 -5.0844,-0.92842 -9.6961,2.20427 -14.5886,2.96 0.9714,-1.6618 -0.036,-3.67419 -0.5021,-5.365 -1.3942,-3.58103 -5.0596,-5.35095 -8.0872,-7.32072 -0.4067,-1.87846 0.5732,-3.01013 2.2993,-3.77928 6.8357,-1.57411 12.1774,-5.99268 14.6415,-14.21857 1.5118,-1.88624 0.7644,-5.094349 -1.9558,-5.153573 0,0 -5.4259,1.640715 -11.9457,3.145003 2.1053,-2.680845 3.33,-6.28682 3.33,-10.862146 0,-6.201292 -2.1463,-13.725211 -5.6293,-19.795 -3.4829,-6.069788 -8.3874,-10.835714 -14.1392,-10.835714 z m -20.5351,46.805 c 4.9138,1.8668 10.115,3.17143 20.5351,3.17143 10.42,0 15.6211,-1.30463 20.535,-3.17143 -6.9924,6.99226 -13.418,5.5477 -20.5086,5.55 -7.0906,0.003 -13.6639,1.34752 -20.5615,-5.55 z m 20.5615,10.175 c 1.6602,0 3.8549,1.25381 5.735,4.30785 1.8799,3.05406 3.1449,7.56438 3.145,12.55358 0,4.9892 -1.2651,9.47309 -3.145,12.52714 -1.8801,3.05405 -4.0748,4.36071 -5.735,4.36071 -1.6604,0 -3.8814,-1.30666 -5.7615,-4.36071 -1.8799,-3.05405 -3.1713,-7.53794 -3.1714,-12.52714 0,-4.9892 1.2915,-9.49952 3.1714,-12.55358 1.88,-3.05404 4.101,-4.30785 5.7615,-4.30785 z m -14.1922,11.12643 c -0.3299,1.83363 -0.5021,3.74037 -0.5021,5.735 0,5.5972 1.3623,10.70504 3.7528,14.58857 2.3908,3.88353 6.0848,6.87143 10.9415,6.87143 4.8565,0 8.5507,-2.9879 10.9414,-6.87143 2.3908,-3.88353 3.7528,-8.99137 3.7529,-14.58857 0,-1.9852 -0.1753,-3.88271 -0.5022,-5.70858 0.7834,0.57936 1.5259,1.21202 2.1936,1.92929 1.8369,2.44038 -1.1397,8.31714 0.7928,10.80929 1.8975,2.67162 5.4926,-1.03336 8.1136,-2.06143 3.231,-0.94695 6.3913,-2.54382 9.8051,-2.59 1.5228,2.84485 -1.779,4.45316 -3.6736,5.78785 -4.5881,2.81573 -8.2278,7.38755 -8.9858,12.81786 -0.7957,1.68713 0.38,5.0754 -1.0571,5.735 l -42.8143,0 c -1.4371,-0.6596 -0.2348,-4.04787 -1.0307,-5.735 -0.7577,-5.43031 -4.3977,-10.00213 -8.9858,-12.81786 -1.8944,-1.33469 -5.2228,-2.943 -3.7,-5.78785 3.4138,0.0462 6.6005,1.64305 9.8315,2.59 2.6213,1.02807 6.2164,4.73305 8.1136,2.06143 1.9327,-2.49215 -1.0704,-8.36891 0.7664,-10.80929 0.6809,-0.73153 1.4457,-1.3669 2.2464,-1.95571 z"
             id="path4253"
             style="font-size:medium;font-style:normal;font-variant:normal;font-weight:normal;font-stretch:normal;text-indent:0;text-align:start;text-decoration:none;line-height:normal;letter-spacing:normal;word-spacing:normal;text-transform:none;direction:ltr;block-progression:tb;writing-mode:lr-tb;text-anchor:start;baseline-shift:baseline;color:#000000;fill:#000000;fill-opacity:1;stroke:none;stroke-width:6.0999999;marker:none;visibility:visible;display:inline;overflow:visible;enable-background:accumulate;font-family:Sans;-inkscape-font-specification:Sans" />
          <path
             d="m -971.40625,128.53125 c -2.50839,1.6999 -5.50676,3.27755 -6.65625,6.375 -0.38835,1.4801 -1.2168,3.2328 -0.40625,4.6875 -4.08254,-0.66155 -7.94469,-3.40647 -12.1875,-2.59375 -3.11189,0.85002 -3.78695,4.89719 -3.03125,7.71875 1.19808,4.28044 5.93337,5.2965 8.375,8.53125 3.10185,3.90033 2.66937,9.2199 2.1875,13.9375 l 23,0 22.96875,0 c -0.48186,-4.7176 -0.91429,-10.03717 2.1875,-13.9375 2.44168,-3.23475 7.20824,-4.25081 8.40625,-8.53125 0.75588,-2.82156 0.0494,-6.86873 -3.0625,-7.71875 -4.2427,-0.81272 -8.07374,1.9322 -12.15625,2.59375 0.81058,-1.4547 -0.0488,-3.2074 -0.4375,-4.6875 -1.14637,-3.08884 -4.1208,-4.68064 -6.625,-6.375 -1.83183,0.47621 -3.77142,0.8572 -5.78125,1.09375 1.18051,2.5758 1.9375,5.96511 1.9375,9.65625 0,4.36745 -1.05628,8.29529 -2.625,10.96875 -1.56885,2.67345 -3.42706,3.8125 -4.8125,3.8125 -1.38545,0 -3.2124,-1.13905 -4.78125,-3.8125 -1.56874,-2.67346 -2.65616,-6.6013 -2.65625,-10.96875 0,-3.69236 0.7827,-7.08014 1.96875,-9.65625 -2.03075,-0.23772 -3.96335,-0.61154 -5.8125,-1.09375 z m -0.5625,5.75 c -0.27529,1.60513 -0.40625,3.25394 -0.40625,5 0,4.89968 1.13025,9.38168 3.125,12.78125 1.99504,3.39957 5.07238,6 9.125,6 4.05258,0 7.16136,-2.60043 9.15625,-6 1.99496,-3.39957 3.125,-7.88157 3.125,-12.78125 0,-1.73781 -0.16474,-3.40167 -0.4375,-5 0.65369,0.50716 1.28667,1.05962 1.84375,1.6875 1.53279,2.13627 -0.95643,7.28718 0.65625,9.46875 1.58325,2.33869 4.59412,-0.91254 6.78125,-1.8125 2.69608,-0.82894 5.33892,-2.20957 8.1875,-2.25 1.27077,2.49033 -1.51275,3.89413 -3.09375,5.0625 -3.82852,2.46483 -6.83629,6.46515 -7.46875,11.21875 -0.664,1.47688 0.29296,4.45385 -0.90625,5.03125 l -35.71875,0 c -1.19928,-0.5774 -0.17963,-3.55437 -0.84375,-5.03125 -0.63238,-4.7536 -3.67141,-8.75392 -7.5,-11.21875 -1.58086,-1.16837 -4.36445,-2.57217 -3.09375,-5.0625 2.84858,0.0404 5.49136,1.42106 8.1875,2.25 2.18722,0.89996 5.19811,4.15119 6.78125,1.8125 1.61279,-2.18157 -0.90772,-7.33248 0.625,-9.46875 0.56814,-0.64037 1.20678,-1.17207 1.875,-1.6875 z"
             id="path4292"
             style="font-size:medium;font-style:normal;font-variant:normal;font-weight:normal;font-stretch:normal;text-indent:0;text-align:start;text-decoration:none;line-height:normal;letter-spacing:normal;word-spacing:normal;text-transform:none;direction:ltr;block-progression:tb;writing-mode:lr-tb;text-anchor:start;baseline-shift:baseline;color:#000000;fill:#000000;fill-opacity:1;stroke:none;stroke-width:6.0999999;marker:none;visibility:visible;display:inline;overflow:visible;enable-background:accumulate;font-family:Sans;-inkscape-font-specification:Sans" />
          <path
             d="m -1221.4376,128.53125 c 2.5084,1.6999 5.5068,3.27755 6.6563,6.375 0.3883,1.4801 1.2168,3.2328 0.4062,4.6875 4.0826,-0.66155 7.9447,-3.40647 12.1875,-2.59375 3.1119,0.85002 3.787,4.89719 3.0313,7.71875 -1.1981,4.28044 -5.9334,5.2965 -8.375,8.53125 -3.1019,3.90033 -2.6694,9.2199 -2.1875,13.9375 l -23,0 -22.9688,0 c 0.4819,-4.7176 0.9143,-10.03717 -2.1875,-13.9375 -2.4416,-3.23475 -7.2082,-4.25081 -8.4062,-8.53125 -0.7559,-2.82156 -0.049,-6.86873 3.0625,-7.71875 4.2427,-0.81272 8.0737,1.9322 12.1562,2.59375 -0.8105,-1.4547 0.049,-3.2074 0.4375,-4.6875 1.1464,-3.08884 4.1208,-4.68064 6.625,-6.375 1.8319,0.47621 3.7715,0.8572 5.7813,1.09375 -1.1805,2.5758 -1.9375,5.96511 -1.9375,9.65625 0,4.36745 1.0563,8.29529 2.625,10.96875 1.5688,2.67345 3.4271,3.8125 4.8125,3.8125 1.3854,0 3.2124,-1.13905 4.7812,-3.8125 1.5688,-2.67346 2.6562,-6.6013 2.6563,-10.96875 0,-3.69236 -0.7827,-7.08014 -1.9688,-9.65625 2.0308,-0.23772 3.9634,-0.61154 5.8125,-1.09375 z m 0.5625,5.75 c 0.2753,1.60513 0.4063,3.25394 0.4063,5 0,4.89968 -1.1303,9.38168 -3.125,12.78125 -1.995,3.39957 -5.0724,6 -9.125,6 -4.0526,0 -7.1614,-2.60043 -9.1563,-6 -1.9949,-3.39957 -3.125,-7.88157 -3.125,-12.78125 0,-1.73781 0.1648,-3.40167 0.4375,-5 -0.6536,0.50716 -1.2866,1.05962 -1.8437,1.6875 -1.5328,2.13627 0.9564,7.28718 -0.6563,9.46875 -1.5832,2.33869 -4.5941,-0.91254 -6.7812,-1.8125 -2.6961,-0.82894 -5.3389,-2.20957 -8.1875,-2.25 -1.2708,2.49033 1.5127,3.89413 3.0937,5.0625 3.8286,2.46483 6.8363,6.46515 7.4688,11.21875 0.664,1.47688 -0.293,4.45385 0.9062,5.03125 l 35.7188,0 c 1.1993,-0.5774 0.1796,-3.55437 0.8437,-5.03125 0.6324,-4.7536 3.6715,-8.75392 7.5,-11.21875 1.5809,-1.16837 4.3645,-2.57217 3.0938,-5.0625 -2.8486,0.0404 -5.4914,1.42106 -8.1875,2.25 -2.1872,0.89996 -5.1981,4.15119 -6.7813,1.8125 -1.6127,-2.18157 0.9078,-7.33248 -0.625,-9.46875 -0.5681,-0.64037 -1.2067,-1.17207 -1.875,-1.6875 z"
             id="path4301"
             style="font-size:medium;font-style:normal;font-variant:normal;font-weight:normal;font-stretch:normal;text-indent:0;text-align:start;text-decoration:none;line-height:normal;letter-spacing:normal;word-spacing:normal;text-transform:none;direction:ltr;block-progression:tb;writing-mode:lr-tb;text-anchor:start;baseline-shift:baseline;color:#000000;fill:#000000;fill-opacity:1;stroke:none;stroke-width:6.0999999;marker:none;visibility:visible;display:inline;overflow:visible;enable-background:accumulate;font-family:Sans;-inkscape-font-specification:Sans" />
          <path
             d="m -1097.1408,60.82072 c 4.5964,0 9.0699,4.082735 12.3685,9.831429 3.2986,5.748693 5.3651,13.038878 5.365,18.764285 0,5.725407 -1.9603,9.391363 -5.1007,11.760716 -3.1404,2.36935 -7.5982,3.40928 -12.6328,3.40928 -5.0347,0 -9.4925,-1.03993 -12.6329,-3.40928 -3.1404,-2.369353 -5.0743,-6.035309 -5.0743,-11.760716 0,-5.725407 2.0399,-13.015592 5.3386,-18.764285 3.2987,-5.748693 7.7721,-9.831429 12.3686,-9.831429 z"
             id="path4303"
             style="font-size:medium;font-style:normal;font-variant:normal;font-weight:normal;font-stretch:normal;text-indent:0;text-align:start;text-decoration:none;line-height:normal;letter-spacing:normal;word-spacing:normal;text-transform:none;direction:ltr;block-progression:tb;writing-mode:lr-tb;text-anchor:start;baseline-shift:baseline;color:#000000;fill:#ff0000;fill-opacity:1;fill-rule:nonzero;stroke:none;stroke-width:2.4000001;marker:none;visibility:visible;display:inline;overflow:visible;enable-background:accumulate;font-family:Sans;-inkscape-font-specification:Sans" />
          <path
             d="m -1086.7858,44.505039 a 10,10 0 1 1 -20,0 10,10 0 1 1 20,0 z"
             transform="matrix(-1,0,0,1,-2240.1584,34.907036)"
             id="path4329"
             style="fill:#000000;stroke:none" />
          <path
             d="m -1086.7858,44.505039 a 10,10 0 1 1 -20,0 10,10 0 1 1 20,0 z"
             transform="translate(0.3571666,-4.6428572)"
             id="path4323"
             style="fill:#000000;stroke:none" />
          <path
             d="m -1086.7858,44.505039 a 10,10 0 1 1 -20,0 10,10 0 1 1 20,0 z"
             transform="translate(47.283358,34.907036)"
             id="path4325"
             style="fill:#000000;stroke:none" />
          <path
             d="m -1163.4148,72.950668 a 26.886375,26.302771 0 1 1 -53.7727,0 26.886375,26.302771 0 1 1 53.7727,0 z"
             transform="matrix(0.84254925,-0.64979147,0.46808773,0.6069439,-229.29412,-755.38297)"
             id="path4333"
             style="fill:#0000ff;fill-opacity:1;stroke:#000000;stroke-width:2.65759444;stroke-miterlimit:4;stroke-dasharray:none" />
          <path
             d="m -1177.9375,38.625 -2.2618,3.429373 c 4.8182,2.816615 5.491,13.200299 3.9805,18.320627 -1.6561,5.353419 -5.5794,11.061619 -11.375,15.53125 -9.6531,7.444753 -21.9595,10.521738 -28.2789,6.726577 l -2.2835,3.429673 c 9.3789,5.632521 23.1248,3.284499 34.3124,-5.34375 6.7155,-5.17908 11.3496,-11.782307 13.4376,-18.53125 2.0879,-6.748943 1.5517,-13.852737 -2.5626,-19.1875 -1.392,-1.805096 -3.0928,-3.252702 -4.9687,-4.375 z"
             id="path4335"
             style="font-size:medium;font-style:normal;font-variant:normal;font-weight:normal;font-stretch:normal;text-indent:0;text-align:start;text-decoration:none;line-height:normal;letter-spacing:normal;word-spacing:normal;text-transform:none;direction:ltr;block-progression:tb;writing-mode:lr-tb;text-anchor:start;baseline-shift:baseline;color:#000000;fill:#000000;fill-opacity:1;fill-rule:nonzero;stroke:none;stroke-width:6.10000038;marker:none;visibility:visible;display:inline;overflow:visible;enable-background:accumulate;font-family:Sans;-inkscape-font-specification:Sans" />
          <path
             d="m -1163.4148,72.950668 a 26.886375,26.302771 0 1 1 -53.7727,0 26.886375,26.302771 0 1 1 53.7727,0 z"
             transform="matrix(-0.84254925,-0.64979147,-0.46808773,0.6069439,-1963.5497,-755.38297)"
             id="path4346"
             style="fill:#0000ff;fill-opacity:1;stroke:#000000;stroke-width:2.65759444;stroke-miterlimit:4;stroke-dasharray:none" />
          <path
             d="m -1014.9063,38.625 2.2618,3.429373 c -4.8182,2.816615 -5.491,13.200299 -3.9805,18.320627 1.6561,5.353419 5.5794,11.061619 11.375,15.53125 9.6531,7.444753 21.9595,10.521738 28.2789,6.726577 l 2.2835,3.429673 c -9.3789,5.632521 -23.1248,3.284499 -34.3124,-5.34375 -6.7155,-5.17908 -11.3496,-11.782307 -13.4376,-18.53125 -2.0879,-6.748943 -1.5517,-13.852737 2.5626,-19.1875 1.392,-1.805096 3.0928,-3.252702 4.9687,-4.375 z"
             id="path4348"
             style="font-size:medium;font-style:normal;font-variant:normal;font-weight:normal;font-stretch:normal;text-indent:0;text-align:start;text-decoration:none;line-height:normal;letter-spacing:normal;word-spacing:normal;text-transform:none;direction:ltr;block-progression:tb;writing-mode:lr-tb;text-anchor:start;baseline-shift:baseline;color:#000000;fill:#000000;fill-opacity:1;fill-rule:nonzero;stroke:none;stroke-width:6.10000038;marker:none;visibility:visible;display:inline;overflow:visible;enable-background:accumulate;font-family:Sans;-inkscape-font-specification:Sans" />
          <path
             d="m -1086.7858,44.505039 a 10,10 0 1 1 -20,0 10,10 0 1 1 20,0 z"
             transform="matrix(0,-1,1,0,-1204.8814,-1060.4721)"
             id="path4350"
             style="fill:#000000;stroke:none" />
          <path
             d="m -1086.7858,44.505039 a 10,10 0 1 1 -20,0 10,10 0 1 1 20,0 z"
             transform="matrix(0,-1,1,0,-1228.8725,-985.97335)"
             id="path4354"
             style="fill:#000000;stroke:none" />
          <path
             d="m -1086.7858,44.505039 a 10,10 0 1 1 -20,0 10,10 0 1 1 20,0 z"
             transform="matrix(0,-1,1,0,-1266.7532,-989.76142)"
             id="path4356"
             style="fill:#000000;stroke:none" />
          <path
             d="m -1086.7858,44.505039 a 10,10 0 1 1 -20,0 10,10 0 1 1 20,0 z"
             transform="matrix(0,-1,-1,0,-987.9624,-1060.4721)"
             id="path4360"
             style="fill:#000000;stroke:none" />
          <path
             d="m -1086.7858,44.505039 a 10,10 0 1 1 -20,0 10,10 0 1 1 20,0 z"
             transform="matrix(0,-1,-1,0,-963.9713,-985.97335)"
             id="path4362"
             style="fill:#000000;stroke:none" />
          <path
             d="m -1086.7858,44.505039 a 10,10 0 1 1 -20,0 10,10 0 1 1 20,0 z"
             transform="matrix(0,-1,-1,0,-926.0906,-989.76142)"
             id="path4364"
             style="fill:#000000;stroke:none" />
        </g>
        <rect
           width="517.70319"
           height="74.5271"
           ry="37.26355"
           x="-1355.2793"
           y="167.1875"
           id="rect4406"
           style="fill:#000000;fill-opacity:1;stroke:none" />
      </g>
      <path
         d="m -1116.9688,429.34375 31.6877,-31.93767"
         id="path4022"
         style="fill:#ff00ff;fill-opacity:1;stroke:none" />
      <path
         d="m -1075.8885,429.34375 -31.6877,-31.93767"
         id="path4086"
         style="fill:#ff00ff;fill-opacity:1;stroke:none" />
      <rect
         width="903.07635"
         height="55.558392"
         x="-1547.9668"
         y="683.65649"
         id="rect4088"
         style="fill:#ffcc2b;fill-opacity:1;stroke:#000000;stroke-width:6.0999999;stroke-miterlimit:4;stroke-dasharray:none" />
      <path
         d="m -1455.5,623.0625 -92.4688,60.59375 451.5313,0 451.5625,0 -92.5,-60.59375 -359.0625,0 -359.0625,0 z"
         id="path4191"
         style="fill:#ffcc2b;fill-opacity:1;stroke:#000000;stroke-width:6.0999999;stroke-linecap:square;stroke-linejoin:bevel;stroke-miterlimit:4;stroke-opacity:1;stroke-dasharray:none;stroke-dashoffset:0" />
      <rect
         width="718.12128"
         height="55.558392"
         x="-1455.4893"
         y="602.8443"
         id="rect4090"
         style="fill:#ffcc2b;fill-opacity:1;stroke:#000000;stroke-width:6.0999999;stroke-miterlimit:4;stroke-dasharray:none" />
      <rect
         width="663.67023"
         height="29.294424"
         x="-1428.2637"
         y="615.97626"
         id="rect4182"
         style="fill:#ffcc2b;fill-opacity:1;stroke:#000000;stroke-width:6.0999999;stroke-linecap:square;stroke-linejoin:miter;stroke-miterlimit:4;stroke-opacity:1;stroke-dasharray:none;stroke-dashoffset:0" />
      <rect
         width="817.21338"
         height="19.192898"
         x="-1505.0352"
         y="701.83923"
         id="rect4184"
         style="fill:#ffcc2b;fill-opacity:1;stroke:#000000;stroke-width:6.0999999;stroke-linecap:square;stroke-linejoin:miter;stroke-miterlimit:4;stroke-opacity:1;stroke-dasharray:none;stroke-dashoffset:0" />
      <path
         d="m -1295.3125,510.34375 -160.1875,92.5 359.0625,0 359.0625,0 -160.1875,-92.5 -198.875,0 -198.875,0 z"
         id="path4186"
         style="fill:#ffcc2b;fill-opacity:1;stroke:#000000;stroke-width:6.0999999;stroke-linecap:square;stroke-linejoin:bevel;stroke-miterlimit:4;stroke-opacity:1;stroke-dasharray:none;stroke-dashoffset:0" />
      <g
         id="g4211">
        <path
           d="m -1219.8438,413.65625 -3.4062,2.53125 -10.5625,7.78125 -66.8437,0 -2.25,0 0,2.625 0,81.0625 -17.2188,16.6875 0,2.625 0,30.9375 0,2.625 2.25,0 96.5,0 1.1875,-1.15625 17.8437,-17.4375 0.7813,-0.78125 0,-1.21875 0,-27.5 -0.9063,-0.78125 -17.375,-14.78125 0,-78.5 0,-4.71875 z"
           id="path4209"
           style="font-size:medium;font-style:normal;font-variant:normal;font-weight:normal;font-stretch:normal;text-indent:0;text-align:start;text-decoration:none;line-height:normal;letter-spacing:normal;word-spacing:normal;text-transform:none;direction:ltr;block-progression:tb;writing-mode:lr-tb;text-anchor:start;baseline-shift:baseline;color:#000000;fill:#ffcc2b;fill-opacity:1;stroke:none;stroke-width:6.0999999;marker:none;visibility:visible;display:inline;overflow:visible;enable-background:accumulate;font-family:Sans;-inkscape-font-specification:Sans" />
        <path
           d="m -1219.8319,413.64662 0,4.73782 0,78.48191 17.3648,14.80235 0.9151,0.77625 0,27.49008 0,1.2313 -0.8007,0.77626 -17.8224,17.42555 -1.2126,1.15099 -96.5016,0 -2.2421,0 0,-2.6232 0,-30.9163 0,-2.6232 17.2275,-16.70284 0,-81.05157 0,-2.6232 2.2421,0 66.8511,0 10.547,-7.78931 3.4318,-2.54289 z m -4.4842,9.47564 -6.6348,4.9252 0,75.67133 10.2953,19.59371 12.9035,-9.68978 -15.626,-13.33015 -0.938,-0.77625 0,-1.33837 0,-75.05569 z m -11.0961,6.10296 -63.0075,0 0,79.57937 0,1.151 -0.755,0.77625 -12.9035,13.62459 86.7097,0 -9.7005,-18.52302 -0.3432,-0.61565 0,-0.74948 0,-75.24306 z m 29.3989,89.32269 -13.1323,9.85039 0,23.15377 13.1323,-12.82157 0,-20.18259 z m -17.6165,11.02815 -92.0174,0 0,25.72344 91.8344,0 0.183,-25.72344 z"
           id="path4082"
           style="font-size:medium;font-style:normal;font-variant:normal;font-weight:normal;font-stretch:normal;text-indent:0;text-align:start;text-decoration:none;line-height:normal;letter-spacing:normal;word-spacing:normal;text-transform:none;direction:ltr;block-progression:tb;writing-mode:lr-tb;text-anchor:start;baseline-shift:baseline;color:#000000;fill:#000000;fill-opacity:1;stroke:none;stroke-width:6.0999999;marker:none;visibility:visible;display:inline;overflow:visible;enable-background:accumulate;font-family:Sans;-inkscape-font-specification:Sans" />
      </g>
      <g
         id="g4233">
        <path
           d="m -1255.5135,330.09375 0,91.59375 3.4063,-2.15625 0,97.15625 24.9687,18.1875 0,33.53125 -27.0937,22.59375 -134.875,0 0,-42.21875 23.5312,-19.5 0,-92.25 -16.7187,-10.75 -1.9375,-1.21875 -0.5313,0 0,-94.96875 z"
           id="path4231"
           style="font-size:medium;font-style:normal;font-variant:normal;font-weight:normal;font-stretch:normal;text-indent:0;text-align:start;text-decoration:none;line-height:normal;letter-spacing:normal;word-spacing:normal;text-transform:none;direction:ltr;block-progression:tb;writing-mode:lr-tb;text-anchor:start;baseline-shift:baseline;color:#000000;fill:#ffcc2b;fill-opacity:1;fill-rule:nonzero;stroke:none;stroke-width:6.0999999;marker:none;visibility:visible;display:inline;overflow:visible;enable-background:accumulate;font-family:Sans;-inkscape-font-specification:Sans" />
        <path
           d="m -1255.5135,330.09375 0,91.59375 3.4063,-2.15625 0,97.15625 24.9687,18.1875 0,33.53125 -27.0937,22.59375 -134.875,0 0,-42.21875 23.5312,-19.5 0,-92.25 -16.7187,-10.75 -1.9375,-1.21875 -0.5313,0 0,-94.96875 z m -6.0937,6.09375 -117.0625,0 -0.25,82.28125 117.3125,0.5 z m 0.75,88.875 -112.0625,0 10.1562,6.53125 91.5625,0 z m 2.625,5.53125 -9.0625,5.75 0,88.34375 14.0625,22.875 17.625,-11.3125 -22.625,-16.46875 z m -15.1563,7.125 -86.0625,0 0,94.25 -18.6562,16.8125 118.4375,0 -13.7188,-22.34375 z M -1233.2322,542 l -17.9375,11.5 0,27.03125 17.9375,-14.96875 z m -24.0625,12.875 -125.6875,0 0,30.03125 125.4375,0 z"
           id="path4080"
           style="font-size:medium;font-style:normal;font-variant:normal;font-weight:normal;font-stretch:normal;text-indent:0;text-align:start;text-decoration:none;line-height:normal;letter-spacing:normal;word-spacing:normal;text-transform:none;direction:ltr;block-progression:tb;writing-mode:lr-tb;text-anchor:start;baseline-shift:baseline;color:#000000;fill:#000000;fill-opacity:1;fill-rule:nonzero;stroke:none;stroke-width:6.0999999;marker:none;visibility:visible;display:inline;overflow:visible;enable-background:accumulate;font-family:Sans;-inkscape-font-specification:Sans" />
      </g>
      <g
         id="g4270">
        <path
           d="m -973.02527,413.64662 0,4.73782 0,78.48191 -17.3648,14.80235 -0.91515,0.77625 0,27.49008 0,1.2313 0.80075,0.77626 17.82238,17.42555 1.21256,1.15099 96.50163,0 2.2421,0 0,-2.6232 0,-30.9163 0,-2.6232 -17.22754,-16.70284 0,-81.05157 0,-2.6232 -2.24209,0 -66.85106,0 -10.547,-7.78931 -3.43178,-2.54289 z"
           id="path4268"
           style="font-size:medium;font-style:normal;font-variant:normal;font-weight:normal;font-stretch:normal;text-indent:0;text-align:start;text-decoration:none;line-height:normal;letter-spacing:normal;word-spacing:normal;text-transform:none;direction:ltr;block-progression:tb;writing-mode:lr-tb;text-anchor:start;baseline-shift:baseline;color:#000000;fill:#ffcc2b;fill-opacity:1;stroke:none;stroke-width:6.0999999;marker:none;visibility:visible;display:inline;overflow:visible;enable-background:accumulate;font-family:Sans;-inkscape-font-specification:Sans" />
        <path
           d="m -973.02527,413.64662 0,4.73782 0,78.48191 -17.3648,14.80235 -0.91515,0.77625 0,27.49008 0,1.2313 0.80075,0.77626 17.82238,17.42555 1.21256,1.15099 96.50163,0 2.2421,0 0,-2.6232 0,-30.9163 0,-2.6232 -17.22754,-16.70284 0,-81.05157 0,-2.6232 -2.24209,0 -66.85106,0 -10.547,-7.78931 -3.43178,-2.54289 z m 4.48419,9.47564 6.63478,4.9252 0,75.67133 -10.29535,19.59371 -12.90348,-9.68978 15.62603,-13.33015 0.93802,-0.77625 0,-1.33837 0,-75.05569 z m 11.09608,6.10296 63.00747,0 0,79.57937 0,1.151 0.75499,0.77625 12.90349,13.62459 -86.70962,0 9.7005,-18.52302 0.34317,-0.61565 0,-0.74948 0,-75.24306 z m -29.3989,89.32269 13.13228,9.85039 0,23.15377 -13.13228,-12.82157 0,-20.18259 z m 17.61646,11.02815 92.01744,0 0,25.72344 -91.83441,0 -0.18303,-25.72344 z"
           id="path3939"
           style="font-size:medium;font-style:normal;font-variant:normal;font-weight:normal;font-stretch:normal;text-indent:0;text-align:start;text-decoration:none;line-height:normal;letter-spacing:normal;word-spacing:normal;text-transform:none;direction:ltr;block-progression:tb;writing-mode:lr-tb;text-anchor:start;baseline-shift:baseline;color:#000000;fill:#000000;fill-opacity:1;stroke:none;stroke-width:6.0999999;marker:none;visibility:visible;display:inline;overflow:visible;enable-background:accumulate;font-family:Sans;-inkscape-font-specification:Sans" />
      </g>
      <g
         id="g4254">
        <path
           d="m -937.34375,330.09375 0,91.59375 -3.40625,-2.15625 0,97.15625 -24.96875,18.1875 0,33.53125 L -938.625,591 l 134.875,0 0,-42.21875 -23.53125,-19.5 0,-92.25 16.71875,-10.75 1.9375,-1.21875 0.53125,0 0,-94.96875 z"
           id="path4252"
           style="font-size:medium;font-style:normal;font-variant:normal;font-weight:normal;font-stretch:normal;text-indent:0;text-align:start;text-decoration:none;line-height:normal;letter-spacing:normal;word-spacing:normal;text-transform:none;direction:ltr;block-progression:tb;writing-mode:lr-tb;text-anchor:start;baseline-shift:baseline;color:#000000;fill:#ffcc2b;fill-opacity:1;fill-rule:nonzero;stroke:none;stroke-width:6.0999999;marker:none;visibility:visible;display:inline;overflow:visible;enable-background:accumulate;font-family:Sans;-inkscape-font-specification:Sans" />
        <path
           d="m -937.34375,330.09375 0,91.59375 -3.40625,-2.15625 0,97.15625 -24.96875,18.1875 0,33.53125 L -938.625,591 l 134.875,0 0,-42.21875 -23.53125,-19.5 0,-92.25 16.71875,-10.75 1.9375,-1.21875 0.53125,0 0,-94.96875 z m 6.09375,6.09375 117.0625,0 0.25,82.28125 -117.3125,0.5 z m -0.75,88.875 112.0625,0 -10.15625,6.53125 -91.5625,0 z m -2.625,5.53125 9.0625,5.75 0,88.34375 -14.0625,22.875 -17.625,-11.3125 22.625,-16.46875 z m 15.15625,7.125 86.0625,0 0,94.25 18.65625,16.8125 -118.4375,0 13.71875,-22.34375 z M -959.625,542 l 17.9375,11.5 0,27.03125 -17.9375,-14.96875 z m 24.0625,12.875 125.6875,0 0,30.03125 -125.4375,0 z"
           id="rect4410"
           style="font-size:medium;font-style:normal;font-variant:normal;font-weight:normal;font-stretch:normal;text-indent:0;text-align:start;text-decoration:none;line-height:normal;letter-spacing:normal;word-spacing:normal;text-transform:none;direction:ltr;block-progression:tb;writing-mode:lr-tb;text-anchor:start;baseline-shift:baseline;color:#000000;fill:#000000;fill-opacity:1;fill-rule:nonzero;stroke:none;stroke-width:6.0999999;marker:none;visibility:visible;display:inline;overflow:visible;enable-background:accumulate;font-family:Sans;-inkscape-font-specification:Sans" />
      </g>
      <g
         id="g4310">
        <rect
           width="324.25897"
           height="98.489853"
           x="-1258.5581"
           y="326.5676"
           id="rect4408"
           style="fill:#ffcc2b;fill-opacity:1;stroke:#000000;stroke-width:6.0999999;stroke-linecap:square;stroke-linejoin:miter;stroke-miterlimit:4;stroke-opacity:1;stroke-dasharray:none;stroke-dashoffset:0" />
        <g
           id="g4306">
          <path
             d="m -1148.9375,333.0625 -6.6875,6.6875 -6.1562,-6.15625 -85.7188,0 0,80.1875 5.1875,5.1875 93.2187,0 0,32.6875 32.3126,0 20.3437,20.34375 20.375,-20.34375 32.3125,0 0,-32.6875 93.21875,0 5.1875,-5.1875 0,-80.1875 -85.75005,0 -6.1562,6.15625 -6.6875,-6.6875 -52.5,0 -52.5,0 z"
             id="path4299"
             style="fill:#ffcc2b;fill-opacity:1;stroke:none" />
          <path
             d="m -1148.9375,333.0625 -6.6875,6.6875 -6.1562,-6.15625 -85.7188,0 0,75.54464 5.1875,5.1875 93.2187,0 0,37.33036 32.3126,0 20.3437,20.34375 20.375,-20.34375 32.3125,0 0,-37.33036 93.21875,0 5.1875,-5.1875 0,-75.54464 -85.75005,0 -6.1562,6.15625 -6.6875,-6.6875 -52.5,0 z m -94.4375,6.875 33.7188,0 0,22.59375 32.0624,32.34375 6.4063,6.46875 -4.5313,4.53125 -67.6562,0 0,-20.46875 24.625,-24.59375 0,-11.75 -9.2812,0 -15.3438,15.34375 z m 48.0938,0 30.5624,0 27.375,27.59375 -6.4374,6.4375 -6.4063,-6.46875 -3.0937,-3.125 -15.1876,-15.3125 -17.6874,0 0,20.4375 -9.125,0 z m 72.625,0 22.5937,0 0,39.03125 -13,13 -6.4375,6.4375 -10.9688,10.96875 0,19.96875 13.5,0 37.1563,-37.375 -6.5,-6.5 -6.5,-6.5 0,-39.03125 22.5937,0 21.0938,21.09375 20.9688,-21.09375 30.56245,0 0,29.5625 -9.09375,0 0,-20.4375 -17.7187,0 -18.25,18.4375 27.375,27.375 32.06245,-32.3125 0,-22.625 35.25,0 -23.40625,23.59375 21.90625,21.875 0,20.46875 -67.68745,0 -31.9063,-31.90625 -17.8437,18 13.625,13.65625 0,32.8125 -26.3438,0 -7.7812,-7.78125 6.4374,-6.4375 5.0938,5.125 13.5,0 0,-19.96875 -10.9688,-10.9375 -39.875,40 -26.375,0 0,-32.8125 30.4376,-30.4375 0,-26.125 -9.7188,0 -9.9375,9.90625 -6.4063,-6.4375 z m 38.9374,9.125 0,26.09375 10.3438,10.34375 17.8438,-18 -18.4376,-18.4375 z m 109.62505,0 0,4.28125 4.25,-4.28125 z M -1215.0625,370 l -19.2187,19.21875 0,7.5625 45.7812,0 z m 237.28125,0 -26.56255,26.78125 45.75005,0 0,-7.59375 z m -130.96875,26.28125 9.0312,9.0625 -6.4374,1.79464 -9.0313,-4.41964 z m 12.3125,43.40625 8.2813,8.28125 -8.2813,8.28125 -8.2813,-8.28125 z"
             id="path3164"
             style="fill:#000000;fill-opacity:1;stroke:none" />
        </g>
      </g>
      <rect
         width="595.06653"
         height="84.852997"
         ry="39.691765"
         x="-1393.9618"
         y="241.7146"
         id="rect4316"
         style="fill:#008000;fill-opacity:1;stroke:#000000;stroke-width:6.0999999;stroke-miterlimit:4;stroke-opacity:1;stroke-dasharray:none" />
      <rect
         width="594.72913"
         height="12.604338"
         ry="6.3021688"
         x="-1393.8794"
         y="277.83893"
         id="rect4318"
         style="fill:#ffcc2b;fill-opacity:1;stroke:#000000;stroke-width:6.0999999;stroke-linecap:square;stroke-linejoin:bevel;stroke-miterlimit:4;stroke-opacity:1;stroke-dasharray:none;stroke-dashoffset:0" />
      <g
         id="g4330">
        <g
           id="g4326">
          <rect
             width="14.285714"
             height="76.428574"
             ry="7.1428571"
             x="-1416.4286"
             y="295.21933"
             id="rect4322"
             style="fill:#ffcc2b;fill-opacity:1;stroke:#000000;stroke-width:6.0999999;stroke-linecap:square;stroke-linejoin:bevel;stroke-miterlimit:4;stroke-opacity:1;stroke-dasharray:none;stroke-dashoffset:0" />
          <rect
             width="14.285714"
             height="76.428574"
             ry="7.1428571"
             x="-1402.1428"
             y="295.21933"
             id="rect4324"
             style="fill:#ffcc2b;fill-opacity:1;stroke:#000000;stroke-width:6.0999999;stroke-linecap:square;stroke-linejoin:bevel;stroke-miterlimit:4;stroke-opacity:1;stroke-dasharray:none;stroke-dashoffset:0" />
        </g>
        <path
           d="m -1388.5714,294.14789 a 13.928572,13.928572 0 1 1 -27.8572,0 13.928572,13.928572 0 1 1 27.8572,0 z"
           transform="translate(0.71428571,-10)"
           id="path4320"
           style="fill:#ffcc2b;fill-opacity:1;stroke:#000000;stroke-width:6.0999999;stroke-linecap:square;stroke-linejoin:bevel;stroke-miterlimit:4;stroke-opacity:1;stroke-dasharray:none;stroke-dashoffset:0" />
      </g>
      <g
         transform="matrix(-1,0,0,1,-2192.8571,1.415459e-5)"
         id="g4338">
        <g
           id="g4340">
          <rect
             width="14.285714"
             height="76.428574"
             ry="7.1428571"
             x="-1416.4286"
             y="295.21933"
             id="rect4342"
             style="fill:#ffcc2b;fill-opacity:1;stroke:#000000;stroke-width:6.0999999;stroke-linecap:square;stroke-linejoin:bevel;stroke-miterlimit:4;stroke-opacity:1;stroke-dasharray:none;stroke-dashoffset:0" />
          <rect
             width="14.285714"
             height="76.428574"
             ry="7.1428571"
             x="-1402.1428"
             y="295.21933"
             id="rect4344"
             style="fill:#ffcc2b;fill-opacity:1;stroke:#000000;stroke-width:6.0999999;stroke-linecap:square;stroke-linejoin:bevel;stroke-miterlimit:4;stroke-opacity:1;stroke-dasharray:none;stroke-dashoffset:0" />
        </g>
        <path
           d="m -1388.5714,294.14789 a 13.928572,13.928572 0 1 1 -27.8572,0 13.928572,13.928572 0 1 1 27.8572,0 z"
           transform="translate(0.71428571,-10)"
           id="path4347"
           style="fill:#ffcc2b;fill-opacity:1;stroke:#000000;stroke-width:6.0999999;stroke-linecap:square;stroke-linejoin:bevel;stroke-miterlimit:4;stroke-opacity:1;stroke-dasharray:none;stroke-dashoffset:0" />
      </g>
    </g>
    <rect
       width="225"
       height="600"
       x="140.00006"
       y="-575.69391"
       id="rect6225"
       style="fill:#ffcc2b;fill-opacity:1;stroke:none" />
    <rect
       width="225"
       height="600"
       x="815.00006"
       y="-575.69391"
       id="rect6231"
       style="fill:#ffcc2b;fill-opacity:1;stroke:none" />
  </g>
</svg>
