<?xml version="1.0" encoding="utf-8"?>
<!-- Generator: Adobe Illustrator 16.0.2, SVG Export Plug-In . SVG Version: 6.00 Build 0)  -->
<!DOCTYPE svg PUBLIC "-//W3C//DTD SVG 1.1//EN" "http://www.w3.org/Graphics/SVG/1.1/DTD/svg11.dtd">
<svg version="1.1" id="Layer_1" xmlns:svg="http://www.w3.org/2000/svg"
	 xmlns="http://www.w3.org/2000/svg" xmlns:xlink="http://www.w3.org/1999/xlink" x="0px" y="0px" width="300px" height="200px"
	 viewBox="0 0 300 200" enable-background="new 0 0 300 200" xml:space="preserve">
<rect fill="#FFFFFF" width="300" height="200"/>
<path fill="#ECECEC" d="M174.732,155c1.696,7.41,4.464,8.035,6.785,5.09c2.023-2.568,9.465-9.644-2.232-27.055
	c-2.006-2.987-4.82-7.053-2.589-13.035c0.894-2.393,0.625-5-2.589-7.768c-2.5,0.982-3.304,4.285-2.232,5.446
	s1.381,1.876-0.179,2.768c-1.875,1.071-3.69,8.638,0.804,15.269C176.042,140.939,184.108,159.927,174.732,155z M172.768,123.304
	c-4.553,3.036,2.057,9.634,4.286,14.106c1.8,3.611,2.231,5.536,2.5,8.215c2.143-1.16,1.737-2.823,0.356-5.893
	C174.732,128.215,172.946,130.804,172.768,123.304z M191.607,163.035c7.857-2.231,13.472,0.789,19.196,1.072
	c10.508,0.52,11.419-77.431-9.554-71.161c-7.18,2.147-14.821,4.375-18.84,2.947c-4.018-1.429-6.518-1.25-6.695,2.589
	c-0.096,2.053-1.127,0.973-2.5,0.536c-3.41-1.085-5.982,2.411-0.982,3.572c3.104,0.721-2.611,5.326-5.447,6.518
	c-4.464,1.875-0.897,4.398,1.43,1.607c1.785-2.144,7.589-2.769,9.553,0.445c1.965,3.215,1.828,7.363,4.911,10.447
	c3.571,3.571,5.612,10.111,2.946,6.339c-4.732-6.696-9.664-8.142-3.84-1.161c11.697,14.019,15.805,21.072,15.09,25.625
	c-0.471,3.001-0.715,3.482,0.357,4.732c1.071,1.25,2.375,2.207-0.715,2.768C192.59,160.625,191.875,161.696,191.607,163.035z
	 M184.063,81.161c-3.84,1.116-8.938,6.333-13.438,4.107c-3.99-1.976-4.42-3.706-2.41-4.599c2.008-0.893,0.832-2.942,0.089-3.928
	c-0.775-1.028,0.356-3.17,1.026-4.509c2.054-0.313,2.813,1.206,6.607,0.893C179.197,72.86,184.152,81.206,184.063,81.161z"/>
<path fill="#FE0000" d="M0,0h300v200H0V0z M163.929,181.071c18.929,0.536,38.571,0.536,51.786,0.357
	c-2.857-4.019-3.658-4.601-6.697-8.839c-1.613-2.251,0.543-4.1,1.719-6.061c0.742-1.238,0.254-3.2-0.021-4.029
	c-0.715-2.143-1.965-3.929-2.5-6.607c-0.536-2.678-1.25-3.571-2.857-5.714c-1.607-2.144-5-6.607-6.607-9.107
	s-4.196-5.981-4.91-8.481c-0.715-2.5-8.75-16.25-12.68-20.894c0.09-0.981,0.715-1.964,1.34-3.125
	c3.929,0.536,11.518,1.875,11.429-2.411c-3.839-0.072-4.614-0.389-3.915-2.934c-0.935-0.705-3.416-0.238-5.996-1.798
	c5.179-1.161,9.836,2.856,12.947,5.446c1.732,1.443,3.758,1.35,5.629,1.244c4.248-0.242,7.705-3.146,5.174-6.779
	c1.259-2.673,0.673-4.966-0.982-5.625c-4.654-1.854-10-7.946-15.714-5.179c-1.696-1.786,0.625-2.321,1.696-3.125
	c1.072-0.804,5.063-3.109,9.465-4.375c4.102-1.179,12.094-6.132,13.393-6.071c13.304,0.625,14.643-2.411,6.34-2.143
	c0.335-0.542,0.843-0.665,1.408-0.969c1.329-0.714,0.467-1.286-0.618-1.037c-1.448,0.333-4.019,1.085-5.612,0.22
	c0.068-0.339,0.413-1.303,1.208-1.633c2.407-0.999,2.639-3.167-3.618,0.115c-1.945,1.02-20.926,7.597-23.215,8.125
	c-4.643,1.071-13.928,2.5-17.321,3.839c-1.339-0.446-2.231-1.339-3.839-2.411c1.785-1.607,2.143-2.589,2.053-3.75
	c1.049-0.392,2.143-0.249,3.259-0.715c0.231-1.813,0.519-3.52-0.134-5.088c-1.602,0.15-3.214-1.072-3.928-1.875
	c0.592-0.283,1.541-0.61,2.188-0.705c-0.35-1.741-1.912-2.971-3.438-2.957c-9.107,0.089-10.804,4.822-10,7.589
	c0.389,1.342-1.875,2.768,2.053,5.982c1.328,1.086,0.982,2.857,0.269,5.178c-8.175,0.784-14.789-9.966-18.125-15.536
	c4,0.925,4.954,0.691,5.216-0.258c0.446-1.62-1.597-2.354-5.038-4.206C155,35.625,161.696,16.875,159.91,14.107
	c-3.75,0.447-8.928,20.714-19.285,49.554c-4.386-0.438-5.745-0.351-5.963,1.155c-0.126,0.874,1.249,2.327,3.195,2.773
	c-0.446,2.232-0.268,3.304,0.268,5.982c-1.433,4.202,2.991,4.933,3.527,0.647c0.446,0.536,1.059,1.492,1.384,2.656
	c1.494,5.354,5.357,10,10.714,14.554c0.901,2.659,2.321,6.161,2.321,7.857c0,2.16-0.179,4.732-0.179,6.429
	c0,1.695-0.998,3.797-0.178,6.606c2.278,7.819,4.91,11.071,5.268,13.929s6.607,16.071,7.143,18.304
	c0.535,2.231,1.965,6.429,2.41,9.911c0.447,3.481,2.055,17.768,0.09,19.731S164.018,181.071,163.929,181.071z"/>
<rect x="17.2" fill="#000184" width="17.2" height="200"/>
<rect x="51.6" fill="#000184" width="17.2" height="200"/>
</svg>
