<?xml version="1.0" encoding="UTF-8" standalone="no"?>
<!-- Created with sK1/UniConvertor (http://sk1project.org/) -->
<svg xmlns:rdf="http://www.w3.org/1999/02/22-rdf-syntax-ns#" style="fill-rule:evenodd" xmlns="http://www.w3.org/2000/svg" height="531" width="797" version="1.1" xmlns:cc="http://creativecommons.org/ns#" xmlns:dc="http://purl.org/dc/elements/1.1/" viewBox="0 0 637.795 425.196">
 <metadata>
  <rdf:RDF>
   <cc:Work rdf:about="">
    <dc:format>image/svg+xml</dc:format>
    <dc:type rdf:resource="http://purl.org/dc/dcmitype/StillImage"/>
    <dc:title/>
   </cc:Work>
  </rdf:RDF>
 </metadata>
 <g transform="translate(-102 -324)">
  <path style="fill:#ffcc00" d="m 102.047,324.454 637.795,0 0,425.197 -637.795,0 0,-425.197 z"/>
  <path style="fill:#2c2c2b" d="m 387.927,643.04 0,0.001 1.871,-2.155 0.942,7.218 1.671,-2.306 1.575,7.125 1.501,-2.513 c 0.553,2.043 2.221,6.134 0.575,6.819 -5.158,1.675 -11.988,4.351 -13.343,6.568 -2.752,0.554 -6.161,2.143 -6.963,4.387 1.831,-0.863 3.403,-1.322 5.448,-1.493 l 0.205,0.515 c -2.482,0.642 -4.739,2.351 -5.51,4.198 1.528,-0.578 4.176,-1.708 6.152,-1.833 l 0.373,0.557 c -2.45,0.778 -4.364,2.629 -5.115,4.23 2.063,-0.578 4.301,-1.797 6.55,-2.15 l 0.508,0.406 c -2.312,0.973 -3.524,2.11 -4.498,3.745 2.231,-0.561 4.238,-1.302 6.491,-1.671 0.294,0.199 2.158,0.036 2.562,-0.011 l 24.864,-2.911 c 1.501,-0.176 4.366,0.037 4.774,-2.571 0.254,-1.621 0.456,-3.085 0.454,-4.479 l -0.011,-16.129 1.981,2.673 0.004,-21.302 1.559,-4.355 c 1.922,7.909 4.436,13.248 8.126,21.439 l 0.036,0.097 0.012,-0.028 c 0.006,0.009 0.012,0.018 0.019,0.027 0.008,-0.045 0.017,-0.087 0.025,-0.132 l 1.201,-2.874 3.667,7.126 0.873,-3.15 4.486,6.703 0.424,-2.889 c 1.313,2.107 3.89,7.19 2.535,7.711 -4.527,1.743 -10.653,3.37 -13.903,7.303 -2.525,0.546 -5.575,2.138 -6.201,4.399 1.819,-0.866 3.181,-1.299 5.49,-1.668 0.051,0.173 0.104,0.347 0.16,0.521 -2.447,0.772 -4.747,2.398 -5.41,4.315 1.488,-0.661 4.061,-1.653 6.32,-1.9 0.069,0.156 0.141,0.312 0.216,0.467 -2.402,0.907 -4.51,2.555 -5.291,4.232 2.045,-0.573 4.468,-1.626 6.837,-1.99 0.108,0.161 0.357,0.32 0.473,0.481 -2.193,1 -3.668,1.78 -4.499,3.486 2.373,-0.692 4.941,-1.3 6.84,-1.654 0.911,0.19 2.365,0.181 3.084,0.086 l 25.708,-3.421 c 1.51,-0.201 3.397,-0.682 3.683,-2.874 0.188,-1.441 0.149,-3.099 -0.011,-4.882 l -1.891,-15.733 2.49,2.313 -4.031,-23.018 0.023,-25.919 3.334,2.678 0.437,-36.158 0.038,-13.016 c 0.009,-3.232 -0.258,-6.637 -1.815,-13.593 -0.659,-2.947 -2.954,-13.455 -4.453,-15.194 l -0.621,-18.878 2.592,0.978 -0.709,-8.325 2.384,1.058 -1.445,-8.268 2.507,0.875 -1.752,-8.159 2.621,0.678 -2.336,-7.774 2.945,0.814 c -2.03,-8.467 -5.039,-16.371 -8.581,-23.309 l 24.391,-17.586 c 0.528,0.356 1.206,0.389 1.706,0.029 l 0.264,-0.19 c 0.361,-0.26 0.557,-0.674 0.573,-1.116 l 1.319,-1.022 c 0.591,1.119 1.106,2.277 1.526,3.462 0.301,0.896 0.532,1.785 0.693,2.714 0.135,0.875 0.2,1.735 0.209,2.618 -0.003,0.865 -0.061,1.707 -0.18,2.562 -0.179,1.089 -0.449,2.102 -0.841,3.132 -0.134,0.33 -0.275,0.654 -0.424,0.978 -0.378,0.772 -0.796,1.501 -1.262,2.224 -1.202,1.799 -1.848,2.52 -3.237,4.169 1.029,0.074 1.582,-0.013 2.56,-0.235 0.378,-0.085 0.959,-0.273 1.33,-0.435 0.73,-0.343 1.412,-0.722 2.092,-1.152 0.657,-0.434 1.282,-0.895 1.895,-1.386 0.634,-0.527 1.221,-1.075 1.791,-1.673 0.537,-0.59 1.025,-1.194 1.49,-1.844 0.515,-0.756 0.963,-1.522 1.372,-2.343 0.277,-0.587 0.524,-1.176 0.751,-1.786 0.304,-0.868 0.55,-1.736 0.754,-2.634 0.213,-1.024 0.365,-2.04 0.463,-3.084 0.101,-1.347 0.098,-2.66 -0.016,-4.009 -0.046,-0.443 -0.101,-0.881 -0.165,-1.323 -0.172,-1.036 -0.4,-2.036 -0.696,-3.045 -0.228,-0.724 -0.481,-1.429 -0.766,-2.134 -0.215,-0.504 -0.437,-1.005 -0.662,-1.504 l 1.445,-1.12 c 0.534,0.389 1.241,0.437 1.757,0.065 l 0.265,-0.19 c 0.546,-0.394 0.713,-1.137 0.456,-1.796 l 0.348,-0.271 c 1.296,0.43 2.773,0.254 3.961,-0.602 1.379,-0.993 2.011,-2.647 1.775,-4.225 l 1.359,-1.232 c 1.156,0.007 2.31,0.086 3.456,0.268 0.909,0.154 1.783,0.362 2.679,0.59 l 15.584,-18.725 -22.697,8.853 -0.094,1.254 c -0.154,1.494 -0.451,2.927 -0.876,4.364 -0.05,0.158 -0.101,0.315 -0.153,0.471 l -1.605,0.901 c -1.421,-0.722 -3.19,-0.648 -4.569,0.346 -1.183,0.852 -1.816,2.191 -1.824,3.551 l -0.362,0.24 c -0.546,-0.496 -1.339,-0.592 -1.904,-0.185 l -0.263,0.19 c -0.533,0.384 -0.706,1.102 -0.475,1.748 l -0.637,0.423 c -0.378,-0.814 -0.75,-1.633 -1.107,-2.457 -0.408,-0.983 -0.738,-1.974 -0.999,-3.008 -0.242,-1.026 -0.407,-2.047 -0.504,-3.099 -0.109,-1.404 -0.105,-2.793 0.048,-4.197 l 0.16,-0.985 c 0.142,-0.665 0.312,-1.307 0.516,-1.957 0.227,-0.653 0.478,-1.281 0.761,-1.914 0.304,-0.629 0.626,-1.234 0.981,-1.838 0.464,-0.744 0.953,-1.444 1.495,-2.137 0.33,-0.401 0.667,-0.789 1.019,-1.173 0.594,-0.615 1.204,-1.182 1.864,-1.728 0.432,-0.338 0.87,-0.666 1.33,-0.968 1.214,-0.788 2.527,-1.41 3.815,-2.067 l -2.779,-1.374 -1.059,-0.486 -2.107,-0.852 -2.095,-0.69 -2.084,-0.528 -1.038,-0.202 -1.036,-0.163 -1.034,-0.121 -1.032,-0.08 -1.03,-0.039 -1.028,10e-4 -1.027,0.042 -1.025,0.083 -1.024,0.124 -1.022,0.165 -1.02,0.205 -1.02,0.245 -2.036,0.61 -2.033,0.77 -2.032,0.928 -2.033,1.084 -2.038,1.239 -2.043,1.392 -1.803,1.354 -1.701,1.408 -1.596,1.466 -1.483,1.529 -1.366,1.596 -1.242,1.667 -1.111,1.743 -0.506,0.9 -0.469,0.92 -0.435,0.94 -0.397,0.961 -0.36,0.982 -0.322,1.003 -0.283,1.025 -0.243,1.046 -0.203,1.068 -0.163,1.09 -0.121,1.113 -0.079,1.135 -0.037,1.158 0.008,1.182 0.05,1.206 0.095,1.229 0.139,1.254 0.454,3.143 c 0.949,-0.922 1.876,-1.873 2.892,-2.72 0.808,-0.656 1.645,-1.235 2.547,-1.75 1.132,-0.627 2.296,-1.124 3.527,-1.515 1.058,-0.317 2.114,-0.537 3.209,-0.675 1.6,-0.182 3.165,-0.185 4.766,-0.007 l 0.886,0.132 c 0.888,0.163 1.742,0.375 2.603,0.645 0.567,0.192 1.119,0.402 1.67,0.635 0.684,0.309 1.336,0.644 1.985,1.019 0.901,0.55 1.724,1.143 2.529,1.826 0.4,0.357 0.785,0.722 1.157,1.107 0.283,0.299 0.557,0.603 0.824,0.912 l -1.527,1.014 c -0.429,-0.131 -0.892,-0.08 -1.258,0.184 l -0.264,0.191 c -0.505,0.363 -0.686,1.028 -0.507,1.647 l -23.825,17.178 c -1.413,-2.408 -2.886,-4.668 -4.395,-6.756 l 2.465,0.084 -3.879,-5.541 2.395,-0.107 -4.287,-4.272 2.379,-0.301 -4.501,-4.232 2.347,-0.493 c -4.343,-5.836 -10.311,-11.97 -14.224,-14.675 0.009,-0.006 0.017,-0.013 0.026,-0.019 0,0 1.823,-0.879 1.881,-2.298 0.058,-1.418 -1.751,-3.771 -3.722,-5.187 -2.059,-1.479 -4.138,-1.668 -5.162,-1.118 -0.564,0.303 -1.136,0.993 -1.621,1.813 -1.112,-0.766 -2.215,-1.446 -3.461,-1.964 -0.075,-0.046 -0.149,-0.092 -0.223,-0.137 -0.258,-0.096 -0.512,-0.17 -0.762,-0.227 -0.802,-0.26 -1.67,-0.454 -2.638,-0.564 -1.09,-0.124 -2.245,-0.192 -3.448,-0.208 -5.212,-0.072 -11.313,0.812 -16.796,2.174 -1.95,0.484 -5.454,3.631 -5.507,3.631 l -13.834,1.032 c -3.085,-0.116 -1.945,3.128 -1.618,5.404 0.225,1.566 0.503,3.389 0.503,3.389 5.618,1.777 8.659,2.898 10.394,4.584 0.242,0.608 0.18,1.841 0.029,2.196 -1.392,-0.673 -5.209,-2.367 -8.622,-2.302 -0.368,0.043 0.117,1.801 0.577,3.491 0.358,1.118 2.023,2.32 4.148,4.043 5.303,4.297 7.628,11.977 8.565,15.844 l -10e-4,0.022 0.005,-0.006 c 0,0.001 10e-4,0.002 10e-4,0.002 0,-10e-4 0.001,-0.002 0.001,-0.003 l 1.548,-1.506 0.329,5.536 1.352,-1.697 1.025,5.45 1.111,-1.78 2.246,5.047 10e-4,7.043 c -1.886,0.059 -3.768,0.078 -5.503,0.041 -4.639,-0.098 -7.087,-0.132 -10.321,-3.375 l -17.764,-17.817 c -1.272,-1.277 -3.355,-3.938 -6.8,-5.65 l -12.266,-6.099 c -2.761,-1.373 -5.873,-2.545 -9.031,-2.053 -3.121,-0.945 -6.15,-1.649 -7.721,-0.116 1.909,0.405 3.675,0.931 5.43,1.566 -0.224,0.221 -0.432,0.451 -0.625,0.69 -3.032,-0.133 -6.444,-0.505 -7.52,1.265 2.213,-0.095 4.238,0.286 6.402,0.664 -0.12,0.318 -0.212,0.644 -0.276,0.974 -2.682,0.112 -5.379,0.278 -6.169,1.896 2.051,-0.278 3.979,-0.126 6.01,0.041 -0.014,0.369 -0.021,0.725 -0.02,1.066 -2.573,0.349 -5.092,0.788 -5.71,2.416 1.961,-0.451 3.843,-0.487 5.819,-0.506 0.051,0.393 0.12,0.754 0.211,1.079 -2.057,0.532 -3.85,1.228 -4.24,2.633 1.739,-0.572 3.444,-0.795 5.218,-0.982 0.025,0.019 0.049,0.037 0.075,0.055 6.947,4.872 12.178,14.878 18.45,17.497 l 1.806,2.627 -3.916,0.519 6.224,6.059 -3.574,0.629 6.477,5.789 -3.544,0.781 6.718,5.507 -3.508,0.931 7.221,5.422 -3.592,1.126 13.615,9.309 -19.428,4.784 c -7.528,1.854 -10.291,4.308 -12.653,7.547 l -11.05,15.155 c -2.866,3.929 -4.032,6.392 -4.322,9.876 -0.093,0.411 -0.113,0.818 -0.059,1.203 -0.424,1.082 -0.81,2.155 -0.989,3.12 l -16.916,12.195 -0.332,0.353 -0.204,0.498 -0.043,0.481 0.054,0.44 0.117,0.411 0.164,0.39 0.436,0.728 0.553,0.643 0.318,0.277 0.353,0.242 0.402,0.19 0.469,0.11 0.536,-0.035 0.44,-0.205 16.994,-12.252 c 0.129,0.251 0.296,0.472 0.51,0.656 0.048,-0.393 0.111,-0.777 0.184,-1.156 l 2.173,-1.567 c -0.015,1.471 0.233,2.709 1.123,3.342 0.048,-1.626 0.345,-3.133 0.711,-4.664 l 1.134,-0.817 c 0.072,-0.004 0.144,-0.01 0.217,-0.015 -0.066,2.514 0,4.946 1.46,5.795 -0.13,-2.09 0.169,-4.021 0.486,-6.061 0.339,-0.069 0.686,-0.16 1.018,-0.276 0.162,2.627 0.403,5.23 2.004,5.973 -0.381,-2.454 -0.139,-4.741 0,-7.244 4.868,-4.047 10.464,-6.812 14.618,-11.665 l 3.031,-0.743 -1.357,3.295 8.256,-2.304 -1.239,3.362 8.152,-2.649 -1.096,3.412 7.923,-2.949 -0.194,0.845 -0.645,2.552 11.456,-2.217 0.181,0.033 c -1.182,11.503 -1.875,21.653 -2.279,33.608 0,0 0.001,0 0.001,0 l 2.243,-0.941 -1.528,6.477 2.121,-1.061 -0.934,6.624 1.924,-1.217 c 0.112,0.933 0.209,5.516 0.644,8.893 l -7.726,16.438 c -2.99,6.363 -4.262,16.805 -3.472,24.815 1.428,7.879 1.75,9.043 3.3,15.284 z"/>
  <path style="fill:#ffffff" d="m 491.252,456.552 c -1.537,1.251 -3.265,2.345 -5.17,2.942 2.89,-3.516 4.673,-6.831 4.809,-11.397 0.106,-3.544 -0.717,-6.31 -2.311,-9.46 -0.1,-0.197 -0.201,-0.391 -0.305,-0.585 l 7.111,-5.512 0.208,0.45 c 1.981,4.292 2.479,8.841 1.56,13.453 -0.794,3.983 -2.622,7.44 -5.902,10.109 z m -3.45,-19.357 c 0,0 0,0 0,0 l -2.682,2.079 c 0.096,0.195 0.13,0.37 0.03,0.602 -0.11,0.157 -0.281,0.262 -0.444,0.354 -0.253,0.076 -0.428,-0.012 -0.624,-0.168 l -2.63,-3.619 c -0.152,-0.258 -0.233,-0.457 -0.109,-0.748 0.109,-0.155 0.278,-0.26 0.443,-0.353 0.252,-0.075 0.428,0.011 0.626,0.168 l 0.026,0.036 2.931,-1.944 c -0.549,-0.689 -1.132,-1.352 -1.75,-1.984 -3.539,-3.618 -8.543,-5.604 -13.574,-5.607 -3.21,-0.002 -6.15,0.625 -9.021,2.073 -1.305,0.659 -2.503,1.461 -3.621,2.409 -0.478,0.404 -0.931,0.834 -1.38,1.274 -2.161,-13.457 3.36,-22.359 13.051,-29.314 10.725,-7.697 20.849,-8.823 31.954,-3.127 -0.806,0.407 -1.578,0.835 -2.327,1.336 -4.604,3.075 -8.203,8.736 -8.513,14.348 -0.2,3.63 0.369,7.068 1.895,10.374 l 1.33,2.88 2.347,-1.558 -0.272,-0.375 c -0.153,-0.258 -0.233,-0.457 -0.11,-0.747 0.11,-0.156 0.279,-0.261 0.444,-0.353 0.252,-0.076 0.428,0.01 0.626,0.168 l 0.417,0.574 1.583,-1.05 c -0.17,-1.221 0.323,-2.496 1.389,-3.264 1.217,-0.877 2.826,-0.835 3.989,-0.013 l 2.419,-1.358 c 0.096,-0.281 0.189,-0.564 0.279,-0.847 0.514,-1.705 0.855,-3.442 0.967,-5.224 l 18.629,-7.266 -12.792,15.371 c -0.818,-0.217 -1.647,-0.38 -2.482,-0.507 -0.755,-0.105 -1.508,-0.172 -2.262,-0.206 l 10.83,-9.827 -6.996,5.042 -5.243,4.757 c 0,0 0,0 0,0 l -2.053,1.863 c 0.413,1.364 -0.058,2.903 -1.276,3.78 -1.069,0.771 -2.44,0.834 -3.546,0.28 l -1.486,1.152 0.262,0.361 c 0.153,0.258 0.234,0.459 0.11,0.748 -0.11,0.157 -0.281,0.261 -0.445,0.354 -0.252,0.075 -0.427,-0.012 -0.624,-0.169 l -0.35,-0.482 -2.525,1.958 0,-10e-4 -7.44,5.77 z"/>
  <path style="fill:#b1b4b6" d="m 468.219,406.975 c 2.243,-1.889 4.603,-3.492 7.197,-4.864 3.997,-2.114 10.647,-4.468 19.588,-1.624 -0.657,0.609 -1.269,1.237 -1.839,1.89 -7.475,-2.059 -14.585,-0.066 -20.904,4.489 -6.281,4.53 -10.373,10.681 -10.804,18.364 -0.829,0.344 -1.637,0.732 -2.418,1.174 -0.059,-10.123 6.358,-17.054 9.18,-19.429 z m 38.305,12.466 c -0.09,0.284 -0.183,0.566 -0.28,0.847 l 6.182,-3.471 6.989,-5.035 -12.745,7.157 c -0.047,0.168 -0.096,0.335 -0.146,0.502 z m -4.683,1.574 c 1.888,0 3.428,1.54 3.428,3.428 0,1.888 -1.54,3.429 -3.428,3.429 -0.553,0 -1.078,-0.133 -1.541,-0.368 l -0.719,0.557 -0.108,0.084 -0.659,0.511 -1.949,-2.683 0.711,-0.471 0.109,-0.073 0.761,-0.505 c -0.022,-0.158 -0.033,-0.318 -0.033,-0.481 0,-1.888 1.539,-3.428 3.428,-3.428 z m -1.791,6.349 c -0.012,-0.007 -0.023,-0.014 -0.035,-0.021 -0.007,-0.005 -0.014,-0.009 -0.021,-0.014 0,0 0,0 0,0 -0.578,-0.371 -1.038,-0.911 -1.309,-1.548 0.097,0.23 0.222,0.454 0.374,0.665 0.261,0.362 0.579,0.657 0.935,0.883 m 1.661,-5.642 c 1.311,0 2.381,1.07 2.381,2.381 0,1.31 -1.07,2.381 -2.381,2.381 -1.311,0 -2.38,-1.071 -2.38,-2.381 0,-1.311 1.069,-2.381 2.38,-2.381 z m -1.605,5.677 c -0.012,-0.007 -0.023,-0.014 -0.035,-0.021 m -5.063,-0.1 1.592,2.211 -11.242,8.382 -2.001,-2.779 c -0.014,-0.019 -0.028,-0.037 -0.042,-0.056 l -0.821,0.545 2.603,3.582 c 0.029,0.051 0.057,0.098 0.08,0.146 l 0.468,-0.363 c 0,0 0,10e-4 0,10e-4 l 11.4,-8.841 0.778,-0.603 -2.007,-2.762 -0.808,0.537 z m -6.675,10.809 1.944,-1.508 c 0.791,1.436 1.467,2.931 2.01,4.462 1.06,3.145 1.374,6.442 0.834,9.728 1.578,-2.841 2.179,-6.134 2.103,-9.361 -0.103,-2.333 -0.581,-4.482 -1.455,-6.647 -0.095,-0.222 -0.192,-0.444 -0.289,-0.665 l -5.148,3.99 c 0,0 0,0 10e-4,0.001 z m 4.725,-10.677 -2.059,1.366 c -0.524,-1.119 -1.035,-2.242 -1.507,-3.382 -1.764,-4.459 -2.237,-9.438 -1.082,-14.111 0.337,-1.198 0.746,-2.317 1.255,-3.453 0.802,-1.661 1.735,-3.163 2.836,-4.553 -7.026,-1.758 -13.651,0.262 -19.544,4.512 -5.707,4.116 -9.791,9.708 -10.392,17.074 3.96,-1.372 8.159,-1.579 12.269,-0.713 l 1.025,0.255 c 1.728,0.493 3.311,1.139 4.889,2 1.909,1.101 3.548,2.383 5.066,3.984 0.348,0.375 0.686,0.76 1.016,1.153 l -2.025,1.344 c 0.211,0.246 0.418,0.497 0.62,0.75 l 2.018,-1.339 3.974,-2.637 c 0,0 0,0 0,0 l 2.052,-1.361 -0.411,-0.889 z"/>
  <path style="fill:#e21c2a" d="m 316.055,560.618 17.177,-12.384 c -0.186,-1.178 0.075,-2.699 0.402,-4.249 -0.173,-0.07 -0.346,-0.144 -0.519,-0.221 l -1.522,1.098 c -0.381,0.82 -0.719,1.664 -0.986,2.569 -0.337,-0.405 -0.495,-0.909 -0.524,-1.481 l -16.189,11.673 c -0.999,0.72 1.163,3.716 2.161,2.995 z m 18.49,-13.33 1.908,-1.376 c 0.029,-0.356 0.067,-0.719 0.108,-1.084 -0.388,-0.065 -0.773,-0.147 -1.157,-0.248 -0.315,0.905 -0.614,1.797 -0.859,2.708 z m 72.109,-51.991 76.312,-55.019 -2.172,-2.989 -84.76,61.111 10.62,-3.103 z"/>
  <path style="fill:#f39b7e" d="m 481.651,438.47 -81.538,58.738 -2.786,0.814 83.755,-60.335 0.569,0.783 z m -148.269,106.812 -2.716,1.957 c 0.172,-0.559 0.373,-1.096 0.592,-1.619 l 2.309,-1.663 c 0.022,0.009 0.044,0.019 0.067,0.028 -0.093,0.437 -0.179,0.872 -0.252,1.297 z m -2.849,2.053 -15.643,11.269 -0.566,-0.785 15.818,-11.396 c 0.068,0.338 0.194,0.645 0.391,0.912 z"/>
  <path style="fill:#88898b" d="m 385.479,664.255 2.511,-0.607 -0.817,-0.522 -1.694,1.129 z m 17.87,-246.793 c -1.742,-0.604 -3.133,-0.801 -4.545,-0.844 0.057,-2.107 2.109,-1.487 2.996,-0.901 0.603,0.398 0.96,0.891 1.549,1.745 z m -51.433,97.145 1.828,-0.859 -0.708,-0.272 -1.12,1.131 z m -7.309,7.939 1.841,-1.612 -0.916,-0.08 -0.925,1.692 z m 1.881,2.311 2.05,-1.883 -1.043,-0.065 -1.007,1.948 z m 57.713,68.457 -0.058,-2.454 -0.65,0.654 0.708,1.8 z m 1.499,-142.538 0.559,-2.528 -0.83,0.506 0.271,2.022 z m 7.721,-5.273 0.254,-2.576 -0.764,0.601 0.51,1.975 z m 1.757,-7.715 -0.591,-2.52 -0.529,0.815 1.12,1.705 z m 5.924,3.799 -0.591,-2.52 -0.53,0.815 1.121,1.705 z m 4.954,-15.564 -1.151,-2.318 -0.329,0.915 1.48,1.403 z m -1.606,9.083 -0.73,-2.483 -0.483,0.843 1.213,1.64 z m -13.933,16.863 1.171,-2.961 -1.107,0.453 -0.064,2.508 z m 8.206,-4.048 0.282,-3.058 -0.901,0.719 0.619,2.339 z m -9.892,23.56 1.594,-2.926 -1.207,0.329 -0.387,2.597 z m 5.431,-5.198 1.228,-2.279 -0.937,0.259 -0.291,2.02 z m -5.058,1.012 1.228,-2.279 -0.937,0.259 -0.291,2.02 z m -4.747,0.778 1.228,-2.279 -0.937,0.259 -0.291,2.02 z m -56.552,49.863 1.84,-1.612 -0.915,-0.079 -0.925,1.691 z m 76.373,21.718 1.999,-5.371 -1.975,0.856 -0.024,4.515 z m 13.504,-8.3 1.299,-3.493 -1.285,0.557 -0.014,2.936 z m -3.478,3.726 1.482,-3.985 -1.465,0.635 -0.017,3.35 z m -57.846,-12.986 2.445,-0.46 -0.781,-0.417 -1.664,0.877 z m 30.045,-18.176 2.471,-0.772 -0.852,-0.469 -1.619,1.241 z m -24.261,21.67 2.471,-0.771 -0.852,-0.47 -1.619,1.241 z m 12.384,0.792 2.472,-0.771 -0.852,-0.469 -1.62,1.24 z m -20.734,-13.579 2.445,-0.461 -0.781,-0.416 -1.664,0.877 z m 28.862,-2.97 2.472,-0.771 -0.852,-0.469 -1.62,1.24 z m 5.005,4.923 2.472,-0.771 -0.852,-0.469 -1.62,1.24 z m -8.871,1.329 2.472,-0.771 -0.853,-0.469 -1.619,1.24 z m -4.337,-4.967 2.471,-0.771 -0.852,-0.469 -1.619,1.24 z m -7.701,-0.357 2.472,-0.771 -0.852,-0.468 -1.62,1.239 z m -17.903,6.877 2.444,-0.46 -0.78,-0.417 -1.664,0.877 z m 14.375,0.573 2.472,-0.771 -0.852,-0.469 -1.62,1.24 z m 8.599,1.909 2.472,-0.771 -0.852,-0.469 -1.62,1.24 z m -13.525,-12.814 2.471,-0.771 -0.852,-0.469 -1.619,1.24 z m 25.736,13.992 2.471,-0.771 -0.852,-0.469 -1.619,1.24 z m -5.842,-17.808 2.472,-0.771 -0.852,-0.469 -1.62,1.24 z m -7.42,1.885 2.472,-0.772 -0.853,-0.468 -1.619,1.24 z m 20.164,18.136 2.471,-0.771 -0.852,-0.469 -1.619,1.24 z m 22.965,-57.522 2.157,-1.432 -0.949,-0.213 -1.208,1.645 z m -15.558,5.786 2.646,-3.629 -1.671,0.227 -0.975,3.402 z m -13.046,2.791 2.034,-3.733 -1.54,0.42 -0.494,3.313 z m -2.417,-0.796 1.84,-3.833 -1.516,0.499 -0.324,3.334 z m 3.207,-4.077 1.594,-2.926 -1.207,0.329 -0.387,2.597 z m 9.419,0.925 2.274,-3.592 -1.565,0.318 -0.709,3.274 z m 18.514,-9.068 2.157,-1.431 -0.949,-0.213 -1.208,1.644 z m 5.179,-3.884 2.342,-1.103 -0.909,-0.348 -1.433,1.451 z m -13.267,5.318 1.63,-2.011 -0.969,0.082 -0.661,1.929 z m 12.14,-0.943 2.342,-1.104 -0.908,-0.348 -1.434,1.452 z m -7.472,-0.698 2.157,-1.432 -0.949,-0.213 -1.208,1.645 z m -18.913,9.847 2.275,-3.592 -1.565,0.318 -0.71,3.274 z m -1.782,5.253 2.274,-3.593 -1.565,0.319 -0.709,3.274 z m 13.362,-9.642 1.816,-1.845 -0.973,-0.013 -0.843,1.858 z m -1.452,6.109 1.782,-2.815 -1.226,0.249 -0.556,2.566 z m 7.656,-7.663 1.816,-1.844 -0.973,-0.013 -0.843,1.857 z m -0.19,3.811 2.16,-1.429 -0.949,-0.213 -1.211,1.642 z m -10.282,-2.519 1.782,-2.815 -1.227,0.249 -0.555,2.566 z m -14.724,22.547 2.034,-3.734 -1.541,0.42 -0.493,3.314 z m 0.218,-4.878 2.743,-5.034 -2.077,0.567 -0.666,4.467 z m 8.444,-8.977 2.274,-3.593 -1.565,0.318 -0.709,3.275 z m 13.631,-34.049 -0.729,-2.483 -0.484,0.843 1.213,1.64 z m 13.019,-1.653 -1.027,-3.477 -0.674,1.182 1.701,2.295 z m -1.995,15.388 -0.181,-4.884 -1.276,1.32 1.457,3.564 z m -16.862,-4.183 0.76,-2.977 -1.004,0.568 0.244,2.409 z m 12.494,-28.044 -1.152,-2.318 -0.329,0.914 1.481,1.404 z m -4.196,14.59 -0.73,-2.483 -0.483,0.843 1.213,1.64 z m 4.278,18.926 -0.18,-4.883 -1.276,1.319 1.456,3.564 z m -7.798,2.459 0.739,-4.831 -1.501,1.057 0.762,3.774 z m 4.757,-26.642 -0.885,-2.433 -0.43,0.872 1.315,1.561 z m -34.03,106.143 1.111,-2.985 -1.098,0.476 -0.013,2.509 z m 59.096,91.564 -0.028,-2.455 -0.658,0.646 0.686,1.809 z m -7.272,8.261 -0.027,-2.455 -0.658,0.647 0.685,1.808 z m -4.517,-8.373 -0.041,-3.641 -0.975,0.958 1.016,2.683 z m -12.693,0.875 -0.03,-2.656 -0.712,0.699 0.742,1.957 z m 14.464,4.931 0.032,-3.226 -0.882,0.83 0.85,2.396 z m -0.421,-16.324 0.49,-3.146 -0.98,0.686 0.49,2.46 z m -3.647,-29.423 1.454,-3.767 -1.399,0.586 -0.055,3.181 z m 8.638,-0.06 0.933,-2.415 -0.897,0.374 -0.036,2.041 z m -1.697,-9.272 0.933,-2.416 -0.897,0.376 -0.036,2.04 z m -1.222,-134.575 -0.46,-2.548 -0.571,0.788 1.031,1.76 z m -9.542,-11.774 -0.925,-2.417 -0.415,0.879 1.34,1.538 z m 3.524,17.092 -0.504,-4.221 -1.012,1.234 1.516,2.987 z m -12.382,-5.248 -0.33,-3.053 -0.741,0.884 1.071,2.169 z m 2.591,-2.529 -0.387,-3.581 -0.869,1.036 1.256,2.545 z m 3.699,-13.237 -0.924,-2.418 -0.415,0.879 1.339,1.539 z m -13.348,26.204 1.052,-4.121 -1.39,0.787 0.338,3.334 z m -3.562,-0.21 1.063,-3.466 -1.215,0.613 0.152,2.853 z m -1.902,-3.541 0.76,-2.977 -1.004,0.568 0.244,2.409 z m 8.645,-5.647 -0.114,-3.069 -0.801,0.828 0.915,2.241 z m -22.908,9.203 1.12,-2.334 -0.924,0.304 -0.196,2.03 z m 29.443,-28.845 -0.925,-2.418 -0.415,0.879 1.34,1.539 z m 6.605,0.893 -1.151,-2.318 -0.329,0.914 1.48,1.404 z m 3.644,6.738 -0.849,-2.446 -0.442,0.866 1.291,1.58 z m 2.769,5.396 -0.722,-2.486 -0.486,0.842 1.208,1.644 z m -10.578,-2.895 -0.828,-3.529 -0.74,1.142 1.568,2.387 z m 8.312,7.394 -0.814,-4.173 -0.918,1.306 1.732,2.867 z m 2.442,5.065 -0.344,-4.238 -1.058,1.195 1.402,3.043 z m -8.086,-7.013 -0.828,-3.529 -0.741,1.141 1.569,2.388 z m -2.596,6.761 -0.581,-4.853 -1.163,1.42 1.744,3.433 z m -3.967,9.565 0.212,-4.883 -1.377,1.213 1.165,3.67 z m -0.28,-6.869 -0.181,-4.884 -1.275,1.319 1.456,3.565 z m -3.844,0.841 0.212,-4.882 -1.377,1.213 1.165,3.669 z m -13.735,3.141 1.333,-3.372 -1.26,0.516 -0.073,2.856 z m 0.01,5.72 1.563,-3.955 -1.478,0.605 -0.085,3.35 z m -3.336,-0.827 1.17,-2.962 -1.107,0.454 -0.063,2.508 z m -1.572,-3.823 1.171,-2.962 -1.108,0.453 -0.063,2.509 z m -3.124,3.749 1.17,-2.962 -1.107,0.453 -0.063,2.509 z m 13.76,0.591 1.051,-4.121 -1.389,0.787 0.338,3.334 z m 3.928,-0.24 1.186,-4.64 -1.566,0.886 0.38,3.754 z m 16.444,-12.787 -0.707,-4.192 -0.952,1.282 1.659,2.91 z m -22.763,9.979 0.896,-3.513 -1.184,0.67 0.288,2.843 z m 5.323,81.434 1.483,-3.985 -1.466,0.636 -0.017,3.349 z m -8.503,-0.632 1.482,-3.986 -1.465,0.636 -0.017,3.35 z m -8.272,-0.515 1.482,-3.985 -1.465,0.635 -0.017,3.35 z m -4.403,0.367 1.482,-3.985 -1.465,0.635 -0.017,3.35 z m -42.124,-27.61 3.225,-0.564 -1.02,-0.562 -2.205,1.126 z m -3.152,4.165 3.611,-1.174 -1.257,-0.673 -2.354,1.847 z m 0.812,4.634 3.611,-1.173 -1.257,-0.673 -2.354,1.846 z m 53.139,18.271 1.483,-3.986 -1.466,0.636 -0.017,3.35 z m 8.693,-0.326 1.482,-3.986 -1.465,0.636 -0.017,3.35 z m 13.388,50.015 1.531,-3.966 -1.473,0.616 -0.058,3.35 z m 15.652,-10.453 0.933,-2.416 -0.897,0.376 -0.036,2.04 z m -30.25,-14.422 0.9,-4.155 -1.359,0.837 0.459,3.318 z m 6.979,0.298 0.9,-4.155 -1.359,0.837 0.459,3.318 z m -21.156,84.274 0.48,-2.407 -0.777,0.496 0.297,1.911 z m -4.247,-103.519 1.482,-3.985 -1.465,0.634 -0.017,3.351 z m 1.327,18.218 1.11,-2.985 -1.097,0.476 -0.013,2.509 z m 5.052,-3.658 1.998,-5.371 -1.975,0.856 -0.023,4.515 z m 20.061,-10.029 1.482,-3.985 -1.465,0.635 -0.017,3.35 z m -2.034,21.232 0.402,-3.216 -0.976,0.728 0.574,2.488 z m -4.386,3.8 0.402,-3.216 -0.976,0.728 0.574,2.488 z m 5.388,2.155 0.402,-3.215 -0.976,0.728 0.574,2.487 z m -73.247,-55.489 2.927,-1.964 -1.293,-0.282 -1.634,2.246 z m -1.134,6.652 1.488,-1.366 -0.757,-0.048 -0.731,1.414 z m 7.57,-3.719 1.828,-0.859 -0.708,-0.272 -1.12,1.131 z m -4.459,-0.018 2.384,-1.435 -1.008,-0.273 -1.376,1.708 z m -8.133,4.609 2.05,-1.883 -1.043,-0.066 -1.007,1.949 z m -2.026,-2.274 1.904,-1.748 -0.969,-0.061 -0.935,1.809 z m 24.509,-13.609 2.482,-0.739 -0.846,-0.48 -1.636,1.219 z m 50.876,-32.331 1.229,-2.279 -0.938,0.259 -0.291,2.02 z m 8.413,-6.25 1.674,-1.974 -0.971,0.059 -0.703,1.915 z m -4.327,3.983 1.228,-2.28 -0.937,0.26 -0.291,2.02 z m 4.671,-7.841 2.328,-2.384 -1.252,-0.011 -1.076,2.395 z m -24.485,21.262 1.84,-3.833 -1.516,0.498 -0.324,3.335 z m 0.573,-5.372 1.84,-3.833 -1.516,0.498 -0.324,3.335 z m 6.949,-2.834 2.371,-5.218 -2.03,0.715 -0.341,4.503 z m -1.818,-5.25 2.743,-5.033 -2.077,0.566 -0.666,4.467 z m 3.327,8.072 1.759,-3.871 -1.506,0.53 -0.253,3.341 z m 3.903,-3.331 1.758,-3.871 -1.506,0.531 -0.252,3.34 z m 4.805,-6.019 1.782,-2.816 -1.226,0.249 -0.556,2.567 z m -6.648,3.858 1.759,-3.871 -1.507,0.53 -0.252,3.341 z m 3.258,-3.375 2.404,-3.795 -1.653,0.336 -0.751,3.459 z m -12.9,2.837 1.84,-3.833 -1.516,0.498 -0.324,3.335 z m 39.488,47.52 1.216,-3.271 -1.202,0.521 -0.014,2.75 z m -3.256,8.394 1.217,-3.27 -1.202,0.52 -0.015,2.75 z m -3.054,6.206 1.482,-3.985 -1.465,0.635 -0.017,3.35 z m -1.071,8.258 1.483,-3.985 -1.466,0.635 -0.017,3.35 z m -2.799,-3.647 1.483,-3.985 -1.466,0.635 -0.017,3.35 z m -8.074,-2.352 1.483,-3.984 -1.465,0.634 -0.018,3.35 z m 5.078,-6.139 1.306,-3.511 -1.29,0.56 -0.016,2.951 z m 6.456,63.002 2.065,-5.346 -1.985,0.831 -0.08,4.515 z m 3.82,35.034 -0.041,-3.641 -0.975,0.959 1.016,2.682 z m -2.828,0.838 -0.041,-3.641 -0.975,0.959 1.016,2.682 z m 0.629,-4.399 -0.041,-3.641 -0.975,0.959 1.016,2.682 z m -3.247,0.943 -0.041,-3.641 -0.975,0.959 1.016,2.682 z m 0.524,-4.294 -0.041,-3.641 -0.975,0.959 1.016,2.682 z m 5.4,0.639 -0.042,-3.641 -0.975,0.959 1.017,2.682 z m -5.172,-6.35 0.348,-4.237 -1.238,1.008 0.89,3.229 z m -3.246,1.257 0.348,-4.237 -1.238,1.008 0.89,3.229 z m 8.273,-18.183 1.531,-3.967 -1.473,0.617 -0.058,3.35 z m -10.967,9.938 0.679,-4.197 -1.314,0.907 0.635,3.29 z m -3.142,-1.99 0.679,-4.197 -1.314,0.907 0.635,3.29 z m -3.175,-2.22 1.147,-2.971 -1.103,0.462 -0.044,2.509 z m -0.105,-5.446 1.147,-2.971 -1.103,0.463 -0.044,2.508 z m 6.534,-8.176 2.065,-5.346 -1.986,0.831 -0.079,4.515 z m 1.047,4.294 2.065,-5.346 -1.985,0.831 -0.08,4.515 z m -2.677,9.045 1.532,-3.967 -1.473,0.617 -0.059,3.35 z m 3.305,0.904 2.065,-5.346 -1.985,0.831 -0.08,4.515 z m -1.256,-3.979 2.065,-5.347 -1.986,0.832 -0.079,4.515 z m 2.932,-3.98 2.065,-5.346 -1.986,0.831 -0.079,4.515 z m 1.047,-6.912 2.065,-5.346 -1.985,0.831 -0.08,4.515 z m -6.78,2.728 1.532,-3.968 -1.473,0.617 -0.059,3.351 z m -23.362,-34.024 1.482,-3.985 -1.464,0.636 -0.018,3.349 z m 17.449,-14.431 1.483,-3.984 -1.465,0.635 -0.018,3.349 z m -2.528,-8.262 1.999,-5.371 -1.975,0.856 -0.024,4.515 z m -3.358,4.105 1.999,-5.372 -1.975,0.856 -0.024,4.516 z m -3.392,-0.727 1.999,-5.371 -1.975,0.856 -0.024,4.515 z m -10.94,4.911 1.482,-3.986 -1.465,0.636 -0.017,3.35 z m 16.892,4.72 1.481,-3.985 -1.464,0.635 -0.017,3.35 z m -4.061,2.105 1.482,-3.985 -1.465,0.635 -0.017,3.35 z m 18.944,-17.96 1.482,-3.985 -1.465,0.636 -0.017,3.349 z m -3.934,1.816 1.483,-3.986 -1.466,0.636 -0.017,3.35 z m -30.037,16.704 1.11,-2.984 -1.097,0.475 -0.013,2.509 z m -2.95,-2.93 1.11,-2.985 -1.098,0.476 -0.012,2.509 z m 14.399,6.434 1.771,-4.757 -1.749,0.758 -0.022,3.999 z m 1.093,-9.903 1.999,-5.372 -1.975,0.856 -0.024,4.516 z m -3.82,0.755 1.999,-5.371 -1.976,0.856 -0.023,4.515 z m -2.884,-2.143 1.999,-5.372 -1.975,0.856 -0.024,4.516 z m 3.333,-4.544 1.999,-5.371 -1.975,0.856 -0.024,4.515 z m -4.816,0.628 1.999,-5.371 -1.975,0.856 -0.024,4.515 z m 8.046,51.422 -0.841,-2.307 -0.407,0.828 1.248,1.479 z m 5.729,1.763 -0.841,-2.307 -0.406,0.828 1.247,1.479 z m 2.816,-6.937 -0.058,-2.454 -0.65,0.654 0.708,1.8 z m -11.107,-5.374 -0.059,-2.455 -0.65,0.654 0.709,1.801 z m -12.405,-24.208 0.683,-3.154 -1.032,0.635 0.349,2.519 z m 36.703,6.295 0.639,-2.952 -0.965,0.595 0.326,2.357 z m -20.475,16.986 0.402,-3.216 -0.976,0.728 0.574,2.488 z m 16.621,-9.453 0.402,-3.215 -0.976,0.727 0.574,2.488 z m -5.202,7.068 0.403,-3.216 -0.976,0.728 0.573,2.488 z m -5.398,1.844 0.402,-3.215 -0.976,0.728 0.574,2.487 z m -3.736,7.592 -0.315,-3.225 -0.793,0.925 1.108,2.3 z m -3.964,-11.613 0.403,-3.215 -0.976,0.728 0.573,2.487 z m 8.754,-4.379 0.403,-3.215 -0.976,0.727 0.573,2.488 z m -4.183,3.738 0.402,-3.215 -0.976,0.727 0.574,2.488 z m 19.921,-5.534 0.64,-2.952 -0.966,0.595 0.326,2.357 z m -7.41,-5.587 0.64,-2.952 -0.966,0.595 0.326,2.357 z m 0.136,-5.866 0.9,-4.155 -1.359,0.837 0.459,3.318 z m 0.918,-6.656 1.281,-3.442 -1.266,0.549 -0.015,2.893 z m -7.411,-0.918 1.482,-3.986 -1.465,0.636 -0.017,3.35 z m 8.669,-6.188 1.11,-2.984 -1.097,0.476 -0.013,2.508 z m -4.636,3.951 1.483,-3.986 -1.466,0.636 -0.017,3.35 z m 3.28,-7.284 1.483,-3.985 -1.465,0.635 -0.018,3.35 z m 15.396,-10.016 0.902,-2.426 -0.891,0.386 -0.011,2.04 z m -23.663,8.441 1.998,-5.373 -1.974,0.858 -0.024,4.515 z m 26.999,8.311 0.903,-2.426 -0.892,0.386 -0.011,2.04 z m 1.824,-8.668 0.903,-2.426 -0.892,0.387 -0.011,2.039 z m -4.788,22.131 0.903,-2.426 -0.892,0.386 -0.011,2.04 z m -41.168,9.658 0.402,-3.215 -0.976,0.727 0.574,2.488 z m 37.323,-25.845 0.902,-2.426 -0.891,0.386 -0.011,2.04 z m 0.555,7.768 0.902,-2.426 -0.892,0.386 -0.01,2.04 z m -8.408,-4.195 0.903,-2.426 -0.892,0.386 -0.011,2.04 z m 4.841,11.601 0.902,-2.426 -0.892,0.386 -0.01,2.04 z m -3.995,-4.988 0.902,-2.427 -0.892,0.387 -0.01,2.04 z m -35.585,-7.893 1.482,-3.984 -1.465,0.634 -0.017,3.35 z m 11.322,38.923 -0.057,-2.454 -0.65,0.654 0.707,1.8 z m -11.568,-24.685 0.683,-3.154 -1.032,0.635 0.349,2.519 z m 2.981,-1.857 0.683,-3.154 -1.031,0.635 0.348,2.519 z m 1.137,5.752 0.683,-3.154 -1.031,0.636 0.348,2.518 z m -3.539,3.261 0.66,-2.573 -0.869,0.49 0.209,2.083 z m 2.296,6.56 -0.063,-2.655 -0.703,0.707 0.766,1.948 z m 3.758,4.887 -0.062,-2.656 -0.704,0.708 0.766,1.948 z m 2.036,-4.604 -0.063,-2.656 -0.703,0.708 0.766,1.948 z m -0.015,-7.489 0.403,-3.215 -0.976,0.728 0.573,2.487 z m 5.919,2.595 0.947,-3.099 -1.087,0.55 0.14,2.549 z m -3.915,-20.387 1.483,-3.985 -1.465,0.636 -0.018,3.349 z m -3.309,12.801 0.9,-4.155 -1.359,0.836 0.459,3.319 z m 5.494,3.728 0.767,-4.182 -1.331,0.88 0.564,3.302 z m 4.486,-3.311 0.9,-4.155 -1.359,0.837 0.459,3.318 z m 4.09,-4.41 0.901,-4.155 -1.36,0.837 0.459,3.318 z m -6.709,0.543 0.9,-4.155 -1.359,0.837 0.459,3.318 z m -3.992,1.565 0.9,-4.155 -1.359,0.836 0.459,3.319 z m -2.215,-5.547 1.482,-3.985 -1.464,0.636 -0.018,3.349 z m -10.559,-13.206 1.11,-2.985 -1.098,0.476 -0.012,2.509 z m 41.029,7.055 0.903,-2.426 -0.893,0.386 -0.01,2.04 z m -34.729,-14.137 1.482,-3.985 -1.465,0.635 -0.017,3.35 z m -2.423,5.719 1.482,-3.986 -1.465,0.636 -0.017,3.35 z m 18.303,2.412 1.482,-3.986 -1.465,0.635 -0.017,3.351 z m -3.261,2.243 1.483,-3.985 -1.465,0.635 -0.018,3.35 z m -2.888,2.812 1.482,-3.985 -1.464,0.635 -0.018,3.35 z m -10.066,0.36 1.482,-3.985 -1.465,0.634 -0.017,3.351 z m 0.554,4.724 1.482,-3.985 -1.464,0.635 -0.018,3.35 z m 37.919,-17.228 0.904,-2.426 -0.893,0.387 -0.011,2.039 z m -29.698,-0.902 1.998,-5.372 -1.975,0.856 -0.023,4.516 z m 4.471,-0.696 1.998,-5.373 -1.974,0.857 -0.024,4.516 z m -8.797,1.801 1.999,-5.371 -1.975,0.856 -0.024,4.515 z m 38.275,-12.091 0.903,-2.426 -0.893,0.386 -0.01,2.04 z m -36.622,48.244 0.402,-3.216 -0.976,0.728 0.574,2.488 z m 48.256,77.463 -0.028,-2.455 -0.658,0.646 0.686,1.809 z m -4.808,-1.146 -0.028,-2.455 -0.658,0.646 0.686,1.809 z m 8.052,-2.898 -0.028,-2.455 -0.658,0.646 0.686,1.809 z m -29.468,-25.065 0.442,-3.211 -0.985,0.716 0.543,2.495 z m 22.831,-3.983 0.933,-2.415 -0.897,0.375 -0.036,2.04 z m -1.233,8.649 -0.028,-2.455 -0.658,0.646 0.686,1.809 z m -12.268,8.083 -0.041,-3.641 -0.975,0.959 1.016,2.682 z m 9.647,1.162 -0.028,-2.455 -0.658,0.646 0.686,1.809 z m -6.368,-47.509 1.455,-3.767 -1.399,0.586 -0.056,3.181 z m 5.922,34.929 0.722,-3.145 -1.039,0.622 0.317,2.523 z m 2.835,-11.273 0.42,-2.69 -0.838,0.587 0.418,2.103 z m -3.213,5.699 0.49,-3.147 -0.98,0.686 0.49,2.461 z m 9.87,19.105 -0.027,-2.455 -0.658,0.646 0.685,1.809 z m -3.007,-7.541 -0.028,-2.455 -0.657,0.646 0.685,1.809 z m -5.246,-29.541 0.932,-2.416 -0.896,0.376 -0.036,2.04 z m 4.851,10.672 0.932,-2.415 -0.897,0.375 -0.035,2.04 z m -5.784,-3.929 0.932,-2.415 -0.897,0.375 -0.035,2.04 z m -13.99,-28.15 1.349,-3.494 -1.297,0.543 -0.052,2.951 z m -9.7,25.159 1.531,-3.966 -1.473,0.616 -0.058,3.35 z m 20.368,-2.633 0.933,-2.415 -0.897,0.375 -0.036,2.04 z m 2.008,45.212 -0.028,-2.455 -0.658,0.646 0.686,1.809 z m 7.838,-2.439 -0.028,-2.455 -0.658,0.646 0.686,1.809 z m -2.914,-7.835 -0.028,-2.455 -0.658,0.646 0.686,1.809 z m -15.952,1.388 -0.027,-2.455 -0.658,0.646 0.685,1.809 z m 6.295,5.097 -0.028,-2.455 -0.658,0.646 0.686,1.809 z m 0.15,-4.85 -0.028,-2.455 -0.658,0.646 0.686,1.809 z m -18.524,-26.591 0.723,-3.145 -1.04,0.622 0.317,2.523 z m 2.746,2.302 0.722,-3.145 -1.039,0.623 0.317,2.522 z m 2.257,3.946 0.348,-4.237 -1.238,1.008 0.89,3.229 z m -3.686,0.795 0.692,-2.565 -0.875,0.479 0.183,2.086 z m 2.957,7.348 -0.03,-2.657 -0.712,0.699 0.742,1.958 z m 2.629,3.588 -0.03,-2.656 -0.712,0.699 0.742,1.957 z m 3.395,2.176 -0.029,-2.656 -0.712,0.699 0.741,1.957 z m 9.306,-14.016 0.491,-3.146 -0.98,0.686 0.489,2.46 z m -9.286,-15.638 1.532,-3.967 -1.473,0.618 -0.059,3.349 z m -3.01,11.055 0.951,-4.143 -1.369,0.82 0.418,3.323 z m 5.531,8.239 0.819,-4.172 -1.342,0.863 0.523,3.309 z m 4.637,-8.08 0.951,-4.144 -1.369,0.82 0.418,3.324 z m 2.307,-4.78 0.952,-4.144 -1.37,0.82 0.418,3.324 z m -4.975,2.102 0.951,-4.144 -1.369,0.82 0.418,3.324 z m -4.027,1.253 0.951,-4.144 -1.369,0.821 0.418,3.323 z m -1.218,-4.832 1.53,-3.967 -1.472,0.617 -0.058,3.35 z m 14.008,-19.896 0.933,-2.415 -0.897,0.375 -0.036,2.04 z m 3.484,2.076 0.932,-2.415 -0.896,0.375 -0.036,2.04 z m 1.7,4.872 0.933,-2.415 -0.897,0.375 -0.036,2.04 z m -5.204,1.105 0.933,-2.414 -0.896,0.376 -0.037,2.038 z m -1.496,9.358 0.933,-2.415 -0.897,0.376 -0.036,2.039 z m 6.985,-2.569 0.934,-2.415 -0.898,0.375 -0.036,2.04 z m -24.691,-18.553 0.933,-2.415 -0.897,0.376 -0.036,2.039 z m -0.246,4.501 1.531,-3.966 -1.473,0.617 -0.058,3.349 z m -2.998,4.696 1.532,-3.967 -1.473,0.617 -0.059,3.35 z m 14.026,-3.111 1.532,-3.967 -1.473,0.617 -0.059,3.35 z m 4.55,2.559 1.532,-3.967 -1.474,0.617 -0.058,3.35 z m -0.339,5.961 1.323,-3.425 -1.273,0.533 -0.05,2.892 z m -6.708,7.84 1.829,-4.736 -1.759,0.737 -0.07,3.999 z m 3.592,-10.684 1.531,-3.967 -1.473,0.618 -0.058,3.349 z m -2.636,3.824 1.531,-3.967 -1.473,0.617 -0.058,3.35 z m -10.241,0.846 1.532,-3.967 -1.473,0.617 -0.059,3.35 z m -2.625,-0.648 1.531,-3.967 -1.473,0.617 -0.058,3.35 z m 16.236,5.891 1.532,-3.967 -1.473,0.617 -0.059,3.35 z m 4.262,-21.027 1.454,-3.767 -1.399,0.586 -0.055,3.181 z m -7.905,2.489 2.064,-5.347 -1.986,0.832 -0.078,4.515 z m -2.248,-2.262 2.065,-5.346 -1.986,0.831 -0.079,4.515 z m -2.783,3.571 2.064,-5.347 -1.985,0.832 -0.079,4.515 z m 11.465,-10.13 1.453,-3.767 -1.397,0.586 -0.056,3.181 z m 2.262,1.409 0.932,-2.415 -0.897,0.375 -0.035,2.04 z m 9.666,1.899 0.932,-2.415 -0.896,0.375 -0.036,2.04 z m -0.761,-9.573 0.932,-2.415 -0.896,0.375 -0.036,2.04 z m -3.401,5.644 0.932,-2.415 -0.897,0.376 -0.035,2.039 z m -8.68,-4.36 0.933,-2.416 -0.897,0.376 -0.036,2.04 z m -3.095,8.043 2.064,-5.347 -1.985,0.831 -0.079,4.516 z m -1.536,-4.235 1.514,-3.92 -1.456,0.61 -0.058,3.31 z m 13.209,66.587 -0.028,-2.455 -0.658,0.646 0.686,1.809 z m -10.581,-24.171 -0.043,-3.641 -0.975,0.959 1.018,2.682 z m -2.779,-2.919 1.106,-3.469 -1.227,0.602 0.121,2.867 z m 5.005,11.54 -0.042,-3.641 -0.975,0.958 1.017,2.683 z m -0.938,4.8 -0.041,-3.641 -0.975,0.958 1.016,2.683 z m 2.503,3.129 -0.04,-3.641 -0.976,0.958 1.016,2.683 z m 2.184,6.764 -0.032,-2.884 -0.773,0.759 0.805,2.125 z m -85.834,-131.456 3.225,-0.565 -1.02,-0.561 -2.205,1.126 z m 1.826,4.692 2.452,-0.428 -0.776,-0.427 -1.676,0.855 z m 93.067,32.382 0.344,-2.566 -0.783,0.574 0.439,1.992 z m -2.892,-17.596 0.345,-2.565 -0.785,0.574 0.44,1.991 z m -0.836,29.761 0.345,-2.567 -0.784,0.574 0.439,1.993 z m -62.606,40.735 1.337,-3.371 -1.262,0.515 -0.075,2.856 z m 8.233,11.62 0.695,-4.195 -1.317,0.902 0.622,3.293 z m -5.223,-0.571 2.113,-5.328 -1.993,0.814 -0.12,4.514 z m 2.601,-12.917 2.114,-5.328 -1.993,0.814 -0.121,4.514 z m -2.675,6.988 2.113,-5.328 -1.993,0.814 -0.12,4.514 z m 3.158,4.012 2.114,-5.328 -1.994,0.814 -0.12,4.514 z m -0.058,-5.445 2.113,-5.329 -1.992,0.814 -0.121,4.515 z m 4.983,7.962 0.694,-4.194 -1.317,0.902 0.623,3.292 z m 2.686,-4.061 1.567,-3.952 -1.477,0.603 -0.09,3.349 z m -1.399,-3.448 2.113,-5.328 -1.993,0.814 -0.12,4.514 z m -11.837,1.589 1.336,-3.371 -1.261,0.515 -0.075,2.856 z m 2.519,-6.873 1.337,-3.371 -1.261,0.515 -0.076,2.856 z m -0.003,-3.796 1.337,-3.371 -1.262,0.515 -0.075,2.856 z m -1.814,16.238 0.685,-3.577 -1.147,0.745 0.462,2.832 z m 2.099,3.846 0.685,-3.576 -1.147,0.744 0.462,2.832 z m -0.203,19.408 0.4,-2.422 -0.76,0.521 0.36,1.901 z m 4.674,-12.005 0.401,-2.422 -0.761,0.521 0.36,1.901 z m 1.626,-1.944 0.685,-3.576 -1.147,0.744 0.462,2.832 z m -0.436,-4.606 0.685,-3.577 -1.147,0.745 0.462,2.832 z m -7.516,4.592 0.434,-2.621 -0.823,0.564 0.389,2.057 z m 2.322,1.582 0.526,-2.295 -0.759,0.454 0.233,1.841 z m 3.765,5.418 0.401,-2.422 -0.761,0.522 0.36,1.9 z m 5.889,-13.718 0.695,-4.195 -1.316,0.903 0.621,3.292 z m -4.148,-7.512 1.567,-3.952 -1.478,0.603 -0.089,3.349 z m 0.353,-4.847 2.113,-5.329 -1.993,0.814 -0.12,4.515 z m -3.589,-9.938 1.336,-3.371 -1.261,0.515 -0.075,2.856 z m 2.721,44.527 0.401,-2.422 -0.761,0.521 0.36,1.901 z m 3.77,-12.932 0.526,-2.295 -0.758,0.453 0.232,1.842 z m -13.955,-16.401 0.527,-2.295 -0.759,0.454 0.232,1.841 z m 2.757,19.484 0.527,-2.295 -0.758,0.454 0.231,1.841 z m -0.977,-9.893 0.528,-2.295 -0.759,0.454 0.231,1.841 z m 21.677,-1.986 0.401,-2.422 -0.76,0.521 0.359,1.901 z m -18.175,3.504 0.527,-2.295 -0.759,0.453 0.232,1.842 z m 2.19,-3.298 0.685,-3.576 -1.147,0.745 0.462,2.831 z m 9.752,0.87 1.186,-3.631 -1.292,0.622 0.106,3.009 z m 2.801,8.941 0.595,-3.171 -1.014,0.663 0.419,2.508 z m 0.225,-6.841 0.401,-2.422 -0.76,0.521 0.359,1.901 z m -3.996,9.714 0.401,-2.422 -0.76,0.522 0.359,1.9 z m 6.879,0.715 0.401,-2.422 -0.761,0.521 0.36,1.901 z m 1.03,-7.574 0.401,-2.422 -0.76,0.521 0.359,1.901 z m -4.89,17.97 0.137,-2.451 -0.7,0.6 0.563,1.851 z m 3.84,-3.437 0.401,-2.421 -0.76,0.521 0.359,1.9 z m -3.557,-3.724 0.401,-2.422 -0.76,0.521 0.359,1.901 z m -12.889,-0.473 0.4,-2.422 -0.76,0.521 0.36,1.901 z m 0.026,-5.879 0.401,-2.422 -0.761,0.521 0.36,1.901 z m 10.305,-3.474 0.595,-3.172 -1.013,0.664 0.418,2.508 z m -17.75,-8.691 0.434,-2.621 -0.823,0.564 0.389,2.057 z m 0.687,6.856 0.435,-2.62 -0.823,0.564 0.388,2.056 z m 15.822,14.873 0.401,-2.422 -0.761,0.521 0.36,1.901 z m -2.086,-15.478 0.694,-4.195 -1.316,0.903 0.622,3.292 z m -5.575,0.511 0.595,-3.592 -1.127,0.774 0.532,2.818 z m 3.37,5.686 0.595,-3.593 -1.128,0.773 0.533,2.82 z m 0.949,5.451 0.471,-2.846 -0.893,0.613 0.422,2.233 z m 7.621,-18.274 1.019,-2.57 -0.962,0.392 -0.057,2.178 z m 5.19,-2.887 1.228,-3.098 -1.159,0.473 -0.069,2.625 z m -6.883,-0.022 1.568,-3.953 -1.479,0.603 -0.089,3.35 z m 3.246,-2.222 1.567,-3.952 -1.479,0.603 -0.088,3.349 z m -9.125,-13.2 1.567,-3.952 -1.479,0.603 -0.088,3.349 z m 2.123,3.008 1.567,-3.952 -1.479,0.603 -0.088,3.349 z m 2.116,3.616 1.567,-3.953 -1.479,0.603 -0.088,3.35 z m 1.912,3.095 1.567,-3.952 -1.478,0.603 -0.089,3.349 z m -9.736,-16.398 1.337,-3.372 -1.262,0.515 -0.075,2.857 z m 1.12,10.765 1.802,-4.545 -1.699,0.695 -0.103,3.85 z m 0.559,-6.12 1.803,-4.546 -1.7,0.695 -0.103,3.851 z m 15.743,-102.22 2.099,-2.394 -1.194,0.054 -0.905,2.34 z m 40.456,-20.191 2.663,-3.036 -1.514,0.069 -1.149,2.967 z m -3.68,-1.882 3.779,-4.309 -2.15,0.097 -1.629,4.212 z m -28.582,44.986 2.087,-1.533 -0.958,-0.166 -1.129,1.699 z m 8.443,-1.459 1.54,-2.081 -0.965,0.124 -0.575,1.957 z m 15.632,-16.132 2.528,-3.419 -1.583,0.205 -0.945,3.214 z m -6.102,4.962 2.528,-3.419 -1.583,0.205 -0.945,3.214 z m -4.567,-1.291 2.529,-3.418 -1.583,0.205 -0.946,3.213 z m 11.877,-15.671 2.529,-3.418 -1.584,0.204 -0.945,3.214 z m -10.921,22.121 1.54,-2.082 -0.965,0.125 -0.575,1.957 z m 13.435,-20.133 1.54,-2.081 -0.965,0.124 -0.575,1.957 z m 6.543,-10.745 1.54,-2.081 -0.965,0.125 -0.575,1.956 z m -1.365,6.86 1.54,-2.081 -0.965,0.125 -0.575,1.956 z m -4.25,8.32 1.54,-2.081 -0.965,0.124 -0.575,1.957 z m -11.542,22.647 1.54,-2.081 -0.965,0.125 -0.575,1.956 z m 14.241,-50.74 1.707,-1.946 -0.971,0.044 -0.736,1.902 z m -8.565,42.997 1.54,-2.082 -0.965,0.124 -0.575,1.958 z m -14.463,-0.202 3.099,-2.912 -1.595,-0.082 -1.504,2.994 z m 6.359,-11.924 3.779,-4.309 -2.15,0.097 -1.629,4.212 z m -23.174,2.371 2.469,-0.781 -0.853,-0.466 -1.616,1.247 z m 10.13,11.021 2.508,-0.643 -0.827,-0.512 -1.681,1.155 z m -6.954,3.585 2.508,-0.643 -0.827,-0.512 -1.681,1.155 z m -6.015,-9.706 3.517,-0.872 -1.151,-0.726 -2.366,1.598 z m 10.618,-4.872 2.802,-3.197 -1.595,0.073 -1.207,3.124 z m -3.53,4.201 4.127,-1.023 -1.351,-0.852 -2.776,1.875 z m 12.402,-14.95 3.346,-3.815 -1.903,0.086 -1.443,3.729 z m 7.103,-12.291 2.482,-2.83 -1.413,0.064 -1.069,2.766 z m 3.648,21.043 2.529,-3.418 -1.584,0.204 -0.945,3.214 z m 3.698,-3.262 2.529,-3.419 -1.584,0.205 -0.945,3.214 z m 6.907,-12.07 2.529,-3.419 -1.584,0.205 -0.945,3.214 z m -25.498,19.041 3.779,-4.309 -2.15,0.097 -1.629,4.212 z m -7.401,-5.488 2.481,-2.83 -1.412,0.064 -1.069,2.766 z m 3.014,9.95 4.127,-1.023 -1.35,-0.852 -2.777,1.875 z m -6.373,2.926 3.244,-0.767 -1.052,-0.679 -2.192,1.446 z m 13.679,-4.751 4.563,-3.468 -2.126,-0.334 -2.437,3.802 z m 2.385,-5.188 3.779,-4.309 -2.15,0.096 -1.629,4.213 z m 16.756,-30.089 2.662,-3.036 -1.514,0.069 -1.148,2.967 z m 0.79,9.768 3.78,-4.309 -2.151,0.097 -1.629,4.212 z m 6.436,14.55 1.54,-2.081 -0.965,0.125 -0.575,1.956 z m -25.645,1.682 3.779,-4.309 -2.15,0.097 -1.629,4.212 z m 5.07,-5.694 3.779,-4.309 -2.15,0.097 -1.629,4.212 z m 6.508,2.497 3.779,-4.309 -2.15,0.097 -1.629,4.212 z m -5.152,2.265 3.779,-4.309 -2.151,0.097 -1.628,4.212 z m 3.654,-5.686 3.779,-4.308 -2.15,0.097 -1.629,4.211 z m 3.141,-13.579 3.052,-3.478 -1.737,0.078 -1.315,3.4 z m 7.156,27.78 1.539,-2.082 -0.964,0.125 -0.575,1.957 z m -14.955,-19.462 3.346,-3.815 -1.903,0.086 -1.443,3.729 z m 11.519,-9.308 2.662,-3.036 -1.514,0.069 -1.148,2.967 z m -25.635,16.362 2.1,-2.393 -1.195,0.054 -0.905,2.339 z m 10.409,-8.202 2.481,-2.83 -1.413,0.064 -1.068,2.766 z m -4.702,5.401 2.482,-2.83 -1.412,0.064 -1.07,2.766 z m -1.959,6.092 2.802,-3.197 -1.595,0.073 -1.207,3.124 z m 15.09,-9.361 3.779,-4.309 -2.15,0.097 -1.629,4.212 z m -0.89,-3.421 3.346,-3.815 -1.904,0.087 -1.442,3.728 z m 5.585,3.994 3.78,-4.309 -2.151,0.097 -1.629,4.212 z m -0.421,-5.139 3.78,-4.31 -2.151,0.097 -1.629,4.213 z m -72.845,-22.266 0.647,1.913 0.35,-0.673 -0.997,-1.24 z m 0.965,7.411 0.647,1.913 0.35,-0.673 -0.997,-1.24 z m -4.807,-3.386 0.647,1.914 0.35,-0.673 -0.997,-1.241 z m 21.32,16.132 2.241,1.297 -0.232,-0.945 -2.009,-0.352 z m -11.892,1.974 1.791,1.87 0.04,-0.972 -1.831,-0.898 z m -14.872,-9.302 1.191,2.299 0.313,-0.921 -1.504,-1.378 z m -0.968,-4.503 1.191,2.299 0.313,-0.921 -1.504,-1.378 z m 23.988,26.445 2.907,2.17 -0.169,-1.352 -2.738,-0.818 z M 376.051,467 l 0.647,1.913 0.35,-0.673 -0.997,-1.24 z m -9.646,0.235 1.192,2.298 0.312,-0.921 -1.504,-1.377 z m 3.264,20.914 3.408,2.543 -0.197,-1.584 -3.211,-0.959 z m -0.696,2.795 3.407,2.543 -0.197,-1.584 -3.21,-0.959 z m 26.19,-7.656 2.241,1.297 -0.232,-0.945 -2.009,-0.352 z m -29.372,-3.157 1.668,1.98 0.102,-0.967 -1.77,-1.013 z m 6.594,1.175 2.776,3.22 0.15,-1.589 -2.926,-1.631 z m 13.778,9.573 2.907,2.169 -0.168,-1.352 -2.739,-0.817 z m 9.996,-2.059 2.241,1.297 -0.231,-0.945 -2.01,-0.352 z m -5.264,-3.689 2.242,1.297 -0.233,-0.945 -2.009,-0.352 z m -2.979,2.74 2.241,1.297 -0.232,-0.945 -2.009,-0.352 z m 3.848,2.757 2.241,1.296 -0.232,-0.945 -2.009,-0.351 z m 3.797,3.642 2.241,1.296 -0.232,-0.945 -2.009,-0.351 z m -4.557,0.338 2.907,2.169 -0.169,-1.351 -2.738,-0.818 z m -17.626,-22.588 1.19,2.299 0.314,-0.921 -1.504,-1.378 z m -4.149,3.726 1.93,3.789 0.524,-1.508 -2.454,-2.281 z m -4.566,-4.939 1.93,3.789 0.524,-1.508 -2.454,-2.281 z m 5.033,1.311 1.191,2.299 0.312,-0.921 -1.503,-1.378 z m 12.847,1.435 1.191,2.299 0.313,-0.921 -1.504,-1.378 z m -8.783,3.3 1.191,2.299 0.313,-0.921 -1.504,-1.378 z m 13.072,5.512 1.791,1.869 0.04,-0.971 -1.831,-0.898 z m -6.596,0.897 1.791,1.869 0.041,-0.972 -1.832,-0.897 z m 4.062,1.441 1.791,1.87 0.041,-0.972 -1.832,-0.898 z m -6.399,-11.996 1.191,2.299 0.313,-0.921 -1.504,-1.378 z m 5.27,6.228 1.191,2.299 0.312,-0.921 -1.503,-1.378 z m -5.118,-1.433 1.191,2.298 0.313,-0.921 -1.504,-1.377 z m -15.627,-0.858 1.668,1.979 0.102,-0.967 -1.77,-1.012 z m 1.629,6.115 1.669,1.98 0.102,-0.968 -1.771,-1.012 z m 4.671,-2.631 2.777,3.22 0.15,-1.589 -2.927,-1.631 z m -3.669,-4.159 2.777,3.22 0.15,-1.589 -2.927,-1.631 z m 11.467,9.006 2.776,3.22 0.151,-1.589 -2.927,-1.631 z m -9.018,-1.173 2.777,3.22 0.15,-1.589 -2.927,-1.631 z m 4.28,0.66 4.29,3.801 -0.087,-2.151 -4.203,-1.65 z m 9.693,2.93 2.906,2.169 -0.168,-1.352 -2.738,-0.817 z m -1.901,5.591 4.593,3.429 -0.266,-2.136 -4.327,-1.293 z m -5.808,-4.518 4.593,3.43 -0.266,-2.137 -4.327,-1.293 z m -0.139,3.349 4.594,3.429 -0.267,-2.136 -4.327,-1.293 z m 5.763,-2.455 2.907,2.169 -0.169,-1.351 -2.738,-0.818 z m -4.795,6.842 4.594,3.429 -0.266,-2.137 -4.328,-1.292 z m 7.098,2.939 3.407,2.543 -0.197,-1.585 -3.21,-0.958 z m 7.126,-2.131 2.906,2.17 -0.168,-1.352 -2.738,-0.818 z m -10.429,-1.313 3.919,2.924 -0.228,-1.822 -3.691,-1.102 z m 5.764,2.135 3.918,2.925 -0.227,-1.822 -3.691,-1.103 z m 54.381,168.973 3.537,-0.302 -1.002,-0.88 -2.535,1.182 z m 11.555,-2.018 2.391,-0.519 -0.763,-0.513 -1.628,1.032 z m -3.026,-2.048 2.391,-0.519 -0.762,-0.513 -1.629,1.032 z m -9.556,7.896 1.963,-0.475 -0.639,-0.408 -1.324,0.883 z m 14.998,-4.163 2.016,0.135 -0.488,-0.581 -1.528,0.446 z m -4.498,1.083 2.015,0.135 -0.488,-0.581 -1.527,0.446 z m -6.058,1.325 2.773,-0.237 -0.786,-0.69 -1.987,0.927 z m 2.793,-2.709 2.781,-0.101 -0.751,-0.727 -2.03,0.828 z m -2.344,-2.255 3.537,-0.302 -1.002,-0.88 -2.535,1.182 z m 1.088,-2.755 2.012,-0.172 -0.57,-0.501 -1.442,0.673 z m -6.07,3.2 3.427,-0.828 -1.116,-0.713 -2.311,1.541 z m -3.413,4.128 2.705,-0.654 -0.881,-0.563 -1.824,1.217 z m -0.597,-2.556 2.512,-0.607 -0.818,-0.523 -1.694,1.13 z m -42.802,-0.805 3.537,-0.302 -1.002,-0.88 -2.535,1.182 z m 11.555,-2.018 2.39,-0.519 -0.762,-0.513 -1.628,1.032 z m -3.026,-2.048 2.39,-0.519 -0.762,-0.513 -1.628,1.032 z m -9.556,7.896 1.962,-0.475 -0.639,-0.408 -1.323,0.883 z m 14.998,-4.162 2.015,0.134 -0.488,-0.58 -1.527,0.446 z m -4.498,1.082 2.015,0.135 -0.488,-0.581 -1.527,0.446 z m -6.059,1.325 2.773,-0.237 -0.785,-0.69 -1.988,0.927 z m 2.793,-2.709 2.781,-0.101 -0.75,-0.727 -2.031,0.828 z m -2.343,-2.255 3.537,-0.302 -1.002,-0.88 -2.535,1.182 z m 1.087,-2.755 2.013,-0.172 -0.571,-0.5 -1.442,0.672 z m -6.069,3.2 3.426,-0.828 -1.115,-0.713 -2.311,1.541 z m -3.414,4.128 2.705,-0.654 -0.88,-0.563 -1.825,1.217 z"/>
 </g>
</svg>
