<?xml version="1.0" encoding="UTF-8" standalone="no"?>
<!-- Created with Inkscape (http://www.inkscape.org/) -->

<svg
   xmlns:dc="http://purl.org/dc/elements/1.1/"
   xmlns:cc="http://creativecommons.org/ns#"
   xmlns:rdf="http://www.w3.org/1999/02/22-rdf-syntax-ns#"
   xmlns:svg="http://www.w3.org/2000/svg"
   xmlns="http://www.w3.org/2000/svg"
   xmlns:sodipodi="http://sodipodi.sourceforge.net/DTD/sodipodi-0.dtd"
   xmlns:inkscape="http://www.inkscape.org/namespaces/inkscape"
   id="svg2"
   height="1050"
   width="1500"
   y="0.00000000"
   x="0.00000000"
   version="1.0"
   inkscape:version="0.48.2 r9819"
   sodipodi:docname="Bandeira_do_Distrito_Federal.svg">
  <metadata
     id="metadata13">
    <rdf:RDF>
      <cc:Work
         rdf:about="">
        <dc:format>image/svg+xml</dc:format>
        <dc:type
           rdf:resource="http://purl.org/dc/dcmitype/StillImage" />
      </cc:Work>
    </rdf:RDF>
  </metadata>
  <sodipodi:namedview
     pagecolor="#ffffff"
     bordercolor="#666666"
     borderopacity="1"
     objecttolerance="10"
     gridtolerance="10"
     guidetolerance="10"
     inkscape:pageopacity="0"
     inkscape:pageshadow="2"
     inkscape:window-width="1024"
     inkscape:window-height="538"
     id="namedview11"
     showgrid="false"
     inkscape:zoom="0.2"
     inkscape:cx="750.01905"
     inkscape:cy="680.55292"
     inkscape:window-x="-8"
     inkscape:window-y="-8"
     inkscape:window-maximized="1"
     inkscape:current-layer="svg2" />
  <defs
     id="defs3" />
  <g
     id="layer1"
     transform="matrix(1,0,0,1.0499944,0,0.00185382)"
     style="stroke:none">
    <rect
       id="rect3635"
       style="fill:#ffffff;fill-opacity:1;stroke:none"
       y="0"
       x="0"
       height="1000"
       width="1500" />
    <rect
       id="rect1291"
       style="fill:#00923f;fill-opacity:1;stroke:none"
       y="240"
       x="490"
       height="520"
       width="520" />
    <path
       id="path2859"
       style="fill:#f8c300;fill-opacity:1;fill-rule:evenodd;stroke:none"
       d="m 713,463 0,-105.04109 25.9,-25.89041 0,-48.0822 -25.9,0 37,-36.9863 37,36.9863 -25.9,0 0,48.0822 L 787,357.95891 787,463 750,426.0137 713,463 z"
       inkscape:connector-curvature="0" />
    <path
       id="path3619"
       style="fill:#f8c300;fill-opacity:1;fill-rule:evenodd;stroke:none"
       d="m 713,537 -105.0411,0 -25.89041,-25.89999 -48.08219,0 0,25.89999 L 497,500 l 36.9863,-37 0,25.90001 48.08219,0 L 607.9589,463 713,463 676.0137,500 713,537 z"
       inkscape:connector-curvature="0" />
    <path
       id="path3621"
       style="fill:#f8c300;fill-opacity:1;fill-rule:evenodd;stroke:none"
       d="m 787,463 105.04109,0 25.8904,25.89999 48.08219,0 0,-25.89999 36.98632,37 -36.98632,37 0,-25.90001 -48.08219,0 L 892.04109,537 787,537 823.9863,500 787,463 z"
       inkscape:connector-curvature="0" />
    <path
       id="path3623"
       style="fill:#f8c300;fill-opacity:1;fill-rule:evenodd;stroke:none"
       d="m 787,537 0,105.04108 -25.9,25.89042 0,48.08218 25.9,0 L 750.00001,753 713,716.01368 l 25.9,0 0,-48.08218 L 713,642.04108 713,537 750.00001,573.9863 787,537 z"
       inkscape:connector-curvature="0" />
  </g>
</svg>
