<?xml version="1.0" encoding="UTF-8" standalone="no"?>
<!-- Created with Inkscape (http://www.inkscape.org/) -->

<svg
   xmlns:dc="http://purl.org/dc/elements/1.1/"
   xmlns:cc="http://creativecommons.org/ns#"
   xmlns:rdf="http://www.w3.org/1999/02/22-rdf-syntax-ns#"
   xmlns:svg="http://www.w3.org/2000/svg"
   xmlns="http://www.w3.org/2000/svg"
   version="1.1"
   width="2000"
   height="1400"
   id="svg2">
  <rect
     width="2000"
     height="1400"
     x="0"
     y="0"
     id="rect6"
     style="fill:#ffffff;stroke:none" />
  <rect
     width="2000"
     height="466.66666"
     x="0"
     y="0"
     id="rect8"
     style="fill:#00a3ce;fill-opacity:1;stroke:none" />
  <rect
     width="2000"
     height="466.66666"
     x="0"
     y="933.33331"
     id="rect10"
     style="fill:#ef5a8d;fill-opacity:1;stroke:none" />
  <path
     d="M 324.39394,808.48485 L 291.66666,742.87879 L 265.90909,753.48485 L 259.24242,740.00001 L 328.33333,711.66667 L 335,725.00001 L 309.24242,735.60607 L 341.96969,801.21213 L 324.39394,808.48485 M 379.09091,786.36364 L 343.93939,705.60607 L 381.81818,692.12122 C 391.21212,688.63637 398.48484,686.9697 403.33333,686.81819 C 408.33333,686.66667 412.87878,688.03031 417.12121,690.75758 C 421.36363,693.63637 424.39394,697.42425 426.51515,702.12122 C 429.0909,708.18183 429.39394,713.9394 427.12121,719.24243 C 425,724.54546 420.15151,729.24243 412.87878,733.03031 C 417.57575,733.63637 421.81818,734.84849 425.30303,736.36364 C 428.93939,737.87879 434.24242,741.06061 441.36363,745.75758 L 459.0909,757.57576 L 437.57575,765.30304 L 416.96969,752.42425 C 409.54545,747.72728 404.69697,745.00001 402.27272,743.9394 C 399.84848,742.87879 397.57575,742.42425 395.45454,742.57576 C 393.33333,742.57576 390.15151,743.33334 386.0606,744.84849 L 382.42424,746.21213 L 397.12121,779.84849 L 379.09091,786.36364 M 376.81818,733.33334 L 390,728.48486 C 398.63636,725.45455 403.93939,723.18182 405.75757,721.81819 C 407.57575,720.30304 408.78787,718.63637 409.24242,716.51516 C 409.84848,714.54546 409.54545,712.27273 408.48484,709.84849 C 407.27272,707.12122 405.60606,705.15152 403.18181,704.09092 C 400.90909,703.03031 398.18181,702.72728 395.15151,703.33334 C 393.48484,703.63637 389.09091,705.15152 381.81818,707.72728 L 367.87878,712.87879 L 376.81818,733.33334 M 550.75757,729.69698 L 530.75757,735.75758 L 516.0606,719.54546 L 479.84848,730.45455 L 479.24242,751.36364 L 459.69697,757.27273 L 464.84848,664.24243 L 484.24242,658.48486 L 550.75757,729.69698 M 504.99999,707.42425 L 481.36363,680.60607 L 480.30303,714.84849 L 504.99999,707.42425 M 535.90909,643.48486 L 572.72727,634.39395 C 580.15151,632.57577 585.60605,631.51516 589.39393,631.21213 C 593.0303,630.75758 596.66666,631.21213 599.99999,632.27273 C 603.33333,633.33334 606.36363,635.00001 609.24242,637.57577 C 611.96969,640.00001 613.93939,643.03031 614.99999,646.51516 C 616.0606,650.45455 616.0606,654.39395 614.69696,658.18183 C 613.33333,662.12122 610.90908,665.30304 607.42424,667.8788 C 613.48484,668.03031 618.63636,669.54546 622.72727,672.27273 C 626.81818,675.15152 629.54545,678.9394 630.90908,683.78789 C 632.12121,687.57576 632.27272,691.66667 631.36363,695.75758 C 630.45454,699.69698 628.63636,703.33334 625.90908,706.36364 C 623.18181,709.24243 619.39393,711.66667 614.69696,713.33334 C 611.66666,714.39395 604.24242,716.36364 592.42424,719.39395 L 560.90909,727.12122 L 535.90909,643.48486 M 558.78787,652.72728 L 564.54545,672.12122 L 576.66666,669.09092 C 583.93939,667.27273 588.48484,666.06061 590.15151,665.45455 C 593.18181,664.39395 595.45454,662.72728 596.81818,660.75758 C 598.0303,658.63637 598.33333,656.21213 597.57575,653.48486 C 596.81818,650.9091 595.30302,648.9394 593.33333,647.72728 C 591.21212,646.51516 588.63636,646.06061 585.45454,646.51516 C 583.48484,646.81819 578.18181,648.03031 569.39393,650.15152 L 558.78787,652.72728 M 568.63636,686.06061 L 575.45454,708.48486 L 592.57575,704.24243 C 599.39393,702.57576 603.48484,701.36364 605.30302,700.60607 C 607.87878,699.39395 609.84848,697.72728 610.90908,695.60607 C 612.27272,693.33334 612.42424,690.75758 611.51515,687.72728 C 610.75757,685.30304 609.39393,683.33334 607.57575,681.81819 C 605.75757,680.45455 603.33333,679.69698 600.60605,679.54546 C 597.72727,679.39395 592.12121,680.30304 583.78787,682.42425 L 568.63636,686.06061 M 738.48484,688.63637 L 718.0303,692.57576 L 705.30302,674.84849 L 668.0303,681.9697 L 664.69696,702.72728 L 644.69696,706.51516 L 661.51514,614.69698 L 681.51514,610.9091 L 738.48484,688.63637 M 695.90908,661.66667 L 675.75757,632.57577 L 670.45454,666.51516 L 695.90908,661.66667 M 749.54545,687.27273 L 735.15151,602.12122 L 754.24242,599.54546 L 766.21211,670.15152 L 813.63636,663.63637 L 816.0606,678.03031 L 749.54545,687.27273 M 829.84848,676.36364 L 820.75757,590.00001 L 839.99999,588.33334 L 843.48484,622.42425 L 881.21211,619.09092 L 877.57575,585.15152 L 896.81817,583.48486 L 905.90908,669.84849 L 886.66666,671.51516 L 882.72726,633.78789 L 844.99999,636.9697 L 848.93939,674.69698 L 829.84848,676.36364 M 1011.9697,666.06061 L 991.0606,666.66667 L 981.96969,647.27273 L 943.78787,648.33334 L 936.66666,668.33334 L 916.21211,668.9394 L 950.15151,581.06061 L 970.60605,580.45455 L 1011.9697,666.06061 M 975.15151,632.8788 L 960.90908,601.06061 L 949.0909,633.63637 L 975.15151,632.8788 M 1096.6667,668.18183 L 1103.6364,581.66667 L 1174.2424,586.51516 L 1173.1818,601.06061 L 1121.6667,597.57577 L 1120.1515,616.81819 L 1168.0303,620.00001 L 1166.8182,634.54546 L 1118.9394,631.36364 L 1116.9697,655.00001 L 1170.303,658.48486 L 1169.0909,673.18183 L 1096.6667,668.18183 M 1325.303,661.9697 L 1342.7273,670.30304 C 1338.0303,679.24243 1331.9697,685.30304 1324.3939,688.78789 C 1316.9697,692.27273 1308.1818,693.18183 1298.1818,691.51516 C 1285.606,689.39395 1276.2121,683.78789 1269.697,674.84849 C 1263.1818,665.75758 1261.2121,654.39395 1263.9394,641.06061 C 1266.8182,626.81819 1273.0303,616.51516 1282.7273,610.00001 C 1292.2727,603.33334 1303.7879,601.21213 1316.9697,603.33334 C 1328.3333,605.30304 1337.1212,609.84849 1343.0303,617.27274 C 1346.6667,621.51516 1348.7879,627.27273 1349.5454,634.54546 L 1330,635.45455 C 1329.697,630.9091 1328.0303,626.9697 1325,623.9394 C 1322.1212,620.75758 1318.0303,618.78789 1313.0303,617.8788 C 1306.0606,616.81819 1299.8485,618.18183 1294.697,621.9697 C 1289.3939,625.75758 1285.7576,632.72728 1283.7879,642.8788 C 1281.6667,653.78789 1282.2727,661.81819 1285.606,667.12122 C 1288.9394,672.42425 1294.0909,675.60607 1300.9091,676.66667 C 1305.9091,677.57576 1310.606,676.81819 1314.8485,674.39395 C 1318.9394,672.12122 1322.5757,668.03031 1325.303,661.9697 M 1361.2121,657.12122 C 1363.4848,648.48486 1366.8182,641.66667 1371.3636,636.36364 C 1374.5454,632.57577 1378.4848,629.39395 1383.0303,626.81819 C 1387.5757,624.24243 1392.2727,622.57577 1397.1212,621.81819 C 1403.4848,620.9091 1410.4545,621.36364 1418.0303,623.03031 C 1431.6667,626.06061 1441.5151,632.27273 1447.7273,641.81819 C 1453.7879,651.36364 1455,663.03031 1451.3636,676.66667 C 1447.7273,690.30304 1440.7576,700.15152 1430.4545,705.9091 C 1420.303,711.81819 1408.3333,713.18183 1394.697,710.15152 C 1380.9091,707.12122 1371.0606,700.9091 1364.8485,691.36364 C 1358.7879,681.9697 1357.5757,670.45455 1361.2121,657.12122 M 1380.606,660.75758 C 1378.0303,670.30304 1378.6363,678.18183 1382.1212,684.24243 C 1385.606,690.15152 1391.0606,693.9394 1398.6363,695.60607 C 1406.0606,697.27273 1412.8788,696.21213 1418.9394,692.42425 C 1425,688.63637 1429.3939,681.81819 1432.1212,671.9697 C 1434.697,662.42425 1434.2424,654.69698 1430.9091,648.78789 C 1427.5757,643.03031 1421.9697,639.24243 1414.2424,637.57577 C 1406.5151,635.9091 1399.697,636.81819 1393.6363,640.60607 C 1387.5757,644.39395 1383.3333,651.06061 1380.606,660.75758 M 1454.5454,722.72728 L 1482.8788,639.84849 L 1501.0606,644.84849 L 1519.5454,710.60607 L 1537.7273,655.30304 L 1555.9091,660.15152 L 1527.1212,743.03031 L 1508.6363,737.87879 L 1490.1515,673.48486 L 1471.6667,727.42425 L 1454.5454,722.72728 M 1546.8182,749.09092 L 1580.1515,667.72728 L 1640.7576,688.18183 L 1636.2121,701.9697 L 1592.2727,687.42425 L 1584.697,706.81819 L 1622.5757,719.24243 L 1616.5151,733.03031 L 1578.6363,720.60607 L 1565,755.15152 L 1546.8182,749.09092 M 1622.5757,775.00001 L 1658.9394,694.54546 L 1675.606,701.06061 L 1640.7576,781.51516 L 1622.5757,775.00001 M 1736.2121,819.54546 L 1716.5151,811.66667 L 1718.0303,790.60607 L 1683.1818,776.51516 L 1668.0303,791.66667 L 1648.3333,784.09092 L 1721.0606,718.63637 L 1740.7576,726.06061 L 1736.2121,819.54546 M 1719.5454,775.00001 L 1721.0606,740.75758 L 1695.303,765.30304 L 1719.5454,775.00001" id="path12" style="fill:#00a3ce"/></svg>
