<?xml version="1.0" encoding="UTF-8" standalone="no"?>
<!-- Created with Inkscape (http://www.inkscape.org/) -->

<svg
   xmlns:dc="http://purl.org/dc/elements/1.1/"
   xmlns:cc="http://creativecommons.org/ns#"
   xmlns:rdf="http://www.w3.org/1999/02/22-rdf-syntax-ns#"
   xmlns:svg="http://www.w3.org/2000/svg"
   xmlns="http://www.w3.org/2000/svg"
   xmlns:sodipodi="http://sodipodi.sourceforge.net/DTD/sodipodi-0.dtd"
   xmlns:inkscape="http://www.inkscape.org/namespaces/inkscape"
   id="svg2"
   height="1050"
   width="1500"
   y="0.00000000"
   x="0.00000000"
   version="1.0"
   sodipodi:version="0.32"
   inkscape:version="0.48.2 r9819"
   sodipodi:docname="Bandeira_de_Goiás.svg">
  <metadata
     id="metadata20">
    <rdf:RDF>
      <cc:Work
         rdf:about="">
        <dc:format>image/svg+xml</dc:format>
        <dc:type
           rdf:resource="http://purl.org/dc/dcmitype/StillImage" />
      </cc:Work>
    </rdf:RDF>
  </metadata>
  <sodipodi:namedview
     inkscape:window-height="538"
     inkscape:window-width="1024"
     inkscape:pageshadow="2"
     inkscape:pageopacity="0.0"
     guidetolerance="10.0"
     gridtolerance="10.0"
     objecttolerance="10.0"
     borderopacity="1.0"
     bordercolor="#666666"
     pagecolor="#ffffff"
     id="base"
     inkscape:zoom="0.22"
     inkscape:cx="1498.599"
     inkscape:cy="500.32857"
     inkscape:window-x="-8"
     inkscape:window-y="-8"
     inkscape:current-layer="svg2"
     showgrid="false"
     inkscape:window-maximized="1" />
  <defs
     id="defs3" />
  <g
     id="layer1"
     transform="matrix(1.0454718,0,0,1.0499835,0,0.01657823)">
    <rect
       id="rect1291"
       style="fill:#f3e718;fill-opacity:1;stroke:none"
       y="875"
       x="0"
       height="125"
       width="1435.0348" />
    <rect
       id="rect1293"
       style="fill:#00994c;fill-opacity:1;stroke:none"
       y="750"
       x="0"
       height="125"
       width="1434.7997" />
    <rect
       id="rect3571"
       style="fill:#f3e718;fill-opacity:1;stroke:none"
       y="125"
       x="0"
       height="125"
       width="1434.6235" />
    <rect
       id="rect3573"
       style="fill:#f3e718;fill-opacity:1;stroke:none"
       y="375"
       x="0"
       height="125"
       width="1434.8726" />
    <rect
       id="rect3575"
       style="fill:#f3e718;fill-opacity:1;stroke:none"
       y="625"
       x="0"
       height="125"
       width="1434.8726" />
    <rect
       id="rect3577"
       style="fill:#00994c;fill-opacity:1;stroke:none"
       y="0"
       x="0"
       height="125"
       width="1434.8726" />
    <rect
       id="rect3579"
       style="fill:#00994c;fill-opacity:1;stroke:none"
       y="250"
       x="0"
       height="125"
       width="1434.8727" />
    <rect
       id="rect3581"
       style="fill:#00994c;fill-opacity:1;stroke:none"
       y="500"
       x="0"
       height="125"
       width="1434.8726" />
    <rect
       id="rect3583"
       style="fill:#002580;fill-opacity:1;stroke:none"
       y="0"
       x="0"
       height="375"
       width="500" />
    <path
       id="path4345"
       style="fill:#ffffff;fill-opacity:1;stroke:none"
       d="M 447.02282,339.72136 400,305.55728 l -47.02282,34.16408 17.96112,-55.27864 -47.02282,-34.16408 58.1234,0 L 400,195 l 17.96112,55.27864 58.1234,0 -47.02282,34.16408 17.96112,55.27864 z"
       inkscape:connector-curvature="0" />
    <path
       id="path5105"
       style="fill:#ffffff;fill-opacity:1;stroke:none"
       d="M 447.02282,164.72136 400,130.55728 l -47.02282,34.16408 17.96112,-55.27864 -47.02282,-34.16408 58.1234,0 L 400,20 l 17.96112,55.27864 58.1234,0 -47.02282,34.16408 17.96112,55.27864 z"
       inkscape:connector-curvature="0" />
    <path
       id="path5107"
       style="fill:#ffffff;fill-opacity:1;stroke:none"
       d="M 147.02282,164.72136 100,130.55728 52.97718,164.72136 70.938298,109.44272 23.915479,75.27864 l 58.123402,0 L 100,20 l 17.96112,55.27864 58.1234,0 -47.02282,34.16408 17.96112,55.27864 z"
       inkscape:connector-curvature="0" />
    <path
       id="path5109"
       style="fill:#ffffff;fill-opacity:1;stroke:none"
       d="M 147.02282,339.72136 100,305.55728 52.97718,339.72136 70.938298,284.44272 23.915479,250.27864 l 58.123402,0 L 100,195 l 17.96112,55.27864 58.1234,0 -47.02282,34.16408 17.96112,55.27864 z"
       inkscape:connector-curvature="0" />
    <path
       id="path5111"
       style="fill:#ffffff;fill-opacity:1;stroke:none"
       d="M 285.26712,236.04102 250,210.41796 l -35.26712,25.62306 13.47084,-41.45898 -35.26711,-25.62306 43.59255,0 L 250,127.5 l 13.47084,41.45898 43.59255,0 -35.26711,25.62306 13.47084,41.45898 z"
       inkscape:connector-curvature="0" />
  </g>
</svg>
