<?xml version="1.0" encoding="UTF-8"?>
<svg xmlns="http://www.w3.org/2000/svg" width="2000" height="1400" viewBox="0 0 6000 4200">
<title>Bandeira da Paraíba"</title>
<rect fill="#000" width="100%" height="100%"/>
<rect fill="#f00000" x="2000" width="4000" height="100%"/>
<path fill="#fff" id="NEGO" d="m3250,2290 0,-379 78,0 156,253 0,-253 66,0 0,379-72,0-156,-247 0,247zm384,0 0,-379 282,0 0,64-204,0 0,84 186,0 0,64-186,0 0,103 210,0 0,64zm528,-140 0,-63 168,0 0,151 c-18,15-42,29-72,41-30,11-60,17-90,17-42,0-78,-8-108,-25-24,-16-48,-40-66,-71-12,-31-18,-65-18,-101 0,-39 6,-74 24,-105 18,-31 42,-54 72,-71 24,-12 54,-18 90,-18 48,0 84,9 108,29 30,20 48,47 54,82 l-78,14 c-6,-18-12,-33-30,-44-12,-11-30,-16-54,-16-36,0-60,10-78,31-24,22-30,53-30,95 0,45 6,79 30,101 18,23 42,34 78,34 18,0 30,-3 48,-9 18,-7 30,-15 42,-23 l 0,-49zm222,-47 c 0,-39 6,-71 18,-97 6,-20 18,-37 36,-53 12,-15 30,-26 48,-33 24,-10 48,-15 78,-15 60,0 102,17 138,51 30,35 48,83 48,145 0,61-18,109-48,143-36,35-78,52-132,52-60,0-102,-17-138,-52-30,-34-48,-81-48,-141zm78,-3 c 0,43 12,75 30,98 18,22 42,33 72,33 36,0 60,-11 78,-33 18,-22 30,-55 30,-99 0,-44-12,-76-30,-97-18,-22-42,-32-78,-32-30,0-54,10-72,33-18,21-30,54-30,97z"/>
</svg>