<?xml version="1.0" encoding="UTF-8" standalone="no"?>
<svg  xmlns="http://www.w3.org/2000/svg" height="1400" width="2000">
<rect fill="#fff" height="1400" width="2000"/>
<path fill="#1946b4" d="M1300,0 h-1300 v900z"/>
<path fill="#ff9600" d="M700,1400 h1300 v-900z"/>
<path fill="#ff9600" d="M 1400,700 L 1157.5692,727.78371 L 1220.8115,764.36067 L 1147.8207,761.22935 L 1201.6472,810.62742 L 1131.0643,791.77223 L 1282.8427,982.84271 L 1091.7722,831.06433 L 1110.6274,901.64715 L 1061.2293,847.82073 L 1064.3607,920.81147 L 1027.7837,857.56924 L 1000.0000,1100.0000 L 972.21629,857.56924 L 935.63933,920.81147 L 938.77065,847.82073 L 889.37258,901.64715 L 908.22777,831.06433 L 717.15729,982.84271 L 868.93567,791.77223 L 798.35285,810.62742 L 852.17927,761.22935 L 779.18853,764.36067 L 842.43076,727.78371 L 600.00000,700.00000 L 842.43076,672.21629 L 779.18853,635.63933 L 852.17927,638.77065 L 798.35285,589.37258 L 868.93567,608.22777 L 717.15729,417.15729 L 908.22777,568.93567 L 889.37258,498.35285 L 938.77065,552.17927 L 935.63933,479.18853 L 972.21629,542.43076 L 1000.0000,300.00000 L 1027.7837,542.43076 L 1064.3607,479.18853 L 1061.2293,552.17927 L 1110.6274,498.35285 L 1091.7722,568.93567 L 1282.8427,417.15729 L 1131.0643,608.22777 L 1201.6472,589.37258 L 1147.8207,638.77065 L 1220.8115,635.63933 L 1157.5692,672.21629z"/>
</svg>
