<?xml version="1.0" encoding="UTF-8" standalone="no"?>
<!-- Created with Inkscape (http://www.inkscape.org/) -->

<svg
   xmlns:dc="http://purl.org/dc/elements/1.1/"
   xmlns:cc="http://creativecommons.org/ns#"
   xmlns:rdf="http://www.w3.org/1999/02/22-rdf-syntax-ns#"
   xmlns:svg="http://www.w3.org/2000/svg"
   xmlns="http://www.w3.org/2000/svg"
   xmlns:xlink="http://www.w3.org/1999/xlink"
   version="1.1"
   width="600"
   height="400"
   viewBox="0 0 599.99997 399.99998"
   id="svg2"
   xml:space="preserve"><metadata
   id="metadata178"><rdf:RDF><cc:Work
       rdf:about=""><dc:format>image/svg+xml</dc:format><dc:type
         rdf:resource="http://purl.org/dc/dcmitype/StillImage" /><dc:title></dc:title></cc:Work></rdf:RDF></metadata><defs
   id="defs176"><linearGradient
     id="linearGradient4454"><stop
       id="stop4456"
       style="stop-color:#d4aa00;stop-opacity:1"
       offset="0" /><stop
       id="stop4458"
       style="stop-color:#aa8800;stop-opacity:0"
       offset="1" /></linearGradient><linearGradient
     id="linearGradient4446"><stop
       id="stop4448"
       style="stop-color:#aa8800;stop-opacity:1"
       offset="0" /><stop
       id="stop4450"
       style="stop-color:#aa8800;stop-opacity:0"
       offset="1" /></linearGradient><linearGradient
     id="linearGradient4394"><stop
       id="stop4396"
       style="stop-color:#aa8800;stop-opacity:1"
       offset="0" /><stop
       id="stop4398"
       style="stop-color:#d4aa00;stop-opacity:0"
       offset="1" /></linearGradient><linearGradient
     id="linearGradient4388"><stop
       id="stop4390"
       style="stop-color:#aa8800;stop-opacity:1"
       offset="0" /><stop
       id="stop4392"
       style="stop-color:#d4aa00;stop-opacity:0"
       offset="1" /></linearGradient><linearGradient
     id="linearGradient4370"><stop
       id="stop4372"
       style="stop-color:#aa8800;stop-opacity:1"
       offset="0" /><stop
       id="stop4374"
       style="stop-color:#aa8800;stop-opacity:0"
       offset="1" /></linearGradient><linearGradient
     id="linearGradient4279"><stop
       id="stop4281"
       style="stop-color:#aa0000;stop-opacity:1"
       offset="0" /><stop
       id="stop4289"
       style="stop-color:#d40000;stop-opacity:1"
       offset="0.24650319" /><stop
       id="stop4287"
       style="stop-color:#d40000;stop-opacity:1"
       offset="0.72147626" /><stop
       id="stop4283"
       style="stop-color:#ff0000;stop-opacity:1"
       offset="1" /></linearGradient><linearGradient
     x1="517.58136"
     y1="10.213303"
     x2="517.58136"
     y2="-27.380575"
     id="linearGradient4646"
     xlink:href="#linearGradient4279"
     gradientUnits="userSpaceOnUse"
     gradientTransform="matrix(0.99962454,0,0,0.99962454,-259.46574,51.928919)" /><radialGradient
     cx="850.14569"
     cy="111.84623"
     r="17.21645"
     fx="850.14569"
     fy="111.84623"
     id="radialGradient4652"
     xlink:href="#linearGradient4454"
     gradientUnits="userSpaceOnUse"
     gradientTransform="matrix(3.2176149,0,0,3.5409556,-2464.9604,-238.92158)" /><radialGradient
     cx="710.19635"
     cy="106.47656"
     r="55.722382"
     fx="710.19635"
     fy="106.47656"
     id="radialGradient4656"
     xlink:href="#linearGradient4446"
     gradientUnits="userSpaceOnUse"
     gradientTransform="matrix(1.2476176,0,0,1.1866371,-615.5219,31.705902)" /><linearGradient
     x1="556.87604"
     y1="273.81906"
     x2="561.98969"
     y2="295.4559"
     id="linearGradient4668"
     xlink:href="#linearGradient4370"
     gradientUnits="userSpaceOnUse"
     gradientTransform="matrix(0.99962454,0,0,0.99962454,-259.46574,51.928919)" /><linearGradient
     x1="529.02411"
     y1="306.9975"
     x2="526.49481"
     y2="326.06024"
     id="linearGradient4673"
     xlink:href="#linearGradient4370"
     gradientUnits="userSpaceOnUse"
     gradientTransform="matrix(0.99962454,0,0,0.99962454,-259.46574,51.928919)" /><linearGradient
     x1="587.99634"
     y1="222.87155"
     x2="599.49329"
     y2="245.28983"
     id="linearGradient4678"
     xlink:href="#linearGradient4394"
     gradientUnits="userSpaceOnUse"
     gradientTransform="matrix(0.99962454,0,0,0.99962454,-259.46574,51.928919)" /><linearGradient
     x1="575.97333"
     y1="183.29468"
     x2="598.0722"
     y2="186.81435"
     id="linearGradient4683"
     xlink:href="#linearGradient4388"
     gradientUnits="userSpaceOnUse"
     gradientTransform="matrix(0.99962454,0,0,0.99962454,-259.46574,51.928919)" /><linearGradient
     x1="546.09534"
     y1="224.85016"
     x2="561.46326"
     y2="224.85016"
     id="linearGradient4689"
     xlink:href="#linearGradient4370"
     gradientUnits="userSpaceOnUse"
     gradientTransform="matrix(0.99962454,0,0,0.99962454,-259.46574,51.928919)" /><linearGradient
     x1="519.08746"
     y1="256.77457"
     x2="536.67108"
     y2="262.42834"
     id="linearGradient4694"
     xlink:href="#linearGradient4370"
     gradientUnits="userSpaceOnUse"
     gradientTransform="matrix(0.99962454,0,0,0.99962454,-259.46574,51.928919)" /><linearGradient
     x1="519.08746"
     y1="256.77457"
     x2="536.67108"
     y2="262.42834"
     id="linearGradient4784"
     xlink:href="#linearGradient4370"
     gradientUnits="userSpaceOnUse"
     gradientTransform="matrix(0.26938037,0,0,0.26938037,-549.58626,342.72717)" /><linearGradient
     x1="546.09534"
     y1="224.85016"
     x2="561.46326"
     y2="224.85016"
     id="linearGradient4786"
     xlink:href="#linearGradient4370"
     gradientUnits="userSpaceOnUse"
     gradientTransform="matrix(0.26938037,0,0,0.26938037,-549.58626,342.72717)" /><linearGradient
     x1="575.97333"
     y1="183.29468"
     x2="598.0722"
     y2="186.81435"
     id="linearGradient4788"
     xlink:href="#linearGradient4388"
     gradientUnits="userSpaceOnUse"
     gradientTransform="matrix(0.26938037,0,0,0.26938037,-549.58626,342.72717)" /><linearGradient
     x1="587.99634"
     y1="222.87155"
     x2="599.49329"
     y2="245.28983"
     id="linearGradient4790"
     xlink:href="#linearGradient4394"
     gradientUnits="userSpaceOnUse"
     gradientTransform="matrix(0.26938037,0,0,0.26938037,-549.58626,342.72717)" /><linearGradient
     x1="529.02411"
     y1="306.9975"
     x2="526.49481"
     y2="326.06024"
     id="linearGradient4792"
     xlink:href="#linearGradient4370"
     gradientUnits="userSpaceOnUse"
     gradientTransform="matrix(0.26938037,0,0,0.26938037,-549.58626,342.72717)" /><linearGradient
     x1="556.87604"
     y1="273.81906"
     x2="561.98969"
     y2="295.4559"
     id="linearGradient4794"
     xlink:href="#linearGradient4370"
     gradientUnits="userSpaceOnUse"
     gradientTransform="matrix(0.26938037,0,0,0.26938037,-549.58626,342.72717)" /><linearGradient
     x1="517.58136"
     y1="10.213303"
     x2="517.58136"
     y2="-27.380575"
     id="linearGradient4796"
     xlink:href="#linearGradient4279"
     gradientUnits="userSpaceOnUse"
     gradientTransform="matrix(0.26938037,0,0,0.26938037,-549.58625,342.72718)" /><radialGradient
     cx="710.19635"
     cy="106.47656"
     r="55.722382"
     fx="710.19635"
     fy="106.47656"
     id="radialGradient4798"
     xlink:href="#linearGradient4446"
     gradientUnits="userSpaceOnUse"
     gradientTransform="matrix(0.33620992,0,0,0.3197768,-645.53682,337.27744)" /><radialGradient
     cx="850.14569"
     cy="111.84623"
     r="17.21645"
     fx="850.14569"
     fy="111.84623"
     id="radialGradient4800"
     xlink:href="#linearGradient4454"
     gradientUnits="userSpaceOnUse"
     gradientTransform="matrix(0.86708784,0,0,0.95422219,-1143.9264,264.34833)" /><linearGradient
     x1="519.08746"
     y1="256.77457"
     x2="536.67108"
     y2="262.42834"
     id="linearGradient4881"
     xlink:href="#linearGradient4370"
     gradientUnits="userSpaceOnUse"
     gradientTransform="matrix(0.26938037,0,0,0.26938037,-549.58626,342.72717)" /><linearGradient
     x1="546.09534"
     y1="224.85016"
     x2="561.46326"
     y2="224.85016"
     id="linearGradient4883"
     xlink:href="#linearGradient4370"
     gradientUnits="userSpaceOnUse"
     gradientTransform="matrix(0.26938037,0,0,0.26938037,-549.58626,342.72717)" /><linearGradient
     x1="575.97333"
     y1="183.29468"
     x2="598.0722"
     y2="186.81435"
     id="linearGradient4885"
     xlink:href="#linearGradient4388"
     gradientUnits="userSpaceOnUse"
     gradientTransform="matrix(0.26938037,0,0,0.26938037,-549.58626,342.72717)" /><linearGradient
     x1="587.99634"
     y1="222.87155"
     x2="599.49329"
     y2="245.28983"
     id="linearGradient4887"
     xlink:href="#linearGradient4394"
     gradientUnits="userSpaceOnUse"
     gradientTransform="matrix(0.26938037,0,0,0.26938037,-549.58626,342.72717)" /><linearGradient
     x1="529.02411"
     y1="306.9975"
     x2="526.49481"
     y2="326.06024"
     id="linearGradient4889"
     xlink:href="#linearGradient4370"
     gradientUnits="userSpaceOnUse"
     gradientTransform="matrix(0.26938037,0,0,0.26938037,-549.58626,342.72717)" /><linearGradient
     x1="556.87604"
     y1="273.81906"
     x2="561.98969"
     y2="295.4559"
     id="linearGradient4891"
     xlink:href="#linearGradient4370"
     gradientUnits="userSpaceOnUse"
     gradientTransform="matrix(0.26938037,0,0,0.26938037,-549.58626,342.72717)" /><linearGradient
     x1="519.08746"
     y1="256.77457"
     x2="536.67108"
     y2="262.42834"
     id="linearGradient3186"
     xlink:href="#linearGradient4370"
     gradientUnits="userSpaceOnUse"
     gradientTransform="matrix(0.99962454,0,0,0.99962454,-259.46574,51.928919)" /><linearGradient
     x1="546.09534"
     y1="224.85016"
     x2="561.46326"
     y2="224.85016"
     id="linearGradient3188"
     xlink:href="#linearGradient4370"
     gradientUnits="userSpaceOnUse"
     gradientTransform="matrix(0.99962454,0,0,0.99962454,-259.46574,51.928919)" /><linearGradient
     x1="575.97333"
     y1="183.29468"
     x2="598.0722"
     y2="186.81435"
     id="linearGradient3190"
     xlink:href="#linearGradient4388"
     gradientUnits="userSpaceOnUse"
     gradientTransform="matrix(0.99962454,0,0,0.99962454,-259.46574,51.928919)" /><linearGradient
     x1="587.99634"
     y1="222.87155"
     x2="599.49329"
     y2="245.28983"
     id="linearGradient3192"
     xlink:href="#linearGradient4394"
     gradientUnits="userSpaceOnUse"
     gradientTransform="matrix(0.99962454,0,0,0.99962454,-259.46574,51.928919)" /><linearGradient
     x1="529.02411"
     y1="306.9975"
     x2="526.49481"
     y2="326.06024"
     id="linearGradient3194"
     xlink:href="#linearGradient4370"
     gradientUnits="userSpaceOnUse"
     gradientTransform="matrix(0.99962454,0,0,0.99962454,-259.46574,51.928919)" /><linearGradient
     x1="556.87604"
     y1="273.81906"
     x2="561.98969"
     y2="295.4559"
     id="linearGradient3196"
     xlink:href="#linearGradient4370"
     gradientUnits="userSpaceOnUse"
     gradientTransform="matrix(0.99962454,0,0,0.99962454,-259.46574,51.928919)" /><linearGradient
     x1="517.58136"
     y1="10.213303"
     x2="517.58136"
     y2="-27.380575"
     id="linearGradient3198"
     xlink:href="#linearGradient4279"
     gradientUnits="userSpaceOnUse"
     gradientTransform="matrix(0.99962454,0,0,0.99962454,-259.46574,51.928919)" /><radialGradient
     cx="710.19635"
     cy="106.47656"
     r="55.722382"
     fx="710.19635"
     fy="106.47656"
     id="radialGradient3200"
     xlink:href="#linearGradient4446"
     gradientUnits="userSpaceOnUse"
     gradientTransform="matrix(1.2476176,0,0,1.1866371,-615.5219,31.705902)" /><radialGradient
     cx="850.14569"
     cy="111.84623"
     r="17.21645"
     fx="850.14569"
     fy="111.84623"
     id="radialGradient3202"
     xlink:href="#linearGradient4454"
     gradientUnits="userSpaceOnUse"
     gradientTransform="matrix(3.2176149,0,0,3.5409556,-2464.9604,-238.92158)" /><linearGradient
     x1="519.08746"
     y1="256.77457"
     x2="536.67108"
     y2="262.42834"
     id="linearGradient4694-6"
     xlink:href="#linearGradient4370-1"
     gradientUnits="userSpaceOnUse"
     gradientTransform="matrix(0.99962454,0,0,0.99962454,-259.46574,51.928919)" /><linearGradient
     x1="546.09534"
     y1="224.85016"
     x2="561.46326"
     y2="224.85016"
     id="linearGradient4689-1"
     xlink:href="#linearGradient4370-1"
     gradientUnits="userSpaceOnUse"
     gradientTransform="matrix(0.99962454,0,0,0.99962454,-259.46574,51.928919)" /><linearGradient
     x1="575.97333"
     y1="183.29468"
     x2="598.0722"
     y2="186.81435"
     id="linearGradient4683-2"
     xlink:href="#linearGradient4388-4"
     gradientUnits="userSpaceOnUse"
     gradientTransform="matrix(0.99962454,0,0,0.99962454,-259.46574,51.928919)" /><linearGradient
     x1="587.99634"
     y1="222.87155"
     x2="599.49329"
     y2="245.28983"
     id="linearGradient4678-2"
     xlink:href="#linearGradient4394-8"
     gradientUnits="userSpaceOnUse"
     gradientTransform="matrix(0.99962454,0,0,0.99962454,-259.46574,51.928919)" /><linearGradient
     x1="529.02411"
     y1="306.9975"
     x2="526.49481"
     y2="326.06024"
     id="linearGradient4673-3"
     xlink:href="#linearGradient4370-1"
     gradientUnits="userSpaceOnUse"
     gradientTransform="matrix(0.99962454,0,0,0.99962454,-259.46574,51.928919)" /><linearGradient
     x1="556.87604"
     y1="273.81906"
     x2="561.98969"
     y2="295.4559"
     id="linearGradient4668-2"
     xlink:href="#linearGradient4370-1"
     gradientUnits="userSpaceOnUse"
     gradientTransform="matrix(0.99962454,0,0,0.99962454,-259.46574,51.928919)" /><radialGradient
     cx="710.19635"
     cy="106.47656"
     r="55.722382"
     fx="710.19635"
     fy="106.47656"
     id="radialGradient4656-4"
     xlink:href="#linearGradient4446-0"
     gradientUnits="userSpaceOnUse"
     gradientTransform="matrix(1.2476176,0,0,1.1866371,-615.5219,31.705902)" /><linearGradient
     x1="517.58136"
     y1="10.213303"
     x2="517.58136"
     y2="-27.380575"
     id="linearGradient4646-1"
     xlink:href="#linearGradient4279-1"
     gradientUnits="userSpaceOnUse"
     gradientTransform="matrix(0.99962454,0,0,0.99962454,-259.46574,51.928919)" /><linearGradient
     id="linearGradient4279-1"><stop
       id="stop4281-5"
       style="stop-color:#aa0000;stop-opacity:1"
       offset="0" /><stop
       id="stop4289-2"
       style="stop-color:#d40000;stop-opacity:1"
       offset="0.24650319" /><stop
       id="stop4287-7"
       style="stop-color:#d40000;stop-opacity:1"
       offset="0.72147626" /><stop
       id="stop4283-6"
       style="stop-color:#ff0000;stop-opacity:1"
       offset="1" /></linearGradient><linearGradient
     id="linearGradient4370-1"><stop
       id="stop4372-7"
       style="stop-color:#aa8800;stop-opacity:1"
       offset="0" /><stop
       id="stop4374-1"
       style="stop-color:#aa8800;stop-opacity:0"
       offset="1" /></linearGradient><linearGradient
     id="linearGradient4388-4"><stop
       id="stop4390-5"
       style="stop-color:#aa8800;stop-opacity:1"
       offset="0" /><stop
       id="stop4392-5"
       style="stop-color:#d4aa00;stop-opacity:0"
       offset="1" /></linearGradient><linearGradient
     id="linearGradient4394-8"><stop
       id="stop4396-8"
       style="stop-color:#aa8800;stop-opacity:1"
       offset="0" /><stop
       id="stop4398-2"
       style="stop-color:#d4aa00;stop-opacity:0"
       offset="1" /></linearGradient><linearGradient
     id="linearGradient4446-0"><stop
       id="stop4448-9"
       style="stop-color:#aa8800;stop-opacity:1"
       offset="0" /><stop
       id="stop4450-4"
       style="stop-color:#aa8800;stop-opacity:0"
       offset="1" /></linearGradient></defs>








<rect
   width="600"
   height="399.99997"
   x="-1.4210855e-014"
   y="1.0517578e-005"
   id="rect3139"
   style="fill:#d40000;fill-opacity:1;stroke:none" /><g
   transform="matrix(0.50331608,0,0,0.50331608,206.38321,89.100209)"
   id="g3259"><path
     d="m 370.79172,375.6613 c 0,24.68777 -20.01877,44.70649 -44.70653,44.70649 l -107.855,0 c -16.87121,0.3819 -30.78574,12.72578 -33.60685,28.88247 -2.80879,-16.15669 -16.72954,-28.50057 -33.59458,-28.88247 l -105.107807,0 c -24.687767,0 -44.7126953,-20.01872 -44.7126953,-44.70649 l 0,-374.91158069 369.5834623,0 0,374.91158069 z"
     id="path3082-8"
     style="fill:#ffd500;fill-opacity:1;fill-rule:evenodd;stroke:#d4a900;stroke-width:1.49943686;stroke-miterlimit:4;stroke-opacity:1;stroke-dasharray:none" /><path
     d="m 367.08979,375.6613 -0.01,0 0,0 0.01,0 0.005,-371.1973287 -362.1734369,0 0,371.1973287 0,0.005 -0.01,0 c 0,11.3029 4.595084,21.55252 12.0235829,28.98102 7.422353,7.4223 17.671963,12.02354 28.981029,12.02354 l 0,-0.0197 0.005,0 105.107805,0 0.068,0.0197 c 13.4095,0.30206 25.13126,7.42851 31.82061,18.03537 0.6098,0.97323 1.18265,1.97108 1.70622,2.99974 4.02223,-7.8412 10.63766,-14.13018 18.71904,-17.72739 2.26058,-1.00403 4.63204,-1.79861 7.09588,-2.35914 2.43922,-0.56053 4.98314,-0.88083 7.60098,-0.94858 l 0.0197,0 0.0986,0 0.0739,-0.0197 107.855,0 0.005,0 0,0.0197 c 11.30292,-0.005 21.55253,-4.60124 28.97487,-12.02354 7.42851,-7.4285 12.02358,-17.67812 12.02358,-28.98718 z"
     id="path3084-5"
     style="fill:#007ccc;fill-opacity:1;fill-rule:evenodd;stroke:none" /><path
     d="m 367.08979,375.6613 -0.01,0 0,0 0.01,0 0.005,-371.1973287 -362.173437,0 L 356.46329,403.18249 c 6.60312,-7.28067 10.62535,-16.93895 10.62535,-27.52119 z"
     id="path3086-7"
     style="fill:#ffffff;fill-rule:evenodd;stroke:none" /><path
     d="m 81.702204,141.86051 c -3.393955,0.0557 -9.572055,1.47215 -10.532954,2.66096 -0.511248,0.62828 -1.133374,0.68372 -2.266739,0.22766 -1.983405,-0.73916 -2.716399,-0.28334 -2.716399,1.58919 0,2.54392 1.244242,2.99973 6.683189,2.32217 2.7164,-0.34494 5.888599,-0.85003 6.966534,-1.07793 l 2.038834,-0.40063 0,3.2338 c 0,3.22764 -1.361269,7.76113 -2.322178,7.47779 -1.188803,-0.34495 -4.588916,0.78843 -4.533477,1.52758 0,0.4499 0.566687,1.52759 1.194961,2.37762 0.677566,0.85002 1.244253,2.15586 1.244253,2.88885 0,0.73917 0.622116,2.10043 1.355111,3.06134 0.628284,0.90546 0.455819,2.09428 1.2504,2.55009 -1.188803,31.72205 -1.022496,63.44411 -0.967057,95.11072 -0.85003,-0.11727 -0.85003,0.28335 -0.960899,0.90547 0,0.67756 -0.283343,1.24424 -0.622126,1.24424 -0.339023,0 -1.077935,1.58919 -1.644612,3.51715 -0.960909,3.28308 -3.400113,7.13284 -3.400113,5.37735 0,-0.90547 -4.644356,-1.01633 -6.338249,-0.11087 -1.644623,0.90547 -1.533754,3.11676 0.276936,6.57232 0.85002,1.58301 1.361268,2.88885 1.077925,2.88885 -0.227655,0 -0.449891,0.733 -0.566678,1.58303 -0.05518,0.90547 -0.85003,3.17221 -1.700061,5.04473 -1.016338,2.20514 -1.583025,4.58892 -1.583025,6.57231 0,2.54393 -0.172466,3.05518 -0.960899,2.7164 -0.511248,-0.17247 -1.533744,-1.41671 -2.2113,-2.7164 -0.90547,-1.87251 -1.472157,-2.32833 -2.439214,-2.03883 -0.732994,0.16607 -1.299682,0.56053 -1.299682,0.89931 0,0.34493 -0.511248,1.30584 -1.188803,2.15586 -0.683723,0.85003 -1.416718,2.66096 -1.644622,3.9668 -0.228155,1.35512 -0.794592,2.60552 -1.299682,2.82727 -0.511248,0.17247 -0.911618,0.91163 -0.911618,1.58918 0,1.81093 -1.866369,7.08356 -2.888865,8.27238 -0.622126,0.73299 -0.90547,2.48848 -0.85003,6.00563 0.117276,6.28281 -1.071778,9.68292 -2.771829,7.98903 -0.856189,-0.85003 -2.322178,-0.68372 -2.833426,0.33853 -0.338533,0.56669 -0.90547,3.1722 -1.30584,5.77772 -0.449901,2.60552 -1.188803,6.56617 -1.700061,8.77747 -0.50508,2.26673 -1.071768,6.68319 -1.244243,9.79995 -0.110868,3.11677 -0.394212,6.23354 -0.566677,6.91111 -0.110878,0.67755 -0.05568,1.58917 0.172465,1.9218 0.622127,0.96705 2.660961,0.85619 2.660961,-0.16607 0,-1.36127 1.700051,-0.90546 2.211299,0.56669 0.221747,0.79459 0.505091,2.60552 0.56053,4.02224 0.117276,3.22763 1.361278,4.87226 3.289234,4.36101 0.794592,-0.16607 1.583026,-0.0557 1.81093,0.28334 0.228154,0.34493 0.90547,0.62212 1.589183,0.62212 0.794592,0 1.638465,1.13337 2.777987,3.57258 1.41056,3.11677 1.804772,3.51099 3.166051,3.22764 0.967056,-0.17247 2.100431,0.11087 2.833425,0.7946 1.077936,0.90546 1.755491,0.96089 4.588917,0.39421 4.250143,-0.78844 14.388875,-1.0225 15.411381,-0.28335 0.394212,0.33854 1.016339,0.45582 1.299672,0.28335 0.338533,-0.22766 2.21131,-0.56669 4.250144,-0.733 2.038834,-0.22815 4.361012,-0.51125 5.155603,-0.62828 0.732995,-0.11087 3.393956,0.11678 5.888599,0.45582 2.888864,0.4499 4.588916,0.4499 4.87226,0.0557 0.39422,-0.62212 3.22765,-0.56669 15.8056,0.17247 8.8945,0.44989 10.19418,0.44989 12.63338,0.0557 6.62776,-1.07793 6.91109,-1.07793 7.53322,0.56669 0.35135,0.94858 0.57285,1.33048 1.58303,1.41671 l 1.23808,0 c 0.47404,-0.0246 1.03481,-0.0616 1.71237,-0.11728 2.77184,-0.22175 4.18855,-0.67756 4.75523,-1.41055 0.39421,-0.62213 0.79459,-0.85619 0.79459,-0.62213 0,0.27694 0.33903,0.22175 0.7946,-0.17246 0.4499,-0.33853 3.11061,-0.67757 5.83315,-0.73916 2.778,-0.0557 5.77773,-0.39422 6.68319,-0.78843 1.92797,-0.79459 3.45556,-4.53349 2.72256,-6.68936 -0.22815,-0.79459 -0.45581,-3.11676 -0.51125,-5.1556 -0.11727,-4.13311 0.17247,-3.79432 -5.61142,-6.91109 -1.63845,-0.90546 -2.77183,-1.86637 -2.48848,-2.14971 0.22174,-0.28334 0.0552,-0.28334 -0.34494,-0.0552 -1.12721,0.62213 -5.14944,-0.90546 -5.48822,-2.15586 -0.40062,-1.24424 0,-5.03857 0.84386,-7.81656 0.34494,-1.07793 0.79459,-3.28308 1.02251,-4.87226 0.17246,-1.64462 0.62211,-3.17221 0.9609,-3.33852 0.28334,-0.17247 0.73915,-1.64462 0.96705,-3.17836 0.22767,-1.58303 0.733,-2.77183 1.07794,-2.66096 0.67755,0.22766 4.8661,-3.56642 4.8661,-4.47188 0,-0.85003 -2.9443,-2.60552 -4.30557,-2.60552 -0.62213,0 -1.35512,-0.17248 -1.58303,-0.40013 -0.22766,-0.28335 -1.36128,-0.56053 -2.49465,-0.62213 -2.03884,-0.16606 -9.96627,-0.73299 -11.8388,-0.79459 -0.51124,-0.0557 -1.35511,-0.78843 -1.81093,-1.70005 -0.67755,-1.18881 -1.1888,-1.47215 -2.32217,-1.24425 -0.79459,0.22816 -1.47215,0.11728 -1.47215,-0.16606 0,-0.33854 -1.2504,-0.90546 -2.83343,-1.30584 -2.55008,-0.62212 -3.1722,-1.18881 -2.88886,-2.77183 0.0557,-0.28925 -0.17247,-0.34494 -0.45581,-0.17247 -0.73299,0.45581 -1.98339,-2.37761 -2.03883,-4.53348 0,-0.9609 -0.51125,-2.43305 -1.18881,-3.28308 -0.67756,-0.85003 -1.24425,-1.9834 -1.24425,-2.55008 0,-0.51125 -0.34493,-1.24425 -0.68371,-1.58303 -0.33854,-0.34494 -0.90547,-2.15587 -1.24425,-4.0284 -0.85003,-4.36101 -1.41671,-5.03856 -4.1331,-4.58891 -1.70006,0.28334 -2.15587,0.11728 -2.15587,-0.67756 0,-0.51125 -0.56669,-1.13337 -1.29969,-1.35512 -0.73915,-0.22814 -1.64461,-1.30584 -2.15586,-2.4392 -1.18881,-2.83343 -2.26674,-6.11652 -2.66096,-7.87201 -0.22766,-0.85618 -1.30584,-2.49464 -2.49465,-3.73888 -1.12721,-1.25041 -2.26674,-2.83343 -2.43305,-3.57259 -0.96089,-3.33852 -2.999731,-6.73862 -4.36101,-7.36074 -1.250401,-0.56669 -1.472147,-1.0225 -1.194971,-2.15588 0.234072,-0.90545 0.117286,-1.52758 -0.277426,-1.52758 -0.455809,0 -0.967057,-0.56669 -1.361279,-1.24424 0,-32.067 -0.455809,-63.89992 -1.700051,-95.33864 l 0.05568,-0.17247 c 0.400619,-0.51125 0.511248,-0.79459 0.794591,-0.9609 0.455809,-0.28334 0.850031,-1.18881 0.850031,-1.9834 0,-0.7946 0.566687,-2.09427 1.244243,-2.88886 1.589183,-1.81093 1.589183,-2.26675 0,-3.28309 -1.299682,-0.79459 -1.700052,-3.51713 -0.677556,-4.59507 0.960899,-1.07178 0.960899,-2.99973 -0.172475,-5.54982 -0.566687,-1.29968 -0.90546,-2.66096 -0.732995,-2.88886 0.339023,-0.56669 2.660961,-0.16607 3.794325,0.56669 0.339033,0.22815 2.605523,0.40062 5.044733,0.40062 3.90521,-0.0616 4.41646,-0.17247 4.52732,-1.30584 0.11088,-0.90547 -0.4558,-1.58303 -2.09426,-2.37762 -1.18881,-0.62212 -2.49465,-0.9609 -2.778,-0.79459 -0.28334,0.17247 -0.79459,-0.11087 -1.24424,-0.56669 -0.45581,-0.62212 -1.36128,-0.79459 -2.494644,-0.56668 -0.90547,0.17247 -3.338516,0 -5.438947,-0.4499 -2.038834,-0.40013 -4.305583,-0.68372 -4.983138,-0.62828 -1.983395,0.17246 -2.944294,0.11727 -5.549816,-0.28334 -0.34494,-0.0552 -0.739162,-0.11087 -1.25041,-0.11087 z m 7.02813,6.39985 1.299682,1.47215 c 0.739152,0.85003 1.361279,1.92797 1.416708,2.38378 0,0.50508 0.117286,1.35511 0.117286,1.97723 0.05568,0.56669 -0.40063,1.19496 -1.022506,1.30584 -1.016328,0.17247 -1.361269,-0.16607 -1.133365,-1.36128 0.05568,-0.28334 -0.227664,-0.9609 -0.566687,-1.41671 -0.449901,-0.4499 -0.511248,-0.90546 -0.110868,-1.13337 0.338533,-0.22175 0.449891,-1.01634 0.338533,-1.81093 l -0.338533,-1.41671 z"
     id="path3124-6"
     style="fill:#808080;fill-rule:evenodd;stroke:none" /><path
     d="m 142.31905,375.81529 c 0.33853,0 0.62213,0.28335 0.62213,0.62213 0,0.34493 -0.28335,0.62212 -0.62213,0.62212 -0.33902,0 -0.62212,-0.27743 -0.62212,-0.62212 0,-0.33853 0.28335,-0.62213 0.62212,-0.62213 z m -62.939024,-0.17246 c 0.228154,-0.0552 0.34494,0.22765 0.34494,0.79459 0,1.41671 -0.117275,1.53374 -0.683723,0.56668 -0.227654,-0.39421 -0.166057,-0.90546 0.172476,-1.24425 0.05568,-0.0557 0.110868,-0.11727 0.166057,-0.11727 z m 37.444344,-1.7555 c 0.51125,0 0.96706,0.28334 0.96706,0.68372 0,0.33853 -0.33853,0.62212 -0.68371,0.62212 -0.33853,0 -0.50509,0.22766 -0.33853,0.51126 0.17246,0.28333 -0.11088,0.50508 -0.62213,0.50508 -0.56669,0 -0.79459,-0.33903 -0.56669,-0.90546 0.17248,-0.44991 0.28335,-1.01634 0.28335,-1.13338 0,-0.16606 0.4499,-0.28334 0.9609,-0.28334 z m 7.36692,-1.18881 c 0.45581,0 1.13336,0.17247 1.92795,0.51125 1.01634,0.40062 1.01634,0.45581 -0.22765,1.24424 -0.73916,0.45582 -1.13338,0.51125 -0.90547,0.11729 0.22175,-0.34494 0,-0.68372 -0.56669,-0.68372 -0.51125,0 -0.96705,-0.27694 -0.96705,-0.62212 0,-0.33853 0.22765,-0.51126 0.73915,-0.56669 z m 18.52198,-1.29968 c 0.11728,0 0.22766,0.39422 0.22766,0.9609 0,0.51125 -0.28335,0.90547 -0.56669,0.90547 -0.33853,0 -0.51125,-0.39422 -0.28334,-0.90547 0.16606,-0.56668 0.45581,-0.9609 0.62212,-0.9609 z m -44.805103,0 c 0.50509,0 1.071777,0.28335 1.299682,0.62213 0.228154,0.33902 -0.166058,0.62212 -0.90546,0.62212 -0.739153,0 -1.30584,-0.28335 -1.30584,-0.62212 0,-0.33853 0.40013,-0.62213 0.911618,-0.62213 z m -42.772415,0 c 0.117276,0 0.455809,0.28335 0.622117,0.62213 0.227664,0.33902 0.117286,0.62212 -0.221737,0.62212 -0.40063,0 -0.683723,-0.28335 -0.683723,-0.62212 0,-0.33853 0.117276,-0.62213 0.283343,-0.62213 z m 37.900155,-0.17246 c 0.166068,0 0.283343,0 0.394222,0 0.622116,0 1.077925,0.17246 1.077925,0.56668 0,0.45581 -0.511248,0.85003 -1.133364,0.85003 -0.850031,0 -0.90547,0.17247 -0.227665,0.56668 0.622126,0.40062 0.511248,0.62213 -0.455809,0.85003 -1.472147,0.39421 -2.771829,-0.73915 -2.094273,-1.81093 0.400619,-0.56668 1.533744,-0.96705 2.439214,-1.02249 z m -6.516882,-0.16607 c 0.283343,0 0.683723,0.11088 1.022506,0.33902 0.50508,0.28335 0.788423,0.67757 0.622116,0.90547 -0.172465,0.17247 -0.739152,0.0557 -1.2504,-0.28334 -0.449901,-0.28334 -0.732995,-0.73915 -0.56053,-0.90546 0.05568,0 0.110878,0 0.166068,-0.0557 z m -24.527618,-0.11728 c 0.110879,0.0557 0.394222,0.33903 0.90547,0.90546 0.967057,1.13338 1.700052,1.36128 3.116769,1.07794 1.022496,-0.22766 2.038835,-0.11087 2.266739,0.17247 0.172475,0.33903 -0.455809,1.01634 -1.361279,1.58302 -1.927955,1.07793 -4.533477,0.51125 -4.533477,-1.01634 0,-0.51125 -0.166067,-1.41671 -0.394222,-2.03883 -0.110868,-0.51125 -0.166057,-0.73916 0,-0.68372 z m 13.649723,-0.0552 c 0.628284,0.0552 1.250411,0.62212 1.250411,1.47215 0,1.1888 -0.911628,1.1888 -1.872527,0.0557 -0.511248,-0.62212 -0.511248,-1.01634 -0.05518,-1.29967 0.172465,-0.17248 0.455809,-0.22767 0.677555,-0.22767 z m 61.46689,-0.11728 c -0.51126,0 -1.24426,0.40063 -1.70007,0.91163 -0.62211,0.79459 -0.62211,0.9609 0.16607,0.9609 0.51125,0 1.30584,-0.39422 1.70005,-0.9609 0.62213,-0.73916 0.62213,-0.91163 -0.16605,-0.91163 z m -52.455354,-0.56052 c 0.110868,0 0.221746,0.16606 0.449901,0.39421 0.455808,0.39422 0.622116,0.90547 0.455808,1.13338 -0.172475,0.16605 -0.566687,-0.17248 -0.794591,-0.7946 -0.227665,-0.56668 -0.227665,-0.78843 -0.110878,-0.73299 z m 14.838526,-0.0557 c 0.339023,0 0.683718,0.27694 0.683718,0.61597 0,0.34494 -0.11728,0.62828 -0.283338,0.62828 -0.172475,0 -0.455819,-0.28334 -0.683723,-0.62828 -0.227655,-0.33903 -0.110869,-0.61597 0.283343,-0.61597 z m -40.844459,0 c 0.227665,0 0.628285,0.39422 0.850031,0.90547 0.172465,0.56669 0,0.9609 -0.50509,0.9609 -0.455809,0 -0.794592,-0.39421 -0.794592,-0.9609 0,-0.51125 0.227665,-0.90547 0.449901,-0.90547 z M 159.54136,367.093 c 0.0552,0 0.11087,0 0.16606,0.0557 0.17247,0.22765 0.22766,0.73915 0.0552,1.1888 -0.22175,0.51125 -0.33854,0.39421 -0.39421,-0.33853 0,-0.51125 0.0557,-0.85003 0.17246,-0.90546 z m -4.25014,-1.07794 c 1.75549,0.0557 3.33851,0.22816 3.17221,0.62213 -0.11088,0.33902 0.16605,1.92796 0.62211,3.40011 0.67757,2.32218 0.62213,2.9443 -0.0552,3.62802 -1.02249,1.01634 -0.96705,1.01634 -2.38377,0.16606 -0.61596,-0.33853 -1.12721,-1.1888 -1.12721,-1.86636 0,-0.68372 -0.22766,-1.13337 -0.51125,-1.0225 -0.73915,0.22815 -4.13926,-3.9052 -3.62801,-4.41645 0.40062,-0.40062 2.2113,-0.51125 3.91136,-0.51125 z m -38.75019,-1.5276 c -0.67755,0 -0.50509,0.39422 0.62213,1.52758 1.58918,1.58303 3.11677,2.03884 3.11677,1.0225 0,-0.79459 -2.5501,-2.55008 -3.7389,-2.55008 z m -15.46065,0 c -0.85004,0 -1.533749,0.22175 -1.533749,0.4499 0,0.28334 0.683709,0.56669 1.533749,0.68372 0.90547,0.0557 1.58302,-0.17247 1.58302,-0.51125 0,-0.33903 -0.67755,-0.62212 -1.58302,-0.62212 z m 39.93283,-1.30584 c -0.90546,0 -1.75549,2.72256 -1.41671,4.53349 0.33902,1.70005 1.81709,2.1497 2.38378,0.62211 0.51124,-1.1888 -0.28335,-5.1556 -0.96707,-5.1556 z M 86.063216,361.3153 c -0.56053,0 -1.016338,0.44989 -1.016338,1.01634 0,1.07792 1.361278,0.90546 1.75549,-0.28335 0.110879,-0.39422 -0.227654,-0.73299 -0.739152,-0.73299 z m 1.706219,-0.51125 c -0.117286,0 -0.172475,0.28334 -0.172475,0.90546 0,0.68371 0.172475,1.47215 0.394222,1.70005 0.739152,0.78844 0.85002,0 0.283343,-1.52758 -0.283343,-0.68372 -0.449901,-1.0225 -0.50509,-1.07793 z m 53.305375,-0.11728 c -0.34494,0 -0.62829,0.28926 -0.62829,0.68372 0,0.33902 0.28335,0.44989 0.62829,0.28334 0.33853,-0.22766 0.62212,-0.51125 0.62212,-0.67756 0,-0.17247 -0.28334,-0.28925 -0.62212,-0.28925 z m -67.410917,0 c -0.850021,0 -0.683713,1.76165 0.221747,2.10043 0.400129,0.11088 1.022496,0.11088 1.305839,0 0.566687,-0.33903 -0.739152,-2.10043 -1.527586,-2.10043 z m 25.488517,-0.61596 c -1.133365,0 -2.550083,3.33851 -1.527587,3.67729 0.338533,0.11087 0.677566,0.68372 0.677566,1.24425 0,1.58917 0.960899,-0.28334 1.416708,-2.88887 0.339033,-1.58302 0.172475,-2.03267 -0.566687,-2.03267 z m -33.877916,-0.40062 c -0.50509,0 -0.788434,0.16606 -0.622126,0.45581 0.339022,0.62211 -3.227638,2.54392 -3.738886,1.97723 -0.221747,-0.16605 -0.394222,0.11728 -0.394222,0.68373 0,0.85002 0.283344,0.90546 1.583026,0.39421 0.911627,-0.33853 1.927965,-0.4499 2.211299,-0.28334 0.338533,0.22815 0.394222,-0.0552 0.227665,-0.62212 -0.283344,-0.62213 -0.117276,-0.90547 0.394211,-0.79459 0.455819,0.0616 0.90547,-0.28335 1.077936,-0.85003 0.117286,-0.56053 -0.227655,-0.9609 -0.739153,-0.9609 z m 16.489307,-0.11088 c -0.283344,0.0557 -0.511248,0.39422 -0.511248,0.85003 0,0.56669 0.283343,0.90546 0.622116,0.78843 0.967067,-0.28334 1.077935,-1.29968 0.172475,-1.58302 -0.05568,-0.0557 -0.117286,-0.0557 -0.172475,-0.0557 0,0 -0.05568,0 -0.110868,0 z m 14.271849,-1.07794 c -0.622126,0.11088 -0.960909,0.67757 -0.50509,1.18882 0.560519,0.56667 1.355111,0.51125 1.755491,-0.17248 0.166057,-0.33853 -0.06158,-0.73299 -0.566688,-0.90546 -0.227664,-0.11088 -0.511248,-0.11088 -0.683713,-0.11088 z m 16.65562,-2.2113 c -0.33903,0 -0.4499,0.28335 -0.28335,0.62212 0.22767,0.33903 0.51125,0.62829 0.68373,0.62829 0.16605,0 0.27742,-0.28926 0.27742,-0.62829 0,-0.33853 -0.27742,-0.62212 -0.67755,-0.62212 z m 17.73355,-0.50509 c 0.22174,-0.0616 0.4499,0 0.67756,0.11087 0.51125,0.16607 0.39421,0.33854 -0.33903,0.33854 -0.68371,0.0557 -1.07793,-0.11087 -0.85002,-0.28335 0.11087,-0.11087 0.28334,-0.16606 0.51125,-0.16606 z m -55.177902,-0.22766 c -0.283343,0 -0.622116,0.28334 -0.794591,0.73299 -0.110868,0.34495 0.283343,0.62213 0.850031,0.62213 0.566687,0 0.911617,-0.33853 0.794591,-0.78843 -0.172475,-0.40062 -0.511248,-0.62829 -0.850031,-0.56669 z m 45.260912,-0.28334 c -0.16607,0 -0.33853,0.0557 -0.56669,0.0557 -0.67755,0.11086 -1.52758,0.28334 -1.86636,0.28334 -0.34495,0.0552 -0.17247,0.33853 0.33903,0.67755 1.13336,0.7946 1.92795,0.7946 3.05517,0.11088 0.91162,-0.61597 0.34493,-1.18265 -0.96091,-1.12721 z m -60.161035,-1.13337 c -1.016338,0 -1.921808,0.22816 -2.488485,0.733 -0.850031,0.73915 -1.30585,0.79459 -1.983405,0.28334 -0.455809,-0.39422 -1.022496,-0.56669 -1.250401,-0.33853 -0.394222,0.40013 -4.87226,1.47214 -7.021972,1.70005 -1.700052,0.17247 -2.944294,1.02249 -2.494643,1.75549 0.400619,0.62213 11.844951,0.22766 12.916728,-0.44989 0.344941,-0.17248 1.077935,0.11087 1.644612,0.67755 0.96091,0.9609 1.133375,0.9609 2.494653,-0.67755 0.850031,-0.91163 1.472148,-1.92797 1.472148,-2.21131 0,-0.96706 -1.700052,-1.47215 -3.289235,-1.47215 z m 35.633416,-0.96706 c -0.110878,0 -0.227664,0.40013 -0.227664,0.90547 0,0.56668 0.283343,0.96705 0.628284,0.96705 0.338532,0 0.449901,-0.40062 0.221746,-0.96705 -0.166067,-0.50509 -0.455809,-0.90547 -0.622126,-0.90547 z m 7.366909,-0.39422 c -0.51125,0.0557 -1.13337,0.0557 -1.81709,0.17247 -2.888868,0.33903 -3.28308,0.56669 -3.28308,1.86637 0,1.64462 0.960899,2.43305 2.03883,1.70006 0.39422,-0.22767 1.52759,-0.56669 2.48849,-0.62213 1.87253,-0.22815 3.06134,1.13338 3.06134,3.51098 0,1.64463 1.24424,1.70007 1.70005,0.11088 0.17247,-0.67755 1.13338,-1.58302 2.09428,-1.97723 1.02249,-0.40013 1.87252,-0.96707 1.87252,-1.19498 0,-0.22174 -1.52758,-1.1888 -3.34467,-2.09427 -2.14971,-1.07793 -3.22765,-1.47215 -4.81067,-1.47215 z m -19.944865,-0.0552 c -0.05568,0.0552 -0.166057,0.0552 -0.221746,0.11087 -0.338533,0.22767 -0.628274,0.51125 -0.628274,0.68373 0,0.16605 0.289741,0.28334 0.628274,0.28334 0.339032,0 0.622126,-0.33902 0.622126,-0.68372 0,-0.28335 -0.172465,-0.39422 -0.40062,-0.39422 z m 10.027874,-0.17246 c -1.927966,0 -3.9668,1.2504 -3.9668,2.37761 0,0.45581 0.511248,0.51124 1.75549,0.0616 1.022496,-0.34494 2.21131,-0.56668 2.667119,-0.45581 0.449901,0.11087 0.960899,-0.28334 1.071777,-0.90547 0.172465,-0.85002 -0.166557,-1.07792 -1.527586,-1.07792 z m -13.36639,-0.0557 c -0.117276,0 -0.283333,0.0557 -0.400619,0.22815 -0.221747,0.16607 -0.166058,0.67756 0.117286,1.13338 0.394212,0.67755 0.50508,0.62211 0.732994,0 0.227655,-0.68372 -0.05568,-1.30584 -0.449901,-1.36128 z m 51.149511,-1.9834 c 0.22766,0.0557 0.45582,0.68372 0.56669,1.7555 0.39421,3.06133 0.17246,3.34467 -0.62213,1.02249 -0.39421,-1.02249 -0.45581,-2.2113 -0.16606,-2.60552 0.0552,-0.17247 0.16606,-0.17247 0.22175,-0.17247 z m 14.49975,-2.71639 c 0,0 0.0616,0 0.11728,0 0.22766,0.0552 0.33903,0.28334 0.51125,0.62212 0.16607,0.51125 0.0557,0.9609 -0.33853,0.9609 -0.34494,0 -0.51125,0.45581 -0.28975,0.96707 0.17247,0.50508 0.28975,0.90546 0.23407,0.85002 -1.9834,-0.68372 -2.32834,-1.81709 -0.85619,-3.00589 0.22766,-0.22767 0.45581,-0.33904 0.62212,-0.39422 z m -42.42748,-0.90546 c -0.33902,0 -0.62212,0.27742 -0.62212,0.62211 0,0.33853 0.28335,0.62213 0.62212,0.62213 0.33853,0 0.62213,-0.28335 0.62213,-0.62213 0,-0.34493 -0.28335,-0.62211 -0.62213,-0.62211 z m -11.327548,0 c -0.511248,0 -1.244243,1.52758 -1.244243,2.54392 0,0.68371 0.221747,0.68371 1.472157,0.22765 0.90546,-0.33853 0.739153,-2.77182 -0.228154,-2.77182 z m 53.533288,-3.17837 c 0.33853,0 0.39421,0.45581 0.22174,0.96706 -0.22174,0.51124 -0.62212,0.90547 -0.8993,0.90547 -0.28926,0 -0.40013,-0.39423 -0.22766,-0.90547 0.22766,-0.51125 0.62212,-0.96706 0.90547,-0.96706 z M 47.830436,334.5761 c -0.227654,0.0557 -0.339023,0.28335 -0.339023,0.62213 0,0.51125 0.228155,0.9609 0.505091,0.9609 0.289251,0 0.566687,-0.28335 0.566687,-0.62212 0,-0.28334 -0.277436,-0.73299 -0.566687,-0.90547 -0.05568,-0.0557 -0.110879,-0.0557 -0.166068,-0.0557 z m 88.427554,-1.36127 c -0.0557,0 -0.11729,0.0557 -0.22767,0.11728 -0.33902,0.16607 -0.62212,0.50509 -0.62212,0.67756 0,0.11087 0.28335,0.22766 0.62212,0.22766 0.33853,0 0.62213,-0.28334 0.62213,-0.62828 0,-0.27743 -0.17248,-0.4499 -0.39422,-0.39422 z M 73.035619,332.3094 c -1.244253,0 -2.149713,5.77773 -1.299682,8.27238 0.566687,1.64462 0.511248,1.86637 -0.566687,1.86637 -1.472147,0 -1.644622,0.96705 -0.283344,1.47214 0.511248,0.22767 0.9609,0.85003 0.9609,1.41672 0,0.68371 0.339022,0.85002 0.967066,0.62212 0.56052,-0.22175 1.299672,-0.39421 1.583016,-0.39421 0.338533,0 0.566687,-0.73916 0.566687,-1.58919 0,-0.90547 0.455809,-2.43305 1.016338,-3.51098 0.511248,-1.07178 0.850031,-2.32218 0.628284,-2.82727 -0.172475,-0.51124 -0.116786,-0.79459 0.221747,-0.57284 0.289751,0.17246 0.850031,-0.11088 1.305839,-0.61597 0.511248,-0.62827 0.566688,-0.91162 0.05568,-0.91162 -0.394211,0 -0.677555,-0.56668 -0.677555,-1.18881 0,-0.79459 -0.566687,-1.29968 -1.755491,-1.52759 -0.967066,-0.11727 -2.15587,-0.40062 -2.605521,-0.51125 -0.05568,0 -0.117276,0 -0.117276,0 z m 55.005431,-0.96089 c -0.39422,0.0557 -0.22766,1.01633 0.56668,1.98339 1.13337,1.24424 1.7555,1.13337 1.7555,-0.45581 0,-0.73299 -0.16607,-1.1888 -0.39422,-0.9609 -0.22766,0.22766 -0.79459,0.11087 -1.24424,-0.22815 -0.28335,-0.28335 -0.51125,-0.33853 -0.68372,-0.33853 z m -33.81633,-0.67756 c 0.850021,-0.0616 2.155861,1.01634 2.155861,1.9218 -0.06158,0.39422 -0.455809,0.17247 -1.022496,-0.56669 -0.90546,-1.1888 -0.90546,-1.1888 -0.622117,0.51125 0.338533,1.92796 0.283344,2.03883 -0.739162,0.96091 -0.960899,-0.90547 -1.016338,-2.21131 -0.110868,-2.7164 0.110868,-0.0557 0.227654,-0.11087 0.339022,-0.11087 z m -24.244273,-0.11729 c -0.172476,0 -0.40063,0.0552 -0.511258,0.17248 -0.172466,0.22175 0.172475,0.33902 0.85003,0.33902 0.732995,-0.0557 0.850031,-0.17246 0.394222,-0.39421 -0.221746,-0.0616 -0.511248,-0.11729 -0.732994,-0.11729 z m -10.422086,-1.07792 c -0.172465,0 -0.34494,0.0552 -0.511248,0.11087 -0.90547,0.34494 -0.90547,0.51125 -0.05568,1.81708 0.843873,1.29969 0.843873,1.47215 -0.34493,1.7555 -1.016339,0.28334 -1.299682,0.0552 -1.299682,-0.90546 0,-0.90547 -0.283344,-1.13338 -1.022496,-0.90547 -0.511248,0.22766 -1.355121,0.39422 -1.866369,0.39422 -0.511248,0 -0.90546,0.56668 -0.90546,1.24424 0,0.73915 -0.683723,2.43921 -1.589183,3.85592 -1.527586,2.37762 -1.700062,2.48849 -2.7164,1.58303 -1.305839,-1.18882 -1.983395,-1.29968 -1.983395,-0.33854 0,0.33854 -0.394222,1.07794 -0.90547,1.64463 -0.566677,0.51124 -0.794591,1.1888 -0.566677,1.52758 0.172465,0.33854 -0.06158,1.13337 -0.566687,1.70005 -0.511248,0.56669 -0.850031,1.92797 -0.794592,2.94431 0.227655,2.94429 0.40062,3.22764 0.960899,1.75549 0.339023,-0.78843 1.30584,-1.70006 2.155871,-2.03884 2.322177,-0.90547 6.116502,-0.22815 7.138998,1.25041 0.449901,0.67755 1.361279,1.24424 1.977238,1.24424 0.628284,0 1.533753,0.4499 1.983405,0.9609 0.455808,0.56668 0.967056,0.73915 1.188803,0.33903 0.228154,-0.39422 0.739152,-0.39422 1.30584,-0.0557 0.511248,0.33902 1.133374,0.62828 1.416717,0.62828 0.850021,0 0.455809,-2.95046 -0.511248,-3.74505 -0.511257,-0.4499 -0.733004,-1.12721 -0.449901,-1.52759 0.227655,-0.39421 0.505091,-1.13336 0.566688,-1.64462 0.732994,-6.45527 0.788423,-8.15533 0.221746,-8.49412 -0.339032,-0.22765 -0.622126,-1.1888 -0.622126,-2.15586 0,-1.81093 -1.016338,-3.05517 -2.205142,-2.9443 z m 59.477309,-0.90547 c 0.33904,0 0.62213,0.28334 0.62213,0.62213 0,0.33853 -0.28334,0.73915 -0.62213,0.96705 -0.33853,0.22175 -0.62211,-0.0616 -0.62211,-0.57284 0,-0.56053 0.28334,-1.01634 0.62211,-1.01634 z m 30.64413,-0.33853 c 0.11728,0 0.22766,0.0552 0.45581,0.11087 0.56669,0.22766 0.85003,0.68372 0.62213,1.0225 -0.22766,0.39421 0.0557,0.45581 0.85002,0.22175 0.73299,-0.22175 1.47216,-0.11088 1.70006,0.23406 0.22816,0.39421 0,0.67755 -0.51125,0.67755 -0.51124,0 -1.07177,0.39423 -1.24424,0.90547 -0.45582,1.13337 -1.58918,1.24425 -2.9443,0.33854 -0.79459,-0.56669 -0.79459,-0.733 0.22174,-1.52759 0.62829,-0.51125 1.0225,-1.18881 0.7946,-1.58918 -0.16656,-0.22175 -0.16656,-0.39422 0.0552,-0.39422 z m -1.81093,-0.0616 c 0.56669,0 0.56669,0.17247 0.0557,0.45581 -1.07177,0.73916 -1.63845,0.73916 -2.03883,0.11728 -0.17247,-0.22766 0.45581,-0.51124 1.30584,-0.57284 0.28334,0 0.51125,0 0.67755,0 z m -8.32781,-0.22175 1.41672,0 c 0.9609,0 1.29967,0.28335 1.0225,0.79459 -0.40063,0.62213 -0.28335,0.62213 0.39421,0 1.30584,-1.2504 2.26674,-0.91162 3.06133,1.07794 1.01634,2.32218 0.67756,5.32191 -0.40062,4.13311 -0.39421,-0.45581 -0.67756,-1.64463 -0.62212,-2.60552 0.11087,-1.41672 -0.11088,-1.76165 -0.96091,-1.64463 -0.62211,0.11729 -1.75549,-0.22765 -2.55008,-0.79459 l -1.36128,-0.9609 z m -63.89993,-1.24424 c -0.788423,0 -1.355111,1.01634 -0.85002,1.46599 0.683713,0.73915 1.422865,0.45581 1.422865,-0.50509 0,-0.51125 -0.234062,-0.9609 -0.572845,-0.9609 z m 57.27218,-1.87253 c 0.34494,0 0.62212,0.56669 0.62212,1.24425 0,0.68372 -0.11087,1.25041 -0.27694,1.25041 -0.11727,0 -0.34494,-0.56669 -0.57284,-1.25041 -0.16656,-0.67756 -0.0557,-1.24425 0.22766,-1.24425 z m -5.72229,-0.62211 c -0.33902,0 -0.62213,0.56667 -0.62213,1.24424 0,0.68371 0.28335,1.2504 0.62213,1.2504 0.40013,0 0.68371,-0.56669 0.68371,-1.2504 0,-0.67757 -0.28334,-1.24424 -0.68371,-1.24424 z M 85.558126,322.337 c -0.05568,0 -0.227655,0.17247 -0.511248,0.56669 -0.339023,0.56667 -0.622117,1.19496 -0.622117,1.4783 0,0.27694 0.283334,0.33853 0.622117,0.11088 0.338532,-0.22766 0.622126,-0.85003 0.622126,-1.47216 0,-0.45581 0,-0.68371 -0.110878,-0.68371 z m -33.311239,-0.0557 c 0.283344,0 0.511248,0.45582 0.511248,0.96707 0,1.07177 -0.05568,1.13336 -0.677555,0.50509 -0.566687,-0.56053 -0.511248,-1.47216 0.166057,-1.47216 z m 72.110713,-0.51125 c 0.17246,0 0.51124,0.0616 1.07793,0.22816 4.76138,1.52758 5.89476,2.10043 5.77772,3.06133 -0.0552,0.56668 0.17248,1.01634 0.51125,1.01634 0.28334,0 0.51125,0.56668 0.51125,1.25041 0,1.47214 2.77184,3.45554 3.84976,2.77183 0.56669,-0.27694 0.68372,-0.0552 0.39422,0.91161 -0.16607,0.733 0.0616,1.63847 0.51125,1.97725 1.0225,0.85002 1.64462,3.1722 0.85003,3.1722 -0.28334,0 -0.56669,-0.28335 -0.56669,-0.62212 0,-0.39422 -0.28334,-0.67756 -0.67756,-0.67756 -0.33902,0 -0.45581,0.28334 -0.28334,0.56668 0.16606,0.33903 -0.0557,0.90547 -0.51125,1.29969 -0.56668,0.4558 -1.01633,0.51124 -1.13337,0.11727 -0.11088,-0.33902 -1.07177,-0.79459 -2.09427,-1.07793 -1.87253,-0.39422 -1.87253,-0.39422 -0.62213,0.79459 0.96091,0.90547 1.30585,1.92796 1.24426,4.47189 0,1.81709 -0.22816,3.28923 -0.56669,3.28923 -0.28335,0 -0.39422,0.50509 -0.22175,1.18882 0.16606,0.62211 0,1.58302 -0.40062,2.1497 -0.67756,0.90547 -0.85003,0.85003 -1.52758,-0.22175 -0.45582,-0.73915 -1.18882,-1.07792 -1.87253,-0.85002 -1.01634,0.33902 -1.01634,0.33902 0,-0.34494 0.62212,-0.39422 1.36127,-0.62213 1.58918,-0.4499 0.28335,0.16607 0.56668,-0.40062 0.62212,-1.1888 0.11088,-0.85003 0.22766,-2.26675 0.33902,-3.11677 0.0552,-0.85003 0.33853,-1.58303 0.62213,-1.58303 1.02249,0 0.39421,-1.07793 -2.03884,-3.62802 -1.41671,-1.47214 -2.99973,-2.66711 -3.51098,-2.66711 -0.4499,0 -0.90547,-0.16606 -0.96091,-0.4499 -0.22765,-2.03884 -0.11678,-4.58892 0.27744,-6.34441 0.40062,-1.47215 0.23406,-2.49465 -0.50509,-3.62186 -0.68372,-1.0225 -0.90547,-1.42288 -0.68372,-1.42288 z m -50.983208,-1.1272 c -0.338533,0.0557 -0.850031,1.24424 -1.127207,3.22763 -0.338533,2.32218 -0.283343,2.43306 0.566687,1.29969 0.505081,-0.67756 0.90546,-2.09428 0.90546,-3.11062 0,-0.96705 -0.117276,-1.4167 -0.34494,-1.4167 z m 12.239173,-2.10043 c -0.339023,0 -0.455809,0.28334 -0.228155,0.62211 0.172476,0.33903 0.511248,0.62829 0.622127,0.62829 0.172465,0 0.289251,-0.28926 0.289251,-0.62829 0,-0.33853 -0.289251,-0.62211 -0.683713,-0.62211 z m 18.583585,-1.92181 c 0.22174,0 0.33853,0.16606 0.33853,0.56668 0,0.28335 -0.33853,0.89932 -0.85003,1.29969 -0.73915,0.62212 -0.85002,0.51124 -0.56668,-0.56669 0.16606,-0.79459 0.733,-1.29968 1.07793,-1.29968 z m -4.878423,-1.19496 c 0.40013,0 0.967053,0.22765 1.133363,0.56668 0.22816,0.34494 0.11729,1.13337 -0.27694,1.76165 -0.628269,0.9609 -0.739147,0.9609 -0.455803,-0.28334 0.172465,-0.79459 0,-1.53375 -0.40013,-1.70005 -0.50509,-0.22767 -0.50509,-0.28335 0,-0.34494 z m -34.949703,-0.67756 c -0.788434,0 -0.732994,0.17247 0.172475,1.1888 0.732995,0.85003 0.850021,1.36128 0.394212,1.64463 -0.511248,0.28334 -0.511248,0.67755 0.05568,1.36126 0.628284,0.733 0.850031,0.67757 1.644623,-0.4558 0.794591,-1.13338 0.794591,-1.41671 -0.166068,-2.55009 -0.628274,-0.62212 -1.533744,-1.1888 -2.100431,-1.1888 z m 2.777987,-0.62213 c -0.339023,0 -0.110869,0.44991 0.511258,0.90546 0.677555,0.51126 1.244242,1.5276 1.299672,2.21131 0.05518,0.733 0.683723,1.70005 1.361278,2.20515 1.416718,1.02249 1.589183,0.90547 2.494653,-1.7555 0.505081,-1.47214 1.133365,-2.03883 2.205142,-2.03883 2.550082,-0.11087 3.116769,-0.22765 3.116769,-0.85003 0,-0.78842 -7.021972,-0.67756 -8.044468,0.11729 -0.566687,0.44989 -1.077935,0.44989 -1.583026,-0.0557 -0.400619,-0.40013 -1.022495,-0.73916 -1.361278,-0.73916 z m 15.238906,-0.28334 c -0.622116,0 -1.2504,0.22767 -1.589173,0.67756 -0.90547,1.25041 -0.455819,2.03884 0.628274,0.96706 0.566687,-0.56668 0.90547,-0.28334 1.527586,1.13337 0.566687,1.41056 1.016338,1.7555 2.094274,1.466 0.739152,-0.16607 1.188803,-0.67757 1.077935,-1.07178 -0.172466,-0.39422 0,-1.18881 0.283343,-1.81093 0.338533,-0.68372 0.338533,-1.07794 -0.05568,-1.07794 -0.34494,0 -0.90547,0.51125 -1.25041,1.07794 -0.566687,0.9609 -0.622116,1.01634 -0.677556,0.11087 0,-0.9609 -1.022496,-1.52759 -2.038834,-1.47215 z m 10.877894,-0.33902 c -0.339022,0 -0.739152,0.28334 -0.967056,0.62211 -0.221747,0.33904 0.05568,0.62213 0.566687,0.62213 0.566687,0 1.022496,-0.28334 1.022496,-0.62213 0,-0.33902 -0.283344,-0.62211 -0.622127,-0.62211 z m -2.550082,-0.28335 -0.967057,1.41671 c -0.566687,0.73301 -0.85003,1.64462 -0.622126,2.03885 0.683723,1.01632 1.589183,0 1.589183,-1.81093 l 0,-1.64463 z m 28.038611,-2.26673 c 0.67756,0 0.90546,0.33902 0.67756,0.96089 -0.22175,0.56669 0,0.96706 0.62828,0.96706 0.90546,0 0.90546,0.11088 0.16606,1.01634 -0.79459,0.96707 -0.733,1.0225 0.28334,0.62213 0.67756,-0.22175 0.9609,-0.16607 0.73915,0.22765 -0.22765,0.33903 -0.96705,0.62213 -1.70005,0.62213 -0.73915,0 -1.70006,0.51125 -2.21131,1.07793 -0.51124,0.62212 -0.73299,0.73915 -0.44989,0.28335 0.39421,-0.85003 0.62212,-1.98341 0.78843,-4.64436 0.0557,-0.62213 0.56668,-1.13337 1.07793,-1.13337 z m -10.47752,-4.41646 c 0.33853,0 0.78843,0.33903 1.01633,0.67756 0.68373,1.07794 0.11088,1.18881 -0.79459,0.22766 -0.4494,-0.45581 -0.56052,-0.90547 -0.22174,-0.90547 z m -20.111173,-2.2113 c -0.511248,-0.0557 -1.2504,0.0552 -2.377617,0.28334 -0.172465,0.0552 0.05568,0.4499 0.511248,0.9609 0.732995,0.90547 2.094273,1.0225 2.377617,0.17247 0.339023,-0.9609 0.283343,-1.41671 -0.511248,-1.41671 z m -4.644356,-1.92796 c -0.400619,0 -0.85003,0.17246 -1.361278,0.62212 -0.455809,0.45581 -0.394212,0.96706 0.283343,1.70006 1.527586,1.81708 3.400113,0.28334 2.149713,-1.70006 -0.276936,-0.4499 -0.677566,-0.67756 -1.071778,-0.62212 z m 3.794325,-0.22767 c -0.566677,0 -1.016338,0.28335 -1.016338,0.62829 0,0.33853 0.277436,0.62213 0.615969,0.62213 0.289751,0 0.739152,-0.28335 0.967056,-0.62213 0.227665,-0.34494 -0.05568,-0.62829 -0.566687,-0.62829 z m -29.061094,-0.78841 c 0.338532,0 0.905459,0.33903 1.983395,1.18881 2.777996,2.09428 5.211042,2.37762 6.572321,0.62212 1.071777,-1.24424 2.550082,-1.0225 2.433046,0.39422 0,0.56669 -0.110868,0.56669 -0.339022,0 -0.566688,-1.41672 -1.361279,-0.84387 -2.094274,1.41671 -0.739152,2.15587 -0.911617,2.26675 -5.155603,3.11677 -1.133375,0.17248 -2.038835,-1.24424 -1.416708,-2.26674 0.172465,-0.28334 -0.117286,-0.56669 -0.622127,-0.56669 -1.188803,0 -1.305839,0.73916 -0.227654,1.81709 0.566677,0.56053 0.566677,0.89931 0,1.47216 -0.455819,0.39421 -0.794592,0.56668 -0.794592,0.33902 0,-0.22766 -0.566687,0 -1.244252,0.62212 -0.683714,0.56668 -1.244243,1.58302 -1.244243,2.21131 0,0.67755 -0.289251,1.75549 -0.683713,2.43304 -0.794592,1.52759 -1.866369,1.52759 -1.866369,-0.0557 0,-0.67755 0.394222,-1.24424 0.788434,-1.24424 0.566687,-0.0557 0.511248,-0.22766 -0.110879,-0.62828 -0.566677,-0.33903 -0.677555,-0.67756 -0.338533,-0.67756 0.394222,0 0.733005,-0.73299 0.794592,-1.64462 0.110878,-0.90546 0.566687,-2.54392 1.071777,-3.56642 0.566688,-1.0225 0.967067,-2.26674 0.967067,-2.72255 0,-0.4499 0.283334,-0.84387 0.622117,-0.84387 0.339022,0 0.622126,-0.45581 0.622126,-1.0225 0,-0.22766 0.110868,-0.39422 0.283343,-0.39422 z m 24.983426,-6.1781 c -0.339023,0 -0.794592,0.28335 -1.022496,0.68372 -0.221747,0.33903 -0.110869,0.62212 0.227664,0.62212 0.338533,0 0.794592,-0.28334 1.016339,-0.62212 0.227654,-0.40061 0.117276,-0.68372 -0.221747,-0.68372 z m -14.050093,-5.66069 c 0.338533,0 0.566677,1.29968 0.511248,2.82727 0,1.76165 -0.283344,2.83342 -0.739162,2.83342 -1.016339,0 -1.638455,2.60552 -0.850021,3.57259 0.455809,0.50508 0.455809,0.90546 0,1.1888 -0.394222,0.16656 -0.677566,-0.0552 -0.677566,-0.62828 0,-0.56052 -0.283343,-0.84386 -0.683713,-0.62212 -1.188803,0.73916 0.117276,-3.11061 1.361279,-4.01608 1.472147,-1.07792 1.589183,-2.10043 0.172465,-1.53374 -0.90546,0.33902 -0.90546,0.17247 -0.172465,-1.13337 0.455809,-0.85003 0.794591,-1.7555 0.739152,-1.9834 -0.117276,-0.28335 0.05568,-0.50509 0.339023,-0.50509 z m 27.872291,-1.30584 c 0.283344,-0.0552 0.50509,0.56669 0.677556,1.92796 0.172465,1.13338 -0.110879,1.64463 -0.90547,1.81093 -0.960899,0.16606 -1.077925,-0.0557 -0.683713,-1.58302 0.34494,-1.41671 0.628284,-2.15587 0.911627,-2.15587 z m -0.06158,-1.81093 c 0.344941,0 0.628274,0.11088 0.628274,0.28334 0,0.11088 -0.283333,0.4499 -0.628274,0.67757 -0.339032,0.17246 -0.615968,0.0552 -0.615968,-0.28335 0,-0.39422 0.276936,-0.67756 0.615968,-0.67756 z m -24.355152,-1.75549 c -0.339023,0.0557 -0.566687,0.90547 -1.077935,3.17221 -0.221747,1.01633 -0.110868,1.70005 0.227664,1.70005 0.394212,0 0.677556,-0.51125 0.677556,-1.13337 0,-0.62828 0.34494,-1.47215 0.739152,-1.87252 0.566687,-0.56669 0.566687,-0.90547 0,-1.47215 -0.227654,-0.22815 -0.394212,-0.39422 -0.566677,-0.39422 z M 96.77482,283.5373 c 0.05568,0 0.05568,0 0.110868,0 0.05568,0 0.05568,0 0.110878,0.0552 0.344941,0.22815 0.628274,0.78843 0.628274,1.29968 0,0.51125 -0.283333,0.91162 -0.628274,0.91162 -0.339032,0 -0.615968,-0.62828 -0.615968,-1.30584 0,-0.56668 0.166067,-0.90546 0.394222,-0.9609 z m -28.155635,-5.83932 c 0.227654,0 0.455809,0.11727 0.622116,0.40013 0.739163,1.24424 6.399846,1.4167 8.327812,0.28334 2.377617,-1.36128 3.9668,-0.62213 3.344674,1.58303 -0.683713,2.55008 -0.794592,6.46144 -0.227655,8.38939 0.283344,1.07178 0.166058,1.98341 -0.228154,2.43306 -0.511248,0.51125 -0.449901,0.67756 0.117276,0.67756 0.449901,0 0.622126,0.28334 0.394222,0.62212 -0.794592,1.2504 0.283334,3.00589 1.638455,2.66711 1.706219,-0.45581 2.550082,-2.83343 1.817087,-4.87226 -0.338533,-0.85002 -0.338533,-1.58918 -0.05518,-1.58918 1.133374,0 0.338533,-3.1722 -0.850031,-3.51098 -1.133364,-0.40062 -1.133364,-0.45581 0.338533,-1.24425 0.794592,-0.45581 1.983405,-0.85003 2.605521,-0.85003 0.622127,-0.0557 1.077935,-0.33902 1.077935,-0.73915 0,-0.39421 0.394222,-0.50509 0.90547,-0.33853 0.511248,0.17246 1.077936,-0.0557 1.244243,-0.56669 0.511248,-1.29968 2.888865,-0.85003 3.233795,0.62213 0.843873,3.68344 1.299682,8.50027 0.843873,8.67274 -0.622126,0.22175 0.172466,3.51099 0.90546,3.79433 0.283344,0.0557 0.739163,-0.22766 1.022506,-0.68372 0.394212,-0.62212 0.850021,-0.67755 1.755491,-0.16606 1.077935,0.56668 1.2504,1.24425 1.188803,4.58276 l -0.05518,3.96679 -1.866369,-0.16606 c -1.761648,-0.11728 -1.817087,-0.0616 -0.794591,0.733 1.700061,1.30584 1.299681,1.58918 -1.983395,1.30584 -2.322178,-0.17248 -3.172209,0 -3.455552,0.67755 -0.227655,0.62213 0.05568,0.90546 0.85003,0.90546 0.622127,0 1.355121,0.34494 1.644623,0.68373 0.221746,0.39421 0.960899,0.56668 1.638454,0.39421 0.739162,-0.22766 1.700062,0.0552 2.21131,0.56669 1.022495,1.01633 2.716389,1.18881 2.716389,0.28334 0,-0.40062 1.133374,-0.67756 2.494654,-0.67756 2.71639,0 4.30557,1.12721 5.95019,4.36102 1.41055,2.77183 0.733,4.02223 -2.10043,3.56642 -3.51099,-0.56669 -7.872,-0.85003 -8.666592,-0.56669 -0.449901,0.17247 -0.622116,1.81093 -0.394211,4.70595 0.227654,3.79433 0.05518,4.58892 -0.90547,5.26648 -1.022496,0.78843 -0.967057,0.85002 0.794591,1.29968 1.016338,0.22815 2.094274,0.79459 2.377617,1.13337 0.339023,0.51125 0.677556,0.40062 1.244235,-0.22765 0.45581,-0.56669 1.52759,-0.85004 2.77799,-0.733 1.86637,0.16606 2.09428,0 2.09428,-1.41672 0,-0.90546 -0.28335,-1.64462 -0.67756,-1.64462 -0.33853,0 -0.62828,0.28334 -0.62828,0.62213 0,0.40062 -0.50509,0.62211 -1.18881,0.62211 -1.13337,0 -1.13337,-0.11086 -0.28334,-1.86636 1.13337,-2.21131 1.07793,-2.21131 2.43921,-0.85003 0.79459,0.73916 1.18881,0.85003 1.86636,0.22767 0.51125,-0.39422 1.58919,-0.62213 2.43922,-0.51126 0.79459,0.11729 1.98339,-0.17247 2.55008,-0.67756 0.85003,-0.73915 1.01634,-0.68371 1.01634,0.11088 0,0.56668 -0.62212,1.18881 -1.29969,1.41671 -0.91161,0.28334 -1.2504,0.79459 -1.02249,1.52759 0.28334,1.25041 -0.56669,3.17221 -1.47215,3.17221 -0.33902,0 -1.70006,0.68371 -3.06133,1.53374 -1.7555,1.07793 -2.54392,2.09427 -2.82727,3.62186 -0.22766,1.1888 -0.62828,1.75549 -0.90547,1.41672 -0.22765,-0.39422 -1.19496,-0.90547 -2.10043,-1.13338 -0.905456,-0.22766 -2.094269,-1.13337 -2.660946,-1.98339 -1.250411,-1.92181 -3.11677,-2.03885 -4.927699,-0.33854 -1.30584,1.18881 -1.30584,1.47831 -0.511248,3.62802 0.455808,1.29967 0.794591,3.1722 0.794591,4.18854 -0.06158,1.07793 0.394212,2.21131 1.133364,2.83342 0.90547,0.73917 1.244243,1.92797 1.355121,4.58893 0.117276,2.83343 0.40062,3.68345 1.250401,3.91135 0.622126,0.11088 1.299682,0 1.527586,-0.33902 0.172475,-0.28334 0.90547,-0.40062 1.583025,-0.17247 0.628275,0.17247 1.194955,0.11087 1.194955,-0.22766 0,-0.33853 -0.73915,-0.79459 -1.589167,-1.01634 -1.355121,-0.34494 -1.527586,-0.68371 -1.472157,-3.23379 0.05568,-1.52759 0.283344,-2.99975 0.622127,-3.17221 0.283343,-0.16607 0.511248,0 0.511248,0.40013 0,0.33902 0.283343,0.51125 0.566687,0.33902 0.283343,-0.16606 0.394212,0.28334 0.283343,1.07794 -0.227664,1.13337 0,1.41671 1.022499,1.41671 0.73299,0 1.29968,-0.17247 1.29968,-0.45582 0,-0.79459 -1.52759,-3.96679 -2.094274,-4.36101 -0.967067,-0.67755 -1.244243,-5.38351 -0.40062,-5.95019 0.566674,-0.33903 0.683704,-0.0557 0.455804,1.18881 -0.283338,1.53374 -0.17247,1.64461 1.01634,1.30584 0.73915,-0.22766 2.43921,-1.47216 3.73889,-2.83343 1.30584,-1.36127 3.0059,-2.60552 3.73889,-2.77799 1.47831,-0.39421 3.85592,-3.79433 3.28924,-4.6998 -0.17247,-0.28333 0.11088,-0.67755 0.62212,-0.85002 0.51125,-0.22766 1.36128,-1.36128 1.86636,-2.60552 0.91163,-2.21131 1.8171,-2.77183 2.49466,-1.64462 0.22765,0.28334 0,0.68372 -0.51125,0.85619 -0.56053,0.22174 -0.733,1.07177 -0.56053,2.60552 0.22174,2.09427 0.11088,2.31602 -1.64462,2.66096 -2.26674,0.44989 -2.43921,1.58301 -0.51125,3.51098 l 1.41672,1.41672 0.16606,-2.32218 c 0.17247,-1.8171 0.40062,-2.21131 0.96706,-1.64462 0.90546,0.85003 0.56669,5.66685 -0.45581,6.34441 -0.51125,0.33853 -0.4499,0.4499 0.0616,0.4499 0.73299,0 0.67755,0.62828 -0.28926,3.17836 -0.733,1.9218 -0.67756,6.8495 0.11727,7.872 0.62213,0.90547 0.56669,1.36127 -0.68371,2.66096 l -1.41055,1.52758 1.35511,1.81709 c 1.30584,1.81093 1.36128,1.81093 2.49465,0.56669 0.62212,-0.68373 1.29968,-1.24425 1.47215,-1.24425 0.73915,0 2.66095,2.14971 2.37762,2.66095 -0.16607,0.28335 0.56667,0.90547 1.64461,1.29969 1.07793,0.40063 1.92797,1.18881 1.92797,1.81708 0,1.12722 1.63845,1.97725 2.60552,1.41056 0.33853,-0.22174 0.39421,0.28335 0.16605,1.30584 -0.39421,1.58919 -0.33902,1.64463 0.90547,0.85003 0.73916,-0.45581 1.36128,-1.18881 1.36128,-1.64462 0,-0.39422 0.56668,-0.79459 1.2504,-0.79459 0.67756,0 1.24425,-0.22175 1.24425,-0.56669 0,-0.28334 0.85003,-0.22174 1.92179,0.17247 1.02251,0.39422 1.87253,1.13337 1.87253,1.64462 0.0557,0.85003 0.11088,0.85003 0.62213,0.0557 0.51125,-0.79459 0.62211,-0.79459 0.96705,0.11087 0.27694,0.68372 0.84388,0.91163 1.75549,0.73915 0.78844,-0.22765 1.81093,-0.40013 2.32218,-0.40013 0.50509,-0.0557 1.29968,-0.50509 1.70006,-1.01634 0.67756,-0.90546 0.84387,-0.90546 1.41671,-0.11087 0.33903,0.56669 0.67757,0.67756 0.67757,0.33903 0,-0.40062 0.16606,-0.40062 0.45581,0 0.61595,0.85003 5.37735,3.68345 4.92154,2.88886 -0.22175,-0.33902 0.11678,-0.51125 0.68371,-0.40062 0.62213,0.0616 1.18881,0.45581 1.29968,0.85003 0.11728,0.34493 0.62829,0.51125 1.07794,0.34493 0.51125,-0.17246 1.02249,-0.0616 1.2504,0.27694 0.16607,0.34494 -0.0616,0.79459 -0.57285,0.96707 -0.50509,0.22765 -1.07176,0.11086 -1.24423,-0.17248 -0.44991,-0.73299 -3.68346,-0.22175 -4.41645,0.73916 -0.33853,0.44989 -1.47215,0.78843 -2.49465,0.67756 -1.01634,-0.0557 -2.2113,0.16607 -2.66095,0.51125 -1.0225,0.85003 -1.07795,3.68345 -0.11087,3.68345 0.50509,0 0.50509,0.22175 0,0.85002 -0.40062,0.44991 -0.57285,1.01634 -0.40062,1.18882 0.22765,0.22765 -0.51126,0.73299 -1.5276,1.1888 -1.07793,0.51125 -1.92796,1.18881 -1.92796,1.58303 0,1.07793 -1.92797,1.64462 -2.83343,0.85003 -0.4499,-0.33904 -1.24423,-0.4499 -1.86636,-0.22175 -0.62212,0.22175 -1.36128,-0.0552 -1.92796,-0.79459 -0.78844,-1.13338 -0.90547,-1.13338 -2.32218,0.22765 -1.81093,1.69391 -2.14971,1.75549 -2.60552,0.4499 -0.22816,-0.51124 -0.11088,-0.79459 0.17246,-0.62211 0.33902,0.22765 0.90547,-0.22767 1.29968,-0.90547 0.68372,-1.30584 0.56669,-1.30584 -3.28307,-1.13338 -2.94431,0.11088 -3.9668,0.45582 -3.9668,1.13338 0,0.62212 -0.73916,0.90547 -2.37762,0.9609 -1.24424,0.0552 -2.32218,-0.11087 -2.32218,-0.4499 0,-0.28334 0.28335,-0.56668 0.62213,-0.56668 0.33853,-0.0616 0.90546,-0.17248 1.24424,-0.28334 0.33853,-0.0557 0.90546,-0.17248 1.2504,-0.22767 0.33903,0 0.62213,-0.28334 0.62213,-0.56669 0,-0.28333 -2.10043,-0.56667 -4.70596,-0.67755 -3.84976,-0.11728 -4.69979,0.0552 -4.69979,0.85003 0,0.50509 -0.79459,1.12721 -1.70005,1.35511 -1.36128,0.33853 -1.92797,0.11729 -2.99973,-1.24424 -0.73917,-0.90546 -1.87253,-1.64461 -2.5501,-1.64461 -0.62211,0 -1.64461,-0.44991 -2.2113,-0.96091 -0.62212,-0.56668 -2.21131,-1.07793 -3.510985,-1.2504 -1.361269,-0.11087 -2.605512,-0.27694 -2.771829,-0.39422 -0.172466,-0.0557 -0.572845,-0.0557 -0.850021,0 -0.289751,0.0557 -2.605521,0.22766 -5.217201,0.39422 -4.077678,0.22766 -4.810673,0.4558 -6.116512,1.92796 -1.133364,1.36128 -1.81093,1.64461 -3.06133,1.30584 -1.755491,-0.45582 -2.888865,-2.95046 -1.299682,-2.95046 0.50509,0 0.794591,-0.33902 0.622126,-0.78843 -0.172475,-0.40062 -0.677555,-0.62212 -1.133374,-0.51125 -0.511248,0.11088 -1.361279,0.22815 -1.983395,0.16607 -0.622126,0 -1.071778,0.40062 -1.127217,1.02249 0,0.85003 -0.117276,0.90546 -0.511248,0.22766 -0.400619,-0.62212 -0.683713,-0.62212 -1.022496,-0.17247 -0.283343,0.51125 -0.794591,0.51125 -1.644612,0.0557 -1.355121,-0.73299 -4.983138,-0.22175 -4.983138,0.68372 0,0.28335 0.511248,0.79459 1.077935,1.18881 0.960899,0.51124 0.850031,0.62212 -0.622127,0.62212 -1.188803,0.0616 -1.644612,-0.22815 -1.361278,-0.67756 0.283343,-0.40012 -0.05568,-1.13337 -0.677556,-1.58918 -1.022496,-0.73299 -1.077935,-1.07177 -0.455809,-2.09427 1.077936,-1.75549 0.9609,-2.03883 -0.455808,-1.24424 -0.733005,0.33902 -1.299682,1.01634 -1.299682,1.47215 0,0.96089 -1.872527,1.63845 -4.533487,1.63845 -1.188804,0 -1.583026,-0.22175 -1.355111,-0.84386 0.221746,-0.56669 -0.117286,-0.85003 -1.133375,-0.79459 -0.794591,0.0552 -1.644622,-0.11088 -1.817087,-0.40062 -0.228155,-0.27694 -1.638465,-0.67757 -3.172209,-0.78844 -6.171942,-0.57284 -6.911094,-0.73915 -7.644089,-1.47215 -0.400619,-0.45581 -0.511248,-0.73916 -0.172475,-0.68372 1.299682,0.22816 2.266749,-0.0552 1.983405,-0.56669 -0.172475,-0.28334 -0.960899,-0.44989 -1.81093,-0.39421 -0.794591,0.0557 -1.75549,-0.11088 -2.15587,-0.45581 -0.449901,-0.33903 -1.133374,-0.39422 -1.527586,-0.16606 -0.566687,0.39421 -0.677556,-0.90546 -0.339023,-5.43895 0.394212,-6.28898 1.299682,-10.25577 2.833426,-12.0667 0.50509,-0.56669 0.622116,-1.07793 0.339023,-1.07793 -0.850031,0 -0.628284,-4.18855 0.338533,-5.26649 0.455808,-0.56667 0.511247,-1.07793 0.166067,-1.30584 -1.188813,-0.67755 0,-2.71639 1.761648,-3.1106 2.771829,-0.51125 4.866103,-3.2338 4.471891,-5.61142 -0.05568,-0.28334 0.566677,-0.33902 1.361269,-0.11087 0.739162,0.22815 1.927965,0.51125 2.488495,0.67756 0.628274,0.17246 1.133364,0.73915 1.133364,1.24424 0,0.56669 0.455819,0.91163 1.077935,0.79459 1.589183,-0.33902 4.077669,-6.00563 4.250144,-9.74452 0.166058,-3.28307 0.677555,-4.30558 3.400113,-6.73863 0.850021,-0.73915 2.322178,-2.09427 3.283077,-3.0059 3.005891,-2.82726 5.888598,-4.18853 9.005367,-4.24397 3.06133,-0.0557 4.139266,-0.39422 4.139266,-1.36128 0,-0.28335 -1.188804,-0.39421 -2.667119,-0.17247 -5.77772,0.79459 -5.716133,0.85003 -5.888598,-2.54392 -0.110868,-1.64462 0.05518,-4.25015 0.338533,-5.77773 0.34494,-1.9834 0.283344,-3.1722 -0.338533,-4.19471 -0.455809,-0.85002 -1.022496,-1.98339 -1.244243,-2.55008 -0.228154,-0.62212 -0.628284,-0.9609 -0.85003,-0.85002 -0.283344,0.17247 -0.283344,-0.79459 -0.05568,-2.20515 0.277425,-1.36128 0.221746,-2.66712 -0.06158,-2.83343 -0.339023,-0.17246 -0.394212,-0.62211 -0.221747,-0.90546 0.221747,-0.34494 0.05568,-0.62828 -0.34494,-0.62828 -0.566688,0 -0.566688,-0.22175 0.06158,-0.9609 0.622127,-0.78843 0.566688,-1.07794 -0.400129,-1.81093 -0.677556,-0.51125 -0.960899,-1.13337 -0.677556,-1.36128 0.05568,-0.11087 0.172465,-0.17246 0.339023,-0.17246 z m 20.055727,-8.83291 c 0.50509,-0.0557 0.788434,0.22767 0.788434,0.85003 0,0.56669 -0.394212,0.7946 -0.90547,0.62213 -0.449891,-0.22766 -1.077925,-0.0552 -1.299672,0.39421 -0.34494,0.56669 -0.05568,0.68373 1.133364,0.45581 0.960899,-0.17246 1.700062,-0.11087 1.700062,0.11088 0,0.62212 2.716389,0.62212 3.510981,0 0.449901,-0.4499 1.016338,-0.28334 1.583025,0.45581 0.622117,0.73915 0.622117,0.90547 0.117276,0.56669 -0.455808,-0.22816 -1.188803,-0.22816 -1.589183,0.0552 -0.449401,0.28334 -1.638454,0.56668 -2.66095,0.62212 -1.077935,0.11728 -2.777997,0.33902 -3.794335,0.45581 -1.022496,0.17247 -2.100431,0.28334 -2.322178,0.33902 -0.227654,0 -0.566687,0.67757 -0.683713,1.47216 -0.166068,0.73915 -0.339033,1.01633 -0.394222,0.56668 -0.05518,-0.44989 -0.338533,-0.67756 -0.622116,-0.44989 -0.339023,0.16605 -0.739153,-0.0616 -0.967067,-0.62829 -0.166058,-0.51125 -0.622116,-0.90547 -1.016338,-0.90547 -0.40062,0 -0.566678,0.22767 -0.40062,0.4499 0.172475,0.28927 -0.511248,0.62829 -1.527586,0.68373 -1.016338,0.0557 -1.81093,-0.17248 -1.81093,-0.51125 0,-0.733 2.7164,-1.52759 3.849764,-1.13338 0.455819,0.17247 1.188814,-0.11087 1.755501,-0.56668 0.566677,-0.50509 1.817087,-1.58303 2.833425,-2.43305 1.133365,-0.96091 2.094264,-1.47216 2.722548,-1.47216 z m 0.394222,-98.56627 c 1.299672,31.72205 1.589173,63.44411 1.700051,95.11073 -4.361012,0.16606 -6.800226,0 -9.799959,0 -0.455809,-31.66662 -1.022496,-63.38868 1.022496,-95.11073 3.510981,-0.17247 5.43279,-0.0557 7.077412,0 z m 4.133097,-7.87816 c 0.172476,0 0.344941,0 0.622127,0.11728 0.34494,0.11087 0.400619,0.56669 0.117276,1.07794 -0.394212,0.62211 -0.677556,0.62211 -1.016339,0.11086 -0.400619,-0.67755 -0.234062,-1.1888 0.276936,-1.30584 z m -5.660683,-3.45555 c 0.110868,0 0.228144,0.0616 0.339022,0.11728 0.511248,0.16607 0.794592,0.56669 0.566687,0.90547 -0.455818,0.73299 -0.677565,0.67755 -1.077935,-0.33853 -0.166067,-0.45582 -0.110878,-0.68373 0.172465,-0.68373 z m -3.911361,-0.9609 c 1.589183,0 1.589183,0.0557 0.455808,1.24425 -1.022495,1.13336 -1.022495,1.30584 -0.05568,1.30584 0.677556,0 0.960899,0.39421 0.788424,1.36127 -0.228154,1.63846 -1.527586,2.26059 -2.038834,0.90546 -0.172465,-0.51124 -0.850031,-0.85003 -1.472147,-0.73915 -0.622126,0.11728 -1.077935,-0.16607 -1.077935,-0.67755 0,-0.45582 0.283343,-0.85003 0.622126,-0.85003 0.344931,0 0.455809,-0.22767 0.227655,-0.45581 -0.739153,-0.733 0.911627,-2.09428 2.550082,-2.09428 z M 93.65805,144.80412 c 0.394212,0 0.90546,0.28335 1.133365,0.62213 0.511247,0.79459 0.283343,0.79459 -0.90546,0 -0.566688,-0.33853 -0.683724,-0.62213 -0.227665,-0.62213 z m -7.816564,-0.28334 c 0.05568,0 0.110878,0 0.110878,0 0.228145,0 0.566678,0.17247 0.9609,0.39422 0.856188,0.57284 1.133364,1.2504 0.911617,2.10043 -0.566677,1.86636 -1.077925,2.20514 -2.15586,1.52759 -0.511248,-0.28335 -0.677566,-0.56669 -0.283344,-0.56669 0.339023,-0.0552 0.283344,-0.22175 -0.110878,-0.51125 -0.455809,-0.28334 -0.511248,-0.9609 -0.172465,-1.92181 0.283343,-0.68371 0.455809,-0.96705 0.739152,-1.02249 z m -7.138998,0 c 0.455808,-0.0557 0.622116,0.17247 0.511248,0.51125 -0.283344,0.90547 -2.322178,1.36127 -2.322178,0.51124 0,-0.33902 0.566687,-0.73915 1.244242,-0.96705 0.228155,-0.0552 0.40062,-0.0552 0.566688,-0.0552 z m 12.294602,-0.33902 c 0.50509,0 1.016338,0.22765 1.244242,0.56668 0.172476,0.28335 -0.05518,0.67756 -0.511248,0.90546 -0.960899,0.33903 -1.638454,-0.0552 -1.638454,-0.9609 0,-0.33853 0.449891,-0.51124 0.90546,-0.51124 z"
     id="path3126-1"
     style="fill:#ffffff;fill-rule:evenodd;stroke:none" /><path
     d="m 269.05324,270.24553 c -3.22148,7.79192 -7.23756,15.50376 -12.49788,23.37576 -7.50858,11.25363 -8.34013,23.95477 -10.87789,36.27402 -2.85807,13.8653 -11.67865,19.89558 -20.55466,24.98959 38.38677,-11.91271 60.35814,-44.0721 43.93043,-84.63937 z"
     id="path3130-8"
     style="fill:#ffd500;fill-opacity:1;fill-rule:evenodd;stroke:none" /><path
     d="m 269.05324,270.24553 c -2.59321,31.67893 -15.28202,80.97439 -43.93043,84.63937 38.38677,-11.91271 60.35814,-44.0721 43.93043,-84.63937 z"
     id="path3132-9"
     style="fill:url(#linearGradient4694-6);fill-opacity:1;fill-rule:evenodd;stroke:none" /><path
     d="m 269.05324,270.24553 c -3.22148,7.79192 -7.23756,15.50376 -12.49788,23.37576 -7.50858,11.25363 -8.34013,23.95477 -10.87789,36.27402 -2.85807,13.8653 -11.67865,19.89558 -20.55466,24.98959 38.38677,-11.91271 60.35814,-44.0721 43.93043,-84.63937 z"
     id="path3134-2"
     style="fill:none;stroke:#d4a900;stroke-width:1.49943686;stroke-linejoin:miter;stroke-miterlimit:4;stroke-opacity:1;stroke-dasharray:none" /><path
     d="m 290.4148,231.95731 c -2.55624,5.24184 -5.26647,10.40976 -7.66256,15.71935 -5.02009,11.13044 -7.6133,21.98985 -4.6382,36.79143 2.67944,13.31094 1.45367,23.67759 -1.80477,36.9639 18.70678,-17.70276 27.60743,-39.34767 18.13393,-67.70658 -2.45153,-7.34226 -3.49866,-14.51207 -4.0284,-21.7681 z"
     id="path3136-7"
     style="fill:#ffd500;fill-opacity:1;fill-rule:evenodd;stroke:none" /><path
     d="m 290.4148,231.95731 c -7.80423,34.78339 6.40602,58.3193 -14.10553,89.47468 18.70678,-17.70276 27.60743,-39.34767 18.13393,-67.70658 -2.45153,-7.34226 -3.49866,-14.51207 -4.0284,-21.7681 z"
     id="path3138-9"
     style="fill:url(#linearGradient4689-1);fill-opacity:1;fill-rule:evenodd;stroke:none" /><path
     d="m 290.4148,231.95731 c -2.55624,5.24184 -5.26647,10.40976 -7.66256,15.71935 -5.02009,11.13044 -7.6133,21.98985 -4.6382,36.79143 2.67944,13.31094 1.45367,23.67759 -1.80477,36.9639 18.70678,-17.70276 27.60743,-39.34767 18.13393,-67.70658 -2.45153,-7.34226 -3.49866,-14.51207 -4.0284,-21.7681 z"
     id="path3140-5"
     style="fill:none;stroke:#d4a900;stroke-width:1.49943686;stroke-linejoin:miter;stroke-miterlimit:4;stroke-opacity:1;stroke-dasharray:none" /><path
     d="m 176.7575,376.24647 c 2.91967,-7.21292 8.24158,-11.09348 14.87549,-12.89825 5.89476,-1.61383 12.01737,-2.40842 18.10924,-3.11677 22.24856,-2.57473 40.99229,-9.95395 57.59863,-24.87256 17.78899,-15.97806 31.51263,-37.78312 39.45854,-58.22075 l -1.97108,-0.75763 c -9.0608,23.28953 -27.398,48.37151 -50.02229,63.72129 -22.2424,15.09108 -49.35089,16.53859 -75.22743,19.21186 -3.08597,5.77773 -5.10632,11.55546 -6.04258,17.33318 1.07177,-0.13551 2.14971,-0.27102 3.22148,-0.40062 z"
     id="path3142-4"
     style="fill:#ffd500;fill-opacity:1;fill-rule:evenodd;stroke:none" /><path
     d="m 329.50377,191.25452 c -6.64007,8.13687 -15.40521,15.43602 -20.8688,24.39827 -6.99733,11.49385 -6.04259,24.18268 -3.71425,38.473 1.61382,9.89851 -0.12319,19.88326 -2.0142,29.82489 5.86396,-9.35647 12.07287,-18.60205 18.54047,-26.19687 11.28443,-13.26167 12.60874,-28.77776 8.05678,-45.94463 -1.90948,-7.21907 -1.07178,-14.24105 0,-20.55466 z"
     id="path3144-3"
     style="fill:#ffd500;fill-opacity:1;fill-rule:evenodd;stroke:none" /><path
     d="m 329.50377,191.25452 c -17.09295,26.99762 -9.74452,61.74406 -26.4063,93.07805 5.86396,-9.35646 11.88808,-18.98394 18.34952,-26.57876 11.28443,-13.26167 12.60874,-28.77776 8.05678,-45.94463 -1.90948,-7.21907 -1.07178,-14.24105 0,-20.55466 z"
     id="path3146-1"
     style="fill:url(#linearGradient4683-2);fill-opacity:1;fill-rule:evenodd;stroke:none" /><path
     d="m 329.50377,191.25452 c -6.64007,8.13687 -15.40521,15.43602 -20.8688,24.39827 -6.99733,11.49385 -6.04259,24.18268 -3.71425,38.473 0.93626,5.75309 0.74532,11.53698 0.0493,17.32085 -0.50509,4.20703 -1.10874,7.51475 -2.85807,11.35219 -9.7322,21.36773 -26.75124,44.10906 -47.3059,58.04829 -22.23624,15.09107 -49.35089,15.79327 -75.22743,18.46654 -2.63631,4.43494 -4.65667,10.21266 -6.04258,17.33318 1.07177,-0.13551 2.14971,-0.27102 3.22148,-0.40062 2.91967,-7.21292 8.24158,-11.09348 14.87549,-12.89825 5.89476,-1.61382 12.02353,-2.40841 18.10924,-3.11676 22.24856,-2.57473 40.61655,-11.06885 57.22289,-25.98745 15.91647,-14.29033 28.95023,-32.13475 37.13021,-50.60131 1.68157,-3.79432 3.36931,-6.86798 5.70997,-10.32969 3.76969,-5.57445 7.65642,-10.87788 11.64169,-15.5592 11.28443,-13.26166 12.60874,-28.77775 8.05678,-45.94463 -1.90948,-7.21907 -1.07178,-14.24104 0,-20.55466 z"
     id="path3148-2"
     style="fill:none;stroke:#d4a900;stroke-width:1.49943686;stroke-linejoin:miter;stroke-miterlimit:4;stroke-opacity:1;stroke-dasharray:none" /><path
     d="m 355.70065,240.42063 c -6.3013,7.9336 -13.61893,14.17329 -23.77615,18.947 -6.67087,3.12909 -12.65802,7.20675 -17.85674,12.5841 -10.0525,10.40361 -11.96814,24.29972 -24.45986,36.18164 9.94163,-6.04876 20.08037,-9.0485 29.82489,-11.69097 22.92611,-6.2089 36.17547,-24.21348 36.26786,-56.02177 z"
     id="path3150-3"
     style="fill:#ffd500;fill-opacity:1;fill-rule:evenodd;stroke:none" /><path
     d="m 355.70065,240.42063 c -2.31602,7.15132 -8.0999,15.52225 -15.51609,23.99789 -15.19579,17.35781 -36.83454,27.34872 -50.57666,43.71485 9.94163,-6.04876 20.08037,-9.0485 29.82489,-11.69097 22.92611,-6.2089 36.17547,-24.21348 36.26786,-56.02177 z"
     id="path3152-3"
     style="fill:url(#linearGradient4678-2);fill-opacity:1;fill-rule:evenodd;stroke:none" /><path
     d="m 355.70065,240.42063 c -6.3013,7.9336 -13.61893,14.17329 -23.77615,18.947 -6.67087,3.12909 -12.65802,7.20675 -17.85674,12.5841 -10.0525,10.40361 -11.96814,24.29972 -24.45986,36.18164 9.94163,-6.04876 20.08037,-9.0485 29.82489,-11.69097 22.92611,-6.2089 36.17547,-24.21348 36.26786,-56.02177 z"
     id="path3154-4"
     style="fill:none;stroke:#d4a900;stroke-width:1.49943686;stroke-linejoin:miter;stroke-miterlimit:4;stroke-opacity:1;stroke-dasharray:none" /><path
     d="m 313.38404,366.16933 c -12.57179,-13.7606 -24.81712,-18.91005 -36.88382,-19.94486 -16.07661,-1.37975 -39.84044,3.37547 -54.19852,9.86771 9.88619,1.87253 40.67199,21.62644 74.56223,12.89825 5.10017,-2.14971 11.01341,-2.28521 16.52011,-2.8211 z"
     id="path3156-1"
     style="fill:#ffd500;fill-opacity:1;fill-rule:evenodd;stroke:none" /><path
     d="m 313.38404,366.16933 c -24.20732,-9.44271 -60.32734,-9.84309 -91.08234,-10.07715 9.88619,1.87253 40.67199,21.62644 74.56223,12.89825 5.10017,-2.14971 11.01341,-2.28521 16.52011,-2.8211 z"
     id="path3158-1"
     style="fill:url(#linearGradient4673-3);fill-opacity:1;fill-rule:evenodd;stroke:none" /><path
     d="m 313.38404,366.16933 c -12.57179,-13.7606 -24.81712,-18.91005 -36.88382,-19.94486 -16.07661,-1.37975 -39.84044,3.37547 -54.19852,9.86771 9.88619,1.87253 40.67199,21.62644 74.56223,12.89825 5.10017,-2.14971 11.01341,-2.28521 16.52011,-2.8211 z"
     id="path3160-3"
     style="fill:none;stroke:#d4a900;stroke-width:1.49943686;stroke-linejoin:miter;stroke-miterlimit:4;stroke-opacity:1;stroke-dasharray:none" /><path
     d="m 333.53833,303.69843 c -22.69205,16.59403 -47.41678,-1.9526 -78.99716,39.49551 11.90655,-2.79647 21.38621,-1.7555 33.1326,-0.86235 18.20785,1.39207 34.11816,-7.46547 45.86456,-38.63316 z"
     id="path3162-8"
     style="fill:#ffd500;fill-opacity:1;fill-rule:evenodd;stroke:none" /><path
     d="m 333.53833,303.69843 c -26.57261,34.10583 -51.54988,16.68642 -78.99716,39.49551 11.90655,-2.79647 21.38621,-1.7555 33.1326,-0.86235 18.20785,1.39207 34.11816,-7.46547 45.86456,-38.63316 z"
     id="path3164-7"
     style="fill:url(#linearGradient4668-2);fill-opacity:1;fill-rule:evenodd;stroke:none" /><path
     d="m 333.53833,303.69843 c -22.69205,16.59403 -47.41678,-1.9526 -78.99716,39.49551 11.90655,-2.79647 21.38621,-1.7555 33.1326,-0.86235 18.20785,1.39207 34.11816,-7.46547 45.86456,-38.63316 z"
     id="path3166-4"
     style="fill:none;stroke:#d4a900;stroke-width:1.49943686;stroke-linejoin:miter;stroke-miterlimit:4;stroke-opacity:1;stroke-dasharray:none" /><path
     d="m 269.05324,270.24553 c -2.59321,31.67893 -15.28202,80.97439 -43.93043,84.63937"
     id="path4440-2"
     style="fill:none;stroke:#d4a900;stroke-width:0.99962455;stroke-opacity:1" /><path
     d="m 290.4148,231.95731 c -7.80423,34.78339 6.40602,58.3193 -14.10553,89.47468"
     id="path4418-7"
     style="fill:none;stroke:#d4a900;stroke-width:0.99962455;stroke-opacity:1" /><path
     d="m 329.50377,191.25452 c -17.09295,26.99762 -9.74452,61.74406 -26.4063,93.07805"
     id="path4414-7"
     style="fill:none;stroke:#d4a900;stroke-width:0.99962455;stroke-opacity:1" /><path
     d="m 355.70065,240.42063 c -2.31602,7.15132 -8.0999,15.52225 -15.51609,23.99789 -15.19579,17.35781 -36.83454,27.34872 -50.57666,43.71485"
     id="path4422-9"
     style="fill:none;stroke:#d4a900;stroke-width:0.99962455;stroke-opacity:1" /><path
     d="M 313.38404,366.16933 C 289.17672,356.72662 253.0567,356.32624 222.3017,356.09218"
     id="path4436-3"
     style="fill:none;stroke:#d4a900;stroke-width:0.99962455;stroke-opacity:1" /><path
     d="m 333.53833,303.69843 c -26.57261,34.10583 -51.54988,16.68642 -78.99716,39.49551"
     id="path4432-1"
     style="fill:none;stroke:#d4a900;stroke-width:0.99962455;stroke-opacity:1" /><path
     d="m 367.08979,375.6613 -0.01,0 0,0 0.01,0 0.005,-371.1973287 -362.173437,0 0,371.1973287 0,0.005 -0.01,0 c 0,11.3029 4.595084,21.55252 12.023583,28.98102 7.422353,7.4223 17.671963,12.02354 28.981025,12.02354 l 0,-0.0197 0.005,0 105.107809,0 0.068,0.0197 c 13.4095,0.30206 25.13126,7.42851 31.82061,18.03537 0.6098,0.97323 1.18265,1.97108 1.70622,2.99974 4.02223,-7.8412 10.63766,-14.13018 18.71904,-17.72739 2.26058,-1.00403 4.63204,-1.79861 7.09588,-2.35914 2.43922,-0.56053 4.98314,-0.88083 7.60098,-0.94858 l 0.0197,0 0.0986,0 0.0739,-0.0197 107.855,0 0.005,0 0,0.0197 c 11.30292,-0.005 21.55253,-4.60124 28.97487,-12.02354 7.42851,-7.4285 12.02358,-17.67812 12.02358,-28.98718 z"
     id="path4442-9"
     style="fill:none;stroke:#d4a900;stroke-width:1.49943686;stroke-miterlimit:4;stroke-opacity:1;stroke-dasharray:none" /><path
     d="m 236.3826,19.314822 68.29174,0 c 3.41243,0 6.20274,2.901182 6.20274,6.449124 l 0,4.293258 c 0,3.547942 -2.79031,6.449124 -6.20274,6.449124 l -68.29174,0 c -3.41243,0 -6.20274,-2.901182 -6.20274,-6.449124 l 0,-4.293258 c 0,-3.547942 2.79031,-6.449124 6.20274,-6.449124 z m 0,49.948379 c -3.41243,0 -6.20274,-2.895023 -6.20274,-6.442965 l 0,-4.299417 c 0,-3.547943 2.79031,-6.442965 6.20274,-6.442965 l 68.29174,0 c 3.41243,0 6.20274,2.895022 6.20274,6.442965 l 0,4.299417 c 0,3.547942 -2.79031,6.442965 -6.20274,6.442965 l -24.41059,0 -4.32406,6.615434 c -0.61596,0.948583 -1.71237,1.348957 -2.84574,1.219606 l -5.13096,0 c -1.12722,0.129598 -2.22363,-0.271023 -2.84575,-1.219606 l -4.32406,-6.615434 z m 31.21081,0.948582 c 0,1.62614 1.31199,2.93814 2.93813,2.93814 1.61998,0 2.93199,-1.312 2.93199,-2.93814 0,-1.619981 -1.31201,-2.93198 -2.93199,-2.93198 -1.62614,0 -2.93813,1.311999 -2.93813,2.93198 z"
     id="path3090-8"
     style="fill:#ffd500;fill-opacity:1;stroke:#d4a900;stroke-width:1.49943686;stroke-miterlimit:4;stroke-opacity:1;stroke-dasharray:none" /><path
     d="m 236.48731,25.800904 68.08231,0 0,36.976214 -68.08231,0 0,-36.976214 z"
     id="path3092-6"
     style="fill:url(#linearGradient4646-1);fill-opacity:1;stroke:#a90000;stroke-width:1.49943686;stroke-miterlimit:4;stroke-opacity:1;stroke-dasharray:none" /><path
     d="m 270.53154,81.86626 c 5.14945,0 9.32568,4.182383 9.32568,9.331828 0,5.149444 -4.17623,9.325662 -9.32568,9.325662 -5.14943,0 -9.33182,-4.176218 -9.33182,-9.325662 0,-5.149445 4.18239,-9.331828 9.33182,-9.331828 z m -5.36502,9.331828 c 0,2.962778 2.40225,5.365031 5.36502,5.365031 2.96279,0 5.36504,-2.402253 5.36504,-5.365031 0,-2.962778 -2.40225,-5.365031 -5.36504,-5.365031 -2.96277,0 -5.36502,2.402253 -5.36502,5.365031 z"
     id="path3122-5"
     style="fill:#ffd500;fill-opacity:1;stroke:#d4a900;stroke-width:1.49943686;stroke-miterlimit:4;stroke-opacity:1;stroke-dasharray:none" /><path
     d="m 270.52846,70.193304 c 1.17957,0 2.14048,1.004018 2.14048,2.223623 l 0,14.040505 c 0,1.219606 -0.96091,2.223624 -2.14048,2.223624 -1.17956,0 -2.1343,-0.997859 -2.1343,-2.223624 l 0,-14.040505 c 0,-1.225764 0.95474,-2.223623 2.1343,-2.223623 z"
     id="path3094-0"
     style="fill:#ffd500;fill-opacity:1;stroke:#d4a900;stroke-width:1.49943686;stroke-miterlimit:4;stroke-opacity:1;stroke-dasharray:none" /><path
     d="m 304.95765,204.99049 -34.42613,-15.21427 -34.42613,15.20811 3.83129,-37.43818 -25.10662,-28.0386 36.79142,-7.92743 18.91004,-32.547449 18.91004,32.547449 36.79142,7.92743 -25.10662,28.0386 3.83129,37.44434 z"
     id="path4444-2"
     style="fill:#ffd500;fill-opacity:1;stroke:none" /><path
     d="m 304.95765,204.99049 -34.42613,-15.21427 -34.42613,15.20811 3.83129,-37.43818 -25.10662,-28.0386 36.79142,-7.92743 18.91004,-32.547449 18.91004,32.547449 36.79142,7.92743 -25.10662,28.0386 3.83129,37.44434 z"
     id="path4303-8"
     style="fill:url(#radialGradient4656-4);fill-opacity:1;stroke:none" /><path
     d="m 236.10539,204.98433 3.83129,-37.43818 30.58868,-9.94164 -34.41997,47.37982 z"
     id="path3064"
     style="fill:#ffd500;fill-opacity:1;fill-rule:evenodd;stroke:none" /><path
     d="m 214.83005,139.50755 36.79142,-7.92743 18.90388,26.02439 z"
     id="path3062"
     style="fill:#ffd500;fill-opacity:1;fill-rule:evenodd;stroke:none" /><path
     d="m 251.62148,131.58012 18.91004,-32.547449 0,58.571839 -18.91004,-26.02439 z"
     id="path3058"
     style="fill:#ffd500;fill-opacity:1;fill-rule:evenodd;stroke:none" /><path
     d="m 326.23298,139.50755 -36.79142,-7.92743 -18.91004,26.02439 55.70146,-18.09696 z"
     id="path3116-6"
     style="fill:#ffd500;fill-opacity:1;fill-rule:evenodd;stroke:none" /><path
     d="m 326.23298,139.50755 -86.2963,28.0386"
     id="path3075"
     style="fill:none;stroke:#d4a900;stroke-width:0.49999997;stroke-miterlimit:4;stroke-opacity:1;stroke-dasharray:none" /><path
     d="m 301.12636,167.54615 -86.2963,-28.0386"
     id="path3073"
     style="fill:none;stroke:#d4a900;stroke-width:0.49999997;stroke-miterlimit:4;stroke-opacity:1;stroke-dasharray:none" /><path
     d="M 304.95765,204.98433 251.62148,131.57395"
     id="path3071"
     style="fill:none;stroke:#d4a900;stroke-width:0.49999997;stroke-miterlimit:4;stroke-opacity:1;stroke-dasharray:none" /><path
     d="m 270.53152,99.032672 0,90.743548"
     id="path3069"
     style="fill:none;stroke:#d4a900;stroke-width:0.49999997;stroke-miterlimit:4;stroke-opacity:1;stroke-dasharray:none" /><path
     d="m 289.44156,131.58012 -53.33617,73.40421"
     id="path3120-0"
     style="fill:none;stroke:#d4a900;stroke-width:0.49999997;stroke-miterlimit:4;stroke-opacity:1;stroke-dasharray:none" /><path
     d="m 304.95765,204.99049 -34.42613,-15.21427 -34.42613,15.20811 3.83129,-37.43818 -25.10662,-28.0386 36.79142,-7.92743 18.91004,-32.547448 18.91004,32.547448 36.79142,7.92743 -25.10662,28.0386 3.83129,37.44434 z"
     id="path3098-2"
     style="fill:none;stroke:#d4a900;stroke-width:1.99924898;stroke-miterlimit:4;stroke-opacity:1;stroke-dasharray:none" /><path
     d="m 304.96875,204.99049 -34.42189,-15.2128 -0.003,-32.1637 34.42453,47.3765 z"
     id="path3066"
     style="fill:#ffd500;fill-opacity:1;fill-rule:evenodd;stroke:none" /></g></svg>