<?xml version="1.0" encoding="UTF-8" standalone="no"?>
<!-- Created with Sodipodi ("http://www.sodipodi.com/") -->

<svg
   xmlns:dc="http://purl.org/dc/elements/1.1/"
   xmlns:cc="http://creativecommons.org/ns#"
   xmlns:rdf="http://www.w3.org/1999/02/22-rdf-syntax-ns#"
   xmlns:svg="http://www.w3.org/2000/svg"
   xmlns="http://www.w3.org/2000/svg"
   xmlns:sodipodi="http://sodipodi.sourceforge.net/DTD/sodipodi-0.dtd"
   xmlns:inkscape="http://www.inkscape.org/namespaces/inkscape"
   height="1200"
   id="svg571"
   sodipodi:docname="AJAX1.svg"
   sodipodi:version="0.32"
   width="1800"
   inkscape:version="0.48.2 r9819"
   version="1.0">
  <metadata
     id="metadata14809">
    <rdf:RDF>
      <cc:Work
         rdf:about="">
        <dc:title>Australia - Norfolk Islands</dc:title>
        <dc:description />
        <dc:subject>
          <rdf:Bag>
            <rdf:li />
            <rdf:li>oceania</rdf:li>
            <rdf:li>australia</rdf:li>
            <rdf:li>flag</rdf:li>
            <rdf:li>sign</rdf:li>
          </rdf:Bag>
        </dc:subject>
        <dc:publisher>
          <cc:Agent
             rdf:about="http://www.openclipart.org">
            <dc:title>Tobias Jakobs</dc:title>
          </cc:Agent>
        </dc:publisher>
        <dc:creator>
          <cc:Agent>
            <dc:title>Tobias Jakobs</dc:title>
          </cc:Agent>
        </dc:creator>
        <dc:rights>
          <cc:Agent>
            <dc:title>Tobias Jakobs</dc:title>
          </cc:Agent>
        </dc:rights>
        <dc:date />
        <dc:format>image/svg+xml</dc:format>
        <dc:type
           rdf:resource="http://purl.org/dc/dcmitype/StillImage" />
        <cc:license
           rdf:resource="http://web.resource.org/cc/PublicDomain" />
        <dc:language>en</dc:language>
      </cc:Work>
      <cc:License
         rdf:about="http://web.resource.org/cc/PublicDomain">
        <cc:permits
           rdf:resource="http://web.resource.org/cc/Reproduction" />
        <cc:permits
           rdf:resource="http://web.resource.org/cc/Distribution" />
        <cc:permits
           rdf:resource="http://web.resource.org/cc/DerivativeWorks" />
      </cc:License>
    </rdf:RDF>
  </metadata>
  <defs
     id="defs573" />
  <sodipodi:namedview
     id="base"
     inkscape:zoom="0.34117902"
     inkscape:cx="911.90596"
     inkscape:cy="523.26545"
     inkscape:window-width="1280"
     inkscape:window-height="1004"
     inkscape:window-x="-8"
     inkscape:window-y="-8"
     inkscape:current-layer="svg571"
     width="1800px"
     height="1200px"
     showguides="true"
     inkscape:guide-bbox="true"
     showgrid="false"
     inkscape:window-maximized="1" />
  <rect
     height="1200"
     id="rect609"
     style="font-size:12px;fill:white;fill-opacity:1;fill-rule:evenodd;stroke-width:1pt"
     width="1800"
     x="0"
     y="0" />
  <path
     style="fill:#0c2d83;fill-opacity:1;fill-rule:evenodd;stroke:none;stroke-width:1px;stroke-linecap:butt;stroke-linejoin:miter;stroke-opacity:1"
     d="M 777.7621,687.84779 L 977.88168,818.18033 C 1006.3497,820.6175 1004.2274,786.3604 1003.3746,778.82564 L 993.4961,785.67686 C 993.54016,777.4392 994.91725,774.29355 989.03484,746.95949 C 1005.9313,752.37043 1030.2784,764.74177 1030.7795,772.77107 L 1019.3077,771.97441 C 1023.4478,783.81039 1023.4366,799.05221 1016.9177,821.36694 C 1010.9496,841.79668 1010.8202,851.35205 1012.1378,856.73837 C 1002.792,859.77869 996.8342,861.69254 987.54191,867.33707 C 969.68213,878.18587 963.50744,884.54384 937.2523,890.19779 L 938.52696,901.98831 C 922.7608,892.69638 908.76747,881.69686 901.24353,869.64416 L 941.55424,863.27093 L 936.93364,873.3088 C 969.00168,864.09832 968.80366,846.50553 964.65722,839.84931 L 769.31756,698.04495 L 777.7621,687.84779 z "
     id="path3668"
     sodipodi:nodetypes="cccccccscscccccccc" />
  <path
     sodipodi:nodetypes="cc"
     style="fill:navy;fill-opacity:0.75000000000000000;fill-rule:evenodd;stroke:#0c2d83;stroke-width:12.58235741000000000;stroke-linecap:round;stroke-linejoin:miter;stroke-miterlimit:4;stroke-dasharray:none;stroke-opacity:1"
     d="M 721.85232,740.05391 L 789.35217,638.5702"
     id="path2789" />
  <path
     sodipodi:type="arc"
     style="fill:white;fill-opacity:1;fill-rule:evenodd;stroke:#0c2d83;stroke-width:7;stroke-linecap:square;stroke-linejoin:round;stroke-miterlimit:4;stroke-dasharray:none;stroke-dashoffset:0.99999998000000001;stroke-opacity:1"
     id="path3670"
     sodipodi:cx="112.8"
     sodipodi:cy="83.800003"
     sodipodi:rx="8.8000002"
     sodipodi:ry="8.8000002"
     d="M 121.6 83.800003 A 8.8000002 8.8000002 0 1 1  104,83.800003 A 8.8000002 8.8000002 0 1 1  121.6 83.800003 z"
     transform="matrix(1.593309,0,0,1.593307,580.3511,549.5487)" />
  <path
     style="fill:#006338;fill-rule:evenodd;stroke:none;stroke-width:1px;stroke-linecap:butt;stroke-linejoin:miter;stroke-opacity:1;fill-opacity:1"
     d="M 793.10363,854.39861 L 947.0526,854.39861 C 928.53542,839.43695 912.88433,817.10836 908.63397,793.82439 L 908.63397,642.66493 C 994.37572,644.40365 1065.8931,644.67752 1151.6348,607.1825 C 1069.65,596.24274 1031.5273,573.41397 951.92033,527.99608 C 1004.0675,527.40398 1014.7303,528.00079 1065.6886,504.81957 C 1016.4385,496.6822 994.4483,481.02579 946.38711,450.74104 C 994.99341,459.31241 1017.5287,457.18367 1063.7572,437.22141 C 1015.7947,428.80513 996.28099,413.0219 948.31849,385.5832 C 990.16497,393.48493 1003.5626,392.10898 1045.4091,382.1772 C 976.2373,354.87557 922.28237,311.64407 882.20784,241.18675 C 840.11701,300.71637 787.32607,348.35698 723.83501,384.10857 C 759.24357,391.24198 767.39222,390.05308 801.61187,384.10857 C 768.06185,417.00917 753.44944,442.32271 715.14382,452.67242 C 752.54948,459.23506 766.19323,457.68147 806.44031,449.77535 C 758.37913,483.20555 736.38896,504.74673 687.13887,525.09902 C 733.91247,533.54961 754.61506,536.93055 802.57756,527.99608 C 741.49487,579.40547 693.40527,587.61094 615.67796,608.10889 C 682.38847,629.22812 767.70993,648.08875 838.49097,644.13955 L 838.49097,790.66322 C 831.68416,814.28615 811.79945,837.90911 793.10363,854.39861 z "
     id="path3942"
     sodipodi:nodetypes="cccccccccccccccccccccc" />
  <path
     d="M 600.60677,165.34562 L 627.0064,155.21191 C 641.7451,149.55445 653.12678,146.39162 661.15147,145.72338 C 669.1761,145.05539 676.73282,146.24551 683.82165,149.29374 C 690.05387,151.92493 695.37365,155.67719 699.781,160.55053 C 704.1882,165.42409 707.78126,171.48046 710.56021,178.71967 C 713.37227,186.04576 714.77533,193.00496 714.7694,199.59728 C 714.76329,206.18974 713.32477,212.54866 710.45383,218.67406 C 707.18208,225.69939 702.30844,231.661 695.83289,236.55891 C 689.35721,241.45687 678.83675,246.70134 664.27149,252.29233 L 637.87186,262.42604 L 600.60677,165.34562 z "
     id="path7997"
     style="fill:#0c2d83;fill-opacity:1;stroke:none" />
  <path
     d="M 632.90423,174.65797 L 655.64267,233.89459 L 664.61594,230.45012 C 674.84629,226.52314 681.68654,220.98788 685.13669,213.84431 C 688.58673,206.70085 688.45643,198.29567 684.74579,188.62874 C 681.05167,179.00532 675.55189,172.71099 668.24641,169.74575 C 660.94085,166.78069 652.15122,167.26995 641.8775,171.21351 L 632.90423,174.65797 z "
     id="path7999"
     style="fill:#ffffff;fill-opacity:1;stroke:none" />
  <path
     d="M 727.72337,122.72279 L 753.92278,117.00944 L 776.0787,218.60871 L 749.87929,224.32206 L 727.72337,122.72279 z "
     id="path7995"
     style="fill:#0c2d83;fill-opacity:1;stroke:none" />
  <path
     d="M 825.60722,171.53882 L 828.71284,210.76816 L 801.98134,212.88438 L 793.77482,109.22171 L 834.60111,105.98967 C 848.2561,104.90877 858.44733,106.40761 865.17482,110.48618 C 871.90216,114.56496 875.65796,121.55715 876.44224,131.46275 C 876.98449,138.3135 875.77491,144.06852 872.81351,148.72785 C 869.85193,153.38731 865.12088,157.02233 858.62034,159.63293 C 862.34301,160.17668 865.76723,161.80367 868.89302,164.51389 C 872.01864,167.22422 875.29908,171.44769 878.73433,177.18432 L 895.5763,205.47488 L 867.10899,207.72851 L 852.43302,182.96946 C 849.47668,177.98675 846.61578,174.64999 843.85031,172.95917 C 841.08473,171.26843 837.52641,170.59527 833.17536,170.93969 L 825.60722,171.53882 z "
     id="path7991"
     style="fill:#0c2d83;fill-opacity:1;stroke:none" />
  <path
     d="M 835.39317,152.17933 C 840.994,151.73599 844.92706,150.37662 847.19235,148.1012 C 849.45753,145.82591 850.40143,142.30438 850.02405,137.53662 C 849.65022,132.81529 848.16765,129.53244 845.57633,127.68805 C 842.98491,125.84384 838.88878,125.14339 833.28795,125.58669 L 822.03989,126.47715 L 824.14511,153.06979 L 835.39317,152.17933 z "
     id="path7993"
     style="fill:#ffffff;fill-opacity:1;stroke:none" />
  <path
     d="M 917.08387,104.00046 L 943.86132,105.42163 L 938.35013,209.26248 L 911.57268,207.84131 L 917.08387,104.00046 z "
     id="path7989"
     style="fill:#0c2d83;fill-opacity:1;stroke:none" />
  <path
     d="M 1058.1353,220.39853 C 1050.9536,222.32112 1043.6754,223.39744 1036.3007,223.62751 C 1028.9259,223.85754 1021.4774,223.24573 1013.9552,221.79205 C 996.95017,218.50582 984.39692,211.14968 976.29534,199.72361 C 968.19372,188.29756 965.71555,174.44679 968.86081,158.17125 C 972.04129,141.71346 979.60384,129.74395 991.54849,122.26269 C 1003.4931,114.7816 1018.2642,112.74139 1035.8618,116.14204 C 1042.6546,117.45486 1049.0392,119.35077 1055.0156,121.82979 C 1060.9918,124.30899 1066.4958,127.33527 1071.5277,130.90866 L 1067.4442,152.03946 C 1062.3709,147.70137 1057.1733,144.19045 1051.8515,141.50669 C 1046.5294,138.82305 1041.0418,136.93497 1035.3888,135.84243 C 1024.9031,133.81615 1016.2563,135.18367 1009.4483,139.94499 C 1002.6403,144.70645 998.18343,152.5351 996.07783,163.43097 C 993.98976,174.23574 995.11287,183.10725 999.44714,190.04552 C 1003.7813,196.98383 1010.9861,201.4265 1021.0615,203.37355 C 1023.7968,203.90217 1026.3714,204.22238 1028.7855,204.33418 C 1031.1993,204.44599 1033.4114,204.31779 1035.4216,203.94957 L 1039.254,184.11808 L 1023.1837,181.01247 L 1026.5932,163.36928 L 1067.624,171.29849 L 1058.1353,220.39853 z "
     id="path7987"
     style="fill:#0c2d83;fill-opacity:1;stroke:none" />
  <path
     d="M 1164.0337,155.11837 C 1179.4702,161.53215 1189.7271,170.97277 1194.8045,183.44027 C 1199.8817,195.90787 1199.1867,209.92422 1192.7197,225.48937 C 1186.2703,241.01165 1176.8369,251.37214 1164.4196,256.57085 C 1152.002,261.76952 1138.0751,261.16201 1122.6386,254.74834 C 1107.2449,248.35243 1096.9987,238.91626 1091.9,226.4398 C 1086.8012,213.96334 1087.4765,199.96398 1093.9259,184.44165 C 1100.393,168.87654 1109.846,158.49907 1122.2849,153.30922 C 1134.7237,148.11951 1148.64,148.72256 1164.0337,155.11837 L 1164.0337,155.11837 z "
     id="path4847"
     style="fill:#0c2d83;fill-opacity:1;stroke:none" />
  <path
     d="M 1156.5778,173.06334 C 1149.031,169.92781 1142.0199,170.2831 1135.5446,174.12921 C 1129.0692,177.97543 1123.7293,184.95825 1119.5248,195.07772 C 1115.338,205.15437 1114.1663,213.84389 1116.0096,221.14632 C 1117.8527,228.44876 1122.5477,233.66777 1130.0945,236.80337 C 1137.6841,239.95676 1144.7166,239.61038 1151.192,235.76422 C 1157.6673,231.91805 1162.9983,224.95667 1167.1851,214.88003 C 1171.3895,204.76055 1172.5702,196.04959 1170.7271,188.74711 C 1168.8838,181.44472 1164.1673,176.2168 1156.5778,173.06334 L 1156.5778,173.06334 z "
     id="path7985"
     style="fill:#ffffff;fill-opacity:1;stroke:none" />
  <path
     d="M 639.72286,933.07612 L 670.77225,944.34064 L 673.94867,1002.7863 L 713.98794,960.01901 L 744.97396,971.26054 L 710.65167,1065.8661 L 687.5864,1057.4982 L 712.69019,988.3024 L 672.38625,1031.404 L 656.92492,1025.7947 L 653.63297,966.87684 L 628.52919,1036.0726 L 605.40056,1027.6817 L 639.72286,933.07612 z "
     id="path7972"
     style="fill:#0c2d83;stroke:none;fill-opacity:1" />
  <path
     d="M 893.72344,993.44054 L 919.67448,993.23844 L 920.45795,1093.8745 L 894.50691,1094.0766 L 893.72344,993.44054 z "
     id="path7966"
     style="fill:#0c2d83;fill-opacity:1;stroke:none" />
  <path
     d="M 959.25439,988.62214 L 987.91896,984.32314 L 1034.354,1047.1559 L 1024.1163,978.89434 L 1048.4479,975.24514 L 1063.3746,1074.7711 L 1034.71,1079.0702 L 988.27491,1016.2373 L 998.51265,1084.499 L 974.18109,1088.1482 L 959.25439,988.62214 z "
     id="path7964"
     style="fill:#0c2d83;stroke:none;fill-opacity:1" />
  <path
     d="M 1079.428,964.68134 L 1145.669,941.93941 L 1152.0385,960.49201 L 1110.343,974.80694 L 1116.428,992.5307 L 1155.6371,979.06944 L 1162.0066,997.622 L 1122.7975,1011.0833 L 1130.2833,1032.8874 L 1173.3814,1018.0909 L 1179.7509,1036.6435 L 1112.1072,1059.867 L 1079.428,964.68134 z "
     id="path4851"
     style="fill:#0c2d83;stroke:none;fill-opacity:1" />
  <path
     d="M 821.17333,1067.6846 L 780.92455,1062.5166 L 772.23792,1079.8865 L 746.36371,1076.5642 L 796.1536,981.49194 L 826.84162,985.43244 L 850.99716,1089.9995 L 825.12294,1086.6771 L 821.17333,1067.6846 z "
     id="path7970"
     style="fill:#0c2d83;stroke:none;fill-opacity:1" />
  <path
     d="M 789.72096,1050.8209 L 817.06606,1054.3321 L 808.52634,1012.8669 L 789.72096,1050.8209 z "
     id="path7968"
     style="fill:#ffffff;stroke:none;fill-opacity:1" />
</svg>
