<?xml version="1.0" encoding="iso-8859-1"?>
<!DOCTYPE svg PUBLIC "-//W3C//DTD SVG 1.0//EN"    "http://www.w3.org/TR/2001/REC-SVG-20010904/DTD/svg10.dtd" [
	<!ENTITY ns_flows "http://ns.adobe.com/Flows/1.0/">
	<!ENTITY ns_svg "http://www.w3.org/2000/svg">
	<!ENTITY ns_xlink "http://www.w3.org/1999/xlink">
]>
<svg  xmlns="&ns_svg;" xmlns:xlink="&ns_xlink;" xmlns:a="http://ns.adobe.com/AdobeSVGViewerExtensions/3.0/"
	 width="600" height="400" viewBox="0 0 600 400" overflow="visible" enable-background="new 0 0 600 400" xml:space="preserve">
	<g id="Ebene_1">
		<rect fill="#FC1B1C" width="600" height="400"/>
		<g>
			<path fill="#FFFFFF" stroke="#000000" stroke-width="1.2" stroke-miterlimit="3.863693" d="M300.9990234,46.3300781h-1.9433594
				v5.2041016h-6.2695313v4.0668945h6.2695313v9.5253906c-7.7949219,1.390625-7.2871094,10.2382813-7.2871094,10.2382813
				l9.2304688-0.5083008l9.2304688,0.5083008c0,0,0.5078125-8.8476563-7.2871094-10.2382813v-9.5253906h6.2695313v-4.0668945
				h-6.2695313v-5.2041016H300.9990234L300.9990234,46.3300781z"/>
			<polygon fill="#FFFFFF" stroke="#000000" stroke-width="1.2" stroke-miterlimit="3.863693" points="219.7753906,82.3891602 
				228.5205078,82.3891602 228.5205078,93.519043 234.9033203,93.519043 234.9033203,82.3891602 243.2685547,82.3891602 
				243.2685547,93.519043 248.6689453,93.519043 248.6689453,82.3891602 257.3564453,82.3891602 257.3564453,93.519043 
				263.0732422,93.519043 263.0732422,82.3891602 271.3925781,82.3891602 271.3925781,104.309082 268.6005859,105.5141602 
				223.1367188,105.5141602 219.7753906,104.309082 219.7753906,82.3891602 "/>
			<polygon fill="#FFFFFF" stroke="#000000" stroke-width="1.2" stroke-miterlimit="3.863693" points="382.2216797,82.3891602 
				373.4775391,82.3891602 373.4775391,93.519043 367.0947266,93.519043 367.0947266,82.3891602 358.7294922,82.3891602 
				358.7294922,93.519043 353.3291016,93.519043 353.3291016,82.3891602 344.6416016,82.3891602 344.6416016,93.519043 
				338.9248047,93.519043 338.9248047,82.3891602 330.6054688,82.3891602 330.6054688,104.309082 333.3974609,105.5141602 
				378.8613281,105.5141602 382.2216797,104.309082 382.2216797,82.3891602 "/>
			<polygon fill="#FFFFFF" stroke="#000000" stroke-width="1.2" stroke-miterlimit="3.863693" points="223.1367188,105.5083008 
				268.5361328,105.5083008 268.5361328,201.9375 223.1367188,201.9375 223.1367188,105.5083008 "/>
			<polygon fill="#FFFFFF" stroke="#000000" stroke-width="1.2" stroke-miterlimit="3.863693" points="378.8613281,105.5083008 
				333.4619141,105.5083008 333.4619141,201.9375 378.8613281,201.9375 378.8613281,105.5083008 "/>
			<polygon fill="#FFFFFF" stroke="#000000" stroke-width="1.2" stroke-miterlimit="3.863693" points="258.3427734,69.3222656 
				250.1044922,69.3227539 245.9853516,76.4575195 241.8662109,69.3227539 233.6269531,69.3222656 237.7460938,62.1879883 
				233.6269531,55.0532227 241.8662109,55.0527344 245.9853516,47.9179688 250.1044922,55.0527344 258.3427734,55.0532227 
				254.2236328,62.1875 258.3427734,69.3222656 "/>
			<polygon fill="#FFFFFF" stroke="#000000" stroke-width="1.2" stroke-miterlimit="3.863693" points="343.6552734,69.3222656 
				351.8935547,69.3227539 356.0126953,76.4575195 360.1318359,69.3227539 368.3710938,69.3222656 364.2519531,62.1879883 
				368.3710938,55.0532227 360.1328125,55.0527344 356.0126953,47.9179688 351.8935547,55.0527344 343.6552734,55.0532227 
				347.7744141,62.1875 343.6552734,69.3222656 "/>
			<path fill="#FFFFFF" stroke="#000000" stroke-width="1.2" stroke-miterlimit="3.863693" d="M300.9990234,73.3276367
				c-10.9609375,0-22.0673828,9.5996094-22.0673828,21.5810547c2.4042969,0,22.0673828,0,22.0673828,0s19.6630859,0,22.0673828,0
				C323.0664063,82.9272461,311.9599609,73.3276367,300.9990234,73.3276367L300.9990234,73.3276367z"/>
			<polygon fill="#FFFFFF" stroke="#000000" stroke-width="1.2" stroke-miterlimit="3.863693" points="300.9990234,94.9086914 
				275.6357422,94.9086914 275.6357422,104.6552734 278.1357422,105.5083008 300.9990234,105.5083008 323.8623047,105.5083008 
				326.3623047,104.6552734 326.3623047,94.9086914 300.9990234,94.9086914 "/>
			<polygon fill="#FFFFFF" stroke="#000000" stroke-width="1.2" stroke-miterlimit="3.863693" points="300.9990234,105.5083008 
				278.5732422,105.5083008 278.5732422,200.6206055 300.9990234,200.6206055 323.4248047,200.6206055 323.4248047,105.5083008 
				300.9990234,105.5083008 "/>
			<polygon fill="#FFFFFF" stroke="#000000" stroke-width="1.2" stroke-miterlimit="3.863693" points="300.9990234,185.4418945 
				293.96875,185.4418945 293.96875,198.4970703 280.9140625,198.4970703 280.9140625,185.4418945 266.5703125,185.4418945 
				266.5703125,198.4970703 254.6132813,198.4970703 254.6132813,185.4418945 240.7304688,185.4418945 240.7304688,198.4970703 
				228.8642578,198.4970703 228.8642578,185.4418945 212.6132813,185.4418945 212.6132813,210.1787109 216.5458984,211.1181641 
				300.9990234,211.1181641 385.4521484,211.1181641 387.3847656,210.1787109 387.3847656,185.4418945 373.1337891,185.4418945 
				373.1337891,198.4970703 361.2675781,198.4970703 361.2675781,185.4418945 347.3847656,185.4418945 347.3847656,198.4970703 
				335.4267578,198.4970703 335.4267578,185.4418945 321.0839844,185.4418945 321.0839844,198.4970703 308.0283203,198.4970703 
				308.0283203,185.4418945 300.9990234,185.4418945 "/>
			<path fill="#FFFFFF" stroke="#000000" stroke-miterlimit="3.863708" d="M192.7392578,325.453125h214.5214844
				c0,0-7.1708984-12.5371094-15.1748047-48.7988281c-7.3710938-33.3974609-4.6992188-66.4755859-4.6992188-66.4755859H212.6132813
				c0,0,2.671875,33.078125-4.6992188,66.4755859C199.9111328,312.9160156,192.7392578,325.453125,192.7392578,325.453125
				L192.7392578,325.453125z"/>
			<polygon fill="#FFFFFF" stroke="#000000" stroke-miterlimit="3.863693" points="192.7392578,325.453125 407.2617188,325.453125 
				407.2617188,340.0449219 192.7392578,340.0449219 192.7392578,325.453125 "/>
			
				<line fill="none" stroke="#000000" stroke-width="2" stroke-miterlimit="3.863693" x1="193.3388672" y1="325.453125" x2="406.6611328" y2="325.453125"/>
			<path fill="none" stroke="#000000" stroke-width="2" stroke-linecap="square" stroke-miterlimit="3.863693" d="
				M223.8359375,106.0166016h44.0371094 M334.3554688,106.0166016h44.0371094 M279.2011719,106.0166016h43.4375"/>
			<polygon fill="#FFFFFF" points="265.8916016,224.5361328 336.1074219,223.6298828 336.1074219,339.6152344 
				265.8916016,339.6152344 265.8916016,224.5361328 "/>
			<g>
				<defs>
					<polygon id="XMLID_1_" points="265.8916016,224.5361328 336.1074219,223.6298828 336.1074219,339.6152344 
						265.8916016,339.6152344 265.8916016,224.5361328 "/>
				</defs>
				<clipPath id="XMLID_3_">
					<use xlink:href="#XMLID_1_" />
				</clipPath>
				
					<line clip-path="url(#XMLID_3_)" fill="none" stroke="#000000" stroke-miterlimit="3.863708" x1="323.9785156" y1="271.0722656" x2="317.5273438" y2="271.0722656"/>
				<path clip-path="url(#XMLID_3_)" stroke="#000000" stroke-width="0.9099" stroke-miterlimit="3.863708" d="
					M317.0722656,271.1904297c0-3.15625-1.1777344-3.15625-2.1044922-3.15625s0.1132813,1.2714844,0.1132813,3.0146484
					s-1.0400391,3.2988281-0.1132813,3.2988281S317.0722656,274.0625,317.0722656,271.1904297L317.0722656,271.1904297z"/>
				
					<line clip-path="url(#XMLID_3_)" fill="none" stroke="#000000" stroke-miterlimit="3.863708" x1="323.9785156" y1="321.2226563" x2="317.5273438" y2="321.2226563"/>
				<path clip-path="url(#XMLID_3_)" stroke="#000000" stroke-width="0.9099" stroke-miterlimit="3.863708" d="
					M317.0722656,321.3417969c0-3.1572266-1.1777344-3.15625-2.1044922-3.15625s0.1132813,1.2705078,0.1132813,3.0136719
					s-1.0400391,3.2988281-0.1132813,3.2988281S317.0722656,324.2138672,317.0722656,321.3417969L317.0722656,321.3417969z"/>
				<path clip-path="url(#XMLID_3_)" fill="none" stroke="#000000" stroke-width="2.5" stroke-miterlimit="3.863693" d="
					M267.3525391,352.4345703v-86.0947266c0-6.6865234,9.0947266-30.8115234,33.6464844-30.8115234
					s33.6464844,24.125,33.6464844,30.8115234v86.0947266"/>
				<path clip-path="url(#XMLID_3_)" fill="none" stroke="#000000" stroke-width="1.2" stroke-miterlimit="3.863693" d="
					M278.0195313,353.2216797v-82.9521484c0-11.3896484,9.0537109-24.4316406,22.9794922-24.4316406v107.8320313V245.8378906
					c13.9257813,0,22.9794922,13.0419922,22.9794922,24.4316406v82.9521484"/>
				
					<line clip-path="url(#XMLID_3_)" fill="none" stroke="#000000" stroke-miterlimit="3.863708" x1="278.0195313" y1="271.0722656" x2="284.4707031" y2="271.0722656"/>
				<path clip-path="url(#XMLID_3_)" stroke="#000000" stroke-width="0.9099" stroke-miterlimit="3.863708" d="
					M284.9257813,271.1904297c0-3.15625,1.1777344-3.15625,2.1044922-3.15625s-0.1142578,1.2714844-0.1142578,3.0146484
					s1.0410156,3.2988281,0.1142578,3.2988281S284.9257813,274.0625,284.9257813,271.1904297L284.9257813,271.1904297z"/>
				
					<line clip-path="url(#XMLID_3_)" fill="none" stroke="#000000" stroke-miterlimit="3.863708" x1="278.0195313" y1="321.2226563" x2="284.4707031" y2="321.2226563"/>
				<path clip-path="url(#XMLID_3_)" stroke="#000000" stroke-width="0.9099" stroke-miterlimit="3.863708" d="
					M284.9257813,321.3417969c0-3.1572266,1.1777344-3.15625,2.1044922-3.15625s-0.1142578,1.2705078-0.1142578,3.0136719
					s1.0410156,3.2988281,0.1142578,3.2988281S284.9257813,324.2138672,284.9257813,321.3417969L284.9257813,321.3417969z"/>
			</g>
			
				<line fill="none" stroke="#000000" stroke-width="2" stroke-linecap="square" stroke-miterlimit="3.863693" x1="213.2128906" y1="210.1787109" x2="386.8847656" y2="210.1787109"/>
		</g>
	</g>
</svg>
